<svg xmlns="http://www.w3.org/2000/svg" xmlns:xlink="http://www.w3.org/1999/xlink" xmlns:lucid="lucid" width="1801" height="1241"><g transform="translate(180.5 60.5)" lucid:page-tab-id="0_0"><path d="M-500-500h2500v2000H-500z" fill="#fff"/><path d="M81.8 480H200v160H81.8zM280 80h1320v960H280z" stroke="#000" stroke-opacity="0" fill="#dfe3e8"/><path d="M640 486a6 6 0 0 1 6-6h148a6 6 0 0 1 6 6v148a6 6 0 0 1-6 6H646a6 6 0 0 1-6-6z" stroke="#ffe342" stroke-width="5" fill="#3a414a"/><use xlink:href="#a" transform="matrix(1,0,0,1,645,485) translate(15.648871527777793 66.06553819444443)"/><use xlink:href="#b" transform="matrix(1,0,0,1,645,485) translate(58.33550347222223 108.4331597222222)"/><path d="M880 486a6 6 0 0 1 6-6h148a6 6 0 0 1 6 6v148a6 6 0 0 1-6 6H886a6 6 0 0 1-6-6z" stroke="#3a414a" fill="#fff"/><use xlink:href="#c" transform="matrix(1,0,0,1,885,485) translate(12.101779513888907 66.06553819444443)"/><use xlink:href="#d" transform="matrix(1,0,0,1,885,485) translate(4.460720486111114 108.4331597222222)"/><path d="M803 520.03h60.12" stroke="#3a414a" fill="none"/><path d="M803 520.5h-.5v-.94h.5z" stroke="#3a414a" stroke-width=".05" fill="#3a414a"/><path d="M877.88 520.03l-14.26 4.64v-9.27z" stroke="#3a414a" fill="#3a414a"/><path d="M879 600.22h-1.88m-3.76 0h-3.75m-3.75 0h-3.76m-3.76 0h-3.76m-3.76 0h-3.76m-3.75 0h-3.75m-3.76 0h-3.77m-3.75 0h-3.76m-3.76 0h-1.88" stroke="#3a414a" fill="none"/><path d="M879.5 600.7h-.5v-.96h.5z" stroke="#3a414a" stroke-width=".05" fill="#3a414a"/><path d="M804.12 600.22l14.26-4.64v9.27z" stroke="#3a414a" fill="#3a414a"/><path d="M320 486a6 6 0 0 1 6-6h148a6 6 0 0 1 6 6v148a6 6 0 0 1-6 6H326a6 6 0 0 1-6-6z" stroke="#fff" fill="#cfe4ff"/><use xlink:href="#e" transform="matrix(1,0,0,1,325,485) translate(36.635199652777786 66.06553819444443)"/><use xlink:href="#f" transform="matrix(1,0,0,1,325,485) translate(9.291449652777786 108.4331597222222)"/><path d="M481 520.24h140.12" stroke="#3a414a" fill="none"/><path d="M481 520.72h-.5v-.95h.5z" stroke="#3a414a" stroke-width=".05" fill="#3a414a"/><path d="M635.88 520.24l-14.26 4.64v-9.27z" stroke="#3a414a" fill="#3a414a"/><path d="M496.88 600.7h1.95m3.9 0h3.88m3.9 0h3.9m3.9 0h3.88m3.9 0h3.9m3.88 0h3.9m3.88 0h3.9m3.9 0h3.88m3.9 0h3.88m3.9 0h3.9m3.88 0h3.9m3.88 0h3.9m3.9 0h3.88m3.9 0H600m3.9 0h3.9m3.88 0h3.9m3.9 0h3.88m3.9 0h3.88m3.9 0H637" stroke="#3a414a" fill="none"/><path d="M482.12 600.7l14.26-4.64v9.27z" stroke="#3a414a" fill="#3a414a"/><path d="M637.5 601.17h-.5v-.95h.5z" stroke="#3a414a" stroke-width=".05" fill="#3a414a"/><path d="M1120 166a6 6 0 0 1 6-6h148a6 6 0 0 1 6 6v148a6 6 0 0 1-6 6h-148a6 6 0 0 1-6-6z" stroke="#1071e5" stroke-width="5" fill="#3a414a"/><use xlink:href="#a" transform="matrix(1,0,0,1,1125,165) translate(15.648871527777793 66.06553819444443)"/><use xlink:href="#b" transform="matrix(1,0,0,1,1125,165) translate(58.33550347222223 108.4331597222222)"/><path d="M1360 166a6 6 0 0 1 6-6h148a6 6 0 0 1 6 6v148a6 6 0 0 1-6 6h-148a6 6 0 0 1-6-6z" stroke="#3a414a" fill="#fff"/><use xlink:href="#c" transform="matrix(1,0,0,1,1365,165) translate(12.101779513888907 66.06553819444443)"/><use xlink:href="#d" transform="matrix(1,0,0,1,1365,165) translate(4.460720486111114 108.4331597222222)"/><path d="M1283 200.03H1343.12" stroke="#3a414a" fill="none"/><path d="M1283 200.5h-.5v-.94h.5z" stroke="#3a414a" stroke-width=".05" fill="#3a414a"/><path d="M1357.88 200.03l-14.27 4.64.02-9.27z" stroke="#3a414a" fill="#3a414a"/><path d="M1359 280.22h-1.88m-3.76 0h-3.75m-3.75 0h-3.76m-3.76 0h-3.76m-3.76 0h-3.76m-3.75 0h-3.75m-3.76 0h-3.77m-3.75 0h-3.76m-3.76 0h-1.88" stroke="#3a414a" fill="none"/><path d="M1359.5 280.7h-.5v-.96h.5z" stroke="#3a414a" stroke-width=".05" fill="#3a414a"/><path d="M1284.12 280.22l14.26-4.64v9.27z" stroke="#3a414a" fill="#3a414a"/><path d="M1120 806a6 6 0 0 1 6-6h148a6 6 0 0 1 6 6v148a6 6 0 0 1-6 6h-148a6 6 0 0 1-6-6z" stroke="#1071e5" stroke-width="5" fill="#3a414a"/><use xlink:href="#a" transform="matrix(1,0,0,1,1125.0000000000002,805) translate(15.648871527777793 66.06553819444443)"/><use xlink:href="#b" transform="matrix(1,0,0,1,1125.0000000000002,805) translate(58.33550347222223 108.4331597222222)"/><path d="M1360 806a6 6 0 0 1 6-6h148a6 6 0 0 1 6 6v148a6 6 0 0 1-6 6h-148a6 6 0 0 1-6-6z" stroke="#3a414a" fill="#fff"/><use xlink:href="#c" transform="matrix(1,0,0,1,1365.0000000000002,805) translate(12.101779513888907 66.06553819444443)"/><use xlink:href="#d" transform="matrix(1,0,0,1,1365.0000000000002,805) translate(4.460720486111114 108.4331597222222)"/><path d="M1283 840.03h37.52a.48.48 0 0 1 .48.5.48.48 0 0 0 .48.47h21.64" stroke="#3a414a" fill="none"/><path d="M1283 840.5h-.5v-.94h.5z" stroke="#3a414a" stroke-width=".05" fill="#3a414a"/><path d="M1357.88 841l-14.26 4.63v-9.26z" stroke="#3a414a" fill="#3a414a"/><path d="M1359 919.24h-1.88m-3.75 0h-3.75m-3.75 0h-3.75m-3.75 0h-3.75m-3.75 0h-3.76m-3.74 0H1321.4l-.06.03-.07.02-.07.04-.06.04-.05.06-.05.07-.03.08v.07l-.02.08v.08l-.02.08-.03.07-.04.07-.04.05-.06.05-.07.04-.07.03h-.07l-.1.02h-1.8m-3.6 0h-3.6m-3.6 0h-3.6m-3.6 0h-1.82" stroke="#3a414a" fill="none"/><path d="M1359.5 919.72h-.5v-.95h.5z" stroke="#3a414a" stroke-width=".05" fill="#3a414a"/><path d="M1284.12 920.22l14.26-4.64v9.27z" stroke="#3a414a" fill="#3a414a"/><path d="M1117 921.7h-2m-3.97 0h-4m-3.97 0h-4m-3.97 0h-4m-3.98 0h-3.98m-4 0h-3.97m-3.98 0h-4m-3.98 0h-3.98m-4 0h-3.97m-3.98 0h-4m-3.98 0h-3.98m-4 0h-3.97m-4 0h-3.97m-3.98 0h-4m-3.97 0h-3.98m-4 0h-3.97m-4 0h-3.97m-3.98 0h-4m-3.97 0h-3.98m-4 0h-3.97m-4 0h-3.97m-3.98 0h-4m-3.97 0h-3.97m-4 0h-3.97m-3.98 0h-2l-.93-.07-.92-.22-.43-.16m-3.24-3.24l-.18-.44-.22-.9-.08-.95v-2m0-4.06v-4.04m0-4.05v-4.04m0-4.03v-4.05m0-4.04v-4.05m0-4.04v-4.05m0-4.05v-4.04m0-4.05v-4.03m0-4.05V849m0-4.04v-4.05m0-4.05v-4.05m0-4.04v-4.04m0-4.05v-4.04m0-4.05v-4.04m0-4.04v-4.05m0-4.04v-4.04m0-4.04v-4.05m0-4.04v-4.04m0-4.06v-4.04m0-4.05V760m0-4.03v-4.05m0-4.04v-4.05m0-4.04v-4.05m0-4.05v-4.04m0-4.05v-4.03m0-4.05v-4.04m0-4.04v-4.05m0-4.05v-4.05m0-4.04v-4.04m0-4.05v-4.04m0-4.05v-4.04m0-4.05v-4.05m0-4.04v-2.02" stroke="#3a414a" fill="none"/><path d="M1117.5 922.18h-.5v-.95h.5z" stroke="#3a414a" stroke-width=".05" fill="#3a414a"/><path d="M919.78 642.12l4.64 14.26h-9.27z" stroke="#3a414a" fill="#3a414a"/><path d="M1000.16 641v193.27a6 6 0 0 0 6 6h94.96" stroke="#3a414a" fill="none"/><path d="M1000.64 641h-.95v-.5h.94z" stroke="#3a414a" stroke-width=".05" fill="#3a414a"/><path d="M1115.88 840.27l-14.26 4.63v-9.27z" stroke="#3a414a" fill="#3a414a"/><path d="M1000.16 463.12v-2m0-4v-4m0-4v-4.02m0-4v-4m0-4v-4m0-4v-4m0-4.02v-4m0-4v-4m0-4v-4m0-4v-4m0-4.02v-4m0-4v-4m0-4v-4m0-4v-4.02m0-4v-4m0-4v-4m0-4v-4m0-4.02v-4m0-4v-4m0-4v-4m0-4V301m0-4v-4m0-4v-2l.08-.94.22-.92.18-.44m3.23-3.23l.44-.18.92-.23.94-.08h1.98m3.96 0h3.96m3.96 0h3.96m3.95 0h3.96m3.95 0h3.96m3.97 0h3.96m3.95 0h3.96m3.96 0h3.96m3.96 0h3.96m3.96 0h3.95m3.95 0h3.96m3.97 0h3.96m3.96 0h3.94m3.96 0h3.96m3.96 0h1.98" stroke="#3a414a" fill="none"/><path d="M1000.16 477.88l-4.63-14.26h9.27z" stroke="#3a414a" fill="#3a414a"/><path d="M1117.5 281.47h-.5v-.95h.5z" stroke="#3a414a" stroke-width=".05" fill="#3a414a"/><path d="M1101.12 198.3H925.78a6 6 0 0 0-6 6V479" stroke="#3a414a" fill="none"/><path d="M1115.88 198.3l-14.26 4.63v-9.27z" stroke="#3a414a" fill="#3a414a"/><path d="M920.26 479.5h-.95v-.5h.96z" stroke="#3a414a" stroke-width=".05" fill="#3a414a"/><path d="M510-34a6 6 0 0 1 6-6h408a6 6 0 0 1 6 6v68a6 6 0 0 1-6 6H516a6 6 0 0 1-6-6z" stroke="#000" stroke-opacity="0" fill="#fff" fill-opacity="0"/><use xlink:href="#g" transform="matrix(1,0,0,1,515,-35) translate(22.228190104166742 48.75325520833332)"/><use xlink:href="#h" transform="matrix(1,0,0,1,515,-35) translate(87.31608072916671 48.75325520833332)"/><use xlink:href="#i" transform="matrix(1,0,0,1,515,-35) translate(186.59993489583334 48.75325520833332)"/><use xlink:href="#j" transform="matrix(1,0,0,1,515,-35) translate(260.2327473958333 48.75325520833332)"/><path d="M720 40.5V477" stroke="#3a414a" fill="none"/><path d="M720.48 40.5h-.96V40h.96zM720.48 477.5h-.96v-.5h.96z" stroke="#3a414a" stroke-width=".05" fill="#3a414a"/><path d="M1166.45-34a6 6 0 0 1 6-6h408a6 6 0 0 1 6 6v68a6 6 0 0 1-6 6h-408a6 6 0 0 1-6-6z" stroke="#000" stroke-opacity="0" fill="#fff" fill-opacity="0"/><use xlink:href="#k" transform="matrix(1,0,0,1,1171.4516129032259,-35) translate(145.24251302083337 48.75325520833332)"/><path d="M1376.45 40.5v39" stroke="#3a414a" fill="none"/><path d="M1376.93 40.5h-.95V40h.95zM1376.93 80h-.95v-.5h.95z" stroke="#3a414a" stroke-width=".05" fill="#3a414a"/><path d="M600 120h960v880H600z" fill-opacity="0"/><path d="M606 120h4m4 0h4m4 0h4m4 0h4m4 0h4m4 0h4m4 0h4m4 0h4m4 0h4m4 0h4m4 0h4m4 0h4m4 0h4m4 0h4m4 0h4m4 0h4m4 0h4m4 0h4m4 0h4m4 0h4m4 0h4m4 0h4m4 0h4m4 0h4m4 0h4m4 0h4m4 0h4m4 0h4m4 0h4m4 0h4m4 0h4m4 0h4m4 0h4m4 0h4m4 0h4m4 0h4m4 0h4m4 0h4m4 0h4m4 0h4m4 0h4m4 0h4m4 0h4m4 0h4m4 0h4m4 0h4m4 0h4m4 0h4m4 0h4m4 0h4m4 0h4m4 0h4m4 0h4m4 0h4m4 0h4m4 0h4m4 0h4m4 0h4m4 0h4m4 0h4m4 0h4m4 0h4m4 0h4m4 0h4m4 0h4m4 0h4m4 0h4m4 0h4m4 0h4m4 0h4m4 0h4m4 0h4m4 0h4m4 0h4m4 0h4m4 0h4m4 0h4m4 0h4m4 0h4m4 0h4m4 0h4m4 0h4m4 0h4m4 0h4m4 0h4m4 0h4m4 0h4m4 0h4m4 0h4m4 0h4m4 0h4m4 0h4m4 0h4m4 0h4m4 0h4m4 0h4m4 0h4m4 0h4m4 0h4m4 0h4m4 0h4m4 0h4m4 0h4m4 0h4m4 0h4m4 0h4m4 0h4m4 0h4m4 0h4m4 0h4m4 0h4m4 0h4m4 0h4m4 0h4m4 0h4m4 0h4m4 0h4m4 0h4m4 0h4m4 0h2v2m0 4v4m0 4v4m0 4v4m0 4v4m0 4v4m0 4v4m0 4v4m0 4v4m0 4v4m0 4v4m0 4v4m0 4v4m0 4v4m0 4v4m0 4v4m0 4v4m0 4v4m0 4v4m0 4v4m0 4v4m0 4v4m0 4v4m0 4v4m0 4v4m0 4v4m0 4v4m0 4v4m0 4v4m0 4v4m0 4v4m0 4v4m0 4v4m0 4v4m0 4v4m0 4v4m0 4v4m0 4v4m0 4v4m0 4v4m0 4v4m0 4v4m0 4v4m0 4v4m0 4v4m0 4v4m0 4v4m0 4v4m0 4v4m0 4v4m0 4v4m0 4v4m0 4v4m0 4v4m0 4v4m0 4v4m0 4v4m0 4v4m0 4v4m0 4v4m0 4v4m0 4v4m0 4v4m0 4v4m0 4v4m0 4v4m0 4v4m0 4v4m0 4v4m0 4v4m0 4v4m0 4v4m0 4v4m0 4v4m0 4v4m0 4v4m0 4v4m0 4v4m0 4v4m0 4v4m0 4v4m0 4v4m0 4v4m0 4v4m0 4v4m0 4v4m0 4v4m0 4v4m0 4v4m0 4v4m0 4v4m0 4v4m0 4v4m0 4v4m0 4v4m0 4v4m0 4v4m0 4v4m0 4v4m0 4v4m0 4v4m0 4v4m0 4v4m0 4v4m0 4v4m0 4v4m0 4v4m0 4v4m0 4v4m0 4v4m0 4v2h-2m-4 0h-4m-4 0h-4m-4 0h-4m-4 0h-4m-4 0h-4m-4 0h-4m-4 0h-4m-4 0h-4m-4 0h-4m-4 0h-4m-4 0h-4m-4 0h-4m-4 0h-4m-4 0h-4m-4 0h-4m-4 0h-4m-4 0h-4m-4 0h-4m-4 0h-4m-4 0h-4m-4 0h-4m-4 0h-4m-4 0h-4m-4 0h-4m-4 0h-4m-4 0h-4m-4 0h-4m-4 0h-4m-4 0h-4m-4 0h-4m-4 0h-4m-4 0h-4m-4 0h-4m-4 0h-4m-4 0h-4m-4 0h-4m-4 0h-4m-4 0h-4m-4 0h-4m-4 0h-4m-4 0h-4m-4 0h-4m-4 0h-4m-4 0h-4m-4 0h-4m-4 0h-4m-4 0h-4m-4 0h-4m-4 0h-4m-4 0h-4m-4 0h-4m-4 0h-4m-4 0h-4m-4 0h-4m-4 0h-4m-4 0h-4m-4 0h-4m-4 0h-4m-4 0h-4m-4 0h-4m-4 0h-4m-4 0h-4m-4 0h-4m-4 0h-4m-4 0h-4m-4 0h-4m-4 0h-4m-4 0h-4m-4 0h-4m-4 0h-4m-4 0h-4m-4 0h-4m-4 0h-4m-4 0h-4m-4 0h-4m-4 0h-4m-4 0h-4m-4 0h-4m-4 0h-4m-4 0h-4m-4 0h-4m-4 0h-4m-4 0h-4m-4 0h-4m-4 0h-4m-4 0h-4m-4 0h-4m-4 0h-4m-4 0h-4m-4 0h-4m-4 0h-4m-4 0h-4m-4 0h-4m-4 0h-4m-4 0h-4m-4 0h-4m-4 0h-4m-4 0h-4m-4 0h-4m-4 0h-4m-4 0h-4m-4 0h-4m-4 0h-4m-4 0h-4m-4 0h-4m-4 0h-4m-4 0h-4m-4 0h-4m-4 0h-4m-4 0h-4m-4 0h-4m-4 0h-4m-4 0h-4m-4 0h-4m-4 0h-4m-4 0h-4m-4 0h-4m-4 0h-4m-4 0h-4m-4 0h-2v-2m0-4v-4m0-4v-4m0-4v-4m0-4v-4m0-4v-4m0-4v-4m0-4v-4m0-4v-4m0-4v-4m0-4v-4m0-4v-4m0-4v-4m0-4v-4m0-4v-4m0-4v-4m0-4v-4m0-4v-4m0-4v-4m0-4v-4m0-4v-4m0-4v-4m0-4v-4m0-4v-4m0-4v-4m0-4v-4m0-4v-4m0-4v-4m0-4v-4m0-4v-4m0-4v-4m0-4v-4m0-4v-4m0-4v-4m0-4v-4m0-4v-4m0-4v-4m0-4v-4m0-4v-4m0-4v-4m0-4v-4m0-4v-4m0-4v-4m0-4v-4m0-4v-4m0-4v-4m0-4v-4m0-4v-4m0-4v-4m0-4v-4m0-4v-4m0-4v-4m0-4v-4m0-4v-4m0-4v-4m0-4v-4m0-4v-4m0-4v-4m0-4v-4m0-4v-4m0-4v-4m0-4v-4m0-4v-4m0-4v-4m0-4v-4m0-4v-4m0-4v-4m0-4v-4m0-4v-4m0-4v-4m0-4v-4m0-4v-4m0-4v-4m0-4v-4m0-4v-4m0-4v-4m0-4v-4m0-4v-4m0-4v-4m0-4v-4m0-4v-4m0-4v-4m0-4v-4m0-4v-4m0-4v-4m0-4v-4m0-4v-4m0-4v-4m0-4v-4m0-4v-4m0-4v-4m0-4v-4m0-4v-4m0-4v-4m0-4v-4m0-4v-4m0-4v-4m0-4v-4m0-4v-4m0-4v-4m0-4v-4m0-4v-4m0-4v-4m0-4v-4m0-4v-4m0-4v-4m0-4v-4m0-4v-4m0-4v-4m0-4v-4m0-4v-2h2" stroke="#3a414a" fill="none"/><path d="M750 1086a6 6 0 0 1 6-6h408a6 6 0 0 1 6 6v68a6 6 0 0 1-6 6H756a6 6 0 0 1-6-6z" stroke="#000" stroke-opacity="0" fill="#fff" fill-opacity="0"/><use xlink:href="#l" transform="matrix(1,0,0,1,755,1085) translate(71.47135416666671 48.75325520833332)"/><use xlink:href="#m" transform="matrix(1,0,0,1,755,1085) translate(254.13736979166666 48.75325520833332)"/><path d="M960 1079.5V1001" stroke="#3a414a" fill="none"/><path d="M960.48 1080h-.96v-.5h.96zM960.48 1001h-.96v-.5h.96z" stroke="#3a414a" stroke-width=".05" fill="#3a414a"/><path d="M-160 486a6 6 0 0 1 6-6H-6a6 6 0 0 1 6 6v148a6 6 0 0 1-6 6h-148a6 6 0 0 1-6-6z" stroke="#fff" fill="#cfe4ff"/><use xlink:href="#n" transform="matrix(1,0,0,1,-155,485) translate(33.589409722222236 84.81553819444443)"/><path d="M1 519.5h64.42" stroke="#3a414a" fill="none"/><path d="M1 519.97H.5v-.95H1z" stroke="#3a414a" stroke-width=".05" fill="#3a414a"/><path d="M80.19 519.5l-14.28 4.63v-9.27z" stroke="#3a414a" fill="#3a414a"/><path d="M81.3 597.7h-2m-4.04 0h-4.02m-4.03 0H63.2m-4.02 0h-4.03m-4.02 0H47.1m-4.03 0h-4.02m-4.03 0h-4.02m-4.03 0h-4.03m-4.02 0h-2.02" stroke="#3a414a" fill="none"/><path d="M81.8 598.16h-.5v-.95h.5z" stroke="#3a414a" stroke-width=".05" fill="#3a414a"/><path d="M2.12 597.7l14.26-4.65v9.27z" stroke="#3a414a" fill="#3a414a"/><path d="M40.38 286a6 6 0 0 1 6-6h188a6 6 0 0 1 6 6v108a6 6 0 0 1-6 6h-188a6 6 0 0 1-6-6z" stroke="#000" stroke-opacity="0" fill="#fff" fill-opacity="0"/><g><use xlink:href="#o" transform="matrix(1,0,0,1,45.37592058917707,285) translate(28.61816406250003 66.56575520833331)"/></g><path d="M140.38 400.5v39.24a.26.26 0 0 0 .26.26.26.26 0 0 1 .26.26v39.24" stroke="#3a414a" fill="none"/><path d="M140.85 400.5h-.95v-.5h.95zM141.38 480h-.95v-.5h.95z" stroke="#3a414a" stroke-width=".05" fill="#3a414a"/><path d="M319 602.2h-2.12m-4.23 0h-4.23m-4.23 0h-4.25m-4.23 0h-4.23m-4.24 0h-4.23m-4.23 0h-4.24m-4.23 0h-4.23m-4.23 0h-4.29m-4.33 0h-4.34m-4.33 0h-4.33m-4.34 0h-4.34m-4.33 0h-4.34m-4.35 0h-2.17" stroke="#3a414a" fill="none"/><path d="M319.5 602.67h-.5v-.95h.5z" stroke="#3a414a" stroke-width=".05" fill="#3a414a"/><path d="M201.62 602.2l14.26-4.64v9.27z" stroke="#3a414a" fill="#3a414a"/><path d="M200.5 519.5h102.62" stroke="#3a414a" fill="none"/><path d="M200.5 519.97h-.5v-.95h.5z" stroke="#3a414a" stroke-width=".05" fill="#3a414a"/><path d="M317.88 519.5l-14.26 4.63v-9.27z" stroke="#3a414a" fill="#3a414a"/><defs><path fill="#fff" d="M1128-1036c0 321-241 464-585 461H371V0H201v-1462h379c365 0 548 142 548 426zm-176 8c0-218-150-286-391-287H371v594h153c270-3 428-62 428-307" id="p"/><path fill="#fff" d="M340-893c80-153 237-262 467-211l-23 154c-45-10-85-15-120-15-184-3-322 182-322 377V0H176v-1096h137l19 203h8" id="q"/><path fill="#fff" d="M621-1116c316 0 501 239 501 567 0 339-180 575-508 569S119-212 115-549c-4-339 178-567 506-567zm-5 141c-239 0-329 168-329 426 0 255 93 430 331 430s332-174 332-430-95-426-334-426" id="r"/><path fill="#fff" d="M1368-1116c259 2 372 131 371 401V0h-166v-713c0-168-66-262-230-262-221 0-303 131-303 363V0H874v-713c-1-169-66-262-231-262-235 0-301 142-301 400V0H176v-1096h135l27 150h8c56-99 174-170 324-170 171 0 283 62 336 186h8c60-108 189-187 354-186" id="s"/><path fill="#fff" d="M342 0H176v-1096h166V0zm-82-1282c-61 0-98-43-98-111 0-69 36-110 98-110 59 0 98 43 98 110s-39 111-98 111" id="t"/><path fill="#fff" d="M502-977c-130 0-238 32-238 139 0 75 39 101 95 134 33 19 97 46 192 81 130 48 217 95 263 143s69 108 69 181C883-73 695 20 449 20 304 20 190-3 109-49v-154c91 47 216 86 344 86 149 0 270-36 270-168 0-43-21-76-55-109-56-55-367-158-434-208-74-55-128-109-128-225 0-327 490-342 754-217l-59 135c-110-45-210-68-299-68" id="u"/><path fill="#fff" d="M995-51C878-2 799 19 639 20c-329 2-524-221-524-559 0-326 172-577 481-577 278 0 451 210 446 493v105H287c4 242 121 392 358 393 118 0 235-25 350-74v148zM864-653c2-195-85-324-270-324-190 0-288 139-303 324h573" id="v"/><g id="a"><use transform="matrix(0.015190972222222219,0,0,0.015190972222222219,0,0)" xlink:href="#p"/><use transform="matrix(0.015190972222222219,0,0,0.015190972222222219,18.730468749999996,0)" xlink:href="#q"/><use transform="matrix(0.015190972222222219,0,0,0.015190972222222219,30.80729166666666,0)" xlink:href="#r"/><use transform="matrix(0.015190972222222219,0,0,0.015190972222222219,49.59852430555554,0)" xlink:href="#s"/><use transform="matrix(0.015190972222222219,0,0,0.015190972222222219,78.53732638888887,0)" xlink:href="#t"/><use transform="matrix(0.015190972222222219,0,0,0.015190972222222219,86.40624999999999,0)" xlink:href="#u"/><use transform="matrix(0.015190972222222219,0,0,0.015190972222222219,101.24782986111109,0)" xlink:href="#v"/></g><path fill="#fff" d="M184 0v-1462h310V0H184" id="w"/><path fill="#fff" d="M643-1462c464-5 754 260 754 717 0 491-297 749-799 745H184v-1462h459zm432 725c0-314-139-471-416-471H494v952h133c299 0 448-160 448-481" id="x"/><g id="b"><use transform="matrix(0.015190972222222219,0,0,0.015190972222222219,0,0)" xlink:href="#w"/><use transform="matrix(0.015190972222222219,0,0,0.015190972222222219,10.299479166666664,0)" xlink:href="#x"/></g><path fill="#3a414a" d="M371 0H201v-1462h815v151H371v535h606v151H371V0" id="y"/><path fill="#3a414a" d="M563 20c-271 0-399-123-399-399v-717h168v711c1 177 76 266 252 266 250 0 331-135 331-401v-576h166V0H944l-24-147h-9C848-44 724 20 563 20" id="z"/><path fill="#3a414a" d="M694-1116c270 0 399 125 398 401V0H926v-709c-1-177-76-266-252-266-250 0-332 133-332 400V0H176v-1096h135l27 150h8c62-101 190-170 348-170" id="A"/><path fill="#3a414a" d="M287-543c-1 247 91 418 323 418 91 0 185-20 281-59v147C818 1 725 20 614 20c-329 0-499-221-499-561 0-349 172-575 510-575 96 0 221 26 282 57l-51 141c-61-25-157-50-235-51-223 0-334 142-334 426" id="B"/><path fill="#3a414a" d="M354-322c-2 123 60 204 176 205 51 1 114-10 150-20v127C647 7 557 20 506 20 294 20 188-92 188-315v-652H31v-80l157-69 70-234h96v254h318v129H354v645" id="C"/><path fill="#3a414a" d="M342 0H176v-1096h166V0zm-82-1282c-61 0-98-43-98-111 0-69 36-110 98-110 59 0 98 43 98 110s-39 111-98 111" id="D"/><path fill="#3a414a" d="M621-1116c316 0 501 239 501 567 0 339-180 575-508 569S119-212 115-549c-4-339 178-567 506-567zm-5 141c-239 0-329 168-329 426 0 255 93 430 331 430s332-174 332-430-95-426-334-426" id="E"/><g id="c"><use transform="matrix(0.015190972222222219,0,0,0.015190972222222219,0,0)" xlink:href="#y"/><use transform="matrix(0.015190972222222219,0,0,0.015190972222222219,16.056857638888886,0)" xlink:href="#z"/><use transform="matrix(0.015190972222222219,0,0,0.015190972222222219,35.151909722222214,0)" xlink:href="#A"/><use transform="matrix(0.015190972222222219,0,0,0.015190972222222219,54.24696180555554,0)" xlink:href="#B"/><use transform="matrix(0.015190972222222219,0,0,0.015190972222222219,69.0581597222222,0)" xlink:href="#C"/><use transform="matrix(0.015190972222222219,0,0,0.015190972222222219,80.04123263888886,0)" xlink:href="#D"/><use transform="matrix(0.015190972222222219,0,0,0.015190972222222219,87.91015624999997,0)" xlink:href="#E"/><use transform="matrix(0.015190972222222219,0,0,0.015190972222222219,106.70138888888886,0)" xlink:href="#A"/></g><path fill="#3a414a" d="M1016 0H201v-1462h815v151H371v471h606v150H371v538h645V0" id="F"/><path fill="#3a414a" d="M440-561L59-1096h189l289 420 288-420h187L631-561 1032 0H844L537-444 227 0H39" id="G"/><path fill="#3a414a" d="M995-51C878-2 799 19 639 20c-329 2-524-221-524-559 0-326 172-577 481-577 278 0 451 210 446 493v105H287c4 242 121 392 358 393 118 0 235-25 350-74v148zM864-653c2-195-85-324-270-324-190 0-288 139-303 324h573" id="H"/><g id="d"><use transform="matrix(0.015190972222222219,0,0,0.015190972222222219,0,0)" xlink:href="#F"/><use transform="matrix(0.015190972222222219,0,0,0.015190972222222219,17.302517361111107,0)" xlink:href="#G"/><use transform="matrix(0.015190972222222219,0,0,0.015190972222222219,32.979600694444436,0)" xlink:href="#H"/><use transform="matrix(0.015190972222222219,0,0,0.015190972222222219,50.434027777777764,0)" xlink:href="#B"/><use transform="matrix(0.015190972222222219,0,0,0.015190972222222219,65.24522569444443,0)" xlink:href="#z"/><use transform="matrix(0.015190972222222219,0,0,0.015190972222222219,84.34027777777776,0)" xlink:href="#C"/><use transform="matrix(0.015190972222222219,0,0,0.015190972222222219,95.32335069444443,0)" xlink:href="#D"/><use transform="matrix(0.015190972222222219,0,0,0.015190972222222219,103.19227430555554,0)" xlink:href="#E"/><use transform="matrix(0.015190972222222219,0,0,0.015190972222222219,121.98350694444443,0)" xlink:href="#A"/></g><path fill="#3a414a" d="M1311 0h-170v-688H371V0H201v-1462h170v622h770v-622h170V0" id="I"/><path fill="#3a414a" d="M651 0H481v-1311H18v-151h1096v151H651V0" id="J"/><path fill="#3a414a" d="M1128-1036c0 321-241 464-585 461H371V0H201v-1462h379c365 0 548 142 548 426zm-176 8c0-218-150-286-391-287H371v594h153c270-3 428-62 428-307" id="K"/><g id="e"><use transform="matrix(0.015190972222222219,0,0,0.015190972222222219,0,0)" xlink:href="#I"/><use transform="matrix(0.015190972222222219,0,0,0.015190972222222219,22.95355902777777,0)" xlink:href="#J"/><use transform="matrix(0.015190972222222219,0,0,0.015190972222222219,40.78776041666666,0)" xlink:href="#J"/><use transform="matrix(0.015190972222222219,0,0,0.015190972222222219,57.99913194444443,0)" xlink:href="#K"/></g><path fill="#3a414a" d="M115-545c0-330 146-571 454-571 149 0 263 54 342 162h13c-20-185-8-401-11-602h166V0H944l-22-147h-9C836-36 722 20 569 20c-309 0-454-234-454-565zm172 2c0 249 78 424 303 424 257 0 327-150 323-426-4-282-68-432-325-432-220 0-301 191-301 434" id="L"/><path fill="#3a414a" d="M1141-549c0 329-147 569-455 569-159 0-273-61-344-161h-12c23 199 7 418 12 633H176v-1588h135l23 150h8c77-108 175-170 344-170 311 0 455 237 455 567zm-172-2c0-242-88-424-307-424-256 0-323 154-320 426 3 280 68 430 324 430 213 0 303-196 303-432" id="M"/><g id="f"><use transform="matrix(0.015190972222222219,0,0,0.015190972222222219,0,0)" xlink:href="#H"/><use transform="matrix(0.015190972222222219,0,0,0.015190972222222219,17.45442708333333,0)" xlink:href="#A"/><use transform="matrix(0.015190972222222219,0,0,0.015190972222222219,36.54947916666666,0)" xlink:href="#L"/><use transform="matrix(0.015190972222222219,0,0,0.015190972222222219,55.61414930555554,0)" xlink:href="#M"/><use transform="matrix(0.015190972222222219,0,0,0.015190972222222219,74.67881944444443,0)" xlink:href="#E"/><use transform="matrix(0.015190972222222219,0,0,0.015190972222222219,93.47005208333331,0)" xlink:href="#D"/><use transform="matrix(0.015190972222222219,0,0,0.015190972222222219,101.33897569444443,0)" xlink:href="#A"/><use transform="matrix(0.015190972222222219,0,0,0.015190972222222219,120.43402777777776,0)" xlink:href="#C"/></g><path fill="#3a414a" d="M125-733c6-459 248-750 704-750 153 0 287 28 402 84l-72 146c-111-52-221-78-332-78-334-1-520 251-520 600 0 361 171 600 518 600 102 0 218-18 349-55v149C1073 1 948 20 799 20c-445 1-680-294-674-753" id="N"/><path fill="#3a414a" d="M588-1114c260 0 384 106 385 366V0H850l-33-156h-8C708-34 639 17 442 20 231 23 94-94 94-303c0-221 177-337 531-348l186-6c11-203-40-320-233-320-91 0-195 28-310 84l-51-127c97-53 229-94 371-94zM268-301c-1 123 81 184 207 184 203 0 334-120 332-323v-99c-257 14-539-7-539 238" id="O"/><path fill="#3a414a" d="M342 0H176v-1556h166V0" id="P"/><g id="g"><use transform="matrix(0.01627604166666666,0,0,0.01627604166666666,0,0)" xlink:href="#N"/><use transform="matrix(0.01627604166666666,0,0,0.01627604166666666,21.028645833333325,0)" xlink:href="#O"/><use transform="matrix(0.01627604166666666,0,0,0.01627604166666666,39.56705729166665,0)" xlink:href="#P"/><use transform="matrix(0.01627604166666666,0,0,0.01627604166666666,47.99804687499998,0)" xlink:href="#P"/></g><path fill="#3a414a" d="M125-741c0-247 161-377 414-375 57 0 109 7 155 20h379v105l-203 24c37 48 72 129 72 219 0 255-227 390-504 345-71 37-106 84-106 141 0 78 66 88 164 88h194c219-1 369 87 369 293 0 121-49 213-146 277s-239 96-426 96c-250 0-448-83-448-306C39 36 147-58 283-86c-52-23-102-79-99-152 4-104 57-143 133-192-107-42-192-164-192-311zM438-25c-143-1-242 70-239 209s131 181 290 181c139 0 242-21 309-63s101-98 101-169c0-147-88-158-262-158H438zm94-970c-158 0-243 88-243 250 0 153 93 233 246 233 162 0 243-79 243-236 0-165-82-247-246-247" id="Q"/><path fill="#3a414a" d="M340-893c80-153 237-262 467-211l-23 154c-45-10-85-15-120-15-184-3-322 182-322 377V0H176v-1096h137l19 203h8" id="R"/><path fill="#3a414a" d="M690-1114c271 2 402 123 402 399V0H926v-709c-1-177-76-266-252-266-251 0-332 135-332 402V0H176v-1556h166c-4 200 8 426-8 612h10c61-100 187-171 346-170" id="S"/><g id="h"><use transform="matrix(0.01627604166666666,0,0,0.01627604166666666,0,0)" xlink:href="#Q"/><use transform="matrix(0.01627604166666666,0,0,0.01627604166666666,18.261718749999993,0)" xlink:href="#R"/><use transform="matrix(0.01627604166666666,0,0,0.01627604166666666,31.20117187499999,0)" xlink:href="#O"/><use transform="matrix(0.01627604166666666,0,0,0.01627604166666666,49.739583333333314,0)" xlink:href="#M"/><use transform="matrix(0.01627604166666666,0,0,0.01627604166666666,70.16601562499997,0)" xlink:href="#S"/></g><g id="i"><use transform="matrix(0.01627604166666666,0,0,0.01627604166666666,0,0)" xlink:href="#R"/><use transform="matrix(0.01627604166666666,0,0,0.01627604166666666,12.939453124999995,0)" xlink:href="#E"/><use transform="matrix(0.01627604166666666,0,0,0.01627604166666666,33.07291666666666,0)" xlink:href="#E"/><use transform="matrix(0.01627604166666666,0,0,0.01627604166666666,53.206380208333314,0)" xlink:href="#C"/></g><path fill="#3a414a" d="M1368-1116c259 2 372 131 371 401V0h-166v-713c0-168-66-262-230-262-221 0-303 131-303 363V0H874v-713c-1-169-66-262-231-262-235 0-301 142-301 400V0H176v-1096h135l27 150h8c56-99 174-170 324-170 171 0 283 62 336 186h8c60-108 189-187 354-186" id="T"/><path fill="#3a414a" d="M502-977c-130 0-238 32-238 139 0 75 39 101 95 134 33 19 97 46 192 81 130 48 217 95 263 143s69 108 69 181C883-73 695 20 449 20 304 20 190-3 109-49v-154c91 47 216 86 344 86 149 0 270-36 270-168 0-43-21-76-55-109-56-55-367-158-434-208-74-55-128-109-128-225 0-327 490-342 754-217l-59 135c-110-45-210-68-299-68" id="U"/><g id="j"><use transform="matrix(0.01627604166666666,0,0,0.01627604166666666,0,0)" xlink:href="#M"/><use transform="matrix(0.01627604166666666,0,0,0.01627604166666666,20.42643229166666,0)" xlink:href="#R"/><use transform="matrix(0.01627604166666666,0,0,0.01627604166666666,33.36588541666666,0)" xlink:href="#E"/><use transform="matrix(0.01627604166666666,0,0,0.01627604166666666,53.499348958333314,0)" xlink:href="#T"/><use transform="matrix(0.01627604166666666,0,0,0.01627604166666666,84.5052083333333,0)" xlink:href="#D"/><use transform="matrix(0.01627604166666666,0,0,0.01627604166666666,92.93619791666663,0)" xlink:href="#U"/><use transform="matrix(0.01627604166666666,0,0,0.01627604166666666,108.83789062499996,0)" xlink:href="#H"/></g><g id="k"><use transform="matrix(0.01627604166666666,0,0,0.01627604166666666,0,0)" xlink:href="#K"/><use transform="matrix(0.01627604166666666,0,0,0.01627604166666666,20.068359374999993,0)" xlink:href="#R"/><use transform="matrix(0.01627604166666666,0,0,0.01627604166666666,33.007812499999986,0)" xlink:href="#E"/><use transform="matrix(0.01627604166666666,0,0,0.01627604166666666,53.14127604166664,0)" xlink:href="#B"/><use transform="matrix(0.01627604166666666,0,0,0.01627604166666666,69.01041666666664,0)" xlink:href="#H"/><use transform="matrix(0.01627604166666666,0,0,0.01627604166666666,87.71158854166663,0)" xlink:href="#U"/><use transform="matrix(0.01627604166666666,0,0,0.01627604166666666,103.61328124999996,0)" xlink:href="#U"/></g><path fill="#3a414a" d="M1120 0L938-465H352L172 0H0l578-1468h143L1296 0h-176zM885-618c-81-228-168-420-238-664-57 230-159 449-235 664h473" id="V"/><g id="l"><use transform="matrix(0.01627604166666666,0,0,0.01627604166666666,0,0)" xlink:href="#V"/><use transform="matrix(0.01627604166666666,0,0,0.01627604166666666,21.093749999999993,0)" xlink:href="#M"/><use transform="matrix(0.01627604166666666,0,0,0.01627604166666666,41.52018229166666,0)" xlink:href="#M"/><use transform="matrix(0.01627604166666666,0,0,0.01627604166666666,61.946614583333314,0)" xlink:href="#P"/><use transform="matrix(0.01627604166666666,0,0,0.01627604166666666,70.37760416666664,0)" xlink:href="#D"/><use transform="matrix(0.01627604166666666,0,0,0.01627604166666666,78.80859374999997,0)" xlink:href="#B"/><use transform="matrix(0.01627604166666666,0,0,0.01627604166666666,94.67773437499997,0)" xlink:href="#O"/><use transform="matrix(0.01627604166666666,0,0,0.01627604166666666,113.2161458333333,0)" xlink:href="#C"/><use transform="matrix(0.01627604166666666,0,0,0.01627604166666666,124.9837239583333,0)" xlink:href="#D"/><use transform="matrix(0.01627604166666666,0,0,0.01627604166666666,133.41471354166663,0)" xlink:href="#E"/><use transform="matrix(0.01627604166666666,0,0,0.01627604166666666,153.5481770833333,0)" xlink:href="#A"/></g><path fill="#3a414a" d="M1198-240c-25-390-10-810-14-1222h159V0h-194L350-1227h-8c30 405 10 805 16 1227H201v-1462h192l797 1222h8" id="W"/><g id="m"><use transform="matrix(0.01627604166666666,0,0,0.01627604166666666,0,0)" xlink:href="#W"/><use transform="matrix(0.01627604166666666,0,0,0.01627604166666666,25.130208333333325,0)" xlink:href="#E"/><use transform="matrix(0.01627604166666666,0,0,0.01627604166666666,45.263671874999986,0)" xlink:href="#L"/><use transform="matrix(0.01627604166666666,0,0,0.01627604166666666,65.69010416666664,0)" xlink:href="#H"/></g><g id="n"><use transform="matrix(0.015190972222222219,0,0,0.015190972222222219,0,0)" xlink:href="#N"/><use transform="matrix(0.015190972222222219,0,0,0.015190972222222219,19.626736111111107,0)" xlink:href="#O"/><use transform="matrix(0.015190972222222219,0,0,0.015190972222222219,36.929253472222214,0)" xlink:href="#P"/><use transform="matrix(0.015190972222222219,0,0,0.015190972222222219,44.79817708333332,0)" xlink:href="#P"/><use transform="matrix(0.015190972222222219,0,0,0.015190972222222219,52.66710069444443,0)" xlink:href="#H"/><use transform="matrix(0.015190972222222219,0,0,0.015190972222222219,70.12152777777776,0)" xlink:href="#R"/></g><path fill="#3a414a" d="M1169-178c39-215 75-309 230-918h172L1268 0h-197c-99-332-184-548-272-911h-8C712-564 610-319 514 0H322L23-1096h174c71 275 124 485 161 629s59 241 64 291h8c76-328 186-611 279-920h180l196 629c37 115 63 211 76 289h8" id="X"/><path fill="#3a414a" d="M340-561c134-179 332-366 485-535h197L578-629 1053 0H852L465-518 340-410V0H176v-1556h164c-4 336 9 669-8 995h8" id="Y"/><g id="o"><use transform="matrix(0.01627604166666666,0,0,0.01627604166666666,0,0)" xlink:href="#W"/><use transform="matrix(0.01627604166666666,0,0,0.01627604166666666,25.130208333333325,0)" xlink:href="#H"/><use transform="matrix(0.01627604166666666,0,0,0.01627604166666666,43.831380208333314,0)" xlink:href="#C"/><use transform="matrix(0.01627604166666666,0,0,0.01627604166666666,55.598958333333314,0)" xlink:href="#X"/><use transform="matrix(0.01627604166666666,0,0,0.01627604166666666,81.5266927083333,0)" xlink:href="#E"/><use transform="matrix(0.01627604166666666,0,0,0.01627604166666666,101.66015624999996,0)" xlink:href="#R"/><use transform="matrix(0.01627604166666666,0,0,0.01627604166666666,115.26692708333329,0)" xlink:href="#Y"/></g></defs></g></svg>