<svg xmlns="http://www.w3.org/2000/svg" xmlns:xlink="http://www.w3.org/1999/xlink" xmlns:lucid="lucid" width="2141" height="1481"><g transform="translate(200.5 -199.5)" lucid:page-tab-id="0_0"><path d="M-500 0h2500v2000H-500z" fill="#fff"/><path d="M-180 220h2100v1440H-180z" stroke="#000" stroke-opacity="0" fill="#fff"/><use xlink:href="#a" transform="matrix(1,0,0,1,-175,225) translate(1023.8736979166666 727.5802951388889)"/><path d="M300 340h1160v1160H300z" stroke="#000" stroke-opacity="0" fill="#dfe3e8" fill-opacity=".6"/><path d="M320 686a6 6 0 0 1 6-6h1108a6 6 0 0 1 6 6v148a6 6 0 0 1-6 6H326a6 6 0 0 1-6-6z" stroke="#ffec7e" stroke-width="5" fill="#2a2a2a"/><use xlink:href="#b" transform="matrix(1,0,0,1,325,685) translate(495.64887152777777 66.06553819444443)"/><use xlink:href="#c" transform="matrix(1,0,0,1,325,685) translate(538.3355034722222 108.4331597222222)"/><path d="M320 886a6 6 0 0 1 6-6h1108a6 6 0 0 1 6 6v148a6 6 0 0 1-6 6H326a6 6 0 0 1-6-6z" stroke="#2a2a2a" fill="#fff"/><use xlink:href="#d" transform="matrix(1,0,0,1,325,885) translate(363.1304253472223 84.81553819444443)"/><path d="M358.98 843v20.12" stroke="#3a414a" fill="none"/><path d="M359.46 843h-.95v-.5h.96z" stroke="#3a414a" stroke-width=".05" fill="#3a414a"/><path d="M358.98 877.88l-4.63-14.26h9.27z" stroke="#3a414a" fill="#3a414a"/><path d="M1401.58 879v-2.25m0-4.5v-4.5m0-4.5v-4.37" stroke="#3a414a" fill="none"/><path d="M1402.06 879.5h-.95v-.5h.96z" stroke="#3a414a" stroke-width=".05" fill="#3a414a"/><path d="M1401.58 844.12l4.64 14.26h-9.28z" stroke="#3a414a" fill="#3a414a"/><path d="M320 366a6 6 0 0 1 6-6h1108a6 6 0 0 1 6 6v148a6 6 0 0 1-6 6H326a6 6 0 0 1-6-6z" stroke="#fff" fill="#cfe4ff"/><use xlink:href="#e" transform="matrix(1,0,0,1,325,365) translate(456.30425347222223 84.81553819444443)"/><use xlink:href="#f" transform="matrix(1,0,0,1,325,365) translate(541.1154513888889 84.81553819444443)"/><path d="M359.95 521v140.12" stroke="#3a414a" fill="none"/><path d="M360.43 521h-.95v-.5h.95z" stroke="#3a414a" stroke-width=".05" fill="#3a414a"/><path d="M359.95 675.88l-4.63-14.26h9.27z" stroke="#3a414a" fill="#3a414a"/><path d="M1401.58 536.88v1.95m0 3.88v3.9m0 3.87v3.88m0 3.9v3.87m0 3.88v3.88m0 3.88v3.9m0 3.87v3.88m0 3.9v3.88m0 3.88V600.95m0 3.9v3.9m0 3.9v3.9m0 3.9v3.9m0 3.9v3.9m0 3.9v3.9m0 3.9v3.9m0 3.9v3.9m0 3.9v3.9m0 3.9v3.9m0 3.9V677" stroke="#3a414a" fill="none"/><path d="M1401.58 522.12l4.64 14.26h-9.28z" stroke="#3a414a" fill="#3a414a"/><path d="M1402.06 677.5h-.95v-.5h.96z" stroke="#3a414a" stroke-width=".05" fill="#3a414a"/><path d="M360 1126a6 6 0 0 1 6-6h468a6 6 0 0 1 6 6v148a6 6 0 0 1-6 6H366a6 6 0 0 1-6-6z" stroke="#2a2a2a" fill="#2a2a2a"/><use xlink:href="#b" transform="matrix(1,0,0,1,365,1125) translate(175.6488715277778 66.06553819444443)"/><use xlink:href="#c" transform="matrix(1,0,0,1,365,1125) translate(218.33550347222223 108.4331597222222)"/><path d="M360 1326a6 6 0 0 1 6-6h468a6 6 0 0 1 6 6v148a6 6 0 0 1-6 6H366a6 6 0 0 1-6-6z" stroke="#2a2a2a" fill="#fff"/><use xlink:href="#g" transform="matrix(1,0,0,1,365,1325) translate(154.01692708333337 84.81553819444443)"/><path d="M398.4 1281v22.12" stroke="#3a414a" fill="none"/><path d="M398.88 1281h-.95v-.5h.95z" stroke="#3a414a" stroke-width=".05" fill="#3a414a"/><path d="M398.4 1317.88l-4.63-14.27 9.27.02z" stroke="#3a414a" fill="#3a414a"/><path d="M800.16 1319v-2.38m0-4.74v-4.76m0-4.74v-5.5" stroke="#3a414a" fill="none"/><path d="M800.63 1319.5h-.95v-.5h.95z" stroke="#3a414a" stroke-width=".05" fill="#3a414a"/><path d="M800.16 1282.12l4.63 14.27-9.28-.02z" stroke="#3a414a" fill="#3a414a"/><path d="M920 1126a6 6 0 0 1 6-6h468a6 6 0 0 1 6 6v148a6 6 0 0 1-6 6H926a6 6 0 0 1-6-6z" stroke="#2a2a2a" fill="#2a2a2a"/><use xlink:href="#b" transform="matrix(1,0,0,1,925,1125) translate(175.6488715277778 66.06553819444443)"/><use xlink:href="#c" transform="matrix(1,0,0,1,925,1125) translate(218.33550347222223 108.4331597222222)"/><path d="M920 1326a6 6 0 0 1 6-6h468a6 6 0 0 1 6 6v148a6 6 0 0 1-6 6H926a6 6 0 0 1-6-6z" stroke="#2a2a2a" fill="#fff"/><use xlink:href="#h" transform="matrix(1,0,0,1,925,1325) translate(144.94791666666669 84.81553819444443)"/><path d="M1361.67 1281v22.12" stroke="#3a414a" fill="none"/><path d="M1362.14 1281h-.95v-.5h.94z" stroke="#3a414a" stroke-width=".05" fill="#3a414a"/><path d="M1361.67 1317.88l-4.64-14.27 9.27.02z" stroke="#3a414a" fill="#3a414a"/><path d="M959.62 1319v-2.38m0-4.74v-4.76m0-4.74v-5.5" stroke="#3a414a" fill="none"/><path d="M960.1 1319.5h-.96v-.5h.95z" stroke="#3a414a" stroke-width=".05" fill="#3a414a"/><path d="M959.62 1282.12l4.63 14.27-9.27-.02z" stroke="#3a414a" fill="#3a414a"/><path d="M667.97 1526a6 6 0 0 1 6-6h408a6 6 0 0 1 6 6v68a6 6 0 0 1-6 6h-408a6 6 0 0 1-6-6z" stroke="#000" stroke-opacity="0" fill="#fff" fill-opacity="0"/><use xlink:href="#i" transform="matrix(1,0,0,1,672.9703483073632,1525) translate(145.24251302083337 48.75325520833332)"/><path d="M660 566a6 6 0 0 1 6-6h428a6 6 0 0 1 6 6v68a6 6 0 0 1-6 6H666a6 6 0 0 1-6-6z" stroke="#000" stroke-opacity="0" fill="#fff" fill-opacity="0"/><use xlink:href="#j" transform="matrix(1,0,0,1,665,565) translate(32.22819010416674 48.94075520833332)"/><use xlink:href="#k" transform="matrix(1,0,0,1,665,565) translate(97.31608072916671 48.94075520833332)"/><use xlink:href="#l" transform="matrix(1,0,0,1,665,565) translate(196.59993489583334 48.94075520833332)"/><use xlink:href="#m" transform="matrix(1,0,0,1,665,565) translate(270.2327473958333 48.94075520833332)"/><path d="M801.02 1119v-1.94m0-3.88v-3.9m0-3.87v-3.87m0-3.88v-3.88m0-3.9V1086m0-3.88v-3.88m0-3.9v-3.87m0-3.88v-3.9m0-3.88v-1.94" stroke="#3a414a" fill="none"/><path d="M801.5 1119.5h-.96v-.5h.96z" stroke="#3a414a" stroke-width=".05" fill="#3a414a"/><path d="M801.02 1042.12l4.63 14.26h-9.26z" stroke="#3a414a" fill="#3a414a"/><path d="M401.46 1041V1103.12" stroke="#3a414a" fill="none"/><path d="M401.94 1041H401v-.5h.94z" stroke="#3a414a" stroke-width=".05" fill="#3a414a"/><path d="M401.46 1117.88l-4.63-14.27 9.27.02z" stroke="#3a414a" fill="#3a414a"/><path d="M1359.72 1041v62.12" stroke="#3a414a" fill="none"/><path d="M1360.2 1041h-.95v-.5h.95z" stroke="#3a414a" stroke-width=".05" fill="#3a414a"/><path d="M1359.72 1117.88l-4.63-14.26h9.26z" stroke="#3a414a" fill="#3a414a"/><path d="M959.62 1119v-1.95m0-3.9v-3.9m0-3.9v-3.9m0-3.9v-3.9m0-3.9v-3.9m0-3.9v-3.88m0-3.85v-3.85m0-3.85v-3.86m0-3.85v-1.9" stroke="#3a414a" fill="none"/><path d="M960.1 1119.5h-.96v-.5h.95z" stroke="#3a414a" stroke-width=".05" fill="#3a414a"/><path d="M959.62 1042.12l4.63 14.27-9.27-.02z" stroke="#3a414a" fill="#3a414a"/><path d="M880 1519.5v-19" stroke="#2a2a2a" fill="none"/><path d="M880.48 1520h-.96v-.5h.96zM880.48 1500.5h-.96v-.5h.96z" stroke="#2a2a2a" stroke-width=".05" fill="#2a2a2a"/><path d="M300.5 320h1143.12M300.5 320h-.5" stroke="#2a2a2a" fill="none"/><path d="M1458.38 320l-14.26 4.63v-9.26z" stroke="#2a2a2a" fill="#2a2a2a"/><path d="M880 640.5V677" stroke="#2a2a2a" fill="none"/><path d="M880.48 640.5h-.96v-.5h.96zM880.48 677.5h-.96v-.5h.96z" stroke="#2a2a2a" stroke-width=".05" fill="#2a2a2a"/><defs><path fill="#3a414a" d="M651 0H481v-1311H18v-151h1096v151H651V0" id="n"/><path fill="#3a414a" d="M995-51C878-2 799 19 639 20c-329 2-524-221-524-559 0-326 172-577 481-577 278 0 451 210 446 493v105H287c4 242 121 392 358 393 118 0 235-25 350-74v148zM864-653c2-195-85-324-270-324-190 0-288 139-303 324h573" id="o"/><path fill="#3a414a" d="M440-561L59-1096h189l289 420 288-420h187L631-561 1032 0H844L537-444 227 0H39" id="p"/><path fill="#3a414a" d="M354-322c-2 123 60 204 176 205 51 1 114-10 150-20v127C647 7 557 20 506 20 294 20 188-92 188-315v-652H31v-80l157-69 70-234h96v254h318v129H354v645" id="q"/><g id="a"><use transform="matrix(0.010850694444444444,0,0,0.010850694444444444,0,0)" xlink:href="#n"/><use transform="matrix(0.010850694444444444,0,0,0.010850694444444444,10.7421875,0)" xlink:href="#o"/><use transform="matrix(0.010850694444444444,0,0,0.010850694444444444,22.764756944444443,0)" xlink:href="#p"/><use transform="matrix(0.010850694444444444,0,0,0.010850694444444444,34.40755208333333,0)" xlink:href="#q"/></g><path fill="#fff" d="M1128-1036c0 321-241 464-585 461H371V0H201v-1462h379c365 0 548 142 548 426zm-176 8c0-218-150-286-391-287H371v594h153c270-3 428-62 428-307" id="r"/><path fill="#fff" d="M340-893c80-153 237-262 467-211l-23 154c-45-10-85-15-120-15-184-3-322 182-322 377V0H176v-1096h137l19 203h8" id="s"/><path fill="#fff" d="M621-1116c316 0 501 239 501 567 0 339-180 575-508 569S119-212 115-549c-4-339 178-567 506-567zm-5 141c-239 0-329 168-329 426 0 255 93 430 331 430s332-174 332-430-95-426-334-426" id="t"/><path fill="#fff" d="M1368-1116c259 2 372 131 371 401V0h-166v-713c0-168-66-262-230-262-221 0-303 131-303 363V0H874v-713c-1-169-66-262-231-262-235 0-301 142-301 400V0H176v-1096h135l27 150h8c56-99 174-170 324-170 171 0 283 62 336 186h8c60-108 189-187 354-186" id="u"/><path fill="#fff" d="M342 0H176v-1096h166V0zm-82-1282c-61 0-98-43-98-111 0-69 36-110 98-110 59 0 98 43 98 110s-39 111-98 111" id="v"/><path fill="#fff" d="M502-977c-130 0-238 32-238 139 0 75 39 101 95 134 33 19 97 46 192 81 130 48 217 95 263 143s69 108 69 181C883-73 695 20 449 20 304 20 190-3 109-49v-154c91 47 216 86 344 86 149 0 270-36 270-168 0-43-21-76-55-109-56-55-367-158-434-208-74-55-128-109-128-225 0-327 490-342 754-217l-59 135c-110-45-210-68-299-68" id="w"/><path fill="#fff" d="M995-51C878-2 799 19 639 20c-329 2-524-221-524-559 0-326 172-577 481-577 278 0 451 210 446 493v105H287c4 242 121 392 358 393 118 0 235-25 350-74v148zM864-653c2-195-85-324-270-324-190 0-288 139-303 324h573" id="x"/><g id="b"><use transform="matrix(0.015190972222222219,0,0,0.015190972222222219,0,0)" xlink:href="#r"/><use transform="matrix(0.015190972222222219,0,0,0.015190972222222219,18.730468749999996,0)" xlink:href="#s"/><use transform="matrix(0.015190972222222219,0,0,0.015190972222222219,30.80729166666666,0)" xlink:href="#t"/><use transform="matrix(0.015190972222222219,0,0,0.015190972222222219,49.59852430555554,0)" xlink:href="#u"/><use transform="matrix(0.015190972222222219,0,0,0.015190972222222219,78.53732638888887,0)" xlink:href="#v"/><use transform="matrix(0.015190972222222219,0,0,0.015190972222222219,86.40624999999999,0)" xlink:href="#w"/><use transform="matrix(0.015190972222222219,0,0,0.015190972222222219,101.24782986111109,0)" xlink:href="#x"/></g><path fill="#fff" d="M184 0v-1462h310V0H184" id="y"/><path fill="#fff" d="M643-1462c464-5 754 260 754 717 0 491-297 749-799 745H184v-1462h459zm432 725c0-314-139-471-416-471H494v952h133c299 0 448-160 448-481" id="z"/><g id="c"><use transform="matrix(0.015190972222222219,0,0,0.015190972222222219,0,0)" xlink:href="#y"/><use transform="matrix(0.015190972222222219,0,0,0.015190972222222219,10.299479166666664,0)" xlink:href="#z"/></g><path fill="#3a414a" d="M115-545c0-330 146-571 454-571 149 0 263 54 342 162h13c-20-185-8-401-11-602h166V0H944l-22-147h-9C836-36 722 20 569 20c-309 0-454-234-454-565zm172 2c0 249 78 424 303 424 257 0 327-150 323-426-4-282-68-432-325-432-220 0-301 191-301 434" id="A"/><path fill="#3a414a" d="M621-1116c316 0 501 239 501 567 0 339-180 575-508 569S119-212 115-549c-4-339 178-567 506-567zm-5 141c-239 0-329 168-329 426 0 255 93 430 331 430s332-174 332-430-95-426-334-426" id="B"/><path fill="#3a414a" d="M1169-178c39-215 75-309 230-918h172L1268 0h-197c-99-332-184-548-272-911h-8C712-564 610-319 514 0H322L23-1096h174c71 275 124 485 161 629s59 241 64 291h8c76-328 186-611 279-920h180l196 629c37 115 63 211 76 289h8" id="C"/><path fill="#3a414a" d="M694-1116c270 0 399 125 398 401V0H926v-709c-1-177-76-266-252-266-250 0-332 133-332 400V0H176v-1096h135l27 150h8c62-101 190-170 348-170" id="D"/><path fill="#3a414a" d="M342 0H176v-1556h166V0" id="E"/><path fill="#3a414a" d="M588-1114c260 0 384 106 385 366V0H850l-33-156h-8C708-34 639 17 442 20 231 23 94-94 94-303c0-221 177-337 531-348l186-6c11-203-40-320-233-320-91 0-195 28-310 84l-51-127c97-53 229-94 371-94zM268-301c-1 123 81 184 207 184 203 0 334-120 332-323v-99c-257 14-539-7-539 238" id="F"/><path fill="#3a414a" d="M1120 0L938-465H352L172 0H0l578-1468h143L1296 0h-176zM885-618c-81-228-168-420-238-664-57 230-159 449-235 664h473" id="G"/><path fill="#3a414a" d="M584-1331c-162 0-287 69-287 219 0 118 43 164 123 214 44 28 112 56 203 89 153 55 259 113 317 176s86 144 86 244c-1 276-228 409-520 409-173 0-307-22-400-67v-164c109 46 257 81 406 82 199 1 342-68 342-244 0-120-47-164-132-214-47-28-121-58-218-93-136-49-234-106-292-173s-87-154-87-261c-1-239 209-369 463-369 145 0 279 27 401 80l-53 148c-121-51-238-76-352-76" id="H"/><path fill="#3a414a" d="M563 20c-271 0-399-123-399-399v-717h168v711c1 177 76 266 252 266 250 0 331-135 331-401v-576h166V0H944l-24-147h-9C848-44 724 20 563 20" id="I"/><path fill="#3a414a" d="M1368-1116c259 2 372 131 371 401V0h-166v-713c0-168-66-262-230-262-221 0-303 131-303 363V0H874v-713c-1-169-66-262-231-262-235 0-301 142-301 400V0H176v-1096h135l27 150h8c56-99 174-170 324-170 171 0 283 62 336 186h8c60-108 189-187 354-186" id="J"/><path fill="#3a414a" d="M340-893c80-153 237-262 467-211l-23 154c-45-10-85-15-120-15-184-3-322 182-322 377V0H176v-1096h137l19 203h8" id="K"/><path fill="#3a414a" d="M342 0H176v-1096h166V0zm-82-1282c-61 0-98-43-98-111 0-69 36-110 98-110 59 0 98 43 98 110s-39 111-98 111" id="L"/><path fill="#3a414a" d="M877 0H82v-113l598-854H119v-129h743v129L272-129h605V0" id="M"/><path fill="#3a414a" d="M383 324C201 116 82-188 82-561c0-378 120-688 301-901h162c-172 227-289 529-289 899 0 361 122 665 287 887H383" id="N"/><path fill="#3a414a" d="M223-1462c182 213 301 524 301 901 0 373-119 679-301 885H63c166-222 287-526 287-887 0-369-117-672-289-899h162" id="O"/><g id="d"><use transform="matrix(0.015190972222222219,0,0,0.015190972222222219,0,0)" xlink:href="#A"/><use transform="matrix(0.015190972222222219,0,0,0.015190972222222219,19.064670138888886,0)" xlink:href="#B"/><use transform="matrix(0.015190972222222219,0,0,0.015190972222222219,37.23307291666666,0)" xlink:href="#C"/><use transform="matrix(0.015190972222222219,0,0,0.015190972222222219,61.43229166666665,0)" xlink:href="#D"/><use transform="matrix(0.015190972222222219,0,0,0.015190972222222219,80.52734374999997,0)" xlink:href="#E"/><use transform="matrix(0.015190972222222219,0,0,0.015190972222222219,88.39626736111109,0)" xlink:href="#B"/><use transform="matrix(0.015190972222222219,0,0,0.015190972222222219,107.18749999999997,0)" xlink:href="#F"/><use transform="matrix(0.015190972222222219,0,0,0.015190972222222219,124.49001736111109,0)" xlink:href="#A"/><use transform="matrix(0.015190972222222219,0,0,0.015190972222222219,143.55468749999997,0)" xlink:href="#G"/><use transform="matrix(0.015190972222222219,0,0,0.015190972222222219,163.24218749999997,0)" xlink:href="#D"/><use transform="matrix(0.015190972222222219,0,0,0.015190972222222219,182.33723958333331,0)" xlink:href="#A"/><use transform="matrix(0.015190972222222219,0,0,0.015190972222222219,201.4019097222222,0)" xlink:href="#H"/><use transform="matrix(0.015190972222222219,0,0,0.015190972222222219,218.47656249999997,0)" xlink:href="#I"/><use transform="matrix(0.015190972222222219,0,0,0.015190972222222219,237.57161458333331,0)" xlink:href="#J"/><use transform="matrix(0.015190972222222219,0,0,0.015190972222222219,266.51041666666663,0)" xlink:href="#J"/><use transform="matrix(0.015190972222222219,0,0,0.015190972222222219,295.44921874999994,0)" xlink:href="#F"/><use transform="matrix(0.015190972222222219,0,0,0.015190972222222219,312.75173611111103,0)" xlink:href="#K"/><use transform="matrix(0.015190972222222219,0,0,0.015190972222222219,325.4513888888888,0)" xlink:href="#L"/><use transform="matrix(0.015190972222222219,0,0,0.015190972222222219,333.3203124999999,0)" xlink:href="#M"/><use transform="matrix(0.015190972222222219,0,0,0.015190972222222219,347.8732638888888,0)" xlink:href="#o"/><use transform="matrix(0.015190972222222219,0,0,0.015190972222222219,365.3276909722221,0)" xlink:href="#N"/><use transform="matrix(0.015190972222222219,0,0,0.015190972222222219,374.5334201388888,0)" xlink:href="#O"/></g><path fill="#3a414a" d="M1311 0h-170v-688H371V0H201v-1462h170v622h770v-622h170V0" id="P"/><path fill="#3a414a" d="M1128-1036c0 321-241 464-585 461H371V0H201v-1462h379c365 0 548 142 548 426zm-176 8c0-218-150-286-391-287H371v594h153c270-3 428-62 428-307" id="Q"/><g id="e"><use transform="matrix(0.015190972222222219,0,0,0.015190972222222219,0,0)" xlink:href="#P"/><use transform="matrix(0.015190972222222219,0,0,0.015190972222222219,22.95355902777777,0)" xlink:href="#n"/><use transform="matrix(0.015190972222222219,0,0,0.015190972222222219,40.78776041666666,0)" xlink:href="#n"/><use transform="matrix(0.015190972222222219,0,0,0.015190972222222219,57.99913194444443,0)" xlink:href="#Q"/></g><path fill="#3a414a" d="M690-1114c271 2 402 123 402 399V0H926v-709c-1-177-76-266-252-266-251 0-332 135-332 402V0H176v-1556h166c-4 200 8 426-8 612h10c61-100 187-171 346-170" id="R"/><g id="f"><use transform="matrix(0.015190972222222219,0,0,0.015190972222222219,0,0)" xlink:href="#R"/><use transform="matrix(0.015190972222222219,0,0,0.015190972222222219,19.09505208333333,0)" xlink:href="#F"/><use transform="matrix(0.015190972222222219,0,0,0.015190972222222219,36.397569444444436,0)" xlink:href="#D"/><use transform="matrix(0.015190972222222219,0,0,0.015190972222222219,55.492621527777764,0)" xlink:href="#A"/><use transform="matrix(0.015190972222222219,0,0,0.015190972222222219,74.55729166666666,0)" xlink:href="#E"/><use transform="matrix(0.015190972222222219,0,0,0.015190972222222219,82.42621527777777,0)" xlink:href="#o"/><use transform="matrix(0.015190972222222219,0,0,0.015190972222222219,99.8806423611111,0)" xlink:href="#K"/></g><g id="g"><use transform="matrix(0.015190972222222219,0,0,0.015190972222222219,0,0)" xlink:href="#A"/><use transform="matrix(0.015190972222222219,0,0,0.015190972222222219,19.064670138888886,0)" xlink:href="#B"/><use transform="matrix(0.015190972222222219,0,0,0.015190972222222219,37.23307291666666,0)" xlink:href="#C"/><use transform="matrix(0.015190972222222219,0,0,0.015190972222222219,61.43229166666665,0)" xlink:href="#D"/><use transform="matrix(0.015190972222222219,0,0,0.015190972222222219,80.52734374999997,0)" xlink:href="#E"/><use transform="matrix(0.015190972222222219,0,0,0.015190972222222219,88.39626736111109,0)" xlink:href="#B"/><use transform="matrix(0.015190972222222219,0,0,0.015190972222222219,107.18749999999997,0)" xlink:href="#F"/><use transform="matrix(0.015190972222222219,0,0,0.015190972222222219,124.49001736111109,0)" xlink:href="#A"/><use transform="matrix(0.015190972222222219,0,0,0.015190972222222219,143.55468749999997,0)" xlink:href="#N"/><use transform="matrix(0.015190972222222219,0,0,0.015190972222222219,152.76041666666663,0)" xlink:href="#O"/></g><path fill="#3a414a" d="M502-977c-130 0-238 32-238 139 0 75 39 101 95 134 33 19 97 46 192 81 130 48 217 95 263 143s69 108 69 181C883-73 695 20 449 20 304 20 190-3 109-49v-154c91 47 216 86 344 86 149 0 270-36 270-168 0-43-21-76-55-109-56-55-367-158-434-208-74-55-128-109-128-225 0-327 490-342 754-217l-59 135c-110-45-210-68-299-68" id="S"/><g id="h"><use transform="matrix(0.015190972222222219,0,0,0.015190972222222219,0,0)" xlink:href="#S"/><use transform="matrix(0.015190972222222219,0,0,0.015190972222222219,14.841579861111107,0)" xlink:href="#I"/><use transform="matrix(0.015190972222222219,0,0,0.015190972222222219,33.936631944444436,0)" xlink:href="#J"/><use transform="matrix(0.015190972222222219,0,0,0.015190972222222219,62.875434027777764,0)" xlink:href="#J"/><use transform="matrix(0.015190972222222219,0,0,0.015190972222222219,91.81423611111109,0)" xlink:href="#F"/><use transform="matrix(0.015190972222222219,0,0,0.015190972222222219,109.1167534722222,0)" xlink:href="#K"/><use transform="matrix(0.015190972222222219,0,0,0.015190972222222219,121.81640624999997,0)" xlink:href="#L"/><use transform="matrix(0.015190972222222219,0,0,0.015190972222222219,129.6853298611111,0)" xlink:href="#M"/><use transform="matrix(0.015190972222222219,0,0,0.015190972222222219,144.23828124999997,0)" xlink:href="#o"/><use transform="matrix(0.015190972222222219,0,0,0.015190972222222219,161.69270833333331,0)" xlink:href="#N"/><use transform="matrix(0.015190972222222219,0,0,0.015190972222222219,170.89843749999997,0)" xlink:href="#O"/></g><path fill="#3a414a" d="M287-543c-1 247 91 418 323 418 91 0 185-20 281-59v147C818 1 725 20 614 20c-329 0-499-221-499-561 0-349 172-575 510-575 96 0 221 26 282 57l-51 141c-61-25-157-50-235-51-223 0-334 142-334 426" id="T"/><g id="i"><use transform="matrix(0.01627604166666666,0,0,0.01627604166666666,0,0)" xlink:href="#Q"/><use transform="matrix(0.01627604166666666,0,0,0.01627604166666666,20.068359374999993,0)" xlink:href="#K"/><use transform="matrix(0.01627604166666666,0,0,0.01627604166666666,33.007812499999986,0)" xlink:href="#B"/><use transform="matrix(0.01627604166666666,0,0,0.01627604166666666,53.14127604166664,0)" xlink:href="#T"/><use transform="matrix(0.01627604166666666,0,0,0.01627604166666666,69.01041666666664,0)" xlink:href="#o"/><use transform="matrix(0.01627604166666666,0,0,0.01627604166666666,87.71158854166663,0)" xlink:href="#S"/><use transform="matrix(0.01627604166666666,0,0,0.01627604166666666,103.61328124999996,0)" xlink:href="#S"/></g><path fill="#3a414a" d="M125-733c6-459 248-750 704-750 153 0 287 28 402 84l-72 146c-111-52-221-78-332-78-334-1-520 251-520 600 0 361 171 600 518 600 102 0 218-18 349-55v149C1073 1 948 20 799 20c-445 1-680-294-674-753" id="U"/><g id="j"><use transform="matrix(0.01627604166666666,0,0,0.01627604166666666,0,0)" xlink:href="#U"/><use transform="matrix(0.01627604166666666,0,0,0.01627604166666666,21.028645833333325,0)" xlink:href="#F"/><use transform="matrix(0.01627604166666666,0,0,0.01627604166666666,39.56705729166665,0)" xlink:href="#E"/><use transform="matrix(0.01627604166666666,0,0,0.01627604166666666,47.99804687499998,0)" xlink:href="#E"/></g><path fill="#3a414a" d="M125-741c0-247 161-377 414-375 57 0 109 7 155 20h379v105l-203 24c37 48 72 129 72 219 0 255-227 390-504 345-71 37-106 84-106 141 0 78 66 88 164 88h194c219-1 369 87 369 293 0 121-49 213-146 277s-239 96-426 96c-250 0-448-83-448-306C39 36 147-58 283-86c-52-23-102-79-99-152 4-104 57-143 133-192-107-42-192-164-192-311zM438-25c-143-1-242 70-239 209s131 181 290 181c139 0 242-21 309-63s101-98 101-169c0-147-88-158-262-158H438zm94-970c-158 0-243 88-243 250 0 153 93 233 246 233 162 0 243-79 243-236 0-165-82-247-246-247" id="V"/><path fill="#3a414a" d="M1141-549c0 329-147 569-455 569-159 0-273-61-344-161h-12c23 199 7 418 12 633H176v-1588h135l23 150h8c77-108 175-170 344-170 311 0 455 237 455 567zm-172-2c0-242-88-424-307-424-256 0-323 154-320 426 3 280 68 430 324 430 213 0 303-196 303-432" id="W"/><g id="k"><use transform="matrix(0.01627604166666666,0,0,0.01627604166666666,0,0)" xlink:href="#V"/><use transform="matrix(0.01627604166666666,0,0,0.01627604166666666,18.261718749999993,0)" xlink:href="#K"/><use transform="matrix(0.01627604166666666,0,0,0.01627604166666666,31.20117187499999,0)" xlink:href="#F"/><use transform="matrix(0.01627604166666666,0,0,0.01627604166666666,49.739583333333314,0)" xlink:href="#W"/><use transform="matrix(0.01627604166666666,0,0,0.01627604166666666,70.16601562499997,0)" xlink:href="#R"/></g><g id="l"><use transform="matrix(0.01627604166666666,0,0,0.01627604166666666,0,0)" xlink:href="#K"/><use transform="matrix(0.01627604166666666,0,0,0.01627604166666666,12.939453124999995,0)" xlink:href="#B"/><use transform="matrix(0.01627604166666666,0,0,0.01627604166666666,33.07291666666666,0)" xlink:href="#B"/><use transform="matrix(0.01627604166666666,0,0,0.01627604166666666,53.206380208333314,0)" xlink:href="#q"/></g><g id="m"><use transform="matrix(0.01627604166666666,0,0,0.01627604166666666,0,0)" xlink:href="#W"/><use transform="matrix(0.01627604166666666,0,0,0.01627604166666666,20.42643229166666,0)" xlink:href="#K"/><use transform="matrix(0.01627604166666666,0,0,0.01627604166666666,33.36588541666666,0)" xlink:href="#B"/><use transform="matrix(0.01627604166666666,0,0,0.01627604166666666,53.499348958333314,0)" xlink:href="#J"/><use transform="matrix(0.01627604166666666,0,0,0.01627604166666666,84.5052083333333,0)" xlink:href="#L"/><use transform="matrix(0.01627604166666666,0,0,0.01627604166666666,92.93619791666663,0)" xlink:href="#S"/><use transform="matrix(0.01627604166666666,0,0,0.01627604166666666,108.83789062499996,0)" xlink:href="#o"/></g></defs></g></svg>