<svg width="538" height="694" viewBox="0 0 538 694" fill="none" xmlns="http://www.w3.org/2000/svg">
<path d="M262.5 441.5C324.656 441.5 381.106 424.193 422.076 392.242C463.1 360.249 488.5 313.639 488.5 255.416C488.5 197.328 463.219 134.17 422.454 85.5397C381.686 36.9045 325.165 2.5 262.5 2.5C199.835 2.5 143.314 36.9045 102.546 85.5397C61.781 134.17 36.5 197.328 36.5 255.416C36.5 313.639 61.9004 360.249 102.924 392.242C143.894 424.193 200.344 441.5 262.5 441.5Z" fill="#353F58" stroke="white" stroke-width="5"/>
<mask id="path-2-outside-1_432_115" maskUnits="userSpaceOnUse" x="0" y="31" width="526" height="663" fill="black">
<rect fill="white" y="31" width="526" height="663"/>
<path fill-rule="evenodd" clip-rule="evenodd" d="M375.261 517.641C461.514 487.035 521 419.437 521 324.498C521 192.202 405.489 36 263 36C120.511 36 5 192.202 5 324.498C5 416.553 60.9273 482.903 142.955 514.75C112.173 552.449 104.752 586.195 102.41 657.713C101.811 676.013 117.932 690.342 136.084 687.938L257.948 671.801L379.811 687.938C397.963 690.342 414.085 676.013 413.486 657.713C411.204 588.027 404.1 554.203 375.261 517.641Z"/>
</mask>
<path fill-rule="evenodd" clip-rule="evenodd" d="M375.261 517.641C461.514 487.035 521 419.437 521 324.498C521 192.202 405.489 36 263 36C120.511 36 5 192.202 5 324.498C5 416.553 60.9273 482.903 142.955 514.75C112.173 552.449 104.752 586.195 102.41 657.713C101.811 676.013 117.932 690.342 136.084 687.938L257.948 671.801L379.811 687.938C397.963 690.342 414.085 676.013 413.486 657.713C411.204 588.027 404.1 554.203 375.261 517.641Z" fill="#353F58"/>
<path d="M375.261 517.641L373.589 512.929L367.016 515.261L371.335 520.737L375.261 517.641ZM142.955 514.75L146.828 517.913L151.182 512.581L144.765 510.089L142.955 514.75ZM102.41 657.713L97.4127 657.549L97.4127 657.549L102.41 657.713ZM136.084 687.938L135.428 682.981L135.428 682.981L136.084 687.938ZM257.948 671.801L258.604 666.844L257.948 666.757L257.292 666.844L257.948 671.801ZM379.811 687.938L380.468 682.981L380.468 682.981L379.811 687.938ZM413.486 657.713L408.488 657.876L408.488 657.876L413.486 657.713ZM516 324.498C516 416.912 458.261 482.884 373.589 512.929L376.933 522.353C464.768 491.186 526 421.961 526 324.498H516ZM263 41C332.354 41 395.564 79.0371 441.605 133.854C487.654 188.68 516 259.697 516 324.498H526C526 257.003 496.59 183.771 449.262 127.422C401.926 71.0639 336.135 31 263 31V41ZM10 324.498C10 259.697 38.3455 188.68 84.3951 133.854C130.436 79.0371 193.646 41 263 41V31C189.865 31 124.074 71.0639 76.7378 127.422C29.4097 183.771 0 257.003 0 324.498H10ZM144.765 510.089C64.2955 478.848 10 414.125 10 324.498H0C0 418.982 57.559 486.959 141.146 519.411L144.765 510.089ZM107.407 657.876C108.576 622.188 111.007 596.358 116.843 574.859C122.636 553.519 131.832 536.278 146.828 517.913L139.082 511.588C123.296 530.921 113.391 549.403 107.192 572.24C101.036 594.918 98.5861 621.719 97.4127 657.549L107.407 657.876ZM135.428 682.981C120.276 684.988 106.911 673.028 107.407 657.876L97.4127 657.549C96.7103 678.998 115.589 695.696 136.741 692.895L135.428 682.981ZM257.292 666.844L135.428 682.981L136.741 692.895L258.604 676.758L257.292 666.844ZM380.468 682.981L258.604 666.844L257.292 676.758L379.155 692.895L380.468 682.981ZM408.488 657.876C408.985 673.028 395.62 684.988 380.468 682.981L379.155 692.895C400.307 695.696 419.186 678.998 418.483 657.549L408.488 657.876ZM371.335 520.737C399.159 556.013 406.216 588.494 408.488 657.876L418.483 657.549C416.191 587.561 409.04 552.393 379.187 514.544L371.335 520.737Z" fill="black" mask="url(#path-2-outside-1_432_115)"/>
<path d="M375.261 517.641L373.589 512.929L367.016 515.261L371.335 520.737L375.261 517.641ZM142.955 514.75L146.828 517.913L151.182 512.581L144.765 510.089L142.955 514.75ZM102.41 657.713L97.4127 657.549L97.4127 657.549L102.41 657.713ZM136.084 687.938L135.428 682.981L135.428 682.981L136.084 687.938ZM257.948 671.801L258.604 666.844L257.948 666.757L257.292 666.844L257.948 671.801ZM379.811 687.938L380.468 682.981L380.468 682.981L379.811 687.938ZM413.486 657.713L408.488 657.876L408.488 657.876L413.486 657.713ZM516 324.498C516 416.912 458.261 482.884 373.589 512.929L376.933 522.353C464.768 491.186 526 421.961 526 324.498H516ZM263 41C332.354 41 395.564 79.0371 441.605 133.854C487.654 188.68 516 259.697 516 324.498H526C526 257.003 496.59 183.771 449.262 127.422C401.926 71.0639 336.135 31 263 31V41ZM10 324.498C10 259.697 38.3455 188.68 84.3951 133.854C130.436 79.0371 193.646 41 263 41V31C189.865 31 124.074 71.0639 76.7378 127.422C29.4097 183.771 0 257.003 0 324.498H10ZM144.765 510.089C64.2955 478.848 10 414.125 10 324.498H0C0 418.982 57.559 486.959 141.146 519.411L144.765 510.089ZM107.407 657.876C108.576 622.188 111.007 596.358 116.843 574.859C122.636 553.519 131.832 536.278 146.828 517.913L139.082 511.588C123.296 530.921 113.391 549.403 107.192 572.24C101.036 594.918 98.5861 621.719 97.4127 657.549L107.407 657.876ZM135.428 682.981C120.276 684.988 106.911 673.028 107.407 657.876L97.4127 657.549C96.7103 678.998 115.589 695.696 136.741 692.895L135.428 682.981ZM257.292 666.844L135.428 682.981L136.741 692.895L258.604 676.758L257.292 666.844ZM380.468 682.981L258.604 666.844L257.292 676.758L379.155 692.895L380.468 682.981ZM408.488 657.876C408.985 673.028 395.62 684.988 380.468 682.981L379.155 692.895C400.307 695.696 419.186 678.998 418.483 657.549L408.488 657.876ZM371.335 520.737C399.159 556.013 406.216 588.494 408.488 657.876L418.483 657.549C416.191 587.561 409.04 552.393 379.187 514.544L371.335 520.737Z" fill="white" mask="url(#path-2-outside-1_432_115)"/>
<ellipse cx="256.5" cy="308.5" rx="212.5" ry="199.5" fill="black"/>
<path d="M335.459 487.584L260.784 515.3C258.988 515.967 257.012 515.967 255.216 515.3L180.541 487.584C171.775 484.331 174.754 471.254 184.063 472.118L258 478.979L331.937 472.118C341.246 471.254 344.225 484.331 335.459 487.584Z" fill="#F5F5F5" stroke="black" stroke-width="10"/>
<path d="M159 516C159 516 225 533.5 237 538.5C249 543.5 249 555 249 555" stroke="black" stroke-width="5" stroke-linecap="round"/>
<path d="M367 516C367 516 301 533.5 289 538.5C277 543.5 277 555 277 555" stroke="black" stroke-width="5" stroke-linecap="round"/>
<path d="M452 299.247C452 408.251 359.696 470 257.5 470C154.097 470 63 406.509 63 297.25C63 202.119 151.656 125 261.018 125C370.38 125 452 204.116 452 299.247Z" fill="#919CC9"/>
<path d="M444.5 298.426C444.5 407.195 353.892 469.426 251 469.426C147.569 469.426 57.5 405.33 57.5 296.426C57.5 201.157 138.7 131.926 247.5 131.926C356.3 131.926 438.5 202.5 444.5 298.426Z" fill="#CED2DE"/>
<path d="M426 300.57C426 399 341.936 454 250 454C156.973 454 74 397.441 74 298.776C74 213.295 154.223 144 253.183 144C352.144 144 426 215.09 426 300.57Z" fill="white"/>
<ellipse cx="145.5" cy="298" rx="56.5" ry="62" fill="black"/>
<ellipse cx="357.5" cy="296" rx="56.5" ry="62" fill="black"/>
<path fill-rule="evenodd" clip-rule="evenodd" d="M244.129 340.253C243.965 339.447 242.952 339.174 242.404 339.787L234.535 348.588C234.351 348.718 234.173 348.855 234 349C232.559 350.209 231.497 351.939 231.194 353.945C230.535 358.314 233.542 362.39 237.91 363.05C242.279 363.71 246.355 360.703 247.015 356.334C247.226 354.934 247.061 353.564 246.596 352.328L244.129 340.253Z" fill="black"/>
<path fill-rule="evenodd" clip-rule="evenodd" d="M258.112 339.701C257.544 339.107 256.541 339.414 256.403 340.224L254.423 351.864C254.337 352.071 254.259 352.282 254.19 352.497C253.613 354.287 253.635 356.317 254.446 358.177C256.212 362.227 260.926 364.079 264.976 362.313C269.026 360.547 270.878 355.832 269.112 351.782C268.546 350.484 267.677 349.412 266.625 348.613L258.112 339.701Z" fill="black"/>
<path d="M167.5 611L165 545C186.185 584.131 200 591 231.5 600.5L167.5 611Z" fill="#1E1F33"/>
<path d="M352.5 615C347.426 589.998 345.5 559.5 345.5 528.5C323 574 325.885 594.238 296 608L352.5 615Z" fill="#1E1F33"/>
<path d="M310 529.957C447.5 488 530.012 315 508 251.5C563.282 410.976 423.5 529.957 310 529.957Z" fill="#1E1F33"/>
<path d="M300.981 634.779C300.696 618.522 298.811 610.244 290.819 597.726C320.639 589.243 332.533 594.222 348.047 614.604C327.417 618.898 316.906 622.987 300.981 634.779Z" fill="#D9D9D9" stroke="black" stroke-width="7" stroke-linecap="round" stroke-linejoin="round"/>
<path d="M132 621C183.384 606.962 212.296 601.277 264 594C275.859 617.266 278.216 631.006 282.5 655.5C260.266 663.701 247.576 667.919 223.5 673" stroke="black" stroke-width="5" stroke-linecap="round" stroke-linejoin="round"/>
<path d="M282.859 655.801C279.609 631.103 276.061 617.579 264.263 594.48L287.008 593.389C298.099 608.058 300.883 619.717 301.587 645.229L282.859 655.801Z" stroke="black" stroke-width="5" stroke-linecap="round" stroke-linejoin="round"/>
<path d="M304 629.5C330.731 614.262 364.5 609 379.5 632.5" stroke="black" stroke-width="5" stroke-linecap="round" stroke-linejoin="round"/>
<path d="M136.143 591.859C129.185 584.295 134.315 573.542 146.265 584.17C137.432 572.479 142.628 566.634 151.981 574.605C149.902 568.091 156.354 566.66 162.372 569.154C168.391 571.647 191.62 602.171 189.91 602.769L166.677 609.412C166.972 609.85 167.269 610.292 167.568 610.74L154.6 612.865L152.166 614.84C152.164 614.97 152.105 615.023 151.981 614.991L152.166 614.84C152.189 613.173 142.599 598.877 136.143 591.859Z" fill="#D9D9D9"/>
<path d="M154.6 612.865L151.981 614.991C153.699 615.44 143.101 599.423 136.143 591.859C129.185 584.295 134.315 573.542 146.265 584.17M154.6 612.865L167.568 610.74C161.151 601.137 155.618 593.735 146.265 584.17M154.6 612.865L189.91 602.769C191.62 602.171 168.391 571.647 162.372 569.154C156.354 566.66 149.902 568.091 151.981 574.605M146.265 584.17C137.432 572.479 142.628 566.634 151.981 574.605M151.981 574.605C161.45 582.773 166.465 588.225 172.244 597.455" stroke="black" stroke-width="5" stroke-linecap="round" stroke-linejoin="round"/>
<path d="M137.759 592.735C131.064 585.618 136 575.5 147.5 585.5C139 574.5 144 569 153 576.5C151 570.371 157.208 569.025 163 571.371C168.791 573.717 191.145 602.438 189.5 603L167.142 609.251C167.427 609.663 167.712 610.079 168 610.5L155.52 612.5L153.179 614.358C153.177 614.48 153.119 614.53 153 614.5L153.179 614.358C153.2 612.789 143.972 599.338 137.759 592.735Z" fill="#D9D9D9"/>
<path d="M155.52 612.5L153 614.5C154.653 614.922 144.455 599.852 137.759 592.735C131.064 585.618 136 575.5 147.5 585.5M155.52 612.5L168 610.5C161.825 601.465 156.5 594.5 147.5 585.5M155.52 612.5L189.5 603C191.145 602.438 168.791 573.717 163 571.371C157.208 569.025 151 570.371 153 576.5M147.5 585.5C139 574.5 144 569 153 576.5M153 576.5C162.112 584.186 166.938 589.315 172.5 598" stroke="black" stroke-width="5" stroke-linecap="round" stroke-linejoin="round"/>
</svg>
