<svg xmlns="http://www.w3.org/2000/svg" xmlns:xlink="http://www.w3.org/1999/xlink" xmlns:lucid="lucid" width="2122" height="622"><g transform="translate(261 561)" lucid:page-tab-id="0_0"><path d="M-500-1000h2500V500H-500z" fill="#fff"/><path d="M-240-540h2080V40H-240z" stroke="#000" stroke-opacity="0" stroke-width="2" fill="#fff"/><path d="M400-514a6 6 0 0 1 6-6h788a6 6 0 0 1 6 6v68a6 6 0 0 1-6 6H406a6 6 0 0 1-6-6z" stroke="#000" stroke-opacity="0" stroke-width="2" fill="#fff" fill-opacity="0"/><use xlink:href="#a" transform="matrix(1,0,0,1,405,-515) translate(134.22526041666674 48.75325520833332)"/><use xlink:href="#b" transform="matrix(1,0,0,1,405,-515) translate(277.666015625 48.75325520833332)"/><use xlink:href="#c" transform="matrix(1,0,0,1,405,-515) translate(436.9759114583333 48.75325520833332)"/><use xlink:href="#d" transform="matrix(1,0,0,1,405,-515) translate(522.3111979166666 48.75325520833332)"/><path d="M520-320c0 22.1-17.9 40-40 40s-40-17.9-40-40 17.9-40 40-40 40 17.9 40 40z" stroke="#282c33" stroke-width="2"/><path d="M640-394a6 6 0 0 1 6-6h308a6 6 0 0 1 6 6v148a6 6 0 0 1-6 6H646a6 6 0 0 1-6-6z" stroke="#3a414a" fill="#fff"/><use xlink:href="#e" transform="matrix(1,0,0,1,645,-395) translate(94.73741319444446 84.81553819444443)"/><path d="M640-154a6 6 0 0 1 6-6h308a6 6 0 0 1 6 6V-6a6 6 0 0 1-6 6H646a6 6 0 0 1-6-6z" stroke="#3a414a" fill="#fff"/><use xlink:href="#f" transform="matrix(1,0,0,1,645,-155) translate(73.89539930555559 84.81553819444443)"/><path d="M681.2-239v62.12" stroke="#3a414a" fill="none"/><path d="M681.67-239h-.95v-.5h.95z" stroke="#3a414a" stroke-width=".05" fill="#3a414a"/><path d="M681.2-162.12l-4.65-14.26h9.28z" stroke="#3a414a" fill="#3a414a"/><path d="M920.1-161v-62.12" stroke="#3a414a" fill="none"/><path d="M920.57-160.5h-.95v-.5h.95z" stroke="#3a414a" stroke-width=".05" fill="#3a414a"/><path d="M920.1-237.88l4.63 14.26h-9.27z" stroke="#3a414a" fill="#3a414a"/><path d="M1160-320c0 22.1-17.9 40-40 40s-40-17.9-40-40 17.9-40 40-40 40 17.9 40 40z" stroke="#282c33" stroke-width="2" fill="#fff"/><path d="M1140-320c0 11.05-8.95 20-20 20s-20-8.95-20-20 8.95-20 20-20 20 8.95 20 20z" stroke="#282c33" stroke-width="2"/><path d="M521.5-320h101.62" stroke="#3a414a" fill="none"/><path d="M521.5-319.52h-.53l.03-.47-.02-.48h.53z" stroke="#3a414a" stroke-width=".05" fill="#3a414a"/><path d="M637.88-320l-14.26 4.63v-9.26z" stroke="#3a414a" fill="#3a414a"/><path d="M961-320h101.62" stroke="#3a414a" fill="none"/><path d="M961-319.52h-.5v-.96h.5z" stroke="#3a414a" stroke-width=".05" fill="#3a414a"/><path d="M1077.38-320l-14.27 4.63.02-9.26z" stroke="#3a414a" fill="#3a414a"/><defs><path fill="#3a414a" d="M371 0H201v-1462h815v151H371v535h606v151H371V0" id="g"/><path fill="#3a414a" d="M563 20c-271 0-399-123-399-399v-717h168v711c1 177 76 266 252 266 250 0 331-135 331-401v-576h166V0H944l-24-147h-9C848-44 724 20 563 20" id="h"/><path fill="#3a414a" d="M694-1116c270 0 399 125 398 401V0H926v-709c-1-177-76-266-252-266-250 0-332 133-332 400V0H176v-1096h135l27 150h8c62-101 190-170 348-170" id="i"/><path fill="#3a414a" d="M287-543c-1 247 91 418 323 418 91 0 185-20 281-59v147C818 1 725 20 614 20c-329 0-499-221-499-561 0-349 172-575 510-575 96 0 221 26 282 57l-51 141c-61-25-157-50-235-51-223 0-334 142-334 426" id="j"/><path fill="#3a414a" d="M354-322c-2 123 60 204 176 205 51 1 114-10 150-20v127C647 7 557 20 506 20 294 20 188-92 188-315v-652H31v-80l157-69 70-234h96v254h318v129H354v645" id="k"/><path fill="#3a414a" d="M342 0H176v-1096h166V0zm-82-1282c-61 0-98-43-98-111 0-69 36-110 98-110 59 0 98 43 98 110s-39 111-98 111" id="l"/><path fill="#3a414a" d="M621-1116c316 0 501 239 501 567 0 339-180 575-508 569S119-212 115-549c-4-339 178-567 506-567zm-5 141c-239 0-329 168-329 426 0 255 93 430 331 430s332-174 332-430-95-426-334-426" id="m"/><g id="a"><use transform="matrix(0.01627604166666666,0,0,0.01627604166666666,0,0)" xlink:href="#g"/><use transform="matrix(0.01627604166666666,0,0,0.01627604166666666,17.20377604166666,0)" xlink:href="#h"/><use transform="matrix(0.01627604166666666,0,0,0.01627604166666666,37.66276041666666,0)" xlink:href="#i"/><use transform="matrix(0.01627604166666666,0,0,0.01627604166666666,58.12174479166665,0)" xlink:href="#j"/><use transform="matrix(0.01627604166666666,0,0,0.01627604166666666,73.99088541666664,0)" xlink:href="#k"/><use transform="matrix(0.01627604166666666,0,0,0.01627604166666666,85.75846354166664,0)" xlink:href="#l"/><use transform="matrix(0.01627604166666666,0,0,0.01627604166666666,94.18945312499997,0)" xlink:href="#m"/><use transform="matrix(0.01627604166666666,0,0,0.01627604166666666,114.32291666666663,0)" xlink:href="#i"/></g><path fill="#3a414a" d="M995-51C878-2 799 19 639 20c-329 2-524-221-524-559 0-326 172-577 481-577 278 0 451 210 446 493v105H287c4 242 121 392 358 393 118 0 235-25 350-74v148zM864-653c2-195-85-324-270-324-190 0-288 139-303 324h573" id="n"/><path fill="#3a414a" d="M440-561L59-1096h189l289 420 288-420h187L631-561 1032 0H844L537-444 227 0H39" id="o"/><g id="b"><use transform="matrix(0.01627604166666666,0,0,0.01627604166666666,0,0)" xlink:href="#n"/><use transform="matrix(0.01627604166666666,0,0,0.01627604166666666,18.03385416666666,0)" xlink:href="#o"/><use transform="matrix(0.01627604166666666,0,0,0.01627604166666666,34.83072916666666,0)" xlink:href="#n"/><use transform="matrix(0.01627604166666666,0,0,0.01627604166666666,53.53190104166665,0)" xlink:href="#j"/><use transform="matrix(0.01627604166666666,0,0,0.01627604166666666,69.40104166666664,0)" xlink:href="#h"/><use transform="matrix(0.01627604166666666,0,0,0.01627604166666666,89.86002604166663,0)" xlink:href="#k"/><use transform="matrix(0.01627604166666666,0,0,0.01627604166666666,101.62760416666663,0)" xlink:href="#l"/><use transform="matrix(0.01627604166666666,0,0,0.01627604166666666,110.05859374999996,0)" xlink:href="#m"/><use transform="matrix(0.01627604166666666,0,0,0.01627604166666666,130.19205729166663,0)" xlink:href="#i"/></g><path fill="#3a414a" d="M502-977c-130 0-238 32-238 139 0 75 39 101 95 134 33 19 97 46 192 81 130 48 217 95 263 143s69 108 69 181C883-73 695 20 449 20 304 20 190-3 109-49v-154c91 47 216 86 344 86 149 0 270-36 270-168 0-43-21-76-55-109-56-55-367-158-434-208-74-55-128-109-128-225 0-327 490-342 754-217l-59 135c-110-45-210-68-299-68" id="p"/><path fill="#3a414a" d="M588-1114c260 0 384 106 385 366V0H850l-33-156h-8C708-34 639 17 442 20 231 23 94-94 94-303c0-221 177-337 531-348l186-6c11-203-40-320-233-320-91 0-195 28-310 84l-51-127c97-53 229-94 371-94zM268-301c-1 123 81 184 207 184 203 0 334-120 332-323v-99c-257 14-539-7-539 238" id="q"/><g id="c"><use transform="matrix(0.01627604166666666,0,0,0.01627604166666666,0,0)" xlink:href="#p"/><use transform="matrix(0.01627604166666666,0,0,0.01627604166666666,15.901692708333327,0)" xlink:href="#k"/><use transform="matrix(0.01627604166666666,0,0,0.01627604166666666,27.66927083333332,0)" xlink:href="#q"/><use transform="matrix(0.01627604166666666,0,0,0.01627604166666666,46.20768229166664,0)" xlink:href="#k"/><use transform="matrix(0.01627604166666666,0,0,0.01627604166666666,57.97526041666664,0)" xlink:href="#n"/></g><path fill="#3a414a" d="M1368-1116c259 2 372 131 371 401V0h-166v-713c0-168-66-262-230-262-221 0-303 131-303 363V0H874v-713c-1-169-66-262-231-262-235 0-301 142-301 400V0H176v-1096h135l27 150h8c56-99 174-170 324-170 171 0 283 62 336 186h8c60-108 189-187 354-186" id="r"/><path fill="#3a414a" d="M690-1114c271 2 402 123 402 399V0H926v-709c-1-177-76-266-252-266-251 0-332 135-332 402V0H176v-1556h166c-4 200 8 426-8 612h10c61-100 187-171 346-170" id="s"/><g id="d"><use transform="matrix(0.01627604166666666,0,0,0.01627604166666666,0,0)" xlink:href="#r"/><use transform="matrix(0.01627604166666666,0,0,0.01627604166666666,31.00585937499999,0)" xlink:href="#q"/><use transform="matrix(0.01627604166666666,0,0,0.01627604166666666,49.544270833333314,0)" xlink:href="#j"/><use transform="matrix(0.01627604166666666,0,0,0.01627604166666666,65.41341145833331,0)" xlink:href="#s"/><use transform="matrix(0.01627604166666666,0,0,0.01627604166666666,85.87239583333331,0)" xlink:href="#l"/><use transform="matrix(0.01627604166666666,0,0,0.01627604166666666,94.30338541666664,0)" xlink:href="#i"/><use transform="matrix(0.01627604166666666,0,0,0.01627604166666666,114.76236979166663,0)" xlink:href="#n"/></g><path fill="#3a414a" d="M602-1462c329 0 526 109 526 413 0 193-98 324-294 392L1231 0h-201L676-608H371V0H201v-1462h401zm350 422c0-215-129-271-360-273H371v559h233c223 0 348-78 348-286" id="t"/><path fill="#3a414a" d="M125-741c0-247 161-377 414-375 57 0 109 7 155 20h379v105l-203 24c37 48 72 129 72 219 0 255-227 390-504 345-71 37-106 84-106 141 0 78 66 88 164 88h194c219-1 369 87 369 293 0 121-49 213-146 277s-239 96-426 96c-250 0-448-83-448-306C39 36 147-58 283-86c-52-23-102-79-99-152 4-104 57-143 133-192-107-42-192-164-192-311zM438-25c-143-1-242 70-239 209s131 181 290 181c139 0 242-21 309-63s101-98 101-169c0-147-88-158-262-158H438zm94-970c-158 0-243 88-243 250 0 153 93 233 246 233 162 0 243-79 243-236 0-165-82-247-246-247" id="u"/><g id="e"><use transform="matrix(0.015190972222222219,0,0,0.015190972222222219,0,0)" xlink:href="#t"/><use transform="matrix(0.015190972222222219,0,0,0.015190972222222219,19.23177083333333,0)" xlink:href="#h"/><use transform="matrix(0.015190972222222219,0,0,0.015190972222222219,38.32682291666666,0)" xlink:href="#i"/><use transform="matrix(0.015190972222222219,0,0,0.015190972222222219,57.421874999999986,0)" xlink:href="#i"/><use transform="matrix(0.015190972222222219,0,0,0.015190972222222219,76.51692708333331,0)" xlink:href="#l"/><use transform="matrix(0.015190972222222219,0,0,0.015190972222222219,84.38585069444443,0)" xlink:href="#i"/><use transform="matrix(0.015190972222222219,0,0,0.015190972222222219,103.48090277777776,0)" xlink:href="#u"/></g><path fill="#3a414a" d="M584-1331c-162 0-287 69-287 219 0 118 43 164 123 214 44 28 112 56 203 89 153 55 259 113 317 176s86 144 86 244c-1 276-228 409-520 409-173 0-307-22-400-67v-164c109 46 257 81 406 82 199 1 342-68 342-244 0-120-47-164-132-214-47-28-121-58-218-93-136-49-234-106-292-173s-87-154-87-261c-1-239 209-369 463-369 145 0 279 27 401 80l-53 148c-121-51-238-76-352-76" id="v"/><path fill="#3a414a" d="M1141-549c0 329-147 569-455 569-159 0-273-61-344-161h-12c23 199 7 418 12 633H176v-1588h135l23 150h8c77-108 175-170 344-170 311 0 455 237 455 567zm-172-2c0-242-88-424-307-424-256 0-323 154-320 426 3 280 68 430 324 430 213 0 303-196 303-432" id="w"/><path fill="#3a414a" d="M115-545c0-330 146-571 454-571 149 0 263 54 342 162h13c-20-185-8-401-11-602h166V0H944l-22-147h-9C836-36 722 20 569 20c-309 0-454-234-454-565zm172 2c0 249 78 424 303 424 257 0 327-150 323-426-4-282-68-432-325-432-220 0-301 191-301 434" id="x"/><g id="f"><use transform="matrix(0.015190972222222219,0,0,0.015190972222222219,0,0)" xlink:href="#v"/><use transform="matrix(0.015190972222222219,0,0,0.015190972222222219,17.074652777777775,0)" xlink:href="#h"/><use transform="matrix(0.015190972222222219,0,0,0.015190972222222219,36.1697048611111,0)" xlink:href="#p"/><use transform="matrix(0.015190972222222219,0,0,0.015190972222222219,51.01128472222221,0)" xlink:href="#w"/><use transform="matrix(0.015190972222222219,0,0,0.015190972222222219,70.07595486111109,0)" xlink:href="#n"/><use transform="matrix(0.015190972222222219,0,0,0.015190972222222219,87.53038194444441,0)" xlink:href="#i"/><use transform="matrix(0.015190972222222219,0,0,0.015190972222222219,106.62543402777774,0)" xlink:href="#x"/><use transform="matrix(0.015190972222222219,0,0,0.015190972222222219,125.69010416666664,0)" xlink:href="#n"/><use transform="matrix(0.015190972222222219,0,0,0.015190972222222219,143.14453124999994,0)" xlink:href="#x"/></g></defs></g></svg>