<svg xmlns="http://www.w3.org/2000/svg" xmlns:xlink="http://www.w3.org/1999/xlink" xmlns:lucid="lucid" width="2122" height="442"><g transform="translate(-139 -259)" lucid:page-tab-id="0_0"><path d="M0 0h2500v1000H0z" fill="#fff"/><path d="M160 280h2080v400H160z" stroke="#000" stroke-opacity="0" stroke-width="2" fill="#fff"/><path d="M800 486a6 6 0 0 1 6-6h148a6 6 0 0 1 6 6v148a6 6 0 0 1-6 6H806a6 6 0 0 1-6-6z" stroke="#3a414a" fill="#fff"/><use xlink:href="#a" transform="matrix(1,0,0,1,805,485) translate(14.858940972222236 84.81553819444443)"/><path d="M1120 486a6 6 0 0 1 6-6h148a6 6 0 0 1 6 6v148a6 6 0 0 1-6 6h-148a6 6 0 0 1-6-6z" stroke="#3a414a" fill="#3a414a"/><use xlink:href="#b" transform="matrix(1,0,0,1,1125,485) translate(15.48177083333335 84.81553819444443)"/><path d="M1440 486a6 6 0 0 1 6-6h148a6 6 0 0 1 6 6v148a6 6 0 0 1-6 6h-148a6 6 0 0 1-6-6z" stroke="#3a414a" fill="#fff"/><use xlink:href="#a" transform="matrix(1,0,0,1,1445,485) translate(14.858940972222236 84.81553819444443)"/><path d="M960 326a6 6 0 0 1 6-6h468a6 6 0 0 1 6 6v68a6 6 0 0 1-6 6H966a6 6 0 0 1-6-6z" stroke="#000" stroke-opacity="0" stroke-width="2" fill="#fff" fill-opacity="0"/><use xlink:href="#c" transform="matrix(1,0,0,1,965,325) translate(3.0501302083333997 48.94075520833332)"/><use xlink:href="#d" transform="matrix(1,0,0,1,965,325) translate(146.49088541666669 48.94075520833332)"/><use xlink:href="#e" transform="matrix(1,0,0,1,965,325) translate(282.33072916666663 48.94075520833332)"/><path d="M961 518.48h142.12" stroke="#3a414a" fill="none"/><path d="M961 518.96h-.5V518h.5z" stroke="#3a414a" stroke-width=".05" fill="#3a414a"/><path d="M1117.88 518.48l-14.26 4.63v-9.25z" stroke="#3a414a" fill="#3a414a"/><path d="M1281 517h142.12" stroke="#3a414a" fill="none"/><path d="M1281 517.47h-.5v-.96h.5z" stroke="#3a414a" stroke-width=".05" fill="#3a414a"/><path d="M1437.88 517l-14.26 4.63v-9.27z" stroke="#3a414a" fill="#3a414a"/><path d="M1439 597.44h-1.97m-3.95 0h-3.95m-3.95 0h-3.94m-3.95 0h-3.96m-3.95 0h-3.96m-3.94 0h-3.95m-3.95 0h-3.95m-3.94 0h-3.94m-3.95 0h-3.94m-3.94 0h-3.95m-3.95 0h-3.95m-3.94 0h-3.95m-3.95 0h-3.95m-3.95 0h-3.94m-3.96 0h-3.95m-3.96 0h-3.94m-3.95 0h-3.95m-3.95 0h-3.94m-3.94 0h-1.98" stroke="#3a414a" fill="none"/><path d="M1439.5 597.92h-.5v-.95h.5z" stroke="#3a414a" stroke-width=".05" fill="#3a414a"/><path d="M1282.12 597.44l14.26-4.63v9.28z" stroke="#3a414a" fill="#3a414a"/><path d="M1119 601.9h-1.97m-3.95 0h-3.95m-3.95 0h-3.94m-3.95 0h-3.96m-3.95 0h-3.96m-3.94 0h-3.95m-3.95 0h-3.95m-3.94 0h-3.94m-3.95 0h-3.94m-3.94 0h-3.95m-3.95 0h-3.95m-3.94 0h-3.95m-3.95 0h-3.95m-3.95 0h-3.94m-3.96 0h-3.95m-3.96 0h-3.94m-3.95 0h-3.95m-3.95 0h-3.95m-3.94 0h-1.98" stroke="#3a414a" fill="none"/><path d="M1119.5 602.4h-.5v-.96h.5z" stroke="#3a414a" stroke-width=".05" fill="#3a414a"/><path d="M962.12 601.9l14.26-4.62v9.27z" stroke="#3a414a" fill="#3a414a"/><defs><path fill="#3a414a" d="M575-1430c-169 0-190 146-184 334h279v129H391V0H225v-967H29v-75l196-60c-15-299 97-465 353-465 58 0 126 12 204 35l-43 133c-64-21-119-31-164-31" id="f"/><path fill="#3a414a" d="M563 20c-271 0-399-123-399-399v-717h168v711c1 177 76 266 252 266 250 0 331-135 331-401v-576h166V0H944l-24-147h-9C848-44 724 20 563 20" id="g"/><path fill="#3a414a" d="M694-1116c270 0 399 125 398 401V0H926v-709c-1-177-76-266-252-266-250 0-332 133-332 400V0H176v-1096h135l27 150h8c62-101 190-170 348-170" id="h"/><path fill="#3a414a" d="M287-543c-1 247 91 418 323 418 91 0 185-20 281-59v147C818 1 725 20 614 20c-329 0-499-221-499-561 0-349 172-575 510-575 96 0 221 26 282 57l-51 141c-61-25-157-50-235-51-223 0-334 142-334 426" id="i"/><path fill="#3a414a" d="M354-322c-2 123 60 204 176 205 51 1 114-10 150-20v127C647 7 557 20 506 20 294 20 188-92 188-315v-652H31v-80l157-69 70-234h96v254h318v129H354v645" id="j"/><path fill="#3a414a" d="M342 0H176v-1096h166V0zm-82-1282c-61 0-98-43-98-111 0-69 36-110 98-110 59 0 98 43 98 110s-39 111-98 111" id="k"/><path fill="#3a414a" d="M621-1116c316 0 501 239 501 567 0 339-180 575-508 569S119-212 115-549c-4-339 178-567 506-567zm-5 141c-239 0-329 168-329 426 0 255 93 430 331 430s332-174 332-430-95-426-334-426" id="l"/><g id="a"><use transform="matrix(0.015190972222222219,0,0,0.015190972222222219,0,0)" xlink:href="#f"/><use transform="matrix(0.015190972222222219,0,0,0.015190972222222219,10.54253472222222,0)" xlink:href="#g"/><use transform="matrix(0.015190972222222219,0,0,0.015190972222222219,29.63758680555555,0)" xlink:href="#h"/><use transform="matrix(0.015190972222222219,0,0,0.015190972222222219,48.73263888888888,0)" xlink:href="#i"/><use transform="matrix(0.015190972222222219,0,0,0.015190972222222219,63.54383680555554,0)" xlink:href="#j"/><use transform="matrix(0.015190972222222219,0,0,0.015190972222222219,74.5269097222222,0)" xlink:href="#k"/><use transform="matrix(0.015190972222222219,0,0,0.015190972222222219,82.39583333333331,0)" xlink:href="#l"/><use transform="matrix(0.015190972222222219,0,0,0.015190972222222219,101.1870659722222,0)" xlink:href="#h"/></g><path fill="#fff" d="M1141-549c0 329-147 569-455 569-159 0-273-61-344-161h-12c23 199 7 418 12 633H176v-1588h135l23 150h8c77-108 175-170 344-170 311 0 455 237 455 567zm-172-2c0-242-88-424-307-424-256 0-323 154-320 426 3 280 68 430 324 430 213 0 303-196 303-432" id="m"/><path fill="#fff" d="M340-893c80-153 237-262 467-211l-23 154c-45-10-85-15-120-15-184-3-322 182-322 377V0H176v-1096h137l19 203h8" id="n"/><path fill="#fff" d="M621-1116c316 0 501 239 501 567 0 339-180 575-508 569S119-212 115-549c-4-339 178-567 506-567zm-5 141c-239 0-329 168-329 426 0 255 93 430 331 430s332-174 332-430-95-426-334-426" id="o"/><path fill="#fff" d="M1368-1116c259 2 372 131 371 401V0h-166v-713c0-168-66-262-230-262-221 0-303 131-303 363V0H874v-713c-1-169-66-262-231-262-235 0-301 142-301 400V0H176v-1096h135l27 150h8c56-99 174-170 324-170 171 0 283 62 336 186h8c60-108 189-187 354-186" id="p"/><path fill="#fff" d="M342 0H176v-1096h166V0zm-82-1282c-61 0-98-43-98-111 0-69 36-110 98-110 59 0 98 43 98 110s-39 111-98 111" id="q"/><path fill="#fff" d="M502-977c-130 0-238 32-238 139 0 75 39 101 95 134 33 19 97 46 192 81 130 48 217 95 263 143s69 108 69 181C883-73 695 20 449 20 304 20 190-3 109-49v-154c91 47 216 86 344 86 149 0 270-36 270-168 0-43-21-76-55-109-56-55-367-158-434-208-74-55-128-109-128-225 0-327 490-342 754-217l-59 135c-110-45-210-68-299-68" id="r"/><path fill="#fff" d="M995-51C878-2 799 19 639 20c-329 2-524-221-524-559 0-326 172-577 481-577 278 0 451 210 446 493v105H287c4 242 121 392 358 393 118 0 235-25 350-74v148zM864-653c2-195-85-324-270-324-190 0-288 139-303 324h573" id="s"/><g id="b"><use transform="matrix(0.015190972222222219,0,0,0.015190972222222219,0,0)" xlink:href="#m"/><use transform="matrix(0.015190972222222219,0,0,0.015190972222222219,19.064670138888886,0)" xlink:href="#n"/><use transform="matrix(0.015190972222222219,0,0,0.015190972222222219,31.141493055555546,0)" xlink:href="#o"/><use transform="matrix(0.015190972222222219,0,0,0.015190972222222219,49.932725694444436,0)" xlink:href="#p"/><use transform="matrix(0.015190972222222219,0,0,0.015190972222222219,78.87152777777776,0)" xlink:href="#q"/><use transform="matrix(0.015190972222222219,0,0,0.015190972222222219,86.74045138888887,0)" xlink:href="#r"/><use transform="matrix(0.015190972222222219,0,0,0.015190972222222219,101.58203124999997,0)" xlink:href="#s"/></g><path fill="#3a414a" d="M371 0H201v-1462h815v151H371v535h606v151H371V0" id="t"/><g id="c"><use transform="matrix(0.01627604166666666,0,0,0.01627604166666666,0,0)" xlink:href="#t"/><use transform="matrix(0.01627604166666666,0,0,0.01627604166666666,17.20377604166666,0)" xlink:href="#g"/><use transform="matrix(0.01627604166666666,0,0,0.01627604166666666,37.66276041666666,0)" xlink:href="#h"/><use transform="matrix(0.01627604166666666,0,0,0.01627604166666666,58.12174479166665,0)" xlink:href="#i"/><use transform="matrix(0.01627604166666666,0,0,0.01627604166666666,73.99088541666664,0)" xlink:href="#j"/><use transform="matrix(0.01627604166666666,0,0,0.01627604166666666,85.75846354166664,0)" xlink:href="#k"/><use transform="matrix(0.01627604166666666,0,0,0.01627604166666666,94.18945312499997,0)" xlink:href="#l"/><use transform="matrix(0.01627604166666666,0,0,0.01627604166666666,114.32291666666663,0)" xlink:href="#h"/></g><path fill="#3a414a" d="M1128-1036c0 321-241 464-585 461H371V0H201v-1462h379c365 0 548 142 548 426zm-176 8c0-218-150-286-391-287H371v594h153c270-3 428-62 428-307" id="u"/><path fill="#3a414a" d="M340-893c80-153 237-262 467-211l-23 154c-45-10-85-15-120-15-184-3-322 182-322 377V0H176v-1096h137l19 203h8" id="v"/><path fill="#3a414a" d="M1368-1116c259 2 372 131 371 401V0h-166v-713c0-168-66-262-230-262-221 0-303 131-303 363V0H874v-713c-1-169-66-262-231-262-235 0-301 142-301 400V0H176v-1096h135l27 150h8c56-99 174-170 324-170 171 0 283 62 336 186h8c60-108 189-187 354-186" id="w"/><path fill="#3a414a" d="M502-977c-130 0-238 32-238 139 0 75 39 101 95 134 33 19 97 46 192 81 130 48 217 95 263 143s69 108 69 181C883-73 695 20 449 20 304 20 190-3 109-49v-154c91 47 216 86 344 86 149 0 270-36 270-168 0-43-21-76-55-109-56-55-367-158-434-208-74-55-128-109-128-225 0-327 490-342 754-217l-59 135c-110-45-210-68-299-68" id="x"/><path fill="#3a414a" d="M995-51C878-2 799 19 639 20c-329 2-524-221-524-559 0-326 172-577 481-577 278 0 451 210 446 493v105H287c4 242 121 392 358 393 118 0 235-25 350-74v148zM864-653c2-195-85-324-270-324-190 0-288 139-303 324h573" id="y"/><g id="d"><use transform="matrix(0.01627604166666666,0,0,0.01627604166666666,0,0)" xlink:href="#u"/><use transform="matrix(0.01627604166666666,0,0,0.01627604166666666,20.068359374999993,0)" xlink:href="#v"/><use transform="matrix(0.01627604166666666,0,0,0.01627604166666666,33.007812499999986,0)" xlink:href="#l"/><use transform="matrix(0.01627604166666666,0,0,0.01627604166666666,53.14127604166664,0)" xlink:href="#w"/><use transform="matrix(0.01627604166666666,0,0,0.01627604166666666,84.14713541666663,0)" xlink:href="#k"/><use transform="matrix(0.01627604166666666,0,0,0.01627604166666666,92.57812499999996,0)" xlink:href="#x"/><use transform="matrix(0.01627604166666666,0,0,0.01627604166666666,108.47981770833329,0)" xlink:href="#y"/></g><path fill="#3a414a" d="M342 0H176v-1556h166V0" id="z"/><path fill="#3a414a" d="M588-1114c260 0 384 106 385 366V0H850l-33-156h-8C708-34 639 17 442 20 231 23 94-94 94-303c0-221 177-337 531-348l186-6c11-203-40-320-233-320-91 0-195 28-310 84l-51-127c97-53 229-94 371-94zM268-301c-1 123 81 184 207 184 203 0 334-120 332-323v-99c-257 14-539-7-539 238" id="A"/><path fill="#3a414a" d="M690-1114c271 2 402 123 402 399V0H926v-709c-1-177-76-266-252-266-251 0-332 135-332 402V0H176v-1556h166c-4 200 8 426-8 612h10c61-100 187-171 346-170" id="B"/><path fill="#3a414a" d="M1141-549c0 329-147 569-455 569-159 0-273-61-344-161h-12c23 199 7 418 12 633H176v-1588h135l23 150h8c77-108 175-170 344-170 311 0 455 237 455 567zm-172-2c0-242-88-424-307-424-256 0-323 154-320 426 3 280 68 430 324 430 213 0 303-196 303-432" id="C"/><g id="e"><use transform="matrix(0.01627604166666666,0,0,0.01627604166666666,0,0)" xlink:href="#v"/><use transform="matrix(0.01627604166666666,0,0,0.01627604166666666,12.939453124999995,0)" xlink:href="#y"/><use transform="matrix(0.01627604166666666,0,0,0.01627604166666666,31.640624999999986,0)" xlink:href="#z"/><use transform="matrix(0.01627604166666666,0,0,0.01627604166666666,40.071614583333314,0)" xlink:href="#A"/><use transform="matrix(0.01627604166666666,0,0,0.01627604166666666,58.61002604166664,0)" xlink:href="#j"/><use transform="matrix(0.01627604166666666,0,0,0.01627604166666666,70.37760416666664,0)" xlink:href="#k"/><use transform="matrix(0.01627604166666666,0,0,0.01627604166666666,78.80859374999997,0)" xlink:href="#l"/><use transform="matrix(0.01627604166666666,0,0,0.01627604166666666,98.94205729166663,0)" xlink:href="#h"/><use transform="matrix(0.01627604166666666,0,0,0.01627604166666666,119.40104166666663,0)" xlink:href="#x"/><use transform="matrix(0.01627604166666666,0,0,0.01627604166666666,135.30273437499994,0)" xlink:href="#B"/><use transform="matrix(0.01627604166666666,0,0,0.01627604166666666,155.76171874999994,0)" xlink:href="#k"/><use transform="matrix(0.01627604166666666,0,0,0.01627604166666666,164.1927083333333,0)" xlink:href="#C"/></g></defs></g></svg>