<svg xmlns="http://www.w3.org/2000/svg" xmlns:xlink="http://www.w3.org/1999/xlink" xmlns:lucid="lucid" width="2401" height="1201"><g transform="translate(160.5 40.5)" lucid:page-tab-id="0_0"><path d="M-500-500h3000v2000H-500z" fill="#fff"/><path d="M-160-40h2400v1200H-160z" stroke="#000" stroke-opacity="0" fill="#fff"/><path d="M641 81c0 .55-.45 1-1 1s-1-.45-1-1 .45-1 1-1 1 .45 1 1zm0 7.4c0 .55-.45 1-1 1s-1-.45-1-1 .45-1 1-1 1 .45 1 1zm0 7.4c0 .55-.45 1-1 1s-1-.45-1-1 .45-1 1-1 1 .45 1 1zm0 7.4c0 .55-.45 1-1 1s-1-.45-1-1 .45-1 1-1 1 .45 1 1zm0 7.4c0 .55-.45 1-1 1s-1-.45-1-1 .45-1 1-1 1 .45 1 1z" fill="#3a414a"/><path d="M640.98 81.03H639V80H641zM640.98 119.06L640 119l-.98.03v-1.06H641z" stroke="#3a414a" stroke-width=".05" fill="#3a414a"/><path d="M961 81c0 .55-.45 1-1 1s-1-.45-1-1 .45-1 1-1 1 .45 1 1zm0 7.97c0 .56-.45 1-1 1s-1-.44-1-1c0-.55.45-1 1-1s1 .45 1 1zm0 7.97c0 .56-.45 1-1 1s-1-.44-1-1c0-.55.45-1 1-1s1 .45 1 1zm0 7.98c0 .55-.45 1-1 1s-1-.45-1-1 .45-1 1-1 1 .45 1 1zm0 7.97c0 .54-.45 1-1 1s-1-.46-1-1c0-.56.45-1 1-1s1 .44 1 1zm0 7.96c0 .56-.45 1-1 1s-1-.44-1-1c0-.55.45-1 1-1s1 .45 1 1zm0 7.98c0 .55-.45 1-1 1s-1-.45-1-1c0-.56.45-1 1-1s1 .44 1 1zm0 7.97c0 .56-.45 1-1 1s-1-.44-1-1c0-.54.45-1 1-1s1 .46 1 1zm0 7.98c0 .55-.45 1-1 1s-1-.45-1-1 .45-1 1-1 1 .45 1 1zm0 7.97c0 .56-.45 1-1 1s-1-.44-1-1c0-.55.45-1 1-1s1 .45 1 1zm0 7.98c0 .55-.45 1-1 1s-1-.45-1-1c0-.56.45-1 1-1s1 .44 1 1zm0 7.97c0 .55-.45 1-1 1s-1-.45-1-1 .45-1 1-1 1 .45 1 1zm0 7.97c0 .55-.45 1-1 1s-1-.45-1-1 .45-1 1-1 1 .45 1 1zm0 7.97c0 .56-.45 1-1 1s-1-.44-1-1c0-.55.45-1 1-1s1 .45 1 1zm0 7.98c0 .55-.45 1-1 1s-1-.45-1-1c0-.56.45-1 1-1s1 .44 1 1zm0 7.97c0 .54-.45 1-1 1s-1-.46-1-1c0-.56.45-1 1-1s1 .44 1 1zm0 7.96c0 .56-.45 1-1 1s-1-.44-1-1c0-.55.45-1 1-1s1 .45 1 1zm0 7.97c0 .56-.45 1-1 1s-1-.44-1-1c0-.55.45-1 1-1s1 .45 1 1zm0 7.98c0 .56-.45 1-1 1s-1-.44-1-1c0-.54.45-1 1-1s1 .46 1 1zm0 7.98c0 .55-.45 1-1 1s-1-.45-1-1 .45-1 1-1 1 .45 1 1zm0 7.97c0 .56-.45 1-1 1s-1-.44-1-1c0-.55.45-1 1-1s1 .45 1 1zm0 7.98c0 .55-.45 1-1 1s-1-.45-1-1c0-.56.45-1 1-1s1 .44 1 1zm0 7.97c0 .55-.45 1-1 1s-1-.45-1-1 .45-1 1-1 1 .45 1 1zm0 7.97c0 .55-.45 1-1 1s-1-.45-1-1 .45-1 1-1 1 .45 1 1zm0 7.97c0 .56-.45 1-1 1s-1-.44-1-1c0-.55.45-1 1-1s1 .45 1 1zm0 7.98c0 .55-.45 1-1 1s-1-.45-1-1c0-.56.45-1 1-1s1 .44 1 1zm0 7.97c0 .54-.45 1-1 1s-1-.46-1-1c0-.56.45-1 1-1s1 .44 1 1zm0 7.96c0 .55-.45 1-1 1s-1-.45-1-1 .45-1 1-1 1 .45 1 1zm0 7.97c0 .56-.45 1-1 1s-1-.44-1-1c0-.55.45-1 1-1s1 .45 1 1zm0 7.98c0 .56-.45 1-1 1s-1-.44-1-1c0-.55.45-1 1-1s1 .45 1 1zm0 7.98c0 .55-.45 1-1 1s-1-.45-1-1 .45-1 1-1 1 .45 1 1zm0 7.97c0 .55-.45 1-1 1s-1-.45-1-1 .45-1 1-1 1 .45 1 1zm0 7.97c0 .56-.45 1-1 1s-1-.44-1-1c0-.55.45-1 1-1s1 .45 1 1zm0 7.98c0 .55-.45 1-1 1s-1-.45-1-1c0-.56.45-1 1-1s1 .44 1 1zm0 7.97c0 .55-.45 1-1 1s-1-.45-1-1 .45-1 1-1 1 .45 1 1zm0 7.97c0 .56-.45 1-1 1s-1-.44-1-1c0-.55.45-1 1-1s1 .45 1 1zm0 7.97c0 .57-.45 1-1 1s-1-.43-1-1c0-.54.45-1 1-1s1 .46 1 1zm0 8c0 .54-.45 1-1 1s-1-.46-1-1c0-.56.45-1 1-1s1 .44 1 1zm0 7.96c0 .55-.45 1-1 1s-1-.45-1-1 .45-1 1-1 1 .45 1 1zm0 7.97c0 .56-.45 1-1 1s-1-.44-1-1c0-.55.45-1 1-1s1 .45 1 1zm0 7.98c0 .56-.45 1-1 1s-1-.44-1-1c0-.55.45-1 1-1s1 .45 1 1zm0 7.98c0 .55-.45 1-1 1s-1-.45-1-1 .45-1 1-1 1 .45 1 1zm0 7.97c0 .55-.45 1-1 1s-1-.45-1-1 .45-1 1-1 1 .45 1 1zm0 7.97c0 .56-.45 1-1 1s-1-.44-1-1c0-.55.45-1 1-1s1 .45 1 1zm0 7.98c0 .55-.45 1-1 1s-1-.45-1-1c0-.56.45-1 1-1s1 .44 1 1zm0 7.97c0 .55-.45 1-1 1s-1-.45-1-1 .45-1 1-1 1 .45 1 1zm0 7.97c0 .55-.45 1-1 1s-1-.45-1-1 .45-1 1-1 1 .45 1 1zm0 7.97c0 .57-.45 1-1 1s-1-.43-1-1c0-.54.45-1 1-1s1 .46 1 1zm0 8c0 .54-.45 1-1 1s-1-.46-1-1c0-.57.45-1 1-1s1 .43 1 1zm0 7.96c0 .55-.45 1-1 1s-1-.45-1-1 .45-1 1-1 1 .45 1 1zm0 7.97c0 .55-.45 1-1 1s-1-.45-1-1 .45-1 1-1 1 .45 1 1zm0 7.98c0 .56-.45 1-1 1s-1-.44-1-1c0-.55.45-1 1-1s1 .45 1 1zm0 7.98c0 .55-.45 1-1 1s-1-.45-1-1c0-.56.45-1 1-1s1 .44 1 1zm0 7.97c0 .55-.45 1-1 1s-1-.45-1-1 .45-1 1-1 1 .45 1 1zm0 7.97c0 .56-.45 1-1 1s-1-.44-1-1c0-.55.45-1 1-1s1 .45 1 1zm0 7.98c0 .55-.45 1-1 1s-1-.45-1-1c0-.56.45-1 1-1s1 .44 1 1zm0 7.97c0 .55-.45 1-1 1s-1-.45-1-1 .45-1 1-1 1 .45 1 1zm0 7.97c0 .55-.45 1-1 1s-1-.45-1-1 .45-1 1-1 1 .45 1 1zm0 7.97c0 .57-.45 1-1 1s-1-.43-1-1c0-.54.45-1 1-1s1 .46 1 1zm0 8c0 .54-.45 1-1 1s-1-.46-1-1c0-.57.45-1 1-1s1 .43 1 1zm0 7.96c0 .55-.45 1-1 1s-1-.45-1-1 .45-1 1-1 1 .45 1 1zm0 7.97c0 .55-.45 1-1 1s-1-.45-1-1 .45-1 1-1 1 .45 1 1zm0 7.97c0 .56-.45 1-1 1s-1-.44-1-1c0-.55.45-1 1-1s1 .45 1 1zm0 7.98c0 .55-.45 1-1 1s-1-.45-1-1c0-.56.45-1 1-1s1 .44 1 1zm0 7.97c0 .55-.45 1-1 1s-1-.45-1-1 .45-1 1-1 1 .45 1 1zm0 7.97c0 .55-.45 1-1 1s-1-.45-1-1 .45-1 1-1 1 .45 1 1zm0 7.97c0 .55-.45 1-1 1s-1-.45-1-1c0-.56.45-1 1-1s1 .44 1 1zm0 7.97c0 .55-.45 1-1 1s-1-.45-1-1 .45-1 1-1 1 .45 1 1zm0 7.97c0 .55-.45 1-1 1s-1-.45-1-1 .45-1 1-1 1 .45 1 1zm0 7.97c0 .56-.45 1-1 1s-1-.44-1-1c0-.54.45-1 1-1s1 .46 1 1zm0 8c0 .54-.45 1-1 1s-1-.46-1-1c0-.57.45-1 1-1s1 .43 1 1zm0 7.96c0 .55-.45 1-1 1s-1-.45-1-1 .45-1 1-1 1 .45 1 1zm0 7.97c0 .55-.45 1-1 1s-1-.45-1-1 .45-1 1-1 1 .45 1 1zm0 7.97c0 .55-.45 1-1 1s-1-.45-1-1 .45-1 1-1 1 .45 1 1zm0 7.98c0 .55-.45 1-1 1s-1-.45-1-1c0-.56.45-1 1-1s1 .44 1 1zm0 7.97c0 .55-.45 1-1 1s-1-.45-1-1 .45-1 1-1 1 .45 1 1zm0 7.97c0 .55-.45 1-1 1s-1-.45-1-1 .45-1 1-1 1 .45 1 1zm0 7.97c0 .55-.45 1-1 1s-1-.45-1-1c0-.56.45-1 1-1s1 .44 1 1zm0 7.97c0 .55-.45 1-1 1s-1-.45-1-1c0-.56.45-1 1-1s1 .44 1 1zm0 7.97c0 .55-.45 1-1 1s-1-.45-1-1 .45-1 1-1 1 .45 1 1zm0 7.97c0 .56-.45 1-1 1s-1-.44-1-1c0-.54.45-1 1-1s1 .46 1 1zm0 7.98c0 .56-.45 1-1 1s-1-.44-1-1c0-.55.45-1 1-1s1 .45 1 1zm0 7.98c0 .55-.45 1-1 1s-1-.45-1-1c0-.56.45-1 1-1s1 .44 1 1zm0 7.97c0 .55-.45 1-1 1s-1-.45-1-1 .45-1 1-1 1 .45 1 1zm0 7.97c0 .55-.45 1-1 1s-1-.45-1-1 .45-1 1-1 1 .45 1 1zm0 7.97c0 .56-.45 1-1 1s-1-.44-1-1c0-.55.45-1 1-1s1 .45 1 1zm0 7.98c0 .55-.45 1-1 1s-1-.45-1-1 .45-1 1-1 1 .45 1 1zm0 7.97c0 .55-.45 1-1 1s-1-.45-1-1 .45-1 1-1 1 .45 1 1zm0 7.97c0 .54-.45 1-1 1s-1-.46-1-1c0-.56.45-1 1-1s1 .44 1 1zm0 7.97c0 .55-.45 1-1 1s-1-.45-1-1c0-.56.45-1 1-1s1 .44 1 1zm0 7.97c0 .55-.45 1-1 1s-1-.45-1-1 .45-1 1-1 1 .45 1 1zm0 7.97c0 .56-.45 1-1 1s-1-.44-1-1c0-.54.45-1 1-1s1 .46 1 1zm0 7.98c0 .55-.45 1-1 1s-1-.45-1-1 .45-1 1-1 1 .45 1 1zm0 7.98c0 .55-.45 1-1 1s-1-.45-1-1c0-.56.45-1 1-1s1 .44 1 1zm0 7.97c0 .55-.45 1-1 1s-1-.45-1-1 .45-1 1-1 1 .45 1 1zm0 7.97c0 .55-.45 1-1 1s-1-.45-1-1 .45-1 1-1 1 .45 1 1zm0 7.97c0 .56-.45 1-1 1s-1-.44-1-1c0-.55.45-1 1-1s1 .45 1 1zm0 7.98c0 .55-.45 1-1 1s-1-.45-1-1c0-.56.45-1 1-1s1 .44 1 1zm0 7.97c0 .55-.45 1-1 1s-1-.45-1-1 .45-1 1-1 1 .45 1 1zm0 7.97c0 .54-.45 1-1 1s-1-.46-1-1c0-.56.45-1 1-1s1 .44 1 1zm0 7.96c0 .56-.45 1-1 1s-1-.44-1-1c0-.55.45-1 1-1s1 .45 1 1zm0 7.98c0 .55-.45 1-1 1s-1-.45-1-1c0-.56.45-1 1-1s1 .44 1 1zm0 7.97c0 .56-.45 1-1 1s-1-.44-1-1c0-.54.45-1 1-1s1 .46 1 1zm0 7.98c0 .55-.45 1-1 1s-1-.45-1-1 .45-1 1-1 1 .45 1 1zm0 7.98c0 .55-.45 1-1 1s-1-.45-1-1c0-.56.45-1 1-1s1 .44 1 1zm0 7.97c0 .55-.45 1-1 1s-1-.45-1-1 .45-1 1-1 1 .45 1 1zm0 7.97c0 .55-.45 1-1 1s-1-.45-1-1 .45-1 1-1 1 .45 1 1zm0 7.97c0 .55-.45 1-1 1s-1-.45-1-1 .45-1 1-1 1 .45 1 1zm0 7.97c0 .56-.45 1-1 1s-1-.44-1-1c0-.55.45-1 1-1s1 .45 1 1zm0 7.98c0 .55-.45 1-1 1s-1-.45-1-1 .45-1 1-1 1 .45 1 1zm0 7.97c0 .54-.45 1-1 1s-1-.46-1-1c0-.56.45-1 1-1s1 .44 1 1zm0 7.96c0 .55-.45 1-1 1s-1-.45-1-1 .45-1 1-1 1 .45 1 1zm0 7.98c0 .55-.45 1-1 1s-1-.45-1-1c0-.56.45-1 1-1s1 .44 1 1zm0 7.97c0 .56-.45 1-1 1s-1-.44-1-1c0-.54.45-1 1-1s1 .46 1 1zm0 7.98c0 .55-.45 1-1 1s-1-.45-1-1 .45-1 1-1 1 .45 1 1zm0 7.97c0 .56-.45 1-1 1s-1-.44-1-1c0-.55.45-1 1-1s1 .45 1 1zm0 7.98c0 .55-.45 1-1 1s-1-.45-1-1c0-.56.45-1 1-1s1 .44 1 1zm0 7.97c0 .55-.45 1-1 1s-1-.45-1-1 .45-1 1-1 1 .45 1 1zm0 7.97c0 .55-.45 1-1 1s-1-.45-1-1 .45-1 1-1 1 .45 1 1zm0 7.97c0 .56-.45 1-1 1s-1-.44-1-1c0-.55.45-1 1-1s1 .45 1 1zm0 7.98c0 .55-.45 1-1 1s-1-.45-1-1c0-.56.45-1 1-1s1 .44 1 1zm0 7.97c0 .54-.45 1-1 1s-1-.46-1-1c0-.56.45-1 1-1s1 .44 1 1zm0 7.96c0 .55-.45 1-1 1s-1-.45-1-1 .45-1 1-1 1 .45 1 1zm0 7.97c0 .56-.45 1-1 1s-1-.44-1-1c0-.55.45-1 1-1s1 .45 1 1zm0 7.98c0 .56-.45 1-1 1s-1-.44-1-1c0-.54.45-1 1-1s1 .46 1 1zm0 7.98c0 .55-.45 1-1 1s-1-.45-1-1 .45-1 1-1 1 .45 1 1zm0 7.97c0 .56-.45 1-1 1s-1-.44-1-1c0-.55.45-1 1-1s1 .45 1 1zm0 7.98c0 .55-.45 1-1 1s-1-.45-1-1c0-.56.45-1 1-1s1 .44 1 1zm0 7.97c0 .55-.45 1-1 1s-1-.45-1-1 .45-1 1-1 1 .45 1 1z" fill="#3a414a"/><path d="M960.98 81.03H959V80H961z" stroke="#3a414a" stroke-width=".05" fill="#3a414a"/><path d="M960 1116.76l-4.63-14.26h9.26z" stroke="#3a414a" stroke-width="2" fill="#3a414a"/><path d="M1281 81c0 .55-.45 1-1 1s-1-.45-1-1 .45-1 1-1 1 .45 1 1zm0 7.97c0 .56-.45 1-1 1s-1-.44-1-1c0-.55.45-1 1-1s1 .45 1 1zm0 7.97c0 .56-.45 1-1 1s-1-.44-1-1c0-.55.45-1 1-1s1 .45 1 1zm0 7.98c0 .55-.45 1-1 1s-1-.45-1-1 .45-1 1-1 1 .45 1 1zm0 7.97c0 .54-.45 1-1 1s-1-.46-1-1c0-.56.45-1 1-1s1 .44 1 1zm0 7.96c0 .56-.45 1-1 1s-1-.44-1-1c0-.55.45-1 1-1s1 .45 1 1zm0 7.98c0 .55-.45 1-1 1s-1-.45-1-1c0-.56.45-1 1-1s1 .44 1 1zm0 7.97c0 .56-.45 1-1 1s-1-.44-1-1c0-.54.45-1 1-1s1 .46 1 1zm0 7.98c0 .55-.45 1-1 1s-1-.45-1-1 .45-1 1-1 1 .45 1 1zm0 7.97c0 .56-.45 1-1 1s-1-.44-1-1c0-.55.45-1 1-1s1 .45 1 1zm0 7.98c0 .55-.45 1-1 1s-1-.45-1-1c0-.56.45-1 1-1s1 .44 1 1zm0 7.97c0 .55-.45 1-1 1s-1-.45-1-1 .45-1 1-1 1 .45 1 1zm0 7.97c0 .55-.45 1-1 1s-1-.45-1-1 .45-1 1-1 1 .45 1 1zm0 7.97c0 .56-.45 1-1 1s-1-.44-1-1c0-.55.45-1 1-1s1 .45 1 1zm0 7.98c0 .55-.45 1-1 1s-1-.45-1-1c0-.56.45-1 1-1s1 .44 1 1zm0 7.97c0 .54-.45 1-1 1s-1-.46-1-1c0-.56.45-1 1-1s1 .44 1 1zm0 7.96c0 .56-.45 1-1 1s-1-.44-1-1c0-.55.45-1 1-1s1 .45 1 1zm0 7.97c0 .56-.45 1-1 1s-1-.44-1-1c0-.55.45-1 1-1s1 .45 1 1zm0 7.98c0 .56-.45 1-1 1s-1-.44-1-1c0-.54.45-1 1-1s1 .46 1 1zm0 7.98c0 .55-.45 1-1 1s-1-.45-1-1 .45-1 1-1 1 .45 1 1zm0 7.97c0 .56-.45 1-1 1s-1-.44-1-1c0-.55.45-1 1-1s1 .45 1 1zm0 7.98c0 .55-.45 1-1 1s-1-.45-1-1c0-.56.45-1 1-1s1 .44 1 1zm0 7.97c0 .55-.45 1-1 1s-1-.45-1-1 .45-1 1-1 1 .45 1 1zm0 7.97c0 .55-.45 1-1 1s-1-.45-1-1 .45-1 1-1 1 .45 1 1zm0 7.97c0 .56-.45 1-1 1s-1-.44-1-1c0-.55.45-1 1-1s1 .45 1 1zm0 7.98c0 .55-.45 1-1 1s-1-.45-1-1c0-.56.45-1 1-1s1 .44 1 1zm0 7.97c0 .54-.45 1-1 1s-1-.46-1-1c0-.56.45-1 1-1s1 .44 1 1zm0 7.96c0 .55-.45 1-1 1s-1-.45-1-1 .45-1 1-1 1 .45 1 1zm0 7.97c0 .56-.45 1-1 1s-1-.44-1-1c0-.55.45-1 1-1s1 .45 1 1zm0 7.98c0 .56-.45 1-1 1s-1-.44-1-1c0-.55.45-1 1-1s1 .45 1 1zm0 7.98c0 .55-.45 1-1 1s-1-.45-1-1 .45-1 1-1 1 .45 1 1zm0 7.97c0 .55-.45 1-1 1s-1-.45-1-1 .45-1 1-1 1 .45 1 1zm0 7.97c0 .56-.45 1-1 1s-1-.44-1-1c0-.55.45-1 1-1s1 .45 1 1zm0 7.98c0 .55-.45 1-1 1s-1-.45-1-1c0-.56.45-1 1-1s1 .44 1 1zm0 7.97c0 .55-.45 1-1 1s-1-.45-1-1 .45-1 1-1 1 .45 1 1zm0 7.97c0 .56-.45 1-1 1s-1-.44-1-1c0-.55.45-1 1-1s1 .45 1 1zm0 7.97c0 .57-.45 1-1 1s-1-.43-1-1c0-.54.45-1 1-1s1 .46 1 1zm0 8c0 .54-.45 1-1 1s-1-.46-1-1c0-.56.45-1 1-1s1 .44 1 1zm0 7.96c0 .55-.45 1-1 1s-1-.45-1-1 .45-1 1-1 1 .45 1 1zm0 7.97c0 .56-.45 1-1 1s-1-.44-1-1c0-.55.45-1 1-1s1 .45 1 1zm0 7.98c0 .56-.45 1-1 1s-1-.44-1-1c0-.55.45-1 1-1s1 .45 1 1zm0 7.98c0 .55-.45 1-1 1s-1-.45-1-1 .45-1 1-1 1 .45 1 1zm0 7.97c0 .55-.45 1-1 1s-1-.45-1-1 .45-1 1-1 1 .45 1 1zm0 7.97c0 .56-.45 1-1 1s-1-.44-1-1c0-.55.45-1 1-1s1 .45 1 1zm0 7.98c0 .55-.45 1-1 1s-1-.45-1-1c0-.56.45-1 1-1s1 .44 1 1zm0 7.97c0 .55-.45 1-1 1s-1-.45-1-1 .45-1 1-1 1 .45 1 1zm0 7.97c0 .55-.45 1-1 1s-1-.45-1-1 .45-1 1-1 1 .45 1 1zm0 7.97c0 .57-.45 1-1 1s-1-.43-1-1c0-.54.45-1 1-1s1 .46 1 1zm0 8c0 .54-.45 1-1 1s-1-.46-1-1c0-.57.45-1 1-1s1 .43 1 1zm0 7.96c0 .55-.45 1-1 1s-1-.45-1-1 .45-1 1-1 1 .45 1 1zm0 7.97c0 .55-.45 1-1 1s-1-.45-1-1 .45-1 1-1 1 .45 1 1zm0 7.98c0 .56-.45 1-1 1s-1-.44-1-1c0-.55.45-1 1-1s1 .45 1 1zm0 7.98c0 .55-.45 1-1 1s-1-.45-1-1c0-.56.45-1 1-1s1 .44 1 1zm0 7.97c0 .55-.45 1-1 1s-1-.45-1-1 .45-1 1-1 1 .45 1 1zm0 7.97c0 .56-.45 1-1 1s-1-.44-1-1c0-.55.45-1 1-1s1 .45 1 1zm0 7.98c0 .55-.45 1-1 1s-1-.45-1-1c0-.56.45-1 1-1s1 .44 1 1zm0 7.97c0 .55-.45 1-1 1s-1-.45-1-1 .45-1 1-1 1 .45 1 1zm0 7.97c0 .55-.45 1-1 1s-1-.45-1-1 .45-1 1-1 1 .45 1 1zm0 7.97c0 .57-.45 1-1 1s-1-.43-1-1c0-.54.45-1 1-1s1 .46 1 1zm0 8c0 .54-.45 1-1 1s-1-.46-1-1c0-.57.45-1 1-1s1 .43 1 1zm0 7.96c0 .55-.45 1-1 1s-1-.45-1-1 .45-1 1-1 1 .45 1 1zm0 7.97c0 .55-.45 1-1 1s-1-.45-1-1 .45-1 1-1 1 .45 1 1zm0 7.97c0 .56-.45 1-1 1s-1-.44-1-1c0-.55.45-1 1-1s1 .45 1 1zm0 7.98c0 .55-.45 1-1 1s-1-.45-1-1c0-.56.45-1 1-1s1 .44 1 1zm0 7.97c0 .55-.45 1-1 1s-1-.45-1-1 .45-1 1-1 1 .45 1 1zm0 7.97c0 .55-.45 1-1 1s-1-.45-1-1 .45-1 1-1 1 .45 1 1zm0 7.97c0 .55-.45 1-1 1s-1-.45-1-1c0-.56.45-1 1-1s1 .44 1 1zm0 7.97c0 .55-.45 1-1 1s-1-.45-1-1 .45-1 1-1 1 .45 1 1zm0 7.97c0 .55-.45 1-1 1s-1-.45-1-1 .45-1 1-1 1 .45 1 1zm0 7.97c0 .56-.45 1-1 1s-1-.44-1-1c0-.54.45-1 1-1s1 .46 1 1zm0 8c0 .54-.45 1-1 1s-1-.46-1-1c0-.57.45-1 1-1s1 .43 1 1zm0 7.96c0 .55-.45 1-1 1s-1-.45-1-1 .45-1 1-1 1 .45 1 1zm0 7.97c0 .55-.45 1-1 1s-1-.45-1-1 .45-1 1-1 1 .45 1 1zm0 7.97c0 .55-.45 1-1 1s-1-.45-1-1 .45-1 1-1 1 .45 1 1zm0 7.98c0 .55-.45 1-1 1s-1-.45-1-1c0-.56.45-1 1-1s1 .44 1 1zm0 7.97c0 .55-.45 1-1 1s-1-.45-1-1 .45-1 1-1 1 .45 1 1zm0 7.97c0 .55-.45 1-1 1s-1-.45-1-1 .45-1 1-1 1 .45 1 1zm0 7.97c0 .55-.45 1-1 1s-1-.45-1-1c0-.56.45-1 1-1s1 .44 1 1zm0 7.97c0 .55-.45 1-1 1s-1-.45-1-1c0-.56.45-1 1-1s1 .44 1 1zm0 7.97c0 .55-.45 1-1 1s-1-.45-1-1 .45-1 1-1 1 .45 1 1zm0 7.97c0 .56-.45 1-1 1s-1-.44-1-1c0-.54.45-1 1-1s1 .46 1 1zm0 7.98c0 .56-.45 1-1 1s-1-.44-1-1c0-.55.45-1 1-1s1 .45 1 1zm0 7.98c0 .55-.45 1-1 1s-1-.45-1-1c0-.56.45-1 1-1s1 .44 1 1zm0 7.97c0 .55-.45 1-1 1s-1-.45-1-1 .45-1 1-1 1 .45 1 1zm0 7.97c0 .55-.45 1-1 1s-1-.45-1-1 .45-1 1-1 1 .45 1 1zm0 7.97c0 .56-.45 1-1 1s-1-.44-1-1c0-.55.45-1 1-1s1 .45 1 1zm0 7.98c0 .55-.45 1-1 1s-1-.45-1-1 .45-1 1-1 1 .45 1 1zm0 7.97c0 .55-.45 1-1 1s-1-.45-1-1 .45-1 1-1 1 .45 1 1zm0 7.97c0 .54-.45 1-1 1s-1-.46-1-1c0-.56.45-1 1-1s1 .44 1 1zm0 7.97c0 .55-.45 1-1 1s-1-.45-1-1c0-.56.45-1 1-1s1 .44 1 1zm0 7.97c0 .55-.45 1-1 1s-1-.45-1-1 .45-1 1-1 1 .45 1 1zm0 7.97c0 .56-.45 1-1 1s-1-.44-1-1c0-.54.45-1 1-1s1 .46 1 1zm0 7.98c0 .55-.45 1-1 1s-1-.45-1-1 .45-1 1-1 1 .45 1 1zm0 7.98c0 .55-.45 1-1 1s-1-.45-1-1c0-.56.45-1 1-1s1 .44 1 1zm0 7.97c0 .55-.45 1-1 1s-1-.45-1-1 .45-1 1-1 1 .45 1 1zm0 7.97c0 .55-.45 1-1 1s-1-.45-1-1 .45-1 1-1 1 .45 1 1zm0 7.97c0 .56-.45 1-1 1s-1-.44-1-1c0-.55.45-1 1-1s1 .45 1 1zm0 7.98c0 .55-.45 1-1 1s-1-.45-1-1c0-.56.45-1 1-1s1 .44 1 1zm0 7.97c0 .55-.45 1-1 1s-1-.45-1-1 .45-1 1-1 1 .45 1 1zm0 7.97c0 .54-.45 1-1 1s-1-.46-1-1c0-.56.45-1 1-1s1 .44 1 1zm0 7.96c0 .56-.45 1-1 1s-1-.44-1-1c0-.55.45-1 1-1s1 .45 1 1zm0 7.98c0 .55-.45 1-1 1s-1-.45-1-1c0-.56.45-1 1-1s1 .44 1 1zm0 7.97c0 .56-.45 1-1 1s-1-.44-1-1c0-.54.45-1 1-1s1 .46 1 1zm0 7.98c0 .55-.45 1-1 1s-1-.45-1-1 .45-1 1-1 1 .45 1 1zm0 7.98c0 .55-.45 1-1 1s-1-.45-1-1c0-.56.45-1 1-1s1 .44 1 1zm0 7.97c0 .55-.45 1-1 1s-1-.45-1-1 .45-1 1-1 1 .45 1 1zm0 7.97c0 .55-.45 1-1 1s-1-.45-1-1 .45-1 1-1 1 .45 1 1zm0 7.97c0 .55-.45 1-1 1s-1-.45-1-1 .45-1 1-1 1 .45 1 1zm0 7.97c0 .56-.45 1-1 1s-1-.44-1-1c0-.55.45-1 1-1s1 .45 1 1zm0 7.98c0 .55-.45 1-1 1s-1-.45-1-1 .45-1 1-1 1 .45 1 1zm0 7.97c0 .54-.45 1-1 1s-1-.46-1-1c0-.56.45-1 1-1s1 .44 1 1zm0 7.96c0 .55-.45 1-1 1s-1-.45-1-1 .45-1 1-1 1 .45 1 1zm0 7.98c0 .55-.45 1-1 1s-1-.45-1-1c0-.56.45-1 1-1s1 .44 1 1zm0 7.97c0 .56-.45 1-1 1s-1-.44-1-1c0-.54.45-1 1-1s1 .46 1 1zm0 7.98c0 .55-.45 1-1 1s-1-.45-1-1 .45-1 1-1 1 .45 1 1zm0 7.97c0 .56-.45 1-1 1s-1-.44-1-1c0-.55.45-1 1-1s1 .45 1 1zm0 7.98c0 .55-.45 1-1 1s-1-.45-1-1c0-.56.45-1 1-1s1 .44 1 1zm0 7.97c0 .55-.45 1-1 1s-1-.45-1-1 .45-1 1-1 1 .45 1 1zm0 7.97c0 .55-.45 1-1 1s-1-.45-1-1 .45-1 1-1 1 .45 1 1zm0 7.97c0 .56-.45 1-1 1s-1-.44-1-1c0-.55.45-1 1-1s1 .45 1 1zm0 7.98c0 .55-.45 1-1 1s-1-.45-1-1c0-.56.45-1 1-1s1 .44 1 1zm0 7.97c0 .54-.45 1-1 1s-1-.46-1-1c0-.56.45-1 1-1s1 .44 1 1zm0 7.96c0 .55-.45 1-1 1s-1-.45-1-1 .45-1 1-1 1 .45 1 1zm0 7.97c0 .56-.45 1-1 1s-1-.44-1-1c0-.55.45-1 1-1s1 .45 1 1zm0 7.98c0 .56-.45 1-1 1s-1-.44-1-1c0-.54.45-1 1-1s1 .46 1 1zm0 7.98c0 .55-.45 1-1 1s-1-.45-1-1 .45-1 1-1 1 .45 1 1zm0 7.97c0 .56-.45 1-1 1s-1-.44-1-1c0-.55.45-1 1-1s1 .45 1 1zm0 7.98c0 .55-.45 1-1 1s-1-.45-1-1c0-.56.45-1 1-1s1 .44 1 1zm0 7.97c0 .55-.45 1-1 1s-1-.45-1-1 .45-1 1-1 1 .45 1 1z" fill="#3a414a"/><path d="M1280.97 81.03h-1.94V80h1.94z" stroke="#3a414a" stroke-width=".05" fill="#3a414a"/><path d="M1280 1116.76l-4.63-14.26h9.27z" stroke="#3a414a" stroke-width="2" fill="#3a414a"/><path d="M1601 81c0 .55-.45 1-1 1s-1-.45-1-1 .45-1 1-1 1 .45 1 1zm0 7.97c0 .56-.45 1-1 1s-1-.44-1-1c0-.55.45-1 1-1s1 .45 1 1zm0 7.97c0 .56-.45 1-1 1s-1-.44-1-1c0-.55.45-1 1-1s1 .45 1 1zm0 7.98c0 .55-.45 1-1 1s-1-.45-1-1 .45-1 1-1 1 .45 1 1zm0 7.97c0 .54-.45 1-1 1s-1-.46-1-1c0-.56.45-1 1-1s1 .44 1 1zm0 7.96c0 .56-.45 1-1 1s-1-.44-1-1c0-.55.45-1 1-1s1 .45 1 1zm0 7.98c0 .55-.45 1-1 1s-1-.45-1-1c0-.56.45-1 1-1s1 .44 1 1zm0 7.97c0 .56-.45 1-1 1s-1-.44-1-1c0-.54.45-1 1-1s1 .46 1 1zm0 7.98c0 .55-.45 1-1 1s-1-.45-1-1 .45-1 1-1 1 .45 1 1zm0 7.97c0 .56-.45 1-1 1s-1-.44-1-1c0-.55.45-1 1-1s1 .45 1 1zm0 7.98c0 .55-.45 1-1 1s-1-.45-1-1c0-.56.45-1 1-1s1 .44 1 1zm0 7.97c0 .55-.45 1-1 1s-1-.45-1-1 .45-1 1-1 1 .45 1 1zm0 7.97c0 .55-.45 1-1 1s-1-.45-1-1 .45-1 1-1 1 .45 1 1zm0 7.97c0 .56-.45 1-1 1s-1-.44-1-1c0-.55.45-1 1-1s1 .45 1 1zm0 7.98c0 .55-.45 1-1 1s-1-.45-1-1c0-.56.45-1 1-1s1 .44 1 1zm0 7.97c0 .54-.45 1-1 1s-1-.46-1-1c0-.56.45-1 1-1s1 .44 1 1zm0 7.96c0 .56-.45 1-1 1s-1-.44-1-1c0-.55.45-1 1-1s1 .45 1 1zm0 7.97c0 .56-.45 1-1 1s-1-.44-1-1c0-.55.45-1 1-1s1 .45 1 1zm0 7.98c0 .56-.45 1-1 1s-1-.44-1-1c0-.54.45-1 1-1s1 .46 1 1zm0 7.98c0 .55-.45 1-1 1s-1-.45-1-1 .45-1 1-1 1 .45 1 1zm0 7.97c0 .56-.45 1-1 1s-1-.44-1-1c0-.55.45-1 1-1s1 .45 1 1zm0 7.98c0 .55-.45 1-1 1s-1-.45-1-1c0-.56.45-1 1-1s1 .44 1 1zm0 7.97c0 .55-.45 1-1 1s-1-.45-1-1 .45-1 1-1 1 .45 1 1zm0 7.97c0 .55-.45 1-1 1s-1-.45-1-1 .45-1 1-1 1 .45 1 1zm0 7.97c0 .56-.45 1-1 1s-1-.44-1-1c0-.55.45-1 1-1s1 .45 1 1zm0 7.98c0 .55-.45 1-1 1s-1-.45-1-1c0-.56.45-1 1-1s1 .44 1 1zm0 7.97c0 .54-.45 1-1 1s-1-.46-1-1c0-.56.45-1 1-1s1 .44 1 1zm0 7.96c0 .55-.45 1-1 1s-1-.45-1-1 .45-1 1-1 1 .45 1 1zm0 7.97c0 .56-.45 1-1 1s-1-.44-1-1c0-.55.45-1 1-1s1 .45 1 1zm0 7.98c0 .56-.45 1-1 1s-1-.44-1-1c0-.55.45-1 1-1s1 .45 1 1zm0 7.98c0 .55-.45 1-1 1s-1-.45-1-1 .45-1 1-1 1 .45 1 1zm0 7.97c0 .55-.45 1-1 1s-1-.45-1-1 .45-1 1-1 1 .45 1 1zm0 7.97c0 .56-.45 1-1 1s-1-.44-1-1c0-.55.45-1 1-1s1 .45 1 1zm0 7.98c0 .55-.45 1-1 1s-1-.45-1-1c0-.56.45-1 1-1s1 .44 1 1zm0 7.97c0 .55-.45 1-1 1s-1-.45-1-1 .45-1 1-1 1 .45 1 1zm0 7.97c0 .56-.45 1-1 1s-1-.44-1-1c0-.55.45-1 1-1s1 .45 1 1zm0 7.97c0 .57-.45 1-1 1s-1-.43-1-1c0-.54.45-1 1-1s1 .46 1 1zm0 8c0 .54-.45 1-1 1s-1-.46-1-1c0-.56.45-1 1-1s1 .44 1 1zm0 7.96c0 .55-.45 1-1 1s-1-.45-1-1 .45-1 1-1 1 .45 1 1zm0 7.97c0 .56-.45 1-1 1s-1-.44-1-1c0-.55.45-1 1-1s1 .45 1 1zm0 7.98c0 .56-.45 1-1 1s-1-.44-1-1c0-.55.45-1 1-1s1 .45 1 1zm0 7.98c0 .55-.45 1-1 1s-1-.45-1-1 .45-1 1-1 1 .45 1 1zm0 7.97c0 .55-.45 1-1 1s-1-.45-1-1 .45-1 1-1 1 .45 1 1zm0 7.97c0 .56-.45 1-1 1s-1-.44-1-1c0-.55.45-1 1-1s1 .45 1 1zm0 7.98c0 .55-.45 1-1 1s-1-.45-1-1c0-.56.45-1 1-1s1 .44 1 1zm0 7.97c0 .55-.45 1-1 1s-1-.45-1-1 .45-1 1-1 1 .45 1 1zm0 7.97c0 .55-.45 1-1 1s-1-.45-1-1 .45-1 1-1 1 .45 1 1zm0 7.97c0 .57-.45 1-1 1s-1-.43-1-1c0-.54.45-1 1-1s1 .46 1 1zm0 8c0 .54-.45 1-1 1s-1-.46-1-1c0-.57.45-1 1-1s1 .43 1 1zm0 7.96c0 .55-.45 1-1 1s-1-.45-1-1 .45-1 1-1 1 .45 1 1zm0 7.97c0 .55-.45 1-1 1s-1-.45-1-1 .45-1 1-1 1 .45 1 1zm0 7.98c0 .56-.45 1-1 1s-1-.44-1-1c0-.55.45-1 1-1s1 .45 1 1zm0 7.98c0 .55-.45 1-1 1s-1-.45-1-1c0-.56.45-1 1-1s1 .44 1 1zm0 7.97c0 .55-.45 1-1 1s-1-.45-1-1 .45-1 1-1 1 .45 1 1zm0 7.97c0 .56-.45 1-1 1s-1-.44-1-1c0-.55.45-1 1-1s1 .45 1 1zm0 7.98c0 .55-.45 1-1 1s-1-.45-1-1c0-.56.45-1 1-1s1 .44 1 1zm0 7.97c0 .55-.45 1-1 1s-1-.45-1-1 .45-1 1-1 1 .45 1 1zm0 7.97c0 .55-.45 1-1 1s-1-.45-1-1 .45-1 1-1 1 .45 1 1zm0 7.97c0 .57-.45 1-1 1s-1-.43-1-1c0-.54.45-1 1-1s1 .46 1 1zm0 8c0 .54-.45 1-1 1s-1-.46-1-1c0-.57.45-1 1-1s1 .43 1 1zm0 7.96c0 .55-.45 1-1 1s-1-.45-1-1 .45-1 1-1 1 .45 1 1zm0 7.97c0 .55-.45 1-1 1s-1-.45-1-1 .45-1 1-1 1 .45 1 1zm0 7.97c0 .56-.45 1-1 1s-1-.44-1-1c0-.55.45-1 1-1s1 .45 1 1zm0 7.98c0 .55-.45 1-1 1s-1-.45-1-1c0-.56.45-1 1-1s1 .44 1 1zm0 7.97c0 .55-.45 1-1 1s-1-.45-1-1 .45-1 1-1 1 .45 1 1zm0 7.97c0 .55-.45 1-1 1s-1-.45-1-1 .45-1 1-1 1 .45 1 1zm0 7.97c0 .55-.45 1-1 1s-1-.45-1-1c0-.56.45-1 1-1s1 .44 1 1zm0 7.97c0 .55-.45 1-1 1s-1-.45-1-1 .45-1 1-1 1 .45 1 1zm0 7.97c0 .55-.45 1-1 1s-1-.45-1-1 .45-1 1-1 1 .45 1 1zm0 7.97c0 .56-.45 1-1 1s-1-.44-1-1c0-.54.45-1 1-1s1 .46 1 1zm0 8c0 .54-.45 1-1 1s-1-.46-1-1c0-.57.45-1 1-1s1 .43 1 1zm0 7.96c0 .55-.45 1-1 1s-1-.45-1-1 .45-1 1-1 1 .45 1 1zm0 7.97c0 .55-.45 1-1 1s-1-.45-1-1 .45-1 1-1 1 .45 1 1zm0 7.97c0 .55-.45 1-1 1s-1-.45-1-1 .45-1 1-1 1 .45 1 1zm0 7.98c0 .55-.45 1-1 1s-1-.45-1-1c0-.56.45-1 1-1s1 .44 1 1zm0 7.97c0 .55-.45 1-1 1s-1-.45-1-1 .45-1 1-1 1 .45 1 1zm0 7.97c0 .55-.45 1-1 1s-1-.45-1-1 .45-1 1-1 1 .45 1 1zm0 7.97c0 .55-.45 1-1 1s-1-.45-1-1c0-.56.45-1 1-1s1 .44 1 1zm0 7.97c0 .55-.45 1-1 1s-1-.45-1-1c0-.56.45-1 1-1s1 .44 1 1zm0 7.97c0 .55-.45 1-1 1s-1-.45-1-1 .45-1 1-1 1 .45 1 1zm0 7.97c0 .56-.45 1-1 1s-1-.44-1-1c0-.54.45-1 1-1s1 .46 1 1zm0 7.98c0 .56-.45 1-1 1s-1-.44-1-1c0-.55.45-1 1-1s1 .45 1 1zm0 7.98c0 .55-.45 1-1 1s-1-.45-1-1c0-.56.45-1 1-1s1 .44 1 1zm0 7.97c0 .55-.45 1-1 1s-1-.45-1-1 .45-1 1-1 1 .45 1 1zm0 7.97c0 .55-.45 1-1 1s-1-.45-1-1 .45-1 1-1 1 .45 1 1zm0 7.97c0 .56-.45 1-1 1s-1-.44-1-1c0-.55.45-1 1-1s1 .45 1 1zm0 7.98c0 .55-.45 1-1 1s-1-.45-1-1 .45-1 1-1 1 .45 1 1zm0 7.97c0 .55-.45 1-1 1s-1-.45-1-1 .45-1 1-1 1 .45 1 1zm0 7.97c0 .54-.45 1-1 1s-1-.46-1-1c0-.56.45-1 1-1s1 .44 1 1zm0 7.97c0 .55-.45 1-1 1s-1-.45-1-1c0-.56.45-1 1-1s1 .44 1 1zm0 7.97c0 .55-.45 1-1 1s-1-.45-1-1 .45-1 1-1 1 .45 1 1zm0 7.97c0 .56-.45 1-1 1s-1-.44-1-1c0-.54.45-1 1-1s1 .46 1 1zm0 7.98c0 .55-.45 1-1 1s-1-.45-1-1 .45-1 1-1 1 .45 1 1zm0 7.98c0 .55-.45 1-1 1s-1-.45-1-1c0-.56.45-1 1-1s1 .44 1 1zm0 7.97c0 .55-.45 1-1 1s-1-.45-1-1 .45-1 1-1 1 .45 1 1zm0 7.97c0 .55-.45 1-1 1s-1-.45-1-1 .45-1 1-1 1 .45 1 1zm0 7.97c0 .56-.45 1-1 1s-1-.44-1-1c0-.55.45-1 1-1s1 .45 1 1zm0 7.98c0 .55-.45 1-1 1s-1-.45-1-1c0-.56.45-1 1-1s1 .44 1 1zm0 7.97c0 .55-.45 1-1 1s-1-.45-1-1 .45-1 1-1 1 .45 1 1zm0 7.97c0 .54-.45 1-1 1s-1-.46-1-1c0-.56.45-1 1-1s1 .44 1 1zm0 7.96c0 .56-.45 1-1 1s-1-.44-1-1c0-.55.45-1 1-1s1 .45 1 1zm0 7.98c0 .55-.45 1-1 1s-1-.45-1-1c0-.56.45-1 1-1s1 .44 1 1zm0 7.97c0 .56-.45 1-1 1s-1-.44-1-1c0-.54.45-1 1-1s1 .46 1 1zm0 7.98c0 .55-.45 1-1 1s-1-.45-1-1 .45-1 1-1 1 .45 1 1zm0 7.98c0 .55-.45 1-1 1s-1-.45-1-1c0-.56.45-1 1-1s1 .44 1 1zm0 7.97c0 .55-.45 1-1 1s-1-.45-1-1 .45-1 1-1 1 .45 1 1zm0 7.97c0 .55-.45 1-1 1s-1-.45-1-1 .45-1 1-1 1 .45 1 1zm0 7.97c0 .55-.45 1-1 1s-1-.45-1-1 .45-1 1-1 1 .45 1 1zm0 7.97c0 .56-.45 1-1 1s-1-.44-1-1c0-.55.45-1 1-1s1 .45 1 1zm0 7.98c0 .55-.45 1-1 1s-1-.45-1-1 .45-1 1-1 1 .45 1 1zm0 7.97c0 .54-.45 1-1 1s-1-.46-1-1c0-.56.45-1 1-1s1 .44 1 1zm0 7.96c0 .55-.45 1-1 1s-1-.45-1-1 .45-1 1-1 1 .45 1 1zm0 7.98c0 .55-.45 1-1 1s-1-.45-1-1c0-.56.45-1 1-1s1 .44 1 1zm0 7.97c0 .56-.45 1-1 1s-1-.44-1-1c0-.54.45-1 1-1s1 .46 1 1zm0 7.98c0 .55-.45 1-1 1s-1-.45-1-1 .45-1 1-1 1 .45 1 1zm0 7.97c0 .56-.45 1-1 1s-1-.44-1-1c0-.55.45-1 1-1s1 .45 1 1zm0 7.98c0 .55-.45 1-1 1s-1-.45-1-1c0-.56.45-1 1-1s1 .44 1 1zm0 7.97c0 .55-.45 1-1 1s-1-.45-1-1 .45-1 1-1 1 .45 1 1zm0 7.97c0 .55-.45 1-1 1s-1-.45-1-1 .45-1 1-1 1 .45 1 1zm0 7.97c0 .56-.45 1-1 1s-1-.44-1-1c0-.55.45-1 1-1s1 .45 1 1zm0 7.98c0 .55-.45 1-1 1s-1-.45-1-1c0-.56.45-1 1-1s1 .44 1 1zm0 7.97c0 .54-.45 1-1 1s-1-.46-1-1c0-.56.45-1 1-1s1 .44 1 1zm0 7.96c0 .55-.45 1-1 1s-1-.45-1-1 .45-1 1-1 1 .45 1 1zm0 7.97c0 .56-.45 1-1 1s-1-.44-1-1c0-.55.45-1 1-1s1 .45 1 1zm0 7.98c0 .56-.45 1-1 1s-1-.44-1-1c0-.54.45-1 1-1s1 .46 1 1zm0 7.98c0 .55-.45 1-1 1s-1-.45-1-1 .45-1 1-1 1 .45 1 1zm0 7.97c0 .56-.45 1-1 1s-1-.44-1-1c0-.55.45-1 1-1s1 .45 1 1zm0 7.98c0 .55-.45 1-1 1s-1-.45-1-1c0-.56.45-1 1-1s1 .44 1 1zm0 7.97c0 .55-.45 1-1 1s-1-.45-1-1 .45-1 1-1 1 .45 1 1z" fill="#3a414a"/><path d="M1600.97 81.03h-1.94V80h1.94z" stroke="#3a414a" stroke-width=".05" fill="#3a414a"/><path d="M1600 1116.76l-4.63-14.26h9.27z" stroke="#3a414a" stroke-width="2" fill="#3a414a"/><path d="M680 160c0 22.1-17.9 40-40 40s-40-17.9-40-40 17.9-40 40-40 40 17.9 40 40zM1000 320c0 22.1-17.9 40-40 40s-40-17.9-40-40 17.9-40 40-40 40 17.9 40 40zM680 320c0 22.1-17.9 40-40 40s-40-17.9-40-40 17.9-40 40-40 40 17.9 40 40zM1000 480c0 22.1-17.9 40-40 40s-40-17.9-40-40 17.9-40 40-40 40 17.9 40 40zM1320 640c0 22.1-17.9 40-40 40s-40-17.9-40-40 17.9-40 40-40 40 17.9 40 40zM1320 960c0 22.1-17.9 40-40 40s-40-17.9-40-40 17.9-40 40-40 40 17.9 40 40zM680 960c0 22.1-17.9 40-40 40s-40-17.9-40-40 17.9-40 40-40 40 17.9 40 40zM680 640c0 22.1-17.9 40-40 40s-40-17.9-40-40 17.9-40 40-40 40 17.9 40 40zM680 480c0 22.1-17.9 40-40 40s-40-17.9-40-40 17.9-40 40-40 40 17.9 40 40z" stroke="#3a414a" stroke-width="2" fill="#fff"/><path d="M681.5 320h221.12" stroke="#3a414a" fill="none"/><path d="M681.5 320.48h-.53l.03-.47-.02-.48h.53z" stroke="#3a414a" stroke-width=".05" fill="#3a414a"/><path d="M917.38 320l-14.26 4.63v-9.26z" stroke="#3a414a" fill="#3a414a"/><path d="M960 361.5v61.12" stroke="#3a414a" fill="none"/><path d="M960 361l.48-.02v.53h-.96v-.53z" stroke="#3a414a" stroke-width=".05" fill="#3a414a"/><path d="M960 437.38l-4.63-14.26h9.26z" stroke="#3a414a" fill="#3a414a"/><path d="M918.5 480H697.38" stroke="#3a414a" fill="none"/><path d="M919 480l.02.48h-.53v-.96h.53z" stroke="#3a414a" stroke-width=".05" fill="#3a414a"/><path d="M682.62 480l14.26-4.63v9.26z" stroke="#3a414a" fill="#3a414a"/><path d="M640 521.5v61.12" stroke="#3a414a" fill="none"/><path d="M640 521l.48-.02v.53h-.96v-.53z" stroke="#3a414a" stroke-width=".05" fill="#3a414a"/><path d="M640 597.38l-4.63-14.26h9.26z" stroke="#3a414a" fill="#3a414a"/><path d="M681.5 640h541.1" stroke="#3a414a" fill="none"/><path d="M681.5 640.48h-.53l.03-.47-.02-.48h.53z" stroke="#3a414a" stroke-width=".05" fill="#3a414a"/><path d="M1237.38 640l-14.27 4.63.02-9.26z" stroke="#3a414a" fill="#3a414a"/><path d="M1320 800c0 22.1-17.9 40-40 40s-40-17.9-40-40 17.9-40 40-40 40 17.9 40 40zM1640 800c0 22.1-17.9 40-40 40s-40-17.9-40-40 17.9-40 40-40 40 17.9 40 40z" stroke="#3a414a" stroke-width="2" fill="#fff"/><path d="M1238.5 960H697.4" stroke="#3a414a" fill="none"/><path d="M1239 960l.02.48h-.53v-.96h.53z" stroke="#3a414a" stroke-width=".05" fill="#3a414a"/><path d="M682.62 960l14.26-4.63v9.26z" stroke="#3a414a" fill="#3a414a"/><path d="M520 6a6 6 0 0 1 6-6h228a6 6 0 0 1 6 6v68a6 6 0 0 1-6 6H526a6 6 0 0 1-6-6z" fill="none"/><use xlink:href="#a" transform="matrix(1,0,0,1,520,0) translate(43.54058159722223 48.620876736111114)"/><use xlink:href="#b" transform="matrix(1,0,0,1,520,0) translate(101.60264756944444 48.620876736111114)"/><path d="M840 6a6 6 0 0 1 6-6h228a6 6 0 0 1 6 6v68a6 6 0 0 1-6 6H846a6 6 0 0 1-6-6z" fill="none"/><use xlink:href="#c" transform="matrix(1,0,0,1,840,0) translate(88.49500868055556 48.620876736111114)"/><use xlink:href="#d" transform="matrix(1,0,0,1,840,0) translate(138.798828125 48.620876736111114)"/><path d="M1160 6a6 6 0 0 1 6-6h228a6 6 0 0 1 6 6v68a6 6 0 0 1-6 6h-228a6 6 0 0 1-6-6z" fill="none"/><use xlink:href="#c" transform="matrix(1,0,0,1,1160,0) translate(88.49500868055556 48.620876736111114)"/><use xlink:href="#e" transform="matrix(1,0,0,1,1160,0) translate(138.798828125 48.620876736111114)"/><path d="M1480 6a6 6 0 0 1 6-6h228a6 6 0 0 1 6 6v68a6 6 0 0 1-6 6h-228a6 6 0 0 1-6-6z" fill="none"/><use xlink:href="#f" transform="matrix(1,0,0,1,1480,0) translate(83.02625868055556 48.620876736111114)"/><path d="M1558.5 800h-221.12" stroke="#3a414a" fill="none"/><path d="M1559 800l.02.48h-.53v-.96h.53z" stroke="#3a414a" stroke-width=".05" fill="#3a414a"/><path d="M1322.62 800l14.27-4.63-.02 9.26z" stroke="#3a414a" fill="#3a414a"/><path d="M640 201.5v61.12" stroke="#3a414a" fill="none"/><path d="M640 201l.48-.02v.53h-.96v-.53z" stroke="#3a414a" stroke-width=".05" fill="#3a414a"/><path d="M640 277.38l-4.63-14.26h9.26z" stroke="#3a414a" fill="#3a414a"/><path d="M640 1001.5v102.12" stroke="#3a414a" fill="none"/><path d="M640 1001l.48-.02v.53h-.96v-.53z" stroke="#3a414a" stroke-width=".05" fill="#3a414a"/><path d="M640 1118.38l-4.63-14.26h9.26z" stroke="#3a414a" fill="#3a414a"/><path d="M640 681.5v1.98m0 3.94v3.95m0 3.95v3.95m0 3.95v3.95m0 3.94v3.96m0 3.95v3.96m0 3.95v3.96m0 3.94v3.95m0 3.95v3.95m0 3.95v3.95m0 3.95v3.94m0 3.95v3.94m0 3.95v3.94m0 3.95v3.93m0 3.95v3.95m0 3.95v3.95m0 3.95v3.95m0 3.94v3.95m0 3.95v3.95m0 3.95v3.95m0 3.95v3.94m0 3.96v3.95m0 3.96v3.95m0 3.96v3.95m0 3.95V873m0 3.95v3.95m0 3.95v3.95m0 3.94v3.95m0 3.94v1.98" stroke="#3a414a" fill="none"/><path d="M640 681l.48-.02v.53h-.96v-.53z" stroke="#3a414a" stroke-width=".05" fill="#3a414a"/><path d="M640 917.38l-4.63-14.26h9.26z" stroke="#3a414a" fill="#3a414a"/><path d="M640 361.5v1.9m0 3.83v3.82m0 3.82v3.82m0 3.8v3.83m0 3.82v3.82m0 3.82v3.8m0 3.83v3.82m0 3.82v3.82m0 3.8v1.92" stroke="#3a414a" fill="none"/><path d="M640 361l.48-.02v.53h-.96v-.53z" stroke="#3a414a" stroke-width=".05" fill="#3a414a"/><path d="M640 437.38l-4.63-14.26h9.26z" stroke="#3a414a" fill="#3a414a"/><path d="M1280 681.5v61.12" stroke="#3a414a" fill="none"/><path d="M1280 681l.47-.02v.53h-.94v-.53z" stroke="#3a414a" stroke-width=".05" fill="#3a414a"/><path d="M1280 757.38l-4.63-14.26h9.27z" stroke="#3a414a" fill="#3a414a"/><path d="M1280 841.5v61.12" stroke="#3a414a" fill="none"/><path d="M1280 841l.47-.02v.53h-.94v-.53z" stroke="#3a414a" stroke-width=".05" fill="#3a414a"/><path d="M1280 917.38l-4.63-14.26h9.27z" stroke="#3a414a" fill="#3a414a"/><path d="M320 126a6 6 0 0 1 6-6h228a6 6 0 0 1 6 6v68a6 6 0 0 1-6 6H326a6 6 0 0 1-6-6z" fill="none"/><use xlink:href="#g" transform="matrix(1,0,0,1,320,120) translate(71.04817708333334 48.620876736111114)"/><use xlink:href="#h" transform="matrix(1,0,0,1,320,120) translate(171.67751736111111 48.620876736111114)"/><path d="M560.5 160h38" stroke="#3a414a" fill="none"/><path d="M560.5 160.47h-.5v-.94h.5zM599 160l.02.47h-.53v-.94h.53z" stroke="#3a414a" stroke-width=".05" fill="#3a414a"/><path d="M320 286a6 6 0 0 1 6-6h228a6 6 0 0 1 6 6v68a6 6 0 0 1-6 6H326a6 6 0 0 1-6-6z" fill="none"/><use xlink:href="#c" transform="matrix(1,0,0,1,320,280) translate(80.09765625 48.620876736111114)"/><use xlink:href="#i" transform="matrix(1,0,0,1,320,280) translate(130.40147569444446 48.620876736111114)"/><use xlink:href="#j" transform="matrix(1,0,0,1,320,280) translate(148.88020833333331 48.620876736111114)"/><path d="M320 446a6 6 0 0 1 6-6h228a6 6 0 0 1 6 6v68a6 6 0 0 1-6 6H326a6 6 0 0 1-6-6z" fill="none"/><use xlink:href="#g" transform="matrix(1,0,0,1,320,440) translate(40.2973090277778 48.620876736111114)"/><use xlink:href="#k" transform="matrix(1,0,0,1,320,440) translate(140.92664930555557 48.620876736111114)"/><path d="M560.5 320h39" stroke="#3a414a" fill="none"/><path d="M560.5 320.48h-.5v-.96h.5z" stroke="#3a414a" stroke-width=".05" fill="#3a414a"/><path d="M599.5 320h.5" stroke="#3a414a" fill="none"/><path d="M1040 286a6 6 0 0 1 6-6h188a6 6 0 0 1 6 6v68a6 6 0 0 1-6 6h-188a6 6 0 0 1-6-6z" fill="none"/><use xlink:href="#c" transform="matrix(1,0,0,1,1040,280) translate(10 48.620876736111114)"/><use xlink:href="#i" transform="matrix(1,0,0,1,1040,280) translate(60.30381944444444 48.620876736111114)"/><use xlink:href="#h" transform="matrix(1,0,0,1,1040,280) translate(78.78255208333333 48.620876736111114)"/><path d="M1039.5 320h-38" stroke="#3a414a" fill="none"/><path d="M1040 320.48h-.5v-.96h.5zM1001.5 320.48h-.53l.03-.47-.02-.48h.53z" stroke="#3a414a" stroke-width=".05" fill="#3a414a"/><path d="M1040 446a6 6 0 0 1 6-6h188a6 6 0 0 1 6 6v68a6 6 0 0 1-6 6h-188a6 6 0 0 1-6-6z" fill="none"/><use xlink:href="#c" transform="matrix(1,0,0,1,1040,440) translate(10 48.620876736111114)"/><use xlink:href="#i" transform="matrix(1,0,0,1,1040,440) translate(60.30381944444444 48.620876736111114)"/><use xlink:href="#l" transform="matrix(1,0,0,1,1040,440) translate(78.78255208333333 48.620876736111114)"/><path d="M1039.5 480h-38" stroke="#3a414a" fill="none"/><path d="M1040 480.48h-.5v-.96h.5zM1001.5 480.48h-.53l.03-.47-.02-.48h.53z" stroke="#3a414a" stroke-width=".05" fill="#3a414a"/><path d="M560.5 480h38" stroke="#3a414a" fill="none"/><path d="M560.5 480.48h-.5v-.96h.5zM599 480l.02.48h-.53v-.96h.53z" stroke="#3a414a" stroke-width=".05" fill="#3a414a"/><path d="M320 366a6 6 0 0 1 6-6h228a6 6 0 0 1 6 6v68a6 6 0 0 1-6 6H326a6 6 0 0 1-6-6z" fill="none"/><use xlink:href="#g" transform="matrix(1,0,0,1,320.00000000000006,360.00000000000006) translate(15.1019965277778 48.620876736111114)"/><use xlink:href="#m" transform="matrix(1,0,0,1,320.00000000000006,360.00000000000006) translate(115.73133680555557 48.620876736111114)"/><path d="M560.5 400h79" stroke="#3a414a" fill="none"/><path d="M560.5 400.48h-.5v-.96h.5z" stroke="#3a414a" stroke-width=".05" fill="#3a414a"/><path d="M639.5 400h.5" stroke="#3a414a" fill="none"/><path d="M320 766a6 6 0 0 1 6-6h228a6 6 0 0 1 6 6v68a6 6 0 0 1-6 6H326a6 6 0 0 1-6-6z" fill="none"/><use xlink:href="#g" transform="matrix(1,0,0,1,320.00000000000006,760) translate(15.1019965277778 48.620876736111114)"/><use xlink:href="#m" transform="matrix(1,0,0,1,320.00000000000006,760) translate(115.73133680555557 48.620876736111114)"/><path d="M560.5 800h79" stroke="#3a414a" fill="none"/><path d="M560.5 800.48h-.5v-.96h.5z" stroke="#3a414a" stroke-width=".05" fill="#3a414a"/><path d="M639.5 800h.5" stroke="#3a414a" fill="none"/><path d="M320 606a6 6 0 0 1 6-6h228a6 6 0 0 1 6 6v68a6 6 0 0 1-6 6H326a6 6 0 0 1-6-6z" fill="none"/><use xlink:href="#c" transform="matrix(1,0,0,1,320,600) translate(80.09765625 48.620876736111114)"/><use xlink:href="#n" transform="matrix(1,0,0,1,320,600) translate(130.40147569444446 48.620876736111114)"/><use xlink:href="#j" transform="matrix(1,0,0,1,320,600) translate(148.88020833333331 48.620876736111114)"/><path d="M1360 606a6 6 0 0 1 6-6h188a6 6 0 0 1 6 6v68a6 6 0 0 1-6 6h-188a6 6 0 0 1-6-6z" fill="none"/><use xlink:href="#c" transform="matrix(1,0,0,1,1360,600) translate(10 48.620876736111114)"/><use xlink:href="#n" transform="matrix(1,0,0,1,1360,600) translate(60.30381944444444 48.620876736111114)"/><use xlink:href="#h" transform="matrix(1,0,0,1,1360,600) translate(78.78255208333333 48.620876736111114)"/><path d="M960 766a6 6 0 0 1 6-6h228a6 6 0 0 1 6 6v68a6 6 0 0 1-6 6H966a6 6 0 0 1-6-6z" fill="none"/><use xlink:href="#c" transform="matrix(1,0,0,1,960,760) translate(68.43315972222223 48.620876736111114)"/><use xlink:href="#n" transform="matrix(1,0,0,1,960,760) translate(118.73697916666667 48.620876736111114)"/><use xlink:href="#o" transform="matrix(1,0,0,1,960,760) translate(137.21571180555554 48.620876736111114)"/><path d="M1680 766a6 6 0 0 1 6-6h188a6 6 0 0 1 6 6v68a6 6 0 0 1-6 6h-188a6 6 0 0 1-6-6z" fill="none"/><g><use xlink:href="#p" transform="matrix(1,0,0,1,1680,760) translate(10 48.620876736111114)"/><use xlink:href="#q" transform="matrix(1,0,0,1,1680,760) translate(89.72005208333333 48.620876736111114)"/></g><path d="M1679.5 800h-38" stroke="#3a414a" fill="none"/><path d="M1680 800.48h-.5v-.96h.5zM1641.5 800.48h-.53l.03-.47-.02-.48h.53z" stroke="#3a414a" stroke-width=".05" fill="#3a414a"/><path d="M1360 926a6 6 0 0 1 6-6h188a6 6 0 0 1 6 6v68a6 6 0 0 1-6 6h-188a6 6 0 0 1-6-6z" fill="none"/><g><use xlink:href="#c" transform="matrix(1,0,0,1,1360,920) translate(10 48.620876736111114)"/><use xlink:href="#n" transform="matrix(1,0,0,1,1360,920) translate(60.30381944444444 48.620876736111114)"/><use xlink:href="#l" transform="matrix(1,0,0,1,1360,920) translate(78.78255208333333 48.620876736111114)"/></g><path d="M1359.5 960h-38" stroke="#3a414a" fill="none"/><path d="M1360 960.48h-.5v-.96h.5zM1321.5 960.48h-.53l.03-.47-.02-.48h.53z" stroke="#3a414a" stroke-width=".05" fill="#3a414a"/><path d="M1200.5 800h38" stroke="#3a414a" fill="none"/><path d="M1200.5 800.48h-.5v-.96h.5zM1239 800l.02.48h-.53v-.96h.53z" stroke="#3a414a" stroke-width=".05" fill="#3a414a"/><path d="M320 926a6 6 0 0 1 6-6h228a6 6 0 0 1 6 6v68a6 6 0 0 1-6 6H326a6 6 0 0 1-6-6z" fill="none"/><g><use xlink:href="#g" transform="matrix(1,0,0,1,320.00000000000006,920) translate(40.2973090277778 48.620876736111114)"/><use xlink:href="#k" transform="matrix(1,0,0,1,320.00000000000006,920) translate(140.92664930555557 48.620876736111114)"/></g><path d="M560.5 960h38" stroke="#3a414a" fill="none"/><path d="M560.5 960.48h-.5v-.96h.5zM599 960l.02.48h-.53v-.96h.53z" stroke="#3a414a" stroke-width=".05" fill="#3a414a"/><defs><path d="M1368-1116c259 2 372 131 371 401V0h-166v-713c0-168-66-262-230-262-221 0-303 131-303 363V0H874v-713c-1-169-66-262-231-262-235 0-301 142-301 400V0H176v-1096h135l27 150h8c56-99 174-170 324-170 171 0 283 62 336 186h8c60-108 189-187 354-186" id="r"/><path d="M588-1114c260 0 384 106 385 366V0H850l-33-156h-8C708-34 639 17 442 20 231 23 94-94 94-303c0-221 177-337 531-348l186-6c11-203-40-320-233-320-91 0-195 28-310 84l-51-127c97-53 229-94 371-94zM268-301c-1 123 81 184 207 184 203 0 334-120 332-323v-99c-257 14-539-7-539 238" id="s"/><path d="M342 0H176v-1096h166V0zm-82-1282c-61 0-98-43-98-111 0-69 36-110 98-110 59 0 98 43 98 110s-39 111-98 111" id="t"/><path d="M694-1116c270 0 399 125 398 401V0H926v-709c-1-177-76-266-252-266-250 0-332 133-332 400V0H176v-1096h135l27 150h8c62-101 190-170 348-170" id="u"/><g id="a"><use transform="matrix(0.010850694444444444,0,0,0.010850694444444444,0,0)" xlink:href="#r"/><use transform="matrix(0.010850694444444444,0,0,0.010850694444444444,20.670572916666664,0)" xlink:href="#s"/><use transform="matrix(0.010850694444444444,0,0,0.010850694444444444,33.029513888888886,0)" xlink:href="#t"/><use transform="matrix(0.010850694444444444,0,0,0.010850694444444444,38.65017361111111,0)" xlink:href="#u"/></g><path d="M1169-178c39-215 75-309 230-918h172L1268 0h-197c-99-332-184-548-272-911h-8C712-564 610-319 514 0H322L23-1096h174c71 275 124 485 161 629s59 241 64 291h8c76-328 186-611 279-920h180l196 629c37 115 63 211 76 289h8" id="v"/><path d="M621-1116c316 0 501 239 501 567 0 339-180 575-508 569S119-212 115-549c-4-339 178-567 506-567zm-5 141c-239 0-329 168-329 426 0 255 93 430 331 430s332-174 332-430-95-426-334-426" id="w"/><path d="M340-893c80-153 237-262 467-211l-23 154c-45-10-85-15-120-15-184-3-322 182-322 377V0H176v-1096h137l19 203h8" id="x"/><path d="M340-561c134-179 332-366 485-535h197L578-629 1053 0H852L465-518 340-410V0H176v-1556h164c-4 336 9 669-8 995h8" id="y"/><path d="M575-1430c-169 0-190 146-184 334h279v129H391V0H225v-967H29v-75l196-60c-15-299 97-465 353-465 58 0 126 12 204 35l-43 133c-64-21-119-31-164-31" id="z"/><path d="M342 0H176v-1556h166V0" id="A"/><g id="b"><use transform="matrix(0.010850694444444444,0,0,0.010850694444444444,0,0)" xlink:href="#v"/><use transform="matrix(0.010850694444444444,0,0,0.010850694444444444,17.28515625,0)" xlink:href="#w"/><use transform="matrix(0.010850694444444444,0,0,0.010850694444444444,30.707465277777775,0)" xlink:href="#x"/><use transform="matrix(0.010850694444444444,0,0,0.010850694444444444,39.778645833333336,0)" xlink:href="#y"/><use transform="matrix(0.010850694444444444,0,0,0.010850694444444444,51.44314236111112,0)" xlink:href="#z"/><use transform="matrix(0.010850694444444444,0,0,0.010850694444444444,58.97352430555555,0)" xlink:href="#A"/><use transform="matrix(0.010850694444444444,0,0,0.010850694444444444,64.59418402777779,0)" xlink:href="#w"/><use transform="matrix(0.010850694444444444,0,0,0.010850694444444444,77.57161458333333,0)" xlink:href="#v"/></g><path d="M502-977c-130 0-238 32-238 139 0 75 39 101 95 134 33 19 97 46 192 81 130 48 217 95 263 143s69 108 69 181C883-73 695 20 449 20 304 20 190-3 109-49v-154c91 47 216 86 344 86 149 0 270-36 270-168 0-43-21-76-55-109-56-55-367-158-434-208-74-55-128-109-128-225 0-327 490-342 754-217l-59 135c-110-45-210-68-299-68" id="B"/><path d="M354-322c-2 123 60 204 176 205 51 1 114-10 150-20v127C647 7 557 20 506 20 294 20 188-92 188-315v-652H31v-80l157-69 70-234h96v254h318v129H354v645" id="C"/><path d="M995-51C878-2 799 19 639 20c-329 2-524-221-524-559 0-326 172-577 481-577 278 0 451 210 446 493v105H287c4 242 121 392 358 393 118 0 235-25 350-74v148zM864-653c2-195-85-324-270-324-190 0-288 139-303 324h573" id="D"/><path d="M1141-549c0 329-147 569-455 569-159 0-273-61-344-161h-12c23 199 7 418 12 633H176v-1588h135l23 150h8c77-108 175-170 344-170 311 0 455 237 455 567zm-172-2c0-242-88-424-307-424-256 0-323 154-320 426 3 280 68 430 324 430 213 0 303-196 303-432" id="E"/><g id="c"><use transform="matrix(0.010850694444444444,0,0,0.010850694444444444,0,0)" xlink:href="#B"/><use transform="matrix(0.010850694444444444,0,0,0.010850694444444444,10.601128472222221,0)" xlink:href="#C"/><use transform="matrix(0.010850694444444444,0,0,0.010850694444444444,18.446180555555554,0)" xlink:href="#D"/><use transform="matrix(0.010850694444444444,0,0,0.010850694444444444,30.91362847222222,0)" xlink:href="#E"/></g><path d="M715 0H553c4-427-9-874 8-1288-79 77-94 81-285 239l-88-114 387-299h140V0" id="F"/><use transform="matrix(0.010850694444444444,0,0,0.010850694444444444,0,0)" xlink:href="#F" id="d"/><path d="M559-1483c258 0 441 142 440 389 0 93-26 184-78 275-109 192-433 475-612 657v8h752V0H100v-143c177-182 479-462 617-641 67-87 110-168 112-303 2-158-106-258-268-254-165 4-240 52-354 139l-88-113c135-112 281-168 440-168" id="G"/><use transform="matrix(0.010850694444444444,0,0,0.010850694444444444,0,0)" xlink:href="#G" id="e"/><path d="M690-1114c271 2 402 123 402 399V0H926v-709c-1-177-76-266-252-266-251 0-332 135-332 402V0H176v-1556h166c-4 200 8 426-8 612h10c61-100 187-171 346-170" id="H"/><path d="M563 20c-271 0-399-123-399-399v-717h168v711c1 177 76 266 252 266 250 0 331-135 331-401v-576h166V0H944l-24-147h-9C848-44 724 20 563 20" id="I"/><g id="f"><use transform="matrix(0.010850694444444444,0,0,0.010850694444444444,0,0)" xlink:href="#H"/><use transform="matrix(0.010850694444444444,0,0,0.010850694444444444,13.639322916666666,0)" xlink:href="#I"/><use transform="matrix(0.010850694444444444,0,0,0.010850694444444444,27.278645833333332,0)" xlink:href="#r"/><use transform="matrix(0.010850694444444444,0,0,0.010850694444444444,47.94921875,0)" xlink:href="#s"/><use transform="matrix(0.010850694444444444,0,0,0.010850694444444444,60.30815972222222,0)" xlink:href="#u"/></g><g id="g"><use transform="matrix(0.010850694444444444,0,0,0.010850694444444444,0,0)" xlink:href="#v"/><use transform="matrix(0.010850694444444444,0,0,0.010850694444444444,17.28515625,0)" xlink:href="#w"/><use transform="matrix(0.010850694444444444,0,0,0.010850694444444444,30.707465277777775,0)" xlink:href="#x"/><use transform="matrix(0.010850694444444444,0,0,0.010850694444444444,39.778645833333336,0)" xlink:href="#y"/><use transform="matrix(0.010850694444444444,0,0,0.010850694444444444,51.44314236111112,0)" xlink:href="#z"/><use transform="matrix(0.010850694444444444,0,0,0.010850694444444444,58.97352430555555,0)" xlink:href="#A"/><use transform="matrix(0.010850694444444444,0,0,0.010850694444444444,64.59418402777779,0)" xlink:href="#w"/><use transform="matrix(0.010850694444444444,0,0,0.010850694444444444,77.57161458333333,0)" xlink:href="#v"/></g><g id="h"><use transform="matrix(0.010850694444444444,0,0,0.010850694444444444,0,0)" xlink:href="#B"/><use transform="matrix(0.010850694444444444,0,0,0.010850694444444444,10.601128472222221,0)" xlink:href="#C"/><use transform="matrix(0.010850694444444444,0,0,0.010850694444444444,18.446180555555554,0)" xlink:href="#s"/><use transform="matrix(0.010850694444444444,0,0,0.010850694444444444,30.805121527777775,0)" xlink:href="#x"/><use transform="matrix(0.010850694444444444,0,0,0.010850694444444444,39.87630208333333,0)" xlink:href="#C"/><use transform="matrix(0.010850694444444444,0,0,0.010850694444444444,47.721354166666664,0)" xlink:href="#B"/></g><use transform="matrix(0.010850694444444444,0,0,0.010850694444444444,0,0)" xlink:href="#F" id="i"/><path d="M516-150c94-315 146-423 332-946h178L610 0H416L0-1096h178c98 281 253 670 330 946h8" id="J"/><path d="M115-545c0-330 146-571 454-571 149 0 263 54 342 162h13c-20-185-8-401-11-602h166V0H944l-22-147h-9C836-36 722 20 569 20c-309 0-454-234-454-565zm172 2c0 249 78 424 303 424 257 0 327-150 323-426-4-282-68-432-325-432-220 0-301 191-301 434" id="K"/><g id="j"><use transform="matrix(0.010850694444444444,0,0,0.010850694444444444,0,0)" xlink:href="#t"/><use transform="matrix(0.010850694444444444,0,0,0.010850694444444444,5.620659722222222,0)" xlink:href="#u"/><use transform="matrix(0.010850694444444444,0,0,0.010850694444444444,19.25998263888889,0)" xlink:href="#J"/><use transform="matrix(0.010850694444444444,0,0,0.010850694444444444,30.39279513888889,0)" xlink:href="#w"/><use transform="matrix(0.010850694444444444,0,0,0.010850694444444444,43.815104166666664,0)" xlink:href="#y"/><use transform="matrix(0.010850694444444444,0,0,0.010850694444444444,55.03472222222222,0)" xlink:href="#D"/><use transform="matrix(0.010850694444444444,0,0,0.010850694444444444,67.50217013888889,0)" xlink:href="#K"/></g><g id="k"><use transform="matrix(0.010850694444444444,0,0,0.010850694444444444,0,0)" xlink:href="#x"/><use transform="matrix(0.010850694444444444,0,0,0.010850694444444444,8.626302083333334,0)" xlink:href="#D"/><use transform="matrix(0.010850694444444444,0,0,0.010850694444444444,21.09375,0)" xlink:href="#B"/><use transform="matrix(0.010850694444444444,0,0,0.010850694444444444,31.69487847222222,0)" xlink:href="#I"/><use transform="matrix(0.010850694444444444,0,0,0.010850694444444444,45.334201388888886,0)" xlink:href="#r"/><use transform="matrix(0.010850694444444444,0,0,0.010850694444444444,66.00477430555554,0)" xlink:href="#D"/><use transform="matrix(0.010850694444444444,0,0,0.010850694444444444,78.47222222222221,0)" xlink:href="#B"/></g><path d="M287-543c-1 247 91 418 323 418 91 0 185-20 281-59v147C818 1 725 20 614 20c-329 0-499-221-499-561 0-349 172-575 510-575 96 0 221 26 282 57l-51 141c-61-25-157-50-235-51-223 0-334 142-334 426" id="L"/><g id="l"><use transform="matrix(0.010850694444444444,0,0,0.010850694444444444,0,0)" xlink:href="#L"/><use transform="matrix(0.010850694444444444,0,0,0.010850694444444444,10.579427083333332,0)" xlink:href="#w"/><use transform="matrix(0.010850694444444444,0,0,0.010850694444444444,24.001736111111104,0)" xlink:href="#r"/><use transform="matrix(0.010850694444444444,0,0,0.010850694444444444,44.67230902777778,0)" xlink:href="#E"/><use transform="matrix(0.010850694444444444,0,0,0.010850694444444444,58.28993055555555,0)" xlink:href="#A"/><use transform="matrix(0.010850694444444444,0,0,0.010850694444444444,63.91059027777778,0)" xlink:href="#D"/><use transform="matrix(0.010850694444444444,0,0,0.010850694444444444,76.37803819444444,0)" xlink:href="#C"/><use transform="matrix(0.010850694444444444,0,0,0.010850694444444444,84.22309027777777,0)" xlink:href="#D"/><use transform="matrix(0.010850694444444444,0,0,0.010850694444444444,96.69053819444444,0)" xlink:href="#B"/></g><g id="m"><use transform="matrix(0.010850694444444444,0,0,0.010850694444444444,0,0)" xlink:href="#B"/><use transform="matrix(0.010850694444444444,0,0,0.010850694444444444,10.601128472222221,0)" xlink:href="#I"/><use transform="matrix(0.010850694444444444,0,0,0.010850694444444444,24.24045138888889,0)" xlink:href="#B"/><use transform="matrix(0.010850694444444444,0,0,0.010850694444444444,34.84157986111111,0)" xlink:href="#E"/><use transform="matrix(0.010850694444444444,0,0,0.010850694444444444,48.459201388888886,0)" xlink:href="#D"/><use transform="matrix(0.010850694444444444,0,0,0.010850694444444444,60.92664930555555,0)" xlink:href="#u"/><use transform="matrix(0.010850694444444444,0,0,0.010850694444444444,74.56597222222221,0)" xlink:href="#K"/><use transform="matrix(0.010850694444444444,0,0,0.010850694444444444,88.18359374999999,0)" xlink:href="#D"/><use transform="matrix(0.010850694444444444,0,0,0.010850694444444444,100.65104166666666,0)" xlink:href="#K"/></g><use transform="matrix(0.010850694444444444,0,0,0.010850694444444444,0,0)" xlink:href="#G" id="n"/><path d="M686 20c-159 0-273-61-344-161h-12L295 0H176v-1556h166c-2 198 6 423-8 606h8c77-109 192-164 344-164 310 0 455 234 455 565 0 329-147 569-455 569zm283-571c0-257-72-424-307-424-256 0-320 146-320 426s68 430 324 430c228 0 303-184 303-432" id="M"/><g id="o"><use transform="matrix(0.010850694444444444,0,0,0.010850694444444444,0,0)" xlink:href="#I"/><use transform="matrix(0.010850694444444444,0,0,0.010850694444444444,13.639322916666666,0)" xlink:href="#u"/><use transform="matrix(0.010850694444444444,0,0,0.010850694444444444,27.278645833333332,0)" xlink:href="#M"/><use transform="matrix(0.010850694444444444,0,0,0.010850694444444444,40.89626736111111,0)" xlink:href="#A"/><use transform="matrix(0.010850694444444444,0,0,0.010850694444444444,46.51692708333333,0)" xlink:href="#w"/><use transform="matrix(0.010850694444444444,0,0,0.010850694444444444,59.93923611111111,0)" xlink:href="#L"/><use transform="matrix(0.010850694444444444,0,0,0.010850694444444444,70.51866319444444,0)" xlink:href="#y"/><use transform="matrix(0.010850694444444444,0,0,0.010850694444444444,82.18315972222221,0)" xlink:href="#B"/></g><g id="p"><use transform="matrix(0.010850694444444444,0,0,0.010850694444444444,0,0)" xlink:href="#H"/><use transform="matrix(0.010850694444444444,0,0,0.010850694444444444,13.639322916666666,0)" xlink:href="#I"/><use transform="matrix(0.010850694444444444,0,0,0.010850694444444444,27.278645833333332,0)" xlink:href="#r"/><use transform="matrix(0.010850694444444444,0,0,0.010850694444444444,47.94921875,0)" xlink:href="#s"/><use transform="matrix(0.010850694444444444,0,0,0.010850694444444444,60.30815972222222,0)" xlink:href="#u"/></g><g id="q"><use transform="matrix(0.010850694444444444,0,0,0.010850694444444444,0,0)" xlink:href="#t"/><use transform="matrix(0.010850694444444444,0,0,0.010850694444444444,5.620659722222222,0)" xlink:href="#u"/><use transform="matrix(0.010850694444444444,0,0,0.010850694444444444,19.25998263888889,0)" xlink:href="#E"/><use transform="matrix(0.010850694444444444,0,0,0.010850694444444444,32.877604166666664,0)" xlink:href="#I"/><use transform="matrix(0.010850694444444444,0,0,0.010850694444444444,46.51692708333333,0)" xlink:href="#C"/></g></defs></g></svg>