<svg xmlns="http://www.w3.org/2000/svg" xmlns:xlink="http://www.w3.org/1999/xlink" xmlns:lucid="lucid" width="1801" height="401.5"><g transform="translate(-779.5 -259)" lucid:page-tab-id="0_0"><path d="M500 0h2500v1000H500z" fill="#fff"/><path d="M800 486a6 6 0 0 1 6-6h148a6 6 0 0 1 6 6v148a6 6 0 0 1-6 6H806a6 6 0 0 1-6-6z" stroke="#3a414a" fill="#fff"/><path d="M1120 486a6 6 0 0 1 6-6h148a6 6 0 0 1 6 6v148a6 6 0 0 1-6 6h-148a6 6 0 0 1-6-6z" stroke="#3a414a" fill="#3a414a"/><path d="M1440 486a6 6 0 0 1 6-6h148a6 6 0 0 1 6 6v148a6 6 0 0 1-6 6h-148a6 6 0 0 1-6-6zM1760 486a6 6 0 0 1 6-6h148a6 6 0 0 1 6 6v148a6 6 0 0 1-6 6h-148a6 6 0 0 1-6-6z" stroke="#3a414a" fill="#fff"/><path d="M2080 486a6 6 0 0 1 6-6h148a6 6 0 0 1 6 6v148a6 6 0 0 1-6 6h-148a6 6 0 0 1-6-6z" stroke="#3a414a" fill="#3a414a"/><path d="M2400 486a6 6 0 0 1 6-6h148a6 6 0 0 1 6 6v148a6 6 0 0 1-6 6h-148a6 6 0 0 1-6-6z" stroke="#3a414a" fill="#fff"/><path d="M960 286a6 6 0 0 1 6-6h468a6 6 0 0 1 6 6v68a6 6 0 0 1-6 6H966a6 6 0 0 1-6-6z" stroke="#000" stroke-opacity="0" stroke-width="2" fill="#fff" fill-opacity="0"/><use xlink:href="#a" transform="matrix(1,0,0,1,965,285) translate(57.46907552083337 48.94075520833332)"/><use xlink:href="#b" transform="matrix(1,0,0,1,965,285) translate(227.91178385416666 48.94075520833332)"/><path d="M1920 286a6 6 0 0 1 6-6h468a6 6 0 0 1 6 6v68a6 6 0 0 1-6 6h-468a6 6 0 0 1-6-6z" stroke="#000" stroke-opacity="0" stroke-width="2" fill="#fff" fill-opacity="0"/><use xlink:href="#c" transform="matrix(1,0,0,1,1925,285) translate(95.48177083333337 48.94075520833332)"/><use xlink:href="#b" transform="matrix(1,0,0,1,1925,285) translate(189.89908854166669 48.94075520833332)"/><path d="M961 560h142.12" stroke="#3a414a" fill="none"/><path d="M961 560.48h-.5v-.96h.5z" stroke="#3a414a" stroke-width=".05" fill="#3a414a"/><path d="M1117.88 560l-14.26 4.63v-9.26z" stroke="#3a414a" fill="#3a414a"/><path d="M1281 560h142.12" stroke="#3a414a" fill="none"/><path d="M1281 560.48h-.5v-.96h.5z" stroke="#3a414a" stroke-width=".05" fill="#3a414a"/><path d="M1437.88 560l-14.26 4.63v-9.26z" stroke="#3a414a" fill="#3a414a"/><path d="M1936.88 560H2079" stroke="#3a414a" fill="none"/><path d="M1922.12 560l14.26-4.63v9.26z" stroke="#3a414a" fill="#3a414a"/><path d="M2079.5 560.48h-.5v-.96h.5z" stroke="#3a414a" stroke-width=".05" fill="#3a414a"/><path d="M2256.88 560H2399" stroke="#3a414a" fill="none"/><path d="M2242.12 560l14.26-4.63v9.26z" stroke="#3a414a" fill="#3a414a"/><path d="M2399.5 560.48h-.5v-.96h.5z" stroke="#3a414a" stroke-width=".05" fill="#3a414a"/><defs><path fill="#3a414a" d="M201 0v-1462h170V0H201" id="d"/><path fill="#3a414a" d="M694-1116c270 0 399 125 398 401V0H926v-709c-1-177-76-266-252-266-250 0-332 133-332 400V0H176v-1096h135l27 150h8c62-101 190-170 348-170" id="e"/><path fill="#3a414a" d="M516-150c94-315 146-423 332-946h178L610 0H416L0-1096h178c98 281 253 670 330 946h8" id="f"/><path fill="#3a414a" d="M621-1116c316 0 501 239 501 567 0 339-180 575-508 569S119-212 115-549c-4-339 178-567 506-567zm-5 141c-239 0-329 168-329 426 0 255 93 430 331 430s332-174 332-430-95-426-334-426" id="g"/><path fill="#3a414a" d="M287-543c-1 247 91 418 323 418 91 0 185-20 281-59v147C818 1 725 20 614 20c-329 0-499-221-499-561 0-349 172-575 510-575 96 0 221 26 282 57l-51 141c-61-25-157-50-235-51-223 0-334 142-334 426" id="h"/><path fill="#3a414a" d="M588-1114c260 0 384 106 385 366V0H850l-33-156h-8C708-34 639 17 442 20 231 23 94-94 94-303c0-221 177-337 531-348l186-6c11-203-40-320-233-320-91 0-195 28-310 84l-51-127c97-53 229-94 371-94zM268-301c-1 123 81 184 207 184 203 0 334-120 332-323v-99c-257 14-539-7-539 238" id="i"/><path fill="#3a414a" d="M354-322c-2 123 60 204 176 205 51 1 114-10 150-20v127C647 7 557 20 506 20 294 20 188-92 188-315v-652H31v-80l157-69 70-234h96v254h318v129H354v645" id="j"/><path fill="#3a414a" d="M342 0H176v-1096h166V0zm-82-1282c-61 0-98-43-98-111 0-69 36-110 98-110 59 0 98 43 98 110s-39 111-98 111" id="k"/><g id="a"><use transform="matrix(0.01627604166666666,0,0,0.01627604166666666,0,0)" xlink:href="#d"/><use transform="matrix(0.01627604166666666,0,0,0.01627604166666666,9.293619791666663,0)" xlink:href="#e"/><use transform="matrix(0.01627604166666666,0,0,0.01627604166666666,29.752604166666657,0)" xlink:href="#f"/><use transform="matrix(0.01627604166666666,0,0,0.01627604166666666,46.45182291666665,0)" xlink:href="#g"/><use transform="matrix(0.01627604166666666,0,0,0.01627604166666666,66.58528645833331,0)" xlink:href="#h"/><use transform="matrix(0.01627604166666666,0,0,0.01627604166666666,82.45442708333331,0)" xlink:href="#i"/><use transform="matrix(0.01627604166666666,0,0,0.01627604166666666,100.99283854166664,0)" xlink:href="#j"/><use transform="matrix(0.01627604166666666,0,0,0.01627604166666666,112.76041666666664,0)" xlink:href="#k"/><use transform="matrix(0.01627604166666666,0,0,0.01627604166666666,121.19140624999997,0)" xlink:href="#g"/><use transform="matrix(0.01627604166666666,0,0,0.01627604166666666,141.32486979166663,0)" xlink:href="#e"/></g><path fill="#3a414a" d="M340-893c80-153 237-262 467-211l-23 154c-45-10-85-15-120-15-184-3-322 182-322 377V0H176v-1096h137l19 203h8" id="l"/><path fill="#3a414a" d="M995-51C878-2 799 19 639 20c-329 2-524-221-524-559 0-326 172-577 481-577 278 0 451 210 446 493v105H287c4 242 121 392 358 393 118 0 235-25 350-74v148zM864-653c2-195-85-324-270-324-190 0-288 139-303 324h573" id="m"/><path fill="#3a414a" d="M342 0H176v-1556h166V0" id="n"/><path fill="#3a414a" d="M502-977c-130 0-238 32-238 139 0 75 39 101 95 134 33 19 97 46 192 81 130 48 217 95 263 143s69 108 69 181C883-73 695 20 449 20 304 20 190-3 109-49v-154c91 47 216 86 344 86 149 0 270-36 270-168 0-43-21-76-55-109-56-55-367-158-434-208-74-55-128-109-128-225 0-327 490-342 754-217l-59 135c-110-45-210-68-299-68" id="o"/><path fill="#3a414a" d="M690-1114c271 2 402 123 402 399V0H926v-709c-1-177-76-266-252-266-251 0-332 135-332 402V0H176v-1556h166c-4 200 8 426-8 612h10c61-100 187-171 346-170" id="p"/><path fill="#3a414a" d="M1141-549c0 329-147 569-455 569-159 0-273-61-344-161h-12c23 199 7 418 12 633H176v-1588h135l23 150h8c77-108 175-170 344-170 311 0 455 237 455 567zm-172-2c0-242-88-424-307-424-256 0-323 154-320 426 3 280 68 430 324 430 213 0 303-196 303-432" id="q"/><g id="b"><use transform="matrix(0.01627604166666666,0,0,0.01627604166666666,0,0)" xlink:href="#l"/><use transform="matrix(0.01627604166666666,0,0,0.01627604166666666,12.939453124999995,0)" xlink:href="#m"/><use transform="matrix(0.01627604166666666,0,0,0.01627604166666666,31.640624999999986,0)" xlink:href="#n"/><use transform="matrix(0.01627604166666666,0,0,0.01627604166666666,40.071614583333314,0)" xlink:href="#i"/><use transform="matrix(0.01627604166666666,0,0,0.01627604166666666,58.61002604166664,0)" xlink:href="#j"/><use transform="matrix(0.01627604166666666,0,0,0.01627604166666666,70.37760416666664,0)" xlink:href="#k"/><use transform="matrix(0.01627604166666666,0,0,0.01627604166666666,78.80859374999997,0)" xlink:href="#g"/><use transform="matrix(0.01627604166666666,0,0,0.01627604166666666,98.94205729166663,0)" xlink:href="#e"/><use transform="matrix(0.01627604166666666,0,0,0.01627604166666666,119.40104166666663,0)" xlink:href="#o"/><use transform="matrix(0.01627604166666666,0,0,0.01627604166666666,135.30273437499994,0)" xlink:href="#p"/><use transform="matrix(0.01627604166666666,0,0,0.01627604166666666,155.76171874999994,0)" xlink:href="#k"/><use transform="matrix(0.01627604166666666,0,0,0.01627604166666666,164.1927083333333,0)" xlink:href="#q"/></g><path fill="#3a414a" d="M1120 0L938-465H352L172 0H0l578-1468h143L1296 0h-176zM885-618c-81-228-168-420-238-664-57 230-159 449-235 664h473" id="r"/><path fill="#3a414a" d="M1169-178c39-215 75-309 230-918h172L1268 0h-197c-99-332-184-548-272-911h-8C712-564 610-319 514 0H322L23-1096h174c71 275 124 485 161 629s59 241 64 291h8c76-328 186-611 279-920h180l196 629c37 115 63 211 76 289h8" id="s"/><g id="c"><use transform="matrix(0.01627604166666666,0,0,0.01627604166666666,0,0)" xlink:href="#r"/><use transform="matrix(0.01627604166666666,0,0,0.01627604166666666,21.093749999999993,0)" xlink:href="#s"/><use transform="matrix(0.01627604166666666,0,0,0.01627604166666666,47.021484374999986,0)" xlink:href="#i"/><use transform="matrix(0.01627604166666666,0,0,0.01627604166666666,65.55989583333331,0)" xlink:href="#k"/><use transform="matrix(0.01627604166666666,0,0,0.01627604166666666,73.99088541666664,0)" xlink:href="#j"/></g></defs></g></svg>