<svg xmlns="http://www.w3.org/2000/svg" xmlns:xlink="http://www.w3.org/1999/xlink" xmlns:lucid="lucid" width="2122" height="1122"><g transform="translate(-299 61)" lucid:page-tab-id="0_0"><path d="M0-500h2500v2000H0z" fill="#fff"/><path d="M320-34a6 6 0 0 1 6-6h2068a6 6 0 0 1 6 6v1068a6 6 0 0 1-6 6H326a6 6 0 0 1-6-6z" stroke="#000" stroke-opacity="0" stroke-width="2" fill="#fff"/><path d="M1720 120h560v240h-560zM440 120h1200v880H440z" stroke="#000" stroke-opacity="0" fill="#dfe3e8"/><path d="M480 486a6 6 0 0 1 6-6h148a6 6 0 0 1 6 6v148a6 6 0 0 1-6 6H486a6 6 0 0 1-6-6z" stroke="#000" fill="#fff"/><use xlink:href="#a" transform="matrix(1,0,0,1,485,485) translate(24.127604166666657 66.00260416666667)"/><use xlink:href="#b" transform="matrix(1,0,0,1,485,485) translate(61.5625 102.31770833333334)"/><path d="M800 486a6 6 0 0 1 6-6h148a6 6 0 0 1 6 6v148a6 6 0 0 1-6 6H806a6 6 0 0 1-6-6z" stroke="#000" fill="#fff"/><use xlink:href="#c" transform="matrix(1,0,0,1,805,485) translate(21.08723958333333 66.00260416666667)"/><use xlink:href="#d" transform="matrix(1,0,0,1,805,485) translate(14.537760416666657 102.31770833333334)"/><path d="M641 521.24h142.12" stroke="#3a414a" fill="none"/><path d="M641 521.72h-.5v-.95h.5z" stroke="#3a414a" stroke-width=".05" fill="#3a414a"/><path d="M797.88 521.24l-14.26 4.64v-9.27z" stroke="#3a414a" fill="#3a414a"/><path d="M799 600.47h-1.97m-3.95 0h-3.95m-3.95 0h-3.94m-3.95 0h-3.96m-3.95 0h-3.95m-3.95 0h-3.95m-3.95 0h-3.95m-3.94 0h-3.94m-3.95 0h-3.94m-3.94 0h-3.95m-3.95 0h-3.95m-3.95 0h-3.94m-3.95 0h-3.95m-3.95 0h-3.94m-3.96 0h-3.95m-3.96 0h-3.94m-3.95 0h-3.95m-3.95 0h-3.95m-3.94 0h-1.98" stroke="#3a414a" fill="none"/><path d="M799.5 600.94h-.5V600h.5z" stroke="#3a414a" stroke-width=".05" fill="#3a414a"/><path d="M642.12 600.47l14.26-4.64v9.27z" stroke="#3a414a" fill="#3a414a"/><path d="M1120 166a6 6 0 0 1 6-6h148a6 6 0 0 1 6 6v148a6 6 0 0 1-6 6h-148a6 6 0 0 1-6-6z" stroke="#000" fill="#fff"/><use xlink:href="#a" transform="matrix(1,0,0,1,1125,165) translate(24.127604166666657 66.00260416666667)"/><use xlink:href="#b" transform="matrix(1,0,0,1,1125,165) translate(61.5625 102.31770833333334)"/><path d="M1440 166a6 6 0 0 1 6-6h148a6 6 0 0 1 6 6v148a6 6 0 0 1-6 6h-148a6 6 0 0 1-6-6z" stroke="#000" fill="#fff"/><use xlink:href="#c" transform="matrix(1,0,0,1,1445,165) translate(21.08723958333333 66.00260416666667)"/><use xlink:href="#d" transform="matrix(1,0,0,1,1445,165) translate(14.537760416666657 102.31770833333334)"/><path d="M1281 201.24h142.12" stroke="#3a414a" fill="none"/><path d="M1281 201.72h-.5v-.95h.5z" stroke="#3a414a" stroke-width=".05" fill="#3a414a"/><path d="M1437.88 201.24l-14.26 4.64v-9.27z" stroke="#3a414a" fill="#3a414a"/><path d="M1439 280.47h-1.97m-3.95 0h-3.95m-3.95 0h-3.94m-3.95 0h-3.96m-3.95 0h-3.96m-3.94 0h-3.95m-3.95 0h-3.95m-3.94 0h-3.94m-3.95 0h-3.94m-3.94 0h-3.95m-3.95 0h-3.95m-3.94 0h-3.95m-3.95 0h-3.95m-3.95 0h-3.94m-3.96 0h-3.95m-3.96 0h-3.94m-3.95 0h-3.95m-3.95 0h-3.94m-3.94 0h-1.98" stroke="#3a414a" fill="none"/><path d="M1439.5 280.94h-.5V280h.5z" stroke="#3a414a" stroke-width=".05" fill="#3a414a"/><path d="M1282.12 280.47l14.26-4.64v9.27z" stroke="#3a414a" fill="#3a414a"/><path d="M1120 806a6 6 0 0 1 6-6h148a6 6 0 0 1 6 6v148a6 6 0 0 1-6 6h-148a6 6 0 0 1-6-6z" stroke="#000" fill="#fff"/><use xlink:href="#a" transform="matrix(1,0,0,1,1125,805) translate(24.127604166666657 66.00260416666667)"/><use xlink:href="#b" transform="matrix(1,0,0,1,1125,805) translate(61.5625 102.31770833333334)"/><path d="M1440 806a6 6 0 0 1 6-6h148a6 6 0 0 1 6 6v148a6 6 0 0 1-6 6h-148a6 6 0 0 1-6-6z" stroke="#000" fill="#fff"/><use xlink:href="#c" transform="matrix(1,0,0,1,1445,805) translate(21.08723958333333 66.00260416666667)"/><use xlink:href="#d" transform="matrix(1,0,0,1,1445,805) translate(14.537760416666657 102.31770833333334)"/><path d="M1281 841.24h142.12" stroke="#3a414a" fill="none"/><path d="M1281 841.72h-.5v-.95h.5z" stroke="#3a414a" stroke-width=".05" fill="#3a414a"/><path d="M1437.88 841.24l-14.26 4.64v-9.27z" stroke="#3a414a" fill="#3a414a"/><path d="M1439 920.47h-1.97m-3.95 0h-3.95m-3.95 0h-3.94m-3.95 0h-3.96m-3.95 0h-3.96m-3.94 0h-3.95m-3.95 0h-3.95m-3.94 0h-3.94m-3.95 0h-3.94m-3.94 0h-3.95m-3.95 0h-3.95m-3.94 0h-3.95m-3.95 0h-3.95m-3.95 0h-3.94m-3.96 0h-3.95m-3.96 0h-3.94m-3.95 0h-3.95m-3.95 0h-3.94m-3.94 0h-1.98" stroke="#3a414a" fill="none"/><path d="M1439.5 920.94h-.5V920h.5z" stroke="#3a414a" stroke-width=".05" fill="#3a414a"/><path d="M1282.12 920.47l14.26-4.64v9.27z" stroke="#3a414a" fill="#3a414a"/><path d="M921.33 641v191.67a6 6 0 0 0 6 6h175.8" stroke="#3a414a" fill="none"/><path d="M921.8 641h-.94v-.5h.95z" stroke="#3a414a" stroke-width=".05" fill="#3a414a"/><path d="M1117.88 838.67l-14.26 4.63v-9.27z" stroke="#3a414a" fill="#3a414a"/><path d="M840 479V206a6 6 0 0 1 6-6h257.12" stroke="#3a414a" fill="none"/><path d="M840.48 479.5h-.96v-.5h.96z" stroke="#3a414a" stroke-width=".05" fill="#3a414a"/><path d="M1117.88 200l-14.26 4.63v-9.26z" stroke="#3a414a" fill="#3a414a"/><path d="M1119 280h-2m-4.03 0h-4.02m-4.02 0h-4.02m-4.02 0h-4.02m-4.02 0h-4.02m-4.02 0h-4.02m-4.02 0h-4.02m-4.02 0h-4.02m-4.02 0h-4.02m-4.03 0h-4.02m-4 0h-4.03m-4.02 0h-4.02m-4.02 0h-4m-4.03 0h-4.02m-4.02 0h-4.02m-4 0h-4.03m-4.03 0h-4.02m-4.02 0h-4.02m-4.02 0h-4.02m-4.02 0h-4.02m-4.02 0h-4.02m-4.02 0h-4.02m-4.03 0h-4.03m-4.02 0h-4.02m-4.02 0h-2l-.94.07-.9.22-.45.17m-3.23 3.24l-.18.45-.23.9-.07.95v2m0 4.04v4.02m0 4.03v4m0 4.04v4.03m0 4.02v4.02m0 4.02v4.03m0 4.02v4.02m0 4.02v4.03m0 4.02v4.02m0 4.02v4.03m0 4.02v4.02m0 4.03v4.02m0 4.03v4.02m0 4.03v4.02m0 4.03v4.02m0 4.03v4.02m0 4.03v4.02m0 4.03v4.02m0 4.03v4.03m0 4.02v4.03m0 4.02v4.03m0 4.02v4.03m0 4.02v2.02" stroke="#3a414a" fill="none"/><path d="M1119.5 280.48h-.5v-.96h.5z" stroke="#3a414a" stroke-width=".05" fill="#3a414a"/><path d="M920 477.88l-4.63-14.26h9.26z" stroke="#3a414a" fill="#3a414a"/><path d="M1119 918.67h-2m-4 0h-4m-3.98 0h-4m-4 0h-4m-3.98 0h-4m-4 0h-4m-3.98 0h-4m-4 0h-4m-3.98 0h-4m-4 0h-4m-3.98 0h-4m-4 0h-4m-3.98 0h-4m-4 0h-4m-4 0h-3.98m-4 0h-4m-4 0h-3.98m-4 0h-4m-4 0h-3.98m-4 0h-4m-4 0h-3.98m-4 0h-4m-4 0h-3.98m-4 0h-4m-4 0h-3.98m-4 0h-4m-4 0h-3.98m-4 0h-4m-4 0h-3.98m-4 0h-4m-4 0h-3.98m-4 0h-4m-4 0h-3.98m-4 0h-4m-4 0h-2l-.93-.08-.92-.23-.44-.18m-3.23-3.24l-.17-.44-.22-.9-.07-.95v-2m0-4v-4m0-4v-4m0-4v-3.98m0-4v-4m0-4v-4m0-4v-4m0-4v-3.98m0-4v-4m0-4v-4m0-4v-3.98m0-4v-4m0-4v-4m0-4v-3.98m0-4v-4m0-4v-4m0-4v-3.98m0-4v-4m0-4v-4m0-4v-3.98m0-4v-4m0-4v-4m0-4v-3.98m0-4v-4m0-4v-4m0-4v-3.98m0-4v-4m0-4v-4m0-4v-3.98m0-4v-4m0-4v-4m0-4v-3.98m0-4v-2" stroke="#3a414a" fill="none"/><path d="M1119.5 919.14h-.5v-.95h.5z" stroke="#3a414a" stroke-width=".05" fill="#3a414a"/><path d="M841.33 642.12l4.64 14.26h-9.27z" stroke="#3a414a" fill="#3a414a"/><path d="M1760 166a6 6 0 0 1 6-6h148a6 6 0 0 1 6 6v148a6 6 0 0 1-6 6h-148a6 6 0 0 1-6-6z" stroke="#000" fill="#fff"/><use xlink:href="#e" transform="matrix(1,0,0,1,1765,165) translate(24.127604166666657 66.00260416666667)"/><use xlink:href="#f" transform="matrix(1,0,0,1,1765,165) translate(61.5625 102.31770833333334)"/><path d="M2080 166a6 6 0 0 1 6-6h148a6 6 0 0 1 6 6v148a6 6 0 0 1-6 6h-148a6 6 0 0 1-6-6z" stroke="#000" fill="#fff"/><use xlink:href="#g" transform="matrix(1,0,0,1,2085,165) translate(21.08723958333333 66.00260416666667)"/><use xlink:href="#h" transform="matrix(1,0,0,1,2085,165) translate(14.537760416666657 102.31770833333334)"/><path d="M1921 201.24h142.1" stroke="#3a414a" fill="none"/><path d="M1921 201.72h-.5v-.95h.5z" stroke="#3a414a" stroke-width=".05" fill="#3a414a"/><path d="M2077.88 201.24l-14.27 4.64v-9.27z" stroke="#3a414a" fill="#3a414a"/><path d="M2079 280.47h-1.97m-3.95 0h-3.95m-3.95 0h-3.94m-3.95 0h-3.96m-3.95 0h-3.96m-3.94 0h-3.95m-3.95 0h-3.95m-3.94 0h-3.94m-3.95 0h-3.94m-3.94 0h-3.95m-3.95 0h-3.95m-3.94 0h-3.95m-3.95 0h-3.95m-3.95 0h-3.94m-3.96 0h-3.95m-3.96 0h-3.94m-3.95 0h-3.95m-3.95 0h-3.94m-3.94 0h-1.98" stroke="#3a414a" fill="none"/><path d="M2079.5 280.94h-.5V280h.5z" stroke="#3a414a" stroke-width=".05" fill="#3a414a"/><path d="M1922.12 280.47l14.26-4.64v9.27z" stroke="#3a414a" fill="#3a414a"/><path d="M1720 760h560v240h-560z" stroke="#000" stroke-opacity="0" fill="#dfe3e8"/><path d="M1760 806a6 6 0 0 1 6-6h148a6 6 0 0 1 6 6v148a6 6 0 0 1-6 6h-148a6 6 0 0 1-6-6z" stroke="#000" fill="#fff"/><use xlink:href="#e" transform="matrix(1,0,0,1,1765,805) translate(24.127604166666657 66.00260416666667)"/><use xlink:href="#f" transform="matrix(1,0,0,1,1765,805) translate(61.5625 102.31770833333334)"/><path d="M2080 806a6 6 0 0 1 6-6h148a6 6 0 0 1 6 6v148a6 6 0 0 1-6 6h-148a6 6 0 0 1-6-6z" stroke="#000" fill="#fff"/><use xlink:href="#g" transform="matrix(1,0,0,1,2085,805) translate(21.08723958333333 66.00260416666667)"/><use xlink:href="#h" transform="matrix(1,0,0,1,2085,805) translate(14.537760416666657 102.31770833333334)"/><path d="M1921 841.24h142.12" stroke="#3a414a" fill="none"/><path d="M1921 841.72h-.5v-.95h.5z" stroke="#3a414a" stroke-width=".05" fill="#3a414a"/><path d="M2077.88 841.24l-14.26 4.64v-9.27z" stroke="#3a414a" fill="#3a414a"/><path d="M2079 920.47h-1.97m-3.95 0h-3.95m-3.95 0h-3.94m-3.95 0h-3.96m-3.95 0h-3.96m-3.94 0h-3.95m-3.95 0h-3.95m-3.94 0h-3.94m-3.95 0h-3.94m-3.94 0h-3.95m-3.95 0h-3.95m-3.94 0h-3.95m-3.95 0h-3.95m-3.95 0h-3.94m-3.96 0h-3.95m-3.96 0h-3.94m-3.95 0h-3.95m-3.95 0h-3.94m-3.94 0h-1.98" stroke="#3a414a" fill="none"/><path d="M2079.5 920.94h-.5V920h.5z" stroke="#3a414a" stroke-width=".05" fill="#3a414a"/><path d="M1922.12 920.47l14.26-4.64v9.27z" stroke="#3a414a" fill="#3a414a"/><path d="M1601 838.83h142.12" stroke="#3a414a" fill="none"/><path d="M1601 839.3h-.5v-.95h.5z" stroke="#3a414a" stroke-width=".05" fill="#3a414a"/><path d="M1757.88 838.83l-14.26 4.63v-9.27z" stroke="#3a414a" fill="#3a414a"/><path d="M1759 920.05h-1.97m-3.95 0h-3.95m-3.95 0h-3.94m-3.95 0h-3.96m-3.95 0h-3.96m-3.94 0h-3.95m-3.95 0h-3.95m-3.94 0h-3.94m-3.95 0h-3.94m-3.94 0h-3.95m-3.95 0h-3.95m-3.94 0h-3.95m-3.95 0h-3.95m-3.95 0h-3.94m-3.96 0h-3.95m-3.96 0h-3.94m-3.95 0h-3.95m-3.95 0h-3.94m-3.94 0h-1.98" stroke="#3a414a" fill="none"/><path d="M1759.5 920.52h-.5v-.95h.5z" stroke="#3a414a" stroke-width=".05" fill="#3a414a"/><path d="M1602.12 920.05l14.26-4.64v9.28z" stroke="#3a414a" fill="#3a414a"/><path d="M1601 204.46h142.12" stroke="#3a414a" fill="none"/><path d="M1601 204.93h-.5v-.95h.5z" stroke="#3a414a" stroke-width=".05" fill="#3a414a"/><path d="M1757.88 204.46l-14.27 4.63.02-9.28z" stroke="#3a414a" fill="#3a414a"/><path d="M1759 284.28h-1.97m-3.95 0h-3.95m-3.95 0h-3.94m-3.95 0h-3.96m-3.95 0h-3.96m-3.94 0h-3.95m-3.95 0h-3.95m-3.94 0h-3.94m-3.95 0h-3.94m-3.94 0h-3.95m-3.95 0h-3.95m-3.94 0h-3.95m-3.95 0h-3.95m-3.95 0h-3.94m-3.96 0h-3.95m-3.96 0h-3.94m-3.95 0h-3.95m-3.95 0h-3.94m-3.94 0h-1.98" stroke="#3a414a" fill="none"/><path d="M1759.5 284.75h-.5v-.95h.5z" stroke="#3a414a" stroke-width=".05" fill="#3a414a"/><path d="M1602.12 284.28l14.26-4.64v9.27z" stroke="#3a414a" fill="#3a414a"/><path d="M360-34a6 6 0 0 1 6-6h388a6 6 0 0 1 6 6v68a6 6 0 0 1-6 6H366a6 6 0 0 1-6-6z" fill="none"/><use xlink:href="#i" transform="matrix(1,0,0,1,360,-40) translate(53.78255208333334 50.34505208333333)"/><use xlink:href="#j" transform="matrix(1,0,0,1,360,-40) translate(105.85286458333334 50.34505208333333)"/><use xlink:href="#k" transform="matrix(1,0,0,1,360,-40) translate(185.27994791666666 50.34505208333333)"/><use xlink:href="#l" transform="matrix(1,0,0,1,360,-40) translate(244.18619791666666 50.34505208333333)"/><path d="M1640-34a6 6 0 0 1 6-6h388a6 6 0 0 1 6 6v68a6 6 0 0 1-6 6h-388a6 6 0 0 1-6-6z" fill="none"/><use xlink:href="#m" transform="matrix(1,0,0,1,1640,-40) translate(68.26171874999997 50.34505208333333)"/><use xlink:href="#k" transform="matrix(1,0,0,1,1640,-40) translate(170.80078125 50.34505208333333)"/><use xlink:href="#l" transform="matrix(1,0,0,1,1640,-40) translate(229.70703125 50.34505208333333)"/><path d="M1840 40.5V159" stroke="#3a414a" fill="none"/><path d="M1840.47 40.5h-.94V40h.94zM1840.47 159.5h-.94v-.5h.94z" stroke="#3a414a" stroke-width=".05" fill="#3a414a"/><path d="M560 40.5V479" stroke="#3a414a" fill="none"/><path d="M560.48 40.5h-.96V40h.96zM560.48 479.5h-.96v-.5h.96z" stroke="#3a414a" stroke-width=".05" fill="#3a414a"/><path d="M1040-34a6 6 0 0 1 6-6h388a6 6 0 0 1 6 6v68a6 6 0 0 1-6 6h-388a6 6 0 0 1-6-6z" fill="none"/><g><use xlink:href="#n" transform="matrix(1,0,0,1,1040,-40) translate(33.548177083333314 50.34505208333333)"/><use xlink:href="#o" transform="matrix(1,0,0,1,1040,-40) translate(179.68098958333334 50.34505208333333)"/><use xlink:href="#p" transform="matrix(1,0,0,1,1040,-40) translate(254.12109375 50.34505208333333)"/><use xlink:href="#q" transform="matrix(1,0,0,1,1040,-40) translate(270.83984375 50.34505208333333)"/></g><path d="M1240 40.5v79" stroke="#3a414a" fill="none"/><path d="M1240.47 40.5h-.94V40h.94zM1240.47 120h-.94v-.5h.94z" stroke="#3a414a" stroke-width=".05" fill="#3a414a"/><path d="M1240 40.5V74a6 6 0 0 0 6 6h522.28a6 6 0 0 1 6 6v33.5" stroke="#3a414a" fill="none"/><path d="M1240.47 40.5h-.94V40h.94zM1774.75 120h-.95v-.5h.95z" stroke="#3a414a" stroke-width=".05" fill="#3a414a"/><defs><path d="M1128-1036c0 321-241 464-585 461H371V0H201v-1462h379c365 0 548 142 548 426zm-176 8c0-218-150-286-391-287H371v594h153c270-3 428-62 428-307" id="r"/><path d="M340-893c80-153 237-262 467-211l-23 154c-45-10-85-15-120-15-184-3-322 182-322 377V0H176v-1096h137l19 203h8" id="s"/><path d="M621-1116c316 0 501 239 501 567 0 339-180 575-508 569S119-212 115-549c-4-339 178-567 506-567zm-5 141c-239 0-329 168-329 426 0 255 93 430 331 430s332-174 332-430-95-426-334-426" id="t"/><path d="M1368-1116c259 2 372 131 371 401V0h-166v-713c0-168-66-262-230-262-221 0-303 131-303 363V0H874v-713c-1-169-66-262-231-262-235 0-301 142-301 400V0H176v-1096h135l27 150h8c56-99 174-170 324-170 171 0 283 62 336 186h8c60-108 189-187 354-186" id="u"/><path d="M342 0H176v-1096h166V0zm-82-1282c-61 0-98-43-98-111 0-69 36-110 98-110 59 0 98 43 98 110s-39 111-98 111" id="v"/><path d="M502-977c-130 0-238 32-238 139 0 75 39 101 95 134 33 19 97 46 192 81 130 48 217 95 263 143s69 108 69 181C883-73 695 20 449 20 304 20 190-3 109-49v-154c91 47 216 86 344 86 149 0 270-36 270-168 0-43-21-76-55-109-56-55-367-158-434-208-74-55-128-109-128-225 0-327 490-342 754-217l-59 135c-110-45-210-68-299-68" id="w"/><path d="M995-51C878-2 799 19 639 20c-329 2-524-221-524-559 0-326 172-577 481-577 278 0 451 210 446 493v105H287c4 242 121 392 358 393 118 0 235-25 350-74v148zM864-653c2-195-85-324-270-324-190 0-288 139-303 324h573" id="x"/><g id="a"><use transform="matrix(0.013020833333333334,0,0,0.013020833333333334,0,0)" xlink:href="#r"/><use transform="matrix(0.013020833333333334,0,0,0.013020833333333334,16.0546875,0)" xlink:href="#s"/><use transform="matrix(0.013020833333333334,0,0,0.013020833333333334,26.40625,0)" xlink:href="#t"/><use transform="matrix(0.013020833333333334,0,0,0.013020833333333334,42.513020833333336,0)" xlink:href="#u"/><use transform="matrix(0.013020833333333334,0,0,0.013020833333333334,67.31770833333334,0)" xlink:href="#v"/><use transform="matrix(0.013020833333333334,0,0,0.013020833333333334,74.06250000000001,0)" xlink:href="#w"/><use transform="matrix(0.013020833333333334,0,0,0.013020833333333334,86.78385416666669,0)" xlink:href="#x"/></g><path d="M201 0v-1462h170V0H201" id="y"/><path d="M649-1462c450-4 719 268 719 717 0 484-276 748-762 745H201v-1462h448zM578-147c400 1 610-197 610-592 1-379-192-576-570-576H371v1168h207" id="z"/><g id="b"><use transform="matrix(0.013020833333333334,0,0,0.013020833333333334,0,0)" xlink:href="#y"/><use transform="matrix(0.013020833333333334,0,0,0.013020833333333334,7.434895833333334,0)" xlink:href="#z"/></g><path d="M371 0H201v-1462h815v151H371v535h606v151H371V0" id="A"/><path d="M563 20c-271 0-399-123-399-399v-717h168v711c1 177 76 266 252 266 250 0 331-135 331-401v-576h166V0H944l-24-147h-9C848-44 724 20 563 20" id="B"/><path d="M694-1116c270 0 399 125 398 401V0H926v-709c-1-177-76-266-252-266-250 0-332 133-332 400V0H176v-1096h135l27 150h8c62-101 190-170 348-170" id="C"/><path d="M287-543c-1 247 91 418 323 418 91 0 185-20 281-59v147C818 1 725 20 614 20c-329 0-499-221-499-561 0-349 172-575 510-575 96 0 221 26 282 57l-51 141c-61-25-157-50-235-51-223 0-334 142-334 426" id="D"/><path d="M354-322c-2 123 60 204 176 205 51 1 114-10 150-20v127C647 7 557 20 506 20 294 20 188-92 188-315v-652H31v-80l157-69 70-234h96v254h318v129H354v645" id="E"/><g id="c"><use transform="matrix(0.013020833333333334,0,0,0.013020833333333334,0,0)" xlink:href="#A"/><use transform="matrix(0.013020833333333334,0,0,0.013020833333333334,13.763020833333334,0)" xlink:href="#B"/><use transform="matrix(0.013020833333333334,0,0,0.013020833333333334,30.130208333333336,0)" xlink:href="#C"/><use transform="matrix(0.013020833333333334,0,0,0.013020833333333334,46.497395833333336,0)" xlink:href="#D"/><use transform="matrix(0.013020833333333334,0,0,0.013020833333333334,59.192708333333336,0)" xlink:href="#E"/><use transform="matrix(0.013020833333333334,0,0,0.013020833333333334,68.60677083333334,0)" xlink:href="#v"/><use transform="matrix(0.013020833333333334,0,0,0.013020833333333334,75.35156250000001,0)" xlink:href="#t"/><use transform="matrix(0.013020833333333334,0,0,0.013020833333333334,91.45833333333334,0)" xlink:href="#C"/></g><path d="M1016 0H201v-1462h815v151H371v471h606v150H371v538h645V0" id="F"/><path d="M440-561L59-1096h189l289 420 288-420h187L631-561 1032 0H844L537-444 227 0H39" id="G"/><g id="d"><use transform="matrix(0.013020833333333334,0,0,0.013020833333333334,0,0)" xlink:href="#F"/><use transform="matrix(0.013020833333333334,0,0,0.013020833333333334,14.830729166666668,0)" xlink:href="#G"/><use transform="matrix(0.013020833333333334,0,0,0.013020833333333334,28.268229166666675,0)" xlink:href="#x"/><use transform="matrix(0.013020833333333334,0,0,0.013020833333333334,43.22916666666667,0)" xlink:href="#D"/><use transform="matrix(0.013020833333333334,0,0,0.013020833333333334,55.92447916666667,0)" xlink:href="#B"/><use transform="matrix(0.013020833333333334,0,0,0.013020833333333334,72.29166666666667,0)" xlink:href="#E"/><use transform="matrix(0.013020833333333334,0,0,0.013020833333333334,81.70572916666667,0)" xlink:href="#v"/><use transform="matrix(0.013020833333333334,0,0,0.013020833333333334,88.45052083333334,0)" xlink:href="#t"/><use transform="matrix(0.013020833333333334,0,0,0.013020833333333334,104.55729166666669,0)" xlink:href="#C"/></g><g id="e"><use transform="matrix(0.013020833333333334,0,0,0.013020833333333334,0,0)" xlink:href="#r"/><use transform="matrix(0.013020833333333334,0,0,0.013020833333333334,16.0546875,0)" xlink:href="#s"/><use transform="matrix(0.013020833333333334,0,0,0.013020833333333334,26.40625,0)" xlink:href="#t"/><use transform="matrix(0.013020833333333334,0,0,0.013020833333333334,42.513020833333336,0)" xlink:href="#u"/><use transform="matrix(0.013020833333333334,0,0,0.013020833333333334,67.31770833333334,0)" xlink:href="#v"/><use transform="matrix(0.013020833333333334,0,0,0.013020833333333334,74.06250000000001,0)" xlink:href="#w"/><use transform="matrix(0.013020833333333334,0,0,0.013020833333333334,86.78385416666669,0)" xlink:href="#x"/></g><g id="f"><use transform="matrix(0.013020833333333334,0,0,0.013020833333333334,0,0)" xlink:href="#y"/><use transform="matrix(0.013020833333333334,0,0,0.013020833333333334,7.434895833333334,0)" xlink:href="#z"/></g><g id="g"><use transform="matrix(0.013020833333333334,0,0,0.013020833333333334,0,0)" xlink:href="#A"/><use transform="matrix(0.013020833333333334,0,0,0.013020833333333334,13.763020833333334,0)" xlink:href="#B"/><use transform="matrix(0.013020833333333334,0,0,0.013020833333333334,30.130208333333336,0)" xlink:href="#C"/><use transform="matrix(0.013020833333333334,0,0,0.013020833333333334,46.497395833333336,0)" xlink:href="#D"/><use transform="matrix(0.013020833333333334,0,0,0.013020833333333334,59.192708333333336,0)" xlink:href="#E"/><use transform="matrix(0.013020833333333334,0,0,0.013020833333333334,68.60677083333334,0)" xlink:href="#v"/><use transform="matrix(0.013020833333333334,0,0,0.013020833333333334,75.35156250000001,0)" xlink:href="#t"/><use transform="matrix(0.013020833333333334,0,0,0.013020833333333334,91.45833333333334,0)" xlink:href="#C"/></g><g id="h"><use transform="matrix(0.013020833333333334,0,0,0.013020833333333334,0,0)" xlink:href="#F"/><use transform="matrix(0.013020833333333334,0,0,0.013020833333333334,14.830729166666668,0)" xlink:href="#G"/><use transform="matrix(0.013020833333333334,0,0,0.013020833333333334,28.268229166666675,0)" xlink:href="#x"/><use transform="matrix(0.013020833333333334,0,0,0.013020833333333334,43.22916666666667,0)" xlink:href="#D"/><use transform="matrix(0.013020833333333334,0,0,0.013020833333333334,55.92447916666667,0)" xlink:href="#B"/><use transform="matrix(0.013020833333333334,0,0,0.013020833333333334,72.29166666666667,0)" xlink:href="#E"/><use transform="matrix(0.013020833333333334,0,0,0.013020833333333334,81.70572916666667,0)" xlink:href="#v"/><use transform="matrix(0.013020833333333334,0,0,0.013020833333333334,88.45052083333334,0)" xlink:href="#t"/><use transform="matrix(0.013020833333333334,0,0,0.013020833333333334,104.55729166666669,0)" xlink:href="#C"/></g><path fill="#3a414a" d="M125-733c6-459 248-750 704-750 153 0 287 28 402 84l-72 146c-111-52-221-78-332-78-334-1-520 251-520 600 0 361 171 600 518 600 102 0 218-18 349-55v149C1073 1 948 20 799 20c-445 1-680-294-674-753" id="H"/><path fill="#3a414a" d="M588-1114c260 0 384 106 385 366V0H850l-33-156h-8C708-34 639 17 442 20 231 23 94-94 94-303c0-221 177-337 531-348l186-6c11-203-40-320-233-320-91 0-195 28-310 84l-51-127c97-53 229-94 371-94zM268-301c-1 123 81 184 207 184 203 0 334-120 332-323v-99c-257 14-539-7-539 238" id="I"/><path fill="#3a414a" d="M342 0H176v-1556h166V0" id="J"/><g id="i"><use transform="matrix(0.013020833333333334,0,0,0.013020833333333334,0,0)" xlink:href="#H"/><use transform="matrix(0.013020833333333334,0,0,0.013020833333333334,16.822916666666668,0)" xlink:href="#I"/><use transform="matrix(0.013020833333333334,0,0,0.013020833333333334,31.653645833333336,0)" xlink:href="#J"/><use transform="matrix(0.013020833333333334,0,0,0.013020833333333334,38.3984375,0)" xlink:href="#J"/></g><path fill="#3a414a" d="M125-741c0-247 161-377 414-375 57 0 109 7 155 20h379v105l-203 24c37 48 72 129 72 219 0 255-227 390-504 345-71 37-106 84-106 141 0 78 66 88 164 88h194c219-1 369 87 369 293 0 121-49 213-146 277s-239 96-426 96c-250 0-448-83-448-306C39 36 147-58 283-86c-52-23-102-79-99-152 4-104 57-143 133-192-107-42-192-164-192-311zM438-25c-143-1-242 70-239 209s131 181 290 181c139 0 242-21 309-63s101-98 101-169c0-147-88-158-262-158H438zm94-970c-158 0-243 88-243 250 0 153 93 233 246 233 162 0 243-79 243-236 0-165-82-247-246-247" id="K"/><path fill="#3a414a" d="M340-893c80-153 237-262 467-211l-23 154c-45-10-85-15-120-15-184-3-322 182-322 377V0H176v-1096h137l19 203h8" id="L"/><path fill="#3a414a" d="M1141-549c0 329-147 569-455 569-159 0-273-61-344-161h-12c23 199 7 418 12 633H176v-1588h135l23 150h8c77-108 175-170 344-170 311 0 455 237 455 567zm-172-2c0-242-88-424-307-424-256 0-323 154-320 426 3 280 68 430 324 430 213 0 303-196 303-432" id="M"/><path fill="#3a414a" d="M690-1114c271 2 402 123 402 399V0H926v-709c-1-177-76-266-252-266-251 0-332 135-332 402V0H176v-1556h166c-4 200 8 426-8 612h10c61-100 187-171 346-170" id="N"/><g id="j"><use transform="matrix(0.013020833333333334,0,0,0.013020833333333334,0,0)" xlink:href="#K"/><use transform="matrix(0.013020833333333334,0,0,0.013020833333333334,14.609375,0)" xlink:href="#L"/><use transform="matrix(0.013020833333333334,0,0,0.013020833333333334,24.9609375,0)" xlink:href="#I"/><use transform="matrix(0.013020833333333334,0,0,0.013020833333333334,39.79166666666667,0)" xlink:href="#M"/><use transform="matrix(0.013020833333333334,0,0,0.013020833333333334,56.1328125,0)" xlink:href="#N"/></g><path fill="#3a414a" d="M621-1116c316 0 501 239 501 567 0 339-180 575-508 569S119-212 115-549c-4-339 178-567 506-567zm-5 141c-239 0-329 168-329 426 0 255 93 430 331 430s332-174 332-430-95-426-334-426" id="O"/><path fill="#3a414a" d="M354-322c-2 123 60 204 176 205 51 1 114-10 150-20v127C647 7 557 20 506 20 294 20 188-92 188-315v-652H31v-80l157-69 70-234h96v254h318v129H354v645" id="P"/><g id="k"><use transform="matrix(0.013020833333333334,0,0,0.013020833333333334,0,0)" xlink:href="#L"/><use transform="matrix(0.013020833333333334,0,0,0.013020833333333334,10.351562500000002,0)" xlink:href="#O"/><use transform="matrix(0.013020833333333334,0,0,0.013020833333333334,26.458333333333336,0)" xlink:href="#O"/><use transform="matrix(0.013020833333333334,0,0,0.013020833333333334,42.56510416666667,0)" xlink:href="#P"/></g><path fill="#3a414a" d="M1368-1116c259 2 372 131 371 401V0h-166v-713c0-168-66-262-230-262-221 0-303 131-303 363V0H874v-713c-1-169-66-262-231-262-235 0-301 142-301 400V0H176v-1096h135l27 150h8c56-99 174-170 324-170 171 0 283 62 336 186h8c60-108 189-187 354-186" id="Q"/><path fill="#3a414a" d="M342 0H176v-1096h166V0zm-82-1282c-61 0-98-43-98-111 0-69 36-110 98-110 59 0 98 43 98 110s-39 111-98 111" id="R"/><path fill="#3a414a" d="M502-977c-130 0-238 32-238 139 0 75 39 101 95 134 33 19 97 46 192 81 130 48 217 95 263 143s69 108 69 181C883-73 695 20 449 20 304 20 190-3 109-49v-154c91 47 216 86 344 86 149 0 270-36 270-168 0-43-21-76-55-109-56-55-367-158-434-208-74-55-128-109-128-225 0-327 490-342 754-217l-59 135c-110-45-210-68-299-68" id="S"/><path fill="#3a414a" d="M995-51C878-2 799 19 639 20c-329 2-524-221-524-559 0-326 172-577 481-577 278 0 451 210 446 493v105H287c4 242 121 392 358 393 118 0 235-25 350-74v148zM864-653c2-195-85-324-270-324-190 0-288 139-303 324h573" id="T"/><g id="l"><use transform="matrix(0.013020833333333334,0,0,0.013020833333333334,0,0)" xlink:href="#M"/><use transform="matrix(0.013020833333333334,0,0,0.013020833333333334,16.341145833333336,0)" xlink:href="#L"/><use transform="matrix(0.013020833333333334,0,0,0.013020833333333334,26.692708333333336,0)" xlink:href="#O"/><use transform="matrix(0.013020833333333334,0,0,0.013020833333333334,42.79947916666667,0)" xlink:href="#Q"/><use transform="matrix(0.013020833333333334,0,0,0.013020833333333334,67.60416666666667,0)" xlink:href="#R"/><use transform="matrix(0.013020833333333334,0,0,0.013020833333333334,74.34895833333334,0)" xlink:href="#S"/><use transform="matrix(0.013020833333333334,0,0,0.013020833333333334,87.07031250000001,0)" xlink:href="#T"/></g><path fill="#3a414a" d="M1128-1036c0 321-241 464-585 461H371V0H201v-1462h379c365 0 548 142 548 426zm-176 8c0-218-150-286-391-287H371v594h153c270-3 428-62 428-307" id="U"/><path fill="#3a414a" d="M287-543c-1 247 91 418 323 418 91 0 185-20 281-59v147C818 1 725 20 614 20c-329 0-499-221-499-561 0-349 172-575 510-575 96 0 221 26 282 57l-51 141c-61-25-157-50-235-51-223 0-334 142-334 426" id="V"/><g id="m"><use transform="matrix(0.013020833333333334,0,0,0.013020833333333334,0,0)" xlink:href="#U"/><use transform="matrix(0.013020833333333334,0,0,0.013020833333333334,16.0546875,0)" xlink:href="#L"/><use transform="matrix(0.013020833333333334,0,0,0.013020833333333334,26.40625,0)" xlink:href="#O"/><use transform="matrix(0.013020833333333334,0,0,0.013020833333333334,42.513020833333336,0)" xlink:href="#V"/><use transform="matrix(0.013020833333333334,0,0,0.013020833333333334,55.208333333333336,0)" xlink:href="#T"/><use transform="matrix(0.013020833333333334,0,0,0.013020833333333334,70.16927083333334,0)" xlink:href="#S"/><use transform="matrix(0.013020833333333334,0,0,0.013020833333333334,82.89062500000001,0)" xlink:href="#S"/></g><path fill="#3a414a" d="M1120 0L938-465H352L172 0H0l578-1468h143L1296 0h-176zM885-618c-81-228-168-420-238-664-57 230-159 449-235 664h473" id="W"/><path fill="#3a414a" d="M694-1116c270 0 399 125 398 401V0H926v-709c-1-177-76-266-252-266-250 0-332 133-332 400V0H176v-1096h135l27 150h8c62-101 190-170 348-170" id="X"/><g id="n"><use transform="matrix(0.013020833333333334,0,0,0.013020833333333334,0,0)" xlink:href="#W"/><use transform="matrix(0.013020833333333334,0,0,0.013020833333333334,16.875,0)" xlink:href="#M"/><use transform="matrix(0.013020833333333334,0,0,0.013020833333333334,33.216145833333336,0)" xlink:href="#M"/><use transform="matrix(0.013020833333333334,0,0,0.013020833333333334,49.55729166666667,0)" xlink:href="#J"/><use transform="matrix(0.013020833333333334,0,0,0.013020833333333334,56.302083333333336,0)" xlink:href="#R"/><use transform="matrix(0.013020833333333334,0,0,0.013020833333333334,63.046875,0)" xlink:href="#V"/><use transform="matrix(0.013020833333333334,0,0,0.013020833333333334,75.7421875,0)" xlink:href="#I"/><use transform="matrix(0.013020833333333334,0,0,0.013020833333333334,90.57291666666667,0)" xlink:href="#P"/><use transform="matrix(0.013020833333333334,0,0,0.013020833333333334,99.98697916666667,0)" xlink:href="#R"/><use transform="matrix(0.013020833333333334,0,0,0.013020833333333334,106.73177083333334,0)" xlink:href="#O"/><use transform="matrix(0.013020833333333334,0,0,0.013020833333333334,122.8385416666667,0)" xlink:href="#X"/></g><path fill="#3a414a" d="M1198-240c-25-390-10-810-14-1222h159V0h-194L350-1227h-8c30 405 10 805 16 1227H201v-1462h192l797 1222h8" id="Y"/><path fill="#3a414a" d="M115-545c0-330 146-571 454-571 149 0 263 54 342 162h13c-20-185-8-401-11-602h166V0H944l-22-147h-9C836-36 722 20 569 20c-309 0-454-234-454-565zm172 2c0 249 78 424 303 424 257 0 327-150 323-426-4-282-68-432-325-432-220 0-301 191-301 434" id="Z"/><g id="o"><use transform="matrix(0.013020833333333334,0,0,0.013020833333333334,0,0)" xlink:href="#Y"/><use transform="matrix(0.013020833333333334,0,0,0.013020833333333334,20.104166666666668,0)" xlink:href="#O"/><use transform="matrix(0.013020833333333334,0,0,0.013020833333333334,36.2109375,0)" xlink:href="#Z"/><use transform="matrix(0.013020833333333334,0,0,0.013020833333333334,52.552083333333336,0)" xlink:href="#T"/></g><path fill="#3a414a" d="M731-1462L186 0H20l545-1462h166" id="aa"/><use transform="matrix(0.013020833333333334,0,0,0.013020833333333334,0,0)" xlink:href="#aa" id="p"/><g id="q"><use transform="matrix(0.013020833333333334,0,0,0.013020833333333334,0,0)" xlink:href="#U"/><use transform="matrix(0.013020833333333334,0,0,0.013020833333333334,16.0546875,0)" xlink:href="#L"/><use transform="matrix(0.013020833333333334,0,0,0.013020833333333334,26.40625,0)" xlink:href="#O"/><use transform="matrix(0.013020833333333334,0,0,0.013020833333333334,42.513020833333336,0)" xlink:href="#V"/><use transform="matrix(0.013020833333333334,0,0,0.013020833333333334,55.208333333333336,0)" xlink:href="#T"/><use transform="matrix(0.013020833333333334,0,0,0.013020833333333334,70.16927083333334,0)" xlink:href="#S"/><use transform="matrix(0.013020833333333334,0,0,0.013020833333333334,82.89062500000001,0)" xlink:href="#S"/></g></defs></g></svg>