<svg xmlns="http://www.w3.org/2000/svg" xmlns:xlink="http://www.w3.org/1999/xlink" xmlns:lucid="lucid" width="1104.35" height="1202.5"><g transform="translate(-36.65147569444446 100.5)" lucid:page-tab-id="0_0"><path d="M0-500h1500v2000H0z" fill="#fff"/><path d="M260-80h760v1100H260z" fill-opacity="0"/><path d="M266-80h4m4 0h4m4 0h4m4 0h4m4 0h4m4 0h4m4 0h4m4 0h4m4 0h4m4 0h4m4 0h4m4 0h4m4 0h4m4 0h4m4 0h4m4 0h4m4 0h4m4 0h4m4 0h4m4 0h4m4 0h4m4 0h4m4 0h4m4 0h4m4 0h4m4 0h4m4 0h4m4 0h4m4 0h4m4 0h4m4 0h4m4 0h4m4 0h4m4 0h4m4 0h4m4 0h4m4 0h4m4 0h4m4 0h4m4 0h4m4 0h4m4 0h4m4 0h4m4 0h4m4 0h4m4 0h4m4 0h4m4 0h4m4 0h4m4 0h4m4 0h4m4 0h4m4 0h4m4 0h4m4 0h4m4 0h4m4 0h4m4 0h4m4 0h4m4 0h4m4 0h4m4 0h4m4 0h4m4 0h4m4 0h4m4 0h4m4 0h4m4 0h4m4 0h4m4 0h4m4 0h4m4 0h4m4 0h4m4 0h4m4 0h4m4 0h4m4 0h4m4 0h4m4 0h4m4 0h4m4 0h4m4 0h4m4 0h4m4 0h4m4 0h4m4 0h4m4 0h4m4 0h4m4 0h4m4 0h4m4 0h4m4 0h4m4 0h4m4 0h4m4 0h2v2m0 3.98v3.98m0 4v3.98m0 3.98v4m0 3.97v3.98m0 3.98v4m0 3.97v4m0 3.97v4m0 3.97v4m0 3.98v3.98m0 4V1.7m0 4v3.97m0 4v3.97m0 4v3.98m0 3.98v4m0 3.97v4m0 3.97v4m0 3.97v4m0 4v3.97m0 4v3.97m0 4v3.97m0 4v3.98m0 4v3.98m0 3.98v4m0 3.97v4m0 3.98v4m0 3.97v4m0 3.97v4m0 3.98v3.98m0 4v3.97m0 4v3.97m0 4v3.97m0 3.98v3.98m0 4v3.98m0 3.98v4m0 3.97v3.98m0 3.98v4m0 3.97v4m0 3.98v4m0 3.98v3.98m0 4v3.97m0 4v3.97m0 4v3.97m0 4v3.98m0 3.98v4m0 3.97v4m0 3.97v4m0 3.97v4m0 3.98v3.98m0 4v3.97m0 4v3.97m0 4v3.97m0 4v4m0 3.97v4m0 3.97v4m0 3.97v4m0 3.98v4m0 3.98v3.98m0 4v3.97m0 4v3.98m0 4v3.97m0 4v3.98m0 3.98v4m0 3.98v4m0 3.97v4m0 3.97v4m0 3.97v3.98m0 4v3.97m0 4V464m0 4v3.97m0 3.98v3.98m0 4v3.98m0 3.98v4m0 3.97v3.98m0 3.98v4m0 3.97v4m0 3.97v4m0 3.98v3.98m0 4v3.97m0 4v3.97m0 4v3.97m0 4v3.98m0 3.98v4m0 3.97v4m0 3.97v4m0 3.97v4m0 3.97v4m0 4v3.97m0 4v3.97m0 4v3.97m0 4v3.98m0 4v3.98m0 3.98v4m0 3.97v4m0 3.98v4m0 3.97v4m0 3.98v3.98m0 4v3.98m0 4v3.97m0 4v3.97m0 4v3.97m0 3.98v4m0 3.97v4m0 3.97v4m0 3.97v3.98m0 3.98v4m0 3.97v4m0 3.98v4m0 3.98v3.98m0 4v3.97m0 4v3.97m0 4v3.98m0 3.98v4m0 3.97v4m0 3.97v4m0 3.97v4m0 3.98v3.98m0 4v3.97m0 4v3.97m0 4v3.97m0 4v3.97m0 4v4m0 3.97v4m0 3.97v4m0 3.97v4m0 3.98v4m0 3.98v3.98m0 4v3.97m0 4v3.98m0 4v3.97m0 4v3.98m0 3.98v4m0 3.98v4m0 3.97v4m0 3.97v4m0 3.97v3.98m0 4v3.97m0 4v3.97m0 4v1.98h-2m-4 0h-4m-4 0h-4m-4 0h-4m-4 0h-4m-4 0h-4m-4 0h-4m-4 0h-4m-4 0h-4m-4 0h-4m-4 0h-4m-4 0h-4m-4 0h-4m-4 0h-4m-4 0h-4m-4 0h-4m-4 0h-4m-4 0h-4m-4 0h-4m-4 0h-4m-4 0h-4m-4 0h-4m-4 0h-4m-4 0h-4m-4 0h-4m-4 0h-4m-4 0h-4m-4 0h-4m-4 0h-4m-4 0h-4m-4 0h-4m-4 0h-4m-4 0h-4m-4 0h-4m-4 0h-4m-4 0h-4m-4 0h-4m-4 0h-4m-4 0h-4m-4 0h-4m-4 0h-4m-4 0h-4m-4 0h-4m-4 0h-4m-4 0h-4m-4 0h-4m-4 0h-4m-4 0h-4m-4 0h-4m-4 0h-4m-4 0h-4m-4 0h-4m-4 0h-4m-4 0h-4m-4 0h-4m-4 0h-4m-4 0h-4m-4 0h-4m-4 0h-4m-4 0h-4m-4 0h-4m-4 0h-4m-4 0h-4m-4 0h-4m-4 0h-4m-4 0h-4m-4 0h-4m-4 0h-4m-4 0h-4m-4 0h-4m-4 0h-4m-4 0h-4m-4 0h-4m-4 0h-4m-4 0h-4m-4 0h-4m-4 0h-4m-4 0h-4m-4 0h-4m-4 0h-4m-4 0h-4m-4 0h-4m-4 0h-4m-4 0h-4m-4 0h-4m-4 0h-4m-4 0h-4m-4 0h-4m-4 0h-4m-4 0h-4m-4 0h-4m-4 0h-4m-4 0h-4m-4 0h-4m-4 0h-4m-4 0h-2v-2m0-3.98v-3.98m0-4v-3.97m0-4v-3.98m0-4v-3.98m0-3.98v-4m0-3.97v-4m0-3.97v-4m0-3.98v-3.98m0-4v-3.97m0-4v-3.97m0-4v-3.97m0-4v-3.98m0-3.98v-4m0-3.97v-4m0-3.97v-4m0-3.97v-4m0-3.97v-4m0-4v-3.97m0-4v-3.97m0-4v-3.97m0-4v-3.98m0-4v-3.98m0-3.98v-4m0-3.97v-4m0-3.98v-4m0-3.97v-4m0-3.98v-3.98m0-4v-3.98m0-4v-3.97m0-4v-3.97m0-4v-3.97m0-3.98v-4m0-3.97v-4m0-3.97v-4m0-3.97v-3.98m0-3.98v-4m0-3.97v-4m0-3.98v-4m0-3.98v-3.98m0-4v-3.97m0-4v-3.97m0-4v-3.98m0-3.98v-4m0-3.97v-4m0-3.97v-4m0-3.97v-4m0-3.98v-3.98m0-4v-3.97m0-4v-3.97m0-4v-3.97m0-4v-3.97m0-4v-4m0-3.97v-4m0-3.97v-4m0-3.97v-4m0-3.98v-4m0-3.98v-3.98m0-4v-3.97m0-4v-3.98m0-4v-3.97m0-4v-3.98m0-3.98v-4m0-3.98v-4m0-3.97v-4m0-3.97v-4m0-3.97v-3.98m0-4v-3.97m0-4V476m0-4v-3.97m0-3.98v-3.98m0-4v-3.98m0-3.98v-4m0-3.97v-3.98m0-3.98v-4m0-3.97v-4m0-3.97v-4m0-3.97v-4m0-3.98v-3.98m0-4v-3.97m0-4v-3.97m0-4v-3.97m0-4v-3.98m0-3.98v-4m0-3.97v-4m0-3.97v-4m0-3.97v-4m0-4v-3.97m0-4v-3.97m0-4v-3.97m0-4v-3.98m0-4v-3.98m0-3.98v-4m0-3.97v-4m0-3.98v-4m0-3.97v-4m0-3.98v-3.98m0-4v-3.98m0-4v-3.97m0-4v-3.97m0-4v-3.97m0-3.98v-3.98m0-4v-3.98m0-3.98v-4m0-3.97v-3.98m0-3.98v-4m0-3.97v-4m0-3.98v-4m0-3.98v-3.98m0-4v-3.97m0-4v-3.97m0-4v-3.97m0-4v-3.98m0-3.98v-4m0-3.97v-4m0-3.97v-4m0-3.97v-4m0-3.98V85.4m0-4v-3.97m0-4v-3.97m0-4V61.5m0-4v-4m0-3.97v-4m0-3.97v-4m0-3.97v-4m0-3.98v-4m0-3.98v-3.98m0-4V5.7m0-4v-3.98m0-4v-3.97m0-4v-3.98m0-3.98v-4m0-3.98v-4m0-3.97v-4m0-3.97v-4m0-3.97v-3.98m0-3.98v-4m0-3.98v-3.98m0-4V-80h2" stroke="#000" fill="none"/><path d="M680 160c0 22.1-17.9 40-40 40s-40-17.9-40-40 17.9-40 40-40 40 17.9 40 40z" stroke="#000" fill="#fff"/><use xlink:href="#a" transform="matrix(1,0,0,1,605,125) translate(21.66449652777778 42.56293402777778)"/><path d="M680 320c0 22.1-17.9 40-40 40s-40-17.9-40-40 17.9-40 40-40 40 17.9 40 40z" stroke="#000" fill="#fff"/><use xlink:href="#b" transform="matrix(1,0,0,1,605,285) translate(28.33224826388889 42.56293402777778)"/><path d="M1000 320c0 22.1-17.9 40-40 40s-40-17.9-40-40 17.9-40 40-40 40 17.9 40 40z" stroke="#000" fill="#fff"/><use xlink:href="#c" transform="matrix(1,0,0,1,925,285) translate(21.66449652777778 42.56293402777778)"/><path d="M680 480c0 22.1-17.9 40-40 40s-40-17.9-40-40 17.9-40 40-40 40 17.9 40 40z" stroke="#000" fill="#dfe3e8"/><path d="M1000 480c0 22.1-17.9 40-40 40s-40-17.9-40-40 17.9-40 40-40 40 17.9 40 40z" stroke="#000" fill="#fff"/><use xlink:href="#d" transform="matrix(1,0,0,1,925,445) translate(28.33224826388889 42.56293402777778)"/><path d="M680 640c0 22.1-17.9 40-40 40s-40-17.9-40-40 17.9-40 40-40 40 17.9 40 40z" stroke="#000" fill="#fff"/><use xlink:href="#b" transform="matrix(1,0,0,1,605,605) translate(28.33224826388889 42.56293402777778)"/><path d="M640 201v62.12" stroke="#000" fill="none"/><path d="M640 200.5l.48-.02v.53h-.96v-.53z" stroke="#000" stroke-width=".05"/><path d="M640 277.88l-4.63-14.26h9.26z" stroke="#000"/><path d="M841 320h62.12" stroke="#000" fill="none"/><path d="M841 320.48h-.5v-.96h.5z" stroke="#000" stroke-width=".05"/><path d="M917.88 320l-14.26 4.63v-9.26z" stroke="#000"/><path d="M960 361v62.12" stroke="#000" fill="none"/><path d="M960 360.5l.48-.02v.53h-.96v-.53z" stroke="#000" stroke-width=".05"/><path d="M960 437.88l-4.63-14.26h9.26z" stroke="#000"/><path d="M919 480h-62.12" stroke="#000" fill="none"/><path d="M919.5 480l.02.48H919v-.96h.53z" stroke="#000" stroke-width=".05"/><path d="M842.12 480l14.26-4.63v9.26z" stroke="#000"/><path d="M640 521v62.12" stroke="#000" fill="none"/><path d="M640 520.5l.48-.02v.53h-.96v-.53z" stroke="#000" stroke-width=".05"/><path d="M640 597.88l-4.63-14.26h9.26z" stroke="#000"/><path d="M640 361v1.95m0 3.9v3.9m0 3.9v3.9m0 3.9v3.9m0 3.9v3.9m0 3.9v3.9m0 3.9v3.9m0 3.9v3.9m0 3.9v3.9m0 3.9v3.9m0 3.9V439" stroke="#000" fill="none"/><path d="M640 360.5l.48-.02v.53h-.96v-.53zM640.48 439.53l-.47-.03-.48.02V439h.96z" stroke="#000" stroke-width=".05"/><path d="M1000 640c0 22.1-17.9 40-40 40s-40-17.9-40-40 17.9-40 40-40 40 17.9 40 40z" stroke="#000" fill="#fff"/><use xlink:href="#e" transform="matrix(1,0,0,1,925,605) translate(21.66449652777778 42.56293402777778)"/><path d="M1000 800c0 22.1-17.9 40-40 40s-40-17.9-40-40 17.9-40 40-40 40 17.9 40 40z" stroke="#000" fill="#fff"/><use xlink:href="#d" transform="matrix(1,0,0,1,925,765) translate(28.33224826388889 42.56293402777778)"/><path d="M680 800c0 22.1-17.9 40-40 40s-40-17.9-40-40 17.9-40 40-40 40 17.9 40 40z" stroke="#000" fill="#dfe3e8"/><path d="M680 960c0 22.1-17.9 40-40 40s-40-17.9-40-40 17.9-40 40-40 40 17.9 40 40z" stroke="#000" fill="#fff"/><use xlink:href="#d" transform="matrix(1,0,0,1,605,925) translate(28.33224826388889 42.56293402777778)"/><path d="M960 681v62.12" stroke="#000" fill="none"/><path d="M960 680.5l.48-.02v.53h-.96v-.53z" stroke="#000" stroke-width=".05"/><path d="M960 757.88l-4.63-14.26h9.26z" stroke="#000"/><path d="M640 841v62.12" stroke="#000" fill="none"/><path d="M640 840.5l.48-.02v.53h-.96v-.53z" stroke="#000" stroke-width=".05"/><path d="M640 917.88l-4.63-14.26h9.26z" stroke="#000"/><path d="M640 681v1.95m0 3.9v3.9m0 3.9v3.9m0 3.9v3.9m0 3.9v3.9m0 3.9v3.9m0 3.9v3.9m0 3.9v3.9m0 3.9v3.9m0 3.9v3.9m0 3.9V759" stroke="#000" fill="none"/><path d="M640 680.5l.48-.02v.53h-.96v-.53zM640.48 759.53l-.47-.03-.48.02V759h.96z" stroke="#000" stroke-width=".05"/><path d="M440 120h80v80h-80z" stroke="#000" fill="#fff"/><use xlink:href="#f" transform="matrix(1,0,0,1,445,124.99999999999989) translate(21.66449652777778 42.56293402777778)"/><path d="M760 280h80v80h-80z" stroke="#000" fill="#fff"/><use xlink:href="#g" transform="matrix(1,0,0,1,765,285) translate(21.66449652777778 42.56293402777778)"/><path d="M760 600h80v80h-80z" stroke="#000" fill="#fff"/><use xlink:href="#h" transform="matrix(1,0,0,1,765,605) translate(21.66449652777778 42.56293402777778)"/><path d="M760 440h80v80h-80z" stroke="#000" fill="#fff"/><use xlink:href="#g" transform="matrix(1,0,0,1,765,445) translate(21.66449652777778 42.56293402777778)"/><path d="M800 681v1.95m0 3.9v3.9m0 3.9v3.9m0 3.9v3.9m0 3.9v3.9m0 3.9v3.9m0 3.9v3.9m0 3.9v3.9m0 3.9v3.9m0 3.9v3.9m0 3.9V759" stroke="#000" fill="none"/><path d="M800.48 681h-.96v-.5h.96zM800.48 759.5h-.96v-.5h.96z" stroke="#000" stroke-width=".05"/><path d="M760 760h80v80h-80z" stroke="#000" fill="#fff"/><use xlink:href="#h" transform="matrix(1,0,0,1,765,765) translate(21.66449652777778 42.56293402777778)"/><path d="M440 920h80v80h-80z" stroke="#000" fill="#fff"/><use xlink:href="#f" transform="matrix(1,0,0,1,445,924.9999999999999) translate(21.66449652777778 42.56293402777778)"/><path d="M480 201v2m0 3.98v4m0 3.98v4m0 3.98v4m0 3.98v4m0 3.97v3.98m0 4v3.98m0 4v3.98m0 4v3.98m0 4v3.97m0 3.98v4m0 3.98v4m0 3.98v4m0 3.98v4m0 3.97v3.98m0 4v3.98m0 4v3.98m0 4v3.98m0 4v3.97m0 3.98v4m0 3.98v4m0 3.98v4m0 3.98v4m0 3.97v3.98m0 4v3.98m0 4v3.98m0 4v3.98m0 4v3.97m0 3.98v4m0 3.98v4m0 3.98v4m0 3.98v4m0 3.97v3.98m0 4v3.98m0 4v3.98m0 4v3.98m0 4v3.97m0 3.98v4m0 3.98v4m0 3.98v4m0 3.98v4m0 3.97v3.98m0 4v3.98m0 4v3.98m0 4V554m0 4v3.97m0 3.98v4m0 3.98v4m0 3.98v4m0 3.98v4m0 3.97v3.98m0 4v3.98m0 4v3.98m0 4v3.98m0 4v3.97m0 3.98v4m0 3.98v4m0 3.98v4m0 3.98v4m0 3.97v3.98m0 4v3.98m0 4v3.98m0 4v3.98m0 4v3.97m0 3.98v4m0 3.98v4m0 3.98v4m0 3.98v4m0 3.97v3.98m0 4v3.98m0 4v3.98m0 4v3.98m0 4v3.97m0 3.98v4m0 3.98v4m0 3.98v4m0 3.98v4m0 3.97v3.98m0 4v3.98m0 4v3.98m0 4v3.98m0 4v3.97m0 3.98v4m0 3.98v4m0 3.98v4m0 3.98v4m0 3.97v3.98m0 4v3.98m0 4v3.98m0 4V913m0 4V919" stroke="#000" fill="none"/><path d="M480.48 201h-.96v-.5h.96zM480.48 919.5h-.96v-.5h.96z" stroke="#000" stroke-width=".05"/><path d="M681 320h62.12" stroke="#000" fill="none"/><path d="M681 320.48h-.53l.03-.47-.02-.48h.53z" stroke="#000" stroke-width=".05"/><path d="M757.88 320l-14.26 4.63v-9.26z" stroke="#000"/><path d="M759 480h-62.12" stroke="#000" fill="none"/><path d="M759.5 480.48h-.5v-.96h.5z" stroke="#000" stroke-width=".05"/><path d="M682.12 480l14.26-4.63v9.26z" stroke="#000"/><path d="M800 361v1.95m0 3.9v3.9m0 3.9v3.9m0 3.9v3.9m0 3.9v3.9m0 3.9v3.9m0 3.9v3.9m0 3.9v3.9m0 3.9v3.9m0 3.9v3.9m0 3.9V439" stroke="#000" fill="none"/><path d="M800.48 361h-.96v-.5h.96zM800.48 439.5h-.96v-.5h.96z" stroke="#000" stroke-width=".05"/><path d="M681 640h62.12" stroke="#000" fill="none"/><path d="M681 640.48h-.53l.03-.47-.02-.48h.53z" stroke="#000" stroke-width=".05"/><path d="M757.88 640l-14.26 4.63v-9.26z" stroke="#000"/><path d="M841 640h62.12" stroke="#000" fill="none"/><path d="M841 640.48h-.5v-.96h.5z" stroke="#000" stroke-width=".05"/><path d="M917.88 640l-14.26 4.63v-9.26z" stroke="#000"/><path d="M919 800h-62.12" stroke="#000" fill="none"/><path d="M919.5 800l.02.48H919v-.96h.53z" stroke="#000" stroke-width=".05"/><path d="M842.12 800l14.26-4.63v9.26z" stroke="#000"/><path d="M759 800h-62.12" stroke="#000" fill="none"/><path d="M759.5 800.48h-.5v-.96h.5z" stroke="#000" stroke-width=".05"/><path d="M682.12 800l14.26-4.63v9.26z" stroke="#000"/><path d="M521 160h62.12" stroke="#000" fill="none"/><path d="M521 160.47h-.5v-.94h.5z" stroke="#000" stroke-width=".05"/><path d="M597.88 160l-14.26 4.63v-9.26z" stroke="#000"/><path d="M599 960h-62.12" stroke="#000" fill="none"/><path d="M599.5 960l.02.48H599v-.96h.53z" stroke="#000" stroke-width=".05"/><path d="M522.12 960l14.26-4.63v9.26z" stroke="#000"/><path d="M360 0c0 22.1-17.9 40-40 40s-40-17.9-40-40 17.9-40 40-40 40 17.9 40 40z" stroke="#000" fill="#3a414a"/><path d="M361 160h62.12" stroke="#000" fill="none"/><path d="M361 160.47h-.53l.03-.46-.02-.47h.53z" stroke="#000" stroke-width=".05"/><path d="M437.88 160l-14.26 4.63v-9.26z" stroke="#000"/><path d="M360 960c0 22.1-17.9 40-40 40s-40-17.9-40-40 17.9-40 40-40 40 17.9 40 40z" stroke="#000" fill="#dfe3e8"/><path d="M439 960h-62.12" stroke="#000" fill="none"/><path d="M439.5 960.48h-.5v-.96h.5z" stroke="#000" stroke-width=".05"/><path d="M362.12 960l14.26-4.63v9.26z" stroke="#000"/><path d="M320 201v2m0 3.98v4m0 3.98v4m0 3.98v4m0 3.98v4m0 3.98v3.98m0 4v3.98m0 4v3.98m0 4v3.98m0 4v3.98m0 3.98v4m0 3.98v4m0 3.98v4m0 3.98v4m0 3.97v3.98m0 4v3.98m0 4v3.98m0 4v3.98m0 4v3.98m0 3.98v4m0 3.98v4m0 3.98v4m0 3.98v4m0 3.98v3.98m0 4v3.98m0 4v3.98m0 4v3.98m0 4v3.97m0 3.98v4m0 3.98v4m0 3.98v4m0 3.98v4m0 3.98v3.98m0 4v3.98m0 4v3.98m0 4v3.98m0 4v3.97m0 3.98v4m0 3.98v4m0 3.98v4m0 3.98v4m0 3.97v3.98m0 4v3.98m0 4v3.98m0 4V554m0 4V562m0 3.98v4m0 3.98v4m0 3.98v4m0 3.98v4m0 3.97v3.98m0 4v3.98m0 4v3.98m0 4v3.98m0 3.98v4m0 3.98v4m0 3.98v4m0 3.98v4m0 3.98v4m0 3.97v3.98m0 4v3.98m0 4v3.98m0 4v3.98m0 4v3.97m0 3.98v4m0 3.98v4m0 3.98v4m0 3.98v4m0 3.97v3.98m0 4v3.98m0 4v3.98m0 4v3.98m0 4v3.97m0 3.98v4m0 3.98v4m0 3.98v4m0 3.98v3.98m0 4v3.98m0 4v3.98m0 4v3.98m0 4v3.98m0 4v3.97m0 3.98v4m0 3.98v4m0 3.98v4m0 3.98v3.98m0 4v3.98m0 4v3.98m0 4v3.98m0 4V913m0 3.98v2" stroke="#000" fill="none"/><path d="M320 200.5l.48-.02v.53h-.96v-.53zM320.48 919.53l-.47-.03-.48.02V919h.96z" stroke="#000" stroke-width=".05"/><path d="M320 41v1.95m0 3.9v3.9m0 3.9v3.9m0 3.9v3.9m0 3.9v3.9m0 3.9v3.9m0 3.9v3.9m0 3.9v3.9m0 3.9v3.9m0 3.9v3.9m0 3.9V119" stroke="#000" fill="none"/><path d="M320 40.5l.48-.02V41h-.96v-.53zM320.48 119.53l-.47-.03-.48.02V119h.96z" stroke="#000" stroke-width=".05"/><path d="M60-34a6 6 0 0 1 6-6h168a6 6 0 0 1 6 6v68a6 6 0 0 1-6 6H66a6 6 0 0 1-6-6z" stroke="#000" stroke-opacity="0" stroke-width="2" fill="#fff" fill-opacity="0"/><use xlink:href="#i" transform="matrix(1,0,0,1,65,-35.00000000000034) translate(-8.348524305555543 42.27625868055556)"/><path d="M560 26a6 6 0 0 1 6-6h148a6 6 0 0 1 6 6v108a6 6 0 0 1-6 6H566a6 6 0 0 1-6-6z" stroke="#000" stroke-opacity="0" stroke-width="2" fill="#fff" fill-opacity="0"/><use xlink:href="#j" transform="matrix(1,0,0,1,565,25) translate(30.550130208333343 47.814670138888886)"/><use xlink:href="#k" transform="matrix(1,0,0,1,565,25) translate(32.04210069444446 78.07725694444443)"/><path d="M400 26a6 6 0 0 1 6-6h148a6 6 0 0 1 6 6v108a6 6 0 0 1-6 6H406a6 6 0 0 1-6-6z" stroke="#000" stroke-opacity="0" stroke-width="2" fill="#fff" fill-opacity="0"/><use xlink:href="#j" transform="matrix(1,0,0,1,405,25) translate(30.550130208333343 47.814670138888886)"/><use xlink:href="#l" transform="matrix(1,0,0,1,405,25) translate(32.48697916666667 78.07725694444443)"/><path d="M360 160c0 22.1-17.9 40-40 40s-40-17.9-40-40 17.9-40 40-40 40 17.9 40 40z" stroke="#000" fill="#fff"/><use xlink:href="#b" transform="matrix(1,0,0,1,285,124.99999999999989) translate(28.33224826388889 42.56293402777778)"/><path d="M160 106a6 6 0 0 1 6-6h68a6 6 0 0 1 6 6v108a6 6 0 0 1-6 6h-68a6 6 0 0 1-6-6z" stroke="#000" stroke-opacity="0" stroke-width="2" fill="#fff" fill-opacity="0"/><use xlink:href="#m" transform="matrix(1,0,0,1,165,104.99999999999977) translate(21.66449652777778 50.56293402777778)"/><use xlink:href="#n" transform="matrix(1,0,0,1,165,104.99999999999977) translate(-11.674262152777764 73.98958333333333)"/><path d="M320 1001v2.13m0 4.26v4.25m0 4.27v4.26m0 4.26v4.26m0 4.26v4.26m0 4.26v2.14" stroke="#3a414a" fill="none"/><path d="M320 1000.5l.48-.02v.53h-.96v-.53z" stroke="#3a414a" stroke-width=".05" fill="#3a414a"/><path d="M320 1058.38l-4.63-14.26h9.26z" stroke="#3a414a" fill="#3a414a"/><path d="M160 886a6 6 0 0 1 6-6h68a6 6 0 0 1 6 6v148a6 6 0 0 1-6 6h-68a6 6 0 0 1-6-6z" stroke="#000" stroke-opacity="0" stroke-width="2" fill="#fff" fill-opacity="0"/><use xlink:href="#o" transform="matrix(1,0,0,1,165,884.9999999999999) translate(21.66449652777778 70.56293402777777)"/><use xlink:href="#p" transform="matrix(1,0,0,1,165,884.9999999999999) translate(-18.34201388888887 93.98958333333333)"/><path d="M1040 746a6 6 0 0 1 6-6h68a6 6 0 0 1 6 6v108a6 6 0 0 1-6 6h-68a6 6 0 0 1-6-6z" stroke="#000" stroke-opacity="0" stroke-width="2" fill="#fff" fill-opacity="0"/><use xlink:href="#q" transform="matrix(1,0,0,1,1045,745) translate(21.66449652777778 50.06293402777778)"/><use xlink:href="#r" transform="matrix(1,0,0,1,1045,745) translate(-5.006510416666657 73.48958333333333)"/><path d="M1040 426a6 6 0 0 1 6-6h68a6 6 0 0 1 6 6v108a6 6 0 0 1-6 6h-68a6 6 0 0 1-6-6z" stroke="#000" stroke-opacity="0" stroke-width="2" fill="#fff" fill-opacity="0"/><use xlink:href="#s" transform="matrix(1,0,0,1,1045,425) translate(21.66449652777778 50.06293402777778)"/><use xlink:href="#r" transform="matrix(1,0,0,1,1045,425) translate(-5.006510416666657 73.48958333333333)"/><path d="M500 246a6 6 0 0 1 6-6h68a6 6 0 0 1 6 6v148a6 6 0 0 1-6 6h-68a6 6 0 0 1-6-6z" stroke="#000" stroke-opacity="0" stroke-width="2" fill="#fff" fill-opacity="0"/><use xlink:href="#s" transform="matrix(1,0,0,1,505,245) translate(21.66449652777778 70.06293402777777)"/><use xlink:href="#n" transform="matrix(1,0,0,1,505,245) translate(-11.674262152777764 93.48958333333333)"/><path d="M500 566a6 6 0 0 1 6-6h68a6 6 0 0 1 6 6v128a6 6 0 0 1-6 6h-68a6 6 0 0 1-6-6z" stroke="#000" stroke-opacity="0" stroke-width="2" fill="#fff" fill-opacity="0"/><use xlink:href="#q" transform="matrix(1,0,0,1,505,565) translate(21.66449652777778 60.06293402777778)"/><use xlink:href="#n" transform="matrix(1,0,0,1,505,565) translate(-11.674262152777764 83.48958333333333)"/><path d="M500 756a6 6 0 0 1 6-6h68a6 6 0 0 1 6 6v108a6 6 0 0 1-6 6h-68a6 6 0 0 1-6-6z" stroke="#000" stroke-opacity="0" stroke-width="2" fill="#fff" fill-opacity="0"/><use xlink:href="#t" transform="matrix(1,0,0,1,505,755) translate(21.66449652777778 50.06293402777778)"/><use xlink:href="#p" transform="matrix(1,0,0,1,505,755) translate(-18.34201388888887 73.48958333333333)"/><path d="M500 426a6 6 0 0 1 6-6h68a6 6 0 0 1 6 6v108a6 6 0 0 1-6 6h-68a6 6 0 0 1-6-6z" stroke="#000" stroke-opacity="0" stroke-width="2" fill="#fff" fill-opacity="0"/><g><use xlink:href="#u" transform="matrix(1,0,0,1,505,425) translate(21.66449652777778 50.06293402777778)"/><use xlink:href="#p" transform="matrix(1,0,0,1,505,425) translate(-18.34201388888887 73.48958333333333)"/></g><path d="M100 446a6 6 0 0 1 6-6h128a6 6 0 0 1 6 6v68a6 6 0 0 1-6 6H106a6 6 0 0 1-6-6z" stroke="#000" stroke-opacity="0" stroke-width="2" fill="#fff" fill-opacity="0"/><g><use xlink:href="#v" transform="matrix(1,0,0,1,105,444.9999999999999) translate(18.325737847222236 42.89583333333333)"/></g><path d="M240.5 480H259" stroke="#3a414a" fill="none"/><path d="M240.5 480.48h-.5v-.96h.5zM259.5 480.48h-.5v-.96h.5z" stroke="#3a414a" stroke-width=".05" fill="#3a414a"/><defs><path d="M844-1321c-130 0-195 53-191 182v57h443v190H653V0H373v-892H117v-190h256v-83c5-247 162-348 422-349 120-1 232 13 327 28v184c-84-10-183-19-278-19" id="w"/><path d="M138-1120c207-4 339-93 415-229h266v1140h323V0H149v-209h389v-891c-70 121-216 187-400 194v-214" id="x"/><g id="a"><use transform="matrix(0.010850694444444444,0,0,0.010850694444444444,0,0)" xlink:href="#w"/><use transform="matrix(0.010850694444444444,0,0,0.010850694444444444,13.335503472222221,0)" xlink:href="#x"/></g><path d="M794-190h353V0H118v-190h395v-702H223v-190h571v892zM513-1277v-207h281v207H513" id="y"/><use transform="matrix(0.010850694444444444,0,0,0.010850694444444444,0,0)" xlink:href="#y" id="b"/><path d="M135-968c34-256 187-402 480-402 217 0 371 75 441 220 45 93 40 219-8 308-114 212-348 323-508 488-38 39-66 80-85 123h654V0H123v-195c112-245 321-399 515-560 57-48 107-96 142-157 14-26 22-53 22-80-1-104-73-156-185-154-131 2-181 74-199 194" id="z"/><g id="c"><use transform="matrix(0.010850694444444444,0,0,0.010850694444444444,0,0)" xlink:href="#w"/><use transform="matrix(0.010850694444444444,0,0,0.010850694444444444,13.335503472222221,0)" xlink:href="#z"/></g><path d="M875-1102c70 0 148 7 206 17v237c-110-17-267-37-359 15-123 69-192 207-192 395V0H250c-10-367 32-789-52-1082h271c19 69 36 149 46 228h4c52-151 151-250 356-248" id="A"/><use transform="matrix(0.010850694444444444,0,0,0.010850694444444444,0,0)" xlink:href="#A" id="d"/><path d="M788-691c191 26 337 112 337 315 0 286-214 399-510 399-306 0-483-128-522-391l286-25c18 124 91 190 235 188 132-2 223-58 223-188 0-176-191-182-378-179v-227c176 5 345-9 345-176 0-115-82-171-200-171s-198 55-206 169l-281-20c34-252 213-373 492-373 224 0 381 74 451 224 20 43 29 89 29 136 0 195-130 279-301 315v4" id="B"/><g id="e"><use transform="matrix(0.010850694444444444,0,0,0.010850694444444444,0,0)" xlink:href="#w"/><use transform="matrix(0.010850694444444444,0,0,0.010850694444444444,13.335503472222221,0)" xlink:href="#B"/></g><path d="M427-171c3 195 2 397 2 596H148V-846c1-83-4-168-8-236h272c10 49 14 118 15 176h4c59-114 151-197 316-197 291 0 385 259 385 560 0 243-65 433-220 521-50 28-109 42-176 42-162-2-253-78-309-191zm69-661c-91 113-92 463-1 586 46 62 145 101 225 54 96-57 118-191 119-351 0-123-18-215-53-276-46-82-128-115-220-74-25 12-48 33-70 61" id="C"/><g id="f"><use transform="matrix(0.010850694444444444,0,0,0.010850694444444444,0,0)" xlink:href="#C"/><use transform="matrix(0.010850694444444444,0,0,0.010850694444444444,13.335503472222221,0)" xlink:href="#x"/></g><g id="g"><use transform="matrix(0.010850694444444444,0,0,0.010850694444444444,0,0)" xlink:href="#C"/><use transform="matrix(0.010850694444444444,0,0,0.010850694444444444,13.335503472222221,0)" xlink:href="#z"/></g><g id="h"><use transform="matrix(0.010850694444444444,0,0,0.010850694444444444,0,0)" xlink:href="#C"/><use transform="matrix(0.010850694444444444,0,0,0.010850694444444444,13.335503472222221,0)" xlink:href="#B"/></g><path d="M839-1102c70 0 148 7 206 17v167c-112-18-268-36-363 15-129 69-208 203-208 395V0H294c-10-367 32-789-52-1082h171c21 75 41 161 48 250h5c67-152 152-270 373-270" id="D"/><path d="M617-1102c355 0 481 238 477 599H322c5 222 84 388 301 388 144 0 244-59 284-166l158 45C1002-72 854 20 623 20c-342 0-490-220-490-568 0-346 151-554 484-554zm291 461c-18-192-90-328-289-328-194 0-287 128-295 328h584" id="E"/><path d="M873-819c-18-114-119-146-250-146-163 0-245 50-245 151 0 151 170 148 294 185 182 54 388 94 388 320 0 240-189 325-439 329-245 4-410-69-454-268l159-31c24 133 136 168 295 165 144-2 270-31 270-171 0-164-195-160-331-202-167-52-350-87-350-299 0-218 173-315 413-313 220 2 373 77 412 260" id="F"/><path d="M615-1102c343 0 484 203 482 560-1 347-147 562-488 562-336 0-475-219-479-562-4-349 156-560 485-560zm-8 989c240 0 301-180 301-429 0-245-55-427-290-427-236 0-299 181-299 427 0 243 61 429 288 429" id="G"/><path d="M706-1102c241 0 344 136 343 381V0H868v-695c1-168-57-273-220-268-190 6-283 138-283 336V0H185c-3-360 6-732-6-1082h170c4 54 7 126 8 185h3c63-121 164-204 346-205" id="H"/><path d="M1000-272c3 95 12 159 101 161 21 0 41-3 59-7V-6c-44 10-86 16-139 16-141 2-191-84-197-217h-6C748-76 648 20 446 20c-207 0-318-120-318-322 0-266 194-348 454-354l236-4c12-191-40-305-222-305-140 0-220 47-232 172l-188-17c33-204 181-292 423-292 255 0 401 118 401 364v466zm-683-27c0 109 63 184 175 182 166-3 259-96 306-217 24-65 20-120 20-200-232 7-501-28-501 235" id="I"/><path d="M682 16c-209 0-323-80-324-285v-671H190v-142h170l58-282h120v282h432v142H538v652c2 114 60 155 182 155 106 0 209-16 297-34v137C921-4 806 16 682 16" id="J"/><path d="M496 0v-299h235V0H496" id="K"/><path d="M528 20c-247 0-343-132-343-381v-721h180v686c-4 177 45 284 224 277 194-8 279-136 279-336v-627h181c3 360-6 732 6 1082H885c-4-54-7-126-8-185h-3C809-64 714 20 528 20" id="L"/><path d="M891-1484c-201 251-362 514-362 954 0 441 161 704 362 955H701C500 176 342-90 342-532c0-440 159-704 359-952h190" id="M"/><path d="M528-1484c201 248 357 511 357 952 0 442-156 709-357 957H336C537 174 700-89 700-530c0-440-163-703-364-954h192" id="N"/><g id="i"><use transform="matrix(0.010850694444444442,0,0,0.010850694444444442,0,0)" xlink:href="#D"/><use transform="matrix(0.010850694444444442,0,0,0.010850694444444442,13.33550347222222,0)" xlink:href="#E"/><use transform="matrix(0.010850694444444442,0,0,0.010850694444444442,26.67100694444444,0)" xlink:href="#F"/><use transform="matrix(0.010850694444444442,0,0,0.010850694444444442,40.00651041666666,0)" xlink:href="#G"/><use transform="matrix(0.010850694444444442,0,0,0.010850694444444442,53.34201388888888,0)" xlink:href="#H"/><use transform="matrix(0.010850694444444442,0,0,0.010850694444444442,66.6775173611111,0)" xlink:href="#I"/><use transform="matrix(0.010850694444444442,0,0,0.010850694444444442,80.01302083333331,0)" xlink:href="#J"/><use transform="matrix(0.010850694444444442,0,0,0.010850694444444442,93.34852430555554,0)" xlink:href="#E"/><use transform="matrix(0.010850694444444442,0,0,0.010850694444444442,106.68402777777774,0)" xlink:href="#K"/><use transform="matrix(0.010850694444444442,0,0,0.010850694444444442,120.01953124999996,0)" xlink:href="#D"/><use transform="matrix(0.010850694444444442,0,0,0.010850694444444442,133.35503472222217,0)" xlink:href="#L"/><use transform="matrix(0.010850694444444442,0,0,0.010850694444444442,146.6905381944444,0)" xlink:href="#H"/><use transform="matrix(0.010850694444444442,0,0,0.010850694444444442,160.02604166666663,0)" xlink:href="#M"/><use transform="matrix(0.010850694444444442,0,0,0.010850694444444442,173.36154513888886,0)" xlink:href="#N"/></g><path d="M354-322c-2 123 60 204 176 205 51 1 114-10 150-20v127C647 7 557 20 506 20 294 20 188-92 188-315v-652H31v-80l157-69 70-234h96v254h318v129H354v645" id="O"/><path d="M621-1116c316 0 501 239 501 567 0 339-180 575-508 569S119-212 115-549c-4-339 178-567 506-567zm-5 141c-239 0-329 168-329 426 0 255 93 430 331 430s332-174 332-430-95-426-334-426" id="P"/><path d="M1141-549c0 329-147 569-455 569-159 0-273-61-344-161h-12c23 199 7 418 12 633H176v-1588h135l23 150h8c77-108 175-170 344-170 311 0 455 237 455 567zm-172-2c0-242-88-424-307-424-256 0-323 154-320 426 3 280 68 430 324 430 213 0 303-196 303-432" id="Q"/><path d="M84-473v-152h491v152H84" id="R"/><path d="M342 0H176v-1556h166V0" id="S"/><path d="M995-51C878-2 799 19 639 20c-329 2-524-221-524-559 0-326 172-577 481-577 278 0 451 210 446 493v105H287c4 242 121 392 358 393 118 0 235-25 350-74v148zM864-653c2-195-85-324-270-324-190 0-288 139-303 324h573" id="T"/><path d="M516-150c94-315 146-423 332-946h178L610 0H416L0-1096h178c98 281 253 670 330 946h8" id="U"/><g id="j"><use transform="matrix(0.010850694444444442,0,0,0.010850694444444442,0,0)" xlink:href="#O"/><use transform="matrix(0.010850694444444442,0,0,0.010850694444444442,7.845052083333332,0)" xlink:href="#P"/><use transform="matrix(0.010850694444444442,0,0,0.010850694444444442,21.267361111111107,0)" xlink:href="#Q"/><use transform="matrix(0.010850694444444442,0,0,0.010850694444444442,34.884982638888886,0)" xlink:href="#R"/><use transform="matrix(0.010850694444444442,0,0,0.010850694444444442,42.03559027777777,0)" xlink:href="#S"/><use transform="matrix(0.010850694444444442,0,0,0.010850694444444442,47.65624999999999,0)" xlink:href="#T"/><use transform="matrix(0.010850694444444442,0,0,0.010850694444444442,59.678819444444436,0)" xlink:href="#U"/><use transform="matrix(0.010850694444444442,0,0,0.010850694444444442,70.81163194444443,0)" xlink:href="#T"/><use transform="matrix(0.010850694444444442,0,0,0.010850694444444442,83.27907986111109,0)" xlink:href="#S"/></g><path d="M575-1430c-169 0-190 146-184 334h279v129H391V0H225v-967H29v-75l196-60c-15-299 97-465 353-465 58 0 126 12 204 35l-43 133c-64-21-119-31-164-31" id="V"/><path d="M563 20c-271 0-399-123-399-399v-717h168v711c1 177 76 266 252 266 250 0 331-135 331-401v-576h166V0H944l-24-147h-9C848-44 724 20 563 20" id="W"/><path d="M694-1116c270 0 399 125 398 401V0H926v-709c-1-177-76-266-252-266-250 0-332 133-332 400V0H176v-1096h135l27 150h8c62-101 190-170 348-170" id="X"/><path d="M287-543c-1 247 91 418 323 418 91 0 185-20 281-59v147C818 1 725 20 614 20c-329 0-499-221-499-561 0-349 172-575 510-575 96 0 221 26 282 57l-51 141c-61-25-157-50-235-51-223 0-334 142-334 426" id="Y"/><path d="M342 0H176v-1096h166V0zm-82-1282c-61 0-98-43-98-111 0-69 36-110 98-110 59 0 98 43 98 110s-39 111-98 111" id="Z"/><g id="k"><use transform="matrix(0.010850694444444442,0,0,0.010850694444444442,0,0)" xlink:href="#V"/><use transform="matrix(0.010850694444444442,0,0,0.010850694444444442,7.530381944444443,0)" xlink:href="#W"/><use transform="matrix(0.010850694444444442,0,0,0.010850694444444442,21.169704861111107,0)" xlink:href="#X"/><use transform="matrix(0.010850694444444442,0,0,0.010850694444444442,34.80902777777777,0)" xlink:href="#Y"/><use transform="matrix(0.010850694444444442,0,0,0.010850694444444442,45.3884548611111,0)" xlink:href="#O"/><use transform="matrix(0.010850694444444442,0,0,0.010850694444444442,53.23350694444442,0)" xlink:href="#Z"/><use transform="matrix(0.010850694444444442,0,0,0.010850694444444442,58.85416666666664,0)" xlink:href="#P"/><use transform="matrix(0.010850694444444442,0,0,0.010850694444444442,72.27647569444443,0)" xlink:href="#X"/></g><path d="M340-893c80-153 237-262 467-211l-23 154c-45-10-85-15-120-15-184-3-322 182-322 377V0H176v-1096h137l19 203h8" id="aa"/><path d="M1368-1116c259 2 372 131 371 401V0h-166v-713c0-168-66-262-230-262-221 0-303 131-303 363V0H874v-713c-1-169-66-262-231-262-235 0-301 142-301 400V0H176v-1096h135l27 150h8c56-99 174-170 324-170 171 0 283 62 336 186h8c60-108 189-187 354-186" id="ab"/><path d="M502-977c-130 0-238 32-238 139 0 75 39 101 95 134 33 19 97 46 192 81 130 48 217 95 263 143s69 108 69 181C883-73 695 20 449 20 304 20 190-3 109-49v-154c91 47 216 86 344 86 149 0 270-36 270-168 0-43-21-76-55-109-56-55-367-158-434-208-74-55-128-109-128-225 0-327 490-342 754-217l-59 135c-110-45-210-68-299-68" id="ac"/><g id="l"><use transform="matrix(0.010850694444444442,0,0,0.010850694444444442,0,0)" xlink:href="#Q"/><use transform="matrix(0.010850694444444442,0,0,0.010850694444444442,13.617621527777775,0)" xlink:href="#aa"/><use transform="matrix(0.010850694444444442,0,0,0.010850694444444442,22.243923611111107,0)" xlink:href="#P"/><use transform="matrix(0.010850694444444442,0,0,0.010850694444444442,35.666232638888886,0)" xlink:href="#ab"/><use transform="matrix(0.010850694444444442,0,0,0.010850694444444442,56.33680555555556,0)" xlink:href="#Z"/><use transform="matrix(0.010850694444444442,0,0,0.010850694444444442,61.95746527777778,0)" xlink:href="#ac"/><use transform="matrix(0.010850694444444442,0,0,0.010850694444444442,72.55859374999999,0)" xlink:href="#T"/></g><path d="M839-1335c-182-6-269 67-259 253h491v142H580V0H400v-940H138v-142h262c-15-293 132-408 418-402 94 2 200 7 281 21v145c-75-10-177-14-260-17" id="ad"/><path d="M148-1120c216-7 379-89 463-229h166v1204h353V0H157v-145h439v-1021c-79 124-254 184-448 194v-148" id="ae"/><g id="m"><use transform="matrix(0.010850694444444442,0,0,0.010850694444444442,0,0)" xlink:href="#ad"/><use transform="matrix(0.010850694444444442,0,0,0.010850694444444442,13.33550347222222,0)" xlink:href="#ae"/></g><path d="M745-142h380V0H143v-142h422v-798H246v-142h499v940zM545-1292v-192h200v192H545" id="af"/><path d="M715 0H502L69-1082h202c94 253 197 500 285 758 19 57 36 126 52 183 96-335 234-626 350-941h201" id="ag"/><path d="M914 0L548-499l-132 98V0H236v-1484h180v927l475-525h211L663-617 1125 0H914" id="ah"/><path d="M865-914c-3-187-2-380-2-570h180v1261c0 76 1 155 6 223H877c-8-49-9-116-10-174h-5C801-44 708 26 530 26c-135 0-234-46-297-139s-95-232-95-419c0-377 131-566 392-566 176 0 271 63 335 184zm-286-51c-222 0-255 197-255 427 0 229 31 425 253 425 237 0 286-195 286-441 0-238-52-411-284-411" id="ai"/><g id="n"><use transform="matrix(0.010850694444444442,0,0,0.010850694444444442,0,0)" xlink:href="#af"/><use transform="matrix(0.010850694444444442,0,0,0.010850694444444442,13.33550347222222,0)" xlink:href="#H"/><use transform="matrix(0.010850694444444442,0,0,0.010850694444444442,26.67100694444444,0)" xlink:href="#ag"/><use transform="matrix(0.010850694444444442,0,0,0.010850694444444442,40.00651041666666,0)" xlink:href="#G"/><use transform="matrix(0.010850694444444442,0,0,0.010850694444444442,53.34201388888888,0)" xlink:href="#ah"/><use transform="matrix(0.010850694444444442,0,0,0.010850694444444442,66.6775173611111,0)" xlink:href="#E"/><use transform="matrix(0.010850694444444442,0,0,0.010850694444444442,80.01302083333331,0)" xlink:href="#ai"/></g><path d="M698-1104c312 3 392 244 392 558 0 315-82 566-392 566-169 0-277-65-331-184h-5c8 188 2 394 4 589H185V-858c0-76-1-156-6-224h175c6 52 9 120 10 178h4c58-122 150-202 330-200zm-49 991c225 0 255-203 255-433 0-225-32-419-253-419-236 0-285 192-285 441 0 237 53 411 283 411" id="aj"/><g id="o"><use transform="matrix(0.010850694444444442,0,0,0.010850694444444442,0,0)" xlink:href="#aj"/><use transform="matrix(0.010850694444444442,0,0,0.010850694444444442,13.33550347222222,0)" xlink:href="#ae"/></g><path d="M736-142h380V0H134v-142h422v-1200H267v-142h469v1342" id="ak"/><g id="p"><use transform="matrix(0.010850694444444442,0,0,0.010850694444444442,0,0)" xlink:href="#D"/><use transform="matrix(0.010850694444444442,0,0,0.010850694444444442,13.33550347222222,0)" xlink:href="#E"/><use transform="matrix(0.010850694444444442,0,0,0.010850694444444442,26.67100694444444,0)" xlink:href="#F"/><use transform="matrix(0.010850694444444442,0,0,0.010850694444444442,40.00651041666666,0)" xlink:href="#G"/><use transform="matrix(0.010850694444444442,0,0,0.010850694444444442,53.34201388888888,0)" xlink:href="#ak"/><use transform="matrix(0.010850694444444442,0,0,0.010850694444444442,66.6775173611111,0)" xlink:href="#ag"/><use transform="matrix(0.010850694444444442,0,0,0.010850694444444442,80.01302083333331,0)" xlink:href="#E"/><use transform="matrix(0.010850694444444442,0,0,0.010850694444444442,93.34852430555554,0)" xlink:href="#ai"/></g><path d="M1060-1016c0 191-128 285-295 323v4c154 18 262 91 313 209 14 35 21 72 21 110 0 277-194 390-478 390-292 0-457-129-493-382l186-17c24 161 121 250 307 250 172 1 298-80 291-247-8-208-220-239-446-233v-156c217 9 409-34 409-232 0-152-102-225-264-225-159 0-264 88-278 233l-181-14c33-239 196-367 461-367 264 0 447 102 447 354" id="al"/><g id="q"><use transform="matrix(0.010850694444444442,0,0,0.010850694444444442,0,0)" xlink:href="#ad"/><use transform="matrix(0.010850694444444442,0,0,0.010850694444444442,13.33550347222222,0)" xlink:href="#al"/></g><g id="r"><use transform="matrix(0.010850694444444442,0,0,0.010850694444444442,0,0)" xlink:href="#D"/><use transform="matrix(0.010850694444444442,0,0,0.010850694444444442,13.33550347222222,0)" xlink:href="#E"/><use transform="matrix(0.010850694444444442,0,0,0.010850694444444442,26.67100694444444,0)" xlink:href="#J"/><use transform="matrix(0.010850694444444442,0,0,0.010850694444444442,40.00651041666666,0)" xlink:href="#L"/><use transform="matrix(0.010850694444444442,0,0,0.010850694444444442,53.34201388888888,0)" xlink:href="#D"/><use transform="matrix(0.010850694444444442,0,0,0.010850694444444442,66.6775173611111,0)" xlink:href="#H"/></g><path d="M611-1370c266 0 451 106 451 368 0 147-77 243-154 327-132 144-316 255-451 395-42 44-75 87-96 134h723V0H144v-117c124-264 387-411 582-603 73-72 151-147 151-271 0-161-104-231-266-231-163 0-249 90-268 238l-184-17c35-233 185-369 452-369" id="am"/><g id="s"><use transform="matrix(0.010850694444444442,0,0,0.010850694444444442,0,0)" xlink:href="#ad"/><use transform="matrix(0.010850694444444442,0,0,0.010850694444444442,13.33550347222222,0)" xlink:href="#am"/></g><g id="t"><use transform="matrix(0.010850694444444442,0,0,0.010850694444444442,0,0)" xlink:href="#aj"/><use transform="matrix(0.010850694444444442,0,0,0.010850694444444442,13.33550347222222,0)" xlink:href="#al"/></g><g id="u"><use transform="matrix(0.010850694444444442,0,0,0.010850694444444442,0,0)" xlink:href="#aj"/><use transform="matrix(0.010850694444444442,0,0,0.010850694444444442,13.33550347222222,0)" xlink:href="#am"/></g><path d="M631 20c-350 0-501-215-501-562 0-355 162-560 502-560 250 0 399 118 446 323l-192 14c-23-124-109-196-262-196-242 0-305 171-305 415 1 245 61 427 304 427 151 0 248-77 267-215l190 12C1039-107 883 20 631 20" id="an"/><g id="v"><use transform="matrix(0.010850694444444442,0,0,0.010850694444444442,0,0)" xlink:href="#aj"/><use transform="matrix(0.010850694444444442,0,0,0.010850694444444442,13.33550347222222,0)" xlink:href="#D"/><use transform="matrix(0.010850694444444442,0,0,0.010850694444444442,26.67100694444444,0)" xlink:href="#G"/><use transform="matrix(0.010850694444444442,0,0,0.010850694444444442,40.00651041666666,0)" xlink:href="#an"/><use transform="matrix(0.010850694444444442,0,0,0.010850694444444442,53.34201388888888,0)" xlink:href="#E"/><use transform="matrix(0.010850694444444442,0,0,0.010850694444444442,66.6775173611111,0)" xlink:href="#F"/><use transform="matrix(0.010850694444444442,0,0,0.010850694444444442,80.01302083333331,0)" xlink:href="#F"/></g></defs></g></svg>