<svg xmlns="http://www.w3.org/2000/svg" xmlns:xlink="http://www.w3.org/1999/xlink" xmlns:lucid="lucid" width="1402" height="1262.5"><g transform="translate(-419 60.5)" lucid:page-tab-id="0_0"><path d="M0-500h2000v2000H0z" fill="#fff"/><path d="M1000 160c0 22.1-17.9 40-40 40s-40-17.9-40-40 17.9-40 40-40 40 17.9 40 40z" stroke="#000" fill="#fff"/><path d="M1000 320c0 22.1-17.9 40-40 40s-40-17.9-40-40 17.9-40 40-40 40 17.9 40 40z" stroke="#000" fill="#3a414a"/><path d="M1320 320c0 22.1-17.9 40-40 40s-40-17.9-40-40 17.9-40 40-40 40 17.9 40 40z" stroke="#000" fill="#fff"/><path d="M1000 480c0 22.1-17.9 40-40 40s-40-17.9-40-40 17.9-40 40-40 40 17.9 40 40z" stroke="#000" fill="#3a414a"/><path d="M1320 480c0 22.1-17.9 40-40 40s-40-17.9-40-40 17.9-40 40-40 40 17.9 40 40z" stroke="#000" fill="#fff"/><path d="M1000 640c0 22.1-17.9 40-40 40s-40-17.9-40-40 17.9-40 40-40 40 17.9 40 40z" stroke="#000" fill="#3a414a"/><path d="M960 201v62.12" stroke="#000" fill="none"/><path d="M960 200.5l.48-.02v.53h-.96v-.53z" stroke="#000" stroke-width=".05"/><path d="M960 277.88l-4.63-14.26h9.26z" stroke="#000"/><path d="M1280 361v62.12" stroke="#000" fill="none"/><path d="M1280 360.5l.47-.02v.53h-.94v-.53z" stroke="#000" stroke-width=".05"/><path d="M1280 437.88l-4.63-14.26h9.27z" stroke="#000"/><path d="M960 521v62.12" stroke="#000" fill="none"/><path d="M960 520.5l.48-.02v.53h-.96v-.53z" stroke="#000" stroke-width=".05"/><path d="M960 597.88l-4.63-14.26h9.26z" stroke="#000"/><path d="M960 361v1.95m0 3.9v3.9m0 3.9v3.9m0 3.9v3.9m0 3.9v3.9m0 3.9v3.9m0 3.9v3.9m0 3.9v3.9m0 3.9v3.9m0 3.9v3.9m0 3.9V439" stroke="#000" fill="none"/><path d="M960 360.5l.48-.02v.53h-.96v-.53zM960.48 439.53l-.47-.03-.48.02V439h.96z" stroke="#000" stroke-width=".05"/><path d="M1640 640c0 22.1-17.9 40-40 40s-40-17.9-40-40 17.9-40 40-40 40 17.9 40 40zM1640 800c0 22.1-17.9 40-40 40s-40-17.9-40-40 17.9-40 40-40 40 17.9 40 40z" stroke="#000" fill="#fff"/><path d="M1000 800c0 22.1-17.9 40-40 40s-40-17.9-40-40 17.9-40 40-40 40 17.9 40 40z" stroke="#000" fill="#3a414a"/><path d="M1000 960c0 22.1-17.9 40-40 40s-40-17.9-40-40 17.9-40 40-40 40 17.9 40 40z" stroke="#000" fill="#fff"/><path d="M1600 681v62.12" stroke="#000" fill="none"/><path d="M1600 680.5l.47-.02v.53h-.94v-.53z" stroke="#000" stroke-width=".05"/><path d="M1600 757.88l-4.63-14.26h9.27z" stroke="#000"/><path d="M960 841v62.12" stroke="#000" fill="none"/><path d="M960 840.5l.48-.02v.53h-.96v-.53z" stroke="#000" stroke-width=".05"/><path d="M960 917.88l-4.63-14.26h9.26z" stroke="#000"/><path d="M960 681v1.95m0 3.9v3.9m0 3.9v3.9m0 3.9v3.9m0 3.9v3.9m0 3.9v3.9m0 3.9v3.9m0 3.9v3.9m0 3.9v3.9m0 3.9v3.9m0 3.9V759" stroke="#000" fill="none"/><path d="M960 680.5l.48-.02v.53h-.96v-.53zM960.48 759.53l-.47-.03-.48.02V759h.96z" stroke="#000" stroke-width=".05"/><path d="M1001 320h222.12" stroke="#000" fill="none"/><path d="M1001 320.48h-.53l.03-.47-.02-.48h.53z" stroke="#000" stroke-width=".05"/><path d="M1237.88 320l-14.26 4.63v-9.26z" stroke="#000"/><path d="M1239 480h-1.98m-3.97 0h-3.97m-3.96 0h-3.97m-3.97 0h-3.96m-3.97 0h-3.96m-3.98 0h-3.97m-3.96 0h-3.98m-3.97 0h-3.96m-3.98 0h-3.96m-3.97 0h-3.98m-3.96 0h-3.97m-3.98 0h-3.96m-3.97 0h-3.98m-3.96 0h-3.97m-3.98 0h-3.96m-3.97 0h-3.97m-3.97 0h-3.97m-3.97 0h-3.97m-3.97 0h-3.97m-3.97 0h-3.96m-3.97 0h-3.97m-3.96 0h-3.97m-3.97 0h-3.96m-3.97 0h-3.96m-3.97 0h-3.97m-3.97 0h-3.96m-3.97 0h-3.96m-3.97 0h-3.97m-3.96 0h-2" stroke="#000" fill="none"/><path d="M1239.5 480l.02.48h-.53v-.96h.53z" stroke="#000" stroke-width=".05"/><path d="M1002.12 480l14.26-4.63v9.26z" stroke="#000"/><path d="M1001 640h542.12" stroke="#000" fill="none"/><path d="M1001 640.48h-.53l.03-.47-.02-.48h.53z" stroke="#000" stroke-width=".05"/><path d="M1557.88 640l-14.26 4.63v-9.26z" stroke="#000"/><path d="M1559 800h-2m-3.98 0h-4m-3.97 0h-4m-3.97 0h-4m-3.98 0h-3.98m-4 0h-3.97m-4 0h-3.98m-3.98 0h-4m-4 0h-3.97m-4 0h-3.97m-4 0h-3.98m-3.98 0h-4m-3.97 0h-4m-3.98 0h-3.98m-4 0h-3.97m-4 0h-3.98m-3.98 0h-4m-3.98 0h-3.98m-4 0h-3.97m-3.98 0h-4m-3.97 0h-4m-3.97 0h-4m-3.98 0h-3.98m-4 0h-3.98m-3.98 0h-4m-3.97 0h-4m-4 0h-3.97m-4 0h-3.97m-4 0h-3.98m-3.98 0h-4m-3.98 0h-3.98m-4 0h-3.97m-4 0h-3.98m-4 0h-3.98m-4 0h-3.97m-4 0H1278m-4 0H1270m-3.98 0h-4m-3.97 0h-4m-3.98 0h-3.98m-4 0h-3.98m-4 0h-3.98m-3.98 0h-4m-3.98 0h-3.98m-4 0h-3.97m-4 0h-3.98m-3.98 0h-4m-3.97 0h-4m-3.98 0h-3.98m-4 0h-3.97m-4 0h-3.98m-4 0h-3.98m-4 0h-3.97m-4 0h-3.98m-3.98 0h-4m-3.98 0h-4m-3.97 0h-4m-3.98 0h-3.98m-4 0h-4m-3.97 0h-4m-3.97 0h-4m-3.98 0h-3.98m-4 0h-3.98m-3.98 0h-4m-3.97 0h-4m-3.98 0h-4m-3.98 0h-3.98m-4 0h-3.98m-3.98 0h-2" stroke="#000" fill="none"/><path d="M1559.5 800l.02.48h-.53v-.96h.53z" stroke="#000" stroke-width=".05"/><path d="M1002.12 800l14.26-4.63v9.26z" stroke="#000"/><path d="M681 160h222.62" stroke="#000" fill="none"/><path d="M681 160.47h-.53l.03-.46-.02-.47h.53z" stroke="#000" stroke-width=".05"/><path d="M918.38 160l-14.26 4.63v-9.26z" stroke="#000"/><path d="M680 960c0 22.1-17.9 40-40 40s-40-17.9-40-40 17.9-40 40-40 40 17.9 40 40z" stroke="#000" fill="#3a414a"/><path d="M640 201v2m0 3.98v4m0 3.98v4m0 3.98v4m0 3.98v4m0 3.98v3.98m0 4v3.98m0 4v3.98m0 4v3.98m0 4v3.98m0 3.98v4m0 3.98v4m0 3.98v4m0 3.98v4m0 3.97v3.98m0 4v3.98m0 4v3.98m0 4v3.98m0 4v3.98m0 3.98v4m0 3.98v4m0 3.98v4m0 3.98v4m0 3.98v3.98m0 4v3.98m0 4v3.98m0 4v3.98m0 4v3.97m0 3.98v4m0 3.98v4m0 3.98v4m0 3.98v4m0 3.98v3.98m0 4v3.98m0 4v3.98m0 4v3.98m0 4v3.97m0 3.98v4m0 3.98v4m0 3.98v4m0 3.98v4m0 3.97v3.98m0 4v3.98m0 4v3.98m0 4V554m0 4V562m0 3.98v4m0 3.98v4m0 3.98v4m0 3.98v4m0 3.97v3.98m0 4v3.98m0 4v3.98m0 4v3.98m0 3.98v4m0 3.98v4m0 3.98v4m0 3.98v4m0 3.98v4m0 3.97v3.98m0 4v3.98m0 4v3.98m0 4v3.98m0 4v3.97m0 3.98v4m0 3.98v4m0 3.98v4m0 3.98v4m0 3.97v3.98m0 4v3.98m0 4v3.98m0 4v3.98m0 4v3.97m0 3.98v4m0 3.98v4m0 3.98v4m0 3.98v3.98m0 4v3.98m0 4v3.98m0 4v3.98m0 4v3.98m0 4v3.97m0 3.98v4m0 3.98v4m0 3.98v4m0 3.98v3.98m0 4v3.98m0 4v3.98m0 4v3.98m0 4V913m0 3.98v2" stroke="#000" fill="none"/><path d="M640 200.5l.48-.02v.53h-.96v-.53zM640.48 919.53l-.47-.03-.48.02V919h.96z" stroke="#000" stroke-width=".05"/><path d="M640 41v78" stroke="#000" fill="none"/><path d="M640.48 41h-.96v-.5h.96zM640.48 119.53l-.47-.03-.48.02V119h.96z" stroke="#000" stroke-width=".05"/><path d="M680 160c0 22.1-17.9 40-40 40s-40-17.9-40-40 17.9-40 40-40 40 17.9 40 40z" stroke="#000" fill="#3a414a"/><path d="M440 126a6 6 0 0 1 6-6h107.5a6 6 0 0 1 6 6v68a6 6 0 0 1-6 6H446a6 6 0 0 1-6-6z" stroke="#000" stroke-opacity="0" stroke-width="2" fill="#fff" fill-opacity="0"/><use xlink:href="#a" transform="matrix(1,0,0,1,445,124.99999999999989) translate(41.66449652777778 29.58333333333333)"/><use xlink:href="#b" transform="matrix(1,0,0,1,445,124.99999999999989) translate(8.325737847222236 53.00998263888888)"/><path d="M640 1001v128.67" stroke="#3a414a" fill="none"/><path d="M640 1000.5l.48-.02v.53h-.96v-.53z" stroke="#3a414a" stroke-width=".05" fill="#3a414a"/><path d="M655 1144.5c0 8.28-6.72 15-15 15-8.28 0-15-6.72-15-15 0-8.28 6.72-15 15-15 8.28 0 15 6.72 15 15z" stroke="#3a414a" fill="#fff"/><path d="M1680 766a6 6 0 0 1 6-6h108a6 6 0 0 1 6 6v68a6 6 0 0 1-6 6h-108a6 6 0 0 1-6-6z" stroke="#000" stroke-opacity="0" stroke-width="2" fill="#fff" fill-opacity="0"/><use xlink:href="#c" transform="matrix(1,0,0,1,1685,764.9999999999999) translate(41.66449652777778 29.42708333333333)"/><use xlink:href="#d" transform="matrix(1,0,0,1,1685,764.9999999999999) translate(8.325737847222236 52.85373263888888)"/><path d="M1360 446a6 6 0 0 1 6-6h108a6 6 0 0 1 6 6v68a6 6 0 0 1-6 6h-108a6 6 0 0 1-6-6z" stroke="#000" stroke-opacity="0" stroke-width="2" fill="#fff" fill-opacity="0"/><use xlink:href="#e" transform="matrix(1,0,0,1,1365,445) translate(41.66449652777778 29.42708333333333)"/><use xlink:href="#d" transform="matrix(1,0,0,1,1365,445) translate(8.325737847222236 52.85373263888888)"/><path d="M760 286a6 6 0 0 1 6-6h108a6 6 0 0 1 6 6v68.9a6 6 0 0 1-6 6H766a6 6 0 0 1-6-6z" stroke="#000" stroke-opacity="0" stroke-width="2" fill="#fff" fill-opacity="0"/><use xlink:href="#e" transform="matrix(1,0,0,1,765,285) translate(41.66449652777778 29.58333333333333)"/><use xlink:href="#b" transform="matrix(1,0,0,1,765,285) translate(8.325737847222236 53.00998263888888)"/><path d="M760 606a6 6 0 0 1 6-6h108a6 6 0 0 1 6 6v68a6 6 0 0 1-6 6H766a6 6 0 0 1-6-6z" stroke="#000" stroke-opacity="0" stroke-width="2" fill="#fff" fill-opacity="0"/><use xlink:href="#c" transform="matrix(1,0,0,1,765,605.0000000000002) translate(41.66449652777778 29.42708333333333)"/><use xlink:href="#b" transform="matrix(1,0,0,1,765,605.0000000000002) translate(8.325737847222236 52.85373263888888)"/><path d="M520-40h240v80H520z" stroke="#000" fill="#fff"/><use xlink:href="#f" transform="matrix(1,0,0,1,525,-35) translate(21.651475694444414 42.56293402777778)"/><path d="M840-40h240v80H840z" stroke="#000" fill="#fff"/><use xlink:href="#g" transform="matrix(1,0,0,1,845,-35) translate(101.66449652777777 42.56293402777778)"/><path d="M1160-40h240v80h-240z" stroke="#000" fill="#fff"/><use xlink:href="#h" transform="matrix(1,0,0,1,1165,-35) translate(101.66449652777777 42.56293402777778)"/><path d="M1480-40h240v80h-240z" stroke="#000" fill="#fff"/><use xlink:href="#i" transform="matrix(1,0,0,1,1485,-35) translate(101.66449652777777 42.56293402777778)"/><path d="M919 960h-1.98m-3.97 0h-3.97m-3.96 0h-3.97m-3.97 0h-3.96m-3.97 0h-3.97m-3.96 0h-3.97m-3.97 0h-3.96m-3.97 0h-3.97m-3.96 0h-3.97m-3.97 0h-3.96m-3.97 0h-3.97m-3.96 0h-3.97m-3.97 0h-3.96m-3.97 0h-3.97m-3.96 0h-3.97m-3.97 0h-3.96m-3.97 0h-3.96m-3.98 0h-3.97m-3.96 0h-3.98m-3.97 0h-3.96m-3.98 0h-3.96m-3.97 0h-3.97m-3.97 0h-3.97m-3.97 0h-3.97m-3.96 0h-3.97m-3.97 0h-3.96m-3.97 0h-3.96m-3.97 0h-3.97m-3.96 0h-2" stroke="#3a414a" fill="none"/><path d="M919.5 960l.02.48H919v-.96h.53z" stroke="#3a414a" stroke-width=".05" fill="#3a414a"/><path d="M682.12 960l14.26-4.63v9.26z" stroke="#3a414a" fill="#3a414a"/><path d="M593.62 199.72l17.27-11.48M593.63 199.72l-.43.28M610.88 188.25l.43-.3" stroke="#3a414a" fill="none"/><path d="M480 546a6 6 0 0 1 6-6h108a6 6 0 0 1 6 6v68a6 6 0 0 1-6 6H486a6 6 0 0 1-6-6z" stroke="#000" stroke-opacity="0" stroke-width="2" fill="#fff" fill-opacity="0"/><use xlink:href="#j" transform="matrix(1,0,0,1,485,545) translate(1.6579861111111285 42.55208333333333)"/><path d="M600.5 580h39" stroke="#3a414a" fill="none"/><path d="M600.5 580.48h-.5v-.96h.5z" stroke="#3a414a" stroke-width=".05" fill="#3a414a"/><path d="M639.5 580h.5" stroke="#3a414a" fill="none"/><path d="M1360 286.9a6 6 0 0 1 6-6h108a6 6 0 0 1 6 6v68a6 6 0 0 1-6 6h-108a6 6 0 0 1-6-6z" stroke="#000" stroke-opacity="0" stroke-width="2" fill="#fff" fill-opacity="0"/><use xlink:href="#e" transform="matrix(1,0,0,1,1365,285.89892466619597) translate(41.66449652777778 29.42708333333333)"/><use xlink:href="#k" transform="matrix(1,0,0,1,1365,285.89892466619597) translate(14.993489583333343 52.85373263888888)"/><path d="M1359.5 320.9h-38.56" stroke="#3a414a" fill="none"/><path d="M1360 321.37h-.5v-.95h.5zM1320.96 321.37h-.55l.07-.95h.5z" stroke="#3a414a" stroke-width=".05" fill="#3a414a"/><path d="M1359.5 480H1321" stroke="#3a414a" fill="none"/><path d="M1360 480.48h-.5v-.96h.5zM1321 480.48h-.53l.03-.47-.02-.48h.53z" stroke="#3a414a" stroke-width=".05" fill="#3a414a"/><path d="M1679.5 800H1641" stroke="#3a414a" fill="none"/><path d="M1680 800.48h-.5v-.96h.5zM1641 800.48h-.53l.03-.47-.02-.48h.53z" stroke="#3a414a" stroke-width=".05" fill="#3a414a"/><path d="M1680 606a6 6 0 0 1 6-6h108a6 6 0 0 1 6 6v68a6 6 0 0 1-6 6h-108a6 6 0 0 1-6-6z" stroke="#000" stroke-opacity="0" stroke-width="2" fill="#fff" fill-opacity="0"/><use xlink:href="#c" transform="matrix(1,0,0,1,1685,605) translate(41.66449652777778 29.42708333333333)"/><use xlink:href="#k" transform="matrix(1,0,0,1,1685,605) translate(14.993489583333343 52.85373263888888)"/><path d="M1679.5 640H1641" stroke="#3a414a" fill="none"/><path d="M1680 640.48h-.5v-.96h.5zM1641 640.48h-.53l.03-.47-.02-.48h.53z" stroke="#3a414a" stroke-width=".05" fill="#3a414a"/><path d="M880.5 640H919" stroke="#3a414a" fill="none"/><path d="M880.5 640.48h-.5v-.96h.5zM919.5 640l.02.48H919v-.96h.53z" stroke="#3a414a" stroke-width=".05" fill="#3a414a"/><path d="M880.5 320.45h38.52" stroke="#3a414a" fill="none"/><path d="M880.5 320.92h-.5v-.95h.5zM919.5 320l.03.92H919v-.95h.5z" stroke="#3a414a" stroke-width=".05" fill="#3a414a"/><path d="M760 367.8a6 6 0 0 1 6-6h108a6 6 0 0 1 6 6v68a6 6 0 0 1-6 6H766a6 6 0 0 1-6-6z" stroke="#000" stroke-opacity="0" stroke-width="2" fill="#fff" fill-opacity="0"/><use xlink:href="#j" transform="matrix(1,0,0,1,765,366.79784933239193) translate(1.6579861111111285 42.55208333333333)"/><path d="M880.5 401.8h79" stroke="#3a414a" fill="none"/><path d="M880.5 402.27h-.5v-.95h.5z" stroke="#3a414a" stroke-width=".05" fill="#3a414a"/><path d="M959.5 401.8h.5" stroke="#3a414a" fill="none"/><path d="M760 686a6 6 0 0 1 6-6h108a6 6 0 0 1 6 6v68a6 6 0 0 1-6 6H766a6 6 0 0 1-6-6z" stroke="#000" stroke-opacity="0" stroke-width="2" fill="#fff" fill-opacity="0"/><use xlink:href="#j" transform="matrix(1,0,0,1,765,685.0000000000002) translate(1.6579861111111285 42.55208333333333)"/><path d="M880.5 720h79" stroke="#3a414a" fill="none"/><path d="M880.5 720.48h-.5v-.96h.5z" stroke="#3a414a" stroke-width=".05" fill="#3a414a"/><path d="M959.5 720h.5" stroke="#3a414a" fill="none"/><path d="M1040 126a6 6 0 0 1 6-6h108a6 6 0 0 1 6 6v68a6 6 0 0 1-6 6h-108a6 6 0 0 1-6-6z" stroke="#000" stroke-opacity="0" stroke-width="2" fill="#fff" fill-opacity="0"/><use xlink:href="#a" transform="matrix(1,0,0,1,1045,124.99999999999989) translate(41.66449652777778 29.42708333333333)"/><use xlink:href="#k" transform="matrix(1,0,0,1,1045,124.99999999999989) translate(14.993489583333343 52.85373263888888)"/><path d="M1039.5 160H1001" stroke="#3a414a" fill="none"/><path d="M1040 160.47h-.5v-.94h.5zM1001 160.47h-.53l.03-.46-.02-.47h.53z" stroke="#3a414a" stroke-width=".05" fill="#3a414a"/><path d="M1040 926a6 6 0 0 1 6-6h108a6 6 0 0 1 6 6v68a6 6 0 0 1-6 6h-108a6 6 0 0 1-6-6z" stroke="#000" stroke-opacity="0" stroke-width="2" fill="#fff" fill-opacity="0"/><use xlink:href="#a" transform="matrix(1,0,0,1,1045,925) translate(41.66449652777778 29.42708333333333)"/><use xlink:href="#d" transform="matrix(1,0,0,1,1045,925) translate(8.325737847222236 52.85373263888888)"/><path d="M1039.5 960H1001" stroke="#3a414a" fill="none"/><path d="M1040 960.48h-.5v-.96h.5zM1001 960.48h-.53l.03-.47-.02-.48h.53z" stroke="#3a414a" stroke-width=".05" fill="#3a414a"/><path d="M440 926a6 6 0 0 1 6-6h107.5a6 6 0 0 1 6 6v68a6 6 0 0 1-6 6H446a6 6 0 0 1-6-6z" stroke="#000" stroke-opacity="0" stroke-width="2" fill="#fff" fill-opacity="0"/><use xlink:href="#a" transform="matrix(1,0,0,1,445,924.9999999999998) translate(41.66449652777778 29.58333333333333)"/><use xlink:href="#l" transform="matrix(1,0,0,1,445,924.9999999999998) translate(14.993489583333343 53.00998263888888)"/><path d="M560 160h39" stroke="#3a414a" fill="none"/><path d="M560 160.47h-.5v-.94h.5zM599.5 160l.02.47H599v-.94h.53z" stroke="#3a414a" stroke-width=".05" fill="#3a414a"/><path d="M560 960h39" stroke="#3a414a" fill="none"/><path d="M560 960.48h-.5v-.96h.5zM599.5 960l.02.48H599v-.96h.53z" stroke="#3a414a" stroke-width=".05" fill="#3a414a"/><path d="M760 446a6 6 0 0 1 6-6h108a6 6 0 0 1 6 6v68.9a6 6 0 0 1-6 6H766a6 6 0 0 1-6-6z" stroke="#000" stroke-opacity="0" stroke-width="2" fill="#fff" fill-opacity="0"/><g><use xlink:href="#e" transform="matrix(1,0,0,1,765,445.0000000000001) translate(41.66449652777778 29.58333333333333)"/><use xlink:href="#l" transform="matrix(1,0,0,1,765,445.0000000000001) translate(14.993489583333343 53.00998263888888)"/></g><path d="M880.5 480.45h38.52" stroke="#3a414a" fill="none"/><path d="M880.5 480.92h-.5v-.95h.5zM919.5 480l.03.92H919v-.95h.5z" stroke="#3a414a" stroke-width=".05" fill="#3a414a"/><path d="M760 766a6 6 0 0 1 6-6h108a6 6 0 0 1 6 6v68.9a6 6 0 0 1-6 6H766a6 6 0 0 1-6-6z" stroke="#000" stroke-opacity="0" stroke-width="2" fill="#fff" fill-opacity="0"/><g><use xlink:href="#c" transform="matrix(1,0,0,1,765,765) translate(41.66449652777778 29.58333333333333)"/><use xlink:href="#l" transform="matrix(1,0,0,1,765,765) translate(14.993489583333343 53.00998263888888)"/></g><path d="M880.5 800.45h39" stroke="#3a414a" fill="none"/><path d="M880.5 800.92h-.5v-.95h.5z" stroke="#3a414a" stroke-width=".05" fill="#3a414a"/><path d="M919.5 800.45h.5" stroke="#3a414a" fill="none"/><defs><path d="M839-1335c-182-6-269 67-259 253h491v142H580V0H400v-940H138v-142h262c-15-293 132-408 418-402 94 2 200 7 281 21v145c-75-10-177-14-260-17" id="m"/><path d="M148-1120c216-7 379-89 463-229h166v1204h353V0H157v-145h439v-1021c-79 124-254 184-448 194v-148" id="n"/><g id="a"><use transform="matrix(0.010850694444444442,0,0,0.010850694444444442,0,0)" xlink:href="#m"/><use transform="matrix(0.010850694444444442,0,0,0.010850694444444442,13.33550347222222,0)" xlink:href="#n"/></g><path d="M745-142h380V0H143v-142h422v-798H246v-142h499v940zM545-1292v-192h200v192H545" id="o"/><path d="M706-1102c241 0 344 136 343 381V0H868v-695c1-168-57-273-220-268-190 6-283 138-283 336V0H185c-3-360 6-732-6-1082h170c4 54 7 126 8 185h3c63-121 164-204 346-205" id="p"/><path d="M715 0H502L69-1082h202c94 253 197 500 285 758 19 57 36 126 52 183 96-335 234-626 350-941h201" id="q"/><path d="M615-1102c343 0 484 203 482 560-1 347-147 562-488 562-336 0-475-219-479-562-4-349 156-560 485-560zm-8 989c240 0 301-180 301-429 0-245-55-427-290-427-236 0-299 181-299 427 0 243 61 429 288 429" id="r"/><path d="M914 0L548-499l-132 98V0H236v-1484h180v927l475-525h211L663-617 1125 0H914" id="s"/><path d="M617-1102c355 0 481 238 477 599H322c5 222 84 388 301 388 144 0 244-59 284-166l158 45C1002-72 854 20 623 20c-342 0-490-220-490-568 0-346 151-554 484-554zm291 461c-18-192-90-328-289-328-194 0-287 128-295 328h584" id="t"/><path d="M865-914c-3-187-2-380-2-570h180v1261c0 76 1 155 6 223H877c-8-49-9-116-10-174h-5C801-44 708 26 530 26c-135 0-234-46-297-139s-95-232-95-419c0-377 131-566 392-566 176 0 271 63 335 184zm-286-51c-222 0-255 197-255 427 0 229 31 425 253 425 237 0 286-195 286-441 0-238-52-411-284-411" id="u"/><g id="b"><use transform="matrix(0.010850694444444442,0,0,0.010850694444444442,0,0)" xlink:href="#o"/><use transform="matrix(0.010850694444444442,0,0,0.010850694444444442,13.33550347222222,0)" xlink:href="#p"/><use transform="matrix(0.010850694444444442,0,0,0.010850694444444442,26.67100694444444,0)" xlink:href="#q"/><use transform="matrix(0.010850694444444442,0,0,0.010850694444444442,40.00651041666666,0)" xlink:href="#r"/><use transform="matrix(0.010850694444444442,0,0,0.010850694444444442,53.34201388888888,0)" xlink:href="#s"/><use transform="matrix(0.010850694444444442,0,0,0.010850694444444442,66.6775173611111,0)" xlink:href="#t"/><use transform="matrix(0.010850694444444442,0,0,0.010850694444444442,80.01302083333331,0)" xlink:href="#u"/></g><path d="M1060-1016c0 191-128 285-295 323v4c154 18 262 91 313 209 14 35 21 72 21 110 0 277-194 390-478 390-292 0-457-129-493-382l186-17c24 161 121 250 307 250 172 1 298-80 291-247-8-208-220-239-446-233v-156c217 9 409-34 409-232 0-152-102-225-264-225-159 0-264 88-278 233l-181-14c33-239 196-367 461-367 264 0 447 102 447 354" id="v"/><g id="c"><use transform="matrix(0.010850694444444442,0,0,0.010850694444444442,0,0)" xlink:href="#m"/><use transform="matrix(0.010850694444444442,0,0,0.010850694444444442,13.33550347222222,0)" xlink:href="#v"/></g><path d="M839-1102c70 0 148 7 206 17v167c-112-18-268-36-363 15-129 69-208 203-208 395V0H294c-10-367 32-789-52-1082h171c21 75 41 161 48 250h5c67-152 152-270 373-270" id="w"/><path d="M682 16c-209 0-323-80-324-285v-671H190v-142h170l58-282h120v282h432v142H538v652c2 114 60 155 182 155 106 0 209-16 297-34v137C921-4 806 16 682 16" id="x"/><path d="M528 20c-247 0-343-132-343-381v-721h180v686c-4 177 45 284 224 277 194-8 279-136 279-336v-627h181c3 360-6 732 6 1082H885c-4-54-7-126-8-185h-3C809-64 714 20 528 20" id="y"/><path d="M873-819c-18-114-119-146-250-146-163 0-245 50-245 151 0 151 170 148 294 185 182 54 388 94 388 320 0 240-189 325-439 329-245 4-410-69-454-268l159-31c24 133 136 168 295 165 144-2 270-31 270-171 0-164-195-160-331-202-167-52-350-87-350-299 0-218 173-315 413-313 220 2 373 77 412 260" id="z"/><g id="d"><use transform="matrix(0.010850694444444442,0,0,0.010850694444444442,0,0)" xlink:href="#w"/><use transform="matrix(0.010850694444444442,0,0,0.010850694444444442,13.33550347222222,0)" xlink:href="#t"/><use transform="matrix(0.010850694444444442,0,0,0.010850694444444442,26.67100694444444,0)" xlink:href="#x"/><use transform="matrix(0.010850694444444442,0,0,0.010850694444444442,40.00651041666666,0)" xlink:href="#y"/><use transform="matrix(0.010850694444444442,0,0,0.010850694444444442,53.34201388888888,0)" xlink:href="#w"/><use transform="matrix(0.010850694444444442,0,0,0.010850694444444442,66.6775173611111,0)" xlink:href="#p"/><use transform="matrix(0.010850694444444442,0,0,0.010850694444444442,80.01302083333331,0)" xlink:href="#z"/></g><path d="M611-1370c266 0 451 106 451 368 0 147-77 243-154 327-132 144-316 255-451 395-42 44-75 87-96 134h723V0H144v-117c124-264 387-411 582-603 73-72 151-147 151-271 0-161-104-231-266-231-163 0-249 90-268 238l-184-17c35-233 185-369 452-369" id="A"/><g id="e"><use transform="matrix(0.010850694444444442,0,0,0.010850694444444442,0,0)" xlink:href="#m"/><use transform="matrix(0.010850694444444442,0,0,0.010850694444444442,13.33550347222222,0)" xlink:href="#A"/></g><path d="M875-1102c70 0 148 7 206 17v237c-110-17-267-37-359 15-123 69-192 207-192 395V0H250c-10-367 32-789-52-1082h271c19 69 36 149 46 228h4c52-151 151-250 356-248" id="B"/><path d="M1113-274C1038-96 884 20 626 20c-352 0-526-209-526-566 0-358 185-556 530-556 358 0 496 251 499 615H395c5 180 68 319 245 319 102 0 186-45 208-129zM857-663c-6-177-128-307-315-247-94 30-141 121-145 247h460" id="C"/><path d="M622-916c-112 2-200 14-200 111 0 90 89 101 168 121 234 58 514 77 514 368C1104-4 751 54 434 5 267-21 161-112 121-270l247-37c24 111 113 145 252 141 114-3 226-12 226-124 0-101-103-113-192-134-225-54-490-76-490-351 0-247 201-328 458-328 245 0 413 88 457 292l-249 26c-16-98-92-133-208-131" id="D"/><path d="M616-1102c361 0 521 202 521 560 0 354-171 562-527 562C259 20 92-192 92-542c0-351 169-560 524-560zm-9 930c200-2 236-165 236-370 0-199-27-367-223-367-195 0-233 146-233 367 0 129 18 223 55 282s92 88 165 88" id="E"/><path d="M768-1103c247 0 336 167 336 416V0H824v-619c-3-164-24-273-171-273-164 0-229 142-229 312V0H143c-4-359 9-736-8-1082h268c7 63 12 146 13 215h4c67-145 160-236 348-236" id="F"/><path d="M775-193C708-75 621 20 439 20 226 20 106-93 106-306c0-251 170-341 417-346l223-4c4-143-12-264-148-264-103 0-141 58-150 153l-293-14c37-219 194-321 455-321 263 0 418 130 417 390v392c1 84 5 161 89 160 21 0 42-2 62-6v152c-57 15-108 27-180 26-145 0-202-73-217-205h-6zm-256 17c168 0 234-139 227-325-166 4-347-25-347 173 0 94 33 152 120 152" id="G"/><path d="M711 13c-250 0-386-99-385-349l2-556H161v-190h181l88-282h176v282h385v190H606v530c-10 130 45 186 174 184 91-2 176-11 255-27v186C933-1 833 13 711 13" id="H"/><path d="M470 0v-305h289V0H470" id="I"/><path d="M471 20c-247 0-336-169-336-415v-687h281v607c4 148 31 285 172 285 152 0 207-150 207-312v-580h281c4 359-9 736 8 1082H816c-7-63-11-146-12-215h-5C736-76 644 20 471 20" id="J"/><path d="M621-530c0 421 127 700 301 955H641C466 173 344-110 344-531s122-702 297-953h281c-174 254-301 534-301 954" id="K"/><path d="M885-531c0 421-122 704-297 956H307c174-255 301-534 301-955 0-420-127-700-301-954h281c175 251 297 532 297 953" id="L"/><g id="f"><use transform="matrix(0.010850694444444444,0,0,0.010850694444444444,0,0)" xlink:href="#B"/><use transform="matrix(0.010850694444444444,0,0,0.010850694444444444,13.335503472222221,0)" xlink:href="#C"/><use transform="matrix(0.010850694444444444,0,0,0.010850694444444444,26.671006944444443,0)" xlink:href="#D"/><use transform="matrix(0.010850694444444444,0,0,0.010850694444444444,40.006510416666664,0)" xlink:href="#E"/><use transform="matrix(0.010850694444444444,0,0,0.010850694444444444,53.342013888888886,0)" xlink:href="#F"/><use transform="matrix(0.010850694444444444,0,0,0.010850694444444444,66.67751736111111,0)" xlink:href="#G"/><use transform="matrix(0.010850694444444444,0,0,0.010850694444444444,80.01302083333334,0)" xlink:href="#H"/><use transform="matrix(0.010850694444444444,0,0,0.010850694444444444,93.34852430555557,0)" xlink:href="#C"/><use transform="matrix(0.010850694444444444,0,0,0.010850694444444444,106.6840277777778,0)" xlink:href="#I"/><use transform="matrix(0.010850694444444444,0,0,0.010850694444444444,120.01953125000003,0)" xlink:href="#B"/><use transform="matrix(0.010850694444444444,0,0,0.010850694444444444,133.35503472222226,0)" xlink:href="#J"/><use transform="matrix(0.010850694444444444,0,0,0.010850694444444444,146.69053819444449,0)" xlink:href="#F"/><use transform="matrix(0.010850694444444444,0,0,0.010850694444444444,160.0260416666667,0)" xlink:href="#K"/><use transform="matrix(0.010850694444444444,0,0,0.010850694444444444,173.36154513888894,0)" xlink:href="#L"/></g><path d="M844-1321c-130 0-195 53-191 182v57h443v190H653V0H373v-892H117v-190h256v-83c5-247 162-348 422-349 120-1 232 13 327 28v184c-84-10-183-19-278-19" id="M"/><path d="M138-1120c207-4 339-93 415-229h266v1140h323V0H149v-209h389v-891c-70 121-216 187-400 194v-214" id="N"/><g id="g"><use transform="matrix(0.010850694444444444,0,0,0.010850694444444444,0,0)" xlink:href="#M"/><use transform="matrix(0.010850694444444444,0,0,0.010850694444444444,13.335503472222221,0)" xlink:href="#N"/></g><path d="M135-968c34-256 187-402 480-402 217 0 371 75 441 220 45 93 40 219-8 308-114 212-348 323-508 488-38 39-66 80-85 123h654V0H123v-195c112-245 321-399 515-560 57-48 107-96 142-157 14-26 22-53 22-80-1-104-73-156-185-154-131 2-181 74-199 194" id="O"/><g id="h"><use transform="matrix(0.010850694444444444,0,0,0.010850694444444444,0,0)" xlink:href="#M"/><use transform="matrix(0.010850694444444444,0,0,0.010850694444444444,13.335503472222221,0)" xlink:href="#O"/></g><path d="M788-691c191 26 337 112 337 315 0 286-214 399-510 399-306 0-483-128-522-391l286-25c18 124 91 190 235 188 132-2 223-58 223-188 0-176-191-182-378-179v-227c176 5 345-9 345-176 0-115-82-171-200-171s-198 55-206 169l-281-20c34-252 213-373 492-373 224 0 381 74 451 224 20 43 29 89 29 136 0 195-130 279-301 315v4" id="P"/><g id="i"><use transform="matrix(0.010850694444444444,0,0,0.010850694444444444,0,0)" xlink:href="#M"/><use transform="matrix(0.010850694444444444,0,0,0.010850694444444444,13.335503472222221,0)" xlink:href="#P"/></g><path d="M1000-272c3 95 12 159 101 161 21 0 41-3 59-7V-6c-44 10-86 16-139 16-141 2-191-84-197-217h-6C748-76 648 20 446 20c-207 0-318-120-318-322 0-266 194-348 454-354l236-4c12-191-40-305-222-305-140 0-220 47-232 172l-188-17c33-204 181-292 423-292 255 0 401 118 401 364v466zm-683-27c0 109 63 184 175 182 166-3 259-96 306-217 24-65 20-120 20-200-232 7-501-28-501 235" id="Q"/><path d="M1018 0H814c-67-224-138-444-200-673C552-442 476-224 407 0H204L21-1082h178c43 310 105 601 126 933 54-225 128-425 193-638h193c63 212 134 415 185 638 22-336 90-622 136-933h176" id="R"/><path d="M1048-32c-2 300-135 456-433 456-222-1-358-88-400-267l184-25c22 99 100 157 222 156 184-2 248-125 248-315 0-64 3-133-2-194C807-100 706-13 524-12c-306 0-381-228-381-537 0-318 85-550 400-550 164 0 271 83 325 202h3c1-60 3-134 12-185h171c-13 339-4 702-6 1050zM585-145c210-8 284-178 284-406 0-192-52-331-177-392-33-16-69-22-104-22-223 2-259 184-259 414 0 229 31 415 256 406" id="S"/><g id="j"><use transform="matrix(0.010850694444444442,0,0,0.010850694444444442,0,0)" xlink:href="#Q"/><use transform="matrix(0.010850694444444442,0,0,0.010850694444444442,13.33550347222222,0)" xlink:href="#R"/><use transform="matrix(0.010850694444444442,0,0,0.010850694444444442,26.67100694444444,0)" xlink:href="#Q"/><use transform="matrix(0.010850694444444442,0,0,0.010850694444444442,40.00651041666666,0)" xlink:href="#o"/><use transform="matrix(0.010850694444444442,0,0,0.010850694444444442,53.34201388888888,0)" xlink:href="#x"/><use transform="matrix(0.010850694444444442,0,0,0.010850694444444442,66.6775173611111,0)" xlink:href="#o"/><use transform="matrix(0.010850694444444442,0,0,0.010850694444444442,80.01302083333331,0)" xlink:href="#p"/><use transform="matrix(0.010850694444444442,0,0,0.010850694444444442,93.34852430555554,0)" xlink:href="#S"/></g><g id="k"><use transform="matrix(0.010850694444444442,0,0,0.010850694444444442,0,0)" xlink:href="#z"/><use transform="matrix(0.010850694444444442,0,0,0.010850694444444442,13.33550347222222,0)" xlink:href="#x"/><use transform="matrix(0.010850694444444442,0,0,0.010850694444444442,26.67100694444444,0)" xlink:href="#Q"/><use transform="matrix(0.010850694444444442,0,0,0.010850694444444442,40.00651041666666,0)" xlink:href="#w"/><use transform="matrix(0.010850694444444442,0,0,0.010850694444444442,53.34201388888888,0)" xlink:href="#x"/><use transform="matrix(0.010850694444444442,0,0,0.010850694444444442,66.6775173611111,0)" xlink:href="#z"/></g><path d="M736-142h380V0H134v-142h422v-1200H267v-142h469v1342" id="T"/><g id="l"><use transform="matrix(0.010850694444444442,0,0,0.010850694444444442,0,0)" xlink:href="#w"/><use transform="matrix(0.010850694444444442,0,0,0.010850694444444442,13.33550347222222,0)" xlink:href="#t"/><use transform="matrix(0.010850694444444442,0,0,0.010850694444444442,26.67100694444444,0)" xlink:href="#z"/><use transform="matrix(0.010850694444444442,0,0,0.010850694444444442,40.00651041666666,0)" xlink:href="#y"/><use transform="matrix(0.010850694444444442,0,0,0.010850694444444442,53.34201388888888,0)" xlink:href="#T"/><use transform="matrix(0.010850694444444442,0,0,0.010850694444444442,66.6775173611111,0)" xlink:href="#x"/></g></defs></g></svg>