<svg xmlns="http://www.w3.org/2000/svg" xmlns:xlink="http://www.w3.org/1999/xlink" xmlns:lucid="lucid" width="2122" height="642"><g transform="translate(-19 701)" lucid:page-tab-id="0_0"><path d="M0-1000h2500V0H0z" fill="#fff"/><path d="M40-680h2080v600H40z" stroke="#000" stroke-opacity="0" stroke-width="2" fill="#fff"/><path d="M680-320c0 22.1-17.9 40-40 40s-40-17.9-40-40 17.9-40 40-40 40 17.9 40 40z" stroke="#282c33" stroke-width="2"/><path d="M800-394a6 6 0 0 1 6-6h308a6 6 0 0 1 6 6v148a6 6 0 0 1-6 6H806a6 6 0 0 1-6-6z" stroke="#3a414a" fill="#fff"/><use xlink:href="#a" transform="matrix(1,0,0,1,805,-395) translate(94.73741319444446 84.81553819444443)"/><path d="M1280-514a6 6 0 0 1 6-6h308a6 6 0 0 1 6 6v148a6 6 0 0 1-6 6h-308a6 6 0 0 1-6-6z" stroke="#3a414a" fill="#fff"/><use xlink:href="#a" transform="matrix(1,0,0,1,1285,-515) translate(94.73741319444446 84.81553819444443)"/><path d="M1280-274a6 6 0 0 1 6-6h308a6 6 0 0 1 6 6v148a6 6 0 0 1-6 6h-308a6 6 0 0 1-6-6z" stroke="#3a414a" fill="#fff"/><use xlink:href="#a" transform="matrix(1,0,0,1,1285,-275) translate(94.73741319444446 84.81553819444443)"/><path d="M1120.95-360.35l143.9-72.3" stroke="#3a414a" fill="none"/><path d="M1121.17-359.93l-.67.34v-1.06l.24-.12z" stroke="#3a414a" stroke-width=".05" fill="#3a414a"/><path d="M1278.05-439.27l-10.66 10.54-4.17-8.28z" stroke="#3a414a" fill="#3a414a"/><path d="M1120.95-281.1l143.93 72.7" stroke="#3a414a" fill="none"/><path d="M1121.17-281.53l-.43.85-.24-.12v-1.07z" stroke="#3a414a" stroke-width=".05" fill="#3a414a"/><path d="M1278.06-201.73l-14.83-2.3 4.18-8.27z" stroke="#3a414a" fill="#3a414a"/><path d="M681.5-320h101.62" stroke="#3a414a" fill="none"/><path d="M681.5-319.52h-.53l.03-.47-.02-.48h.53z" stroke="#3a414a" stroke-width=".05" fill="#3a414a"/><path d="M797.88-320l-14.26 4.63v-9.26z" stroke="#3a414a" fill="#3a414a"/><path d="M680-634a6 6 0 0 1 6-6h788a6 6 0 0 1 6 6v68a6 6 0 0 1-6 6H686a6 6 0 0 1-6-6z" stroke="#000" stroke-opacity="0" stroke-width="2" fill="#fff" fill-opacity="0"/><use xlink:href="#b" transform="matrix(1,0,0,1,685,-635) translate(217.68066406250006 48.75325520833332)"/><use xlink:href="#c" transform="matrix(1,0,0,1,685,-635) translate(353.5205078125 48.75325520833332)"/><use xlink:href="#d" transform="matrix(1,0,0,1,685,-635) translate(438.85579427083326 48.75325520833332)"/><defs><path fill="#3a414a" d="M602-1462c329 0 526 109 526 413 0 193-98 324-294 392L1231 0h-201L676-608H371V0H201v-1462h401zm350 422c0-215-129-271-360-273H371v559h233c223 0 348-78 348-286" id="e"/><path fill="#3a414a" d="M563 20c-271 0-399-123-399-399v-717h168v711c1 177 76 266 252 266 250 0 331-135 331-401v-576h166V0H944l-24-147h-9C848-44 724 20 563 20" id="f"/><path fill="#3a414a" d="M694-1116c270 0 399 125 398 401V0H926v-709c-1-177-76-266-252-266-250 0-332 133-332 400V0H176v-1096h135l27 150h8c62-101 190-170 348-170" id="g"/><path fill="#3a414a" d="M342 0H176v-1096h166V0zm-82-1282c-61 0-98-43-98-111 0-69 36-110 98-110 59 0 98 43 98 110s-39 111-98 111" id="h"/><path fill="#3a414a" d="M125-741c0-247 161-377 414-375 57 0 109 7 155 20h379v105l-203 24c37 48 72 129 72 219 0 255-227 390-504 345-71 37-106 84-106 141 0 78 66 88 164 88h194c219-1 369 87 369 293 0 121-49 213-146 277s-239 96-426 96c-250 0-448-83-448-306C39 36 147-58 283-86c-52-23-102-79-99-152 4-104 57-143 133-192-107-42-192-164-192-311zM438-25c-143-1-242 70-239 209s131 181 290 181c139 0 242-21 309-63s101-98 101-169c0-147-88-158-262-158H438zm94-970c-158 0-243 88-243 250 0 153 93 233 246 233 162 0 243-79 243-236 0-165-82-247-246-247" id="i"/><g id="a"><use transform="matrix(0.015190972222222219,0,0,0.015190972222222219,0,0)" xlink:href="#e"/><use transform="matrix(0.015190972222222219,0,0,0.015190972222222219,19.23177083333333,0)" xlink:href="#f"/><use transform="matrix(0.015190972222222219,0,0,0.015190972222222219,38.32682291666666,0)" xlink:href="#g"/><use transform="matrix(0.015190972222222219,0,0,0.015190972222222219,57.421874999999986,0)" xlink:href="#g"/><use transform="matrix(0.015190972222222219,0,0,0.015190972222222219,76.51692708333331,0)" xlink:href="#h"/><use transform="matrix(0.015190972222222219,0,0,0.015190972222222219,84.38585069444443,0)" xlink:href="#g"/><use transform="matrix(0.015190972222222219,0,0,0.015190972222222219,103.48090277777776,0)" xlink:href="#i"/></g><path fill="#3a414a" d="M1128-1036c0 321-241 464-585 461H371V0H201v-1462h379c365 0 548 142 548 426zm-176 8c0-218-150-286-391-287H371v594h153c270-3 428-62 428-307" id="j"/><path fill="#3a414a" d="M340-893c80-153 237-262 467-211l-23 154c-45-10-85-15-120-15-184-3-322 182-322 377V0H176v-1096h137l19 203h8" id="k"/><path fill="#3a414a" d="M621-1116c316 0 501 239 501 567 0 339-180 575-508 569S119-212 115-549c-4-339 178-567 506-567zm-5 141c-239 0-329 168-329 426 0 255 93 430 331 430s332-174 332-430-95-426-334-426" id="l"/><path fill="#3a414a" d="M1368-1116c259 2 372 131 371 401V0h-166v-713c0-168-66-262-230-262-221 0-303 131-303 363V0H874v-713c-1-169-66-262-231-262-235 0-301 142-301 400V0H176v-1096h135l27 150h8c56-99 174-170 324-170 171 0 283 62 336 186h8c60-108 189-187 354-186" id="m"/><path fill="#3a414a" d="M502-977c-130 0-238 32-238 139 0 75 39 101 95 134 33 19 97 46 192 81 130 48 217 95 263 143s69 108 69 181C883-73 695 20 449 20 304 20 190-3 109-49v-154c91 47 216 86 344 86 149 0 270-36 270-168 0-43-21-76-55-109-56-55-367-158-434-208-74-55-128-109-128-225 0-327 490-342 754-217l-59 135c-110-45-210-68-299-68" id="n"/><path fill="#3a414a" d="M995-51C878-2 799 19 639 20c-329 2-524-221-524-559 0-326 172-577 481-577 278 0 451 210 446 493v105H287c4 242 121 392 358 393 118 0 235-25 350-74v148zM864-653c2-195-85-324-270-324-190 0-288 139-303 324h573" id="o"/><g id="b"><use transform="matrix(0.01627604166666666,0,0,0.01627604166666666,0,0)" xlink:href="#j"/><use transform="matrix(0.01627604166666666,0,0,0.01627604166666666,20.068359374999993,0)" xlink:href="#k"/><use transform="matrix(0.01627604166666666,0,0,0.01627604166666666,33.007812499999986,0)" xlink:href="#l"/><use transform="matrix(0.01627604166666666,0,0,0.01627604166666666,53.14127604166664,0)" xlink:href="#m"/><use transform="matrix(0.01627604166666666,0,0,0.01627604166666666,84.14713541666663,0)" xlink:href="#h"/><use transform="matrix(0.01627604166666666,0,0,0.01627604166666666,92.57812499999996,0)" xlink:href="#n"/><use transform="matrix(0.01627604166666666,0,0,0.01627604166666666,108.47981770833329,0)" xlink:href="#o"/></g><path fill="#3a414a" d="M354-322c-2 123 60 204 176 205 51 1 114-10 150-20v127C647 7 557 20 506 20 294 20 188-92 188-315v-652H31v-80l157-69 70-234h96v254h318v129H354v645" id="p"/><path fill="#3a414a" d="M588-1114c260 0 384 106 385 366V0H850l-33-156h-8C708-34 639 17 442 20 231 23 94-94 94-303c0-221 177-337 531-348l186-6c11-203-40-320-233-320-91 0-195 28-310 84l-51-127c97-53 229-94 371-94zM268-301c-1 123 81 184 207 184 203 0 334-120 332-323v-99c-257 14-539-7-539 238" id="q"/><g id="c"><use transform="matrix(0.01627604166666666,0,0,0.01627604166666666,0,0)" xlink:href="#n"/><use transform="matrix(0.01627604166666666,0,0,0.01627604166666666,15.901692708333327,0)" xlink:href="#p"/><use transform="matrix(0.01627604166666666,0,0,0.01627604166666666,27.66927083333332,0)" xlink:href="#q"/><use transform="matrix(0.01627604166666666,0,0,0.01627604166666666,46.20768229166664,0)" xlink:href="#p"/><use transform="matrix(0.01627604166666666,0,0,0.01627604166666666,57.97526041666664,0)" xlink:href="#o"/></g><path fill="#3a414a" d="M287-543c-1 247 91 418 323 418 91 0 185-20 281-59v147C818 1 725 20 614 20c-329 0-499-221-499-561 0-349 172-575 510-575 96 0 221 26 282 57l-51 141c-61-25-157-50-235-51-223 0-334 142-334 426" id="r"/><path fill="#3a414a" d="M690-1114c271 2 402 123 402 399V0H926v-709c-1-177-76-266-252-266-251 0-332 135-332 402V0H176v-1556h166c-4 200 8 426-8 612h10c61-100 187-171 346-170" id="s"/><g id="d"><use transform="matrix(0.01627604166666666,0,0,0.01627604166666666,0,0)" xlink:href="#m"/><use transform="matrix(0.01627604166666666,0,0,0.01627604166666666,31.00585937499999,0)" xlink:href="#q"/><use transform="matrix(0.01627604166666666,0,0,0.01627604166666666,49.544270833333314,0)" xlink:href="#r"/><use transform="matrix(0.01627604166666666,0,0,0.01627604166666666,65.41341145833331,0)" xlink:href="#s"/><use transform="matrix(0.01627604166666666,0,0,0.01627604166666666,85.87239583333331,0)" xlink:href="#h"/><use transform="matrix(0.01627604166666666,0,0,0.01627604166666666,94.30338541666664,0)" xlink:href="#g"/><use transform="matrix(0.01627604166666666,0,0,0.01627604166666666,114.76236979166663,0)" xlink:href="#o"/></g></defs></g></svg>