<svg xmlns="http://www.w3.org/2000/svg" xmlns:xlink="http://www.w3.org/1999/xlink" xmlns:lucid="lucid" width="2141" height="1442"><g transform="translate(21 -459)" lucid:page-tab-id="0_0"><path d="M0 0h2500v2000H0z" fill="#fff"/><path d="M0 480h2080v1400H0z" stroke="#000" stroke-opacity="0" stroke-width="2" fill="#fff"/><path d="M560 526a6 6 0 0 1 6-6h948a6 6 0 0 1 6 6v1308a6 6 0 0 1-6 6H566a6 6 0 0 1-6-6z" fill-opacity="0"/><path d="M578.05 520h8.04m8.02 0h8.03m8.04 0h8.02m8.03 0h8.04m8.02 0h8.04m8.03 0h8.02m8.04 0h8.03m8.02 0h8.04m8.03 0h8.03m8.03 0h8.04m8.03 0h8.03m8.04 0h8.03m8.03 0h8.04m8.03 0h8.04m8.03 0h8.03m8.04 0h8.03m8.04 0h8.03m8.03 0h8.04m8.03 0h8.03m8.04 0h8.03m8.04 0h8.04m8.03 0h8.04m8.04 0h8.04m8.03 0h8.04m8.04 0h8.03m8.05 0h8.03m8.03 0h8.05m8.03 0h8.03m8.05 0h8.03m8.04 0h8.03m8.04 0h8.02m8.03 0h8.04m8.02 0h8.03m8.04 0h8.02m8.04 0h8.03m8.02 0h8.04m8.03 0h8.03m8.03 0h8.03m8.03 0h8.03m8.03 0h8.03m8.03 0h8.04m8.03 0h8.03m8.04 0h8.03m8.04 0h8.03m8.03 0h8.04m8.03 0h8.04m8.03 0h8.03m8.04 0h8.03m8.04 0h8.04m8.03 0h8.04m8.04 0h8.03m8.04 0h8.04m8.04 0h8.03m8.04 0h8.04m8.03 0h8.05m8.03 0h8.03m8.05 0h8.03m8.03 0h8.05m8.03 0h4.02l.94.07.9.22.88.35.8.5.72.6.6.72.5.8.37.88.23.9.07.95v4m0 7.96v7.98m0 7.97v8m0 7.97v7.97m0 7.98v7.97m0 7.97v7.97m0 7.98v7.98m0 7.97v7.98m0 7.97v7.98m0 7.97v7.98m0 7.97v7.98m0 7.98v7.97m0 7.98v7.97m0 7.98v7.97m0 7.98v7.97m0 7.98v7.98m0 7.97v7.98m0 7.98v7.98m0 7.97v7.98m0 8v7.96m0 7.98V849m0 8v7.96m0 7.98v7.97m0 8v7.97m0 7.97v7.98m0 7.97v7.97m0 7.97v7.98m0 7.98v7.97m0 7.98v7.97m0 7.98v7.97m0 7.98v7.97m0 7.98v7.98m0 7.97v7.98m0 7.97v7.98m0 7.97v7.98m0 7.98v7.98m0 7.98v7.97m0 7.98v7.98m0 7.98v7.97m0 7.98v8m0 7.96v7.98m0 7.97v8m0 7.96v7.98m0 7.97v8m0 7.97v7.97m0 7.98v7.97m0 7.97v7.97m0 7.98v7.97m0 7.97v7.98m0 7.97v7.98m0 7.97v7.98m0 7.97v7.98m0 7.98v7.97m0 7.98v7.97m0 7.98v7.97m0 7.98v7.98m0 7.98v7.98m0 7.97v7.98m0 7.98v7.98m0 7.97v7.98m0 8v7.96m0 7.98v7.97m0 8v7.96m0 7.98v7.97m0 8v7.97m0 7.97v7.98m0 7.97v7.97m0 7.97v7.98m0 7.97v7.97m0 7.98v7.97m0 7.98v7.97m0 7.98v7.97m0 7.98v7.98m0 7.97v7.98m0 7.97v7.98m0 7.97v7.98m0 7.98v7.98m0 7.98v7.97m0 7.98v7.98m0 7.98v7.97m0 7.98v8m0 7.96v7.98m0 7.97v4l-.07.94-.22.9-.35.88-.5.8-.6.72-.72.6-.8.5-.88.37-.9.23-.95.07h-4.02m-8.03 0h-8.04m-8.02 0h-8.03m-8.04 0h-8.02m-8.03 0h-8.04m-8.02 0h-8.04m-8.03 0h-8.02m-8.04 0h-8.03m-8.03 0h-8.03m-8.03 0h-8.03m-8.03 0h-8.03m-8.03 0h-8.03m-8.04 0h-8.03m-8.03 0h-8.04m-8.03 0h-8.04m-8.03 0h-8.03m-8.04 0h-8.03m-8.04 0h-8.03m-8.03 0h-8.04m-8.03 0h-8.04m-8.04 0h-8.03m-8.04 0h-8.04m-8.03 0h-8.04m-8.04 0h-8.04m-8.03 0h-8.04m-8.04 0h-8.03m-8.05 0h-8.03m-8.03 0h-8.05m-8.03 0h-8.03m-8.05 0h-8.03m-8.04 0h-8.03m-8.04 0h-8.02m-8.03 0h-8.04m-8.02 0h-8.03m-8.04 0h-8.02m-8.04 0h-8.03m-8.02 0h-8.04m-8.03 0h-8.02m-8.04 0h-8.03m-8.03 0h-8.03m-8.04 0h-8.03m-8.03 0h-8.04m-8.03 0h-8.03m-8.04 0h-8.03m-8.04 0H803m-8.03 0h-8.04m-8.03 0h-8.04m-8.03 0h-8.03m-8.04 0h-8.03m-8.03 0h-8.04m-8.03 0h-8.04m-8.04 0h-8.03m-8.04 0h-8.04m-8.04 0h-8.03m-8.04 0h-8.04m-8.03 0h-8.05m-8.03 0h-8.03m-8.05 0h-8.03m-8.03 0h-8.05m-8.03 0H566l-.94-.07-.9-.22-.88-.35-.8-.5-.72-.6-.6-.72-.5-.8-.37-.88-.23-.9-.07-.95v-4m0-7.96v-7.98m0-7.97v-8m0-7.97v-7.97m0-7.98v-7.97m0-7.97v-7.97m0-7.98v-7.97m0-7.97v-7.98m0-7.97v-7.98m0-7.97v-7.98m0-7.97v-7.98m0-7.98v-7.97m0-7.98v-7.97m0-7.98v-7.97m0-7.98v-7.98m0-7.98v-7.98m0-7.97v-7.98m0-7.98v-7.98m0-7.97v-7.98m0-8v-7.96m0-7.98V1511m0-8v-7.96m0-7.98v-7.97m0-8v-7.97m0-7.97v-7.98m0-7.97v-7.97m0-7.97v-7.98m0-7.97v-7.97m0-7.98v-7.97m0-7.98v-7.97m0-7.98v-7.97m0-7.98v-7.98m0-7.97v-7.98m0-7.97v-7.98m0-7.97v-7.98m0-7.98v-7.98m0-7.98v-7.97m0-7.98v-7.98m0-7.98v-7.97m0-7.98v-8m0-7.96v-7.98m0-7.97v-8m0-7.96v-7.98m0-7.97v-8m0-7.97v-7.97m0-7.98v-7.97m0-7.97v-7.97m0-7.98v-7.97m0-7.97v-7.98m0-7.97v-7.98m0-7.97v-7.98m0-7.97v-7.98m0-7.98v-7.97m0-7.98v-7.97m0-7.98v-7.97m0-7.98v-7.97m0-7.98v-7.98m0-7.97v-7.98m0-7.98v-7.98m0-7.97v-7.98m0-8v-7.96m0-7.98V857m0-8v-7.96m0-7.98v-7.97m0-8v-7.97m0-7.97v-7.98m0-7.97v-7.97m0-7.97v-7.98m0-7.98v-7.97m0-7.98v-7.97m0-7.98v-7.97m0-7.98v-7.97m0-7.98v-7.98m0-7.97v-7.98m0-7.97v-7.98m0-7.97v-7.98m0-7.97v-7.98m0-7.98v-7.97m0-7.98v-7.98m0-7.98v-7.97m0-7.98v-8m0-7.96v-7.98m0-7.97v-4l.07-.94.22-.9.35-.88.5-.8.6-.72.72-.6.8-.5.88-.37.9-.23.95-.07h4.02" stroke="#282c33" stroke-width="2" fill="none"/><path d="M600 1566a6 6 0 0 1 6-6h868a6 6 0 0 1 6 6v228a6 6 0 0 1-6 6H606a6 6 0 0 1-6-6z" fill-opacity="0"/><path d="M618.06 1560h8.03m8.03 0h8.04m8.03 0h8.04m8.04 0h8.04m8.03 0h8.04m8.03 0h8.03m8.04 0h8.04m8.03 0h8.04m8.05 0h8.03m8.04 0h8.04m8.04 0h8.03m8.04 0h8.04m8.04 0h8.04m8.04 0h8.04m8.03 0h8.03m8.04 0h8.03m8.04 0h8.04m8.04 0h8.03m8.04 0h8.03m8.03 0h8.04m8.04 0h8.03m8.04 0h8.05m8.03 0h8.04m8.04 0h8.04m8.03 0h8.04m8.04 0h8.04m8.04 0h8.04m8.04 0h8.03m8.03 0h8.04m8.03 0h8.04m8.04 0h8.04m8.03 0h8.04m8.03 0h8.03m8.04 0h8.04m8.03 0h8.04m8.05 0h8.03m8.04 0h8.04m8.04 0h8.03m8.04 0h8.04m8.04 0h8.04m8.04 0h8.04m8.03 0h8.03m8.04 0h8.03m8.04 0h8.04m8.04 0h8.03m8.04 0h8.03m8.03 0h8.04m8.04 0h8.03m8.04 0h8.05m8.03 0h8.04m8.04 0h8.04m8.03 0h8.04m8.04 0h8.04m8.04 0h4.02l.94.07.9.22.88.35.8.5.72.6.6.72.5.8.37.88.23.9.07.95v4.07m0 8.14v8.16m0 8.14v8.14m0 8.15v8.13m0 8.14v8.14m0 8.16v8.14m0 8.14v8.15m0 8.13v8.14m0 8.14v8.16m0 8.14v8.14m0 8.15v8.13m0 8.14v8.14m0 8.16v8.14m0 8.14v8.15m0 8.13v4.07l-.07.94-.22.9-.35.88-.5.8-.6.72-.72.6-.8.5-.88.37-.9.23-.95.07h-4.02m-8.04 0h-8.03m-8.03 0h-8.04m-8.03 0h-8.04m-8.04 0h-8.04m-8.03 0h-8.04m-8.03 0h-8.03m-8.04 0h-8.04m-8.03 0h-8.04m-8.05 0h-8.03m-8.04 0h-8.04m-8.04 0h-8.03m-8.04 0h-8.04m-8.04 0h-8.04m-8.04 0h-8.04m-8.03 0h-8.03m-8.04 0h-8.03m-8.04 0h-8.04m-8.04 0h-8.03m-8.04 0h-8.03m-8.03 0h-8.04m-8.04 0h-8.03m-8.04 0h-8.05m-8.03 0h-8.04m-8.04 0h-8.04m-8.03 0h-8.04m-8.04 0h-8.04m-8.04 0h-8.04m-8.04 0h-8.03m-8.03 0h-8.04m-8.03 0h-8.04m-8.04 0h-8.04m-8.03 0h-8.04m-8.03 0h-8.03m-8.04 0h-8.04m-8.03 0h-8.04m-8.05 0h-8.03m-8.04 0h-8.04m-8.04 0h-8.03m-8.04 0h-8.04m-8.04 0h-8.04m-8.04 0h-8.04m-8.03 0h-8.03m-8.04 0h-8.03m-8.04 0h-8.04m-8.04 0h-8.03m-8.04 0h-8.03m-8.03 0h-8.04m-8.04 0h-8.03m-8.04 0h-8.05m-8.03 0h-8.04m-8.04 0h-8.04m-8.03 0h-8.04m-8.04 0h-8.04m-8.04 0H606l-.94-.07-.9-.22-.88-.35-.8-.5-.72-.6-.6-.72-.5-.8-.37-.88-.23-.9-.07-.95v-4.07m0-8.14v-8.16m0-8.14v-8.14m0-8.15v-8.13m0-8.14v-8.14m0-8.16v-8.14m0-8.14v-8.15m0-8.13v-8.14m0-8.14v-8.16m0-8.14v-8.14m0-8.15v-8.13m0-8.14v-8.14m0-8.16v-8.14m0-8.14v-8.15m0-8.13V1566l.07-.94.22-.9.35-.88.5-.8.6-.72.72-.6.8-.5.88-.37.9-.23.95-.07h4.02" stroke="#282c33" stroke-width="2" fill="none"/><path d="M600 1086a6 6 0 0 1 6-6h868a6 6 0 0 1 6 6v228a6 6 0 0 1-6 6H606a6 6 0 0 1-6-6z" fill-opacity="0"/><path d="M618.06 1080h8.03m8.03 0h8.04m8.03 0h8.04m8.04 0h8.04m8.03 0h8.04m8.03 0h8.03m8.04 0h8.04m8.03 0h8.04m8.05 0h8.03m8.04 0h8.04m8.04 0h8.03m8.04 0h8.04m8.04 0h8.04m8.04 0h8.04m8.03 0h8.03m8.04 0h8.03m8.04 0h8.04m8.04 0h8.03m8.04 0h8.03m8.03 0h8.04m8.04 0h8.03m8.04 0h8.05m8.03 0h8.04m8.04 0h8.04m8.03 0h8.04m8.04 0h8.04m8.04 0h8.04m8.04 0h8.03m8.03 0h8.04m8.03 0h8.04m8.04 0h8.04m8.03 0h8.04m8.03 0h8.03m8.04 0h8.04m8.03 0h8.04m8.05 0h8.03m8.04 0h8.04m8.04 0h8.03m8.04 0h8.04m8.04 0h8.04m8.04 0h8.04m8.03 0h8.03m8.04 0h8.03m8.04 0h8.04m8.04 0h8.03m8.04 0h8.03m8.03 0h8.04m8.04 0h8.03m8.04 0h8.05m8.03 0h8.04m8.04 0h8.04m8.03 0h8.04m8.04 0h8.04m8.04 0h4.02l.94.07.9.22.88.35.8.5.72.6.6.72.5.8.37.88.23.9.07.95v4.07m0 8.14v8.16m0 8.14v8.14m0 8.15v8.13m0 8.14v8.14m0 8.16v8.14m0 8.14v8.15m0 8.13v8.14m0 8.14v8.16m0 8.14v8.14m0 8.15v8.13m0 8.14v8.14m0 8.16v8.14m0 8.14v8.15m0 8.13v4.07l-.07.94-.22.9-.35.88-.5.8-.6.72-.72.6-.8.5-.88.37-.9.23-.95.07h-4.02m-8.04 0h-8.03m-8.03 0h-8.04m-8.03 0h-8.04m-8.04 0h-8.04m-8.03 0h-8.04m-8.03 0h-8.03m-8.04 0h-8.04m-8.03 0h-8.04m-8.05 0h-8.03m-8.04 0h-8.04m-8.04 0h-8.03m-8.04 0h-8.04m-8.04 0h-8.04m-8.04 0h-8.04m-8.03 0h-8.03m-8.04 0h-8.03m-8.04 0h-8.04m-8.04 0h-8.03m-8.04 0h-8.03m-8.03 0h-8.04m-8.04 0h-8.03m-8.04 0h-8.05m-8.03 0h-8.04m-8.04 0h-8.04m-8.03 0h-8.04m-8.04 0h-8.04m-8.04 0h-8.04m-8.04 0h-8.03m-8.03 0h-8.04m-8.03 0h-8.04m-8.04 0h-8.04m-8.03 0h-8.04m-8.03 0h-8.03m-8.04 0h-8.04m-8.03 0h-8.04m-8.05 0h-8.03m-8.04 0h-8.04m-8.04 0h-8.03m-8.04 0h-8.04m-8.04 0h-8.04m-8.04 0h-8.04m-8.03 0h-8.03m-8.04 0h-8.03m-8.04 0h-8.04m-8.04 0h-8.03m-8.04 0h-8.03m-8.03 0h-8.04m-8.04 0h-8.03m-8.04 0h-8.05m-8.03 0h-8.04m-8.04 0h-8.04m-8.03 0h-8.04m-8.04 0h-8.04m-8.04 0H606l-.94-.07-.9-.22-.88-.35-.8-.5-.72-.6-.6-.72-.5-.8-.37-.88-.23-.9-.07-.95v-4.07m0-8.14v-8.16m0-8.14v-8.14m0-8.15v-8.13m0-8.14v-8.14m0-8.16v-8.14m0-8.14v-8.15m0-8.13v-8.14m0-8.14v-8.16m0-8.14v-8.14m0-8.15v-8.13m0-8.14v-8.14m0-8.16v-8.14m0-8.14v-8.15m0-8.13V1086l.07-.94.22-.9.35-.88.5-.8.6-.72.72-.6.8-.5.88-.37.9-.23.95-.07h4.02" stroke="#282c33" stroke-width="2" fill="none"/><path d="M600 566a6 6 0 0 1 6-6h868a6 6 0 0 1 6 6v228a6 6 0 0 1-6 6H606a6 6 0 0 1-6-6z" fill-opacity="0"/><path d="M618.06 560h8.03m8.03 0h8.04m8.03 0h8.04m8.04 0h8.04m8.03 0h8.04m8.03 0h8.03m8.04 0h8.04m8.03 0h8.04m8.05 0h8.03m8.04 0h8.04m8.04 0h8.03m8.04 0h8.04m8.04 0h8.04m8.04 0h8.04m8.03 0h8.03m8.04 0h8.03m8.04 0h8.04m8.04 0h8.03m8.04 0h8.03m8.03 0h8.04m8.04 0h8.03m8.04 0h8.05m8.03 0h8.04m8.04 0h8.04m8.03 0h8.04m8.04 0h8.04m8.04 0h8.04m8.04 0h8.03m8.03 0h8.04m8.03 0h8.04m8.04 0h8.04m8.03 0h8.04m8.03 0h8.03m8.04 0h8.04m8.03 0h8.04m8.05 0h8.03m8.04 0h8.04m8.04 0h8.03m8.04 0h8.04m8.04 0h8.04m8.04 0h8.04m8.03 0h8.03m8.04 0h8.03m8.04 0h8.04m8.04 0h8.03m8.04 0h8.03m8.03 0h8.04m8.04 0h8.03m8.04 0h8.05m8.03 0h8.04m8.04 0h8.04m8.03 0h8.04m8.04 0h8.04m8.04 0h4.02l.94.07.9.22.88.35.8.5.72.6.6.72.5.8.37.88.23.9.07.95v4.07m0 8.14v8.16m0 8.14v8.14m0 8.15v8.13m0 8.14v8.14m0 8.16v8.14m0 8.14v8.15m0 8.13v8.14m0 8.14v8.16m0 8.14v8.14m0 8.15v8.13m0 8.14v8.14m0 8.16v8.14m0 8.14v8.15m0 8.13V794l-.07.94-.22.9-.35.88-.5.8-.6.72-.72.6-.8.5-.88.37-.9.23-.95.07h-4.02m-8.04 0h-8.03m-8.03 0h-8.04m-8.03 0h-8.04m-8.04 0h-8.04m-8.03 0h-8.04m-8.03 0h-8.03m-8.04 0h-8.04m-8.03 0h-8.04m-8.05 0h-8.03m-8.04 0h-8.04m-8.04 0h-8.03m-8.04 0h-8.04m-8.04 0h-8.04m-8.04 0h-8.04m-8.03 0h-8.03m-8.04 0h-8.03m-8.04 0h-8.04m-8.04 0h-8.03m-8.04 0h-8.03m-8.03 0h-8.04m-8.04 0h-8.03m-8.04 0h-8.05m-8.03 0h-8.04m-8.04 0h-8.04m-8.03 0h-8.04m-8.04 0h-8.04m-8.04 0h-8.04m-8.04 0h-8.03m-8.03 0h-8.04m-8.03 0h-8.04m-8.04 0h-8.04m-8.03 0h-8.04m-8.03 0h-8.03m-8.04 0h-8.04m-8.03 0h-8.04m-8.05 0h-8.03m-8.04 0h-8.04m-8.04 0h-8.03m-8.04 0h-8.04m-8.04 0h-8.04m-8.04 0h-8.04m-8.03 0h-8.03m-8.04 0h-8.03m-8.04 0h-8.04m-8.04 0h-8.03m-8.04 0h-8.03m-8.03 0h-8.04m-8.04 0h-8.03m-8.04 0h-8.05m-8.03 0h-8.04m-8.04 0h-8.04m-8.03 0h-8.04m-8.04 0h-8.04m-8.04 0H606l-.94-.07-.9-.22-.88-.35-.8-.5-.72-.6-.6-.72-.5-.8-.37-.88-.23-.9-.07-.95v-4.07m0-8.14v-8.16m0-8.14v-8.14m0-8.15v-8.13m0-8.14v-8.14m0-8.16v-8.14m0-8.14v-8.15m0-8.13v-8.14m0-8.14v-8.16m0-8.14v-8.14m0-8.15v-8.13m0-8.14v-8.14m0-8.16v-8.14m0-8.14v-8.15m0-8.13V566l.07-.94.22-.9.35-.88.5-.8.6-.72.72-.6.8-.5.88-.37.9-.23.95-.07h4.02" stroke="#282c33" stroke-width="2" fill="none"/><path d="M640 606a6 6 0 0 1 6-6h148a6 6 0 0 1 6 6v148a6 6 0 0 1-6 6H646a6 6 0 0 1-6-6z" stroke="#3a414a" fill="#fff"/><use xlink:href="#a" transform="matrix(1,0,0,1,645,605) translate(46.091579861111114 42.628038194444436)"/><use xlink:href="#b" transform="matrix(1,0,0,1,645,605) translate(23.897569444444457 84.9956597222222)"/><use xlink:href="#c" transform="matrix(1,0,0,1,645,605) translate(66.10568576388889 127.36328124999997)"/><path d="M1280 606a6 6 0 0 1 6-6h148a6 6 0 0 1 6 6v148a6 6 0 0 1-6 6h-148a6 6 0 0 1-6-6z" stroke="#3a414a" fill="#fff"/><use xlink:href="#a" transform="matrix(1,0,0,1,1285,605) translate(46.091579861111114 42.628038194444436)"/><use xlink:href="#b" transform="matrix(1,0,0,1,1285,605) translate(23.897569444444457 84.9956597222222)"/><use xlink:href="#d" transform="matrix(1,0,0,1,1285,605) translate(65.45247395833334 127.36328124999997)"/><path d="M920 680c0 11.05-8.95 20-20 20s-20-8.95-20-20 8.95-20 20-20 20 8.95 20 20zM1060 680c0 11.05-8.95 20-20 20s-20-8.95-20-20 8.95-20 20-20 20 8.95 20 20zM1200 680c0 11.05-8.95 20-20 20s-20-8.95-20-20 8.95-20 20-20 20 8.95 20 20z" stroke="#282c33" stroke-width="2"/><path d="M640 1126a6 6 0 0 1 6-6h788a6 6 0 0 1 6 6v148a6 6 0 0 1-6 6H646a6 6 0 0 1-6-6z" stroke="#3a414a" fill="#fff"/><use xlink:href="#e" transform="matrix(1,0,0,1,645,1125) translate(220.30381944444449 84.81553819444443)"/><use xlink:href="#f" transform="matrix(1,0,0,1,645,1125) translate(314.7916666666667 84.81553819444443)"/><use xlink:href="#g" transform="matrix(1,0,0,1,645,1125) translate(467.49131944444446 84.81553819444443)"/><path d="M640 1606a6 6 0 0 1 6-6h148a6 6 0 0 1 6 6v148a6 6 0 0 1-6 6H646a6 6 0 0 1-6-6z" stroke="#3a414a" fill="#fff"/><use xlink:href="#h" transform="matrix(1,0,0,1,645,1605) translate(3.4809027777778 42.628038194444436)"/><use xlink:href="#b" transform="matrix(1,0,0,1,645,1605) translate(23.897569444444457 84.9956597222222)"/><use xlink:href="#c" transform="matrix(1,0,0,1,645,1605) translate(66.10568576388889 127.36328124999997)"/><path d="M1280 1606a6 6 0 0 1 6-6h148a6 6 0 0 1 6 6v148a6 6 0 0 1-6 6h-148a6 6 0 0 1-6-6z" stroke="#3a414a" fill="#fff"/><use xlink:href="#h" transform="matrix(1,0,0,1,1285,1605) translate(3.4809027777778 42.628038194444436)"/><use xlink:href="#b" transform="matrix(1,0,0,1,1285,1605) translate(23.897569444444457 84.9956597222222)"/><use xlink:href="#d" transform="matrix(1,0,0,1,1285,1605) translate(65.45247395833334 127.36328124999997)"/><path d="M920 1680c0 11.05-8.95 20-20 20s-20-8.95-20-20 8.95-20 20-20 20 8.95 20 20zM1060 1680c0 11.05-8.95 20-20 20s-20-8.95-20-20 8.95-20 20-20 20 8.95 20 20zM1200 1680c0 11.05-8.95 20-20 20s-20-8.95-20-20 8.95-20 20-20 20 8.95 20 20z" stroke="#282c33" stroke-width="2"/><path d="M719.82 801.5v81.62" stroke="#3a414a" fill="none"/><path d="M720.3 801.5h-.96v-.5h.95z" stroke="#3a414a" stroke-width=".05" fill="#3a414a"/><path d="M719.82 897.88l-4.64-14.26h9.27z" stroke="#3a414a" fill="#3a414a"/><path d="M900.84 899v-81.62" stroke="#3a414a" fill="none"/><path d="M901.3 899.5h-.94v-.5h.95z" stroke="#3a414a" stroke-width=".05" fill="#3a414a"/><path d="M900.84 802.62l4.63 14.26h-9.27z" stroke="#3a414a" fill="#3a414a"/><path d="M800.38 1321.5v61.62" stroke="#3a414a" fill="none"/><path d="M800.86 1321.5h-.95v-.5h.96z" stroke="#3a414a" stroke-width=".05" fill="#3a414a"/><path d="M800.38 1397.88l-4.63-14.26h9.27z" stroke="#3a414a" fill="#3a414a"/><path d="M1280 1558.5V1496.88" stroke="#3a414a" fill="none"/><path d="M1280.47 1559h-.94v-.5h.94z" stroke="#3a414a" stroke-width=".05" fill="#3a414a"/><path d="M1280 1482.12l4.63 14.27-9.27-.02z" stroke="#3a414a" fill="#3a414a"/><path d="M1620 646a6 6 0 0 1 6-6h468a6 6 0 0 1 6 6v68a6 6 0 0 1-6 6h-468a6 6 0 0 1-6-6z" fill="none"/><use xlink:href="#i" transform="matrix(1,0,0,1,1620,640) translate(15 52.06922743055556)"/><use xlink:href="#j" transform="matrix(1,0,0,1,1620,640) translate(185.48828125000006 52.06922743055556)"/><path d="M1600 1646a6 6 0 0 1 6-6h468a6 6 0 0 1 6 6v68a6 6 0 0 1-6 6h-468a6 6 0 0 1-6-6z" fill="none"/><use xlink:href="#k" transform="matrix(1,0,0,1,1600,1640) translate(15 52.06922743055556)"/><path d="M1600 1166a6 6 0 0 1 6-6h468a6 6 0 0 1 6 6v68a6 6 0 0 1-6 6h-468a6 6 0 0 1-6-6z" fill="none"/><use xlink:href="#l" transform="matrix(1,0,0,1,1600,1160) translate(15 52.06922743055556)"/><path d="M0 1146a6 6 0 0 1 6-6h468a6 6 0 0 1 6 6v68a6 6 0 0 1-6 6H6a6 6 0 0 1-6-6z" fill="none"/><use xlink:href="#i" transform="matrix(1,0,0,1,0,1140) translate(215.74652777777771 52.06922743055556)"/><use xlink:href="#m" transform="matrix(1,0,0,1,0,1140) translate(386.23480902777777 52.06922743055556)"/><path d="M480.5 1180h78" stroke="#3a414a" fill="none"/><path d="M480.5 1180.47h-.5v-.94h.5zM559 1180.47h-.5v-.94h.5z" stroke="#3a414a" stroke-width=".05" fill="#3a414a"/><path d="M1619.5 680h-138" stroke="#3a414a" fill="none"/><path d="M1620 680.48h-.5v-.96h.5zM1481.5 680.48h-.5v-.96h.5z" stroke="#3a414a" stroke-width=".05" fill="#3a414a"/><path d="M1599.5 1200h-118" stroke="#3a414a" fill="none"/><path d="M1600 1200.47h-.5v-.94h.5zM1481.5 1200.47h-.5v-.94h.5z" stroke="#3a414a" stroke-width=".05" fill="#3a414a"/><path d="M1599.5 1680h-118" stroke="#3a414a" fill="none"/><path d="M1600 1680.47h-.5v-.94h.5zM1481.5 1680.47h-.5v-.94h.5z" stroke="#3a414a" stroke-width=".05" fill="#3a414a"/><path d="M800 981v81.62" stroke="#3a414a" fill="none"/><path d="M800.48 981h-.96v-.5h.96z" stroke="#3a414a" stroke-width=".05" fill="#3a414a"/><path d="M800 1077.38l-4.63-14.26h9.26z" stroke="#3a414a" fill="#3a414a"/><path d="M960 828.36a6 6 0 0 1 6-6h188a6 6 0 0 1 6 6v59.76a6 6 0 0 1-6 6H966a6 6 0 0 1-6-6z" fill="none"/><use xlink:href="#n" transform="matrix(1,0,0,1,959.9999999999994,822.364352564155) translate(40.64887152777777 48.06922743055556)"/><path d="M640 1406a6 6 0 0 1 6-6h308a6 6 0 0 1 6 6v68a6 6 0 0 1-6 6H646a6 6 0 0 1-6-6z" stroke="#3a414a" fill="#fff"/><use xlink:href="#o" transform="matrix(1,0,0,1,640,1400) translate(60.10416666666667 53.253038194444436)"/><use xlink:href="#p" transform="matrix(1,0,0,1,640,1400) translate(235.6662326388889 53.253038194444436)"/><path d="M1120 1406a6 6 0 0 1 6-6h308a6 6 0 0 1 6 6v68a6 6 0 0 1-6 6h-308a6 6 0 0 1-6-6z" stroke="#3a414a" fill="#fff"/><use xlink:href="#q" transform="matrix(1,0,0,1,1120.0000000000005,1400) translate(59.60286458333336 53.253038194444436)"/><use xlink:href="#p" transform="matrix(1,0,0,1,1120.0000000000005,1400) translate(236.16753472222223 53.253038194444436)"/><path d="M800 1481V1542.62" stroke="#3a414a" fill="none"/><path d="M800.48 1481h-.96v-.5h.96z" stroke="#3a414a" stroke-width=".05" fill="#3a414a"/><path d="M800 1557.38l-4.63-14.27 9.26.02z" stroke="#3a414a" fill="#3a414a"/><path d="M1280 1399V1337.38" stroke="#3a414a" fill="none"/><path d="M1280.47 1399.5h-.94v-.5h.94z" stroke="#3a414a" stroke-width=".05" fill="#3a414a"/><path d="M1280 1322.62l4.63 14.27-9.27-.02z" stroke="#3a414a" fill="#3a414a"/><path d="M640 906a6 6 0 0 1 6-6h308a6 6 0 0 1 6 6v68a6 6 0 0 1-6 6H646a6 6 0 0 1-6-6z" stroke="#3a414a" fill="#fff"/><g><use xlink:href="#r" transform="matrix(1,0,0,1,640.0000000000001,900) translate(73.30512152777779 53.253038194444436)"/><use xlink:href="#p" transform="matrix(1,0,0,1,640.0000000000001,900) translate(222.46527777777777 53.253038194444436)"/></g><path d="M959.5 858.24h-58.16" stroke="#3a414a" fill="none"/><path d="M960 858.72h-.5v-.95h.5z" stroke="#3a414a" stroke-width=".05" fill="#3a414a"/><path d="M901.35 858.24h-.5M1290.56 1078.5V817.38" stroke="#3a414a" fill="none"/><path d="M1291.03 1079h-.95v-.5h.95z" stroke="#3a414a" stroke-width=".05" fill="#3a414a"/><path d="M1290.56 802.62l4.63 14.26h-9.28z" stroke="#3a414a" fill="#3a414a"/><defs><path fill="#3a414a" d="M1120 0L938-465H352L172 0H0l578-1468h143L1296 0h-176zM885-618c-81-228-168-420-238-664-57 230-159 449-235 664h473" id="s"/><path fill="#3a414a" d="M1141-549c0 329-147 569-455 569-159 0-273-61-344-161h-12c23 199 7 418 12 633H176v-1588h135l23 150h8c77-108 175-170 344-170 311 0 455 237 455 567zm-172-2c0-242-88-424-307-424-256 0-323 154-320 426 3 280 68 430 324 430 213 0 303-196 303-432" id="t"/><g id="a"><use transform="matrix(0.015190972222222219,0,0,0.015190972222222219,0,0)" xlink:href="#s"/><use transform="matrix(0.015190972222222219,0,0,0.015190972222222219,19.687499999999996,0)" xlink:href="#t"/><use transform="matrix(0.015190972222222219,0,0,0.015190972222222219,38.752170138888886,0)" xlink:href="#t"/></g><path fill="#3a414a" d="M651 0H481v-1311H18v-151h1096v151H651V0" id="u"/><path fill="#3a414a" d="M690-1114c271 2 402 123 402 399V0H926v-709c-1-177-76-266-252-266-251 0-332 135-332 402V0H176v-1556h166c-4 200 8 426-8 612h10c61-100 187-171 346-170" id="v"/><path fill="#3a414a" d="M340-893c80-153 237-262 467-211l-23 154c-45-10-85-15-120-15-184-3-322 182-322 377V0H176v-1096h137l19 203h8" id="w"/><path fill="#3a414a" d="M995-51C878-2 799 19 639 20c-329 2-524-221-524-559 0-326 172-577 481-577 278 0 451 210 446 493v105H287c4 242 121 392 358 393 118 0 235-25 350-74v148zM864-653c2-195-85-324-270-324-190 0-288 139-303 324h573" id="x"/><path fill="#3a414a" d="M588-1114c260 0 384 106 385 366V0H850l-33-156h-8C708-34 639 17 442 20 231 23 94-94 94-303c0-221 177-337 531-348l186-6c11-203-40-320-233-320-91 0-195 28-310 84l-51-127c97-53 229-94 371-94zM268-301c-1 123 81 184 207 184 203 0 334-120 332-323v-99c-257 14-539-7-539 238" id="y"/><path fill="#3a414a" d="M115-545c0-330 146-571 454-571 149 0 263 54 342 162h13c-20-185-8-401-11-602h166V0H944l-22-147h-9C836-36 722 20 569 20c-309 0-454-234-454-565zm172 2c0 249 78 424 303 424 257 0 327-150 323-426-4-282-68-432-325-432-220 0-301 191-301 434" id="z"/><g id="b"><use transform="matrix(0.015190972222222219,0,0,0.015190972222222219,0,0)" xlink:href="#u"/><use transform="matrix(0.015190972222222219,0,0,0.015190972222222219,17.211371527777775,0)" xlink:href="#v"/><use transform="matrix(0.015190972222222219,0,0,0.015190972222222219,36.3064236111111,0)" xlink:href="#w"/><use transform="matrix(0.015190972222222219,0,0,0.015190972222222219,48.38324652777776,0)" xlink:href="#x"/><use transform="matrix(0.015190972222222219,0,0,0.015190972222222219,65.83767361111109,0)" xlink:href="#y"/><use transform="matrix(0.015190972222222219,0,0,0.015190972222222219,83.1401909722222,0)" xlink:href="#z"/></g><path fill="#3a414a" d="M715 0H553c4-427-9-874 8-1288-79 77-94 81-285 239l-88-114 387-299h140V0" id="A"/><use transform="matrix(0.015190972222222219,0,0,0.015190972222222219,0,0)" xlink:href="#A" id="c"/><path fill="#3a414a" d="M694-1116c270 0 399 125 398 401V0H926v-709c-1-177-76-266-252-266-250 0-332 133-332 400V0H176v-1096h135l27 150h8c62-101 190-170 348-170" id="B"/><use transform="matrix(0.015190972222222219,0,0,0.015190972222222219,0,0)" xlink:href="#B" id="d"/><path fill="#3a414a" d="M584-1331c-162 0-287 69-287 219 0 118 43 164 123 214 44 28 112 56 203 89 153 55 259 113 317 176s86 144 86 244c-1 276-228 409-520 409-173 0-307-22-400-67v-164c109 46 257 81 406 82 199 1 342-68 342-244 0-120-47-164-132-214-47-28-121-58-218-93-136-49-234-106-292-173s-87-154-87-261c-1-239 209-369 463-369 145 0 279 27 401 80l-53 148c-121-51-238-76-352-76" id="C"/><path fill="#3a414a" d="M342 0H176v-1096h166V0zm-82-1282c-61 0-98-43-98-111 0-69 36-110 98-110 59 0 98 43 98 110s-39 111-98 111" id="D"/><path fill="#3a414a" d="M125-741c0-247 161-377 414-375 57 0 109 7 155 20h379v105l-203 24c37 48 72 129 72 219 0 255-227 390-504 345-71 37-106 84-106 141 0 78 66 88 164 88h194c219-1 369 87 369 293 0 121-49 213-146 277s-239 96-426 96c-250 0-448-83-448-306C39 36 147-58 283-86c-52-23-102-79-99-152 4-104 57-143 133-192-107-42-192-164-192-311zM438-25c-143-1-242 70-239 209s131 181 290 181c139 0 242-21 309-63s101-98 101-169c0-147-88-158-262-158H438zm94-970c-158 0-243 88-243 250 0 153 93 233 246 233 162 0 243-79 243-236 0-165-82-247-246-247" id="E"/><path fill="#3a414a" d="M342 0H176v-1556h166V0" id="F"/><g id="e"><use transform="matrix(0.015190972222222219,0,0,0.015190972222222219,0,0)" xlink:href="#C"/><use transform="matrix(0.015190972222222219,0,0,0.015190972222222219,17.074652777777775,0)" xlink:href="#D"/><use transform="matrix(0.015190972222222219,0,0,0.015190972222222219,24.943576388888886,0)" xlink:href="#B"/><use transform="matrix(0.015190972222222219,0,0,0.015190972222222219,44.038628472222214,0)" xlink:href="#E"/><use transform="matrix(0.015190972222222219,0,0,0.015190972222222219,61.08289930555554,0)" xlink:href="#F"/><use transform="matrix(0.015190972222222219,0,0,0.015190972222222219,68.95182291666666,0)" xlink:href="#x"/></g><path fill="#3a414a" d="M287-543c-1 247 91 418 323 418 91 0 185-20 281-59v147C818 1 725 20 614 20c-329 0-499-221-499-561 0-349 172-575 510-575 96 0 221 26 282 57l-51 141c-61-25-157-50-235-51-223 0-334 142-334 426" id="G"/><path fill="#3a414a" d="M563 20c-271 0-399-123-399-399v-717h168v711c1 177 76 266 252 266 250 0 331-135 331-401v-576h166V0H944l-24-147h-9C848-44 724 20 563 20" id="H"/><g id="f"><use transform="matrix(0.015190972222222219,0,0,0.015190972222222219,0,0)" xlink:href="#C"/><use transform="matrix(0.015190972222222219,0,0,0.015190972222222219,17.074652777777775,0)" xlink:href="#G"/><use transform="matrix(0.015190972222222219,0,0,0.015190972222222219,31.885850694444436,0)" xlink:href="#v"/><use transform="matrix(0.015190972222222219,0,0,0.015190972222222219,50.980902777777764,0)" xlink:href="#x"/><use transform="matrix(0.015190972222222219,0,0,0.015190972222222219,68.43532986111109,0)" xlink:href="#z"/><use transform="matrix(0.015190972222222219,0,0,0.015190972222222219,87.49999999999997,0)" xlink:href="#H"/><use transform="matrix(0.015190972222222219,0,0,0.015190972222222219,106.5950520833333,0)" xlink:href="#F"/><use transform="matrix(0.015190972222222219,0,0,0.015190972222222219,114.46397569444441,0)" xlink:href="#x"/><use transform="matrix(0.015190972222222219,0,0,0.015190972222222219,131.91840277777774,0)" xlink:href="#w"/></g><g id="g"><use transform="matrix(0.015190972222222219,0,0,0.015190972222222219,0,0)" xlink:href="#u"/><use transform="matrix(0.015190972222222219,0,0,0.015190972222222219,17.211371527777775,0)" xlink:href="#v"/><use transform="matrix(0.015190972222222219,0,0,0.015190972222222219,36.3064236111111,0)" xlink:href="#w"/><use transform="matrix(0.015190972222222219,0,0,0.015190972222222219,48.38324652777776,0)" xlink:href="#x"/><use transform="matrix(0.015190972222222219,0,0,0.015190972222222219,65.83767361111109,0)" xlink:href="#y"/><use transform="matrix(0.015190972222222219,0,0,0.015190972222222219,83.1401909722222,0)" xlink:href="#z"/></g><path fill="#3a414a" d="M1128-1036c0 321-241 464-585 461H371V0H201v-1462h379c365 0 548 142 548 426zm-176 8c0-218-150-286-391-287H371v594h153c270-3 428-62 428-307" id="I"/><path fill="#3a414a" d="M621-1116c316 0 501 239 501 567 0 339-180 575-508 569S119-212 115-549c-4-339 178-567 506-567zm-5 141c-239 0-329 168-329 426 0 255 93 430 331 430s332-174 332-430-95-426-334-426" id="J"/><path fill="#3a414a" d="M502-977c-130 0-238 32-238 139 0 75 39 101 95 134 33 19 97 46 192 81 130 48 217 95 263 143s69 108 69 181C883-73 695 20 449 20 304 20 190-3 109-49v-154c91 47 216 86 344 86 149 0 270-36 270-168 0-43-21-76-55-109-56-55-367-158-434-208-74-55-128-109-128-225 0-327 490-342 754-217l-59 135c-110-45-210-68-299-68" id="K"/><g id="h"><use transform="matrix(0.015190972222222219,0,0,0.015190972222222219,0,0)" xlink:href="#I"/><use transform="matrix(0.015190972222222219,0,0,0.015190972222222219,18.730468749999996,0)" xlink:href="#w"/><use transform="matrix(0.015190972222222219,0,0,0.015190972222222219,30.80729166666666,0)" xlink:href="#J"/><use transform="matrix(0.015190972222222219,0,0,0.015190972222222219,49.59852430555554,0)" xlink:href="#G"/><use transform="matrix(0.015190972222222219,0,0,0.015190972222222219,64.4097222222222,0)" xlink:href="#x"/><use transform="matrix(0.015190972222222219,0,0,0.015190972222222219,81.86414930555553,0)" xlink:href="#K"/><use transform="matrix(0.015190972222222219,0,0,0.015190972222222219,96.70572916666663,0)" xlink:href="#K"/><use transform="matrix(0.015190972222222219,0,0,0.015190972222222219,111.54730902777774,0)" xlink:href="#J"/><use transform="matrix(0.015190972222222219,0,0,0.015190972222222219,130.33854166666663,0)" xlink:href="#w"/></g><path fill="#3a414a" d="M354-322c-2 123 60 204 176 205 51 1 114-10 150-20v127C647 7 557 20 506 20 294 20 188-92 188-315v-652H31v-80l157-69 70-234h96v254h318v129H354v645" id="L"/><g id="i"><use transform="matrix(0.015190972222222224,0,0,0.015190972222222224,0,0)" xlink:href="#s"/><use transform="matrix(0.015190972222222224,0,0,0.015190972222222224,19.687500000000004,0)" xlink:href="#t"/><use transform="matrix(0.015190972222222224,0,0,0.015190972222222224,38.75217013888889,0)" xlink:href="#t"/><use transform="matrix(0.015190972222222224,0,0,0.015190972222222224,57.816840277777786,0)" xlink:href="#F"/><use transform="matrix(0.015190972222222224,0,0,0.015190972222222224,65.6857638888889,0)" xlink:href="#D"/><use transform="matrix(0.015190972222222224,0,0,0.015190972222222224,73.55468750000001,0)" xlink:href="#G"/><use transform="matrix(0.015190972222222224,0,0,0.015190972222222224,88.36588541666669,0)" xlink:href="#y"/><use transform="matrix(0.015190972222222224,0,0,0.015190972222222224,105.6684027777778,0)" xlink:href="#L"/><use transform="matrix(0.015190972222222224,0,0,0.015190972222222224,116.65147569444447,0)" xlink:href="#D"/><use transform="matrix(0.015190972222222224,0,0,0.015190972222222224,124.5203993055556,0)" xlink:href="#J"/><use transform="matrix(0.015190972222222224,0,0,0.015190972222222224,143.31163194444449,0)" xlink:href="#B"/></g><path fill="#3a414a" d="M125-733c6-459 248-750 704-750 153 0 287 28 402 84l-72 146c-111-52-221-78-332-78-334-1-520 251-520 600 0 361 171 600 518 600 102 0 218-18 349-55v149C1073 1 948 20 799 20c-445 1-680-294-674-753" id="M"/><g id="j"><use transform="matrix(0.015190972222222224,0,0,0.015190972222222224,0,0)" xlink:href="#M"/><use transform="matrix(0.015190972222222224,0,0,0.015190972222222224,19.626736111111114,0)" xlink:href="#J"/><use transform="matrix(0.015190972222222224,0,0,0.015190972222222224,38.41796875,0)" xlink:href="#z"/><use transform="matrix(0.015190972222222224,0,0,0.015190972222222224,57.482638888888886,0)" xlink:href="#x"/></g><g id="k"><use transform="matrix(0.015190972222222224,0,0,0.015190972222222224,0,0)" xlink:href="#I"/><use transform="matrix(0.015190972222222224,0,0,0.015190972222222224,18.730468750000004,0)" xlink:href="#w"/><use transform="matrix(0.015190972222222224,0,0,0.015190972222222224,30.80729166666667,0)" xlink:href="#J"/><use transform="matrix(0.015190972222222224,0,0,0.015190972222222224,49.59852430555556,0)" xlink:href="#G"/><use transform="matrix(0.015190972222222224,0,0,0.015190972222222224,64.40972222222223,0)" xlink:href="#x"/><use transform="matrix(0.015190972222222224,0,0,0.015190972222222224,81.86414930555557,0)" xlink:href="#K"/><use transform="matrix(0.015190972222222224,0,0,0.015190972222222224,96.70572916666669,0)" xlink:href="#K"/><use transform="matrix(0.015190972222222224,0,0,0.015190972222222224,111.5473090277778,0)" xlink:href="#J"/><use transform="matrix(0.015190972222222224,0,0,0.015190972222222224,130.33854166666669,0)" xlink:href="#w"/></g><g id="l"><use transform="matrix(0.015190972222222224,0,0,0.015190972222222224,0,0)" xlink:href="#C"/><use transform="matrix(0.015190972222222224,0,0,0.015190972222222224,17.07465277777778,0)" xlink:href="#G"/><use transform="matrix(0.015190972222222224,0,0,0.015190972222222224,31.885850694444446,0)" xlink:href="#v"/><use transform="matrix(0.015190972222222224,0,0,0.015190972222222224,50.980902777777786,0)" xlink:href="#x"/><use transform="matrix(0.015190972222222224,0,0,0.015190972222222224,68.43532986111111,0)" xlink:href="#z"/><use transform="matrix(0.015190972222222224,0,0,0.015190972222222224,87.5,0)" xlink:href="#H"/><use transform="matrix(0.015190972222222224,0,0,0.015190972222222224,106.59505208333334,0)" xlink:href="#F"/><use transform="matrix(0.015190972222222224,0,0,0.015190972222222224,114.46397569444446,0)" xlink:href="#x"/><use transform="matrix(0.015190972222222224,0,0,0.015190972222222224,131.9184027777778,0)" xlink:href="#w"/></g><path fill="#3a414a" d="M1198-240c-25-390-10-810-14-1222h159V0h-194L350-1227h-8c30 405 10 805 16 1227H201v-1462h192l797 1222h8" id="N"/><g id="m"><use transform="matrix(0.015190972222222224,0,0,0.015190972222222224,0,0)" xlink:href="#N"/><use transform="matrix(0.015190972222222224,0,0,0.015190972222222224,23.454861111111114,0)" xlink:href="#J"/><use transform="matrix(0.015190972222222224,0,0,0.015190972222222224,42.24609375,0)" xlink:href="#z"/><use transform="matrix(0.015190972222222224,0,0,0.015190972222222224,61.310763888888886,0)" xlink:href="#x"/></g><path fill="#3a414a" d="M1368-1116c259 2 372 131 371 401V0h-166v-713c0-168-66-262-230-262-221 0-303 131-303 363V0H874v-713c-1-169-66-262-231-262-235 0-301 142-301 400V0H176v-1096h135l27 150h8c56-99 174-170 324-170 171 0 283 62 336 186h8c60-108 189-187 354-186" id="O"/><g id="n"><use transform="matrix(0.015190972222222224,0,0,0.015190972222222224,0,0)" xlink:href="#I"/><use transform="matrix(0.015190972222222224,0,0,0.015190972222222224,18.730468750000004,0)" xlink:href="#w"/><use transform="matrix(0.015190972222222224,0,0,0.015190972222222224,30.80729166666667,0)" xlink:href="#J"/><use transform="matrix(0.015190972222222224,0,0,0.015190972222222224,49.59852430555556,0)" xlink:href="#O"/><use transform="matrix(0.015190972222222224,0,0,0.015190972222222224,78.53732638888889,0)" xlink:href="#D"/><use transform="matrix(0.015190972222222224,0,0,0.015190972222222224,86.40625,0)" xlink:href="#K"/><use transform="matrix(0.015190972222222224,0,0,0.015190972222222224,101.24782986111111,0)" xlink:href="#x"/></g><path fill="#3a414a" d="M686 20c-159 0-273-61-344-161h-12L295 0H176v-1556h166c-2 198 6 423-8 606h8c77-109 192-164 344-164 310 0 455 234 455 565 0 329-147 569-455 569zm283-571c0-257-72-424-307-424-256 0-320 146-320 426s68 430 324 430c228 0 303-184 303-432" id="P"/><g id="o"><use transform="matrix(0.015190972222222219,0,0,0.015190972222222219,0,0)" xlink:href="#C"/><use transform="matrix(0.015190972222222219,0,0,0.015190972222222219,17.074652777777775,0)" xlink:href="#H"/><use transform="matrix(0.015190972222222219,0,0,0.015190972222222219,36.1697048611111,0)" xlink:href="#P"/><use transform="matrix(0.015190972222222219,0,0,0.015190972222222219,55.234374999999986,0)" xlink:href="#O"/><use transform="matrix(0.015190972222222219,0,0,0.015190972222222219,84.17317708333331,0)" xlink:href="#D"/><use transform="matrix(0.015190972222222219,0,0,0.015190972222222219,92.04210069444443,0)" xlink:href="#K"/><use transform="matrix(0.015190972222222219,0,0,0.015190972222222219,106.88368055555554,0)" xlink:href="#K"/><use transform="matrix(0.015190972222222219,0,0,0.015190972222222219,121.72526041666666,0)" xlink:href="#D"/><use transform="matrix(0.015190972222222219,0,0,0.015190972222222219,129.59418402777777,0)" xlink:href="#J"/><use transform="matrix(0.015190972222222219,0,0,0.015190972222222219,148.38541666666666,0)" xlink:href="#B"/></g><path fill="#3a414a" d="M801-1485c433 0 669 306 669 752 0 368-156 632-432 719l348 362h-247L854 18C372 45 125-259 125-735c0-456 232-750 676-750zm0 152c-345 0-496 236-496 600 0 367 148 604 494 604 348 0 491-235 491-604 0-366-143-600-489-600" id="Q"/><use transform="matrix(0.015190972222222219,0,0,0.015190972222222219,0,0)" xlink:href="#Q" id="p"/><g id="q"><use transform="matrix(0.015190972222222219,0,0,0.015190972222222219,0,0)" xlink:href="#M"/><use transform="matrix(0.015190972222222219,0,0,0.015190972222222219,19.626736111111107,0)" xlink:href="#J"/><use transform="matrix(0.015190972222222219,0,0,0.015190972222222219,38.41796874999999,0)" xlink:href="#O"/><use transform="matrix(0.015190972222222219,0,0,0.015190972222222219,67.35677083333331,0)" xlink:href="#t"/><use transform="matrix(0.015190972222222219,0,0,0.015190972222222219,86.4214409722222,0)" xlink:href="#F"/><use transform="matrix(0.015190972222222219,0,0,0.015190972222222219,94.29036458333331,0)" xlink:href="#x"/><use transform="matrix(0.015190972222222219,0,0,0.015190972222222219,111.74479166666664,0)" xlink:href="#L"/><use transform="matrix(0.015190972222222219,0,0,0.015190972222222219,122.72786458333331,0)" xlink:href="#D"/><use transform="matrix(0.015190972222222219,0,0,0.015190972222222219,130.59678819444443,0)" xlink:href="#J"/><use transform="matrix(0.015190972222222219,0,0,0.015190972222222219,149.38802083333331,0)" xlink:href="#B"/></g><path fill="#3a414a" d="M1016 0H201v-1462h815v151H371v471h606v150H371v538h645V0" id="R"/><path fill="#3a414a" d="M440-561L59-1096h189l289 420 288-420h187L631-561 1032 0H844L537-444 227 0H39" id="S"/><g id="r"><use transform="matrix(0.015190972222222219,0,0,0.015190972222222219,0,0)" xlink:href="#R"/><use transform="matrix(0.015190972222222219,0,0,0.015190972222222219,17.302517361111107,0)" xlink:href="#S"/><use transform="matrix(0.015190972222222219,0,0,0.015190972222222219,32.979600694444436,0)" xlink:href="#x"/><use transform="matrix(0.015190972222222219,0,0,0.015190972222222219,50.434027777777764,0)" xlink:href="#G"/><use transform="matrix(0.015190972222222219,0,0,0.015190972222222219,65.24522569444443,0)" xlink:href="#H"/><use transform="matrix(0.015190972222222219,0,0,0.015190972222222219,84.34027777777776,0)" xlink:href="#L"/><use transform="matrix(0.015190972222222219,0,0,0.015190972222222219,95.32335069444443,0)" xlink:href="#D"/><use transform="matrix(0.015190972222222219,0,0,0.015190972222222219,103.19227430555554,0)" xlink:href="#J"/><use transform="matrix(0.015190972222222219,0,0,0.015190972222222219,121.98350694444443,0)" xlink:href="#B"/></g></defs></g></svg>