<svg xmlns="http://www.w3.org/2000/svg" xmlns:xlink="http://www.w3.org/1999/xlink" xmlns:lucid="lucid" width="2122" height="922"><g transform="translate(21 -979)" lucid:page-tab-id="0_0"><path d="M0 1000h2500v1000H0z" fill="#fff"/><path d="M0 1000h2080v880H0z" stroke="#000" stroke-opacity="0" stroke-width="2" fill="#fff"/><path d="M560 1046a6 6 0 0 1 6-6h948a6 6 0 0 1 6 6v788a6 6 0 0 1-6 6H566a6 6 0 0 1-6-6z" fill-opacity="0"/><path d="M578.05 1040h8.04m8.02 0h8.03m8.04 0h8.02m8.03 0h8.04m8.02 0h8.04m8.03 0h8.02m8.04 0h8.03m8.02 0h8.04m8.03 0h8.03m8.03 0h8.04m8.03 0h8.03m8.04 0h8.03m8.03 0h8.04m8.03 0h8.04m8.03 0h8.03m8.04 0h8.03m8.04 0h8.03m8.03 0h8.04m8.03 0h8.03m8.04 0h8.03m8.04 0h8.04m8.03 0h8.04m8.04 0h8.04m8.03 0h8.04m8.04 0h8.03m8.05 0h8.03m8.03 0h8.05m8.03 0h8.03m8.05 0h8.03m8.04 0h8.03m8.04 0h8.02m8.03 0h8.04m8.02 0h8.03m8.04 0h8.02m8.04 0h8.03m8.02 0h8.04m8.03 0h8.03m8.03 0h8.03m8.03 0h8.03m8.03 0h8.03m8.03 0h8.04m8.03 0h8.03m8.04 0h8.03m8.04 0h8.03m8.03 0h8.04m8.03 0h8.04m8.03 0h8.03m8.04 0h8.03m8.04 0h8.04m8.03 0h8.04m8.04 0h8.03m8.04 0h8.04m8.04 0h8.03m8.04 0h8.04m8.03 0h8.05m8.03 0h8.03m8.05 0h8.03m8.03 0h8.05m8.03 0h4.02l.94.07.9.22.88.35.8.5.72.6.6.72.5.8.37.88.23.9.07.95v4.02m0 8.04v8.04m0 8.04v8.04m0 8.04v8.05m0 8.04v8.05m0 8.04v8.03m0 8.04v8.04m0 8.05v8.04m0 8.03v8.04m0 8.04v8.06m0 8.04v8.04m0 8.04v8.04m0 8.04v8.04m0 8.04v8.04m0 8.04v8.04m0 8.04v8.04m0 8.05v8.03m0 8.04v8.04m0 8.05v8.04m0 8.03v8.04m0 8.04v8.05m0 8.04v8.03m0 8.05v8.04m0 8.04v8.04m0 8.04v8.04m0 8.04v8.04m0 8.04v8.04m0 8.04v8.04m0 8.05v8.04m0 8.05v8.04m0 8.03v8.04m0 8.04v8.05m0 8.04v8.03m0 8.04v8.04m0 8.06v8.04m0 8.04v8.04m0 8.04v8.04m0 8.04v8.04m0 8.04v8.04m0 8.04v8.04m0 8.04v8.05m0 8.03v8.04m0 8.04v8.05m0 8.04v8.03m0 8.04v8.04m0 8.05v8.04m0 8.03v8.05m0 8.04v8.04m0 8.04v8.04m0 8.04v4.02l-.07.94-.22.9-.35.88-.5.8-.6.72-.72.6-.8.5-.88.37-.9.23-.95.07h-4.02m-8.03 0h-8.04m-8.02 0h-8.03m-8.04 0h-8.02m-8.03 0h-8.04m-8.02 0h-8.04m-8.03 0h-8.02m-8.04 0h-8.03m-8.03 0h-8.03m-8.03 0h-8.03m-8.03 0h-8.03m-8.03 0h-8.03m-8.04 0h-8.03m-8.03 0h-8.04m-8.03 0h-8.04m-8.03 0h-8.03m-8.04 0h-8.03m-8.04 0h-8.03m-8.03 0h-8.04m-8.03 0h-8.04m-8.04 0h-8.03m-8.04 0h-8.04m-8.03 0h-8.04m-8.04 0h-8.04m-8.03 0h-8.04m-8.04 0h-8.03m-8.05 0h-8.03m-8.03 0h-8.05m-8.03 0h-8.03m-8.05 0h-8.03m-8.04 0h-8.03m-8.04 0h-8.02m-8.03 0h-8.04m-8.02 0h-8.03m-8.04 0h-8.02m-8.04 0h-8.03m-8.02 0h-8.04m-8.03 0h-8.02m-8.04 0h-8.03m-8.03 0h-8.03m-8.04 0h-8.03m-8.03 0h-8.04m-8.03 0h-8.03m-8.04 0h-8.03m-8.04 0H803m-8.03 0h-8.04m-8.03 0h-8.04m-8.03 0h-8.03m-8.04 0h-8.03m-8.03 0h-8.04m-8.03 0h-8.04m-8.04 0h-8.03m-8.04 0h-8.04m-8.04 0h-8.03m-8.04 0h-8.04m-8.03 0h-8.05m-8.03 0h-8.03m-8.05 0h-8.03m-8.03 0h-8.05m-8.03 0H566l-.94-.07-.9-.22-.88-.35-.8-.5-.72-.6-.6-.72-.5-.8-.37-.88-.23-.9-.07-.95v-4.02m0-8.04v-8.04m0-8.04v-8.04m0-8.04v-8.05m0-8.04v-8.05m0-8.04v-8.03m0-8.04v-8.04m0-8.05v-8.04m0-8.03v-8.04m0-8.04v-8.06m0-8.04v-8.04m0-8.04v-8.04m0-8.04V1637m0-8.04v-8.04m0-8.04v-8.04m0-8.04v-8.04m0-8.05v-8.03m0-8.04v-8.04m0-8.05v-8.04m0-8.03v-8.04m0-8.04v-8.05m0-8.04v-8.03m0-8.05v-8.04m0-8.04v-8.04m0-8.04v-8.04m0-8.04v-8.04m0-8.04v-8.04m0-8.04v-8.04m0-8.05v-8.04m0-8.05v-8.04m0-8.03v-8.04m0-8.04v-8.05m0-8.04v-8.03m0-8.04v-8.04m0-8.06v-8.04m0-8.04v-8.04m0-8.04v-8.04m0-8.04v-8.04m0-8.04v-8.04m0-8.04v-8.04m0-8.04v-8.05m0-8.03v-8.04m0-8.04v-8.05m0-8.04v-8.03m0-8.04v-8.04m0-8.05v-8.04m0-8.03v-8.05m0-8.04v-8.04m0-8.04v-8.04m0-8.04V1046l.07-.94.22-.9.35-.88.5-.8.6-.72.72-.6.8-.5.88-.37.9-.23.95-.07h4.02" stroke="#282c33" stroke-width="2" fill="none"/><path d="M600 1366a6 6 0 0 1 6-6h868a6 6 0 0 1 6 6v428a6 6 0 0 1-6 6H606a6 6 0 0 1-6-6z" fill-opacity="0"/><path d="M618.06 1360h8.03m8.03 0h8.04m8.03 0h8.04m8.04 0h8.04m8.03 0h8.04m8.03 0h8.03m8.04 0h8.04m8.03 0h8.04m8.05 0h8.03m8.04 0h8.04m8.04 0h8.03m8.04 0h8.04m8.04 0h8.04m8.04 0h8.04m8.03 0h8.03m8.04 0h8.03m8.04 0h8.04m8.04 0h8.03m8.04 0h8.03m8.03 0h8.04m8.04 0h8.03m8.04 0h8.05m8.03 0h8.04m8.04 0h8.04m8.03 0h8.04m8.04 0h8.04m8.04 0h8.04m8.04 0h8.03m8.03 0h8.04m8.03 0h8.04m8.04 0h8.04m8.03 0h8.04m8.03 0h8.03m8.04 0h8.04m8.03 0h8.04m8.05 0h8.03m8.04 0h8.04m8.04 0h8.03m8.04 0h8.04m8.04 0h8.04m8.04 0h8.04m8.03 0h8.03m8.04 0h8.03m8.04 0h8.04m8.04 0h8.03m8.04 0h8.03m8.03 0h8.04m8.04 0h8.03m8.04 0h8.05m8.03 0h8.04m8.04 0h8.04m8.03 0h8.04m8.04 0h8.04m8.04 0h4.02l.94.07.9.22.88.35.8.5.72.6.6.72.5.8.37.88.23.9.07.95v3.96m0 7.93v7.9m0 7.94v7.93m0 7.92v7.92m0 7.92v7.93m0 7.93v7.92m0 7.93v7.92m0 7.93v7.93m0 7.92v7.93m0 7.92v7.93m0 7.93v7.92m0 7.93v7.93m0 7.93v7.92m0 7.93v7.94m0 7.92v7.93m0 7.9v7.94m0 7.93v7.92m0 7.92v7.92m0 7.93v7.93m0 7.92v7.93m0 7.92v7.93m0 7.93v7.92m0 7.93v7.92m0 7.93v7.93m0 7.92v7.93m0 7.93v7.93m0 7.92v7.93m0 7.94v3.96l-.07.94-.22.9-.35.88-.5.8-.6.72-.72.6-.8.5-.88.37-.9.23-.95.07h-4.02m-8.04 0h-8.03m-8.03 0h-8.04m-8.03 0h-8.04m-8.04 0h-8.04m-8.03 0h-8.04m-8.03 0h-8.03m-8.04 0h-8.04m-8.03 0h-8.04m-8.05 0h-8.03m-8.04 0h-8.04m-8.04 0h-8.03m-8.04 0h-8.04m-8.04 0h-8.04m-8.04 0h-8.04m-8.03 0h-8.03m-8.04 0h-8.03m-8.04 0h-8.04m-8.04 0h-8.03m-8.04 0h-8.03m-8.03 0h-8.04m-8.04 0h-8.03m-8.04 0h-8.05m-8.03 0h-8.04m-8.04 0h-8.04m-8.03 0h-8.04m-8.04 0h-8.04m-8.04 0h-8.04m-8.04 0h-8.03m-8.03 0h-8.04m-8.03 0h-8.04m-8.04 0h-8.04m-8.03 0h-8.04m-8.03 0h-8.03m-8.04 0h-8.04m-8.03 0h-8.04m-8.05 0h-8.03m-8.04 0h-8.04m-8.04 0h-8.03m-8.04 0h-8.04m-8.04 0h-8.04m-8.04 0h-8.04m-8.03 0h-8.03m-8.04 0h-8.03m-8.04 0h-8.04m-8.04 0h-8.03m-8.04 0h-8.03m-8.03 0h-8.04m-8.04 0h-8.03m-8.04 0h-8.05m-8.03 0h-8.04m-8.04 0h-8.04m-8.03 0h-8.04m-8.04 0h-8.04m-8.04 0H606l-.94-.07-.9-.22-.88-.35-.8-.5-.72-.6-.6-.72-.5-.8-.37-.88-.23-.9-.07-.95v-3.96m0-7.93v-7.9m0-7.94v-7.93m0-7.92v-7.92m0-7.92v-7.93m0-7.93v-7.92m0-7.93v-7.92m0-7.93v-7.93m0-7.92v-7.93m0-7.92v-7.93m0-7.93v-7.92m0-7.93v-7.93m0-7.93v-7.92m0-7.93v-7.94m0-7.92v-7.93m0-7.9v-7.94m0-7.93v-7.92m0-7.92v-7.92m0-7.93v-7.93m0-7.92v-7.93m0-7.92V1473m0-7.93v-7.92m0-7.93v-7.92m0-7.93v-7.93m0-7.92v-7.93m0-7.93v-7.93m0-7.92v-7.93m0-7.94V1366l.07-.94.22-.9.35-.88.5-.8.6-.72.72-.6.8-.5.88-.37.9-.23.95-.07h4.02" stroke="#282c33" stroke-width="2" fill="none"/><path d="M600 1086a6 6 0 0 1 6-6h868a6 6 0 0 1 6 6v228a6 6 0 0 1-6 6H606a6 6 0 0 1-6-6z" fill-opacity="0"/><path d="M618.06 1080h8.03m8.03 0h8.04m8.03 0h8.04m8.04 0h8.04m8.03 0h8.04m8.03 0h8.03m8.04 0h8.04m8.03 0h8.04m8.05 0h8.03m8.04 0h8.04m8.04 0h8.03m8.04 0h8.04m8.04 0h8.04m8.04 0h8.04m8.03 0h8.03m8.04 0h8.03m8.04 0h8.04m8.04 0h8.03m8.04 0h8.03m8.03 0h8.04m8.04 0h8.03m8.04 0h8.05m8.03 0h8.04m8.04 0h8.04m8.03 0h8.04m8.04 0h8.04m8.04 0h8.04m8.04 0h8.03m8.03 0h8.04m8.03 0h8.04m8.04 0h8.04m8.03 0h8.04m8.03 0h8.03m8.04 0h8.04m8.03 0h8.04m8.05 0h8.03m8.04 0h8.04m8.04 0h8.03m8.04 0h8.04m8.04 0h8.04m8.04 0h8.04m8.03 0h8.03m8.04 0h8.03m8.04 0h8.04m8.04 0h8.03m8.04 0h8.03m8.03 0h8.04m8.04 0h8.03m8.04 0h8.05m8.03 0h8.04m8.04 0h8.04m8.03 0h8.04m8.04 0h8.04m8.04 0h4.02l.94.07.9.22.88.35.8.5.72.6.6.72.5.8.37.88.23.9.07.95v4.07m0 8.14v8.16m0 8.14v8.14m0 8.15v8.13m0 8.14v8.14m0 8.16v8.14m0 8.14v8.15m0 8.13v8.14m0 8.14v8.16m0 8.14v8.14m0 8.15v8.13m0 8.14v8.14m0 8.16v8.14m0 8.14v8.15m0 8.13v4.07l-.07.94-.22.9-.35.88-.5.8-.6.72-.72.6-.8.5-.88.37-.9.23-.95.07h-4.02m-8.04 0h-8.03m-8.03 0h-8.04m-8.03 0h-8.04m-8.04 0h-8.04m-8.03 0h-8.04m-8.03 0h-8.03m-8.04 0h-8.04m-8.03 0h-8.04m-8.05 0h-8.03m-8.04 0h-8.04m-8.04 0h-8.03m-8.04 0h-8.04m-8.04 0h-8.04m-8.04 0h-8.04m-8.03 0h-8.03m-8.04 0h-8.03m-8.04 0h-8.04m-8.04 0h-8.03m-8.04 0h-8.03m-8.03 0h-8.04m-8.04 0h-8.03m-8.04 0h-8.05m-8.03 0h-8.04m-8.04 0h-8.04m-8.03 0h-8.04m-8.04 0h-8.04m-8.04 0h-8.04m-8.04 0h-8.03m-8.03 0h-8.04m-8.03 0h-8.04m-8.04 0h-8.04m-8.03 0h-8.04m-8.03 0h-8.03m-8.04 0h-8.04m-8.03 0h-8.04m-8.05 0h-8.03m-8.04 0h-8.04m-8.04 0h-8.03m-8.04 0h-8.04m-8.04 0h-8.04m-8.04 0h-8.04m-8.03 0h-8.03m-8.04 0h-8.03m-8.04 0h-8.04m-8.04 0h-8.03m-8.04 0h-8.03m-8.03 0h-8.04m-8.04 0h-8.03m-8.04 0h-8.05m-8.03 0h-8.04m-8.04 0h-8.04m-8.03 0h-8.04m-8.04 0h-8.04m-8.04 0H606l-.94-.07-.9-.22-.88-.35-.8-.5-.72-.6-.6-.72-.5-.8-.37-.88-.23-.9-.07-.95v-4.07m0-8.14v-8.16m0-8.14v-8.14m0-8.15v-8.13m0-8.14v-8.14m0-8.16v-8.14m0-8.14v-8.15m0-8.13v-8.14m0-8.14v-8.16m0-8.14v-8.14m0-8.15v-8.13m0-8.14v-8.14m0-8.16v-8.14m0-8.14v-8.15m0-8.13V1086l.07-.94.22-.9.35-.88.5-.8.6-.72.72-.6.8-.5.88-.37.9-.23.95-.07h4.02" stroke="#282c33" stroke-width="2" fill="none"/><path d="M640 1406a6 6 0 0 1 6-6h788a6 6 0 0 1 6 6v148a6 6 0 0 1-6 6H646a6 6 0 0 1-6-6z" stroke="#3a414a" fill="#fff"/><use xlink:href="#a" transform="matrix(1,0,0,1,645,1405) translate(322.69097222222223 84.81553819444443)"/><path d="M640 1606a6 6 0 0 1 6-6h788a6 6 0 0 1 6 6v148a6 6 0 0 1-6 6H646a6 6 0 0 1-6-6z" stroke="#3a414a" fill="#fff"/><use xlink:href="#b" transform="matrix(1,0,0,1,645,1605) translate(323.4809027777778 84.81553819444443)"/><path d="M1600 1166a6 6 0 0 1 6-6h468a6 6 0 0 1 6 6v68a6 6 0 0 1-6 6h-468a6 6 0 0 1-6-6z" fill="none"/><use xlink:href="#c" transform="matrix(1,0,0,1,1600,1160) translate(15 52.06922743055556)"/><use xlink:href="#d" transform="matrix(1,0,0,1,1600,1160) translate(185.48828125000006 52.06922743055556)"/><path d="M0 1406a6 6 0 0 1 6-6h468a6 6 0 0 1 6 6v68a6 6 0 0 1-6 6H6a6 6 0 0 1-6-6z" fill="none"/><use xlink:href="#c" transform="matrix(1,0,0,1,0,1400) translate(215.74652777777771 52.06922743055556)"/><use xlink:href="#e" transform="matrix(1,0,0,1,0,1400) translate(386.23480902777777 52.06922743055556)"/><path d="M480.5 1440h78" stroke="#3a414a" fill="none"/><path d="M480.5 1440.47h-.5v-.94h.5zM559 1440.47h-.5v-.94h.5z" stroke="#3a414a" stroke-width=".05" fill="#3a414a"/><path d="M1599.5 1200h-118" stroke="#3a414a" fill="none"/><path d="M1600 1200.47h-.5v-.94h.5zM1481.5 1200.47h-.5v-.94h.5z" stroke="#3a414a" stroke-width=".05" fill="#3a414a"/><path d="M640 1126a6 6 0 0 1 6-6h788a6 6 0 0 1 6 6v148a6 6 0 0 1-6 6H646a6 6 0 0 1-6-6z" stroke="#3a414a" fill="#fff"/><use xlink:href="#f" transform="matrix(1,0,0,1,645,1125) translate(274.6950954861111 84.81553819444443)"/><use xlink:href="#g" transform="matrix(1,0,0,1,645,1125) translate(445.1833767361111 84.81553819444443)"/><path d="M1600 1546a6 6 0 0 1 6-6h468a6 6 0 0 1 6 6v68a6 6 0 0 1-6 6h-468a6 6 0 0 1-6-6z" fill="none"/><use xlink:href="#h" transform="matrix(1,0,0,1,1600,1540) translate(15 52.06922743055556)"/><use xlink:href="#d" transform="matrix(1,0,0,1,1600,1540) translate(116.59722222222224 52.06922743055556)"/><path d="M1599.5 1580h-118" stroke="#3a414a" fill="none"/><path d="M1600 1580.47h-.5v-.94h.5zM1481.5 1580.47h-.5v-.94h.5z" stroke="#3a414a" stroke-width=".05" fill="#3a414a"/><defs><path fill="#3a414a" d="M584-1331c-162 0-287 69-287 219 0 118 43 164 123 214 44 28 112 56 203 89 153 55 259 113 317 176s86 144 86 244c-1 276-228 409-520 409-173 0-307-22-400-67v-164c109 46 257 81 406 82 199 1 342-68 342-244 0-120-47-164-132-214-47-28-121-58-218-93-136-49-234-106-292-173s-87-154-87-261c-1-239 209-369 463-369 145 0 279 27 401 80l-53 148c-121-51-238-76-352-76" id="i"/><path fill="#3a414a" d="M287-543c-1 247 91 418 323 418 91 0 185-20 281-59v147C818 1 725 20 614 20c-329 0-499-221-499-561 0-349 172-575 510-575 96 0 221 26 282 57l-51 141c-61-25-157-50-235-51-223 0-334 142-334 426" id="j"/><path fill="#3a414a" d="M690-1114c271 2 402 123 402 399V0H926v-709c-1-177-76-266-252-266-251 0-332 135-332 402V0H176v-1556h166c-4 200 8 426-8 612h10c61-100 187-171 346-170" id="k"/><path fill="#3a414a" d="M995-51C878-2 799 19 639 20c-329 2-524-221-524-559 0-326 172-577 481-577 278 0 451 210 446 493v105H287c4 242 121 392 358 393 118 0 235-25 350-74v148zM864-653c2-195-85-324-270-324-190 0-288 139-303 324h573" id="l"/><path fill="#3a414a" d="M115-545c0-330 146-571 454-571 149 0 263 54 342 162h13c-20-185-8-401-11-602h166V0H944l-22-147h-9C836-36 722 20 569 20c-309 0-454-234-454-565zm172 2c0 249 78 424 303 424 257 0 327-150 323-426-4-282-68-432-325-432-220 0-301 191-301 434" id="m"/><path fill="#3a414a" d="M563 20c-271 0-399-123-399-399v-717h168v711c1 177 76 266 252 266 250 0 331-135 331-401v-576h166V0H944l-24-147h-9C848-44 724 20 563 20" id="n"/><path fill="#3a414a" d="M342 0H176v-1556h166V0" id="o"/><path fill="#3a414a" d="M340-893c80-153 237-262 467-211l-23 154c-45-10-85-15-120-15-184-3-322 182-322 377V0H176v-1096h137l19 203h8" id="p"/><g id="a"><use transform="matrix(0.015190972222222219,0,0,0.015190972222222219,0,0)" xlink:href="#i"/><use transform="matrix(0.015190972222222219,0,0,0.015190972222222219,17.074652777777775,0)" xlink:href="#j"/><use transform="matrix(0.015190972222222219,0,0,0.015190972222222219,31.885850694444436,0)" xlink:href="#k"/><use transform="matrix(0.015190972222222219,0,0,0.015190972222222219,50.980902777777764,0)" xlink:href="#l"/><use transform="matrix(0.015190972222222219,0,0,0.015190972222222219,68.43532986111109,0)" xlink:href="#m"/><use transform="matrix(0.015190972222222219,0,0,0.015190972222222219,87.49999999999997,0)" xlink:href="#n"/><use transform="matrix(0.015190972222222219,0,0,0.015190972222222219,106.5950520833333,0)" xlink:href="#o"/><use transform="matrix(0.015190972222222219,0,0,0.015190972222222219,114.46397569444441,0)" xlink:href="#l"/><use transform="matrix(0.015190972222222219,0,0,0.015190972222222219,131.91840277777774,0)" xlink:href="#p"/></g><path fill="#3a414a" d="M1128-1036c0 321-241 464-585 461H371V0H201v-1462h379c365 0 548 142 548 426zm-176 8c0-218-150-286-391-287H371v594h153c270-3 428-62 428-307" id="q"/><path fill="#3a414a" d="M621-1116c316 0 501 239 501 567 0 339-180 575-508 569S119-212 115-549c-4-339 178-567 506-567zm-5 141c-239 0-329 168-329 426 0 255 93 430 331 430s332-174 332-430-95-426-334-426" id="r"/><path fill="#3a414a" d="M502-977c-130 0-238 32-238 139 0 75 39 101 95 134 33 19 97 46 192 81 130 48 217 95 263 143s69 108 69 181C883-73 695 20 449 20 304 20 190-3 109-49v-154c91 47 216 86 344 86 149 0 270-36 270-168 0-43-21-76-55-109-56-55-367-158-434-208-74-55-128-109-128-225 0-327 490-342 754-217l-59 135c-110-45-210-68-299-68" id="s"/><g id="b"><use transform="matrix(0.015190972222222219,0,0,0.015190972222222219,0,0)" xlink:href="#q"/><use transform="matrix(0.015190972222222219,0,0,0.015190972222222219,18.730468749999996,0)" xlink:href="#p"/><use transform="matrix(0.015190972222222219,0,0,0.015190972222222219,30.80729166666666,0)" xlink:href="#r"/><use transform="matrix(0.015190972222222219,0,0,0.015190972222222219,49.59852430555554,0)" xlink:href="#j"/><use transform="matrix(0.015190972222222219,0,0,0.015190972222222219,64.4097222222222,0)" xlink:href="#l"/><use transform="matrix(0.015190972222222219,0,0,0.015190972222222219,81.86414930555553,0)" xlink:href="#s"/><use transform="matrix(0.015190972222222219,0,0,0.015190972222222219,96.70572916666663,0)" xlink:href="#s"/><use transform="matrix(0.015190972222222219,0,0,0.015190972222222219,111.54730902777774,0)" xlink:href="#r"/><use transform="matrix(0.015190972222222219,0,0,0.015190972222222219,130.33854166666663,0)" xlink:href="#p"/></g><path fill="#3a414a" d="M1120 0L938-465H352L172 0H0l578-1468h143L1296 0h-176zM885-618c-81-228-168-420-238-664-57 230-159 449-235 664h473" id="t"/><path fill="#3a414a" d="M1141-549c0 329-147 569-455 569-159 0-273-61-344-161h-12c23 199 7 418 12 633H176v-1588h135l23 150h8c77-108 175-170 344-170 311 0 455 237 455 567zm-172-2c0-242-88-424-307-424-256 0-323 154-320 426 3 280 68 430 324 430 213 0 303-196 303-432" id="u"/><path fill="#3a414a" d="M342 0H176v-1096h166V0zm-82-1282c-61 0-98-43-98-111 0-69 36-110 98-110 59 0 98 43 98 110s-39 111-98 111" id="v"/><path fill="#3a414a" d="M588-1114c260 0 384 106 385 366V0H850l-33-156h-8C708-34 639 17 442 20 231 23 94-94 94-303c0-221 177-337 531-348l186-6c11-203-40-320-233-320-91 0-195 28-310 84l-51-127c97-53 229-94 371-94zM268-301c-1 123 81 184 207 184 203 0 334-120 332-323v-99c-257 14-539-7-539 238" id="w"/><path fill="#3a414a" d="M354-322c-2 123 60 204 176 205 51 1 114-10 150-20v127C647 7 557 20 506 20 294 20 188-92 188-315v-652H31v-80l157-69 70-234h96v254h318v129H354v645" id="x"/><path fill="#3a414a" d="M694-1116c270 0 399 125 398 401V0H926v-709c-1-177-76-266-252-266-250 0-332 133-332 400V0H176v-1096h135l27 150h8c62-101 190-170 348-170" id="y"/><g id="c"><use transform="matrix(0.015190972222222224,0,0,0.015190972222222224,0,0)" xlink:href="#t"/><use transform="matrix(0.015190972222222224,0,0,0.015190972222222224,19.687500000000004,0)" xlink:href="#u"/><use transform="matrix(0.015190972222222224,0,0,0.015190972222222224,38.75217013888889,0)" xlink:href="#u"/><use transform="matrix(0.015190972222222224,0,0,0.015190972222222224,57.816840277777786,0)" xlink:href="#o"/><use transform="matrix(0.015190972222222224,0,0,0.015190972222222224,65.6857638888889,0)" xlink:href="#v"/><use transform="matrix(0.015190972222222224,0,0,0.015190972222222224,73.55468750000001,0)" xlink:href="#j"/><use transform="matrix(0.015190972222222224,0,0,0.015190972222222224,88.36588541666669,0)" xlink:href="#w"/><use transform="matrix(0.015190972222222224,0,0,0.015190972222222224,105.6684027777778,0)" xlink:href="#x"/><use transform="matrix(0.015190972222222224,0,0,0.015190972222222224,116.65147569444447,0)" xlink:href="#v"/><use transform="matrix(0.015190972222222224,0,0,0.015190972222222224,124.5203993055556,0)" xlink:href="#r"/><use transform="matrix(0.015190972222222224,0,0,0.015190972222222224,143.31163194444449,0)" xlink:href="#y"/></g><g id="d"><use transform="matrix(0.015190972222222224,0,0,0.015190972222222224,0,0)" xlink:href="#s"/><use transform="matrix(0.015190972222222224,0,0,0.015190972222222224,14.841579861111112,0)" xlink:href="#u"/><use transform="matrix(0.015190972222222224,0,0,0.015190972222222224,33.90625,0)" xlink:href="#w"/><use transform="matrix(0.015190972222222224,0,0,0.015190972222222224,51.208767361111114,0)" xlink:href="#j"/><use transform="matrix(0.015190972222222224,0,0,0.015190972222222224,66.01996527777779,0)" xlink:href="#l"/></g><path fill="#3a414a" d="M1198-240c-25-390-10-810-14-1222h159V0h-194L350-1227h-8c30 405 10 805 16 1227H201v-1462h192l797 1222h8" id="z"/><g id="e"><use transform="matrix(0.015190972222222224,0,0,0.015190972222222224,0,0)" xlink:href="#z"/><use transform="matrix(0.015190972222222224,0,0,0.015190972222222224,23.454861111111114,0)" xlink:href="#r"/><use transform="matrix(0.015190972222222224,0,0,0.015190972222222224,42.24609375,0)" xlink:href="#m"/><use transform="matrix(0.015190972222222224,0,0,0.015190972222222224,61.310763888888886,0)" xlink:href="#l"/></g><g id="f"><use transform="matrix(0.015190972222222219,0,0,0.015190972222222219,0,0)" xlink:href="#t"/><use transform="matrix(0.015190972222222219,0,0,0.015190972222222219,19.687499999999996,0)" xlink:href="#u"/><use transform="matrix(0.015190972222222219,0,0,0.015190972222222219,38.752170138888886,0)" xlink:href="#u"/><use transform="matrix(0.015190972222222219,0,0,0.015190972222222219,57.81684027777777,0)" xlink:href="#o"/><use transform="matrix(0.015190972222222219,0,0,0.015190972222222219,65.68576388888889,0)" xlink:href="#v"/><use transform="matrix(0.015190972222222219,0,0,0.015190972222222219,73.5546875,0)" xlink:href="#j"/><use transform="matrix(0.015190972222222219,0,0,0.015190972222222219,88.36588541666666,0)" xlink:href="#w"/><use transform="matrix(0.015190972222222219,0,0,0.015190972222222219,105.66840277777777,0)" xlink:href="#x"/><use transform="matrix(0.015190972222222219,0,0,0.015190972222222219,116.65147569444443,0)" xlink:href="#v"/><use transform="matrix(0.015190972222222219,0,0,0.015190972222222219,124.52039930555556,0)" xlink:href="#r"/><use transform="matrix(0.015190972222222219,0,0,0.015190972222222219,143.31163194444443,0)" xlink:href="#y"/></g><g id="g"><use transform="matrix(0.015190972222222219,0,0,0.015190972222222219,0,0)" xlink:href="#j"/><use transform="matrix(0.015190972222222219,0,0,0.015190972222222219,14.811197916666663,0)" xlink:href="#r"/><use transform="matrix(0.015190972222222219,0,0,0.015190972222222219,33.60243055555555,0)" xlink:href="#m"/><use transform="matrix(0.015190972222222219,0,0,0.015190972222222219,52.667100694444436,0)" xlink:href="#l"/></g><path fill="#3a414a" d="M1257 0h-200L524-709 371-573V0H201v-1462h170v725l663-725h201L647-827" id="A"/><g id="h"><use transform="matrix(0.015190972222222224,0,0,0.015190972222222224,0,0)" xlink:href="#A"/><use transform="matrix(0.015190972222222224,0,0,0.015190972222222224,19.095052083333336,0)" xlink:href="#l"/><use transform="matrix(0.015190972222222224,0,0,0.015190972222222224,36.54947916666667,0)" xlink:href="#p"/><use transform="matrix(0.015190972222222224,0,0,0.015190972222222224,49.24913194444445,0)" xlink:href="#y"/><use transform="matrix(0.015190972222222224,0,0,0.015190972222222224,68.34418402777779,0)" xlink:href="#w"/><use transform="matrix(0.015190972222222224,0,0,0.015190972222222224,85.6467013888889,0)" xlink:href="#o"/></g></defs></g></svg>