<svg xmlns="http://www.w3.org/2000/svg" xmlns:xlink="http://www.w3.org/1999/xlink" xmlns:lucid="lucid" width="2402.5" height="2522.5"><g transform="translate(261 540.5)" lucid:page-tab-id="0_0"><path d="M-500-1000h3000v3000H-500z" fill="#fff"/><path d="M801 526a6 6 0 0 1 6-6h1307a6 6 0 0 1 6 6v1428a6 6 0 0 1-6 6H807a6 6 0 0 1-6-6z" fill-opacity="0"/><path d="M804.7 520.47l.45-.18.9-.23.95-.07h2m4 0h4.02m4 0h4.02m4 0h4.02m4 0h4.02m4 0h4.02m4 0h4.02m4 0h4m4.02 0h4m4.02 0h4m4.02 0h4m4.02 0h4m4.02 0h4m4 0h4.02m4 0h4.02m4 0h4.02m4 0h4.02m4 0h4.02m4 0h4.02m4 0h4m4.02 0h4m4.02 0h4m4.02 0h4m4.02 0h4m4.02 0h4m4.02 0h4m4 0h4.02m4 0h4.02m4 0h4.02m4 0h4.02m4 0h4.02m4 0h4.02m4 0h4m4.02 0h4m4.02 0h4m4.02 0h4m4.02 0h4m4.02 0h4m4 0h4.02m4 0h4.02m4 0h4.02m4 0h4.02m4 0h4.02m4 0h4.02m4 0h4.02m4 0h4m4.02 0h4m4.02 0h4m4.02 0h4m4.02 0h4m4.02 0h4m4 0h4.02m4 0h4.02m4 0h4.02m4 0h4.02m4 0h4.02m4 0h4.02m4 0h4m4.02 0h4m4.02 0h4m4.02 0h4m4.02 0h4m4.02 0h4m4 0h4.02m4 0h4.02m4 0h4.02m4 0h4.02m4 0h4.02m4 0h4.02m4 0h4.02m4 0h4m4.02 0h4m4.02 0h4m4.02 0h4m4.02 0h4m4.02 0h4m4 0h4.02m4 0h4.02m4 0h4.02m4 0h4.02m4 0h4.02m4 0h4.02m4 0h4m4.02 0h4m4.02 0h4m4.02 0h4m4.02 0h4m4.02 0h4m4.02 0h4m4 0h4.02m4 0h4.02m4 0h4.02m4 0h4.02m4 0h4.02m4 0h4m4.02 0h4m4.02 0h4m4.02 0h4m4.02 0h4m4.02 0h4m4.02 0h4m4.02 0h4m4 0h4.02m4 0h4.02m4 0h4.02m4 0h4.02m4 0h4.02m4 0h4m4.02 0h4m4.02 0h4m4.02 0h4m4.02 0h4m4.02 0h4m4.02 0h4m4 0h4.02m4 0h4.02m4 0h4.02m4 0h4.02m4 0h4.02m4 0h4m4.02 0h4m4.02 0h4m4.02 0h4m4.02 0h4m4.02 0h4m4.02 0h4m4.02 0h4m4 0h4.02m4 0h4.02m4 0h4.02m4 0h4.02m4 0h4.02m4 0h4m4.02 0h4m4.02 0h4m4.02 0h4m4.02 0h4m4.02 0h4m4.02 0h4m4 0h4.02m4 0h4.02m4 0h4.02m4 0h4.02m4 0h4.02m4 0h4m4.02 0h4m4.02 0h4m4.02 0h4m4.02 0h4m4.02 0h4m4.02 0h4m4.02 0h4m4 0h4.02m4 0h4.02m4 0h4.02m4 0h4.02m4 0h4.02m4 0h4m4.02 0h4m4.02 0h4m4.02 0h4m4.02 0h4m4.02 0h4m4 0h2.02l.94.07.9.22.45.17m3.23 3.24l.18.45.23.9.07.95v2m0 3.98v4m0 3.98v4m0 3.98v4m0 3.98v4m0 3.97v3.98m0 4v3.98m0 4v3.98m0 4v3.98m0 3.98v4m0 3.98v4m0 3.98v4m0 3.98v4m0 3.98v3.98m0 4v3.98m0 4v3.98m0 4v3.98m0 4v3.98m0 3.98v4m0 3.98v4m0 3.98v4m0 3.98v4m0 3.97v4m0 4v3.98m0 4v3.98m0 4v3.98m0 3.98v4m0 3.98v4m0 3.98v4m0 3.98v4m0 3.98v3.98m0 4v3.98m0 4v3.98m0 4v3.98m0 4v3.98m0 3.98v4m0 3.98v4m0 3.98v4m0 3.98v4m0 3.97v4m0 3.98v4m0 4v3.98m0 4v3.98m0 4V871m0 4V879m0 4v4m0 3.98v4m0 3.98v3.98m0 4v3.98m0 4v3.98m0 4v3.98m0 4v3.98m0 3.98v4m0 3.98v4m0 3.98v4m0 3.98v4m0 3.97v4m0 3.98v4m0 3.98v4m0 4v3.98m0 4v3.97m0 4v3.98m0 4v3.98m0 4v4m0 3.98v3.98m0 4v3.98m0 4v3.98m0 4v3.98m0 4v3.97m0 4v3.98m0 4v3.98m0 4v3.98m0 4v3.98m0 4v3.98m0 4v3.98m0 4v3.98m0 4v3.98m0 4v3.97m0 4v3.98m0 4v3.98m0 4v3.98m0 4v3.98m0 4v3.98m0 4v3.98m0 4v3.98m0 4v3.98m0 3.98v4m0 3.98v4m0 3.98v4m0 3.98v4m0 3.97v3.98m0 4v3.98m0 4v3.98m0 4v3.98m0 3.98v4m0 3.98v4m0 3.98v4m0 3.98v4m0 3.98v3.98m0 4v3.98m0 4v3.98m0 4v3.98m0 4v3.97m0 4v4m0 3.98v4m0 3.98v4m0 3.98v4m0 3.97v4m0 4v3.98m0 4v3.98m0 4v3.98m0 4v3.97m0 4v4m0 3.98v4m0 3.98v4m0 3.98v3.98m0 4v3.98m0 4v3.98m0 4v3.98m0 4v3.98m0 3.98v4m0 3.98v4m0 3.98v4m0 3.98v4m0 3.97v4m0 3.98v4m0 4v3.98m0 4v3.98m0 3.98v4m0 3.98v4m0 3.98v4m0 3.98v4m0 3.98v4m0 3.97v4m0 3.98v4m0 4v3.98m0 4v3.97m0 4v3.98m0 4v3.98m0 4v4m0 3.98v4m0 3.97v4m0 3.98v4m0 3.98v4m0 4v3.98m0 4v3.97m0 4v3.98m0 4v3.98m0 4v4m0 3.98v3.98m0 4v3.98m0 4v3.98m0 4v3.98m0 4v3.98m0 3.98v4m0 3.98v4m0 3.98v4m0 3.98v4m0 3.97v4m0 3.98v4m0 3.98v4m0 3.98v4m0 3.98v4m0 3.98v4m0 3.98v4m0 3.98v4m0 3.98v4m0 3.97v4m0 3.98v4m0 3.98v4m0 3.98v4m0 3.98v4m0 3.98v4m0 3.98v4m0 3.98v4m0 3.98v3.98m0 4v3.98m0 4v3.98m0 4v3.98m0 4v1.98l-.07.94-.22.9-.17.45m-3.24 3.23l-.45.18-.9.23-.95.07h-2m-4 0h-4.02m-4 0h-4.02m-4 0h-4.02m-4 0h-4.02m-4 0h-4.02m-4 0h-4m-4.02 0h-4m-4.02 0h-4m-4.02 0h-4m-4.02 0h-4m-4.02 0h-4m-4.02 0h-4m-4 0h-4.02m-4 0h-4.02m-4 0h-4.02m-4 0h-4.02m-4 0h-4.02m-4 0h-4.02m-4 0h-4m-4.02 0h-4m-4.02 0h-4m-4.02 0h-4m-4.02 0h-4m-4.02 0h-4m-4 0h-4.02m-4 0h-4.02m-4 0h-4.02m-4 0h-4.02m-4 0h-4.02m-4 0h-4.02m-4 0h-4.02m-4 0h-4m-4.02 0h-4m-4.02 0h-4m-4.02 0h-4m-4.02 0h-4m-4.02 0h-4m-4 0h-4.02m-4 0h-4.02m-4 0h-4.02m-4 0h-4.02m-4 0h-4.02m-4 0h-4.02m-4 0h-4m-4.02 0h-4m-4.02 0h-4m-4.02 0h-4m-4.02 0h-4m-4.02 0h-4m-4 0h-4.02m-4 0h-4.02m-4 0h-4.02m-4 0H1687m-4 0H1679m-4 0h-4.02m-4 0h-4.02m-4 0h-4m-4.02 0h-4m-4.02 0h-4m-4.02 0h-4m-4.02 0h-4m-4.02 0h-4m-4 0h-4.02m-4 0h-4.02m-4 0h-4.02m-4 0h-4.02m-4 0h-4.02m-4 0h-4.02m-4 0h-4m-4.02 0h-4m-4.02 0h-4m-4.02 0h-4m-4.02 0h-4m-4.02 0h-4m-4.02 0h-4m-4 0h-4.02m-4 0h-4.02m-4 0h-4.02m-4 0h-4.02m-4 0h-4.02m-4 0h-4m-4.02 0h-4m-4.02 0h-4m-4.02 0h-4m-4.02 0h-4m-4.02 0h-4m-4.02 0h-4m-4.02 0h-4m-4 0h-4.02m-4 0h-4.02m-4 0h-4.02m-4 0h-4.02m-4 0h-4.02m-4 0h-4m-4.02 0h-4m-4.02 0h-4m-4.02 0h-4m-4.02 0h-4m-4.02 0h-4m-4.02 0h-4m-4 0h-4.02m-4 0h-4.02m-4 0h-4.02m-4 0h-4.02m-4 0h-4.02m-4 0h-4m-4.02 0h-4m-4.02 0h-4m-4.02 0h-4m-4.02 0h-4m-4.02 0h-4m-4.02 0h-4m-4.02 0h-4m-4 0h-4.02m-4 0h-4.02m-4 0h-4.02m-4 0h-4.02m-4 0h-4.02m-4 0h-4m-4.02 0h-4m-4.02 0h-4m-4.02 0h-4m-4.02 0h-4m-4.02 0h-4m-4.02 0h-4m-4 0h-4.02m-4 0h-4.02m-4 0h-4.02m-4 0h-4.02m-4 0h-4.02m-4 0h-4m-4.02 0h-4m-4.02 0h-4m-4.02 0h-4m-4.02 0h-4m-4.02 0h-4m-4.02 0h-4m-4 0h-4.02m-4 0h-4.02m-4 0h-4.02m-4 0h-4.02m-4 0h-4.02m-4 0h-4.02m-4 0h-4m-4.02 0h-4m-4.02 0h-4m-4.02 0h-4m-4.02 0h-4m-4.02 0h-4m-4.02 0h-4m-4 0h-4.02m-4 0h-4.02m-4 0h-4.02m-4 0h-4.02m-4 0h-4.02m-4 0h-4m-4.02 0h-4m-4.02 0h-4m-4.02 0h-4m-4.02 0h-4m-4.02 0h-4m-4.02 0h-4m-4 0H807l-.94-.07-.9-.22-.45-.17m-3.23-3.24l-.18-.45-.22-.9-.08-.95v-2m0-3.98v-4m0-3.98v-4m0-3.98v-4m0-3.98v-3.98m0-4v-3.98m0-4v-3.98m0-4v-3.98m0-4v-3.98m0-3.98v-4m0-3.98v-4m0-3.98v-4m0-3.98v-4m0-3.97v-4m0-4v-3.98m0-4v-3.98m0-4v-3.98m0-4v-3.97m0-4v-4m0-3.98v-4m0-3.98v-4m0-3.98v-4m0-3.97v-4m0-4v-3.98m0-4v-3.98m0-4v-3.98m0-3.98v-4m0-3.98v-4m0-3.98v-4m0-3.98v-4m0-3.98v-3.98m0-4v-3.98m0-4v-3.98m0-4v-3.98m0-4v-3.97m0-4v-3.98m0-4v-4m0-3.98v-4m0-3.98v-3.98m0-4v-3.98m0-4v-3.98m0-4v-3.98m0-4v-3.98m0-4v-3.97m0-4V1601m0-4v-4m0-3.98v-4m0-3.97v-4m0-3.98v-4m0-3.98v-4m0-4v-3.98m0-4v-3.97m0-4v-3.98m0-4v-3.98m0-4v-4m0-3.98v-4m0-3.97v-4m0-3.98v-4m0-3.98v-4m0-4v-3.98m0-3.98v-4m0-3.98v-4m0-3.98v-4m0-3.98v-4m0-3.98v-3.98m0-4v-3.98m0-4v-3.98m0-4v-3.98m0-4v-3.97m0-4v-3.98m0-4v-3.98m0-4v-3.98m0-4v-3.98m0-4v-3.98m0-4v-3.98m0-4v-3.98m0-4v-3.98m0-4v-3.97m0-4v-3.98m0-4v-3.98m0-4v-3.98m0-4v-3.98m0-4v-3.98m0-4v-3.98m0-4v-3.98m0-4v-3.98m0-3.98v-4m0-3.98v-4m0-3.98v-4m0-3.98v-4m0-3.97v-3.98m0-4v-3.98m0-4v-3.98m0-4v-3.98m0-3.98v-4m0-3.98v-4m0-3.98v-4m0-3.98v-4m0-3.98v-3.98m0-4v-3.98m0-4v-3.98m0-4v-3.98m0-4v-3.97m0-4v-4m0-3.98v-4m0-3.98v-4m0-3.98v-4m0-3.97v-4m0-4v-3.98m0-4v-3.98m0-4v-3.98m0-4v-3.97m0-4v-4m0-3.98v-4m0-3.98v-4m0-3.98v-3.98m0-4v-3.98m0-4v-3.98m0-4v-3.98m0-4v-3.98m0-3.98v-4m0-3.98v-4m0-3.98v-4m0-3.98v-4m0-3.98v-3.98m0-4v-3.98m0-4v-3.98m0-4v-3.98m0-4v-3.97m0-4v-3.98m0-4v-4m0-3.98v-4m0-3.98v-4m0-3.97v-4m0-3.98v-4m0-4v-3.98m0-4v-3.98m0-3.98v-4m0-3.98v-4m0-3.98v-4m0-3.98v-4m0-3.98v-3.98m0-4v-3.98m0-4v-3.98m0-4v-3.98m0-4v-3.97m0-4v-3.98m0-4v-3.98m0-4v-4m0-3.98v-4m0-3.97v-4m0-3.98v-4m0-3.98v-4m0-4v-3.98m0-3.98v-4m0-3.98v-4m0-3.98v-4m0-3.98v-4m0-3.98v-3.98m0-4v-3.98m0-4v-3.98m0-4v-3.98m0-4v-3.97m0-4v-3.98m0-4v-3.98m0-4v-3.98m0-4v-4m0-3.97v-4m0-3.98v-4m0-3.98v-4m0-3.98v-4m0-3.98v-4m0-3.98v-4m0-3.98v-4m0-3.98v-4m0-3.98v-3.98m0-4v-3.98m0-4v-3.98m0-4V532m0-4V526l.07-.94.22-.9.17-.45" stroke="#000" fill="none"/><path d="M801-434.9a6 6 0 0 1 6-6h1307a6 6 0 0 1 6 6v909.8a6 6 0 0 1-6 6H807a6 6 0 0 1-6-6z" fill-opacity="0"/><path d="M804.7-440.43l.45-.18.9-.22.95-.08h2m4 0h4.02m4 0h4.02m4 0h4.02m4 0h4.02m4 0h4.02m4 0h4.02m4 0h4m4.02 0h4m4.02 0h4m4.02 0h4m4.02 0h4m4.02 0h4m4 0h4.02m4 0h4.02m4 0h4.02m4 0h4.02m4 0h4.02m4 0h4.02m4 0h4m4.02 0h4m4.02 0h4m4.02 0h4m4.02 0h4m4.02 0h4m4.02 0h4m4 0h4.02m4 0h4.02m4 0h4.02m4 0h4.02m4 0h4.02m4 0h4.02m4 0h4m4.02 0h4m4.02 0h4m4.02 0h4m4.02 0h4m4.02 0h4m4 0h4.02m4 0h4.02m4 0h4.02m4 0h4.02m4 0h4.02m4 0h4.02m4 0h4.02m4 0h4m4.02 0h4m4.02 0h4m4.02 0h4m4.02 0h4m4.02 0h4m4 0h4.02m4 0h4.02m4 0h4.02m4 0h4.02m4 0h4.02m4 0h4.02m4 0h4m4.02 0h4m4.02 0h4m4.02 0h4m4.02 0h4m4.02 0h4m4 0h4.02m4 0h4.02m4 0h4.02m4 0h4.02m4 0h4.02m4 0h4.02m4 0h4.02m4 0h4m4.02 0h4m4.02 0h4m4.02 0h4m4.02 0h4m4.02 0h4m4 0h4.02m4 0h4.02m4 0h4.02m4 0h4.02m4 0h4.02m4 0h4.02m4 0h4m4.02 0h4m4.02 0h4m4.02 0h4m4.02 0h4m4.02 0h4m4.02 0h4m4 0h4.02m4 0h4.02m4 0h4.02m4 0h4.02m4 0h4.02m4 0h4m4.02 0h4m4.02 0h4m4.02 0h4m4.02 0h4m4.02 0h4m4.02 0h4m4.02 0h4m4 0h4.02m4 0h4.02m4 0h4.02m4 0h4.02m4 0h4.02m4 0h4m4.02 0h4m4.02 0h4m4.02 0h4m4.02 0h4m4.02 0h4m4.02 0h4m4 0h4.02m4 0h4.02m4 0h4.02m4 0h4.02m4 0h4.02m4 0h4m4.02 0h4m4.02 0h4m4.02 0h4m4.02 0h4m4.02 0h4m4.02 0h4m4.02 0h4m4 0h4.02m4 0h4.02m4 0h4.02m4 0h4.02m4 0h4.02m4 0h4m4.02 0h4m4.02 0h4m4.02 0h4m4.02 0h4m4.02 0h4m4.02 0h4m4 0h4.02m4 0h4.02m4 0h4.02m4 0h4.02m4 0h4.02m4 0h4m4.02 0h4m4.02 0h4m4.02 0h4m4.02 0h4m4.02 0h4m4.02 0h4m4.02 0h4m4 0h4.02m4 0h4.02m4 0h4.02m4 0h4.02m4 0h4.02m4 0h4m4.02 0h4m4.02 0h4m4.02 0h4m4.02 0h4m4.02 0h4m4 0h2.02l.94.07.9.22.45.18m3.23 3.23l.18.45.23.9.07.95v2m0 4v3.98m0 4v3.98m0 4v3.98m0 4v3.98m0 4v3.98m0 4v3.98m0 4v3.98m0 4v3.98m0 4v3.98m0 4v3.98m0 4v3.98m0 4v3.98m0 4v4m0 3.97v4m0 4v3.98m0 4v4m0 3.98v4m0 3.98v4m0 3.98v4m0 3.98v4m0 3.98v4m0 3.98v4m0 3.98v4m0 3.98v4m0 3.98v4m0 3.98v4m0 3.98v4m0 3.98v4m0 4v3.98m0 4v3.98m0 4v3.98m0 4v3.98m0 4v3.98m0 4v3.98m0 4v3.98m0 4v3.98m0 4v3.98m0 4v3.98m0 4v3.98m0 4v3.98m0 4v3.98m0 4v3.98m0 4v4m0 3.98v4m0 3.98v4m0 3.98v4m0 3.98v4m0 3.98v4m0 3.98v4m0 3.98v4m0 3.98v4m0 3.98v4m0 3.98v4m0 3.98v4m0 3.98v4m0 3.98v4m0 3.98v4m0 4v3.98m0 4v3.98m0 4v3.98m0 4v3.98m0 4v3.98m0 4v3.98m0 4v3.98m0 4v3.98m0 4v3.98m0 4v3.98m0 4v3.98m0 4v3.98m0 4v3.98m0 4v3.98m0 4v4m0 3.98v4m0 3.98v4m0 3.98v4m0 3.98v4m0 3.98v4m0 3.98v4m0 3.98v4m0 3.98v4m0 3.98v4m0 3.98v4m0 3.98v4m0 3.98v4m0 3.98v4m0 3.98v4m0 4v3.98m0 4v3.98m0 4v3.98m0 4v3.98m0 4v3.98m0 4v3.98m0 4v3.98m0 4v3.98m0 4v3.98m0 4v3.98m0 4v3.98m0 4v3.98m0 4v3.98m0 4v4m0 3.97v4m0 4v3.98m0 4v3.98m0 4v4m0 3.98v4m0 3.98v4m0 3.98v4m0 3.98v4m0 3.98v4m0 3.98v4m0 3.98v4m0 3.98v4m0 3.98v4m0 3.98v2l-.07.94-.22.9-.17.45m-3.24 3.23l-.45.18-.9.22-.95.08h-2m-4 0h-4.02m-4 0h-4.02m-4 0h-4.02m-4 0h-4.02m-4 0h-4.02m-4 0h-4m-4.02 0h-4m-4.02 0h-4m-4.02 0h-4m-4.02 0h-4m-4.02 0h-4m-4.02 0h-4m-4 0h-4.02m-4 0h-4.02m-4 0h-4.02m-4 0h-4.02m-4 0h-4.02m-4 0h-4.02m-4 0h-4m-4.02 0h-4m-4.02 0h-4m-4.02 0h-4m-4.02 0h-4m-4.02 0h-4m-4 0h-4.02m-4 0h-4.02m-4 0h-4.02m-4 0h-4.02m-4 0h-4.02m-4 0h-4.02m-4 0h-4.02m-4 0h-4m-4.02 0h-4m-4.02 0h-4m-4.02 0h-4m-4.02 0h-4m-4.02 0h-4m-4 0h-4.02m-4 0h-4.02m-4 0h-4.02m-4 0h-4.02m-4 0h-4.02m-4 0h-4.02m-4 0h-4m-4.02 0h-4m-4.02 0h-4m-4.02 0h-4m-4.02 0h-4m-4.02 0h-4m-4 0h-4.02m-4 0h-4.02m-4 0h-4.02m-4 0H1687m-4 0H1679m-4 0h-4.02m-4 0h-4.02m-4 0h-4m-4.02 0h-4m-4.02 0h-4m-4.02 0h-4m-4.02 0h-4m-4.02 0h-4m-4 0h-4.02m-4 0h-4.02m-4 0h-4.02m-4 0h-4.02m-4 0h-4.02m-4 0h-4.02m-4 0h-4m-4.02 0h-4m-4.02 0h-4m-4.02 0h-4m-4.02 0h-4m-4.02 0h-4m-4.02 0h-4m-4 0h-4.02m-4 0h-4.02m-4 0h-4.02m-4 0h-4.02m-4 0h-4.02m-4 0h-4m-4.02 0h-4m-4.02 0h-4m-4.02 0h-4m-4.02 0h-4m-4.02 0h-4m-4.02 0h-4m-4.02 0h-4m-4 0h-4.02m-4 0h-4.02m-4 0h-4.02m-4 0h-4.02m-4 0h-4.02m-4 0h-4m-4.02 0h-4m-4.02 0h-4m-4.02 0h-4m-4.02 0h-4m-4.02 0h-4m-4.02 0h-4m-4 0h-4.02m-4 0h-4.02m-4 0h-4.02m-4 0h-4.02m-4 0h-4.02m-4 0h-4m-4.02 0h-4m-4.02 0h-4m-4.02 0h-4m-4.02 0h-4m-4.02 0h-4m-4.02 0h-4m-4.02 0h-4m-4 0h-4.02m-4 0h-4.02m-4 0h-4.02m-4 0h-4.02m-4 0h-4.02m-4 0h-4m-4.02 0h-4m-4.02 0h-4m-4.02 0h-4m-4.02 0h-4m-4.02 0h-4m-4.02 0h-4m-4 0h-4.02m-4 0h-4.02m-4 0h-4.02m-4 0h-4.02m-4 0h-4.02m-4 0h-4m-4.02 0h-4m-4.02 0h-4m-4.02 0h-4m-4.02 0h-4m-4.02 0h-4m-4.02 0h-4m-4 0h-4.02m-4 0h-4.02m-4 0h-4.02m-4 0h-4.02m-4 0h-4.02m-4 0h-4.02m-4 0h-4m-4.02 0h-4m-4.02 0h-4m-4.02 0h-4m-4.02 0h-4m-4.02 0h-4m-4.02 0h-4m-4 0h-4.02m-4 0h-4.02m-4 0h-4.02m-4 0h-4.02m-4 0h-4.02m-4 0h-4m-4.02 0h-4m-4.02 0h-4m-4.02 0h-4m-4.02 0h-4m-4.02 0h-4m-4.02 0h-4m-4 0H807l-.94-.07-.9-.22-.45-.18m-3.23-3.23l-.18-.45-.22-.9-.08-.95v-2m0-4v-3.98m0-4v-3.98m0-4v-3.98m0-4V441m0-4V433m0-4v-3.98m0-4v-3.98m0-4v-3.98m0-4v-3.98m0-4v-3.98m0-4v-3.98m0-4v-3.98m0-4v-4m0-3.97v-4m0-4v-3.98m0-4v-4m0-3.98v-4m0-3.98v-4m0-3.98v-4m0-3.98v-4m0-3.98v-4m0-3.98v-4m0-3.98v-4m0-3.98v-4m0-3.98v-4m0-3.98v-4m0-3.98v-4m0-4v-3.97m0-4v-4m0-3.98v-4m0-3.98v-4m0-4v-3.98m0-4v-3.98m0-4v-3.98m0-4v-3.98m0-4v-3.98m0-4v-3.98m0-4v-3.98m0-4v-3.98m0-4v-3.98m0-4v-3.98m0-4v-3.98m0-4v-4m0-3.98v-4m0-3.98v-4m0-3.98v-4m0-3.98v-4m0-3.98v-4m0-3.98v-4m0-3.98v-4m0-3.98v-4m0-3.98v-4m0-3.98v-4m0-3.98v-4m0-3.98v-4m0-3.98v-4m0-3.98v-4m0-4v-3.98m0-4V2.05m0-4v-3.98m0-4v-3.98m0-4v-3.98m0-4v-3.98m0-4v-3.98m0-4v-3.98m0-4v-3.98m0-4v-3.98m0-4v-3.98m0-4v-3.98m0-4v-3.98m0-4v-3.98m0-4v-3.98m0-4v-4m0-3.98v-4m0-3.98v-4m0-3.98v-4m0-3.98v-4m0-3.98v-4m0-3.98v-4m0-3.98v-4m0-3.98v-4m0-3.98v-4m0-3.98v-4m0-3.98v-4m0-3.98v-4m0-3.98v-4m0-4v-3.98m0-4v-3.98m0-4v-3.98m0-4v-3.98m0-4v-3.98m0-4v-3.98m0-4v-3.98m0-4v-3.98m0-4v-3.98m0-4v-3.98m0-4v-3.98m0-4v-3.98m0-4v-3.98m0-4v-4m0-3.97v-4m0-4v-3.98m0-4v-3.98m0-4v-4m0-3.98v-4m0-3.98v-4m0-3.98v-4m0-3.98v-4m0-3.98v-4m0-3.98v-4m0-3.98v-4m0-3.98v-4m0-3.98v-4m0-3.98v-2l.07-.94.22-.9.17-.45" stroke="#000" fill="none"/><path d="M1320.5-120c0 22.1-17.9 40-40 40s-40-17.9-40-40 17.9-40 40-40 40 17.9 40 40z" stroke="#000" fill="#fff"/><path d="M1320.5 40c0 22.1-17.9 40-40 40s-40-17.9-40-40 17.9-40 40-40 40 17.9 40 40z" stroke="#000" fill="#3a414a"/><path d="M1641 120.9c0 22.1-17.9 40-40 40s-40-17.9-40-40 17.9-40 40-40 40 17.9 40 40z" stroke="#000" fill="#fff"/><path d="M1321 359.1c0 22.1-17.9 40-40 40s-40-17.9-40-40 17.9-40 40-40 40 17.9 40 40z" stroke="#000" fill="#3a414a"/><path d="M1641 280.9c0 22.1-17.9 40-40 40s-40-17.9-40-40 17.9-40 40-40 40 17.9 40 40z" stroke="#000" fill="#fff"/><path d="M1280.5-79v62.12" stroke="#000" fill="none"/><path d="M1280.5-79.5l.47-.02v.53h-.94v-.53z" stroke="#000" stroke-width=".05"/><path d="M1280.5-2.12l-4.63-14.26h9.27z" stroke="#000"/><path d="M1601 161.9V224" stroke="#000" fill="none"/><path d="M1601 161.4l.48-.02v.53h-.95v-.53z" stroke="#000" stroke-width=".05"/><path d="M1601 238.78l-4.63-14.27h9.27z" stroke="#000"/><path d="M1281 80.98v1.98m0 3.95v3.96m0 3.95v3.97m0 3.95v3.95m0 3.95v3.95m0 3.96v3.95m0 3.95v3.95m0 3.95v3.96m0 3.94v3.95m0 3.94v3.95m0 3.95V162m0 3.95v3.95m0 3.95v3.96m0 3.96v3.95m0 3.96v3.95m0 3.97v3.95m0 3.95v3.95m0 3.95v3.96m0 3.95v3.95m0 3.95v3.95m0 3.96v3.94m0 3.95v3.94m0 3.95v3.95m0 3.95v3.95m0 3.95v3.95m0 3.96v3.96m0 3.95v3.96m0 3.95v3.97m0 3.95v3.95m0 3.95v3.95m0 3.95v1.98" stroke="#000" fill="none"/><path d="M1281.48 81h-.95v-.5l.95-.03zM1281.48 318.63l-.47-.03-.47.02v-.53h.95z" stroke="#000" stroke-width=".05"/><path d="M600.5 1281v1.98m0 3.96v3.96m0 3.95v3.96m0 3.97v3.96m0 3.96v3.95m0 3.95v3.96m0 3.96v3.96m0 3.96v3.96m0 3.95v3.96m0 3.97v3.96m0 3.96v3.95m0 3.95v3.96m0 3.96v3.96m0 3.96v3.96m0 3.95v3.96m0 3.97v2.05l-.03.03-.02.04-.02.03-.03.02-.04.02-.03.02h-.16l-.03.03-.04.02-.03.02-.02.03-.02.04-.02.03v2.07m0 3.96v3.95m0 3.95v3.96m0 3.96v3.96m0 3.96v3.96m0 3.95v3.96m0 3.97v3.96m0 3.96v3.95m0 3.95v3.96m0 3.96v3.96m0 3.96v3.96m0 3.95v3.96m0 3.97v3.96m0 3.96v3.95m0 3.95v3.96m0 3.96v1.98" stroke="#000" fill="none"/><path d="M600.5 1280.5l.48-.02v.53H600v-.53zM600.48 1519.53l-.47-.03-.48.02v-.53h.96z" stroke="#000" stroke-width=".05"/><path d="M-39.5-159v2m0 4v4m0 4v3.98m0 4v4m0 4v4m0 3.98v4m0 4v4m0 3.98v4m0 4v4m0 4v3.98m0 4v4m0 4v4m0 3.98v4m0 4v4m0 4v3.98m0 4v4m0 4v3.98m0 4v4m0 4v4m0 3.98v4m0 4v4m0 4v3.98m0 4v4m0 4v4m0 3.98v4m0 4v4m0 4v3.98m0 4v4m0 4v3.98m0 4v4m0 4v4m0 3.98v4m0 4v4m0 4v3.98m0 4v4m0 4v4m0 3.98v4m0 4v4m0 4v3.98m0 4v4m0 4v3.98m0 4v4m0 4v4m0 3.98v4m0 4v4m0 4v3.98m0 4v4m0 4v4m0 3.98v4m0 4v4m0 4v3.98m0 4v4m0 4v3.98m0 4v4m0 4v4m0 3.98v4m0 4v4m0 4v3.98m0 4v4m0 4v4m0 3.98v4m0 4v4m0 4v3.98m0 4v4m0 4v3.98m0 4v4m0 4v4m0 3.98v4m0 4v4m0 4v3.98m0 4v4m0 4v4m0 3.98v4m0 4v4m0 4v3.98m0 4v4m0 4v4m0 3.98v4m0 4v4m0 3.98v4m0 4v4m0 4v3.98m0 4v4m0 4v4m0 3.98v4m0 4v4m0 4v3.98m0 4v4m0 4v4m0 3.98v4m0 4v4m0 3.98v4m0 4v4m0 4v3.98m0 4v4m0 4v4m0 3.98v4m0 4v4m0 3.98v4m0 4v4m0 4v4m0 3.98v4m0 4v4m0 3.98v4m0 4v4m0 4v3.98m0 4v4m0 4v4m0 3.98v4m0 4v4m0 4v3.98m0 4v4m0 4v4m0 3.98v4m0 4v4m0 3.98v4m0 4v4m0 4V778m0 4v4m0 4v4m0 3.98v4m0 4v4m0 4v3.98m0 4v4m0 4v4m0 3.98v4m0 4v4m0 3.98v4m0 4v4m0 4v3.98m0 4v4m0 4v4m0 3.98v4m0 4v4m0 4v3.98m0 4v4m0 4v4m0 3.98v4m0 4v4m0 3.98v4m0 4v4m0 4v3.98m0 4v4m0 4v4m0 3.98v4m0 4v4m0 4v3.98m0 4v4m0 4v4m0 3.98v4m0 4v4m0 3.98v4m0 4v4m0 4v3.98m0 4v4m0 4v4m0 3.98v4m0 4v4m0 3.98v4m0 4v4m0 4v3.98m0 4v4m0 4v4m0 3.98v4m0 4v4m0 4v3.98m0 4v4m0 4v4m0 3.98v4m0 4v4m0 4v3.98m0 4v4m0 4v3.98m0 4v4m0 4v4m0 3.98v4m0 4v4m0 4v3.98m0 4v4m0 4v4m0 3.98v4m0 4v4m0 3.98v4m0 4v4m0 4v3.98m0 4v4m0 4v4m0 3.98v4m0 4v4m0 4v3.98m0 4v4m0 4v4m0 3.98v4m0 4v4m0 3.98v4m0 4v4m0 4v3.98m0 4v4m0 4v4m0 3.98v4m0 4v4m0 4v3.98m0 4v4m0 4v4m0 3.98v4m0 4v4m0 4v3.98m0 4v4m0 4v3.98m0 4v4m0 4v4m0 3.98v4m0 4v4m0 4v3.98m0 4v4m0 4v4m0 3.98v4m0 4v4m0 3.98v4m0 4v4m0 4v3.98m0 4v4m0 4v4m0 3.98v4m0 4v4m0 4v3.98m0 4v4m0 4v4m0 3.98v4m0 4v4m0 4v3.98m0 4v4m0 4v3.98m0 4v4m0 4v4m0 3.98v4m0 4v4m0 4v3.98m0 4v4m0 4v4m0 3.98v2" stroke="#000" fill="none"/><path d="M-39.5-159.5l.48-.02v.53h-.95v-.53zM-39.02 1759.53l-.47-.03-.48.02v-.53h.95z" stroke="#000" stroke-width=".05"/><path d="M280.5 82.8v2.03m0 4.05v4.06m0 4.06v4.05m0 4.06v4.07m0 4.05v4.06m0 4.06v4.06m0 4.05v4.06m0 4.07v4.05m0 4.06v4.06m0 4.05v4.05m0 4.06v4.06m0 4.06v4.06m0 4.06v4.05m0 4.05v4.06m0 4.06v4.06m0 4.06v4.06m0 4.05v4.05m0 4.06v4.06m0 4.06v4.06m0 4.05V239m0 4.05v4.05m0 4.06v4.06m0 4.05v4.06m0 4.06v4.05m0 4.05v4.06m0 4.06v4.05m0 4.06v4.06m0 4.05v4.05m0 4.06v4.06m0 4.05v2.03" stroke="#000" fill="none"/><path d="M280.5 82.3l.48-.02v.53h-.96v-.53zM280.98 318.63l-.47-.03-.48.02v-.53h.96z" stroke="#000" stroke-width=".05"/><path d="M960.5-159v2m0 3.98v4m0 3.98v3.98m0 4v3.98m0 4v3.97m0 3.98v4m0 3.98v3.98m0 4v3.98m0 4v3.97m0 3.98v4m0 3.98v3.98m0 4v3.98m0 4v3.97m0 3.98v4m0 3.98v3.98m0 4v3.98m0 4v3.97m0 3.98v4m0 3.98v3.98m0 4v3.98m0 4v3.97m0 3.98v4m0 3.98v3.98m0 4v3.98m0 4v3.97m0 3.98v4m0 3.98v3.98m0 4v3.98m0 4v3.97m0 3.98v4m0 3.98v3.98m0 4v3.98m0 4v3.97m0 3.98v4m0 3.98v3.98m0 4v3.98m0 4v3.97m0 3.98v4m0 3.98v3.98m0 4V154m0 4v2.06l-.03.03-.02.05-.02.03-.03.02-.04.02-.03.02h-.13l-.03.02-.03.02-.04.02-.03.02-.02.03-.02.04-.02.02v2.08m0 3.98v4m0 3.98v3.98m0 4v3.98m0 4v3.97m0 3.98v4m0 3.98v3.98m0 4v3.98m0 4v3.97m0 3.98v4m0 3.98v3.98m0 4v3.98m0 4v3.97m0 3.98v4m0 3.98v3.98m0 4v3.98m0 4v3.97m0 3.98v4m0 3.98v3.98m0 4V314m0 4v3.97m0 3.98v4m0 3.98v3.98m0 4v3.98m0 4v3.97m0 3.98v4m0 3.98v3.98m0 4v3.98m0 4v3.97m0 3.98v4m0 3.98v3.98m0 4v3.98m0 4v3.97m0 3.98v4m0 3.98v3.98m0 4v3.98m0 4v3.97m0 3.98v4m0 3.98v3.98m0 4v3.98m0 4v1.98" stroke="#000" fill="none"/><path d="M960.5-159.5l.48-.02v.53H960v-.53z" stroke="#000" stroke-width=".05"/><path d="M960 479.5v.5M960.5-319v78" stroke="#000" fill="none"/><path d="M960.98-319H960v-.5h.96zM960.98-240.47l-.47-.03-.48.02v-.53h.96z" stroke="#000" stroke-width=".05"/><path d="M1000.5-200c0 22.1-17.9 40-40 40s-40-17.9-40-40 17.9-40 40-40 40 17.9 40 40z" stroke="#000" fill="#3a414a"/><path d="M1040.5-234a6 6 0 0 1 6-6H1154a6 6 0 0 1 6 6v68a6 6 0 0 1-6 6h-107.5a6 6 0 0 1-6-6z" stroke="#000" stroke-opacity="0" stroke-width="2" fill="#fff" fill-opacity="0"/><use xlink:href="#a" transform="matrix(1,0,0,1,1045.5003118598443,-235.00000000000045) translate(41.66449652777778 29.58333333333333)"/><use xlink:href="#b" transform="matrix(1,0,0,1,1045.5003118598443,-235.00000000000045) translate(8.325737847222236 53.00998263888888)"/><path d="M-240 1766a6 6 0 0 1 6-6h108a6 6 0 0 1 6 6v68a6 6 0 0 1-6 6h-108a6 6 0 0 1-6-6z" stroke="#000" stroke-opacity="0" stroke-width="2" fill="#fff" fill-opacity="0"/><use xlink:href="#c" transform="matrix(1,0,0,1,-235,1765) translate(41.66449652777778 29.58333333333333)"/><use xlink:href="#d" transform="matrix(1,0,0,1,-235,1765) translate(1.6579861111111285 53.00998263888888)"/><path d="M1681 246.9a6 6 0 0 1 6-6h108a6 6 0 0 1 6 6v68a6 6 0 0 1-6 6h-108a6 6 0 0 1-6-6z" stroke="#000" stroke-opacity="0" stroke-width="2" fill="#fff" fill-opacity="0"/><use xlink:href="#e" transform="matrix(1,0,0,1,1686.0006237196885,245.89892466619574) translate(41.66449652777778 29.42708333333333)"/><use xlink:href="#f" transform="matrix(1,0,0,1,1686.0006237196885,245.89892466619574) translate(8.325737847222236 52.85373263888888)"/><path d="M1360.5 5.1a6 6 0 0 1 6-6h108a6 6 0 0 1 6 6V74a6 6 0 0 1-6 6h-108a6 6 0 0 1-6-6z" stroke="#000" stroke-opacity="0" stroke-width="2" fill="#fff" fill-opacity="0"/><use xlink:href="#e" transform="matrix(1,0,0,1,1365.5003118598443,4.10107533380409) translate(41.66449652777778 29.58333333333333)"/><use xlink:href="#b" transform="matrix(1,0,0,1,1365.5003118598443,4.10107533380409) translate(8.325737847222236 53.00998263888888)"/><path d="M380 1526a6 6 0 0 1 6-6h108a6 6 0 0 1 6 6v68a6 6 0 0 1-6 6H386a6 6 0 0 1-6-6z" stroke="#000" stroke-opacity="0" stroke-width="2" fill="#fff" fill-opacity="0"/><use xlink:href="#g" transform="matrix(1,0,0,1,385,1525) translate(41.66449652777778 29.42708333333333)"/><use xlink:href="#d" transform="matrix(1,0,0,1,385,1525) translate(1.6579861111111285 52.85373263888888)"/><path d="M80.5 326a6 6 0 0 1 6-6h108a6 6 0 0 1 6 6v68.9a6 6 0 0 1-6 6h-108a6 6 0 0 1-6-6z" stroke="#000" stroke-opacity="0" stroke-width="2" fill="#fff" fill-opacity="0"/><use xlink:href="#h" transform="matrix(1,0,0,1,85.50031185984426,325.0000000000003) translate(41.66449652777778 29.58333333333333)"/><use xlink:href="#d" transform="matrix(1,0,0,1,85.50031185984426,325.0000000000003) translate(1.6579861111111285 53.00998263888888)"/><path d="M-39.5 1841v68.67" stroke="#3a414a" fill="none"/><path d="M-39.5 1840.5l.48-.02v.53h-.95v-.53z" stroke="#3a414a" stroke-width=".05" fill="#3a414a"/><path d="M-24.5 1924.5c0 8.28-6.7 15-15 15-8.28 0-15-6.72-15-15 0-8.28 6.72-15 15-15 8.29 0 15 6.72 15 15z" stroke="#3a414a" fill="#fff"/><path d="M.5 1800c0 22.1-17.9 40-40 40s-40-17.9-40-40 17.9-40 40-40 40 17.9 40 40zM.5-200c0 22.1-17.9 40-40 40s-40-17.9-40-40 17.9-40 40-40 40 17.9 40 40zM-159.5-400h240v80h-240z" stroke="#000" fill="#fff"/><use xlink:href="#i" transform="matrix(1,0,0,1,-154.49968814015574,-394.9999999999998) translate(21.651475694444443 42.56293402777778)"/><use xlink:href="#j" transform="matrix(1,0,0,1,-154.49968814015574,-394.9999999999998) translate(128.33550347222223 42.56293402777778)"/><use xlink:href="#k" transform="matrix(1,0,0,1,-154.49968814015574,-394.9999999999998) translate(155.00651041666669 42.56293402777778)"/><path d="M840.5-400h240v80h-240z" stroke="#000" fill="#fff"/><use xlink:href="#l" transform="matrix(1,0,0,1,845.5003118598445,-395) translate(21.651475694444414 42.56293402777778)"/><path d="M1160-400h240v80h-240z" stroke="#000" fill="#fff"/><use xlink:href="#m" transform="matrix(1,0,0,1,1165,-395.0000000000002) translate(14.983723958333329 42.56293402777778)"/><use xlink:href="#j" transform="matrix(1,0,0,1,1165,-395.0000000000002) translate(135.00325520833337 42.56293402777778)"/><use xlink:href="#n" transform="matrix(1,0,0,1,1165,-395.0000000000002) translate(161.67426215277777 42.56293402777778)"/><path d="M160.5-400h240v80h-240z" stroke="#000" fill="#fff"/><use xlink:href="#i" transform="matrix(1,0,0,1,165.50031185984426,-394.9999999999993) translate(21.651475694444443 42.56293402777778)"/><use xlink:href="#o" transform="matrix(1,0,0,1,165.50031185984426,-394.9999999999993) translate(128.33550347222223 42.56293402777778)"/><use xlink:href="#p" transform="matrix(1,0,0,1,165.50031185984426,-394.9999999999993) translate(155.00651041666669 42.56293402777778)"/><path d="M1480.5-400h240v80h-240z" stroke="#000" fill="#fff"/><use xlink:href="#m" transform="matrix(1,0,0,1,1485.5003118598443,-394.9999999999998) translate(14.983723958333329 42.56293402777778)"/><use xlink:href="#o" transform="matrix(1,0,0,1,1485.5003118598443,-394.9999999999998) translate(135.00325520833337 42.56293402777778)"/><use xlink:href="#q" transform="matrix(1,0,0,1,1485.5003118598443,-394.9999999999998) translate(161.67426215277777 42.56293402777778)"/><path d="M320.5 41.8c0 22.1-17.9 40-40 40s-40-17.9-40-40 17.9-40 40-40 40 17.9 40 40zM320.5 359.1c0 22.1-17.9 40-40 40s-40-17.9-40-40 17.9-40 40-40 40 17.9 40 40zM640.5 1240c0 22.1-17.9 40-40 40s-40-17.9-40-40 17.9-40 40-40 40 17.9 40 40zM640 1560c0 22.1-17.9 40-40 40s-40-17.9-40-40 17.9-40 40-40 40 17.9 40 40zM480.5-400h240v80h-240z" stroke="#000" fill="#fff"/><use xlink:href="#i" transform="matrix(1,0,0,1,485.50031185984426,-394.9999999999998) translate(21.651475694444443 42.56293402777778)"/><use xlink:href="#r" transform="matrix(1,0,0,1,485.50031185984426,-394.9999999999998) translate(128.33550347222223 42.56293402777778)"/><use xlink:href="#s" transform="matrix(1,0,0,1,485.50031185984426,-394.9999999999998) translate(155.00651041666669 42.56293402777778)"/><path d="M1801-400h240v80h-240z" stroke="#000" fill="#fff"/><use xlink:href="#m" transform="matrix(1,0,0,1,1806.0006237196885,-395.0000000000002) translate(14.983723958333329 42.56293402777778)"/><use xlink:href="#r" transform="matrix(1,0,0,1,1806.0006237196885,-395.0000000000002) translate(135.00325520833337 42.56293402777778)"/><use xlink:href="#t" transform="matrix(1,0,0,1,1806.0006237196885,-395.0000000000002) translate(161.67426215277777 42.56293402777778)"/><path d="M280.5 400.1v769.45a.25.25 0 0 1-.25.25.25.25 0 0 0-.25.25v739.62" stroke="#3a414a" fill="none"/><path d="M280.5 399.6l.48-.02v.53h-.96v-.53z" stroke="#3a414a" stroke-width=".05" fill="#3a414a"/><path d="M295 1924.5c0 8.28-6.72 15-15 15-8.28 0-15-6.72-15-15 0-8.28 6.72-15 15-15 8.28 0 15 6.72 15 15z" stroke="#3a414a" fill="#fff"/><path d="M600 1601v308.67" stroke="#3a414a" fill="none"/><path d="M600 1600.5l.48-.02v.53h-.96v-.53z" stroke="#3a414a" stroke-width=".05" fill="#3a414a"/><path d="M615 1924.5c0 8.28-6.72 15-15 15-8.28 0-15-6.72-15-15 0-8.28 6.72-15 15-15 8.28 0 15 6.72 15 15z" stroke="#3a414a" fill="#fff"/><path d="M-240-234a6 6 0 0 1 6-6h108a6 6 0 0 1 6 6v68a6 6 0 0 1-6 6h-108a6 6 0 0 1-6-6z" stroke="#000" stroke-opacity="0" stroke-width="2" fill="#fff" fill-opacity="0"/><use xlink:href="#c" transform="matrix(1,0,0,1,-235,-234.99999999999955) translate(41.66449652777778 29.42708333333333)"/><use xlink:href="#u" transform="matrix(1,0,0,1,-235,-234.99999999999955) translate(8.325737847222236 52.85373263888888)"/><path d="M-119.5-200h39" stroke="#3a414a" fill="none"/><path d="M-119.5-199.53h-.5v-.94h.5zM-80-200l.02.47h-.53v-.94h.53z" stroke="#3a414a" stroke-width=".05" fill="#3a414a"/><path d="M-119.5 1800h39" stroke="#3a414a" fill="none"/><path d="M-119.5 1800.47h-.5v-.94h.5zM-80 1800l.02.47h-.53v-.94h.53z" stroke="#3a414a" stroke-width=".05" fill="#3a414a"/><path d="M-240 586a6 6 0 0 1 6-6h108a6 6 0 0 1 6 6v68a6 6 0 0 1-6 6h-108a6 6 0 0 1-6-6z" stroke="#000" stroke-opacity="0" stroke-width="2" fill="#fff" fill-opacity="0"/><use xlink:href="#c" transform="matrix(1,0,0,1,-234.99999999999997,585) translate(41.66449652777778 29.42708333333333)"/><use xlink:href="#v" transform="matrix(1,0,0,1,-234.99999999999997,585) translate(8.325737847222236 52.85373263888888)"/><path d="M820-74.9a6 6 0 0 1 6-6h108a6 6 0 0 1 6 6v68a6 6 0 0 1-6 6H826a6 6 0 0 1-6-6z" stroke="#000" stroke-opacity="0" stroke-width="2" fill="#fff" fill-opacity="0"/><use xlink:href="#w" transform="matrix(1,0,0,1,825,-75.89892466619568) translate(1.6579861111111285 42.55208333333333)"/><path d="M201 360.44l38.52-.88" stroke="#3a414a" fill="none"/><path d="M201.02 360.9l-.52.03v-.96h.5zM240 359.1l.03.92-.52.02v-.95l.5-.02z" stroke="#3a414a" stroke-width=".05" fill="#3a414a"/><path d="M80.5 6.9a6 6 0 0 1 6-6h108a6 6 0 0 1 6 6v68.9a6 6 0 0 1-6 6h-108a6 6 0 0 1-6-6z" stroke="#000" stroke-opacity="0" stroke-width="2" fill="#fff" fill-opacity="0"/><use xlink:href="#h" transform="matrix(1,0,0,1,85.50031185984426,5.898924666196137) translate(41.66449652777778 29.58333333333333)"/><use xlink:href="#u" transform="matrix(1,0,0,1,85.50031185984426,5.898924666196137) translate(8.325737847222236 53.00998263888888)"/><path d="M201 41.35h38.53" stroke="#3a414a" fill="none"/><path d="M201 41.82h-.5v-.95h.5zM240 41.8v.02h-.5v-.95h.56z" stroke="#3a414a" stroke-width=".05" fill="#3a414a"/><path d="M500.5 1560H559" stroke="#3a414a" fill="none"/><path d="M500.5 1560.47h-.5v-.94h.5zM559.5 1560l.02.47H559v-.94h.53z" stroke="#3a414a" stroke-width=".05" fill="#3a414a"/><path d="M400.5 1206a6 6 0 0 1 6-6h108a6 6 0 0 1 6 6v66.65a6 6 0 0 1-6 6h-108a6 6 0 0 1-6-6z" stroke="#000" stroke-opacity="0" stroke-width="2" fill="#fff" fill-opacity="0"/><use xlink:href="#g" transform="matrix(1,0,0,1,405.50031185984426,1205) translate(41.66449652777778 29.27083333333333)"/><use xlink:href="#u" transform="matrix(1,0,0,1,405.50031185984426,1205) translate(8.325737847222236 52.69748263888888)"/><path d="M521 1239.33l38.53.22" stroke="#3a414a" fill="none"/><path d="M521.02 1238.85v.95h-.52v-.95zM560.06 1239.08l-.06.9v.05h-.5l.02-.96z" stroke="#3a414a" stroke-width=".05" fill="#3a414a"/><path d="M1681 87.8a6 6 0 0 1 6-6h108a6 6 0 0 1 6 6v68a6 6 0 0 1-6 6h-108a6 6 0 0 1-6-6z" stroke="#000" stroke-opacity="0" stroke-width="2" fill="#fff" fill-opacity="0"/><use xlink:href="#e" transform="matrix(1,0,0,1,1686.0006237196885,86.7978493323917) translate(41.66449652777778 29.42708333333333)"/><use xlink:href="#x" transform="matrix(1,0,0,1,1686.0006237196885,86.7978493323917) translate(14.993489583333343 52.85373263888888)"/><path d="M80.5 166a6 6 0 0 1 6-6h108a6 6 0 0 1 6 6v68.9a6 6 0 0 1-6 6h-108a6 6 0 0 1-6-6z" stroke="#000" stroke-opacity="0" stroke-width="2" fill="#fff" fill-opacity="0"/><use xlink:href="#h" transform="matrix(1,0,0,1,85.50031185984426,165.00000000000028) translate(41.66449652777778 29.58333333333333)"/><use xlink:href="#v" transform="matrix(1,0,0,1,85.50031185984426,165.00000000000028) translate(8.325737847222236 53.00998263888888)"/><path d="M201 200.45h39.16a.34.34 0 0 0 .34-.34.34.34 0 0 1 .34-.32H280" stroke="#3a414a" fill="none"/><path d="M201 200.92h-.5v-.95h.5z" stroke="#3a414a" stroke-width=".05" fill="#3a414a"/><path d="M280 199.78h.5" stroke="#3a414a" fill="none"/><path d="M380 1365.33a6 6 0 0 1 6-6h108a6 6 0 0 1 6 6v68a6 6 0 0 1-6 6H386a6 6 0 0 1-6-6z" stroke="#000" stroke-opacity="0" stroke-width="2" fill="#fff" fill-opacity="0"/><use xlink:href="#g" transform="matrix(1,0,0,1,385,1364.325806500353) translate(41.66449652777778 29.42708333333333)"/><use xlink:href="#v" transform="matrix(1,0,0,1,385,1364.325806500353) translate(8.325737847222236 52.85373263888888)"/><path d="M500.5 1399.33h99.58a.17.17 0 0 1 .17.17" stroke="#3a414a" fill="none"/><path d="M500.5 1399.8h-.5v-.95h.5z" stroke="#3a414a" stroke-width=".05" fill="#3a414a"/><path d="M600.25 1399.5v.5M1680.5 121.8h-38.55" stroke="#3a414a" fill="none"/><path d="M1681 122.27h-.5v-.95h.5zM1641.96 122.27h-.54l.05-.95h.5z" stroke="#3a414a" stroke-width=".05" fill="#3a414a"/><path d="M1680.5 280.9H1642" stroke="#3a414a" fill="none"/><path d="M1681 281.37h-.5v-.95h.5zM1642 281.37h-.53l.03-.46-.02-.48h.53z" stroke="#3a414a" stroke-width=".05" fill="#3a414a"/><path d="M1120 165.1a6 6 0 0 1 6-6h108a6 6 0 0 1 6 6v68a6 6 0 0 1-6 6h-108a6 6 0 0 1-6-6z" stroke="#000" stroke-opacity="0" stroke-width="2" fill="#fff" fill-opacity="0"/><use xlink:href="#w" transform="matrix(1,0,0,1,1125,164.1010753338042) translate(1.6579861111111285 42.55208333333333)"/><path d="M1360.5-154a6 6 0 0 1 6-6h108a6 6 0 0 1 6 6v68a6 6 0 0 1-6 6h-108a6 6 0 0 1-6-6z" stroke="#000" stroke-opacity="0" stroke-width="2" fill="#fff" fill-opacity="0"/><use xlink:href="#a" transform="matrix(1,0,0,1,1365.5003118598443,-155.0000000000001) translate(41.66449652777778 29.42708333333333)"/><use xlink:href="#x" transform="matrix(1,0,0,1,1365.5003118598443,-155.0000000000001) translate(14.993489583333343 52.85373263888888)"/><path d="M1360-120h-38.5" stroke="#3a414a" fill="none"/><path d="M1360.5-119.53h-.5v-.94h.5zM1321.5-119.53h-.53l.03-.46-.02-.47h.53z" stroke="#3a414a" stroke-width=".05" fill="#3a414a"/><path d="M1360.5 326a6 6 0 0 1 6-6h108a6 6 0 0 1 6 6v68.9a6 6 0 0 1-6 6h-108a6 6 0 0 1-6-6z" stroke="#000" stroke-opacity="0" stroke-width="2" fill="#fff" fill-opacity="0"/><use xlink:href="#e" transform="matrix(1,0,0,1,1365.5003118598443,324.99999999999994) translate(41.66449652777778 29.58333333333333)"/><use xlink:href="#y" transform="matrix(1,0,0,1,1365.5003118598443,324.99999999999994) translate(14.993489583333343 53.00998263888888)"/><path d="M-199.5-520h960v80h-960z" stroke="#000" fill="#fff"/><use xlink:href="#z" transform="matrix(1,0,0,1,-194.49968814015574,-515) translate(374.9837239583333 42.56293402777778)"/><use xlink:href="#A" transform="matrix(1,0,0,1,-194.49968814015574,-515) translate(495.00325520833337 42.56293402777778)"/><path d="M919.5-200H17.4" stroke="#3a414a" fill="none"/><path d="M920-200l.02.47h-.53v-.94h.53z" stroke="#3a414a" stroke-width=".05" fill="#3a414a"/><path d="M2.62-200l14.27-4.63v9.26z" stroke="#3a414a" fill="#3a414a"/><path d="M-39-119.1h1262.65M-39-119.1h-.5" stroke="#3a414a" fill="none"/><path d="M1238.4-119.1l-14.25 4.63v-9.27z" stroke="#3a414a" fill="#3a414a"/><path d="M1239.5 40H780.93a.45.45 0 0 0-.45.45.45.45 0 0 1-.45.45H337.35" stroke="#3a414a" fill="none"/><path d="M1240 40l.02.48h-.53v-.95h.53z" stroke="#3a414a" stroke-width=".05" fill="#3a414a"/><path d="M322.6 40.9l14.25-4.64v9.27z" stroke="#3a414a" fill="#3a414a"/><path d="M281 120.16h639.37a.14.14 0 0 1 .14.15.14.14 0 0 0 .16.15h623.48M281 120.16h-.5" stroke="#3a414a" fill="none"/><path d="M1558.9 120.45l-14.26 4.63v-9.27z" stroke="#3a414a" fill="#3a414a"/><path d="M1560 280.9h-2m-4 0h-4m-3.98 0h-4m-4 0h-4m-3.98 0h-4m-4 0h-4m-3.98 0h-4m-4 0h-4m-3.98 0h-4m-4 0h-4m-3.98 0h-4m-4 0h-4m-3.98 0h-4m-4 0h-4m-3.98 0h-4m-4 0h-4m-3.98 0h-4m-4 0h-4m-3.98 0h-4m-4 0h-4m-3.98 0h-4m-4 0h-4m-3.98 0h-4m-4 0h-4m-3.98 0h-4m-4 0h-4m-3.98 0h-4m-4 0h-4m-3.98 0h-4m-4 0h-4m-3.98 0h-4m-4 0h-4m-3.98 0h-4m-4 0h-4m-3.98 0h-4m-4 0h-4m-3.98 0h-4m-4 0h-3.98m-4 0h-4m-4 0h-4m-3.98 0h-4m-4 0h-4m-3.98 0h-4m-4 0h-4m-3.98 0h-4m-4 0h-4m-3.98 0h-4m-4 0h-4m-3.98 0h-4m-4 0h-4m-3.98 0h-4m-4 0h-3.98m-4 0h-4m-4 0h-3.98m-4 0h-4m-4 0h-3.98m-4 0h-4m-4 0h-3.98m-4 0h-4m-4 0h-3.98m-4 0h-4m-4 0h-3.98m-4 0h-4m-4 0h-3.98m-4 0h-4m-4 0h-3.98m-4 0h-4m-4 0h-3.98m-4 0h-4m-4 0h-3.98m-4 0h-4m-4 0h-3.98m-4 0h-4m-4 0h-3.98m-4 0h-4m-4 0h-3.98m-4 0h-4m-4 0h-3.98m-4 0h-4m-4 0h-3.98m-4 0h-2.04l-.05-.02h-.03l-.04-.04-.04-.03-.04-.03-.03-.04v-.04l-.03-.06v-.14l-.03-.04-.03-.04-.03-.04-.02-.03-.05-.03h-.04l-.06-.02h-2.04m-4 0h-4m-4 0h-3.98m-4 0h-4m-4 0h-4m-3.98 0h-4m-4 0h-4m-3.98 0h-4m-4 0h-4m-4 0h-3.98m-4 0h-4m-4 0h-3.98m-4 0h-4m-4 0h-4m-3.98 0h-4m-4 0h-4m-4 0h-3.98m-4 0h-4m-4 0h-3.98m-4 0h-4m-4 0h-4m-3.98 0h-4m-4 0h-4m-3.98 0h-4m-4 0h-4m-4 0h-3.98m-4 0h-4m-4 0h-3.98m-4 0h-4m-4 0h-4m-3.98 0h-4m-4 0h-4m-3.98 0h-4m-4 0h-4m-4 0h-3.98m-4 0h-4m-4 0h-3.98m-4 0h-4m-4 0h-4m-3.98 0h-4m-4 0h-4m-3.98 0h-4m-4 0h-4m-4 0h-3.98m-4 0h-4m-4 0h-4m-3.98 0h-4m-4 0h-4m-3.98 0h-4m-4 0h-4m-4 0h-3.98m-4 0h-4m-4 0h-3.98m-4 0h-4m-4 0h-4m-3.98 0h-4m-4 0h-4m-3.98 0h-4m-4 0h-4m-4 0h-3.98m-4 0h-4m-4 0h-3.98m-4 0h-4m-4 0h-4m-3.98 0h-4m-4 0h-4m-3.98 0h-4m-4 0h-4m-4 0h-3.98m-4 0h-4m-4 0h-3.98m-4 0h-4m-4 0h-4m-3.98 0h-4m-4 0h-4m-3.98 0h-4m-4 0h-4m-4 0h-3.98m-4 0h-2" stroke="#3a414a" fill="none"/><path d="M1560.5 280.9l.02.47h-.53v-.95h.53z" stroke="#3a414a" stroke-width=".05" fill="#3a414a"/><path d="M282.12 280.3l14.26-4.64v9.27z" stroke="#3a414a" fill="#3a414a"/><path d="M321.5 359.1h2m4.04 0h4.02m4.03 0h4m4.04 0h4.02m4.03 0h4m4.04 0h4.02m4.03 0h4m4.03 0h4.03m4.02 0h4.03m4.03 0h4.03m4.02 0H404m4.03 0h4.03m4.02 0h4.03m4.03 0h4.02m4.03 0h4.02m4.03 0h4.02m4.03 0h4.02m4.03 0h4.02m4.03 0h4.02m4.03 0h4.02m4.03 0h4.02m4.03 0h4.02m4.02 0h4.03m4.02 0h4.03m4.02 0h4.03m4.02 0h4.03m4.02 0h4.03m4.02 0h4.03m4.02 0h4.03m4.02 0h4.03m4.02 0H565m4.02 0h4.02m4.03 0h4.02m4.02 0h4.02m4.03 0h4.02m4.02 0h4.02m4.03 0h4.02m4.02 0h4.02m4.03 0h4.02m4 0h4.04m4.02 0h4.03m4 0h4.04m4.02 0h4.03m4 0h4.04m4.02 0h4.03m4 0h4.04m4.02 0h4.03m4 0h4.04m4.02 0h4.02m4.03 0h4.03m4.03 0h4.02m4.03 0h4.03m4.03 0h4.02m4.03 0h4.03m4.03 0h4.02m4.03 0h4.03m4.02 0h4.03m4.02 0h2.09l.06.02.06.03.06.04.05.03.05.06.04.05.02.06.02.08v.14l.03.07.02.06.03.06.05.05.05.04.06.05.08.03h.06l.08.02h2m4.04 0h4.02m4.03 0h4.04m4.02 0h4.03m4.02 0h4.02m4.03 0h4.03m4.02 0h4.03m4.03 0h4.02m4.03 0h4.03m4.02 0h4.03m4.04 0h4.02m4.03 0h4.02m4.02 0h4.03m4.03 0h4.02m4.03 0h4.03m4.02 0h4.03m4.03 0h4.02m4.03 0h4.04m4.02 0h4.03m4 0h4.04m4.03 0h4.02m4.02 0h4.03m4.02 0h4.03m4.03 0h4.03m4.02 0h4.03m4.03 0h4.03m4.03 0h4m4.04 0h4.03m4.03 0h4.02m4.03 0h4.02m4.03 0h4.03m4.03 0h4.02m4.03 0h4.03m4.03 0h4.03m4.02 0h4.02m4.03 0h4.03m4.02 0h4.03m4.02 0h4.03m4.03 0h4.03m4.02 0h4.03m4.04 0h4.02m4.03 0h4m4.04 0h4.03m4.02 0h4.02m4.03 0h4.03m4.02 0h4.03m4.02 0h4.03m4.03 0h4.03m4.03 0h4.03m4.02 0h4.02m4.03 0h4.03m4.02 0h4.03m4.02 0h4.03m4.03 0h4.03m4.02 0h4.03m4.04 0h2" stroke="#3a414a" fill="none"/><path d="M321.5 359.58h-.53l.03-.47-.02-.47h.53z" stroke="#3a414a" stroke-width=".05" fill="#3a414a"/><path d="M1238.9 360l-14.25 4.63v-9.26z" stroke="#3a414a" fill="#3a414a"/><path d="M-119.5 620H-40" stroke="#3a414a" fill="none"/><path d="M-119.5 620.48h-.5v-.96h.5z" stroke="#3a414a" stroke-width=".05" fill="#3a414a"/><path d="M-40 620h.5M1040-200h-38.5" stroke="#3a414a" fill="none"/><path d="M1040.5-199.53h-.5v-.94h.5zM1001.5-199.53h-.53l.03-.46-.02-.47h.53z" stroke="#3a414a" stroke-width=".05" fill="#3a414a"/><path d="M1360 39.55H1321.5" stroke="#3a414a" fill="none"/><path d="M1360.5 40.03h-.5v-.95h.5zM1321.5 40.03h-.5V40l-.03-.92h.53z" stroke="#3a414a" stroke-width=".05" fill="#3a414a"/><path d="M1360 360.45h-38.08" stroke="#3a414a" fill="none"/><path d="M1360.5 360.92h-.5v-.95h.5zM1321.93 360.92h-.54l.05-.95h.48z" stroke="#3a414a" stroke-width=".05" fill="#3a414a"/><path d="M1240.5 199.1h40" stroke="#3a414a" fill="none"/><path d="M1240.5 199.58h-.5v-.95h.5z" stroke="#3a414a" stroke-width=".05" fill="#3a414a"/><path d="M1280.5 199.1h.5M940.5-40.9H960" stroke="#3a414a" fill="none"/><path d="M940.5-40.42h-.5v-.95h.5z" stroke="#3a414a" stroke-width=".05" fill="#3a414a"/><path d="M960-40.9h.5" stroke="#3a414a" fill="none"/><path d="M800.5 440h1319v40.9h-1319z" stroke="#000" fill="#fe7070"/><use xlink:href="#B" transform="matrix(1,0,0,1,805.5003118598443,445) translate(554.4837239583333 22.37543402777778)"/><use xlink:href="#C" transform="matrix(1,0,0,1,805.5003118598443,445) translate(661.1677517361111 22.37543402777778)"/><path d="M1281 400.1v23.02" stroke="#3a414a" fill="none"/><path d="M1281 399.6l.48-.02v.53h-.95v-.53z" stroke="#3a414a" stroke-width=".05" fill="#3a414a"/><path d="M1281 437.88l-4.63-14.26h9.27z" stroke="#3a414a" fill="#3a414a"/><path d="M840 600h240v80H840z" stroke="#000" fill="#fff"/><use xlink:href="#l" transform="matrix(1,0,0,1,845.0000000000001,605.0000000000002) translate(21.651475694444414 42.56293402777778)"/><path d="M1159.5 600h240v80h-240z" stroke="#000" fill="#fff"/><use xlink:href="#D" transform="matrix(1,0,0,1,1164.4996881401557,605) translate(101.66449652777777 42.56293402777778)"/><path d="M1480 600h240v80h-240z" stroke="#000" fill="#fff"/><use xlink:href="#E" transform="matrix(1,0,0,1,1485,605.0000000000005) translate(101.66449652777777 42.56293402777778)"/><path d="M1800.5 600h240v80h-240z" stroke="#000" fill="#fff"/><use xlink:href="#F" transform="matrix(1,0,0,1,1805.5003118598443,605) translate(101.66449652777777 42.56293402777778)"/><path d="M960 681v38.75a.25.25 0 0 0 .25.25.25.25 0 0 1 .25.25V759" stroke="#3a414a" fill="none"/><path d="M960.48 681h-.96v-.5h.96zM960.98 759.53l-.47-.03-.48.02V759h.96z" stroke="#3a414a" stroke-width=".05" fill="#3a414a"/><path d="M1319.5 800.9c0 22.1-17.9 40-40 40s-40-17.9-40-40 17.9-40 40-40 40 17.9 40 40z" stroke="#000" fill="#fff"/><path d="M1319.5 960c0 22.1-17.9 40-40 40s-40-17.9-40-40 17.9-40 40-40 40 17.9 40 40zM1321 1080c0 22.1-17.9 40-40 40s-40-17.9-40-40 17.9-40 40-40 40 17.9 40 40zM1321 1240.45c0 22.1-17.9 40-40 40s-40-17.9-40-40 17.9-40 40-40 40 17.9 40 40z" stroke="#000" fill="#3a414a"/><path d="M1279.5 841.9v61.22" stroke="#000" fill="none"/><path d="M1279.5 841.4l.47-.02v.53h-.94v-.53z" stroke="#000" stroke-width=".05"/><path d="M1279.5 917.88l-4.64-14.26h9.28z" stroke="#000"/><path d="M1281 1121v62.57" stroke="#000" fill="none"/><path d="M1281 1120.5l.48-.02v.53h-.95v-.53z" stroke="#000" stroke-width=".05"/><path d="M1281 1198.33l-4.63-14.26h9.27z" stroke="#000"/><path d="M1280 1000.98v2.32m0 4.62v4.63m0 4.63v2.4l.02.06.04.08.04.06.05.07.06.05.07.04.08.03h.07l.08.02h.08l.08.02.07.03.06.04.05.04.06.06.05.06.03.08v.07l.02.1v2.3m0 4.63v4.63m0 4.63v2.3" stroke="#000" fill="none"/><path d="M1280.47 1001h-.94v-.5l.94-.03zM1281.48 1039.53l-.47-.03-.47.02v-.53h.95z" stroke="#000" stroke-width=".05"/><path d="M1960 1320c0 22.1-17.9 40-40 40s-40-17.9-40-40 17.9-40 40-40 40 17.9 40 40zM1960 1480c0 22.1-17.9 40-40 40s-40-17.9-40-40 17.9-40 40-40 40 17.9 40 40z" stroke="#000" fill="#fff"/><path d="M1321 1560c0 22.1-17.9 40-40 40s-40-17.9-40-40 17.9-40 40-40 40 17.9 40 40z" stroke="#000" fill="#3a414a"/><path d="M1321 1720c0 22.1-17.9 40-40 40s-40-17.9-40-40 17.9-40 40-40 40 17.9 40 40z" stroke="#000" fill="#fff"/><path d="M1920 1361v62.12" stroke="#000" fill="none"/><path d="M1920 1360.5l.47-.02v.53h-.94v-.53z" stroke="#000" stroke-width=".05"/><path d="M1920 1437.88l-4.63-14.26h9.27z" stroke="#000"/><path d="M1281 1601v62.12" stroke="#000" fill="none"/><path d="M1281 1600.5l.48-.02v.53h-.95v-.53z" stroke="#000" stroke-width=".05"/><path d="M1281 1677.88l-4.63-14.26h9.27z" stroke="#000"/><path d="M1281 1281.45v1.98m0 3.96v3.95m0 3.96v3.97m0 3.95v3.96m0 3.96v3.96m0 3.96v3.96m0 3.96v3.96m0 3.96v3.96m0 3.96v3.96m0 3.95v3.96m0 3.95v3.96m0 3.97v3.96m0 3.96v3.95m0 3.96v3.97m0 3.96v3.96m0 3.94v3.96m0 3.96v3.96m0 3.96v3.96m0 3.96v3.96m0 3.96v3.96m0 3.96v3.96m0 3.96v3.95m0 3.97v3.96m0 3.96v3.95m0 3.96v3.97m0 3.96v3.96m0 3.95v3.96m0 3.97v3.95m0 3.96v3.96m0 3.96v3.96m0 3.96v1.98" stroke="#000" fill="none"/><path d="M1281 1280.95l.48-.02v.53h-.95v-.54zM1281.48 1519.53l-.47-.03-.47.02v-.53h.95z" stroke="#000" stroke-width=".05"/><path d="M1000.5 1800c0 22.1-17.9 40-40 40s-40-17.9-40-40 17.9-40 40-40 40 17.9 40 40z" stroke="#000" fill="#3a414a"/><path d="M960.5 841v2m0 4v3.98m0 4v3.98m0 4v3.98m0 4v4m0 3.98v4m0 3.98v4m0 3.98v4m0 4v3.98m0 4v3.98m0 4v3.98m0 4v3.98m0 4v4m0 3.98v4m0 3.98v4m0 3.98v4m0 4v3.98m0 4v3.98m0 4v3.98m0 4v4m0 3.98v4m0 3.98v4m0 3.98v4m0 4v3.98m0 4v3.98m0 4v3.98m0 4v3.98m0 4v4m0 3.98v4m0 3.98v4m0 3.98v4m0 3.98v4m0 4v3.98m0 4v3.98m0 4v3.98m0 4v4m0 3.98v4m0 3.98v4m0 3.98v4m0 4v3.98m0 4v3.98m0 4v3.98m0 4v4m0 3.98v4m0 3.98v4m0 3.98v4m0 3.98v4m0 4v3.98m0 4v3.98m0 4v3.98m0 4v4m0 3.98v4m0 3.98v4m0 3.98v4m0 4v3.98m0 4v3.98m0 4v3.98m0 4v3.98m0 4v4m0 3.98v4m0 3.98v4m0 3.98v4m0 4v3.98m0 4v3.98m0 4v3.98m0 4v3.98m0 4v4m0 3.98v4m0 3.98v4m0 3.98v4m0 4v3.98m0 4v3.98m0 4v3.98m0 4v4m0 3.98v4m0 3.98v4m0 3.98v4m0 3.98v4m0 4v3.98m0 4v3.98m0 4v3.98m0 4v4m0 3.98v4m0 3.98v4m0 3.98v4m0 4v3.98m0 4v3.98m0 4v3.98m0 4v3.98m0 4v4m0 3.98v4m0 3.98v4m0 3.98v4m0 4v3.98m0 4v3.98m0 4v3.98m0 4v4m0 3.98v4m0 3.98v4m0 3.98v4m0 4v3.98m0 4v3.98m0 4v3.98m0 4v3.98m0 4v4m0 3.98v4m0 3.98v4m0 3.98v4m0 4v3.98m0 4v3.98m0 4v3.98m0 4v4m0 3.98v4m0 3.98v4m0 3.98v4m0 3.98v2" stroke="#000" fill="none"/><path d="M960.5 840.5l.48-.02v.53H960v-.53zM960.98 1759.53l-.47-.03-.48.02v-.53h.96z" stroke="#000" stroke-width=".05"/><path d="M1000.5 800c0 22.1-17.9 40-40 40s-40-17.9-40-40 17.9-40 40-40 40 17.9 40 40z" stroke="#000" fill="#3a414a"/><path d="M-240 766.9a6 6 0 0 1 6-6h107.5a6 6 0 0 1 6 6v68a6 6 0 0 1-6 6H-234a6 6 0 0 1-6-6z" stroke="#000" stroke-opacity="0" stroke-width="2" fill="#fff" fill-opacity="0"/><use xlink:href="#a" transform="matrix(1,0,0,1,-235,765.8989246661963) translate(41.66449652777778 29.58333333333333)"/><use xlink:href="#b" transform="matrix(1,0,0,1,-235,765.8989246661963) translate(8.325737847222236 53.00998263888888)"/><path d="M960.5 1841v49a.25.25 0 0 1-.25.25.25.25 0 0 0-.25.25v19.17" stroke="#3a414a" fill="none"/><path d="M960.5 1840.5l.48-.02v.53H960v-.53z" stroke="#3a414a" stroke-width=".05" fill="#3a414a"/><path d="M975 1924.5c0 8.28-6.72 15-15 15-8.28 0-15-6.72-15-15 0-8.28 6.72-15 15-15 8.28 0 15 6.72 15 15z" stroke="#3a414a" fill="#fff"/><path d="M2000.5 1446a6 6 0 0 1 6-6h108a6 6 0 0 1 6 6v68a6 6 0 0 1-6 6h-108a6 6 0 0 1-6-6z" stroke="#000" stroke-opacity="0" stroke-width="2" fill="#fff" fill-opacity="0"/><use xlink:href="#G" transform="matrix(1,0,0,1,2005.5003118598438,1445) translate(41.66449652777778 29.42708333333333)"/><use xlink:href="#f" transform="matrix(1,0,0,1,2005.5003118598438,1445) translate(8.325737847222236 52.85373263888888)"/><path d="M1360.5 925.1a6 6 0 0 1 6-6h108a6 6 0 0 1 6 6V994a6 6 0 0 1-6 6h-108a6 6 0 0 1-6-6z" stroke="#000" stroke-opacity="0" stroke-width="2" fill="#fff" fill-opacity="0"/><use xlink:href="#e" transform="matrix(1,0,0,1,1365.5003118598445,924.1010753338044) translate(41.66449652777778 29.58333333333333)"/><use xlink:href="#b" transform="matrix(1,0,0,1,1365.5003118598445,924.1010753338044) translate(8.325737847222236 53.00998263888888)"/><path d="M1360 1205.33a6 6 0 0 1 6-6h108a6 6 0 0 1 6 6v68a6 6 0 0 1-6 6h-108a6 6 0 0 1-6-6z" stroke="#000" stroke-opacity="0" stroke-width="2" fill="#fff" fill-opacity="0"/><use xlink:href="#G" transform="matrix(1,0,0,1,1365,1204.3258065003533) translate(41.66449652777778 29.42708333333333)"/><use xlink:href="#b" transform="matrix(1,0,0,1,1365,1204.3258065003533) translate(8.325737847222236 52.85373263888888)"/><path d="M2000 1480h-39" stroke="#3a414a" fill="none"/><path d="M2000.5 1480.47h-.5v-.94h.5zM1961 1480.47h-.53l.03-.46-.02-.47h.53z" stroke="#3a414a" stroke-width=".05" fill="#3a414a"/><path d="M2000.5 1286.45a6 6 0 0 1 6-6h108a6 6 0 0 1 6 6v68a6 6 0 0 1-6 6h-108a6 6 0 0 1-6-6z" stroke="#000" stroke-opacity="0" stroke-width="2" fill="#fff" fill-opacity="0"/><use xlink:href="#G" transform="matrix(1,0,0,1,2005.5003118598438,1285.4494623330975) translate(41.66449652777778 29.42708333333333)"/><use xlink:href="#x" transform="matrix(1,0,0,1,2005.5003118598438,1285.4494623330975) translate(14.993489583333343 52.85373263888888)"/><path d="M2000 1320.45h-19.28a.23.23 0 0 1-.22-.23.23.23 0 0 0-.22-.22H1961" stroke="#3a414a" fill="none"/><path d="M2000.5 1320.92h-.5v-.95h.5zM1961 1320.47h-.53l.03-.46-.02-.47h.53z" stroke="#3a414a" stroke-width=".05" fill="#3a414a"/><path d="M820 866a6 6 0 0 1 6-6h108a6 6 0 0 1 6 6v68a6 6 0 0 1-6 6H826a6 6 0 0 1-6-6z" stroke="#000" stroke-opacity="0" stroke-width="2" fill="#fff" fill-opacity="0"/><use xlink:href="#w" transform="matrix(1,0,0,1,825,865) translate(1.6579861111111285 42.55208333333333)"/><path d="M1360.5 766.9a6 6 0 0 1 6-6h108a6 6 0 0 1 6 6v68a6 6 0 0 1-6 6h-108a6 6 0 0 1-6-6z" stroke="#000" stroke-opacity="0" stroke-width="2" fill="#fff" fill-opacity="0"/><use xlink:href="#a" transform="matrix(1,0,0,1,1365.5003118598445,765.8989246661963) translate(41.66449652777778 29.42708333333333)"/><use xlink:href="#x" transform="matrix(1,0,0,1,1365.5003118598445,765.8989246661963) translate(14.993489583333343 52.85373263888888)"/><path d="M1360 800.9h-39.5" stroke="#3a414a" fill="none"/><path d="M1360.5 801.37h-.5v-.95h.5zM1320.5 801.37h-.53l.03-.46-.02-.48h.53z" stroke="#3a414a" stroke-width=".05" fill="#3a414a"/><path d="M1360 1686a6 6 0 0 1 6-6h108a6 6 0 0 1 6 6v68a6 6 0 0 1-6 6h-108a6 6 0 0 1-6-6z" stroke="#000" stroke-opacity="0" stroke-width="2" fill="#fff" fill-opacity="0"/><use xlink:href="#a" transform="matrix(1,0,0,1,1365,1685) translate(41.66449652777778 29.42708333333333)"/><use xlink:href="#f" transform="matrix(1,0,0,1,1365,1685) translate(8.325737847222236 52.85373263888888)"/><path d="M1359.5 1720H1322" stroke="#3a414a" fill="none"/><path d="M1360 1720.47h-.5v-.94h.5zM1322 1720.47h-.53l.03-.46-.02-.47h.53z" stroke="#3a414a" stroke-width=".05" fill="#3a414a"/><path d="M1040 1766a6 6 0 0 1 6-6h107.5a6 6 0 0 1 6 6v68a6 6 0 0 1-6 6H1046a6 6 0 0 1-6-6z" stroke="#000" stroke-opacity="0" stroke-width="2" fill="#fff" fill-opacity="0"/><use xlink:href="#a" transform="matrix(1,0,0,1,1045,1765) translate(41.66449652777778 29.58333333333333)"/><use xlink:href="#y" transform="matrix(1,0,0,1,1045,1765) translate(14.993489583333343 53.00998263888888)"/><path d="M1360.5 1045.1a6 6 0 0 1 6-6h108a6 6 0 0 1 6 6v68.9a6 6 0 0 1-6 6h-108a6 6 0 0 1-6-6z" stroke="#000" stroke-opacity="0" stroke-width="2" fill="#fff" fill-opacity="0"/><use xlink:href="#e" transform="matrix(1,0,0,1,1365.5003118598445,1044.1010753338041) translate(41.66449652777778 29.58333333333333)"/><use xlink:href="#y" transform="matrix(1,0,0,1,1365.5003118598445,1044.1010753338041) translate(14.993489583333343 53.00998263888888)"/><path d="M1360 1526a6 6 0 0 1 6-6h108a6 6 0 0 1 6 6v68.9a6 6 0 0 1-6 6h-108a6 6 0 0 1-6-6z" stroke="#000" stroke-opacity="0" stroke-width="2" fill="#fff" fill-opacity="0"/><use xlink:href="#G" transform="matrix(1,0,0,1,1365,1525.0000000000002) translate(41.66449652777778 29.58333333333333)"/><use xlink:href="#y" transform="matrix(1,0,0,1,1365,1525.0000000000002) translate(14.993489583333343 53.00998263888888)"/><path d="M1360 959.55h-39.52" stroke="#3a414a" fill="none"/><path d="M1360.5 960.03h-.5v-.95h.5zM1320.5 960.03h-.5V960l-.03-.92h.53z" stroke="#3a414a" stroke-width=".05" fill="#3a414a"/><path d="M1360 1079.55h-38.02" stroke="#3a414a" fill="none"/><path d="M1360.5 1080.03h-.5v-.95h.5zM1322 1080.03h-.5v-.02l-.03-.92h.53z" stroke="#3a414a" stroke-width=".05" fill="#3a414a"/><path d="M1359.5 1239.33h-18.66a.1.1 0 0 1-.1-.12.1.1 0 0 0-.13-.1h-18.65" stroke="#3a414a" fill="none"/><path d="M1360 1239.8h-.5v-.95h.5zM1321.97 1239.58h-.5l-.03-.95h.53z" stroke="#3a414a" stroke-width=".05" fill="#3a414a"/><path d="M1039.5 1800h-38" stroke="#3a414a" fill="none"/><path d="M1040 1800.47h-.5v-.94h.5zM1001.5 1800.47h-.53l.03-.46-.02-.47h.53z" stroke="#3a414a" stroke-width=".05" fill="#3a414a"/><path d="M1359.5 1560H1322" stroke="#3a414a" fill="none"/><path d="M1360 1560.47h-.5v-.94h.5zM1322 1560.47h-.53l.03-.46-.02-.47h.53z" stroke="#3a414a" stroke-width=".05" fill="#3a414a"/><path d="M903.62 800H-39" stroke="#3a414a" fill="none"/><path d="M918.38 800l-14.26 4.63v-9.26z" stroke="#3a414a" fill="#3a414a"/><path d="M-39 800h-.5M1238.5 960H296.88" stroke="#3a414a" fill="none"/><path d="M1239 960l.02.48h-.53v-.96h.53z" stroke="#3a414a" stroke-width=".05" fill="#3a414a"/><path d="M282.12 960l14.26-4.63v9.26z" stroke="#3a414a" fill="#3a414a"/><path d="M1224.12 1080h-2m-4 0h-4m-4 0h-4m-3.98 0h-4m-4 0h-4m-4 0h-3.98m-4 0h-4m-4 0h-4m-4 0h-3.98m-4 0h-4m-4 0h-4m-3.98 0h-4m-4 0h-4m-4 0h-3.98m-4 0h-4m-4 0h-4m-4 0h-3.98m-4 0h-4m-4 0h-4m-3.98 0h-4m-4 0h-4m-4 0h-3.98m-4 0h-4m-4 0h-4m-4 0h-3.98m-4 0h-4m-4 0h-4m-3.98 0h-4m-4 0h-4m-4 0h-3.98m-4 0h-4m-4 0h-4m-4 0h-3.98m-4 0h-4m-4 0h-4m-3.98 0h-4m-4 0h-4m-4 0h-4m-3.98 0h-4m-4 0h-4m-4 0h-3.98m-4 0h-4m-4 0h-4m-3.98 0h-4m-4 0h-4m-4 0h-4m-3.98 0h-4m-4 0h-4m-4 0h-3.98m-4 0h-4m-4 0h-4m-3.98 0h-4m-4 0h-4m-4 0h-4m-3.98 0h-4m-4 0h-4m-4 0h-3.98m-4 0h-4m-4 0h-4m-3.98 0h-4m-4 0h-4m-4 0h-3.98m-4 0h-4m-4 0h-4m-4 0h-3.98m-4 0h-4m-4 0h-4m-3.98 0h-4m-4 0h-4m-4 0h-4m-3.98 0h-4m-4 0h-4m-4 0h-3.98m-4 0h-4m-4 0h-4m-3.98 0h-4m-4 0h-4m-4 0h-3.98m-4 0h-4m-4 0h-4m-4 0h-3.98m-4 0h-4m-4 0h-4m-3.98 0h-4m-4 0h-4m-4 0h-4m-3.98 0h-4m-4 0h-4m-4 0h-3.98m-4 0h-4m-4 0h-4m-3.98 0h-4m-4 0h-4m-4 0h-4m-3.98 0h-4m-4 0h-4m-4 0h-3.98m-4 0h-4m-4 0h-4m-3.98 0h-4m-4 0h-4m-4 0h-4m-3.98 0h-4m-4 0h-4m-4 0h-3.98m-4 0h-4m-4 0h-4m-3.98 0h-4m-4 0h-4m-4 0h-4m-3.98 0h-4m-4 0h-4m-4 0h-3.98m-4 0h-4m-4 0h-4m-3.98 0h-4m-4 0h-4m-4 0h-4m-3.98 0h-2" stroke="#3a414a" fill="none"/><path d="M1238.88 1080l-14.26 4.63v-9.27z" stroke="#3a414a" fill="#3a414a"/><path d="M281 1080h-.5M1001.5 800h221.17" stroke="#3a414a" fill="none"/><path d="M1001.5 800.48h-.53l.03-.47-.02-.48h.53z" stroke="#3a414a" stroke-width=".05" fill="#3a414a"/><path d="M1237.44 800l-14.27 4.63v-9.26z" stroke="#3a414a" fill="#3a414a"/><path d="M1240 1240.45H657.36" stroke="#3a414a" fill="none"/><path d="M1240.5 1240.44l.02.48h-.53v-.95h.53z" stroke="#3a414a" stroke-width=".05" fill="#3a414a"/><path d="M642.6 1240.45l14.26-4.64v9.3z" stroke="#3a414a" fill="#3a414a"/><path d="M1863.12 1320H601" stroke="#3a414a" fill="none"/><path d="M1877.88 1320l-14.26 4.63v-9.27z" stroke="#3a414a" fill="#3a414a"/><path d="M601 1320h-.5M1879 1480h-2m-4 0h-4m-3.98 0h-4m-4 0h-4m-4 0h-3.98m-4 0h-4m-4 0h-4m-3.98 0h-4m-4 0h-4m-3.98 0h-4m-4 0h-4m-4 0h-3.98m-4 0h-4m-4 0h-3.98m-4 0h-4m-4 0h-4m-3.98 0h-4m-4 0h-4m-4 0h-3.98m-4 0h-4m-4 0h-3.98m-4 0h-4m-4 0h-4m-3.98 0h-4m-4 0h-4m-3.98 0h-4m-4 0h-4m-4 0h-3.98m-4 0h-4m-4 0h-3.98m-4 0h-4m-4 0h-4m-3.98 0h-4m-4 0h-4m-3.98 0h-4m-4 0h-4m-4 0h-3.98m-4 0h-4m-4 0h-3.98m-4 0h-4m-4 0h-4m-3.98 0h-4m-4 0h-4m-4 0h-3.98m-4 0h-4m-4 0h-3.98m-4 0h-4m-4 0h-4m-3.98 0h-4m-4 0h-4m-3.98 0h-4m-4 0h-4m-4 0h-3.98m-4 0h-4m-4 0h-4m-3.98 0h-4m-4 0h-4m-3.98 0h-4m-4 0h-4m-4 0h-3.98m-4 0h-4m-4 0h-3.98m-4 0h-4m-4 0h-4m-3.98 0h-4m-4 0h-4m-3.98 0h-4m-4 0h-4m-4 0h-3.98m-4 0h-4m-4 0h-3.98m-4 0h-4m-4 0h-4m-3.98 0h-4m-4 0h-4m-4 0h-3.98m-4 0h-4m-4 0h-3.98m-4 0h-4m-4 0h-4m-3.98 0h-4m-4 0h-4m-3.98 0h-4m-4 0h-4m-4 0h-3.98m-4 0h-4m-4 0h-3.98m-4 0h-4m-4 0h-4m-3.98 0h-4m-4 0h-4m-3.98 0h-4m-4 0h-4m-4 0h-3.98m-4 0h-4m-4 0h-4m-3.98 0h-4m-4 0h-4m-3.98 0h-4m-4 0h-4m-4 0h-3.98m-4 0h-4m-4 0h-4m-3.98 0h-4m-4 0h-4m-3.98 0h-4m-4 0h-4m-4 0h-3.98m-4 0h-4m-4 0h-3.98m-4 0h-4m-4 0h-4m-3.98 0h-4m-4 0h-4m-3.98 0h-4m-4 0h-4m-4 0h-3.98m-4 0h-4m-4 0h-3.98m-4 0h-4m-4 0h-4m-3.98 0h-4m-4 0h-4m-3.98 0h-4m-4 0h-4m-4 0h-3.98m-4 0h-4m-4 0h-4m-3.98 0h-4m-4 0h-4m-3.98 0h-4m-4 0h-4m-4 0h-3.98m-4 0h-4m-4 0h-3.98m-4 0h-4m-4 0h-4m-3.98 0h-4m-4 0h-4m-4 0h-3.98m-4 0h-4m-4 0h-3.98m-4 0h-4m-4 0h-4m-3.98 0h-4m-4 0h-4m-3.98 0h-4m-4 0h-4m-4 0h-3.98m-4 0h-4m-4 0h-3.98m-4 0h-4m-4 0h-4m-3.98 0h-4m-4 0h-4m-4 0h-3.98m-4 0h-4m-4 0h-3.98m-4 0h-2" stroke="#3a414a" fill="none"/><path d="M1879.5 1480l.02.47h-.53v-.94h.53z" stroke="#3a414a" stroke-width=".05" fill="#3a414a"/><path d="M601.62 1480l14.26-4.63v9.27z" stroke="#3a414a" fill="#3a414a"/><path d="M641 1560h2m4 0h4m3.98 0h4m4 0h3.98m4 0h4m3.98 0h4m4 0h3.98m4 0h4m4 0h3.98m4 0h4m3.98 0h4m4 0h3.98m4 0h4m4 0h3.98m4 0h4m3.98 0h4m4 0h3.98m4 0h4m4 0h3.98m4 0h4m3.98 0h4m4 0h3.98m4 0h4m4 0h3.98m4 0h4m3.98 0h4m4 0h3.98m4 0h4m3.98 0h4m4 0h4m3.98 0h4m4 0h3.98m4 0h4m3.98 0h4m4 0h4m3.98 0h4m4 0h3.98m4 0h4m3.98 0h4m4 0h4m3.98 0h4m4 0h3.98m4 0h4m3.98 0h4m4 0h4m3.98 0h4m4 0h3.98m4 0h4m3.98 0h4m4 0h3.98m4 0h4m4 0h3.98m4 0h4m3.98 0h4m4 0h3.98m4 0h4m4 0h3.98m4 0h4m3.98 0h4m4 0h3.98m4 0h4m4 0h3.98m4 0h4m3.98 0h4m4 0h3.98m4 0h4m3.98 0h4m4 0h4m3.98 0h4m4 0h3.98m4 0h4m3.98 0h4m4 0h4m3.98 0h2" stroke="#3a414a" fill="none"/><path d="M641 1560.47h-.53l.03-.46-.02-.47h.53z" stroke="#3a414a" stroke-width=".05" fill="#3a414a"/><path d="M1238.88 1560l-14.26 4.63v-9.27z" stroke="#3a414a" fill="#3a414a"/><path d="M-120 800.9h80" stroke="#3a414a" fill="none"/><path d="M-120 801.37h-.5v-.95h.5z" stroke="#3a414a" stroke-width=".05" fill="#3a414a"/><path d="M-40 800.9h.5M1240 1720h-2m-4 0h-4m-4 0h-4m-3.98 0h-4m-4 0h-4m-4 0h-4m-3.98 0h-4m-4 0h-4m-4 0h-4m-3.98 0h-4m-4 0h-4m-4 0h-4m-4 0h-3.98m-4 0h-4m-4 0h-4m-4 0h-3.98m-4 0h-4m-4 0h-4m-4 0h-4m-3.98 0h-4m-4 0h-4m-4 0h-4m-3.98 0h-4m-4 0h-4m-4 0h-4m-4 0h-3.98m-4 0h-4m-4 0h-4m-4 0h-3.98m-4 0h-4m-4 0h-4m-4 0h-3.98m-4 0h-4m-4 0h-4m-4 0h-4m-3.98 0h-4m-4 0h-4m-4 0h-4m-3.98 0h-4m-4 0h-4m-4 0h-4m-4 0h-3.98m-4 0h-4m-4 0h-4m-4 0h-3.98m-4 0h-4m-4 0h-4m-4 0h-3.98m-4 0h-4m-4 0h-4m-4 0h-4m-3.98 0h-4m-4 0h-4m-4 0h-4m-3.98 0h-4m-4 0h-4m-4 0h-4m-4 0h-3.98m-4 0h-4m-4 0h-4m-4 0h-3.98m-4 0h-4m-4 0h-4m-4 0h-3.98m-4 0h-4m-4 0h-4m-4 0h-4m-3.98 0h-4m-4 0h-4m-4 0h-4m-3.98 0h-4m-4 0h-4m-4 0h-4m-4 0h-3.98m-4 0h-4m-4 0h-4m-4 0h-3.98m-4 0h-4m-4 0h-4m-4 0h-3.98m-4 0h-4m-4 0h-4m-4 0h-4m-4 0h-3.98m-4 0h-4m-4 0h-4m-4 0h-4m-4 0h-3.98m-4 0h-4m-4 0h-4m-4 0h-4m-4 0h-3.98m-4 0h-4m-4 0h-4m-4 0h-4m-4 0h-3.98m-4 0h-4m-4 0h-4m-4 0h-4m-4 0h-3.98m-4 0h-4m-4 0h-4m-4 0h-4m-4 0h-4m-3.98 0h-4m-4 0h-4m-4 0h-4m-4 0h-4m-3.98 0h-4m-4 0h-4m-4 0h-4m-4 0h-4m-3.98 0h-4m-4 0h-4m-4 0h-4m-4 0h-4m-3.98 0h-4m-4 0h-4m-4 0h-4m-4 0h-4m-3.98 0h-4m-4 0h-4m-4 0h-4m-4 0h-4m-3.98 0h-4m-4 0h-4m-4 0h-4m-4 0h-4m-3.98 0h-4m-4 0h-4m-4 0h-4m-4 0h-4m-3.98 0h-4m-4 0h-4m-4 0h-4m-4 0h-4m-3.98 0h-4m-4 0h-4m-4 0h-4m-4 0h-4m-3.98 0h-4m-4 0h-4m-4 0h-4m-4 0h-4m-3.98 0h-4m-4 0h-4m-4 0h-4m-4 0h-4m-3.98 0h-4m-4 0h-4m-4 0h-4m-4 0h-4m-4 0h-3.98m-4 0h-4m-4 0h-4m-4 0h-4m-4 0H-9.1m-4 0h-4m-4 0h-2" stroke="#3a414a" fill="none"/><path d="M1240.5 1720l.02.47h-.53v-.94h.53z" stroke="#3a414a" stroke-width=".05" fill="#3a414a"/><path d="M-37.88 1720l14.27-4.63v9.27z" stroke="#3a414a" fill="#3a414a"/><path d="M1.5 1800h2m4 0h3.98m4 0h3.98m4 0h4m3.98 0h4m3.98 0h4m3.98 0h4m4 0h3.98m4 0h3.98m4 0h4m3.98 0h4m3.98 0h4m4 0h3.98m4 0h3.98m4 0h3.98m4 0h4m3.98 0h4m3.98 0h4m4 0h3.98m4 0h3.98m4 0h3.98m4 0h4m3.98 0h4m3.98 0h4m3.98 0h4m4 0h3.98m4 0h3.98m4 0h4m3.98 0h4m3.98 0h4m3.98 0h4m4 0h3.98m4 0h3.98m4 0h4m3.98 0h4m3.98 0h4m3.98 0h4m4 0h3.98m4 0h3.98m4 0h4m3.98 0h4m3.98 0h4m3.98 0h4m4 0h3.98m4 0h3.98m4 0h4m3.98 0h4m3.98 0h4m3.98 0h4m4 0h3.98m4 0h3.98m4 0h4m3.98 0h4m3.98 0h4m3.98 0h4m4 0h3.98m4 0h3.98m4 0h4m3.98 0h4m3.98 0h4m3.98 0h4m4 0h3.98m4 0h3.98m4 0h4m3.98 0h4m3.98 0h4m3.98 0h4m4 0h3.98m4 0h3.98m4 0h4m3.98 0h4m3.98 0h4m3.98 0h4m4 0h3.98m4 0h3.98m4 0h4m3.98 0h4m3.98 0h4m3.98 0h4m4 0h3.98m4 0h3.98m4 0h4m3.98 0h4m3.98 0h4m3.98 0h4m4 0h3.98m4 0h3.98m4 0h4m3.98 0h4m3.98 0h4m3.98 0h4m4 0h3.98m4 0h3.98m4 0h4m3.98 0h4m3.98 0h4m3.98 0h4m4 0h3.98m4 0h3.98m4 0h4m3.98 0h4m3.98 0h4m3.98 0h4m4 0h3.98m4 0h3.98m4 0h4m3.98 0h4m3.98 0h4m3.98 0h4m4 0h3.98m4 0h3.98m4 0h4m3.98 0h4m3.98 0h2" stroke="#3a414a" fill="none"/><path d="M1.5 1800.47H.98L1 1800l-.02-.47h.53z" stroke="#3a414a" stroke-width=".05" fill="#3a414a"/><path d="M918.38 1800l-14.26 4.63v-9.27z" stroke="#3a414a" fill="#3a414a"/><path d="M940.5 900H960" stroke="#3a414a" fill="none"/><path d="M940.5 900.48h-.5v-.96h.5z" stroke="#3a414a" stroke-width=".05" fill="#3a414a"/><path d="M960 900h.5" stroke="#3a414a" fill="none"/><path d="M1080.5 1366.45a6 6 0 0 1 6-6h108a6 6 0 0 1 6 6v68a6 6 0 0 1-6 6h-108a6 6 0 0 1-6-6z" stroke="#000" stroke-opacity="0" stroke-width="2" fill="#fff" fill-opacity="0"/><g><use xlink:href="#w" transform="matrix(1,0,0,1,1085.5003118598445,1365.4494623330975) translate(1.6579861111111285 42.55208333333333)"/></g><path d="M1201 1400.45h79.5" stroke="#3a414a" fill="none"/><path d="M1201 1400.92h-.5v-.95h.5z" stroke="#3a414a" stroke-width=".05" fill="#3a414a"/><path d="M1280.5 1400.45h.5" stroke="#3a414a" fill="none"/><path d="M801.5 519.1h1319V560h-1319z" stroke="#000" fill="#c3f7c8"/><g><use xlink:href="#B" transform="matrix(1,0,0,1,806.5009355795321,524.1010753338037) translate(541.1482204861111 22.37543402777778)"/><use xlink:href="#H" transform="matrix(1,0,0,1,806.5009355795321,524.1010753338037) translate(647.8322482638889 22.37543402777778)"/></g><defs><path d="M839-1335c-182-6-269 67-259 253h491v142H580V0H400v-940H138v-142h262c-15-293 132-408 418-402 94 2 200 7 281 21v145c-75-10-177-14-260-17" id="I"/><path d="M148-1120c216-7 379-89 463-229h166v1204h353V0H157v-145h439v-1021c-79 124-254 184-448 194v-148" id="J"/><g id="a"><use transform="matrix(0.010850694444444442,0,0,0.010850694444444442,0,0)" xlink:href="#I"/><use transform="matrix(0.010850694444444442,0,0,0.010850694444444442,13.33550347222222,0)" xlink:href="#J"/></g><path d="M745-142h380V0H143v-142h422v-798H246v-142h499v940zM545-1292v-192h200v192H545" id="K"/><path d="M706-1102c241 0 344 136 343 381V0H868v-695c1-168-57-273-220-268-190 6-283 138-283 336V0H185c-3-360 6-732-6-1082h170c4 54 7 126 8 185h3c63-121 164-204 346-205" id="L"/><path d="M715 0H502L69-1082h202c94 253 197 500 285 758 19 57 36 126 52 183 96-335 234-626 350-941h201" id="M"/><path d="M615-1102c343 0 484 203 482 560-1 347-147 562-488 562-336 0-475-219-479-562-4-349 156-560 485-560zm-8 989c240 0 301-180 301-429 0-245-55-427-290-427-236 0-299 181-299 427 0 243 61 429 288 429" id="N"/><path d="M914 0L548-499l-132 98V0H236v-1484h180v927l475-525h211L663-617 1125 0H914" id="O"/><path d="M617-1102c355 0 481 238 477 599H322c5 222 84 388 301 388 144 0 244-59 284-166l158 45C1002-72 854 20 623 20c-342 0-490-220-490-568 0-346 151-554 484-554zm291 461c-18-192-90-328-289-328-194 0-287 128-295 328h584" id="P"/><path d="M865-914c-3-187-2-380-2-570h180v1261c0 76 1 155 6 223H877c-8-49-9-116-10-174h-5C801-44 708 26 530 26c-135 0-234-46-297-139s-95-232-95-419c0-377 131-566 392-566 176 0 271 63 335 184zm-286-51c-222 0-255 197-255 427 0 229 31 425 253 425 237 0 286-195 286-441 0-238-52-411-284-411" id="Q"/><g id="b"><use transform="matrix(0.010850694444444442,0,0,0.010850694444444442,0,0)" xlink:href="#K"/><use transform="matrix(0.010850694444444442,0,0,0.010850694444444442,13.33550347222222,0)" xlink:href="#L"/><use transform="matrix(0.010850694444444442,0,0,0.010850694444444442,26.67100694444444,0)" xlink:href="#M"/><use transform="matrix(0.010850694444444442,0,0,0.010850694444444442,40.00651041666666,0)" xlink:href="#N"/><use transform="matrix(0.010850694444444442,0,0,0.010850694444444442,53.34201388888888,0)" xlink:href="#O"/><use transform="matrix(0.010850694444444442,0,0,0.010850694444444442,66.6775173611111,0)" xlink:href="#P"/><use transform="matrix(0.010850694444444442,0,0,0.010850694444444442,80.01302083333331,0)" xlink:href="#Q"/></g><path d="M698-1104c312 3 392 244 392 558 0 315-82 566-392 566-169 0-277-65-331-184h-5c8 188 2 394 4 589H185V-858c0-76-1-156-6-224h175c6 52 9 120 10 178h4c58-122 150-202 330-200zm-49 991c225 0 255-203 255-433 0-225-32-419-253-419-236 0-285 192-285 441 0 237 53 411 283 411" id="R"/><g id="c"><use transform="matrix(0.010850694444444442,0,0,0.010850694444444442,0,0)" xlink:href="#R"/><use transform="matrix(0.010850694444444442,0,0,0.010850694444444442,13.33550347222222,0)" xlink:href="#J"/></g><path d="M839-1102c70 0 148 7 206 17v167c-112-18-268-36-363 15-129 69-208 203-208 395V0H294c-10-367 32-789-52-1082h171c21 75 41 161 48 250h5c67-152 152-270 373-270" id="S"/><path d="M873-819c-18-114-119-146-250-146-163 0-245 50-245 151 0 151 170 148 294 185 182 54 388 94 388 320 0 240-189 325-439 329-245 4-410-69-454-268l159-31c24 133 136 168 295 165 144-2 270-31 270-171 0-164-195-160-331-202-167-52-350-87-350-299 0-218 173-315 413-313 220 2 373 77 412 260" id="T"/><path d="M736-142h380V0H134v-142h422v-1200H267v-142h469v1342" id="U"/><g id="d"><use transform="matrix(0.010850694444444442,0,0,0.010850694444444442,0,0)" xlink:href="#S"/><use transform="matrix(0.010850694444444442,0,0,0.010850694444444442,13.33550347222222,0)" xlink:href="#P"/><use transform="matrix(0.010850694444444442,0,0,0.010850694444444442,26.67100694444444,0)" xlink:href="#T"/><use transform="matrix(0.010850694444444442,0,0,0.010850694444444442,40.00651041666666,0)" xlink:href="#N"/><use transform="matrix(0.010850694444444442,0,0,0.010850694444444442,53.34201388888888,0)" xlink:href="#U"/><use transform="matrix(0.010850694444444442,0,0,0.010850694444444442,66.6775173611111,0)" xlink:href="#M"/><use transform="matrix(0.010850694444444442,0,0,0.010850694444444442,80.01302083333331,0)" xlink:href="#P"/><use transform="matrix(0.010850694444444442,0,0,0.010850694444444442,93.34852430555554,0)" xlink:href="#Q"/></g><path d="M611-1370c266 0 451 106 451 368 0 147-77 243-154 327-132 144-316 255-451 395-42 44-75 87-96 134h723V0H144v-117c124-264 387-411 582-603 73-72 151-147 151-271 0-161-104-231-266-231-163 0-249 90-268 238l-184-17c35-233 185-369 452-369" id="V"/><g id="e"><use transform="matrix(0.010850694444444442,0,0,0.010850694444444442,0,0)" xlink:href="#I"/><use transform="matrix(0.010850694444444442,0,0,0.010850694444444442,13.33550347222222,0)" xlink:href="#V"/></g><path d="M682 16c-209 0-323-80-324-285v-671H190v-142h170l58-282h120v282h432v142H538v652c2 114 60 155 182 155 106 0 209-16 297-34v137C921-4 806 16 682 16" id="W"/><path d="M528 20c-247 0-343-132-343-381v-721h180v686c-4 177 45 284 224 277 194-8 279-136 279-336v-627h181c3 360-6 732 6 1082H885c-4-54-7-126-8-185h-3C809-64 714 20 528 20" id="X"/><g id="f"><use transform="matrix(0.010850694444444442,0,0,0.010850694444444442,0,0)" xlink:href="#S"/><use transform="matrix(0.010850694444444442,0,0,0.010850694444444442,13.33550347222222,0)" xlink:href="#P"/><use transform="matrix(0.010850694444444442,0,0,0.010850694444444442,26.67100694444444,0)" xlink:href="#W"/><use transform="matrix(0.010850694444444442,0,0,0.010850694444444442,40.00651041666666,0)" xlink:href="#X"/><use transform="matrix(0.010850694444444442,0,0,0.010850694444444442,53.34201388888888,0)" xlink:href="#S"/><use transform="matrix(0.010850694444444442,0,0,0.010850694444444442,66.6775173611111,0)" xlink:href="#L"/><use transform="matrix(0.010850694444444442,0,0,0.010850694444444442,80.01302083333331,0)" xlink:href="#T"/></g><path d="M1060-1016c0 191-128 285-295 323v4c154 18 262 91 313 209 14 35 21 72 21 110 0 277-194 390-478 390-292 0-457-129-493-382l186-17c24 161 121 250 307 250 172 1 298-80 291-247-8-208-220-239-446-233v-156c217 9 409-34 409-232 0-152-102-225-264-225-159 0-264 88-278 233l-181-14c33-239 196-367 461-367 264 0 447 102 447 354" id="Y"/><g id="g"><use transform="matrix(0.010850694444444442,0,0,0.010850694444444442,0,0)" xlink:href="#R"/><use transform="matrix(0.010850694444444442,0,0,0.010850694444444442,13.33550347222222,0)" xlink:href="#Y"/></g><g id="h"><use transform="matrix(0.010850694444444442,0,0,0.010850694444444442,0,0)" xlink:href="#R"/><use transform="matrix(0.010850694444444442,0,0,0.010850694444444442,13.33550347222222,0)" xlink:href="#V"/></g><path d="M427-171c3 195 2 397 2 596H148V-846c1-83-4-168-8-236h272c10 49 14 118 15 176h4c59-114 151-197 316-197 291 0 385 259 385 560 0 243-65 433-220 521-50 28-109 42-176 42-162-2-253-78-309-191zm69-661c-91 113-92 463-1 586 46 62 145 101 225 54 96-57 118-191 119-351 0-123-18-215-53-276-46-82-128-115-220-74-25 12-48 33-70 61" id="Z"/><path d="M875-1102c70 0 148 7 206 17v237c-110-17-267-37-359 15-123 69-192 207-192 395V0H250c-10-367 32-789-52-1082h271c19 69 36 149 46 228h4c52-151 151-250 356-248" id="aa"/><path d="M616-1102c361 0 521 202 521 560 0 354-171 562-527 562C259 20 92-192 92-542c0-351 169-560 524-560zm-9 930c200-2 236-165 236-370 0-199-27-367-223-367-195 0-233 146-233 367 0 129 18 223 55 282s92 88 165 88" id="ab"/><path d="M934-1102c199 0 220 177 220 381V0H926c-2-260 10-533-4-785-4-72-14-138-83-138-34 0-61 27-81 81s-29 134-29 241V0H501c-2-260 9-533-5-785-4-72-13-138-82-138-46 0-65 47-80 93-21 67-30 155-30 248V0H75c-3-360 6-732-6-1082h209c6 50 3 123 8 175 36-100 83-195 216-195 135 0 166 79 196 196 42-105 93-196 236-196" id="ac"/><path d="M794-190h353V0H118v-190h395v-702H223v-190h571v892zM513-1277v-207h281v207H513" id="ad"/><path d="M622-916c-112 2-200 14-200 111 0 90 89 101 168 121 234 58 514 77 514 368C1104-4 751 54 434 5 267-21 161-112 121-270l247-37c24 111 113 145 252 141 114-3 226-12 226-124 0-101-103-113-192-134-225-54-490-76-490-351 0-247 201-328 458-328 245 0 413 88 457 292l-249 26c-16-98-92-133-208-131" id="ae"/><path d="M1113-274C1038-96 884 20 626 20c-352 0-526-209-526-566 0-358 185-556 530-556 358 0 496 251 499 615H395c5 180 68 319 245 319 102 0 186-45 208-129zM857-663c-6-177-128-307-315-247-94 30-141 121-145 247h460" id="af"/><g id="i"><use transform="matrix(0.010850694444444444,0,0,0.010850694444444444,0,0)" xlink:href="#Z"/><use transform="matrix(0.010850694444444444,0,0,0.010850694444444444,13.335503472222221,0)" xlink:href="#aa"/><use transform="matrix(0.010850694444444444,0,0,0.010850694444444444,26.671006944444443,0)" xlink:href="#ab"/><use transform="matrix(0.010850694444444444,0,0,0.010850694444444444,40.006510416666664,0)" xlink:href="#ac"/><use transform="matrix(0.010850694444444444,0,0,0.010850694444444444,53.342013888888886,0)" xlink:href="#ad"/><use transform="matrix(0.010850694444444444,0,0,0.010850694444444444,66.67751736111111,0)" xlink:href="#ae"/><use transform="matrix(0.010850694444444444,0,0,0.010850694444444444,80.01302083333334,0)" xlink:href="#af"/></g><path d="M138-1120c207-4 339-93 415-229h266v1140h323V0H149v-209h389v-891c-70 121-216 187-400 194v-214" id="ag"/><use transform="matrix(0.010850694444444444,0,0,0.010850694444444444,0,0)" xlink:href="#ag" id="j"/><path d="M621-530c0 421 127 700 301 955H641C466 173 344-110 344-531s122-702 297-953h281c-174 254-301 534-301 954" id="ah"/><path d="M885-531c0 421-122 704-297 956H307c174-255 301-534 301-955 0-420-127-700-301-954h281c175 251 297 532 297 953" id="ai"/><g id="k"><use transform="matrix(0.010850694444444444,0,0,0.010850694444444444,0,0)" xlink:href="#ah"/><use transform="matrix(0.010850694444444444,0,0,0.010850694444444444,13.335503472222221,0)" xlink:href="#Z"/><use transform="matrix(0.010850694444444444,0,0,0.010850694444444444,26.671006944444443,0)" xlink:href="#ag"/><use transform="matrix(0.010850694444444444,0,0,0.010850694444444444,40.006510416666664,0)" xlink:href="#ai"/></g><path d="M768-1103c247 0 336 167 336 416V0H824v-619c-3-164-24-273-171-273-164 0-229 142-229 312V0H143c-4-359 9-736-8-1082h268c7 63 12 146 13 215h4c67-145 160-236 348-236" id="aj"/><path d="M775-193C708-75 621 20 439 20 226 20 106-93 106-306c0-251 170-341 417-346l223-4c4-143-12-264-148-264-103 0-141 58-150 153l-293-14c37-219 194-321 455-321 263 0 418 130 417 390v392c1 84 5 161 89 160 21 0 42-2 62-6v152c-57 15-108 27-180 26-145 0-202-73-217-205h-6zm-256 17c168 0 234-139 227-325-166 4-347-25-347 173 0 94 33 152 120 152" id="ak"/><path d="M711 13c-250 0-386-99-385-349l2-556H161v-190h181l88-282h176v282h385v190H606v530c-10 130 45 186 174 184 91-2 176-11 255-27v186C933-1 833 13 711 13" id="al"/><path d="M470 0v-305h289V0H470" id="am"/><path d="M471 20c-247 0-336-169-336-415v-687h281v607c4 148 31 285 172 285 152 0 207-150 207-312v-580h281c4 359-9 736 8 1082H816c-7-63-11-146-12-215h-5C736-76 644 20 471 20" id="an"/><g id="l"><use transform="matrix(0.010850694444444444,0,0,0.010850694444444444,0,0)" xlink:href="#aa"/><use transform="matrix(0.010850694444444444,0,0,0.010850694444444444,13.335503472222221,0)" xlink:href="#af"/><use transform="matrix(0.010850694444444444,0,0,0.010850694444444444,26.671006944444443,0)" xlink:href="#ae"/><use transform="matrix(0.010850694444444444,0,0,0.010850694444444444,40.006510416666664,0)" xlink:href="#ab"/><use transform="matrix(0.010850694444444444,0,0,0.010850694444444444,53.342013888888886,0)" xlink:href="#aj"/><use transform="matrix(0.010850694444444444,0,0,0.010850694444444444,66.67751736111111,0)" xlink:href="#ak"/><use transform="matrix(0.010850694444444444,0,0,0.010850694444444444,80.01302083333334,0)" xlink:href="#al"/><use transform="matrix(0.010850694444444444,0,0,0.010850694444444444,93.34852430555557,0)" xlink:href="#af"/><use transform="matrix(0.010850694444444444,0,0,0.010850694444444444,106.6840277777778,0)" xlink:href="#am"/><use transform="matrix(0.010850694444444444,0,0,0.010850694444444444,120.01953125000003,0)" xlink:href="#aa"/><use transform="matrix(0.010850694444444444,0,0,0.010850694444444444,133.35503472222226,0)" xlink:href="#an"/><use transform="matrix(0.010850694444444444,0,0,0.010850694444444444,146.69053819444449,0)" xlink:href="#aj"/><use transform="matrix(0.010850694444444444,0,0,0.010850694444444444,160.0260416666667,0)" xlink:href="#ah"/><use transform="matrix(0.010850694444444444,0,0,0.010850694444444444,173.36154513888894,0)" xlink:href="#ai"/></g><path d="M844-1321c-130 0-195 53-191 182v57h443v190H653V0H373v-892H117v-190h256v-83c5-247 162-348 422-349 120-1 232 13 327 28v184c-84-10-183-19-278-19" id="ao"/><path d="M1109-360C1066-122 902 20 624 20c-347 0-514-209-514-555 0-353 168-567 518-567 270 0 425 136 473 361l-283 14c-16-106-75-183-196-182-75 0-130 31-165 93s-52 152-52 270c0 249 74 374 221 374 120 0 188-82 201-201" id="ap"/><g id="m"><use transform="matrix(0.010850694444444444,0,0,0.010850694444444444,0,0)" xlink:href="#ao"/><use transform="matrix(0.010850694444444444,0,0,0.010850694444444444,13.335503472222221,0)" xlink:href="#an"/><use transform="matrix(0.010850694444444444,0,0,0.010850694444444444,26.671006944444443,0)" xlink:href="#aj"/><use transform="matrix(0.010850694444444444,0,0,0.010850694444444444,40.006510416666664,0)" xlink:href="#ap"/><use transform="matrix(0.010850694444444444,0,0,0.010850694444444444,53.342013888888886,0)" xlink:href="#al"/><use transform="matrix(0.010850694444444444,0,0,0.010850694444444444,66.67751736111111,0)" xlink:href="#ad"/><use transform="matrix(0.010850694444444444,0,0,0.010850694444444444,80.01302083333334,0)" xlink:href="#ab"/><use transform="matrix(0.010850694444444444,0,0,0.010850694444444444,93.34852430555557,0)" xlink:href="#aj"/></g><g id="n"><use transform="matrix(0.010850694444444444,0,0,0.010850694444444444,0,0)" xlink:href="#ah"/><use transform="matrix(0.010850694444444444,0,0,0.010850694444444444,13.335503472222221,0)" xlink:href="#ao"/><use transform="matrix(0.010850694444444444,0,0,0.010850694444444444,26.671006944444443,0)" xlink:href="#ag"/><use transform="matrix(0.010850694444444444,0,0,0.010850694444444444,40.006510416666664,0)" xlink:href="#ai"/></g><path d="M135-968c34-256 187-402 480-402 217 0 371 75 441 220 45 93 40 219-8 308-114 212-348 323-508 488-38 39-66 80-85 123h654V0H123v-195c112-245 321-399 515-560 57-48 107-96 142-157 14-26 22-53 22-80-1-104-73-156-185-154-131 2-181 74-199 194" id="aq"/><use transform="matrix(0.010850694444444444,0,0,0.010850694444444444,0,0)" xlink:href="#aq" id="o"/><g id="p"><use transform="matrix(0.010850694444444444,0,0,0.010850694444444444,0,0)" xlink:href="#ah"/><use transform="matrix(0.010850694444444444,0,0,0.010850694444444444,13.335503472222221,0)" xlink:href="#Z"/><use transform="matrix(0.010850694444444444,0,0,0.010850694444444444,26.671006944444443,0)" xlink:href="#aq"/><use transform="matrix(0.010850694444444444,0,0,0.010850694444444444,40.006510416666664,0)" xlink:href="#ai"/></g><g id="q"><use transform="matrix(0.010850694444444444,0,0,0.010850694444444444,0,0)" xlink:href="#ah"/><use transform="matrix(0.010850694444444444,0,0,0.010850694444444444,13.335503472222221,0)" xlink:href="#ao"/><use transform="matrix(0.010850694444444444,0,0,0.010850694444444444,26.671006944444443,0)" xlink:href="#aq"/><use transform="matrix(0.010850694444444444,0,0,0.010850694444444444,40.006510416666664,0)" xlink:href="#ai"/></g><path d="M788-691c191 26 337 112 337 315 0 286-214 399-510 399-306 0-483-128-522-391l286-25c18 124 91 190 235 188 132-2 223-58 223-188 0-176-191-182-378-179v-227c176 5 345-9 345-176 0-115-82-171-200-171s-198 55-206 169l-281-20c34-252 213-373 492-373 224 0 381 74 451 224 20 43 29 89 29 136 0 195-130 279-301 315v4" id="ar"/><use transform="matrix(0.010850694444444444,0,0,0.010850694444444444,0,0)" xlink:href="#ar" id="r"/><g id="s"><use transform="matrix(0.010850694444444444,0,0,0.010850694444444444,0,0)" xlink:href="#ah"/><use transform="matrix(0.010850694444444444,0,0,0.010850694444444444,13.335503472222221,0)" xlink:href="#Z"/><use transform="matrix(0.010850694444444444,0,0,0.010850694444444444,26.671006944444443,0)" xlink:href="#ar"/><use transform="matrix(0.010850694444444444,0,0,0.010850694444444444,40.006510416666664,0)" xlink:href="#ai"/></g><g id="t"><use transform="matrix(0.010850694444444444,0,0,0.010850694444444444,0,0)" xlink:href="#ah"/><use transform="matrix(0.010850694444444444,0,0,0.010850694444444444,13.335503472222221,0)" xlink:href="#ao"/><use transform="matrix(0.010850694444444444,0,0,0.010850694444444444,26.671006944444443,0)" xlink:href="#ar"/><use transform="matrix(0.010850694444444444,0,0,0.010850694444444444,40.006510416666664,0)" xlink:href="#ai"/></g><path d="M631 20c-350 0-501-215-501-562 0-355 162-560 502-560 250 0 399 118 446 323l-192 14c-23-124-109-196-262-196-242 0-305 171-305 415 1 245 61 427 304 427 151 0 248-77 267-215l190 12C1039-107 883 20 631 20" id="as"/><path d="M1000-272c3 95 12 159 101 161 21 0 41-3 59-7V-6c-44 10-86 16-139 16-141 2-191-84-197-217h-6C748-76 648 20 446 20c-207 0-318-120-318-322 0-266 194-348 454-354l236-4c12-191-40-305-222-305-140 0-220 47-232 172l-188-17c33-204 181-292 423-292 255 0 401 118 401 364v466zm-683-27c0 109 63 184 175 182 166-3 259-96 306-217 24-65 20-120 20-200-232 7-501-28-501 235" id="at"/><g id="u"><use transform="matrix(0.010850694444444442,0,0,0.010850694444444442,0,0)" xlink:href="#as"/><use transform="matrix(0.010850694444444442,0,0,0.010850694444444442,13.33550347222222,0)" xlink:href="#S"/><use transform="matrix(0.010850694444444442,0,0,0.010850694444444442,26.67100694444444,0)" xlink:href="#P"/><use transform="matrix(0.010850694444444442,0,0,0.010850694444444442,40.00651041666666,0)" xlink:href="#at"/><use transform="matrix(0.010850694444444442,0,0,0.010850694444444442,53.34201388888888,0)" xlink:href="#W"/><use transform="matrix(0.010850694444444442,0,0,0.010850694444444442,66.6775173611111,0)" xlink:href="#P"/><use transform="matrix(0.010850694444444442,0,0,0.010850694444444442,80.01302083333331,0)" xlink:href="#Q"/></g><path d="M1048-32c-2 300-135 456-433 456-222-1-358-88-400-267l184-25c22 99 100 157 222 156 184-2 248-125 248-315 0-64 3-133-2-194C807-100 706-13 524-12c-306 0-381-228-381-537 0-318 85-550 400-550 164 0 271 83 325 202h3c1-60 3-134 12-185h171c-13 339-4 702-6 1050zM585-145c210-8 284-178 284-406 0-192-52-331-177-392-33-16-69-22-104-22-223 2-259 184-259 414 0 229 31 415 256 406" id="au"/><g id="v"><use transform="matrix(0.010850694444444442,0,0,0.010850694444444442,0,0)" xlink:href="#R"/><use transform="matrix(0.010850694444444442,0,0,0.010850694444444442,13.33550347222222,0)" xlink:href="#P"/><use transform="matrix(0.010850694444444442,0,0,0.010850694444444442,26.67100694444444,0)" xlink:href="#L"/><use transform="matrix(0.010850694444444442,0,0,0.010850694444444442,40.00651041666666,0)" xlink:href="#Q"/><use transform="matrix(0.010850694444444442,0,0,0.010850694444444442,53.34201388888888,0)" xlink:href="#K"/><use transform="matrix(0.010850694444444442,0,0,0.010850694444444442,66.6775173611111,0)" xlink:href="#L"/><use transform="matrix(0.010850694444444442,0,0,0.010850694444444442,80.01302083333331,0)" xlink:href="#au"/></g><path d="M1018 0H814c-67-224-138-444-200-673C552-442 476-224 407 0H204L21-1082h178c43 310 105 601 126 933 54-225 128-425 193-638h193c63 212 134 415 185 638 22-336 90-622 136-933h176" id="av"/><g id="w"><use transform="matrix(0.010850694444444442,0,0,0.010850694444444442,0,0)" xlink:href="#at"/><use transform="matrix(0.010850694444444442,0,0,0.010850694444444442,13.33550347222222,0)" xlink:href="#av"/><use transform="matrix(0.010850694444444442,0,0,0.010850694444444442,26.67100694444444,0)" xlink:href="#at"/><use transform="matrix(0.010850694444444442,0,0,0.010850694444444442,40.00651041666666,0)" xlink:href="#K"/><use transform="matrix(0.010850694444444442,0,0,0.010850694444444442,53.34201388888888,0)" xlink:href="#W"/><use transform="matrix(0.010850694444444442,0,0,0.010850694444444442,66.6775173611111,0)" xlink:href="#K"/><use transform="matrix(0.010850694444444442,0,0,0.010850694444444442,80.01302083333331,0)" xlink:href="#L"/><use transform="matrix(0.010850694444444442,0,0,0.010850694444444442,93.34852430555554,0)" xlink:href="#au"/></g><g id="x"><use transform="matrix(0.010850694444444442,0,0,0.010850694444444442,0,0)" xlink:href="#T"/><use transform="matrix(0.010850694444444442,0,0,0.010850694444444442,13.33550347222222,0)" xlink:href="#W"/><use transform="matrix(0.010850694444444442,0,0,0.010850694444444442,26.67100694444444,0)" xlink:href="#at"/><use transform="matrix(0.010850694444444442,0,0,0.010850694444444442,40.00651041666666,0)" xlink:href="#S"/><use transform="matrix(0.010850694444444442,0,0,0.010850694444444442,53.34201388888888,0)" xlink:href="#W"/><use transform="matrix(0.010850694444444442,0,0,0.010850694444444442,66.6775173611111,0)" xlink:href="#T"/></g><g id="y"><use transform="matrix(0.010850694444444442,0,0,0.010850694444444442,0,0)" xlink:href="#S"/><use transform="matrix(0.010850694444444442,0,0,0.010850694444444442,13.33550347222222,0)" xlink:href="#P"/><use transform="matrix(0.010850694444444442,0,0,0.010850694444444442,26.67100694444444,0)" xlink:href="#T"/><use transform="matrix(0.010850694444444442,0,0,0.010850694444444442,40.00651041666666,0)" xlink:href="#X"/><use transform="matrix(0.010850694444444442,0,0,0.010850694444444442,53.34201388888888,0)" xlink:href="#U"/><use transform="matrix(0.010850694444444442,0,0,0.010850694444444442,66.6775173611111,0)" xlink:href="#W"/></g><path d="M1157-949c0 209-118 316-279 368L1227 0H895L605-515H432V0H137v-1349h494c317-2 526 111 526 400zM608-744c158 1 248-51 252-193 5-207-223-184-428-183v376h176" id="aw"/><g id="z"><use transform="matrix(0.010850694444444444,0,0,0.010850694444444444,0,0)" xlink:href="#aw"/><use transform="matrix(0.010850694444444444,0,0,0.010850694444444444,13.335503472222221,0)" xlink:href="#af"/><use transform="matrix(0.010850694444444444,0,0,0.010850694444444444,26.671006944444443,0)" xlink:href="#ae"/><use transform="matrix(0.010850694444444444,0,0,0.010850694444444444,40.006510416666664,0)" xlink:href="#ab"/><use transform="matrix(0.010850694444444444,0,0,0.010850694444444444,53.342013888888886,0)" xlink:href="#aj"/><use transform="matrix(0.010850694444444444,0,0,0.010850694444444444,66.67751736111111,0)" xlink:href="#ak"/><use transform="matrix(0.010850694444444444,0,0,0.010850694444444444,80.01302083333334,0)" xlink:href="#al"/><use transform="matrix(0.010850694444444444,0,0,0.010850694444444444,93.34852430555557,0)" xlink:href="#af"/></g><path d="M609-1161c-125 0-218 36-218 153 0 149 166 161 290 196 235 67 484 129 484 421 0 300-239 408-554 411C302 23 93-114 38-367l285-37c32 128 131 205 296 203 143-2 259-31 259-173 0-164-197-172-333-212-218-64-441-131-441-405 0-276 231-379 511-379 299 0 463 114 513 363l-286 29c-28-115-96-183-233-183" id="ax"/><path d="M774 0H438L31-1082h297c94 290 200 568 280 872 83-304 194-581 291-872h294" id="ay"/><g id="A"><use transform="matrix(0.010850694444444444,0,0,0.010850694444444444,0,0)" xlink:href="#ax"/><use transform="matrix(0.010850694444444444,0,0,0.010850694444444444,13.335503472222221,0)" xlink:href="#af"/><use transform="matrix(0.010850694444444444,0,0,0.010850694444444444,26.671006944444443,0)" xlink:href="#aa"/><use transform="matrix(0.010850694444444444,0,0,0.010850694444444444,40.006510416666664,0)" xlink:href="#ay"/><use transform="matrix(0.010850694444444444,0,0,0.010850694444444444,53.342013888888886,0)" xlink:href="#af"/><use transform="matrix(0.010850694444444444,0,0,0.010850694444444444,66.67751736111111,0)" xlink:href="#aa"/></g><g id="B"><use transform="matrix(0.010850694444444444,0,0,0.010850694444444444,0,0)" xlink:href="#Z"/><use transform="matrix(0.010850694444444444,0,0,0.010850694444444444,13.335503472222221,0)" xlink:href="#aa"/><use transform="matrix(0.010850694444444444,0,0,0.010850694444444444,26.671006944444443,0)" xlink:href="#ab"/><use transform="matrix(0.010850694444444444,0,0,0.010850694444444444,40.006510416666664,0)" xlink:href="#ap"/><use transform="matrix(0.010850694444444444,0,0,0.010850694444444444,53.342013888888886,0)" xlink:href="#af"/><use transform="matrix(0.010850694444444444,0,0,0.010850694444444444,66.67751736111111,0)" xlink:href="#ae"/><use transform="matrix(0.010850694444444444,0,0,0.010850694444444444,80.01302083333334,0)" xlink:href="#ae"/></g><path d="M424-1484c-2 206 5 424-8 618h4c67-145 160-234 348-236 251-3 335 167 336 416V0H824v-621c0-150-23-276-173-270-163 7-227 142-227 312V0H143v-1484h281" id="az"/><path d="M802-909c-3-189-2-383-2-575h281v1248c-1 83 4 168 8 236H817c-9-50-14-117-15-176h-4C735-49 651 20 482 20 191 20 97-238 97-539c0-243 66-432 221-519 50-28 108-42 175-42 162 2 253 78 309 191zm-70 658c91-113 93-462 2-584-46-61-145-100-224-53-96 56-119 190-120 349 0 123 17 214 52 275 46 82 130 115 222 74 25-12 46-33 68-61" id="aA"/><g id="C"><use transform="matrix(0.010850694444444444,0,0,0.010850694444444444,0,0)" xlink:href="#ap"/><use transform="matrix(0.010850694444444444,0,0,0.010850694444444444,13.335503472222221,0)" xlink:href="#aa"/><use transform="matrix(0.010850694444444444,0,0,0.010850694444444444,26.671006944444443,0)" xlink:href="#ak"/><use transform="matrix(0.010850694444444444,0,0,0.010850694444444444,40.006510416666664,0)" xlink:href="#ae"/><use transform="matrix(0.010850694444444444,0,0,0.010850694444444444,53.342013888888886,0)" xlink:href="#az"/><use transform="matrix(0.010850694444444444,0,0,0.010850694444444444,66.67751736111111,0)" xlink:href="#af"/><use transform="matrix(0.010850694444444444,0,0,0.010850694444444444,80.01302083333334,0)" xlink:href="#aA"/></g><g id="D"><use transform="matrix(0.010850694444444444,0,0,0.010850694444444444,0,0)" xlink:href="#ao"/><use transform="matrix(0.010850694444444444,0,0,0.010850694444444444,13.335503472222221,0)" xlink:href="#ag"/></g><g id="E"><use transform="matrix(0.010850694444444444,0,0,0.010850694444444444,0,0)" xlink:href="#ao"/><use transform="matrix(0.010850694444444444,0,0,0.010850694444444444,13.335503472222221,0)" xlink:href="#aq"/></g><g id="F"><use transform="matrix(0.010850694444444444,0,0,0.010850694444444444,0,0)" xlink:href="#ao"/><use transform="matrix(0.010850694444444444,0,0,0.010850694444444444,13.335503472222221,0)" xlink:href="#ar"/></g><g id="G"><use transform="matrix(0.010850694444444442,0,0,0.010850694444444442,0,0)" xlink:href="#I"/><use transform="matrix(0.010850694444444442,0,0,0.010850694444444442,13.33550347222222,0)" xlink:href="#Y"/></g><g id="H"><use transform="matrix(0.010850694444444444,0,0,0.010850694444444444,0,0)" xlink:href="#aa"/><use transform="matrix(0.010850694444444444,0,0,0.010850694444444444,13.335503472222221,0)" xlink:href="#af"/><use transform="matrix(0.010850694444444444,0,0,0.010850694444444444,26.671006944444443,0)" xlink:href="#ae"/><use transform="matrix(0.010850694444444444,0,0,0.010850694444444444,40.006510416666664,0)" xlink:href="#al"/><use transform="matrix(0.010850694444444444,0,0,0.010850694444444444,53.342013888888886,0)" xlink:href="#ak"/><use transform="matrix(0.010850694444444444,0,0,0.010850694444444444,66.67751736111111,0)" xlink:href="#aa"/><use transform="matrix(0.010850694444444444,0,0,0.010850694444444444,80.01302083333334,0)" xlink:href="#al"/><use transform="matrix(0.010850694444444444,0,0,0.010850694444444444,93.34852430555557,0)" xlink:href="#af"/><use transform="matrix(0.010850694444444444,0,0,0.010850694444444444,106.6840277777778,0)" xlink:href="#aA"/></g></defs></g></svg>