<svg xmlns="http://www.w3.org/2000/svg" xmlns:xlink="http://www.w3.org/1999/xlink" xmlns:lucid="lucid" width="1161.5" height="1001.5"><g transform="translate(261 380.5)" lucid:page-tab-id="0_0"><path d="M-500-500h1500v1500H-500z" fill="#fff"/><path d="M160-274a6 6 0 0 1 6-6h708a6 6 0 0 1 6 6v748a6 6 0 0 1-6 6H166a6 6 0 0 1-6-6z" fill-opacity="0"/><path d="M163.7-279.53l.45-.18.9-.23.95-.07h2m3.97 0h3.97m3.98 0h3.98m3.98 0h3.97m3.98 0h3.98m4 0h3.96m3.98 0h3.98m3.98 0h3.97m3.98 0h3.98m3.98 0h3.98m3.98 0h3.98m3.98 0h3.97m3.97 0h3.98m3.98 0h3.97m3.98 0h3.98m3.98 0h3.98m3.97 0h3.97m3.98 0h3.98m3.97 0h3.98m3.98 0h3.97m3.98 0h4m3.97 0h3.98m3.97 0H343m3.98 0h3.97m3.98 0h3.98m4 0h3.97m3.97 0h3.98m3.98 0h3.97m3.98 0h3.98m3.98 0h4m3.96 0h3.98m3.98 0h3.98m3.97 0h3.98m3.98 0h3.98m3.98 0h3.98m3.98 0h3.98m3.97 0h3.97m3.98 0h3.98m3.97 0h3.98m3.98 0h3.98m3.97 0h4m3.97 0h3.98m3.97 0h3.98m3.98 0h3.98m3.97 0H518m4 0h3.97m3.97 0h3.98m3.98 0h3.98m3.97 0h3.98m3.98 0h4m3.96 0h3.98m3.98 0h3.98m3.97 0h3.98m3.98 0h3.98m3.98 0h3.98m3.98 0h3.98m3.97 0h3.97m3.98 0h3.98m3.97 0h3.98m3.98 0h3.98m3.98 0h3.97m3.97 0h3.98m3.98 0h3.97m3.98 0h3.98m3.98 0h3.97m4 0h3.97m3.97 0h3.98m3.98 0h3.98m3.98 0h3.97m3.98 0h4m3.97 0h3.97m3.98 0h3.98m3.98 0h3.97m3.98 0h3.98m3.98 0h3.98m3.98 0h3.98m3.98 0h3.97m3.98 0h3.98m3.98 0h3.98m3.98 0h3.98m3.98 0h3.97m3.97 0h3.98m3.98 0h3.97m3.98 0h3.98m3.98 0h3.97m4 0h3.97m3.98 0h3.97m3.98 0h3.98m3.98 0h3.97m3.98 0h2l.94.07.9.22.45.17m3.23 3.24l.18.45.23.9.07.95v2m0 3.97v3.98m0 3.98v3.97m0 3.98v3.98m0 3.98v3.98m0 3.98v3.98m0 3.97v3.98m0 3.98v4m0 3.97v3.98m0 3.98v3.98m0 4v3.96m0 3.98v3.98m0 3.98v3.98m0 3.98v3.98m0 3.97v4m0 3.97v3.98m0 3.98v3.98m0 4v3.97m0 3.97v3.98m0 3.98v3.98m0 3.98v3.98m0 3.98v3.98m0 3.97v3.98m0 3.98V-89m0 4v3.97m0 3.98v3.98m0 3.97v3.98m0 3.98v3.98m0 3.98v3.98m0 3.98v3.98m0 3.97v3.98m0 4v3.97m0 3.98v3.98m0 3.98v4m0 3.96v3.98m0 3.98V6.5m0 3.98v3.98m0 3.98v3.97m0 4v3.97m0 3.98v3.98m0 3.98v4m0 3.97v3.97m0 3.98v3.98m0 3.98v3.98m0 3.98v3.98m0 3.98v3.97m0 3.98v3.98m0 3.98v4m0 3.97v3.98m0 3.98v3.97m0 3.98v3.98m0 3.98v3.98m0 3.98v3.98m0 3.97v3.98m0 3.98v4m0 3.97v3.98m0 3.98v3.98m0 4v3.96m0 3.98v3.98m0 3.98v3.98m0 3.98v3.98m0 3.97v4m0 3.97v3.98m0 3.98v3.98m0 4v3.97m0 3.97v3.98m0 3.98v3.98m0 3.98v3.98m0 3.98v3.98m0 3.97v3.98m0 3.98V285m0 4v3.97m0 3.98v3.98m0 3.97v3.98m0 3.98v3.98m0 3.98v3.98m0 3.98v3.98m0 3.97v3.98m0 4v3.97m0 3.98v3.98m0 3.98v3.98m0 3.98v3.98m0 3.98v3.98m0 3.98v3.98m0 3.98v3.98m0 3.97v3.97m0 3.98v3.98m0 3.98v4m0 3.97v3.98m0 3.97v3.98m0 3.98v3.98m0 3.98v3.98m0 3.98v3.97m0 3.98v3.98m0 3.98v2l-.07.94-.22.9-.17.45m-3.24 3.23l-.45.18-.9.23-.95.07h-2m-3.97 0h-3.97m-3.98 0h-3.98m-3.98 0h-3.97m-3.98 0h-3.98m-4 0h-3.96m-3.98 0h-3.98m-3.98 0h-3.97m-3.98 0h-3.98m-3.98 0h-3.98m-3.98 0h-3.98m-3.98 0h-3.97m-3.97 0h-3.98m-3.98 0h-3.97m-3.98 0h-3.98m-3.98 0h-3.98m-3.97 0h-3.97m-3.98 0h-3.98m-3.97 0h-3.98m-3.98 0h-3.98m-3.97 0h-4m-3.97 0h-3.97m-3.98 0H697m-3.98 0h-3.98m-3.97 0h-3.98m-4 0h-3.97m-3.97 0h-3.98m-3.98 0h-3.98m-3.97 0h-3.98m-3.98 0h-3.98m-3.98 0h-3.98m-3.98 0h-3.98m-3.97 0h-3.98m-3.98 0h-3.98m-3.98 0h-3.98m-3.98 0h-3.98m-3.97 0h-3.97m-3.98 0h-3.98m-3.97 0h-3.98m-3.98 0h-3.98m-3.97 0h-4m-3.97 0h-3.98m-3.97 0h-3.98m-3.98 0h-3.98m-3.97 0H522m-4 0h-3.97m-3.97 0h-3.98m-3.98 0h-3.98m-3.97 0h-3.98m-3.98 0h-4m-3.96 0h-3.98m-3.98 0h-3.98m-3.97 0h-3.98m-3.98 0h-3.98m-3.98 0h-3.98m-3.98 0h-3.98m-3.97 0h-3.97m-3.98 0h-3.98m-3.97 0h-3.98m-3.98 0h-3.98m-3.98 0h-3.97m-3.97 0h-3.98m-3.98 0h-3.97m-3.98 0h-3.98m-3.97 0h-3.98m-4 0h-3.97m-3.98 0h-3.97m-3.98 0h-3.98m-3.97 0h-3.98m-3.98 0h-4m-3.97 0h-3.97m-3.98 0h-3.98m-3.97 0h-3.98m-3.98 0h-3.98m-4 0h-3.96m-3.98 0h-3.98m-3.98 0h-3.97m-3.98 0h-3.98m-3.98 0h-3.98m-3.98 0h-3.98m-3.98 0h-3.97m-3.97 0h-3.98m-3.98 0h-3.97m-3.98 0h-3.98m-3.98 0h-3.97m-4 0h-3.97m-3.98 0h-3.97m-3.98 0h-3.98m-3.98 0h-3.97m-3.98 0h-2l-.94-.07-.9-.22-.45-.17m-3.23-3.24l-.18-.45-.23-.9-.07-.95v-2m0-3.97v-3.98m0-3.98v-3.97m0-3.98v-3.98m0-3.98v-3.98m0-3.98v-3.98m0-3.98v-3.97m0-3.98v-4m0-3.97v-3.98m0-3.98v-3.98m0-3.98v-3.98m0-3.98v-3.98m0-3.98v-3.98m0-3.98v-3.98m0-3.98v-3.97m0-3.97v-3.98m0-3.98v-3.98m0-4v-3.97m0-3.98v-3.97m0-3.98v-3.98m0-3.98v-3.98m0-3.98v-3.98m0-3.97v-3.98m0-3.98V289m0-4v-3.97m0-3.98v-3.98m0-3.97v-3.98m0-3.98v-3.98m0-3.98v-3.98m0-3.98v-3.97m0-3.98v-3.98m0-4v-3.97m0-3.98v-3.98m0-3.98v-4m0-3.96v-3.98m0-3.98v-3.98m0-3.98v-3.98m0-3.98v-3.97m0-4v-3.97m0-3.98v-3.98m0-3.98v-4m0-3.97v-3.97m0-3.98v-3.98m0-3.98v-3.98m0-3.98v-3.98m0-3.98v-3.97m0-3.98v-3.98m0-3.98v-4m0-3.97v-3.98m0-3.98V82.1m0-3.98v-3.98m0-3.98v-3.98m0-3.98v-3.98m0-3.98v-3.97m0-3.98v-4m0-3.97v-3.98m0-3.98V26.4m0-3.98v-3.98m0-3.98v-3.98m0-3.98V2.52m0-3.98v-3.98m0-3.97v-4m0-3.97v-3.98m0-3.98v-3.98m0-4v-3.97m0-3.97v-3.98m0-3.98v-3.98m0-3.98v-3.98m0-3.98v-3.98m0-3.97v-3.98m0-3.98V-85m0-4v-3.97m0-3.98v-3.98m0-3.97v-3.98m0-3.98v-3.98m0-3.98v-3.98m0-3.98v-3.97m0-3.98v-3.98m0-4v-3.97m0-3.98v-3.98m0-3.98v-4m0-3.96v-3.98m0-3.98v-3.98m0-3.98v-3.98m0-3.98v-3.97m0-4v-3.97m0-3.98v-3.98m0-3.98v-4m0-3.97v-3.97m0-3.98v-3.98m0-3.98v-3.98m0-3.98v-3.98m0-3.98v-3.97m0-3.98v-3.98m0-3.98v-2l.07-.94.22-.9.17-.45" stroke="#000" fill="none"/><path d="M680 40c0 22.1-17.9 40-40 40s-40-17.9-40-40 17.9-40 40-40 40 17.9 40 40z" stroke="#000" fill="#fff"/><path d="M640 81v62.12" stroke="#000" fill="none"/><path d="M640 80.5l.48-.02V81h-.96v-.53z" stroke="#000" stroke-width=".05"/><path d="M640 157.88l-4.63-14.26h9.26z" stroke="#000"/><path d="M680 200c0 22.1-17.9 40-40 40s-40-17.9-40-40 17.9-40 40-40 40 17.9 40 40z" stroke="#000" fill="#fff"/><path d="M360-40c0 22.1-17.9 40-40 40s-40-17.9-40-40 17.9-40 40-40 40 17.9 40 40z" stroke="#000" fill="#3a414a"/><path d="M320 321v68.67" stroke="#3a414a" fill="none"/><path d="M320 320.5l.48-.02v.53h-.96v-.53z" stroke="#3a414a" stroke-width=".05" fill="#3a414a"/><path d="M335 404.5c0 8.28-6.72 15-15 15-8.28 0-15-6.72-15-15 0-8.28 6.72-15 15-15 8.28 0 15 6.72 15 15z" stroke="#3a414a" fill="#fff"/><path d="M320-159v78" stroke="#3a414a" fill="none"/><path d="M320.48-159h-.96v-.5h.96zM320.48-80.47l-.47-.03-.48.02V-81h.96z" stroke="#3a414a" stroke-width=".05" fill="#3a414a"/><path d="M720 166a6 6 0 0 1 6-6h108a6 6 0 0 1 6 6v68a6 6 0 0 1-6 6H726a6 6 0 0 1-6-6z" stroke="#000" stroke-opacity="0" stroke-width="2" fill="#fff" fill-opacity="0"/><use xlink:href="#a" transform="matrix(1,0,0,1,725,165) translate(41.66449652777778 29.427083333333332)"/><use xlink:href="#b" transform="matrix(1,0,0,1,725,165) translate(8.325737847222214 52.853732638888886)"/><path d="M400-74a6 6 0 0 1 6-6h108a6 6 0 0 1 6 6v68a6 6 0 0 1-6 6H406a6 6 0 0 1-6-6z" stroke="#000" stroke-opacity="0" stroke-width="2" fill="#fff" fill-opacity="0"/><use xlink:href="#a" transform="matrix(1,0,0,1,405,-75) translate(41.66449652777778 29.427083333333332)"/><use xlink:href="#c" transform="matrix(1,0,0,1,405,-75) translate(8.325737847222214 52.853732638888886)"/><path d="M360 280c0 22.1-17.9 40-40 40s-40-17.9-40-40 17.9-40 40-40 40 17.9 40 40z" stroke="#000" fill="#3a414a"/><path d="M-240 246a6 6 0 0 1 6-6h108a6 6 0 0 1 6 6v68a6 6 0 0 1-6 6h-108a6 6 0 0 1-6-6z" stroke="#000" stroke-opacity="0" stroke-width="2" fill="#fff" fill-opacity="0"/><use xlink:href="#d" transform="matrix(1,0,0,1,-235,245) translate(34.99674479166667 29.427083333333332)"/><use xlink:href="#e" transform="matrix(1,0,0,1,-235,245) translate(48.33224826388889 29.427083333333332)"/><use xlink:href="#f" transform="matrix(1,0,0,1,-235,245) translate(1.6579861111111 52.853732638888886)"/><path d="M320 1v1.98m0 3.97v3.97m0 3.96v3.97m0 3.97v3.96m0 3.97v3.97m0 3.96v3.97m0 3.97v3.96m0 3.97v3.97m0 3.96v3.97m0 3.97v3.96m0 3.97v3.97m0 3.96v3.97m0 3.97v3.96m0 3.97v3.97m0 3.96v3.97m0 3.97v3.96m0 3.97v3.97m0 3.96v3.97m0 3.97v3.96m0 3.97v3.97m0 3.96v3.97m0 3.97v3.96m0 3.97v3.97m0 3.96v3.97m0 3.97v3.96m0 3.97v3.97m0 3.96v3.97m0 3.97v3.96m0 3.97v3.97m0 3.96v3.97m0 3.97V239" stroke="#3a414a" fill="none"/><path d="M320 .5l.48-.02V1h-.96V.48zM320.48 239.53l-.47-.03-.48.02V239h.96z" stroke="#3a414a" stroke-width=".05" fill="#3a414a"/><path d="M578.6 526a6 6 0 0 1 6-6h108a6 6 0 0 1 6 6v68a6 6 0 0 1-6 6h-108a6 6 0 0 1-6-6z" stroke="#000" stroke-opacity="0" stroke-width="2" fill="#fff" fill-opacity="0"/><use xlink:href="#g" transform="matrix(1,0,0,1,583.6083449429382,525) translate(8.325737847222214 42.55208333333333)"/><path d="M638.6 519.5V481" stroke="#3a414a" fill="none"/><path d="M639.08 520h-.95v-.5h.95zM639.08 481h-.95v-.5h.95z" stroke="#3a414a" stroke-width=".05" fill="#3a414a"/><path d="M-160-240H80v80h-240z" stroke="#000" fill="#fff"/><use xlink:href="#h" transform="matrix(1,0,0,1,-155,-235) translate(21.651475694444443 42.56293402777778)"/><use xlink:href="#i" transform="matrix(1,0,0,1,-155,-235) translate(128.33550347222223 42.56293402777778)"/><use xlink:href="#j" transform="matrix(1,0,0,1,-155,-235) translate(155.00651041666669 42.56293402777778)"/><path d="M200-240h240v80H200z" stroke="#000" fill="#fff"/><use xlink:href="#k" transform="matrix(1,0,0,1,205,-235) translate(21.651475694444414 42.56293402777778)"/><path d="M519.5-240h240v80h-240z" stroke="#000" fill="#fff"/><use xlink:href="#l" transform="matrix(1,0,0,1,524.4996881401557,-235.00000000000023) translate(14.983723958333329 42.56293402777778)"/><use xlink:href="#i" transform="matrix(1,0,0,1,524.4996881401557,-235.00000000000023) translate(135.00325520833337 42.56293402777778)"/><use xlink:href="#m" transform="matrix(1,0,0,1,524.4996881401557,-235.00000000000023) translate(161.67426215277777 42.56293402777778)"/><path d="M-200-360h320v80h-320z" stroke="#000" fill="#fff"/><use xlink:href="#n" transform="matrix(1,0,0,1,-195,-355) translate(54.983723958333314 42.56293402777778)"/><use xlink:href="#o" transform="matrix(1,0,0,1,-195,-355) translate(175.00325520833334 42.56293402777778)"/><path d="M0-40C0-17.9-17.9 0-40 0s-40-17.9-40-40 17.9-40 40-40S0-62.1 0-40z" stroke="#000" fill="#fff"/><path d="M279-40H16.9" stroke="#3a414a" fill="none"/><path d="M279.5-40l.02.48H279v-.95h.53z" stroke="#3a414a" stroke-width=".05" fill="#3a414a"/><path d="M2.12-40l14.27-4.63v9.27z" stroke="#3a414a" fill="#3a414a"/><path d="M-40 321v68.67" stroke="#3a414a" fill="none"/><path d="M-40 320.5l.48-.02v.53h-.95v-.53z" stroke="#3a414a" stroke-width=".05" fill="#3a414a"/><path d="M-25 404.5c0 8.28-6.72 15-15 15-8.28 0-15-6.72-15-15 0-8.3 6.72-15 15-15 8.28 0 15 6.7 15 15z" stroke="#3a414a" fill="#fff"/><path d="M-40 1v238" stroke="#3a414a" fill="none"/><path d="M-40 .5l.48-.02V1h-.95V.48zM-39.52 239.53l-.47-.03-.48.02V239h.95z" stroke="#3a414a" stroke-width=".05" fill="#3a414a"/><path d="M583.12 40H-39.5" stroke="#3a414a" fill="none"/><path d="M597.88 40l-14.26 4.63v-9.27z" stroke="#3a414a" fill="#3a414a"/><path d="M-39.5 40h-.5M599 200h-2m-4 0h-3.98m-4 0h-3.98m-4 0h-3.98m-4 0h-3.98m-4 0h-3.98m-4 0h-3.98m-4 0h-3.98m-4 0h-4m-3.98 0h-4m-3.98 0h-4m-3.98 0h-4m-3.98 0h-4m-3.98 0h-4m-3.98 0h-4m-3.98 0h-4m-3.98 0h-4m-4 0h-3.98m-4 0h-3.98m-4 0h-3.98m-4 0h-3.98m-4 0h-3.98m-4 0h-3.98m-4 0h-3.98m-4 0h-4m-3.98 0h-4m-3.98 0h-4m-3.98 0h-4m-3.98 0h-4m-3.98 0h-4m-3.98 0h-4m-3.98 0h-4m-3.98 0h-4m-4 0h-3.98m-4 0h-3.98m-4 0h-3.98m-4 0h-3.98m-4 0h-3.98m-4 0h-3.98m-4 0h-3.98m-4 0h-4m-3.98 0h-4m-3.98 0h-4m-3.98 0h-4m-4 0h-3.98m-4 0h-3.98m-4 0h-4m-3.98 0h-4m-3.98 0h-4m-3.98 0h-4m-4 0h-3.98m-4 0h-3.98m-4 0h-4m-3.98 0h-4m-3.98 0h-4m-3.98 0h-4m-4 0h-3.98m-4 0h-3.98m-4 0h-4m-3.98 0h-4m-3.98 0h-4m-3.98 0h-4m-4 0h-3.98m-4 0h-3.98m-4 0h-4m-3.98 0h-4m-3.98 0h-4m-3.98 0h-4m-4 0h-3.98m-4 0h-3.98m-4 0h-4m-3.98 0h-4m-3.98 0h-4m-3.98 0h-4m-4 0H6.33m-4 0h-3.98m-4 0h-3.98m-4 0h-4m-3.98 0h-2" stroke="#3a414a" fill="none"/><path d="M599.5 200l.02.47H599v-.94h.53z" stroke="#3a414a" stroke-width=".05" fill="#3a414a"/><path d="M-38.38 200l14.26-4.64v9.27z" stroke="#3a414a" fill="#3a414a"/><path d="M263.12 280h-2m-3.96 0h-3.97m-3.98 0h-3.98m-3.97 0h-3.97m-3.97 0h-3.97m-3.97 0h-3.98m-3.98 0h-3.97m-3.97 0h-3.97m-3.97 0h-3.97m-3.98 0h-3.98m-3.97 0h-3.97m-3.97 0h-3.97m-3.97 0h-4m-3.96 0h-3.97m-3.97 0h-3.97m-3.97 0H142m-4 0h-3.96m-3.97 0h-3.97m-3.97 0h-3.97m-3.97 0h-3.98m-3.98 0h-3.97m-3.97 0h-3.97m-3.97 0H86.4m-3.98 0h-3.98m-3.97 0H70.5m-3.97 0h-3.97m-3.97 0H54.6m-3.98 0h-3.97m-3.97 0h-3.97m-3.97 0H30.8m-3.98 0h-3.98m-3.97 0H14.9m-3.97 0H6.96M3 280H1" stroke="#3a414a" fill="none"/><path d="M277.88 280l-14.26 4.63v-9.26z" stroke="#3a414a" fill="#3a414a"/><path d="M1 280.48H.48L.5 280l-.02-.48H1z" stroke="#3a414a" stroke-width=".05" fill="#3a414a"/><path d="M720 6a6 6 0 0 1 6-6h108a6 6 0 0 1 6 6v68a6 6 0 0 1-6 6H726a6 6 0 0 1-6-6z" stroke="#000" stroke-opacity="0" stroke-width="2" fill="#fff" fill-opacity="0"/><use xlink:href="#p" transform="matrix(1,0,0,1,725,5) translate(41.66449652777778 29.427083333333332)"/><use xlink:href="#q" transform="matrix(1,0,0,1,725,5) translate(14.993489583333329 52.853732638888886)"/><path d="M-240-74a6 6 0 0 1 6-6h108a6 6 0 0 1 6 6v68a6 6 0 0 1-6 6h-108a6 6 0 0 1-6-6z" stroke="#000" stroke-opacity="0" stroke-width="2" fill="#fff" fill-opacity="0"/><use xlink:href="#d" transform="matrix(1,0,0,1,-235,-75) translate(34.99674479166667 29.427083333333332)"/><use xlink:href="#r" transform="matrix(1,0,0,1,-235,-75) translate(48.33224826388889 29.427083333333332)"/><use xlink:href="#s" transform="matrix(1,0,0,1,-235,-75) translate(8.325737847222214 52.853732638888886)"/><path d="M400 246a6 6 0 0 1 6-6h108a6 6 0 0 1 6 6v68a6 6 0 0 1-6 6H406a6 6 0 0 1-6-6z" stroke="#000" stroke-opacity="0" stroke-width="2" fill="#fff" fill-opacity="0"/><use xlink:href="#p" transform="matrix(1,0,0,1,405,245) translate(41.66449652777778 29.427083333333332)"/><use xlink:href="#t" transform="matrix(1,0,0,1,405,245) translate(14.993489583333329 52.853732638888886)"/><path d="M0 280c0 22.1-17.9 40-40 40s-40-17.9-40-40 17.9-40 40-40 40 17.9 40 40z" stroke="#000" fill="#fff"/><path d="M-119.5-40H-81" stroke="#3a414a" fill="none"/><path d="M-119.5-39.52h-.5v-.95h.5zM-80.5-40l.02.48H-81v-.95h.53z" stroke="#3a414a" stroke-width=".05" fill="#3a414a"/><path d="M-119.5 280H-81" stroke="#3a414a" fill="none"/><path d="M-119.5 280.48h-.5v-.96h.5zM-80.5 280l.02.48H-81v-.96h.53z" stroke="#3a414a" stroke-width=".05" fill="#3a414a"/><path d="M399.5 280H361" stroke="#3a414a" fill="none"/><path d="M400 280.48h-.5v-.96h.5zM361 280.48h-.53l.03-.47-.02-.48h.53z" stroke="#3a414a" stroke-width=".05" fill="#3a414a"/><path d="M399.5-40H361" stroke="#3a414a" fill="none"/><path d="M400-39.52h-.5v-.95h.5zM361-39.52h-.53l.03-.47-.02-.48h.53z" stroke="#3a414a" stroke-width=".05" fill="#3a414a"/><path d="M719.5 40H681" stroke="#3a414a" fill="none"/><path d="M720 40.48h-.5v-.95h.5zM681 40.48h-.53l.03-.47-.02-.48h.53z" stroke="#3a414a" stroke-width=".05" fill="#3a414a"/><path d="M719.5 200H681" stroke="#3a414a" fill="none"/><path d="M720 200.47h-.5v-.94h.5zM681 200.47h-.53l.03-.46-.02-.47h.53z" stroke="#3a414a" stroke-width=".05" fill="#3a414a"/><defs><path d="M839-1335c-182-6-269 67-259 253h491v142H580V0H400v-940H138v-142h262c-15-293 132-408 418-402 94 2 200 7 281 21v145c-75-10-177-14-260-17" id="u"/><path d="M148-1120c216-7 379-89 463-229h166v1204h353V0H157v-145h439v-1021c-79 124-254 184-448 194v-148" id="v"/><g id="a"><use transform="matrix(0.010850694444444444,0,0,0.010850694444444444,0,0)" xlink:href="#u"/><use transform="matrix(0.010850694444444444,0,0,0.010850694444444444,13.335503472222221,0)" xlink:href="#v"/></g><path d="M839-1102c70 0 148 7 206 17v167c-112-18-268-36-363 15-129 69-208 203-208 395V0H294c-10-367 32-789-52-1082h171c21 75 41 161 48 250h5c67-152 152-270 373-270" id="w"/><path d="M617-1102c355 0 481 238 477 599H322c5 222 84 388 301 388 144 0 244-59 284-166l158 45C1002-72 854 20 623 20c-342 0-490-220-490-568 0-346 151-554 484-554zm291 461c-18-192-90-328-289-328-194 0-287 128-295 328h584" id="x"/><path d="M682 16c-209 0-323-80-324-285v-671H190v-142h170l58-282h120v282h432v142H538v652c2 114 60 155 182 155 106 0 209-16 297-34v137C921-4 806 16 682 16" id="y"/><path d="M528 20c-247 0-343-132-343-381v-721h180v686c-4 177 45 284 224 277 194-8 279-136 279-336v-627h181c3 360-6 732 6 1082H885c-4-54-7-126-8-185h-3C809-64 714 20 528 20" id="z"/><path d="M706-1102c241 0 344 136 343 381V0H868v-695c1-168-57-273-220-268-190 6-283 138-283 336V0H185c-3-360 6-732-6-1082h170c4 54 7 126 8 185h3c63-121 164-204 346-205" id="A"/><path d="M873-819c-18-114-119-146-250-146-163 0-245 50-245 151 0 151 170 148 294 185 182 54 388 94 388 320 0 240-189 325-439 329-245 4-410-69-454-268l159-31c24 133 136 168 295 165 144-2 270-31 270-171 0-164-195-160-331-202-167-52-350-87-350-299 0-218 173-315 413-313 220 2 373 77 412 260" id="B"/><g id="b"><use transform="matrix(0.010850694444444444,0,0,0.010850694444444444,0,0)" xlink:href="#w"/><use transform="matrix(0.010850694444444444,0,0,0.010850694444444444,13.335503472222221,0)" xlink:href="#x"/><use transform="matrix(0.010850694444444444,0,0,0.010850694444444444,26.671006944444443,0)" xlink:href="#y"/><use transform="matrix(0.010850694444444444,0,0,0.010850694444444444,40.006510416666664,0)" xlink:href="#z"/><use transform="matrix(0.010850694444444444,0,0,0.010850694444444444,53.342013888888886,0)" xlink:href="#w"/><use transform="matrix(0.010850694444444444,0,0,0.010850694444444444,66.67751736111111,0)" xlink:href="#A"/><use transform="matrix(0.010850694444444444,0,0,0.010850694444444444,80.01302083333334,0)" xlink:href="#B"/></g><path d="M745-142h380V0H143v-142h422v-798H246v-142h499v940zM545-1292v-192h200v192H545" id="C"/><path d="M715 0H502L69-1082h202c94 253 197 500 285 758 19 57 36 126 52 183 96-335 234-626 350-941h201" id="D"/><path d="M615-1102c343 0 484 203 482 560-1 347-147 562-488 562-336 0-475-219-479-562-4-349 156-560 485-560zm-8 989c240 0 301-180 301-429 0-245-55-427-290-427-236 0-299 181-299 427 0 243 61 429 288 429" id="E"/><path d="M914 0L548-499l-132 98V0H236v-1484h180v927l475-525h211L663-617 1125 0H914" id="F"/><path d="M865-914c-3-187-2-380-2-570h180v1261c0 76 1 155 6 223H877c-8-49-9-116-10-174h-5C801-44 708 26 530 26c-135 0-234-46-297-139s-95-232-95-419c0-377 131-566 392-566 176 0 271 63 335 184zm-286-51c-222 0-255 197-255 427 0 229 31 425 253 425 237 0 286-195 286-441 0-238-52-411-284-411" id="G"/><g id="c"><use transform="matrix(0.010850694444444444,0,0,0.010850694444444444,0,0)" xlink:href="#C"/><use transform="matrix(0.010850694444444444,0,0,0.010850694444444444,13.335503472222221,0)" xlink:href="#A"/><use transform="matrix(0.010850694444444444,0,0,0.010850694444444444,26.671006944444443,0)" xlink:href="#D"/><use transform="matrix(0.010850694444444444,0,0,0.010850694444444444,40.006510416666664,0)" xlink:href="#E"/><use transform="matrix(0.010850694444444444,0,0,0.010850694444444444,53.342013888888886,0)" xlink:href="#F"/><use transform="matrix(0.010850694444444444,0,0,0.010850694444444444,66.67751736111111,0)" xlink:href="#x"/><use transform="matrix(0.010850694444444444,0,0,0.010850694444444444,80.01302083333334,0)" xlink:href="#G"/></g><path d="M698-1104c312 3 392 244 392 558 0 315-82 566-392 566-169 0-277-65-331-184h-5c8 188 2 394 4 589H185V-858c0-76-1-156-6-224h175c6 52 9 120 10 178h4c58-122 150-202 330-200zm-49 991c225 0 255-203 255-433 0-225-32-419-253-419-236 0-285 192-285 441 0 237 53 411 283 411" id="H"/><g id="e"><use transform="matrix(0.010850694444444444,0,0,0.010850694444444444,0,0)" xlink:href="#H"/><use transform="matrix(0.010850694444444444,0,0,0.010850694444444444,13.335503472222221,0)" xlink:href="#v"/></g><path d="M736-142h380V0H134v-142h422v-1200H267v-142h469v1342" id="I"/><g id="f"><use transform="matrix(0.010850694444444444,0,0,0.010850694444444444,0,0)" xlink:href="#w"/><use transform="matrix(0.010850694444444444,0,0,0.010850694444444444,13.335503472222221,0)" xlink:href="#x"/><use transform="matrix(0.010850694444444444,0,0,0.010850694444444444,26.671006944444443,0)" xlink:href="#B"/><use transform="matrix(0.010850694444444444,0,0,0.010850694444444444,40.006510416666664,0)" xlink:href="#E"/><use transform="matrix(0.010850694444444444,0,0,0.010850694444444444,53.342013888888886,0)" xlink:href="#I"/><use transform="matrix(0.010850694444444444,0,0,0.010850694444444444,66.67751736111111,0)" xlink:href="#D"/><use transform="matrix(0.010850694444444444,0,0,0.010850694444444444,80.01302083333334,0)" xlink:href="#x"/><use transform="matrix(0.010850694444444444,0,0,0.010850694444444444,93.34852430555557,0)" xlink:href="#G"/></g><path d="M631 20c-350 0-501-215-501-562 0-355 162-560 502-560 250 0 399 118 446 323l-192 14c-23-124-109-196-262-196-242 0-305 171-305 415 1 245 61 427 304 427 151 0 248-77 267-215l190 12C1039-107 883 20 631 20" id="J"/><g id="g"><use transform="matrix(0.010850694444444444,0,0,0.010850694444444444,0,0)" xlink:href="#H"/><use transform="matrix(0.010850694444444444,0,0,0.010850694444444444,13.335503472222221,0)" xlink:href="#w"/><use transform="matrix(0.010850694444444444,0,0,0.010850694444444444,26.671006944444443,0)" xlink:href="#E"/><use transform="matrix(0.010850694444444444,0,0,0.010850694444444444,40.006510416666664,0)" xlink:href="#J"/><use transform="matrix(0.010850694444444444,0,0,0.010850694444444444,53.342013888888886,0)" xlink:href="#x"/><use transform="matrix(0.010850694444444444,0,0,0.010850694444444444,66.67751736111111,0)" xlink:href="#B"/><use transform="matrix(0.010850694444444444,0,0,0.010850694444444444,80.01302083333334,0)" xlink:href="#B"/></g><path d="M427-171c3 195 2 397 2 596H148V-846c1-83-4-168-8-236h272c10 49 14 118 15 176h4c59-114 151-197 316-197 291 0 385 259 385 560 0 243-65 433-220 521-50 28-109 42-176 42-162-2-253-78-309-191zm69-661c-91 113-92 463-1 586 46 62 145 101 225 54 96-57 118-191 119-351 0-123-18-215-53-276-46-82-128-115-220-74-25 12-48 33-70 61" id="K"/><path d="M875-1102c70 0 148 7 206 17v237c-110-17-267-37-359 15-123 69-192 207-192 395V0H250c-10-367 32-789-52-1082h271c19 69 36 149 46 228h4c52-151 151-250 356-248" id="L"/><path d="M616-1102c361 0 521 202 521 560 0 354-171 562-527 562C259 20 92-192 92-542c0-351 169-560 524-560zm-9 930c200-2 236-165 236-370 0-199-27-367-223-367-195 0-233 146-233 367 0 129 18 223 55 282s92 88 165 88" id="M"/><path d="M934-1102c199 0 220 177 220 381V0H926c-2-260 10-533-4-785-4-72-14-138-83-138-34 0-61 27-81 81s-29 134-29 241V0H501c-2-260 9-533-5-785-4-72-13-138-82-138-46 0-65 47-80 93-21 67-30 155-30 248V0H75c-3-360 6-732-6-1082h209c6 50 3 123 8 175 36-100 83-195 216-195 135 0 166 79 196 196 42-105 93-196 236-196" id="N"/><path d="M794-190h353V0H118v-190h395v-702H223v-190h571v892zM513-1277v-207h281v207H513" id="O"/><path d="M622-916c-112 2-200 14-200 111 0 90 89 101 168 121 234 58 514 77 514 368C1104-4 751 54 434 5 267-21 161-112 121-270l247-37c24 111 113 145 252 141 114-3 226-12 226-124 0-101-103-113-192-134-225-54-490-76-490-351 0-247 201-328 458-328 245 0 413 88 457 292l-249 26c-16-98-92-133-208-131" id="P"/><path d="M1113-274C1038-96 884 20 626 20c-352 0-526-209-526-566 0-358 185-556 530-556 358 0 496 251 499 615H395c5 180 68 319 245 319 102 0 186-45 208-129zM857-663c-6-177-128-307-315-247-94 30-141 121-145 247h460" id="Q"/><g id="h"><use transform="matrix(0.010850694444444444,0,0,0.010850694444444444,0,0)" xlink:href="#K"/><use transform="matrix(0.010850694444444444,0,0,0.010850694444444444,13.335503472222221,0)" xlink:href="#L"/><use transform="matrix(0.010850694444444444,0,0,0.010850694444444444,26.671006944444443,0)" xlink:href="#M"/><use transform="matrix(0.010850694444444444,0,0,0.010850694444444444,40.006510416666664,0)" xlink:href="#N"/><use transform="matrix(0.010850694444444444,0,0,0.010850694444444444,53.342013888888886,0)" xlink:href="#O"/><use transform="matrix(0.010850694444444444,0,0,0.010850694444444444,66.67751736111111,0)" xlink:href="#P"/><use transform="matrix(0.010850694444444444,0,0,0.010850694444444444,80.01302083333334,0)" xlink:href="#Q"/></g><path d="M138-1120c207-4 339-93 415-229h266v1140h323V0H149v-209h389v-891c-70 121-216 187-400 194v-214" id="R"/><use transform="matrix(0.010850694444444444,0,0,0.010850694444444444,0,0)" xlink:href="#R" id="i"/><path d="M621-530c0 421 127 700 301 955H641C466 173 344-110 344-531s122-702 297-953h281c-174 254-301 534-301 954" id="S"/><path d="M885-531c0 421-122 704-297 956H307c174-255 301-534 301-955 0-420-127-700-301-954h281c175 251 297 532 297 953" id="T"/><g id="j"><use transform="matrix(0.010850694444444444,0,0,0.010850694444444444,0,0)" xlink:href="#S"/><use transform="matrix(0.010850694444444444,0,0,0.010850694444444444,13.335503472222221,0)" xlink:href="#K"/><use transform="matrix(0.010850694444444444,0,0,0.010850694444444444,26.671006944444443,0)" xlink:href="#R"/><use transform="matrix(0.010850694444444444,0,0,0.010850694444444444,40.006510416666664,0)" xlink:href="#T"/></g><path d="M768-1103c247 0 336 167 336 416V0H824v-619c-3-164-24-273-171-273-164 0-229 142-229 312V0H143c-4-359 9-736-8-1082h268c7 63 12 146 13 215h4c67-145 160-236 348-236" id="U"/><path d="M775-193C708-75 621 20 439 20 226 20 106-93 106-306c0-251 170-341 417-346l223-4c4-143-12-264-148-264-103 0-141 58-150 153l-293-14c37-219 194-321 455-321 263 0 418 130 417 390v392c1 84 5 161 89 160 21 0 42-2 62-6v152c-57 15-108 27-180 26-145 0-202-73-217-205h-6zm-256 17c168 0 234-139 227-325-166 4-347-25-347 173 0 94 33 152 120 152" id="V"/><path d="M711 13c-250 0-386-99-385-349l2-556H161v-190h181l88-282h176v282h385v190H606v530c-10 130 45 186 174 184 91-2 176-11 255-27v186C933-1 833 13 711 13" id="W"/><path d="M470 0v-305h289V0H470" id="X"/><path d="M471 20c-247 0-336-169-336-415v-687h281v607c4 148 31 285 172 285 152 0 207-150 207-312v-580h281c4 359-9 736 8 1082H816c-7-63-11-146-12-215h-5C736-76 644 20 471 20" id="Y"/><g id="k"><use transform="matrix(0.010850694444444444,0,0,0.010850694444444444,0,0)" xlink:href="#L"/><use transform="matrix(0.010850694444444444,0,0,0.010850694444444444,13.335503472222221,0)" xlink:href="#Q"/><use transform="matrix(0.010850694444444444,0,0,0.010850694444444444,26.671006944444443,0)" xlink:href="#P"/><use transform="matrix(0.010850694444444444,0,0,0.010850694444444444,40.006510416666664,0)" xlink:href="#M"/><use transform="matrix(0.010850694444444444,0,0,0.010850694444444444,53.342013888888886,0)" xlink:href="#U"/><use transform="matrix(0.010850694444444444,0,0,0.010850694444444444,66.67751736111111,0)" xlink:href="#V"/><use transform="matrix(0.010850694444444444,0,0,0.010850694444444444,80.01302083333334,0)" xlink:href="#W"/><use transform="matrix(0.010850694444444444,0,0,0.010850694444444444,93.34852430555557,0)" xlink:href="#Q"/><use transform="matrix(0.010850694444444444,0,0,0.010850694444444444,106.6840277777778,0)" xlink:href="#X"/><use transform="matrix(0.010850694444444444,0,0,0.010850694444444444,120.01953125000003,0)" xlink:href="#L"/><use transform="matrix(0.010850694444444444,0,0,0.010850694444444444,133.35503472222226,0)" xlink:href="#Y"/><use transform="matrix(0.010850694444444444,0,0,0.010850694444444444,146.69053819444449,0)" xlink:href="#U"/><use transform="matrix(0.010850694444444444,0,0,0.010850694444444444,160.0260416666667,0)" xlink:href="#S"/><use transform="matrix(0.010850694444444444,0,0,0.010850694444444444,173.36154513888894,0)" xlink:href="#T"/></g><path d="M844-1321c-130 0-195 53-191 182v57h443v190H653V0H373v-892H117v-190h256v-83c5-247 162-348 422-349 120-1 232 13 327 28v184c-84-10-183-19-278-19" id="Z"/><path d="M1109-360C1066-122 902 20 624 20c-347 0-514-209-514-555 0-353 168-567 518-567 270 0 425 136 473 361l-283 14c-16-106-75-183-196-182-75 0-130 31-165 93s-52 152-52 270c0 249 74 374 221 374 120 0 188-82 201-201" id="aa"/><g id="l"><use transform="matrix(0.010850694444444444,0,0,0.010850694444444444,0,0)" xlink:href="#Z"/><use transform="matrix(0.010850694444444444,0,0,0.010850694444444444,13.335503472222221,0)" xlink:href="#Y"/><use transform="matrix(0.010850694444444444,0,0,0.010850694444444444,26.671006944444443,0)" xlink:href="#U"/><use transform="matrix(0.010850694444444444,0,0,0.010850694444444444,40.006510416666664,0)" xlink:href="#aa"/><use transform="matrix(0.010850694444444444,0,0,0.010850694444444444,53.342013888888886,0)" xlink:href="#W"/><use transform="matrix(0.010850694444444444,0,0,0.010850694444444444,66.67751736111111,0)" xlink:href="#O"/><use transform="matrix(0.010850694444444444,0,0,0.010850694444444444,80.01302083333334,0)" xlink:href="#M"/><use transform="matrix(0.010850694444444444,0,0,0.010850694444444444,93.34852430555557,0)" xlink:href="#U"/></g><g id="m"><use transform="matrix(0.010850694444444444,0,0,0.010850694444444444,0,0)" xlink:href="#S"/><use transform="matrix(0.010850694444444444,0,0,0.010850694444444444,13.335503472222221,0)" xlink:href="#Z"/><use transform="matrix(0.010850694444444444,0,0,0.010850694444444444,26.671006944444443,0)" xlink:href="#R"/><use transform="matrix(0.010850694444444444,0,0,0.010850694444444444,40.006510416666664,0)" xlink:href="#T"/></g><path d="M1157-949c0 209-118 316-279 368L1227 0H895L605-515H432V0H137v-1349h494c317-2 526 111 526 400zM608-744c158 1 248-51 252-193 5-207-223-184-428-183v376h176" id="ab"/><g id="n"><use transform="matrix(0.010850694444444444,0,0,0.010850694444444444,0,0)" xlink:href="#ab"/><use transform="matrix(0.010850694444444444,0,0,0.010850694444444444,13.335503472222221,0)" xlink:href="#Q"/><use transform="matrix(0.010850694444444444,0,0,0.010850694444444444,26.671006944444443,0)" xlink:href="#P"/><use transform="matrix(0.010850694444444444,0,0,0.010850694444444444,40.006510416666664,0)" xlink:href="#M"/><use transform="matrix(0.010850694444444444,0,0,0.010850694444444444,53.342013888888886,0)" xlink:href="#U"/><use transform="matrix(0.010850694444444444,0,0,0.010850694444444444,66.67751736111111,0)" xlink:href="#V"/><use transform="matrix(0.010850694444444444,0,0,0.010850694444444444,80.01302083333334,0)" xlink:href="#W"/><use transform="matrix(0.010850694444444444,0,0,0.010850694444444444,93.34852430555557,0)" xlink:href="#Q"/></g><path d="M609-1161c-125 0-218 36-218 153 0 149 166 161 290 196 235 67 484 129 484 421 0 300-239 408-554 411C302 23 93-114 38-367l285-37c32 128 131 205 296 203 143-2 259-31 259-173 0-164-197-172-333-212-218-64-441-131-441-405 0-276 231-379 511-379 299 0 463 114 513 363l-286 29c-28-115-96-183-233-183" id="ac"/><path d="M774 0H438L31-1082h297c94 290 200 568 280 872 83-304 194-581 291-872h294" id="ad"/><g id="o"><use transform="matrix(0.010850694444444444,0,0,0.010850694444444444,0,0)" xlink:href="#ac"/><use transform="matrix(0.010850694444444444,0,0,0.010850694444444444,13.335503472222221,0)" xlink:href="#Q"/><use transform="matrix(0.010850694444444444,0,0,0.010850694444444444,26.671006944444443,0)" xlink:href="#L"/><use transform="matrix(0.010850694444444444,0,0,0.010850694444444444,40.006510416666664,0)" xlink:href="#ad"/><use transform="matrix(0.010850694444444444,0,0,0.010850694444444444,53.342013888888886,0)" xlink:href="#Q"/><use transform="matrix(0.010850694444444444,0,0,0.010850694444444444,66.67751736111111,0)" xlink:href="#L"/></g><g id="p"><use transform="matrix(0.010850694444444444,0,0,0.010850694444444444,0,0)" xlink:href="#u"/><use transform="matrix(0.010850694444444444,0,0,0.010850694444444444,13.335503472222221,0)" xlink:href="#v"/></g><path d="M1000-272c3 95 12 159 101 161 21 0 41-3 59-7V-6c-44 10-86 16-139 16-141 2-191-84-197-217h-6C748-76 648 20 446 20c-207 0-318-120-318-322 0-266 194-348 454-354l236-4c12-191-40-305-222-305-140 0-220 47-232 172l-188-17c33-204 181-292 423-292 255 0 401 118 401 364v466zm-683-27c0 109 63 184 175 182 166-3 259-96 306-217 24-65 20-120 20-200-232 7-501-28-501 235" id="ae"/><g id="q"><use transform="matrix(0.010850694444444444,0,0,0.010850694444444444,0,0)" xlink:href="#B"/><use transform="matrix(0.010850694444444444,0,0,0.010850694444444444,13.335503472222221,0)" xlink:href="#y"/><use transform="matrix(0.010850694444444444,0,0,0.010850694444444444,26.671006944444443,0)" xlink:href="#ae"/><use transform="matrix(0.010850694444444444,0,0,0.010850694444444444,40.006510416666664,0)" xlink:href="#w"/><use transform="matrix(0.010850694444444444,0,0,0.010850694444444444,53.342013888888886,0)" xlink:href="#y"/><use transform="matrix(0.010850694444444444,0,0,0.010850694444444444,66.67751736111111,0)" xlink:href="#B"/></g><g id="r"><use transform="matrix(0.010850694444444444,0,0,0.010850694444444444,0,0)" xlink:href="#H"/><use transform="matrix(0.010850694444444444,0,0,0.010850694444444444,13.335503472222221,0)" xlink:href="#v"/></g><g id="s"><use transform="matrix(0.010850694444444444,0,0,0.010850694444444444,0,0)" xlink:href="#J"/><use transform="matrix(0.010850694444444444,0,0,0.010850694444444444,13.335503472222221,0)" xlink:href="#w"/><use transform="matrix(0.010850694444444444,0,0,0.010850694444444444,26.671006944444443,0)" xlink:href="#x"/><use transform="matrix(0.010850694444444444,0,0,0.010850694444444444,40.006510416666664,0)" xlink:href="#ae"/><use transform="matrix(0.010850694444444444,0,0,0.010850694444444444,53.342013888888886,0)" xlink:href="#y"/><use transform="matrix(0.010850694444444444,0,0,0.010850694444444444,66.67751736111111,0)" xlink:href="#x"/><use transform="matrix(0.010850694444444444,0,0,0.010850694444444444,80.01302083333334,0)" xlink:href="#G"/></g><g id="t"><use transform="matrix(0.010850694444444444,0,0,0.010850694444444444,0,0)" xlink:href="#w"/><use transform="matrix(0.010850694444444444,0,0,0.010850694444444444,13.335503472222221,0)" xlink:href="#x"/><use transform="matrix(0.010850694444444444,0,0,0.010850694444444444,26.671006944444443,0)" xlink:href="#B"/><use transform="matrix(0.010850694444444444,0,0,0.010850694444444444,40.006510416666664,0)" xlink:href="#z"/><use transform="matrix(0.010850694444444444,0,0,0.010850694444444444,53.342013888888886,0)" xlink:href="#I"/><use transform="matrix(0.010850694444444444,0,0,0.010850694444444444,66.67751736111111,0)" xlink:href="#y"/></g></defs></g></svg>