<svg xmlns="http://www.w3.org/2000/svg" xmlns:xlink="http://www.w3.org/1999/xlink" xmlns:lucid="lucid" width="2122" height="1202"><g transform="translate(-659 -59)" lucid:page-tab-id="0_0"><path d="M500 0h2500v1500H500z" fill="#fff"/><path d="M680 86a6 6 0 0 1 6-6h2068a6 6 0 0 1 6 6v1148a6 6 0 0 1-6 6H686a6 6 0 0 1-6-6z" stroke="#000" stroke-opacity="0" stroke-width="2" fill="#fff"/><path d="M860 146a6 6 0 0 1 6-6h668a6 6 0 0 1 6 6v188a6 6 0 0 1-6 6H866a6 6 0 0 1-6-6z" fill-opacity="0"/><path d="M863.7 140.47l.45-.18.9-.23.95-.07h2m3.96 0h3.98m3.98 0h3.97m3.97 0h3.98m3.97 0h3.98m3.97 0h3.98m3.98 0h3.97m3.98 0h3.98m3.97 0h3.98m3.98 0h3.98m3.98 0h3.97m4 0h3.96m3.98 0h3.98m3.97 0h3.97m3.98 0h3.97m3.98 0h3.97m3.98 0h3.98m3.97 0h3.98m3.98 0h3.97m3.98 0h3.98m3.98 0h3.98m3.97 0h4m3.96 0h3.98m3.98 0h3.97m3.97 0h3.98m3.97 0h3.98m3.97 0h3.98m3.98 0h3.97m3.98 0h3.97m3.98 0h3.98m3.98 0h3.98m3.98 0h3.97m4 0h3.96m3.98 0h3.98m3.97 0h3.97m3.98 0h3.97m3.98 0h3.97m3.98 0h3.98m3.97 0h3.98m3.97 0h3.98m3.98 0h3.98m3.98 0h3.98m3.97 0h4m3.96 0h3.98m3.98 0h3.97m3.97 0h3.98m3.97 0h3.98m3.97 0h3.98m3.98 0h3.97m3.98 0h3.97m3.98 0h3.98m3.98 0h3.98m3.98 0h3.97m4 0h3.96m3.98 0h3.98m3.97 0h3.97m3.98 0h3.97m3.98 0h3.97m3.98 0h3.98m3.97 0h3.98m3.97 0h3.98m3.98 0h3.98m3.98 0h3.98m3.97 0h4m3.96 0h3.98m3.98 0h3.97m3.97 0h3.98m3.97 0h3.98m3.97 0h3.98m3.98 0h3.97m3.98 0h3.97m3.98 0h3.98m3.98 0h3.98m3.98 0h3.97m4 0h3.96m3.98 0h3.98m3.97 0h3.97m3.98 0h3.97m3.98 0h3.97m3.98 0h3.98m3.97 0h3.98m3.97 0h3.98m3.98 0h3.98m3.98 0h3.98m3.97 0h2l.94.07.9.22.45.17m3.23 3.24l.18.45.23.9.07.95v1.96m0 3.9v3.93m0 3.9v3.93m0 3.9v3.93m0 3.9v3.93m0 3.9v3.93m0 3.9v3.93m0 3.9v3.93m0 3.9v3.93m0 3.9v3.93m0 3.9v3.93m0 3.9v3.93m0 3.9v3.93m0 3.9v3.93m0 3.9v3.93m0 3.9v3.93m0 3.92v3.9m0 3.93v3.93m0 3.9v3.93m0 3.92v3.9m0 3.93v3.93m0 3.9v3.93m0 3.92v3.9m0 3.93v3.93m0 3.9V334l-.07.94-.22.9-.17.45m-3.24 3.23l-.45.18-.9.23-.95.07h-2m-3.96 0h-3.98m-3.98 0h-3.97m-3.97 0h-3.98m-3.97 0h-3.98m-3.97 0h-3.98m-3.98 0h-3.97m-3.98 0h-3.97m-3.98 0h-3.98m-3.98 0h-3.98m-3.98 0h-3.97m-4 0h-3.96m-3.98 0h-3.98m-3.97 0h-3.97m-3.98 0h-3.97m-3.98 0h-3.97m-3.98 0h-3.98m-3.97 0h-3.98m-3.97 0h-3.98m-3.98 0h-3.98m-3.98 0h-3.98m-3.97 0h-4m-3.96 0h-3.98m-3.98 0h-3.97m-3.97 0h-3.98m-3.97 0h-3.98m-3.97 0h-3.98m-3.98 0h-3.97m-3.98 0h-3.97m-3.98 0h-3.98m-3.98 0h-3.98m-3.98 0h-3.97m-4 0h-3.96m-3.98 0h-3.98m-3.97 0h-3.97m-3.98 0h-3.97m-3.98 0h-3.97m-3.98 0h-3.98m-3.97 0h-3.98m-3.97 0h-3.98m-3.98 0h-3.98m-3.98 0h-3.98m-3.97 0h-4m-3.96 0h-3.98m-3.98 0h-3.97m-3.97 0h-3.98m-3.97 0h-3.98m-3.97 0h-3.98m-3.98 0h-3.97m-3.98 0h-3.97m-3.98 0h-3.98m-3.98 0h-3.98m-3.98 0h-3.97m-4 0h-3.96m-3.98 0h-3.98m-3.97 0h-3.97m-3.98 0h-3.97m-3.98 0h-3.97m-3.98 0h-3.98m-3.97 0h-3.98m-3.97 0h-3.98m-3.98 0h-3.98m-3.98 0h-3.98m-3.97 0h-4m-3.96 0h-3.98m-3.98 0h-3.97m-3.97 0h-3.98m-3.97 0h-3.98m-3.97 0h-3.98m-3.98 0h-3.97m-3.98 0h-3.98m-3.97 0h-3.98m-3.98 0h-3.98m-3.98 0h-3.97m-4 0h-3.96m-3.98 0h-3.98m-3.97 0h-3.97m-3.98 0h-3.97m-3.98 0h-3.97m-3.98 0h-3.98m-3.97 0h-3.98m-3.98 0h-3.97m-3.98 0h-3.98m-3.98 0h-3.98m-3.97 0h-2l-.94-.07-.9-.22-.45-.17m-3.23-3.24l-.18-.45-.23-.9-.07-.95v-1.96m0-3.92v-3.9m0-3.93v-3.93m0-3.9v-3.93m0-3.92v-3.9m0-3.93v-3.93m0-3.9v-3.93m0-3.92v-3.9m0-3.93v-3.93m0-3.9v-3.93m0-3.92v-3.9m0-3.93v-3.93m0-3.9v-3.93m0-3.9v-3.93m0-3.9v-3.93m0-3.9v-3.93m0-3.9v-3.93m0-3.9v-3.93m0-3.9v-3.93m0-3.9v-3.93m0-3.9v-3.93m0-3.9v-3.93m0-3.9v-3.93m0-3.9v-3.93m0-3.9V146l.07-.94.22-.9.17-.45" stroke="#282c33" fill="none"/><path d="M840 124.1a6 6 0 0 1 6-6h708a6 6 0 0 1 6 6V634a6 6 0 0 1-6 6H846a6 6 0 0 1-6-6z" stroke="#282c33" fill="#f2f3f5"/><use xlink:href="#a" transform="matrix(1,0,0,1,845,123.09573643410852) translate(256.74153645833337 263.7521701388889)"/><use xlink:href="#b" transform="matrix(1,0,0,1,845,123.09573643410852) translate(378.51888020833337 263.7521701388889)"/><use xlink:href="#c" transform="matrix(1,0,0,1,845,123.09573643410852) translate(440.55230034722223 263.7521701388889)"/><path d="M880 166a6 6 0 0 1 6-6h148a6 6 0 0 1 6 6v148a6 6 0 0 1-6 6H886a6 6 0 0 1-6-6z" stroke="#000" fill="#fff"/><use xlink:href="#d" transform="matrix(1,0,0,1,885,165.00000000000003) translate(24.61480034722222 65.93967013888889)"/><use xlink:href="#e" transform="matrix(1,0,0,1,885,165.00000000000003) translate(60.004943094135804 96.20225694444444)"/><use xlink:href="#f" transform="matrix(1,0,0,1,885,165.00000000000003) translate(77.28889371141975 96.20225694444444)"/><path d="M1360 166a6 6 0 0 1 6-6h148a6 6 0 0 1 6 6v148a6 6 0 0 1-6 6h-148a6 6 0 0 1-6-6z" stroke="#000" fill="#fff"/><use xlink:href="#g" transform="matrix(1,0,0,1,1365,165.00000000000003) translate(24.61480034722222 65.93967013888889)"/><use xlink:href="#h" transform="matrix(1,0,0,1,1365,165.00000000000003) translate(59.5383632330247 96.20225694444444)"/><use xlink:href="#i" transform="matrix(1,0,0,1,1365,165.00000000000003) translate(76.82231385030865 96.20225694444444)"/><path d="M1140 238.67c0 11.04-8.95 20-20 20s-20-8.96-20-20c0-11.05 8.95-20 20-20s20 8.95 20 20zM1220 240c0 11.05-8.95 20-20 20s-20-8.95-20-20 8.95-20 20-20 20 8.95 20 20zM1300 240c0 11.05-8.95 20-20 20s-20-8.95-20-20 8.95-20 20-20 20 8.95 20 20z" stroke="#000"/><path d="M880 446a6 6 0 0 1 6-6h628a6 6 0 0 1 6 6v148a6 6 0 0 1-6 6H886a6 6 0 0 1-6-6z" stroke="#000" fill="#fff"/><use xlink:href="#j" transform="matrix(1,0,0,1,885,445) translate(242.82660590277777 84.68967013888889)"/><use xlink:href="#k" transform="matrix(1,0,0,1,885,445) translate(345.13780381944446 84.68967013888889)"/><path d="M960 357.3V321" stroke="#3a414a" fill="none"/><path d="M960.48 357.85l-.44-.06-.5.02v-.54h.94zM960.48 321h-.96v-.5h.96z" stroke="#3a414a" stroke-width=".05" fill="#3a414a"/><path d="M960 439v-38.2" stroke="#3a414a" fill="none"/><path d="M960.48 439.5h-.96v-.5h.96zM959.96 400.3l.5-.02v.53h-.94v-.55z" stroke="#3a414a" stroke-width=".05" fill="#3a414a"/><path d="M1440 321v18.5a.13.13 0 0 0 .13.12.13.13 0 0 1 .12.13v18.5" stroke="#3a414a" fill="none"/><path d="M1440.47 321h-.94v-.5h.94zM1440.72 358.8l-.43-.05-.52.02v-.53h.94z" stroke="#3a414a" stroke-width=".05" fill="#3a414a"/><path d="M980.25 379.05c0 11.18-9.07 20.25-20.25 20.25s-20.25-9.07-20.25-20.25c0-11.2 9.07-20.25 20.25-20.25s20.25 9.06 20.25 20.25zM1460.5 380c0 11.18-9.07 20.25-20.25 20.25S1420 391.18 1420 380s9.07-20.25 20.25-20.25 20.25 9.07 20.25 20.25z" stroke="#282c33" stroke-width="2" fill="#fff"/><path d="M1440.25 401.75V439" stroke="#3a414a" fill="none"/><path d="M1440.2 401.25l.52-.02v.53h-.94v-.56zM1440.72 439.5h-.94v-.5h.94z" stroke="#3a414a" stroke-width=".05" fill="#3a414a"/><path d="M840 766a6 6 0 0 1 6-6h1748a6 6 0 0 1 6 6v428a6 6 0 0 1-6 6H846a6 6 0 0 1-6-6z" stroke="#282c33" fill="#f2f3f5"/><path d="M880 806a6 6 0 0 1 6-6h1668a6 6 0 0 1 6 6v148a6 6 0 0 1-6 6H886a6 6 0 0 1-6-6z" stroke="#000" fill="#fff"/><use xlink:href="#j" transform="matrix(1,0,0,1,885,805) translate(751.1412760416666 84.68967013888889)"/><use xlink:href="#l" transform="matrix(1,0,0,1,885,805) translate(853.4524739583333 84.68967013888889)"/><path d="M880 1006a6 6 0 0 1 6-6h148a6 6 0 0 1 6 6v148a6 6 0 0 1-6 6H886a6 6 0 0 1-6-6z" stroke="#000" fill="#fff"/><use xlink:href="#m" transform="matrix(1,0,0,1,885,1005) translate(32.60633680555555 70.62717013888889)"/><use xlink:href="#n" transform="matrix(1,0,0,1,885,1005) translate(58.53949652777778 100.88975694444444)"/><use xlink:href="#c" transform="matrix(1,0,0,1,885,1005) translate(78.75434027777777 100.88975694444444)"/><path d="M1360 1006a6 6 0 0 1 6-6h148a6 6 0 0 1 6 6v148a6 6 0 0 1-6 6h-148a6 6 0 0 1-6-6z" stroke="#000" fill="#fff"/><use xlink:href="#m" transform="matrix(1,0,0,1,1365,1005) translate(32.60633680555555 70.62717013888889)"/><use xlink:href="#n" transform="matrix(1,0,0,1,1365,1005) translate(58.07291666666667 100.88975694444444)"/><use xlink:href="#o" transform="matrix(1,0,0,1,1365,1005) translate(78.28776041666667 100.88975694444444)"/><path d="M1140 1079.33c0 11.05-8.95 20-20 20s-20-8.95-20-20c0-11.04 8.95-20 20-20s20 8.96 20 20zM1220 1080.67c0 11.04-8.95 20-20 20s-20-8.96-20-20c0-11.05 8.95-20 20-20s20 8.95 20 20zM1300 1080.67c0 11.04-8.95 20-20 20s-20-8.96-20-20c0-11.05 8.95-20 20-20s20 8.95 20 20z" stroke="#000"/><path d="M1200.25 678.25v-38.5a.13.13 0 0 0-.13-.13.13.13 0 0 1-.12-.12V601" stroke="#3a414a" fill="none"/><path d="M1200.72 678.8l-.43-.05-.52.02v-.53h.94zM1200.47 601h-.94v-.5h.94z" stroke="#3a414a" stroke-width=".05" fill="#3a414a"/><path d="M1200.25 799v-77.25" stroke="#3a414a" fill="none"/><path d="M1200.72 799.5h-.94v-.5h.94zM1200.2 721.25l.52-.02v.53h-.94v-.56z" stroke="#3a414a" stroke-width=".05" fill="#3a414a"/><path d="M1220.5 700c0 11.18-9.07 20.25-20.25 20.25S1180 711.18 1180 700s9.07-20.25 20.25-20.25 20.25 9.07 20.25 20.25z" stroke="#282c33" stroke-width="2" fill="#fff"/><path d="M1900 146a6 6 0 0 1 6-6h668a6 6 0 0 1 6 6v188a6 6 0 0 1-6 6h-668a6 6 0 0 1-6-6z" fill-opacity="0"/><path d="M1903.7 140.47l.45-.18.9-.23.95-.07h2m3.96 0h3.98m3.98 0h3.97m3.97 0h3.98m3.97 0h3.98m3.97 0h3.98m3.98 0h3.97m3.98 0h3.97m3.98 0h3.98m3.98 0h3.98m3.98 0h3.97m4 0h3.96m3.98 0h3.98m3.97 0h3.97m3.98 0h3.97m3.98 0h3.97m3.98 0h3.98m3.97 0h3.98m3.97 0h3.98m3.98 0h3.98m3.98 0h3.98m3.97 0h4m3.96 0h3.98m3.98 0h3.97m3.97 0h3.97m3.98 0h3.98m3.97 0h3.98m3.98 0h3.97m3.98 0h3.98m3.97 0h3.98m3.98 0h3.98m3.98 0h3.97m4 0h3.96m3.98 0h3.98m3.97 0h3.97m3.97 0h3.98m3.98 0h3.97m3.98 0h3.98m3.97 0h3.98m3.98 0h3.97m3.98 0h3.98m3.98 0h3.98m3.97 0h4m3.96 0h3.98m3.98 0h3.97m3.97 0h3.97m3.98 0h3.98m3.97 0h3.98m3.98 0h3.97m3.98 0h3.98m3.97 0h3.98m3.98 0h3.98m3.98 0h3.97m4 0h3.96m3.98 0h3.98m3.97 0h3.97m3.97 0h3.98m3.98 0h3.97m3.98 0h3.98m3.97 0h3.98m3.98 0h3.97m3.98 0h3.98m3.98 0h3.98m3.97 0h4m3.96 0h3.98m3.98 0h3.97m3.97 0h3.97m3.98 0h3.98m3.97 0h3.98m3.98 0h3.97m3.98 0h3.98m3.97 0h3.98m3.98 0h3.98m3.98 0h3.97m4 0h3.96m3.98 0h3.98m3.97 0h3.97m3.97 0h3.98m3.98 0h3.97m3.98 0h3.98m3.97 0h3.98m3.98 0h3.97m3.98 0h3.98m3.98 0h3.98m3.97 0h2l.94.07.9.22.45.17m3.23 3.24l.18.45.23.9.07.95v1.96m0 3.9v3.93m0 3.9v3.93m0 3.9v3.93m0 3.9v3.93m0 3.9v3.93m0 3.9v3.93m0 3.9v3.93m0 3.9v3.93m0 3.9v3.93m0 3.9v3.93m0 3.9v3.93m0 3.9v3.93m0 3.9v3.93m0 3.9v3.93m0 3.9v3.93m0 3.92v3.9m0 3.93v3.93m0 3.9v3.93m0 3.92v3.9m0 3.93v3.93m0 3.9v3.93m0 3.92v3.9m0 3.93v3.93m0 3.9V334l-.07.94-.22.9-.17.45m-3.24 3.23l-.45.18-.9.23-.95.07h-2m-3.96 0h-3.98m-3.98 0h-3.97m-3.97 0h-3.97m-3.98 0h-3.98m-3.97 0h-3.98m-3.98 0h-3.97m-3.98 0h-3.98m-3.97 0h-3.98m-3.98 0h-3.98m-3.98 0h-3.97m-4 0h-3.96m-3.98 0h-3.98m-3.97 0h-3.97m-3.97 0h-3.98m-3.98 0h-3.97m-3.98 0h-3.98m-3.97 0h-3.98m-3.98 0h-3.97m-3.98 0h-3.98m-3.98 0h-3.98m-3.97 0h-4m-3.96 0h-3.98m-3.98 0h-3.97m-3.97 0h-3.97m-3.98 0h-3.98m-3.97 0h-3.98m-3.98 0h-3.97m-3.98 0h-3.98m-3.97 0h-3.98m-3.98 0h-3.98m-3.98 0h-3.97m-4 0h-3.96m-3.98 0h-3.98m-3.97 0h-3.97m-3.97 0h-3.98m-3.98 0h-3.97m-3.98 0h-3.98m-3.97 0h-3.98m-3.98 0h-3.97m-3.98 0h-3.98m-3.98 0h-3.98m-3.97 0h-4m-3.96 0h-3.98m-3.98 0h-3.97m-3.97 0h-3.97m-3.98 0h-3.98m-3.97 0h-3.98m-3.98 0h-3.97m-3.98 0h-3.98m-3.97 0h-3.98m-3.98 0h-3.98m-3.98 0h-3.97m-4 0h-3.96m-3.98 0h-3.98m-3.97 0h-3.97m-3.97 0h-3.98m-3.98 0h-3.97m-3.98 0h-3.98m-3.97 0h-3.98m-3.98 0h-3.97m-3.98 0h-3.98m-3.98 0h-3.98m-3.97 0h-4m-3.96 0h-3.98m-3.98 0h-3.97m-3.97 0h-3.98m-3.97 0h-3.98m-3.97 0h-3.98m-3.98 0h-3.97m-3.98 0h-3.97m-3.98 0h-3.98m-3.98 0h-3.98m-3.98 0h-3.97m-4 0h-3.96m-3.98 0h-3.98m-3.97 0h-3.97m-3.98 0h-3.97m-3.98 0h-3.97m-3.98 0h-3.98m-3.97 0h-3.98m-3.97 0h-3.98m-3.98 0h-3.98m-3.98 0h-3.98m-3.97 0h-2l-.94-.07-.9-.22-.45-.17m-3.23-3.24l-.18-.45-.23-.9-.07-.95v-1.96m0-3.92v-3.9m0-3.93v-3.93m0-3.9v-3.93m0-3.92v-3.9m0-3.93v-3.93m0-3.9v-3.93m0-3.92v-3.9m0-3.93v-3.93m0-3.9v-3.93m0-3.92v-3.9m0-3.93v-3.93m0-3.9v-3.93m0-3.9v-3.93m0-3.9v-3.93m0-3.9v-3.93m0-3.9v-3.93m0-3.9v-3.93m0-3.9v-3.93m0-3.9v-3.93m0-3.9v-3.93m0-3.9v-3.93m0-3.9v-3.93m0-3.9v-3.93m0-3.9V146l.07-.94.22-.9.17-.45" stroke="#282c33" fill="none"/><path d="M1880 124.1a6 6 0 0 1 6-6h708a6 6 0 0 1 6 6V634a6 6 0 0 1-6 6h-708a6 6 0 0 1-6-6z" stroke="#282c33" fill="#f2f3f5"/><use xlink:href="#a" transform="matrix(1,0,0,1,1885,123.09573643410852) translate(256.27495659722223 263.7521701388889)"/><use xlink:href="#b" transform="matrix(1,0,0,1,1885,123.09573643410852) translate(378.05230034722223 263.7521701388889)"/><use xlink:href="#o" transform="matrix(1,0,0,1,1885,123.09573643410852) translate(440.0857204861111 263.7521701388889)"/><path d="M1920 166a6 6 0 0 1 6-6h148a6 6 0 0 1 6 6v148a6 6 0 0 1-6 6h-148a6 6 0 0 1-6-6z" stroke="#000" fill="#fff"/><use xlink:href="#p" transform="matrix(1,0,0,1,1925,165.00000000000006) translate(26.26543209876543 64.65277777777777)"/><use xlink:href="#e" transform="matrix(1,0,0,1,1925,165.00000000000006) translate(50.228467399691354 97.29383680555556)"/><use xlink:href="#q" transform="matrix(1,0,0,1,1925,165.00000000000006) translate(67.5124180169753 97.29383680555556)"/><path d="M2400 166a6 6 0 0 1 6-6h148a6 6 0 0 1 6 6v148a6 6 0 0 1-6 6h-148a6 6 0 0 1-6-6z" stroke="#000" fill="#fff"/><use xlink:href="#g" transform="matrix(1,0,0,1,2405,165.00000000000006) translate(24.61480034722222 65.93967013888889)"/><use xlink:href="#h" transform="matrix(1,0,0,1,2405,165.00000000000006) translate(49.76188753858025 96.20225694444444)"/><use xlink:href="#r" transform="matrix(1,0,0,1,2405,165.00000000000006) translate(67.0458381558642 96.20225694444444)"/><path d="M2180 238.67c0 11.04-8.95 20-20 20s-20-8.96-20-20c0-11.05 8.95-20 20-20s20 8.95 20 20zM2260 240c0 11.05-8.95 20-20 20s-20-8.95-20-20 8.95-20 20-20 20 8.95 20 20zM2340 240c0 11.05-8.95 20-20 20s-20-8.95-20-20 8.95-20 20-20 20 8.95 20 20z" stroke="#000"/><path d="M1920 446a6 6 0 0 1 6-6h628a6 6 0 0 1 6 6v148a6 6 0 0 1-6 6h-628a6 6 0 0 1-6-6z" stroke="#000" fill="#fff"/><use xlink:href="#j" transform="matrix(1,0,0,1,1925,444.9999999999999) translate(242.82660590277777 84.68967013888889)"/><use xlink:href="#k" transform="matrix(1,0,0,1,1925,444.9999999999999) translate(345.13780381944446 84.68967013888889)"/><path d="M2000 439v-38.2" stroke="#3a414a" fill="none"/><path d="M2000.47 439.5h-.94v-.5h.94zM1999.96 400.3l.5-.02v.53h-.93v-.55z" stroke="#3a414a" stroke-width=".05" fill="#3a414a"/><path d="M2000 357.3V321" stroke="#3a414a" fill="none"/><path d="M2000.47 357.85l-.43-.06-.5.02v-.54h.93zM2000.47 321h-.94v-.5h.94z" stroke="#3a414a" stroke-width=".05" fill="#3a414a"/><path d="M2480 321v18.5a.13.13 0 0 0 .13.12.13.13 0 0 1 .12.13v18.5" stroke="#3a414a" fill="none"/><path d="M2480.47 321h-.94v-.5h.94zM2480.72 358.8l-.43-.05-.53.02v-.53h.95z" stroke="#3a414a" stroke-width=".05" fill="#3a414a"/><path d="M2020.25 379.05c0 11.18-9.07 20.25-20.25 20.25s-20.25-9.07-20.25-20.25c0-11.2 9.07-20.25 20.25-20.25s20.25 9.06 20.25 20.25zM2500.5 380c0 11.18-9.07 20.25-20.25 20.25S2460 391.18 2460 380s9.07-20.25 20.25-20.25 20.25 9.07 20.25 20.25z" stroke="#282c33" stroke-width="2" fill="#fff"/><path d="M2480.25 401.75V439" stroke="#3a414a" fill="none"/><path d="M2480.2 401.25l.53-.02v.53h-.95v-.56zM2480.72 439.5h-.94v-.5h.94z" stroke="#3a414a" stroke-width=".05" fill="#3a414a"/><path d="M1660 381.65c0 11.05-8.95 20-20 20s-20-8.95-20-20c0-11.04 8.95-20 20-20s20 8.96 20 20zM1740 383c0 11.03-8.95 20-20 20s-20-8.97-20-20c0-11.06 8.95-20 20-20s20 8.94 20 20zM1820 383c0 11.03-8.95 20-20 20s-20-8.97-20-20c0-11.06 8.95-20 20-20s20 8.94 20 20z" stroke="#000"/><path d="M2239.75 799v-77.25" stroke="#3a414a" fill="none"/><path d="M2240.22 799.5h-.94v-.5h.94zM2239.7 721.25l.53-.02v.53h-.95v-.56z" stroke="#3a414a" stroke-width=".05" fill="#3a414a"/><path d="M2239.75 678.25v-38.5a.13.13 0 0 1 .13-.13.13.13 0 0 0 .12-.12V601" stroke="#3a414a" fill="none"/><path d="M2240.22 678.8l-.43-.05-.53.02v-.53h.95zM2240.47 601h-.94v-.5h.94z" stroke="#3a414a" stroke-width=".05" fill="#3a414a"/><path d="M2260 700c0 11.18-9.07 20.25-20.25 20.25s-20.25-9.07-20.25-20.25 9.07-20.25 20.25-20.25S2260 688.82 2260 700z" stroke="#282c33" stroke-width="2" fill="#fff"/><path d="M1920 1006.67a6 6 0 0 1 6-6h148a6 6 0 0 1 6 6v148a6 6 0 0 1-6 6h-148a6 6 0 0 1-6-6z" stroke="#000" fill="#fff"/><g><use xlink:href="#m" transform="matrix(1,0,0,1,1925,1005.6666666666667) translate(32.60633680555555 70.62717013888889)"/><use xlink:href="#n" transform="matrix(1,0,0,1,1925,1005.6666666666667) translate(48.76302083333333 100.88975694444444)"/><use xlink:href="#s" transform="matrix(1,0,0,1,1925,1005.6666666666667) translate(68.97786458333333 100.88975694444444)"/></g><path d="M2400.25 1006.67a6 6 0 0 1 6-6h148a6 6 0 0 1 6 6v148a6 6 0 0 1-6 6h-148a6 6 0 0 1-6-6z" stroke="#000" fill="#fff"/><g><use xlink:href="#m" transform="matrix(1,0,0,1,2405.2499749999997,1005.6666666666667) translate(32.60633680555555 70.62717013888889)"/><use xlink:href="#n" transform="matrix(1,0,0,1,2405.2499749999997,1005.6666666666667) translate(48.29644097222222 100.88975694444444)"/><use xlink:href="#t" transform="matrix(1,0,0,1,2405.2499749999997,1005.6666666666667) translate(68.51128472222223 100.88975694444444)"/></g><path d="M2180.5 1078c0 11.05-8.95 20-20 20s-20-8.95-20-20 8.95-20 20-20 20 8.95 20 20zM2260.5 1079.33c0 11.05-8.95 20-20 20s-20-8.95-20-20c0-11.04 8.95-20 20-20s20 8.96 20 20zM2340.5 1079.33c0 11.05-8.95 20-20 20s-20-8.95-20-20c0-11.04 8.95-20 20-20s20 8.96 20 20zM1660 1079.33c0 11.05-8.95 20-20 20s-20-8.95-20-20c0-11.04 8.95-20 20-20s20 8.96 20 20zM1740 1080.67c0 11.04-8.95 20-20 20s-20-8.96-20-20c0-11.05 8.95-20 20-20s20 8.95 20 20zM1820 1080.67c0 11.04-8.95 20-20 20s-20-8.96-20-20c0-11.05 8.95-20 20-20s20 8.95 20 20z" stroke="#000"/><defs><path fill="#3a414a" d="M1120 0L938-465H352L172 0H0l578-1468h143L1296 0h-176zM885-618c-81-228-168-420-238-664-57 230-159 449-235 664h473" id="u"/><path fill="#3a414a" d="M1141-549c0 329-147 569-455 569-159 0-273-61-344-161h-12c23 199 7 418 12 633H176v-1588h135l23 150h8c77-108 175-170 344-170 311 0 455 237 455 567zm-172-2c0-242-88-424-307-424-256 0-323 154-320 426 3 280 68 430 324 430 213 0 303-196 303-432" id="v"/><path fill="#3a414a" d="M342 0H176v-1556h166V0" id="w"/><path fill="#3a414a" d="M342 0H176v-1096h166V0zm-82-1282c-61 0-98-43-98-111 0-69 36-110 98-110 59 0 98 43 98 110s-39 111-98 111" id="x"/><path fill="#3a414a" d="M287-543c-1 247 91 418 323 418 91 0 185-20 281-59v147C818 1 725 20 614 20c-329 0-499-221-499-561 0-349 172-575 510-575 96 0 221 26 282 57l-51 141c-61-25-157-50-235-51-223 0-334 142-334 426" id="y"/><path fill="#3a414a" d="M588-1114c260 0 384 106 385 366V0H850l-33-156h-8C708-34 639 17 442 20 231 23 94-94 94-303c0-221 177-337 531-348l186-6c11-203-40-320-233-320-91 0-195 28-310 84l-51-127c97-53 229-94 371-94zM268-301c-1 123 81 184 207 184 203 0 334-120 332-323v-99c-257 14-539-7-539 238" id="z"/><path fill="#3a414a" d="M354-322c-2 123 60 204 176 205 51 1 114-10 150-20v127C647 7 557 20 506 20 294 20 188-92 188-315v-652H31v-80l157-69 70-234h96v254h318v129H354v645" id="A"/><path fill="#3a414a" d="M621-1116c316 0 501 239 501 567 0 339-180 575-508 569S119-212 115-549c-4-339 178-567 506-567zm-5 141c-239 0-329 168-329 426 0 255 93 430 331 430s332-174 332-430-95-426-334-426" id="B"/><path fill="#3a414a" d="M694-1116c270 0 399 125 398 401V0H926v-709c-1-177-76-266-252-266-250 0-332 133-332 400V0H176v-1096h135l27 150h8c62-101 190-170 348-170" id="C"/><g id="a"><use transform="matrix(0.010850694444444444,0,0,0.010850694444444444,0,0)" xlink:href="#u"/><use transform="matrix(0.010850694444444444,0,0,0.010850694444444444,14.0625,0)" xlink:href="#v"/><use transform="matrix(0.010850694444444444,0,0,0.010850694444444444,27.68012152777778,0)" xlink:href="#v"/><use transform="matrix(0.010850694444444444,0,0,0.010850694444444444,41.29774305555556,0)" xlink:href="#w"/><use transform="matrix(0.010850694444444444,0,0,0.010850694444444444,46.91840277777778,0)" xlink:href="#x"/><use transform="matrix(0.010850694444444444,0,0,0.010850694444444444,52.5390625,0)" xlink:href="#y"/><use transform="matrix(0.010850694444444444,0,0,0.010850694444444444,63.11848958333333,0)" xlink:href="#z"/><use transform="matrix(0.010850694444444444,0,0,0.010850694444444444,75.47743055555554,0)" xlink:href="#A"/><use transform="matrix(0.010850694444444444,0,0,0.010850694444444444,83.32248263888887,0)" xlink:href="#x"/><use transform="matrix(0.010850694444444444,0,0,0.010850694444444444,88.94314236111111,0)" xlink:href="#B"/><use transform="matrix(0.010850694444444444,0,0,0.010850694444444444,102.36545138888887,0)" xlink:href="#C"/></g><path fill="#3a414a" d="M1198-240c-25-390-10-810-14-1222h159V0h-194L350-1227h-8c30 405 10 805 16 1227H201v-1462h192l797 1222h8" id="D"/><path fill="#3a414a" d="M115-545c0-330 146-571 454-571 149 0 263 54 342 162h13c-20-185-8-401-11-602h166V0H944l-22-147h-9C836-36 722 20 569 20c-309 0-454-234-454-565zm172 2c0 249 78 424 303 424 257 0 327-150 323-426-4-282-68-432-325-432-220 0-301 191-301 434" id="E"/><path fill="#3a414a" d="M995-51C878-2 799 19 639 20c-329 2-524-221-524-559 0-326 172-577 481-577 278 0 451 210 446 493v105H287c4 242 121 392 358 393 118 0 235-25 350-74v148zM864-653c2-195-85-324-270-324-190 0-288 139-303 324h573" id="F"/><g id="b"><use transform="matrix(0.010850694444444444,0,0,0.010850694444444444,0,0)" xlink:href="#D"/><use transform="matrix(0.010850694444444444,0,0,0.010850694444444444,16.75347222222222,0)" xlink:href="#B"/><use transform="matrix(0.010850694444444444,0,0,0.010850694444444444,30.17578125,0)" xlink:href="#E"/><use transform="matrix(0.010850694444444444,0,0,0.010850694444444444,43.79340277777778,0)" xlink:href="#F"/></g><path fill="#3a414a" d="M715 0H553c4-427-9-874 8-1288-79 77-94 81-285 239l-88-114 387-299h140V0" id="G"/><use transform="matrix(0.010850694444444444,0,0,0.010850694444444444,0,0)" xlink:href="#G" id="c"/><path fill="#3a414a" d="M1016 0H201v-1462h815v151H371v471h606v150H371v538h645V0" id="H"/><path fill="#3a414a" d="M440-561L59-1096h189l289 420 288-420h187L631-561 1032 0H844L537-444 227 0H39" id="I"/><path fill="#3a414a" d="M563 20c-271 0-399-123-399-399v-717h168v711c1 177 76 266 252 266 250 0 331-135 331-401v-576h166V0H944l-24-147h-9C848-44 724 20 563 20" id="J"/><g id="d"><use transform="matrix(0.010850694444444444,0,0,0.010850694444444444,0,0)" xlink:href="#H"/><use transform="matrix(0.010850694444444444,0,0,0.010850694444444444,12.358940972222221,0)" xlink:href="#I"/><use transform="matrix(0.010850694444444444,0,0,0.010850694444444444,23.55685763888889,0)" xlink:href="#F"/><use transform="matrix(0.010850694444444444,0,0,0.010850694444444444,36.02430555555556,0)" xlink:href="#y"/><use transform="matrix(0.010850694444444444,0,0,0.010850694444444444,46.603732638888886,0)" xlink:href="#J"/><use transform="matrix(0.010850694444444444,0,0,0.010850694444444444,60.24305555555555,0)" xlink:href="#A"/><use transform="matrix(0.010850694444444444,0,0,0.010850694444444444,68.08810763888889,0)" xlink:href="#x"/><use transform="matrix(0.010850694444444444,0,0,0.010850694444444444,73.70876736111111,0)" xlink:href="#B"/><use transform="matrix(0.010850694444444444,0,0,0.010850694444444444,87.13107638888889,0)" xlink:href="#C"/></g><path fill="#3a414a" d="M23-257c46-16 66 21 79 56L177 0h-34L96-139C78-91 56-46 35 0H2l79-170c-12-25-14-73-52-64" id="K"/><use transform="matrix(0.06172839506172839,0,0,0.06172839506172839,0,0)" xlink:href="#K" id="e"/><use transform="matrix(0.010850694444444444,0,0,0.010850694444444444,0,0)" xlink:href="#G" id="f"/><g id="g"><use transform="matrix(0.010850694444444444,0,0,0.010850694444444444,0,0)" xlink:href="#H"/><use transform="matrix(0.010850694444444444,0,0,0.010850694444444444,12.358940972222221,0)" xlink:href="#I"/><use transform="matrix(0.010850694444444444,0,0,0.010850694444444444,23.55685763888889,0)" xlink:href="#F"/><use transform="matrix(0.010850694444444444,0,0,0.010850694444444444,36.02430555555556,0)" xlink:href="#y"/><use transform="matrix(0.010850694444444444,0,0,0.010850694444444444,46.603732638888886,0)" xlink:href="#J"/><use transform="matrix(0.010850694444444444,0,0,0.010850694444444444,60.24305555555555,0)" xlink:href="#A"/><use transform="matrix(0.010850694444444444,0,0,0.010850694444444444,68.08810763888889,0)" xlink:href="#x"/><use transform="matrix(0.010850694444444444,0,0,0.010850694444444444,73.70876736111111,0)" xlink:href="#B"/><use transform="matrix(0.010850694444444444,0,0,0.010850694444444444,87.13107638888889,0)" xlink:href="#C"/></g><use transform="matrix(0.06172839506172839,0,0,0.06172839506172839,0,0)" xlink:href="#K" id="h"/><use transform="matrix(0.010850694444444444,0,0,0.010850694444444444,0,0)" xlink:href="#C" id="i"/><path fill="#3a414a" d="M602-1462c329 0 526 109 526 413 0 193-98 324-294 392L1231 0h-201L676-608H371V0H201v-1462h401zm350 422c0-215-129-271-360-273H371v559h233c223 0 348-78 348-286" id="L"/><path fill="#3a414a" d="M502-977c-130 0-238 32-238 139 0 75 39 101 95 134 33 19 97 46 192 81 130 48 217 95 263 143s69 108 69 181C883-73 695 20 449 20 304 20 190-3 109-49v-154c91 47 216 86 344 86 149 0 270-36 270-168 0-43-21-76-55-109-56-55-367-158-434-208-74-55-128-109-128-225 0-327 490-342 754-217l-59 135c-110-45-210-68-299-68" id="M"/><g id="j"><use transform="matrix(0.010850694444444444,0,0,0.010850694444444444,0,0)" xlink:href="#L"/><use transform="matrix(0.010850694444444444,0,0,0.010850694444444444,13.736979166666666,0)" xlink:href="#F"/><use transform="matrix(0.010850694444444444,0,0,0.010850694444444444,26.204427083333332,0)" xlink:href="#M"/><use transform="matrix(0.010850694444444444,0,0,0.010850694444444444,36.80555555555556,0)" xlink:href="#B"/><use transform="matrix(0.010850694444444444,0,0,0.010850694444444444,50.22786458333333,0)" xlink:href="#C"/><use transform="matrix(0.010850694444444444,0,0,0.010850694444444444,63.8671875,0)" xlink:href="#z"/><use transform="matrix(0.010850694444444444,0,0,0.010850694444444444,76.22612847222223,0)" xlink:href="#A"/><use transform="matrix(0.010850694444444444,0,0,0.010850694444444444,84.07118055555556,0)" xlink:href="#F"/></g><path fill="#3a414a" d="M584-1331c-162 0-287 69-287 219 0 118 43 164 123 214 44 28 112 56 203 89 153 55 259 113 317 176s86 144 86 244c-1 276-228 409-520 409-173 0-307-22-400-67v-164c109 46 257 81 406 82 199 1 342-68 342-244 0-120-47-164-132-214-47-28-121-58-218-93-136-49-234-106-292-173s-87-154-87-261c-1-239 209-369 463-369 145 0 279 27 401 80l-53 148c-121-51-238-76-352-76" id="N"/><path fill="#3a414a" d="M649-1462c450-4 719 268 719 717 0 484-276 748-762 745H201v-1462h448zM578-147c400 1 610-197 610-592 1-379-192-576-570-576H371v1168h207" id="O"/><path fill="#3a414a" d="M1257 0h-200L524-709 371-573V0H201v-1462h170v725l663-725h201L647-827" id="P"/><g id="k"><use transform="matrix(0.010850694444444444,0,0,0.010850694444444444,0,0)" xlink:href="#N"/><use transform="matrix(0.010850694444444444,0,0,0.010850694444444444,12.196180555555555,0)" xlink:href="#O"/><use transform="matrix(0.010850694444444444,0,0,0.010850694444444444,28.396267361111104,0)" xlink:href="#P"/></g><path fill="#3a414a" d="M340-893c80-153 237-262 467-211l-23 154c-45-10-85-15-120-15-184-3-322 182-322 377V0H176v-1096h137l19 203h8" id="Q"/><path fill="#3a414a" d="M516-150c94-315 146-423 332-946h178L610 0H416L0-1096h178c98 281 253 670 330 946h8" id="R"/><g id="l"><use transform="matrix(0.010850694444444444,0,0,0.010850694444444444,0,0)" xlink:href="#N"/><use transform="matrix(0.010850694444444444,0,0,0.010850694444444444,12.196180555555555,0)" xlink:href="#F"/><use transform="matrix(0.010850694444444444,0,0,0.010850694444444444,24.66362847222222,0)" xlink:href="#Q"/><use transform="matrix(0.010850694444444444,0,0,0.010850694444444444,33.73480902777778,0)" xlink:href="#R"/><use transform="matrix(0.010850694444444444,0,0,0.010850694444444444,44.86762152777778,0)" xlink:href="#F"/><use transform="matrix(0.010850694444444444,0,0,0.010850694444444444,57.33506944444444,0)" xlink:href="#Q"/></g><path fill="#3a414a" d="M1128-1036c0 321-241 464-585 461H371V0H201v-1462h379c365 0 548 142 548 426zm-176 8c0-218-150-286-391-287H371v594h153c270-3 428-62 428-307" id="S"/><path fill="#3a414a" d="M1368-1116c259 2 372 131 371 401V0h-166v-713c0-168-66-262-230-262-221 0-303 131-303 363V0H874v-713c-1-169-66-262-231-262-235 0-301 142-301 400V0H176v-1096h135l27 150h8c56-99 174-170 324-170 171 0 283 62 336 186h8c60-108 189-187 354-186" id="T"/><g id="m"><use transform="matrix(0.010850694444444444,0,0,0.010850694444444444,0,0)" xlink:href="#S"/><use transform="matrix(0.010850694444444444,0,0,0.010850694444444444,13.37890625,0)" xlink:href="#Q"/><use transform="matrix(0.010850694444444444,0,0,0.010850694444444444,22.005208333333336,0)" xlink:href="#B"/><use transform="matrix(0.010850694444444444,0,0,0.010850694444444444,35.427517361111114,0)" xlink:href="#T"/><use transform="matrix(0.010850694444444444,0,0,0.010850694444444444,56.09809027777778,0)" xlink:href="#x"/><use transform="matrix(0.010850694444444444,0,0,0.010850694444444444,61.71875,0)" xlink:href="#M"/><use transform="matrix(0.010850694444444444,0,0,0.010850694444444444,72.31987847222223,0)" xlink:href="#F"/></g><path fill="#3a414a" d="M1055-246c-12 125 82 152 180 111V-4c-29 16-71 24-127 24-146 0-219-84-219-253v-721H412V0H246v-954H25v-74l143-68h1100v142h-213v708" id="U"/><use transform="matrix(0.010850694444444444,0,0,0.010850694444444444,0,0)" xlink:href="#U" id="n"/><use transform="matrix(0.010850694444444444,0,0,0.010850694444444444,0,0)" xlink:href="#C" id="o"/><path fill="#3a414a" d="M30 0v-248h187v28H63v79h144v27H63v87h162V0H30" id="V"/><path fill="#3a414a" d="M141 0L90-78 38 0H4l68-98-65-92h35l48 74 47-74h35l-64 92 68 98h-35" id="W"/><path fill="#3a414a" d="M100-194c63 0 86 42 84 106H49c0 40 14 67 53 68 26 1 43-12 49-29l28 8c-11 28-37 45-77 45C44 4 14-33 15-96c1-61 26-98 85-98zm52 81c6-60-76-77-97-28-3 7-6 17-6 28h103" id="X"/><path fill="#3a414a" d="M96-169c-40 0-48 33-48 73s9 75 48 75c24 0 41-14 43-38l32 2c-6 37-31 61-74 61-59 0-76-41-82-99-10-93 101-131 147-64 4 7 5 14 7 22l-32 3c-4-21-16-35-41-35" id="Y"/><path fill="#3a414a" d="M84 4C-5 8 30-112 23-190h32v120c0 31 7 50 39 49 72-2 45-101 50-169h31l1 190h-30c-1-10 1-25-2-33-11 22-28 36-60 37" id="Z"/><path fill="#3a414a" d="M59-47c-2 24 18 29 38 22v24C64 9 27 4 27-40v-127H5v-23h24l9-43h21v43h35v23H59v120" id="aa"/><path fill="#3a414a" d="M24-231v-30h32v30H24zM24 0v-190h32V0H24" id="ab"/><path fill="#3a414a" d="M100-194c62-1 85 37 85 99 1 63-27 99-86 99S16-35 15-95c0-66 28-99 85-99zM99-20c44 1 53-31 53-75 0-43-8-75-51-75s-53 32-53 75 10 74 51 75" id="ac"/><path fill="#3a414a" d="M117-194c89-4 53 116 60 194h-32v-121c0-31-8-49-39-48C34-167 62-67 57 0H25l-1-190h30c1 10-1 24 2 32 11-22 29-35 61-36" id="ad"/><g id="p"><use transform="matrix(0.06172839506172839,0,0,0.06172839506172839,0,0)" xlink:href="#V"/><use transform="matrix(0.06172839506172839,0,0,0.06172839506172839,14.814814814814813,0)" xlink:href="#W"/><use transform="matrix(0.06172839506172839,0,0,0.06172839506172839,25.925925925925924,0)" xlink:href="#X"/><use transform="matrix(0.06172839506172839,0,0,0.06172839506172839,38.2716049382716,0)" xlink:href="#Y"/><use transform="matrix(0.06172839506172839,0,0,0.06172839506172839,49.38271604938271,0)" xlink:href="#Z"/><use transform="matrix(0.06172839506172839,0,0,0.06172839506172839,61.728395061728385,0)" xlink:href="#aa"/><use transform="matrix(0.06172839506172839,0,0,0.06172839506172839,67.90123456790123,0)" xlink:href="#ab"/><use transform="matrix(0.06172839506172839,0,0,0.06172839506172839,72.77777777777777,0)" xlink:href="#ac"/><use transform="matrix(0.06172839506172839,0,0,0.06172839506172839,85.12345679012346,0)" xlink:href="#ad"/></g><path fill="#3a414a" d="M270 29c-76 0-118-48-118-135 0-84 38-135 118-136 81 0 123 51 123 136 0 82-44 135-123 135" id="ae"/><g id="q"><use transform="matrix(0.010850694444444444,0,0,0.010850694444444444,0,0)" xlink:href="#C"/><use transform="matrix(0.010850694444444444,0,0,0.010850694444444444,13.639322916666666,0)" xlink:href="#ae"/><use transform="matrix(0.010850694444444444,0,0,0.010850694444444444,19.55295138888889,0)" xlink:href="#G"/></g><g id="r"><use transform="matrix(0.010850694444444444,0,0,0.010850694444444444,0,0)" xlink:href="#C"/><use transform="matrix(0.010850694444444444,0,0,0.010850694444444444,13.639322916666666,0)" xlink:href="#ae"/><use transform="matrix(0.010850694444444444,0,0,0.010850694444444444,19.55295138888889,0)" xlink:href="#C"/></g><g id="s"><use transform="matrix(0.010850694444444444,0,0,0.010850694444444444,0,0)" xlink:href="#C"/><use transform="matrix(0.010850694444444444,0,0,0.010850694444444444,13.639322916666666,0)" xlink:href="#ae"/><use transform="matrix(0.010850694444444444,0,0,0.010850694444444444,19.55295138888889,0)" xlink:href="#G"/></g><g id="t"><use transform="matrix(0.010850694444444444,0,0,0.010850694444444444,0,0)" xlink:href="#C"/><use transform="matrix(0.010850694444444444,0,0,0.010850694444444444,13.639322916666666,0)" xlink:href="#ae"/><use transform="matrix(0.010850694444444444,0,0,0.010850694444444444,19.55295138888889,0)" xlink:href="#C"/></g></defs></g></svg>