<svg xmlns="http://www.w3.org/2000/svg" xmlns:xlink="http://www.w3.org/1999/xlink" xmlns:lucid="lucid" width="2122" height="1002"><g transform="translate(21 -59)" lucid:page-tab-id="0_0"><path d="M0 0h2500v1500H0z" fill="#fff"/><path d="M0 86a6 6 0 0 1 6-6h2068a6 6 0 0 1 6 6v948a6 6 0 0 1-6 6H6a6 6 0 0 1-6-6z" stroke="#000" stroke-opacity="0" stroke-width="2" fill="#fff"/><path d="M440 440h560v240H440z" stroke="#000" stroke-opacity="0" fill="#dfe3e8"/><path d="M480 486a6 6 0 0 1 6-6h148a6 6 0 0 1 6 6v148a6 6 0 0 1-6 6H486a6 6 0 0 1-6-6z" stroke="#000" fill="#fff"/><use xlink:href="#a" transform="matrix(1,0,0,1,485,485) translate(24.127604166666657 66.00260416666667)"/><use xlink:href="#b" transform="matrix(1,0,0,1,485,485) translate(61.5625 102.31770833333334)"/><path d="M800 486a6 6 0 0 1 6-6h148a6 6 0 0 1 6 6v148a6 6 0 0 1-6 6H806a6 6 0 0 1-6-6z" stroke="#000" fill="#fff"/><use xlink:href="#c" transform="matrix(1,0,0,1,805,485) translate(21.08723958333333 66.00260416666667)"/><use xlink:href="#d" transform="matrix(1,0,0,1,805,485) translate(14.537760416666657 102.31770833333334)"/><path d="M641 521.24h142.12" stroke="#3a414a" fill="none"/><path d="M641 521.72h-.5v-.95h.5z" stroke="#3a414a" stroke-width=".05" fill="#3a414a"/><path d="M797.88 521.24l-14.26 4.64v-9.27z" stroke="#3a414a" fill="#3a414a"/><path d="M799 600.47h-1.97m-3.95 0h-3.95m-3.95 0h-3.94m-3.95 0h-3.96m-3.95 0h-3.95m-3.95 0h-3.95m-3.95 0h-3.95m-3.94 0h-3.94m-3.95 0h-3.94m-3.94 0h-3.95m-3.95 0h-3.95m-3.95 0h-3.94m-3.95 0h-3.95m-3.95 0h-3.94m-3.96 0h-3.95m-3.96 0h-3.94m-3.95 0h-3.95m-3.95 0h-3.95m-3.94 0h-1.98" stroke="#3a414a" fill="none"/><path d="M799.5 600.94h-.5V600h.5z" stroke="#3a414a" stroke-width=".05" fill="#3a414a"/><path d="M642.12 600.47l14.26-4.64v9.27z" stroke="#3a414a" fill="#3a414a"/><path d="M1080 120h560v240h-560z" stroke="#000" stroke-opacity="0" fill="#dfe3e8"/><path d="M1120 166a6 6 0 0 1 6-6h148a6 6 0 0 1 6 6v148a6 6 0 0 1-6 6h-148a6 6 0 0 1-6-6z" stroke="#000" fill="#fff"/><use xlink:href="#a" transform="matrix(1,0,0,1,1125,165) translate(24.127604166666657 66.00260416666667)"/><use xlink:href="#b" transform="matrix(1,0,0,1,1125,165) translate(61.5625 102.31770833333334)"/><path d="M1440 166a6 6 0 0 1 6-6h148a6 6 0 0 1 6 6v148a6 6 0 0 1-6 6h-148a6 6 0 0 1-6-6z" stroke="#000" fill="#fff"/><use xlink:href="#c" transform="matrix(1,0,0,1,1445,165) translate(21.08723958333333 66.00260416666667)"/><use xlink:href="#d" transform="matrix(1,0,0,1,1445,165) translate(14.537760416666657 102.31770833333334)"/><path d="M1281 201.24h142.12" stroke="#3a414a" fill="none"/><path d="M1281 201.72h-.5v-.95h.5z" stroke="#3a414a" stroke-width=".05" fill="#3a414a"/><path d="M1437.88 201.24l-14.26 4.64v-9.27z" stroke="#3a414a" fill="#3a414a"/><path d="M1439 280.47h-1.97m-3.95 0h-3.95m-3.95 0h-3.94m-3.95 0h-3.96m-3.95 0h-3.96m-3.94 0h-3.95m-3.95 0h-3.95m-3.94 0h-3.94m-3.95 0h-3.94m-3.94 0h-3.95m-3.95 0h-3.95m-3.94 0h-3.95m-3.95 0h-3.95m-3.95 0h-3.94m-3.96 0h-3.95m-3.96 0h-3.94m-3.95 0h-3.95m-3.95 0h-3.94m-3.94 0h-1.98" stroke="#3a414a" fill="none"/><path d="M1439.5 280.94h-.5V280h.5z" stroke="#3a414a" stroke-width=".05" fill="#3a414a"/><path d="M1282.12 280.47l14.26-4.64v9.27z" stroke="#3a414a" fill="#3a414a"/><path d="M1080 760h560v240h-560z" stroke="#000" stroke-opacity="0" fill="#dfe3e8"/><path d="M1120 806a6 6 0 0 1 6-6h148a6 6 0 0 1 6 6v148a6 6 0 0 1-6 6h-148a6 6 0 0 1-6-6z" stroke="#000" fill="#fff"/><use xlink:href="#a" transform="matrix(1,0,0,1,1125,805) translate(24.127604166666657 66.00260416666667)"/><use xlink:href="#b" transform="matrix(1,0,0,1,1125,805) translate(61.5625 102.31770833333334)"/><path d="M1440 806a6 6 0 0 1 6-6h148a6 6 0 0 1 6 6v148a6 6 0 0 1-6 6h-148a6 6 0 0 1-6-6z" stroke="#000" fill="#fff"/><use xlink:href="#c" transform="matrix(1,0,0,1,1445,805) translate(21.08723958333333 66.00260416666667)"/><use xlink:href="#d" transform="matrix(1,0,0,1,1445,805) translate(14.537760416666657 102.31770833333334)"/><path d="M1281 841.24h142.12" stroke="#3a414a" fill="none"/><path d="M1281 841.72h-.5v-.95h.5z" stroke="#3a414a" stroke-width=".05" fill="#3a414a"/><path d="M1437.88 841.24l-14.26 4.64v-9.27z" stroke="#3a414a" fill="#3a414a"/><path d="M1439 920.47h-1.97m-3.95 0h-3.95m-3.95 0h-3.94m-3.95 0h-3.96m-3.95 0h-3.96m-3.94 0h-3.95m-3.95 0h-3.95m-3.94 0h-3.94m-3.95 0h-3.94m-3.94 0h-3.95m-3.95 0h-3.95m-3.94 0h-3.95m-3.95 0h-3.95m-3.95 0h-3.94m-3.96 0h-3.95m-3.96 0h-3.94m-3.95 0h-3.95m-3.95 0h-3.94m-3.94 0h-1.98" stroke="#3a414a" fill="none"/><path d="M1439.5 920.94h-.5V920h.5z" stroke="#3a414a" stroke-width=".05" fill="#3a414a"/><path d="M1282.12 920.47l14.26-4.64v9.27z" stroke="#3a414a" fill="#3a414a"/><path d="M921.33 641v191.67a6 6 0 0 0 6 6h175.8" stroke="#3a414a" fill="none"/><path d="M921.8 641h-.94v-.5h.95z" stroke="#3a414a" stroke-width=".05" fill="#3a414a"/><path d="M1117.88 838.67l-14.26 4.63v-9.27z" stroke="#3a414a" fill="#3a414a"/><path d="M840 479V206a6 6 0 0 1 6-6h257.12" stroke="#3a414a" fill="none"/><path d="M840.48 479.5h-.96v-.5h.96z" stroke="#3a414a" stroke-width=".05" fill="#3a414a"/><path d="M1117.88 200l-14.26 4.63v-9.26z" stroke="#3a414a" fill="#3a414a"/><path d="M1119 280h-2m-4.03 0h-4.02m-4.02 0h-4.02m-4.02 0h-4.02m-4.02 0h-4.02m-4.02 0h-4.02m-4.02 0h-4.02m-4.02 0h-4.02m-4.02 0h-4.02m-4.03 0h-4.02m-4 0h-4.03m-4.02 0h-4.02m-4.02 0h-4m-4.03 0h-4.02m-4.02 0h-4.02m-4 0h-4.03m-4.03 0h-4.02m-4.02 0h-4.02m-4.02 0h-4.02m-4.02 0h-4.02m-4.02 0h-4.02m-4.02 0h-4.02m-4.03 0h-4.03m-4.02 0h-4.02m-4.02 0h-2l-.94.07-.9.22-.45.17m-3.23 3.24l-.18.45-.23.9-.07.95v2m0 4.04v4.02m0 4.03v4m0 4.04v4.03m0 4.02v4.02m0 4.02v4.03m0 4.02v4.02m0 4.02v4.03m0 4.02v4.02m0 4.02v4.03m0 4.02v4.02m0 4.03v4.02m0 4.03v4.02m0 4.03v4.02m0 4.03v4.02m0 4.03v4.02m0 4.03v4.02m0 4.03v4.02m0 4.03v4.03m0 4.02v4.03m0 4.02v4.03m0 4.02v4.03m0 4.02v2.02" stroke="#3a414a" fill="none"/><path d="M1119.5 280.48h-.5v-.96h.5z" stroke="#3a414a" stroke-width=".05" fill="#3a414a"/><path d="M920 477.88l-4.63-14.26h9.26z" stroke="#3a414a" fill="#3a414a"/><path d="M1119 918.67h-2m-4 0h-4m-3.98 0h-4m-4 0h-4m-3.98 0h-4m-4 0h-4m-3.98 0h-4m-4 0h-4m-3.98 0h-4m-4 0h-4m-3.98 0h-4m-4 0h-4m-3.98 0h-4m-4 0h-4m-4 0h-3.98m-4 0h-4m-4 0h-3.98m-4 0h-4m-4 0h-3.98m-4 0h-4m-4 0h-3.98m-4 0h-4m-4 0h-3.98m-4 0h-4m-4 0h-3.98m-4 0h-4m-4 0h-3.98m-4 0h-4m-4 0h-3.98m-4 0h-4m-4 0h-3.98m-4 0h-4m-4 0h-3.98m-4 0h-4m-4 0h-2l-.93-.08-.92-.23-.44-.18m-3.23-3.24l-.17-.44-.22-.9-.07-.95v-2m0-4v-4m0-4v-4m0-4v-3.98m0-4v-4m0-4v-4m0-4v-4m0-4v-3.98m0-4v-4m0-4v-4m0-4v-3.98m0-4v-4m0-4v-4m0-4v-3.98m0-4v-4m0-4v-4m0-4v-3.98m0-4v-4m0-4v-4m0-4v-3.98m0-4v-4m0-4v-4m0-4v-3.98m0-4v-4m0-4v-4m0-4v-3.98m0-4v-4m0-4v-4m0-4v-3.98m0-4v-4m0-4v-4m0-4v-3.98m0-4v-2" stroke="#3a414a" fill="none"/><path d="M1119.5 919.14h-.5v-.95h.5z" stroke="#3a414a" stroke-width=".05" fill="#3a414a"/><path d="M841.33 642.12l4.64 14.26h-9.27z" stroke="#3a414a" fill="#3a414a"/><defs><path d="M1128-1036c0 321-241 464-585 461H371V0H201v-1462h379c365 0 548 142 548 426zm-176 8c0-218-150-286-391-287H371v594h153c270-3 428-62 428-307" id="e"/><path d="M340-893c80-153 237-262 467-211l-23 154c-45-10-85-15-120-15-184-3-322 182-322 377V0H176v-1096h137l19 203h8" id="f"/><path d="M621-1116c316 0 501 239 501 567 0 339-180 575-508 569S119-212 115-549c-4-339 178-567 506-567zm-5 141c-239 0-329 168-329 426 0 255 93 430 331 430s332-174 332-430-95-426-334-426" id="g"/><path d="M1368-1116c259 2 372 131 371 401V0h-166v-713c0-168-66-262-230-262-221 0-303 131-303 363V0H874v-713c-1-169-66-262-231-262-235 0-301 142-301 400V0H176v-1096h135l27 150h8c56-99 174-170 324-170 171 0 283 62 336 186h8c60-108 189-187 354-186" id="h"/><path d="M342 0H176v-1096h166V0zm-82-1282c-61 0-98-43-98-111 0-69 36-110 98-110 59 0 98 43 98 110s-39 111-98 111" id="i"/><path d="M502-977c-130 0-238 32-238 139 0 75 39 101 95 134 33 19 97 46 192 81 130 48 217 95 263 143s69 108 69 181C883-73 695 20 449 20 304 20 190-3 109-49v-154c91 47 216 86 344 86 149 0 270-36 270-168 0-43-21-76-55-109-56-55-367-158-434-208-74-55-128-109-128-225 0-327 490-342 754-217l-59 135c-110-45-210-68-299-68" id="j"/><path d="M995-51C878-2 799 19 639 20c-329 2-524-221-524-559 0-326 172-577 481-577 278 0 451 210 446 493v105H287c4 242 121 392 358 393 118 0 235-25 350-74v148zM864-653c2-195-85-324-270-324-190 0-288 139-303 324h573" id="k"/><g id="a"><use transform="matrix(0.013020833333333334,0,0,0.013020833333333334,0,0)" xlink:href="#e"/><use transform="matrix(0.013020833333333334,0,0,0.013020833333333334,16.0546875,0)" xlink:href="#f"/><use transform="matrix(0.013020833333333334,0,0,0.013020833333333334,26.40625,0)" xlink:href="#g"/><use transform="matrix(0.013020833333333334,0,0,0.013020833333333334,42.513020833333336,0)" xlink:href="#h"/><use transform="matrix(0.013020833333333334,0,0,0.013020833333333334,67.31770833333334,0)" xlink:href="#i"/><use transform="matrix(0.013020833333333334,0,0,0.013020833333333334,74.06250000000001,0)" xlink:href="#j"/><use transform="matrix(0.013020833333333334,0,0,0.013020833333333334,86.78385416666669,0)" xlink:href="#k"/></g><path d="M201 0v-1462h170V0H201" id="l"/><path d="M649-1462c450-4 719 268 719 717 0 484-276 748-762 745H201v-1462h448zM578-147c400 1 610-197 610-592 1-379-192-576-570-576H371v1168h207" id="m"/><g id="b"><use transform="matrix(0.013020833333333334,0,0,0.013020833333333334,0,0)" xlink:href="#l"/><use transform="matrix(0.013020833333333334,0,0,0.013020833333333334,7.434895833333334,0)" xlink:href="#m"/></g><path d="M371 0H201v-1462h815v151H371v535h606v151H371V0" id="n"/><path d="M563 20c-271 0-399-123-399-399v-717h168v711c1 177 76 266 252 266 250 0 331-135 331-401v-576h166V0H944l-24-147h-9C848-44 724 20 563 20" id="o"/><path d="M694-1116c270 0 399 125 398 401V0H926v-709c-1-177-76-266-252-266-250 0-332 133-332 400V0H176v-1096h135l27 150h8c62-101 190-170 348-170" id="p"/><path d="M287-543c-1 247 91 418 323 418 91 0 185-20 281-59v147C818 1 725 20 614 20c-329 0-499-221-499-561 0-349 172-575 510-575 96 0 221 26 282 57l-51 141c-61-25-157-50-235-51-223 0-334 142-334 426" id="q"/><path d="M354-322c-2 123 60 204 176 205 51 1 114-10 150-20v127C647 7 557 20 506 20 294 20 188-92 188-315v-652H31v-80l157-69 70-234h96v254h318v129H354v645" id="r"/><g id="c"><use transform="matrix(0.013020833333333334,0,0,0.013020833333333334,0,0)" xlink:href="#n"/><use transform="matrix(0.013020833333333334,0,0,0.013020833333333334,13.763020833333334,0)" xlink:href="#o"/><use transform="matrix(0.013020833333333334,0,0,0.013020833333333334,30.130208333333336,0)" xlink:href="#p"/><use transform="matrix(0.013020833333333334,0,0,0.013020833333333334,46.497395833333336,0)" xlink:href="#q"/><use transform="matrix(0.013020833333333334,0,0,0.013020833333333334,59.192708333333336,0)" xlink:href="#r"/><use transform="matrix(0.013020833333333334,0,0,0.013020833333333334,68.60677083333334,0)" xlink:href="#i"/><use transform="matrix(0.013020833333333334,0,0,0.013020833333333334,75.35156250000001,0)" xlink:href="#g"/><use transform="matrix(0.013020833333333334,0,0,0.013020833333333334,91.45833333333334,0)" xlink:href="#p"/></g><path d="M1016 0H201v-1462h815v151H371v471h606v150H371v538h645V0" id="s"/><path d="M440-561L59-1096h189l289 420 288-420h187L631-561 1032 0H844L537-444 227 0H39" id="t"/><g id="d"><use transform="matrix(0.013020833333333334,0,0,0.013020833333333334,0,0)" xlink:href="#s"/><use transform="matrix(0.013020833333333334,0,0,0.013020833333333334,14.830729166666668,0)" xlink:href="#t"/><use transform="matrix(0.013020833333333334,0,0,0.013020833333333334,28.268229166666675,0)" xlink:href="#k"/><use transform="matrix(0.013020833333333334,0,0,0.013020833333333334,43.22916666666667,0)" xlink:href="#q"/><use transform="matrix(0.013020833333333334,0,0,0.013020833333333334,55.92447916666667,0)" xlink:href="#o"/><use transform="matrix(0.013020833333333334,0,0,0.013020833333333334,72.29166666666667,0)" xlink:href="#r"/><use transform="matrix(0.013020833333333334,0,0,0.013020833333333334,81.70572916666667,0)" xlink:href="#i"/><use transform="matrix(0.013020833333333334,0,0,0.013020833333333334,88.45052083333334,0)" xlink:href="#g"/><use transform="matrix(0.013020833333333334,0,0,0.013020833333333334,104.55729166666669,0)" xlink:href="#p"/></g></defs></g></svg>