<svg xmlns="http://www.w3.org/2000/svg" xmlns:xlink="http://www.w3.org/1999/xlink" xmlns:lucid="lucid" width="2681" height="1641"><g transform="translate(-259.5 -459.5)" lucid:page-tab-id="0_0"><path d="M0 0h3000v2500H0z" fill="#fff"/><path d="M2680 680h240v1280h-240zM2200 680h240v1280h-240zM1720 680h240v1280h-240zM1240 680h240v1280h-240zM280 680h720v1280H280z" stroke="#000" stroke-opacity="0" fill="#f2f3f5"/><path d="M320 720h160v80H320z" stroke="#282c33" fill="#fff"/><use xlink:href="#a" transform="matrix(1,0,0,1,325,725) translate(34.99348958333334 44.07552083333333)"/><path d="M800 720h160v80H800z" stroke="#282c33" fill="#fff"/><use xlink:href="#b" transform="matrix(1,0,0,1,805,725) translate(34.99348958333334 44.07552083333333)"/><path d="M1280 720h160v80h-160z" stroke="#282c33" fill="#fff"/><use xlink:href="#a" transform="matrix(1,0,0,1,1285,725) translate(34.99348958333334 44.07552083333333)"/><path d="M360 920h80v800h-80zM1760 720h160v80h-160z" stroke="#282c33" fill="#fff"/><use xlink:href="#b" transform="matrix(1,0,0,1,1765,725) translate(34.99348958333334 44.07552083333333)"/><path d="M2240 720h160v80h-160z" stroke="#282c33" fill="#fff"/><use xlink:href="#a" transform="matrix(1,0,0,1,2245,725) translate(34.99348958333334 44.07552083333333)"/><path d="M2720 720h160v80h-160z" stroke="#282c33" fill="#fff"/><use xlink:href="#b" transform="matrix(1,0,0,1,2725,725) translate(34.99348958333334 44.07552083333333)"/><path d="M840 1120h80v480h-80zM1800 1120h80v480h-80zM2760 1119.56h80v480h-80zM2280 920h80v800h-80zM1320 920h80v800h-80z" stroke="#282c33" fill="#fff"/><path d="M360 1120h80v480h-80zM1320 1120h80v480h-80zM2280 1120h80v40h-80zM2280 1360h80v239.56h-80z" stroke="#282c33" fill="#3a414a"/><path d="M320 486a6 6 0 0 1 6-6h628a6 6 0 0 1 6 6v148a6 6 0 0 1-6 6H326a6 6 0 0 1-6-6z" stroke="#000" stroke-opacity="0" fill="#fff" fill-opacity="0"/><use xlink:href="#c" transform="matrix(1,0,0,1,325,485) translate(157.27539062500003 89.62890624999999)"/><use xlink:href="#d" transform="matrix(1,0,0,1,325,485) translate(398.662109375 89.62890624999999)"/><path d="M1280 486a6 6 0 0 1 6-6h628a6 6 0 0 1 6 6v148a6 6 0 0 1-6 6h-628a6 6 0 0 1-6-6z" stroke="#000" stroke-opacity="0" fill="#fff" fill-opacity="0"/><use xlink:href="#e" transform="matrix(1,0,0,1,1285,485) translate(144.55078125000003 70.87890624999999)"/><use xlink:href="#f" transform="matrix(1,0,0,1,1285,485) translate(411.38671875 70.87890624999999)"/><use xlink:href="#g" transform="matrix(1,0,0,1,1285,485) translate(45.3385416666668 111.10026041666664)"/><use xlink:href="#h" transform="matrix(1,0,0,1,1285,485) translate(160.09114583333343 111.10026041666664)"/><use xlink:href="#i" transform="matrix(1,0,0,1,1285,485) translate(208.0338541666667 111.10026041666664)"/><use xlink:href="#j" transform="matrix(1,0,0,1,1285,485) translate(368.74999999999994 111.10026041666664)"/><use xlink:href="#k" transform="matrix(1,0,0,1,1285,485) translate(481.9270833333332 111.10026041666664)"/><use xlink:href="#l" transform="matrix(1,0,0,1,1285,485) translate(518.0989583333333 111.10026041666664)"/><path d="M400 801v118" stroke="#3a414a" fill="none"/><path d="M400.48 801h-.96v-.5h.96zM400.48 919.5h-.96v-.5h.96z" stroke="#3a414a" stroke-width=".05" fill="#3a414a"/><path d="M400 1721v168.67" stroke="#3a414a" fill="none"/><path d="M400.48 1721h-.96v-.5h.96z" stroke="#3a414a" stroke-width=".05" fill="#3a414a"/><path d="M415 1904.5c0 8.28-6.72 15-15 15-8.28 0-15-6.72-15-15 0-8.28 6.72-15 15-15 8.28 0 15 6.72 15 15z" stroke="#3a414a" fill="#fff"/><path d="M880 1601v288.67" stroke="#3a414a" fill="none"/><path d="M880.48 1601h-.96v-.5h.96z" stroke="#3a414a" stroke-width=".05" fill="#3a414a"/><path d="M895 1904.5c0 8.28-6.72 15-15 15-8.28 0-15-6.72-15-15 0-8.28 6.72-15 15-15 8.28 0 15 6.72 15 15z" stroke="#3a414a" fill="#fff"/><path d="M880 801v318" stroke="#3a414a" fill="none"/><path d="M880.48 801h-.96v-.5h.96zM880.48 1119.5h-.96v-.5h.96z" stroke="#3a414a" stroke-width=".05" fill="#3a414a"/><path d="M1360 801v118" stroke="#3a414a" fill="none"/><path d="M1360.47 801h-.94v-.5h.94zM1360.47 919.5h-.94v-.5h.94z" stroke="#3a414a" stroke-width=".05" fill="#3a414a"/><path d="M1360 1721v168.67" stroke="#3a414a" fill="none"/><path d="M1360.47 1721h-.94v-.5h.94z" stroke="#3a414a" stroke-width=".05" fill="#3a414a"/><path d="M1375 1904.5c0 8.28-6.72 15-15 15-8.28 0-15-6.72-15-15 0-8.28 6.72-15 15-15 8.28 0 15 6.72 15 15z" stroke="#3a414a" fill="#fff"/><path d="M1840 801v318" stroke="#3a414a" fill="none"/><path d="M1840.47 801h-.94v-.5h.94zM1840.47 1119.5h-.94v-.5h.94z" stroke="#3a414a" stroke-width=".05" fill="#3a414a"/><path d="M1840 1601v288.67" stroke="#3a414a" fill="none"/><path d="M1840.47 1601h-.94v-.5h.94z" stroke="#3a414a" stroke-width=".05" fill="#3a414a"/><path d="M1855 1904.5c0 8.28-6.72 15-15 15-8.28 0-15-6.72-15-15 0-8.28 6.72-15 15-15 8.28 0 15 6.72 15 15z" stroke="#3a414a" fill="#fff"/><path d="M2320 801v118" stroke="#3a414a" fill="none"/><path d="M2320.47 801h-.94v-.5h.94zM2320.47 919.5h-.94v-.5h.94z" stroke="#3a414a" stroke-width=".05" fill="#3a414a"/><path d="M2320 1721v168.67" stroke="#3a414a" fill="none"/><path d="M2320.47 1721h-.94v-.5h.94z" stroke="#3a414a" stroke-width=".05" fill="#3a414a"/><path d="M2335 1904.5c0 8.28-6.72 15-15 15-8.28 0-15-6.72-15-15 0-8.28 6.72-15 15-15 8.28 0 15 6.72 15 15z" stroke="#3a414a" fill="#fff"/><path d="M2800 801v317.56" stroke="#3a414a" fill="none"/><path d="M2800.47 801h-.94v-.5h.94zM2800.47 1119.06h-.94v-.52h.94z" stroke="#3a414a" stroke-width=".05" fill="#3a414a"/><path d="M2800 1600.56v289.1" stroke="#3a414a" fill="none"/><path d="M2800.47 1600.57h-.94v-.5h.94z" stroke="#3a414a" stroke-width=".05" fill="#3a414a"/><path d="M2815 1904.5c0 8.28-6.72 15-15 15-8.28 0-15-6.72-15-15 0-8.28 6.72-15 15-15 8.28 0 15 6.72 15 15z" stroke="#3a414a" fill="#fff"/><path d="M441 1123.3h382.12" stroke="#3a414a" fill="none"/><path d="M441 1123.77h-.5v-.95h.5z" stroke="#3a414a" stroke-width=".05" fill="#3a414a"/><path d="M837.88 1123.3l-14.26 4.63v-9.27z" stroke="#3a414a" fill="#3a414a"/><path d="M839 1600.5h-2m-3.97 0h-3.98m-3.98 0h-3.98m-4 0h-3.97m-3.98 0h-3.98m-3.98 0h-4m-3.97 0h-3.98m-3.98 0h-3.98m-4 0h-3.97m-3.98 0h-3.98m-3.98 0h-4m-3.97 0h-3.98m-3.98 0h-3.98m-4 0h-3.97m-3.98 0h-3.98m-3.98 0h-4m-3.97 0h-3.98m-3.98 0h-3.98m-4 0h-3.97m-3.98 0h-3.98m-3.98 0h-4m-3.97 0h-3.98m-3.98 0h-3.98m-4 0h-3.97m-3.98 0h-3.98m-3.98 0h-4m-3.97 0h-3.98m-3.98 0h-3.98m-4 0h-3.98m-3.98 0h-3.98m-3.98 0h-3.98m-3.98 0h-3.98m-3.98 0h-3.98m-3.98 0h-3.98m-3.98 0h-3.98m-4 0h-3.97m-4 0h-3.97m-3.98 0h-3.98m-3.98 0h-4m-3.97 0h-3.98m-3.98 0h-3.98m-4 0h-3.98m-3.98 0h-3.98m-3.98 0h-3.98m-3.98 0h-3.98m-3.98 0h-3.98m-3.98 0h-3.98m-3.98 0h-3.98m-4 0h-1.98" stroke="#3a414a" fill="none"/><path d="M839.5 1600.5h3v.47H839v-.94h.5z" stroke="#3a414a" stroke-width=".05" fill="#3a414a"/><path d="M442.12 1600.5l14.26-4.63v9.27z" stroke="#3a414a" fill="#3a414a"/><path d="M520 1026a6 6 0 0 1 6-6h228a6 6 0 0 1 6 6v68a6 6 0 0 1-6 6H526a6 6 0 0 1-6-6z" stroke="#000" stroke-opacity="0" fill="#fff" fill-opacity="0"/><use xlink:href="#m" transform="matrix(1,0,0,1,525,1025) translate(83.42447916666667 46.002604166666664)"/><use xlink:href="#n" transform="matrix(1,0,0,1,525,1025) translate(138.97135416666669 46.002604166666664)"/><path d="M520 1506a6 6 0 0 1 6-6h228a6 6 0 0 1 6 6v68a6 6 0 0 1-6 6H526a6 6 0 0 1-6-6z" stroke="#000" stroke-opacity="0" fill="#fff" fill-opacity="0"/><use xlink:href="#o" transform="matrix(1,0,0,1,525,1505) translate(43.60677083333334 46.002604166666664)"/><use xlink:href="#p" transform="matrix(1,0,0,1,525,1505) translate(123.69791666666667 46.002604166666664)"/><path d="M1401 1123.3h382.12" stroke="#3a414a" fill="none"/><path d="M1401 1123.77h-.5v-.95h.5z" stroke="#3a414a" stroke-width=".05" fill="#3a414a"/><path d="M1797.88 1123.3l-14.26 4.63v-9.27z" stroke="#3a414a" fill="#3a414a"/><path d="M1799.24 1600.5h-2.02m-4.05 0h-4.04m-4.04 0h-4.05m-4.04 0h-4.03m-4.04 0h-4.04m-4.05 0h-4.04m-4.03 0h-4.04m-4.04 0h-4.05m-4.04 0h-4.03m-4.04 0h-4.05m-4.04 0h-4.04m-4.04 0h-4.04m-4.04 0h-4.04m-4.04 0h-4.04m-4.04 0h-4.04m-4.04 0H1676m-4.04 0h-4.04m-4.05 0h-4.04m-4.04 0h-4.05m-4.04 0h-4.03m-4.04 0h-4.04m-4.05 0h-4.04m-4.03 0h-4.04m-4.04 0h-4.05m-4.04 0h-4.03m-4.05 0h-4.04m-4.04 0h-4.04m-4.04 0h-4.04m-4.04 0h-4.04m-4.04 0h-4.04m-4.04 0h-4.04m-4.04 0h-4.04m-4.04 0h-4.05m-4.02 0h-4.05m-4.04 0h-4.05m-4.04 0h-4.03m-4.04 0h-4.04m-4.05 0h-4.04m-4.03 0h-4.04m-4.04 0h-4.05m-4.04 0h-4.04m-4.04 0h-4.04m-4.04 0h-4.04m-4.04 0h-4.04m-4.04 0h-4.04m-4.04 0h-4.04m-4.04 0h-4.04m-4.04 0h-4.04m-4.04 0h-2.02" stroke="#3a414a" fill="none"/><path d="M1799.5 1600.5h3.24v.47h-3.52v-.94h.28z" stroke="#3a414a" stroke-width=".05" fill="#3a414a"/><path d="M1396.57 1600.5l14.27-4.63v9.27z" stroke="#3a414a" fill="#3a414a"/><path d="M1480 1506a6 6 0 0 1 6-6h228a6 6 0 0 1 6 6v68a6 6 0 0 1-6 6h-228a6 6 0 0 1-6-6z" stroke="#000" stroke-opacity="0" fill="#fff" fill-opacity="0"/><use xlink:href="#o" transform="matrix(1,0,0,1,1485,1505) translate(43.60677083333334 46.002604166666664)"/><use xlink:href="#p" transform="matrix(1,0,0,1,1485,1505) translate(123.69791666666667 46.002604166666664)"/><path d="M1480 1026a6 6 0 0 1 6-6h228a6 6 0 0 1 6 6v68a6 6 0 0 1-6 6h-228a6 6 0 0 1-6-6z" stroke="#000" stroke-opacity="0" fill="#fff" fill-opacity="0"/><use xlink:href="#q" transform="matrix(1,0,0,1,1485,1025) translate(47.63020833333334 46.002604166666664)"/><use xlink:href="#r" transform="matrix(1,0,0,1,1485,1025) translate(119.21875 46.002604166666664)"/><use xlink:href="#s" transform="matrix(1,0,0,1,1485,1025) translate(174.765625 46.002604166666664)"/><path d="M320 1966a6 6 0 0 1 6-6h628a6 6 0 0 1 6 6v108a6 6 0 0 1-6 6H326a6 6 0 0 1-6-6z" stroke="#000" stroke-opacity="0" fill="#fff" fill-opacity="0"/><use xlink:href="#t" transform="matrix(1,0,0,1,325,1965) translate(35.735677083333314 45.690104166666664)"/><use xlink:href="#u" transform="matrix(1,0,0,1,325,1965) translate(193.30078125 45.690104166666664)"/><use xlink:href="#v" transform="matrix(1,0,0,1,325,1965) translate(285.72265625 45.690104166666664)"/><use xlink:href="#w" transform="matrix(1,0,0,1,325,1965) translate(340.0846354166667 45.690104166666664)"/><use xlink:href="#x" transform="matrix(1,0,0,1,325,1965) translate(395.9049479166667 45.690104166666664)"/><use xlink:href="#y" transform="matrix(1,0,0,1,325,1965) translate(427.9752604166667 45.690104166666664)"/><use xlink:href="#z" transform="matrix(1,0,0,1,325,1965) translate(158.61328125 82.00520833333333)"/><use xlink:href="#A" transform="matrix(1,0,0,1,325,1965) translate(201.75130208333334 82.00520833333333)"/><use xlink:href="#B" transform="matrix(1,0,0,1,325,1965) translate(361.6080729166667 82.00520833333333)"/><path d="M1280 1966a6 6 0 0 1 6-6h628a6 6 0 0 1 6 6v108a6 6 0 0 1-6 6h-628a6 6 0 0 1-6-6z" stroke="#000" stroke-opacity="0" fill="#fff" fill-opacity="0"/><use xlink:href="#t" transform="matrix(1,0,0,1,1285,1965) translate(29.9609375 45.690104166666664)"/><use xlink:href="#u" transform="matrix(1,0,0,1,1285,1965) translate(187.52604166666669 45.690104166666664)"/><use xlink:href="#C" transform="matrix(1,0,0,1,1285,1965) translate(279.9479166666667 45.690104166666664)"/><use xlink:href="#D" transform="matrix(1,0,0,1,1285,1965) translate(333.13802083333337 45.690104166666664)"/><use xlink:href="#x" transform="matrix(1,0,0,1,1285,1965) translate(401.6796875 45.690104166666664)"/><use xlink:href="#y" transform="matrix(1,0,0,1,1285,1965) translate(433.75 45.690104166666664)"/><use xlink:href="#z" transform="matrix(1,0,0,1,1285,1965) translate(162.39583333333331 82.00520833333333)"/><use xlink:href="#A" transform="matrix(1,0,0,1,1285,1965) translate(205.53385416666666 82.00520833333333)"/><use xlink:href="#E" transform="matrix(1,0,0,1,1285,1965) translate(365.390625 82.00520833333333)"/><path d="M2240 1966a6 6 0 0 1 6-6h628a6 6 0 0 1 6 6v108a6 6 0 0 1-6 6h-628a6 6 0 0 1-6-6z" stroke="#000" stroke-opacity="0" fill="#fff" fill-opacity="0"/><g><use xlink:href="#t" transform="matrix(1,0,0,1,2245,1965) translate(29.9609375 45.690104166666664)"/><use xlink:href="#u" transform="matrix(1,0,0,1,2245,1965) translate(187.52604166666669 45.690104166666664)"/><use xlink:href="#C" transform="matrix(1,0,0,1,2245,1965) translate(279.9479166666667 45.690104166666664)"/><use xlink:href="#D" transform="matrix(1,0,0,1,2245,1965) translate(333.13802083333337 45.690104166666664)"/><use xlink:href="#x" transform="matrix(1,0,0,1,2245,1965) translate(401.6796875 45.690104166666664)"/><use xlink:href="#y" transform="matrix(1,0,0,1,2245,1965) translate(433.75 45.690104166666664)"/><use xlink:href="#F" transform="matrix(1,0,0,1,2245,1965) translate(181.90104166666666 82.00520833333333)"/><use xlink:href="#E" transform="matrix(1,0,0,1,2245,1965) translate(345.8854166666667 82.00520833333333)"/></g><path d="M2361 1123.3h382.12" stroke="#3a414a" fill="none"/><path d="M2361 1123.77h-.5v-.95h.5z" stroke="#3a414a" stroke-width=".05" fill="#3a414a"/><path d="M2757.88 1123.3l-14.26 4.63v-9.27z" stroke="#3a414a" fill="#3a414a"/><path d="M2760 1160h80v200h-80z" stroke="#282c33" fill="#fff"/><path d="M2759 1162.72h-2m-3.97 0h-3.98m-3.98 0h-3.98m-4 0h-3.97m-3.98 0h-3.98m-3.98 0h-4m-3.97 0h-4m-3.97 0h-3.98m-3.98 0h-3.98m-3.98 0h-3.98m-3.98 0h-3.98m-3.98 0h-3.98m-3.98 0h-3.98m-3.98 0h-3.98m-3.98 0h-3.98m-3.98 0h-3.98m-3.98 0h-3.98m-3.98 0h-3.98m-3.98 0h-3.98m-3.98 0h-3.98m-4 0h-3.97m-4 0h-3.97m-3.98 0h-3.98m-3.98 0h-4m-3.97 0h-3.98m-3.98 0H2558m-4 0h-3.97m-3.98 0h-3.98m-3.98 0h-4m-3.97 0h-3.98m-3.98 0h-3.98m-4 0h-3.97m-3.98 0h-3.98m-4 0h-3.97m-3.98 0h-3.98m-3.98 0h-3.98m-3.98 0h-3.98m-3.98 0h-3.98m-3.98 0h-3.98m-3.98 0h-3.98m-3.98 0h-3.98m-3.98 0h-3.98m-3.98 0h-3.98m-3.98 0h-3.98m-3.98 0h-3.98m-3.98 0h-3.98m-3.98 0h-4m-3.97 0h-3.98m-3.98 0h-2" stroke="#3a414a" fill="none"/><path d="M2759.5 1163.2h-.5v-.96h.5z" stroke="#3a414a" stroke-width=".05" fill="#3a414a"/><path d="M2362.12 1162.72l14.26-4.64v9.27z" stroke="#3a414a" fill="#3a414a"/><path d="M2361 1362h382.12" stroke="#3a414a" fill="none"/><path d="M2361 1362.5h-.5v-.96h.5z" stroke="#3a414a" stroke-width=".05" fill="#3a414a"/><path d="M2757.88 1362l-14.26 4.65v-9.27z" stroke="#3a414a" fill="#3a414a"/><path d="M2759 1600.06h-2m-3.97 0h-3.98m-3.98 0h-3.98m-4 0h-3.97m-3.98 0h-3.98m-3.98 0h-4m-3.97 0h-4m-3.97 0h-3.98m-3.98 0h-3.98m-3.98 0h-3.98m-3.98 0h-3.98m-3.98 0h-3.98m-3.98 0h-3.98m-3.98 0h-3.98m-3.98 0h-3.98m-3.98 0h-3.98m-3.98 0h-3.98m-3.98 0h-3.98m-3.98 0h-3.98m-3.98 0h-3.98m-4 0h-3.97m-4 0h-3.97m-3.98 0h-3.98m-3.98 0h-4m-3.97 0h-3.98m-3.98 0H2558m-4 0h-3.97m-3.98 0h-3.98m-3.98 0h-4m-3.97 0h-3.98m-3.98 0h-3.98m-4 0h-3.97m-3.98 0h-3.98m-4 0h-3.97m-3.98 0h-3.98m-3.98 0h-3.98m-3.98 0h-3.98m-3.98 0h-3.98m-3.98 0h-3.98m-3.98 0h-3.98m-3.98 0h-3.98m-3.98 0h-3.98m-3.98 0h-3.98m-3.98 0h-3.98m-3.98 0h-3.98m-3.98 0h-3.98m-3.98 0h-4m-3.97 0h-3.98m-3.98 0h-2" stroke="#3a414a" fill="none"/><path d="M2759.5 1600.06h3v.47h-3.5v-.95h.5z" stroke="#3a414a" stroke-width=".05" fill="#3a414a"/><path d="M2362.12 1600.06l14.26-4.64v9.27z" stroke="#3a414a" fill="#3a414a"/><path d="M2440 1026a6 6 0 0 1 6-6h228a6 6 0 0 1 6 6v68a6 6 0 0 1-6 6h-228a6 6 0 0 1-6-6z" stroke="#000" stroke-opacity="0" fill="#fff" fill-opacity="0"/><g><use xlink:href="#m" transform="matrix(1,0,0,1,2445,1025) translate(83.42447916666667 46.002604166666664)"/><use xlink:href="#n" transform="matrix(1,0,0,1,2445,1025) translate(138.97135416666669 46.002604166666664)"/></g><path d="M2440 1186a6 6 0 0 1 6-6h228a6 6 0 0 1 6 6v68a6 6 0 0 1-6 6h-228a6 6 0 0 1-6-6z" stroke="#000" stroke-opacity="0" fill="#fff" fill-opacity="0"/><g><use xlink:href="#G" transform="matrix(1,0,0,1,2445,1185) translate(67.51302083333334 46.002604166666664)"/></g><path d="M2440 1286a6 6 0 0 1 6-6h228a6 6 0 0 1 6 6v68a6 6 0 0 1-6 6h-228a6 6 0 0 1-6-6z" stroke="#000" stroke-opacity="0" fill="#fff" fill-opacity="0"/><g><use xlink:href="#q" transform="matrix(1,0,0,1,2445,1285) translate(47.63020833333334 46.002604166666664)"/><use xlink:href="#r" transform="matrix(1,0,0,1,2445,1285) translate(119.21875 46.002604166666664)"/><use xlink:href="#s" transform="matrix(1,0,0,1,2445,1285) translate(174.765625 46.002604166666664)"/></g><path d="M2440 1506a6 6 0 0 1 6-6h228a6 6 0 0 1 6 6v68a6 6 0 0 1-6 6h-228a6 6 0 0 1-6-6z" stroke="#000" stroke-opacity="0" fill="#fff" fill-opacity="0"/><g><use xlink:href="#o" transform="matrix(1,0,0,1,2445,1505) translate(43.60677083333334 46.002604166666664)"/><use xlink:href="#p" transform="matrix(1,0,0,1,2445,1505) translate(123.69791666666667 46.002604166666664)"/></g><path d="M2240 486a6 6 0 0 1 6-6h628a6 6 0 0 1 6 6v148a6 6 0 0 1-6 6h-628a6 6 0 0 1-6-6z" stroke="#000" stroke-opacity="0" fill="#fff" fill-opacity="0"/><g><use xlink:href="#e" transform="matrix(1,0,0,1,2245,485) translate(144.55078125000003 70.87890624999999)"/><use xlink:href="#f" transform="matrix(1,0,0,1,2245,485) translate(411.38671875 70.87890624999999)"/><use xlink:href="#g" transform="matrix(1,0,0,1,2245,485) translate(20.930989583333485 111.10026041666664)"/><use xlink:href="#h" transform="matrix(1,0,0,1,2245,485) translate(135.6835937500001 111.10026041666664)"/><use xlink:href="#H" transform="matrix(1,0,0,1,2245,485) translate(183.6263020833334 111.10026041666664)"/><use xlink:href="#i" transform="matrix(1,0,0,1,2245,485) translate(232.44140625000003 111.10026041666664)"/><use xlink:href="#j" transform="matrix(1,0,0,1,2245,485) translate(393.15755208333326 111.10026041666664)"/><use xlink:href="#k" transform="matrix(1,0,0,1,2245,485) translate(506.3346354166665 111.10026041666664)"/><use xlink:href="#l" transform="matrix(1,0,0,1,2245,485) translate(542.5065104166665 111.10026041666664)"/></g><defs><path fill="#3a414a" d="M844-1321c-130 0-195 53-191 182v57h443v190H653V0H373v-892H117v-190h256v-83c5-247 162-348 422-349 120-1 232 13 327 28v184c-84-10-183-19-278-19" id="I"/><path fill="#3a414a" d="M616-1102c361 0 521 202 521 560 0 354-171 562-527 562C259 20 92-192 92-542c0-351 169-560 524-560zm-9 930c200-2 236-165 236-370 0-199-27-367-223-367-195 0-233 146-233 367 0 129 18 223 55 282s92 88 165 88" id="J"/><path fill="#3a414a" d="M621-530c0 421 127 700 301 955H641C466 173 344-110 344-531s122-702 297-953h281c-174 254-301 534-301 954" id="K"/><path fill="#3a414a" d="M885-531c0 421-122 704-297 956H307c174-255 301-534 301-955 0-420-127-700-301-954h281c175 251 297 532 297 953" id="L"/><g id="a"><use transform="matrix(0.013020833333333332,0,0,0.013020833333333332,0,0)" xlink:href="#I"/><use transform="matrix(0.013020833333333332,0,0,0.013020833333333332,16.002604166666664,0)" xlink:href="#J"/><use transform="matrix(0.013020833333333332,0,0,0.013020833333333332,32.00520833333333,0)" xlink:href="#J"/><use transform="matrix(0.013020833333333332,0,0,0.013020833333333332,48.00781249999999,0)" xlink:href="#K"/><use transform="matrix(0.013020833333333332,0,0,0.013020833333333332,64.01041666666666,0)" xlink:href="#L"/></g><path fill="#3a414a" d="M429-1484c1 190-1 388 0 572 54-116 155-191 317-191 300 0 386 257 386 563 0 241-73 429-226 518-49 28-106 42-169 42-162 0-251-81-306-196h-4c-1 59-5 127-15 176H140c4-67 9-153 8-236v-1248h281zm66 648c-93 114-92 466 1 585 35 45 77 79 142 79 64 0 112-31 148-92 69-115 68-440-2-561-39-68-131-111-221-70-25 11-46 32-68 59" id="M"/><path fill="#3a414a" d="M775-193C708-75 621 20 439 20 226 20 106-93 106-306c0-251 170-341 417-346l223-4c4-143-12-264-148-264-103 0-141 58-150 153l-293-14c37-219 194-321 455-321 263 0 418 130 417 390v392c1 84 5 161 89 160 21 0 42-2 62-6v152c-57 15-108 27-180 26-145 0-202-73-217-205h-6zm-256 17c168 0 234-139 227-325-166 4-347-25-347 173 0 94 33 152 120 152" id="N"/><path fill="#3a414a" d="M875-1102c70 0 148 7 206 17v237c-110-17-267-37-359 15-123 69-192 207-192 395V0H250c-10-367 32-789-52-1082h271c19 69 36 149 46 228h4c52-151 151-250 356-248" id="O"/><g id="b"><use transform="matrix(0.013020833333333332,0,0,0.013020833333333332,0,0)" xlink:href="#M"/><use transform="matrix(0.013020833333333332,0,0,0.013020833333333332,16.002604166666664,0)" xlink:href="#N"/><use transform="matrix(0.013020833333333332,0,0,0.013020833333333332,32.00520833333333,0)" xlink:href="#O"/><use transform="matrix(0.013020833333333332,0,0,0.013020833333333332,48.00781249999999,0)" xlink:href="#K"/><use transform="matrix(0.013020833333333332,0,0,0.013020833333333332,64.01041666666666,0)" xlink:href="#L"/></g><path fill="#3a414a" d="M596-1225c-134-8-223 103-163 219 11 21 33 41 61 60s93 53 196 102c137 65 230 130 281 196s76 147 76 242c-3 286-231 426-539 426C352 20 214-9 94-68v-288c159 68 260 115 438 120 123 3 211-41 211-155 0-73-44-105-95-141-63-46-329-160-390-220-78-77-147-167-147-315 0-273 208-420 495-416 177 2 298 46 434 103l-100 241c-131-51-199-78-344-86" id="P"/><path fill="#3a414a" d="M0-1118h334l211 629c18 55 30 119 37 194h6c7-69 23-133 43-194l207-629h327L692 143C611 389 392 544 70 475V233c95 21 196 18 262-37 50-42 89-123 112-204" id="Q"/><path fill="#3a414a" d="M795-1139c261-1 398 148 397 410V0H887v-653c-1-148-42-242-180-242-202 0-242 139-242 369V0H160v-1118h233l41 143h17c62-102 185-163 344-164" id="R"/><path fill="#3a414a" d="M954-63C853 0 774 20 614 20 266 20 92-171 92-553c0-369 188-586 549-586 129 0 245 25 348 76l-90 236c-84-31-156-66-258-66-159 0-238 113-238 338 0 219 79 328 238 328 137 0 223-38 313-97v261" id="S"/><path fill="#3a414a" d="M451-930c71-134 228-244 436-200l-23 286c-220-45-399 61-399 275V0H160v-1118h231l45 188h15" id="T"/><path fill="#3a414a" d="M633-893c-183 0-230 133-230 332s48 336 232 336c183 0 229-137 229-336s-47-332-231-332zm4-246c347 5 535 225 539 578S978 25 631 20C283 15 96-208 92-561c-4-355 196-583 545-578" id="U"/><path fill="#3a414a" d="M639-223c202 0 242-139 242-369v-526h305V0H952l-41-143h-16C834-43 709 20 551 20c-263 0-397-147-397-409v-729h305v653c1 148 42 242 180 242" id="V"/><path fill="#3a414a" d="M836-831c-99-39-182-77-306-82-139-6-173 83-92 144 51 39 327 139 383 188 71 62 119 126 119 249C940-74 747 21 463 20 305 20 202 0 94-45v-252c93 45 253 94 379 94 111 0 166-32 166-96 0-68-41-76-98-109-79-46-276-119-333-167-74-61-116-125-116-252 0-368 555-367 836-224" id="W"/><g id="c"><use transform="matrix(0.019531249999999993,0,0,0.019531249999999993,0,0)" xlink:href="#P"/><use transform="matrix(0.019531249999999993,0,0,0.019531249999999993,22.031249999999993,0)" xlink:href="#Q"/><use transform="matrix(0.019531249999999993,0,0,0.019531249999999993,44.785156249999986,0)" xlink:href="#R"/><use transform="matrix(0.019531249999999993,0,0,0.019531249999999993,71.07421874999997,0)" xlink:href="#S"/><use transform="matrix(0.019531249999999993,0,0,0.019531249999999993,91.64062499999997,0)" xlink:href="#T"/><use transform="matrix(0.019531249999999993,0,0,0.019531249999999993,109.00390624999999,0)" xlink:href="#U"/><use transform="matrix(0.019531249999999993,0,0,0.019531249999999993,133.76953124999997,0)" xlink:href="#R"/><use transform="matrix(0.019531249999999993,0,0,0.019531249999999993,160.05859374999997,0)" xlink:href="#U"/><use transform="matrix(0.019531249999999993,0,0,0.019531249999999993,184.82421874999997,0)" xlink:href="#V"/><use transform="matrix(0.019531249999999993,0,0,0.019531249999999993,211.11328124999997,0)" xlink:href="#W"/></g><path fill="#3a414a" d="M1133-1128c-95-42-202-97-328-97-258 0-367 218-367 498 0 326 122 489 367 489 103 0 227-26 373-77v260C1058-5 924 20 776 20c-443 0-662-290-657-749 5-455 236-754 686-754 142 0 285 34 428 103" id="X"/><path fill="#3a414a" d="M618-1141c286 0 465 117 465 396V0H870l-59-152h-8C704-33 632 18 432 20 216 22 86-113 86-334c0-119 44-202 124-262 109-82 356-99 570-100 11-142-39-219-174-219-89 0-194 27-315 81l-101-206c129-67 271-101 428-101zm-71 938c137 0 235-88 233-223v-92c-190 3-382 4-381 186 0 86 49 129 148 129" id="Y"/><path fill="#3a414a" d="M465 0H160v-1556h305V0" id="Z"/><g id="d"><use transform="matrix(0.019531249999999993,0,0,0.019531249999999993,0,0)" xlink:href="#X"/><use transform="matrix(0.019531249999999993,0,0,0.019531249999999993,25.48828124999999,0)" xlink:href="#Y"/><use transform="matrix(0.019531249999999993,0,0,0.019531249999999993,49.648437499999986,0)" xlink:href="#Z"/><use transform="matrix(0.019531249999999993,0,0,0.019531249999999993,61.855468749999986,0)" xlink:href="#Z"/></g><path fill="#3a414a" d="M1079 0L973-348H440L334 0H0l516-1468h379L1413 0h-334zM899-608c-127-415-146-457-192-633-22 85-85 296-189 633h381" id="aa"/><g id="e"><use transform="matrix(0.019531249999999993,0,0,0.019531249999999993,0,0)" xlink:href="#aa"/><use transform="matrix(0.019531249999999993,0,0,0.019531249999999993,27.59765624999999,0)" xlink:href="#W"/><use transform="matrix(0.019531249999999993,0,0,0.019531249999999993,47.480468749999986,0)" xlink:href="#Q"/><use transform="matrix(0.019531249999999993,0,0,0.019531249999999993,70.23437499999997,0)" xlink:href="#R"/><use transform="matrix(0.019531249999999993,0,0,0.019531249999999993,96.52343749999997,0)" xlink:href="#S"/><use transform="matrix(0.019531249999999993,0,0,0.019531249999999993,117.08984374999994,0)" xlink:href="#T"/><use transform="matrix(0.019531249999999993,0,0,0.019531249999999993,134.45312499999994,0)" xlink:href="#U"/><use transform="matrix(0.019531249999999993,0,0,0.019531249999999993,159.21874999999994,0)" xlink:href="#R"/><use transform="matrix(0.019531249999999993,0,0,0.019531249999999993,185.50781249999994,0)" xlink:href="#U"/><use transform="matrix(0.019531249999999993,0,0,0.019531249999999993,210.27343749999997,0)" xlink:href="#V"/><use transform="matrix(0.019531249999999993,0,0,0.019531249999999993,236.56249999999994,0)" xlink:href="#W"/></g><g id="f"><use transform="matrix(0.019531249999999993,0,0,0.019531249999999993,0,0)" xlink:href="#X"/><use transform="matrix(0.019531249999999993,0,0,0.019531249999999993,25.48828124999999,0)" xlink:href="#Y"/><use transform="matrix(0.019531249999999993,0,0,0.019531249999999993,49.648437499999986,0)" xlink:href="#Z"/><use transform="matrix(0.019531249999999993,0,0,0.019531249999999993,61.855468749999986,0)" xlink:href="#Z"/></g><path fill="#3a414a" d="M371 0H201v-1462h815v151H371v535h606v151H371V0" id="ab"/><path fill="#3a414a" d="M563 20c-271 0-399-123-399-399v-717h168v711c1 177 76 266 252 266 250 0 331-135 331-401v-576h166V0H944l-24-147h-9C848-44 724 20 563 20" id="ac"/><path fill="#3a414a" d="M694-1116c270 0 399 125 398 401V0H926v-709c-1-177-76-266-252-266-250 0-332 133-332 400V0H176v-1096h135l27 150h8c62-101 190-170 348-170" id="ad"/><path fill="#3a414a" d="M287-543c-1 247 91 418 323 418 91 0 185-20 281-59v147C818 1 725 20 614 20c-329 0-499-221-499-561 0-349 172-575 510-575 96 0 221 26 282 57l-51 141c-61-25-157-50-235-51-223 0-334 142-334 426" id="ae"/><path fill="#3a414a" d="M354-322c-2 123 60 204 176 205 51 1 114-10 150-20v127C647 7 557 20 506 20 294 20 188-92 188-315v-652H31v-80l157-69 70-234h96v254h318v129H354v645" id="af"/><path fill="#3a414a" d="M342 0H176v-1096h166V0zm-82-1282c-61 0-98-43-98-111 0-69 36-110 98-110 59 0 98 43 98 110s-39 111-98 111" id="ag"/><path fill="#3a414a" d="M621-1116c316 0 501 239 501 567 0 339-180 575-508 569S119-212 115-549c-4-339 178-567 506-567zm-5 141c-239 0-329 168-329 426 0 255 93 430 331 430s332-174 332-430-95-426-334-426" id="ah"/><g id="g"><use transform="matrix(0.013020833333333327,0,0,0.013020833333333327,0,0)" xlink:href="#ab"/><use transform="matrix(0.013020833333333327,0,0,0.013020833333333327,13.763020833333327,0)" xlink:href="#ac"/><use transform="matrix(0.013020833333333327,0,0,0.013020833333333327,30.130208333333318,0)" xlink:href="#ad"/><use transform="matrix(0.013020833333333327,0,0,0.013020833333333327,46.497395833333314,0)" xlink:href="#ae"/><use transform="matrix(0.013020833333333327,0,0,0.013020833333333327,59.19270833333331,0)" xlink:href="#af"/><use transform="matrix(0.013020833333333327,0,0,0.013020833333333327,68.6067708333333,0)" xlink:href="#ag"/><use transform="matrix(0.013020833333333327,0,0,0.013020833333333327,75.35156249999996,0)" xlink:href="#ah"/><use transform="matrix(0.013020833333333327,0,0,0.013020833333333327,91.45833333333329,0)" xlink:href="#ad"/></g><path fill="#3a414a" d="M588-1114c260 0 384 106 385 366V0H850l-33-156h-8C708-34 639 17 442 20 231 23 94-94 94-303c0-221 177-337 531-348l186-6c11-203-40-320-233-320-91 0-195 28-310 84l-51-127c97-53 229-94 371-94zM268-301c-1 123 81 184 207 184 203 0 334-120 332-323v-99c-257 14-539-7-539 238" id="ai"/><path fill="#3a414a" d="M342 0H176v-1556h166V0" id="aj"/><g id="h"><use transform="matrix(0.013020833333333327,0,0,0.013020833333333327,0,0)" xlink:href="#ae"/><use transform="matrix(0.013020833333333327,0,0,0.013020833333333327,12.695312499999995,0)" xlink:href="#ai"/><use transform="matrix(0.013020833333333327,0,0,0.013020833333333327,27.526041666666654,0)" xlink:href="#aj"/><use transform="matrix(0.013020833333333327,0,0,0.013020833333333327,34.270833333333314,0)" xlink:href="#aj"/></g><path fill="#3a414a" d="M1368-1116c259 2 372 131 371 401V0h-166v-713c0-168-66-262-230-262-221 0-303 131-303 363V0H874v-713c-1-169-66-262-231-262-235 0-301 142-301 400V0H176v-1096h135l27 150h8c56-99 174-170 324-170 171 0 283 62 336 186h8c60-108 189-187 354-186" id="ak"/><path fill="#3a414a" d="M995-51C878-2 799 19 639 20c-329 2-524-221-524-559 0-326 172-577 481-577 278 0 451 210 446 493v105H287c4 242 121 392 358 393 118 0 235-25 350-74v148zM864-653c2-195-85-324-270-324-190 0-288 139-303 324h573" id="al"/><path fill="#3a414a" d="M115-545c0-330 146-571 454-571 149 0 263 54 342 162h13c-20-185-8-401-11-602h166V0H944l-22-147h-9C836-36 722 20 569 20c-309 0-454-234-454-565zm172 2c0 249 78 424 303 424 257 0 327-150 323-426-4-282-68-432-325-432-220 0-301 191-301 434" id="am"/><path fill="#3a414a" d="M526-162c88-293 120-356 326-934h178L559 152c-47 123-102 209-163 262-93 80-237 94-380 61V342c184 39 305-9 367-180L444 6 2-1096h178c103 283 263 645 338 934h8" id="an"/><g id="i"><use transform="matrix(0.013020833333333327,0,0,0.013020833333333327,0,0)" xlink:href="#ag"/><use transform="matrix(0.013020833333333327,0,0,0.013020833333333327,6.744791666666663,0)" xlink:href="#ak"/><use transform="matrix(0.013020833333333327,0,0,0.013020833333333327,31.54947916666665,0)" xlink:href="#ak"/><use transform="matrix(0.013020833333333327,0,0,0.013020833333333327,56.354166666666636,0)" xlink:href="#al"/><use transform="matrix(0.013020833333333327,0,0,0.013020833333333327,71.31510416666663,0)" xlink:href="#am"/><use transform="matrix(0.013020833333333327,0,0,0.013020833333333327,87.65624999999996,0)" xlink:href="#ag"/><use transform="matrix(0.013020833333333327,0,0,0.013020833333333327,94.40104166666661,0)" xlink:href="#ai"/><use transform="matrix(0.013020833333333327,0,0,0.013020833333333327,109.23177083333329,0)" xlink:href="#af"/><use transform="matrix(0.013020833333333327,0,0,0.013020833333333327,118.64583333333327,0)" xlink:href="#al"/><use transform="matrix(0.013020833333333327,0,0,0.013020833333333327,133.60677083333326,0)" xlink:href="#aj"/><use transform="matrix(0.013020833333333327,0,0,0.013020833333333327,140.35156249999991,0)" xlink:href="#an"/></g><path fill="#3a414a" d="M575-1430c-169 0-190 146-184 334h279v129H391V0H225v-967H29v-75l196-60c-15-299 97-465 353-465 58 0 126 12 204 35l-43 133c-64-21-119-31-164-31" id="ao"/><path fill="#3a414a" d="M1169-178c39-215 75-309 230-918h172L1268 0h-197c-99-332-184-548-272-911h-8C712-564 610-319 514 0H322L23-1096h174c71 275 124 485 161 629s59 241 64 291h8c76-328 186-611 279-920h180l196 629c37 115 63 211 76 289h8" id="ap"/><g id="j"><use transform="matrix(0.013020833333333327,0,0,0.013020833333333327,0,0)" xlink:href="#ao"/><use transform="matrix(0.013020833333333327,0,0,0.013020833333333327,9.036458333333329,0)" xlink:href="#ah"/><use transform="matrix(0.013020833333333327,0,0,0.013020833333333327,25.143229166666654,0)" xlink:href="#aj"/><use transform="matrix(0.013020833333333327,0,0,0.013020833333333327,31.888020833333318,0)" xlink:href="#aj"/><use transform="matrix(0.013020833333333327,0,0,0.013020833333333327,38.63281249999998,0)" xlink:href="#ah"/><use transform="matrix(0.013020833333333327,0,0,0.013020833333333327,54.20572916666664,0)" xlink:href="#ap"/><use transform="matrix(0.013020833333333327,0,0,0.013020833333333327,74.94791666666663,0)" xlink:href="#al"/><use transform="matrix(0.013020833333333327,0,0,0.013020833333333327,89.90885416666663,0)" xlink:href="#am"/></g><path fill="#3a414a" d="M686 20c-159 0-273-61-344-161h-12L295 0H176v-1556h166c-2 198 6 423-8 606h8c77-109 192-164 344-164 310 0 455 234 455 565 0 329-147 569-455 569zm283-571c0-257-72-424-307-424-256 0-320 146-320 426s68 430 324 430c228 0 303-184 303-432" id="aq"/><g id="k"><use transform="matrix(0.013020833333333327,0,0,0.013020833333333327,0,0)" xlink:href="#aq"/><use transform="matrix(0.013020833333333327,0,0,0.013020833333333327,15.807291666666659,0)" xlink:href="#an"/></g><g id="l"><use transform="matrix(0.013020833333333327,0,0,0.013020833333333327,0,0)" xlink:href="#ai"/><use transform="matrix(0.013020833333333327,0,0,0.013020833333333327,14.830729166666659,0)" xlink:href="#ap"/><use transform="matrix(0.013020833333333327,0,0,0.013020833333333327,35.57291666666665,0)" xlink:href="#ai"/><use transform="matrix(0.013020833333333327,0,0,0.013020833333333327,50.40364583333331,0)" xlink:href="#ag"/><use transform="matrix(0.013020833333333327,0,0,0.013020833333333327,57.14843749999997,0)" xlink:href="#af"/></g><path fill="#3a414a" d="M782-1114c200 0 299 159 299 371 0 280-101 538-259 663C740-15 648 20 545 20c-141-1-238-84-281-190h-10L184 0H59l330-1556h168c-67 311-78 398-154 671h9c62-79 124-136 184-173s122-56 186-56zM319-346c-1 144 74 227 216 227 66 0 127-28 185-81 112-104 189-330 189-548 0-151-59-227-178-227-64 0-128 32-195 95-119 111-216 315-217 534" id="ar"/><path fill="#3a414a" d="M395 20C197 20 98-140 98-350c0-281 108-539 267-665 84-66 175-101 274-101 140 0 231 83 276 192h11l67-172h127L887 0H754l26-209h-8C653-56 527 20 395 20zM270-346c0 138 53 227 179 227 65 0 128-32 193-93 115-108 214-325 216-538 1-130-78-226-203-225-69 0-133 29-193 86-114 107-192 324-192 543" id="as"/><path fill="#3a414a" d="M638-1094c62-31 165-26 234-8l-36 150c-208-55-339 76-414 214-40 71-69 149-88 236L227 0H59l234-1096h139l-22 203h10c81-104 117-151 218-201" id="at"/><path fill="#3a414a" d="M229 324C29-17 45-526 202-899c80-192 208-380 384-563h157c-164 180-284 371-371 570C211-523 205-34 360 324H229" id="au"/><g id="m"><use transform="matrix(0.013020833333333332,0,0,0.013020833333333332,0,0)" xlink:href="#ar"/><use transform="matrix(0.013020833333333332,0,0,0.013020833333333332,15.390624999999998,0)" xlink:href="#as"/><use transform="matrix(0.013020833333333332,0,0,0.013020833333333332,30.455729166666664,0)" xlink:href="#at"/><use transform="matrix(0.013020833333333332,0,0,0.013020833333333332,41.015625,0)" xlink:href="#au"/></g><path fill="#3a414a" d="M354-1462c198 345 182 854 24 1228C297-42 170 144-4 324h-156C171-43 336-439 336-864c0-227-38-427-113-598h131" id="av"/><use transform="matrix(0.013020833333333332,0,0,0.013020833333333332,0,0)" xlink:href="#av" id="n"/><path fill="#3a414a" d="M817-59C704-8 636 18 492 20 245 23 98-141 98-391c0-259 120-515 272-629 83-63 172-96 271-96 187 0 307 79 307 252 0 120-56 213-166 282-115 72-291 106-508 103-23 208 46 364 248 358 126-4 186-33 295-84v146zm-35-791c0-80-59-123-151-123-69 0-133 31-193 94S331-729 299-618c155 1 279-19 361-60 81-40 122-97 122-172" id="aw"/><path fill="#3a414a" d="M303-365c-31 124-35 248 92 248 37 0 85-9 144-26v129C505 2 421 20 375 20c-162 0-258-76-258-237 0-44 6-94 18-150l127-602H90l14-73 185-78 125-228h98l-55 252h274l-26 127H432" id="ax"/><path fill="#3a414a" d="M387 20c-169 1-276-98-274-268 0-41 6-99 22-172l146-676h170L301-401c-37 146-30 289 129 282 155-7 253-113 323-232 112-195 137-497 199-745h166L887 0H748l22-203h-12C693-120 630-62 571-29S450 20 387 20" id="ay"/><path fill="#3a414a" d="M791-1116c166-2 276 98 274 264 0 53-9 112-23 180L899 0H729l148-692c13-69 20-117 20-144-2-90-51-143-149-139-156 7-254 112-322 231C314-549 290-247 227 0H59l234-1096h139l-22 203h10c64-81 126-139 186-173s121-50 185-50" id="az"/><g id="o"><use transform="matrix(0.013020833333333332,0,0,0.013020833333333332,0,0)" xlink:href="#at"/><use transform="matrix(0.013020833333333332,0,0,0.013020833333333332,10.026041666666666,0)" xlink:href="#aw"/><use transform="matrix(0.013020833333333332,0,0,0.013020833333333332,23.177083333333332,0)" xlink:href="#ax"/><use transform="matrix(0.013020833333333332,0,0,0.013020833333333332,31.822916666666664,0)" xlink:href="#ay"/><use transform="matrix(0.013020833333333332,0,0,0.013020833333333332,47.213541666666664,0)" xlink:href="#at"/><use transform="matrix(0.013020833333333332,0,0,0.013020833333333332,57.77343749999999,0)" xlink:href="#az"/></g><path fill="#3a414a" d="M223 0L98-1096h168c27 283 81 700 88 975h6c187-416 312-607 504-975h178L451 0H223" id="aA"/><path fill="#3a414a" d="M225 0H57l332-1556h168" id="aB"/><g id="p"><use transform="matrix(0.013020833333333332,0,0,0.013020833333333332,0,0)" xlink:href="#aA"/><use transform="matrix(0.013020833333333332,0,0,0.013020833333333332,12.317708333333332,0)" xlink:href="#as"/><use transform="matrix(0.013020833333333332,0,0,0.013020833333333332,27.382812499999996,0)" xlink:href="#aB"/><use transform="matrix(0.013020833333333332,0,0,0.013020833333333332,34.153645833333336,0)" xlink:href="#ay"/><use transform="matrix(0.013020833333333332,0,0,0.013020833333333332,49.544270833333336,0)" xlink:href="#aw"/></g><path fill="#3a414a" d="M958-145c122-335 154-375 406-951h178L1036 0H831c-14-307-41-606-36-930h-9C654-611 504-309 362 0H160l-43-1096h164c6 309 30 642 10 951h6c116-298 297-655 432-951h182c16 302 50 641 41 951h6" id="aC"/><path fill="#3a414a" d="M227 0H59l234-1096h168zm205-1282c-54 0-92-37-92-94 0-71 46-128 115-127 59 0 88 30 88 90 0 66-50 132-111 131" id="aD"/><g id="q"><use transform="matrix(0.013020833333333332,0,0,0.013020833333333332,0,0)" xlink:href="#as"/><use transform="matrix(0.013020833333333332,0,0,0.013020833333333332,15.065104166666666,0)" xlink:href="#aC"/><use transform="matrix(0.013020833333333332,0,0,0.013020833333333332,34.1796875,0)" xlink:href="#as"/><use transform="matrix(0.013020833333333332,0,0,0.013020833333333332,49.244791666666664,0)" xlink:href="#aD"/><use transform="matrix(0.013020833333333332,0,0,0.013020833333333332,56.01562499999999,0)" xlink:href="#ax"/></g><g id="r"><use transform="matrix(0.013020833333333332,0,0,0.013020833333333332,0,0)" xlink:href="#ar"/><use transform="matrix(0.013020833333333332,0,0,0.013020833333333332,15.390624999999998,0)" xlink:href="#as"/><use transform="matrix(0.013020833333333332,0,0,0.013020833333333332,30.455729166666664,0)" xlink:href="#at"/><use transform="matrix(0.013020833333333332,0,0,0.013020833333333332,41.015625,0)" xlink:href="#au"/></g><use transform="matrix(0.013020833333333332,0,0,0.013020833333333332,0,0)" xlink:href="#av" id="s"/><path fill="#3a414a" d="M584-1331c-162 0-287 69-287 219 0 118 43 164 123 214 44 28 112 56 203 89 153 55 259 113 317 176s86 144 86 244c-1 276-228 409-520 409-173 0-307-22-400-67v-164c109 46 257 81 406 82 199 1 342-68 342-244 0-120-47-164-132-214-47-28-121-58-218-93-136-49-234-106-292-173s-87-154-87-261c-1-239 209-369 463-369 145 0 279 27 401 80l-53 148c-121-51-238-76-352-76" id="aE"/><path fill="#3a414a" d="M502-977c-130 0-238 32-238 139 0 75 39 101 95 134 33 19 97 46 192 81 130 48 217 95 263 143s69 108 69 181C883-73 695 20 449 20 304 20 190-3 109-49v-154c91 47 216 86 344 86 149 0 270-36 270-168 0-43-21-76-55-109-56-55-367-158-434-208-74-55-128-109-128-225 0-327 490-342 754-217l-59 135c-110-45-210-68-299-68" id="aF"/><g id="t"><use transform="matrix(0.013020833333333332,0,0,0.013020833333333332,0,0)" xlink:href="#aE"/><use transform="matrix(0.013020833333333332,0,0,0.013020833333333332,14.635416666666666,0)" xlink:href="#ac"/><use transform="matrix(0.013020833333333332,0,0,0.013020833333333332,31.002604166666664,0)" xlink:href="#aq"/><use transform="matrix(0.013020833333333332,0,0,0.013020833333333332,47.34375,0)" xlink:href="#aF"/><use transform="matrix(0.013020833333333332,0,0,0.013020833333333332,60.065104166666664,0)" xlink:href="#af"/><use transform="matrix(0.013020833333333332,0,0,0.013020833333333332,69.47916666666666,0)" xlink:href="#ag"/><use transform="matrix(0.013020833333333332,0,0,0.013020833333333332,76.22395833333333,0)" xlink:href="#af"/><use transform="matrix(0.013020833333333332,0,0,0.013020833333333332,85.63802083333333,0)" xlink:href="#ac"/><use transform="matrix(0.013020833333333332,0,0,0.013020833333333332,102.00520833333333,0)" xlink:href="#af"/><use transform="matrix(0.013020833333333332,0,0,0.013020833333333332,111.41927083333333,0)" xlink:href="#ag"/><use transform="matrix(0.013020833333333332,0,0,0.013020833333333332,118.16406249999999,0)" xlink:href="#ah"/><use transform="matrix(0.013020833333333332,0,0,0.013020833333333332,134.27083333333334,0)" xlink:href="#ad"/></g><path fill="#3a414a" d="M63 264c30-115 88-378 105-502h182l15 23C327-69 250 132 188 264H63" id="aG"/><g id="u"><use transform="matrix(0.013020833333333332,0,0,0.013020833333333332,0,0)" xlink:href="#ak"/><use transform="matrix(0.013020833333333332,0,0,0.013020833333333332,24.804687499999996,0)" xlink:href="#ah"/><use transform="matrix(0.013020833333333332,0,0,0.013020833333333332,40.91145833333333,0)" xlink:href="#am"/><use transform="matrix(0.013020833333333332,0,0,0.013020833333333332,57.252604166666664,0)" xlink:href="#al"/><use transform="matrix(0.013020833333333332,0,0,0.013020833333333332,72.21354166666666,0)" xlink:href="#aj"/><use transform="matrix(0.013020833333333332,0,0,0.013020833333333332,78.95833333333333,0)" xlink:href="#aG"/></g><g id="v"><use transform="matrix(0.013020833333333332,0,0,0.013020833333333332,0,0)" xlink:href="#ah"/><use transform="matrix(0.013020833333333332,0,0,0.013020833333333332,16.106770833333332,0)" xlink:href="#ad"/><use transform="matrix(0.013020833333333332,0,0,0.013020833333333332,32.47395833333333,0)" xlink:href="#al"/></g><g id="w"><use transform="matrix(0.013020833333333332,0,0,0.013020833333333332,0,0)" xlink:href="#ac"/><use transform="matrix(0.013020833333333332,0,0,0.013020833333333332,16.3671875,0)" xlink:href="#ad"/><use transform="matrix(0.013020833333333332,0,0,0.013020833333333332,32.734375,0)" xlink:href="#ag"/><use transform="matrix(0.013020833333333332,0,0,0.013020833333333332,39.479166666666664,0)" xlink:href="#af"/></g><g id="x"><use transform="matrix(0.013020833333333332,0,0,0.013020833333333332,0,0)" xlink:href="#ah"/><use transform="matrix(0.013020833333333332,0,0,0.013020833333333332,16.106770833333332,0)" xlink:href="#ao"/></g><path fill="#3a414a" d="M1141-549c0 329-147 569-455 569-159 0-273-61-344-161h-12c23 199 7 418 12 633H176v-1588h135l23 150h8c77-108 175-170 344-170 311 0 455 237 455 567zm-172-2c0-242-88-424-307-424-256 0-323 154-320 426 3 280 68 430 324 430 213 0 303-196 303-432" id="aH"/><path fill="#3a414a" d="M270 29c-76 0-118-48-118-135 0-84 38-135 118-136 81 0 123 51 123 136 0 82-44 135-123 135" id="aI"/><g id="y"><use transform="matrix(0.013020833333333332,0,0,0.013020833333333332,0,0)" xlink:href="#ae"/><use transform="matrix(0.013020833333333332,0,0,0.013020833333333332,12.695312499999998,0)" xlink:href="#ah"/><use transform="matrix(0.013020833333333332,0,0,0.013020833333333332,28.802083333333332,0)" xlink:href="#ak"/><use transform="matrix(0.013020833333333332,0,0,0.013020833333333332,53.60677083333333,0)" xlink:href="#aH"/><use transform="matrix(0.013020833333333332,0,0,0.013020833333333332,69.94791666666666,0)" xlink:href="#ac"/><use transform="matrix(0.013020833333333332,0,0,0.013020833333333332,86.31510416666666,0)" xlink:href="#af"/><use transform="matrix(0.013020833333333332,0,0,0.013020833333333332,95.72916666666666,0)" xlink:href="#ai"/><use transform="matrix(0.013020833333333332,0,0,0.013020833333333332,110.55989583333333,0)" xlink:href="#af"/><use transform="matrix(0.013020833333333332,0,0,0.013020833333333332,119.97395833333333,0)" xlink:href="#ag"/><use transform="matrix(0.013020833333333332,0,0,0.013020833333333332,126.71874999999999,0)" xlink:href="#ah"/><use transform="matrix(0.013020833333333332,0,0,0.013020833333333332,142.82552083333334,0)" xlink:href="#ad"/><use transform="matrix(0.013020833333333332,0,0,0.013020833333333332,159.19270833333334,0)" xlink:href="#aI"/></g><path fill="#3a414a" d="M1198-240c-25-390-10-810-14-1222h159V0h-194L350-1227h-8c30 405 10 805 16 1227H201v-1462h192l797 1222h8" id="aJ"/><g id="z"><use transform="matrix(0.013020833333333332,0,0,0.013020833333333332,0,0)" xlink:href="#aJ"/><use transform="matrix(0.013020833333333332,0,0,0.013020833333333332,20.104166666666664,0)" xlink:href="#ah"/></g><path fill="#3a414a" d="M340-893c80-153 237-262 467-211l-23 154c-45-10-85-15-120-15-184-3-322 182-322 377V0H176v-1096h137l19 203h8" id="aK"/><g id="A"><use transform="matrix(0.013020833333333332,0,0,0.013020833333333332,0,0)" xlink:href="#ae"/><use transform="matrix(0.013020833333333332,0,0,0.013020833333333332,12.695312499999998,0)" xlink:href="#ah"/><use transform="matrix(0.013020833333333332,0,0,0.013020833333333332,28.802083333333332,0)" xlink:href="#ad"/><use transform="matrix(0.013020833333333332,0,0,0.013020833333333332,45.16927083333333,0)" xlink:href="#ae"/><use transform="matrix(0.013020833333333332,0,0,0.013020833333333332,57.86458333333333,0)" xlink:href="#ac"/><use transform="matrix(0.013020833333333332,0,0,0.013020833333333332,74.23177083333333,0)" xlink:href="#aK"/><use transform="matrix(0.013020833333333332,0,0,0.013020833333333332,85.1171875,0)" xlink:href="#aK"/><use transform="matrix(0.013020833333333332,0,0,0.013020833333333332,95.46875,0)" xlink:href="#al"/><use transform="matrix(0.013020833333333332,0,0,0.013020833333333332,110.42968749999999,0)" xlink:href="#ad"/><use transform="matrix(0.013020833333333332,0,0,0.013020833333333332,126.79687499999999,0)" xlink:href="#ae"/><use transform="matrix(0.013020833333333332,0,0,0.013020833333333332,139.4921875,0)" xlink:href="#an"/></g><g id="B"><use transform="matrix(0.013020833333333332,0,0,0.013020833333333332,0,0)" xlink:href="#aH"/><use transform="matrix(0.013020833333333332,0,0,0.013020833333333332,16.341145833333332,0)" xlink:href="#ah"/><use transform="matrix(0.013020833333333332,0,0,0.013020833333333332,32.447916666666664,0)" xlink:href="#aF"/><use transform="matrix(0.013020833333333332,0,0,0.013020833333333332,45.16927083333333,0)" xlink:href="#aF"/><use transform="matrix(0.013020833333333332,0,0,0.013020833333333332,57.89062499999999,0)" xlink:href="#ag"/><use transform="matrix(0.013020833333333332,0,0,0.013020833333333332,64.63541666666666,0)" xlink:href="#aq"/><use transform="matrix(0.013020833333333332,0,0,0.013020833333333332,80.97656249999999,0)" xlink:href="#aj"/><use transform="matrix(0.013020833333333332,0,0,0.013020833333333332,87.72135416666666,0)" xlink:href="#al"/><use transform="matrix(0.013020833333333332,0,0,0.013020833333333332,102.68229166666666,0)" xlink:href="#aI"/></g><g id="C"><use transform="matrix(0.013020833333333332,0,0,0.013020833333333332,0,0)" xlink:href="#af"/><use transform="matrix(0.013020833333333332,0,0,0.013020833333333332,9.4140625,0)" xlink:href="#ap"/><use transform="matrix(0.013020833333333332,0,0,0.013020833333333332,30.156249999999996,0)" xlink:href="#ah"/></g><g id="D"><use transform="matrix(0.013020833333333332,0,0,0.013020833333333332,0,0)" xlink:href="#ac"/><use transform="matrix(0.013020833333333332,0,0,0.013020833333333332,16.3671875,0)" xlink:href="#ad"/><use transform="matrix(0.013020833333333332,0,0,0.013020833333333332,32.734375,0)" xlink:href="#ag"/><use transform="matrix(0.013020833333333332,0,0,0.013020833333333332,39.479166666666664,0)" xlink:href="#af"/><use transform="matrix(0.013020833333333332,0,0,0.013020833333333332,48.893229166666664,0)" xlink:href="#aF"/></g><g id="E"><use transform="matrix(0.013020833333333332,0,0,0.013020833333333332,0,0)" xlink:href="#aH"/><use transform="matrix(0.013020833333333332,0,0,0.013020833333333332,16.341145833333332,0)" xlink:href="#aK"/><use transform="matrix(0.013020833333333332,0,0,0.013020833333333332,26.692708333333332,0)" xlink:href="#al"/><use transform="matrix(0.013020833333333332,0,0,0.013020833333333332,41.65364583333333,0)" xlink:href="#aF"/><use transform="matrix(0.013020833333333332,0,0,0.013020833333333332,54.37499999999999,0)" xlink:href="#al"/><use transform="matrix(0.013020833333333332,0,0,0.013020833333333332,69.33593749999999,0)" xlink:href="#ad"/><use transform="matrix(0.013020833333333332,0,0,0.013020833333333332,85.70312499999999,0)" xlink:href="#af"/><use transform="matrix(0.013020833333333332,0,0,0.013020833333333332,95.11718749999999,0)" xlink:href="#aI"/></g><path fill="#3a414a" d="M125-733c6-459 248-750 704-750 153 0 287 28 402 84l-72 146c-111-52-221-78-332-78-334-1-520 251-520 600 0 361 171 600 518 600 102 0 218-18 349-55v149C1073 1 948 20 799 20c-445 1-680-294-674-753" id="aL"/><g id="F"><use transform="matrix(0.013020833333333332,0,0,0.013020833333333332,0,0)" xlink:href="#aL"/><use transform="matrix(0.013020833333333332,0,0,0.013020833333333332,16.822916666666664,0)" xlink:href="#ah"/><use transform="matrix(0.013020833333333332,0,0,0.013020833333333332,32.9296875,0)" xlink:href="#ad"/><use transform="matrix(0.013020833333333332,0,0,0.013020833333333332,49.296875,0)" xlink:href="#ae"/><use transform="matrix(0.013020833333333332,0,0,0.013020833333333332,61.99218749999999,0)" xlink:href="#ac"/><use transform="matrix(0.013020833333333332,0,0,0.013020833333333332,78.359375,0)" xlink:href="#aK"/><use transform="matrix(0.013020833333333332,0,0,0.013020833333333332,89.24479166666667,0)" xlink:href="#aK"/><use transform="matrix(0.013020833333333332,0,0,0.013020833333333332,99.59635416666667,0)" xlink:href="#al"/><use transform="matrix(0.013020833333333332,0,0,0.013020833333333332,114.55729166666669,0)" xlink:href="#ad"/><use transform="matrix(0.013020833333333332,0,0,0.013020833333333332,130.92447916666669,0)" xlink:href="#ae"/><use transform="matrix(0.013020833333333332,0,0,0.013020833333333332,143.61979166666669,0)" xlink:href="#an"/></g><path fill="#3a414a" d="M786-1114c198 0 295 158 295 371 0 282-102 540-260 665-82 65-173 98-276 98-144 0-236-83-283-190h-10C229 23 215 37 123 492H-43l336-1588h139l-26 209h8c119-151 243-227 372-227zM319-346c-1 144 74 227 216 227 66 0 127-28 185-81 112-104 189-330 189-548 0-151-59-227-178-227-64 0-128 32-195 95-119 111-216 315-217 534" id="aM"/><path fill="#3a414a" d="M508 16C253 16 98-150 98-406c0-259 115-505 270-614 84-58 174-90 275-90 253-2 410 166 410 422 0 258-113 503-267 613-83 59-175 91-278 91zM270-397c-1 168 83 278 246 274 171-4 265-133 316-281 31-90 47-192 47-307 0-147-88-262-232-258-174 5-277 132-329 279-32 88-48 186-48 293" id="aN"/><path fill="#3a414a" d="M1503-838c-1-87-50-142-143-137-144 7-235 110-298 223-40 71-70 155-91 252L864 0H696l148-692c33-145 35-283-119-283-149 0-239 112-303 231C316-546 289-246 227 0H59l234-1096h139l-22 203h10c58-79 116-136 174-171s117-52 178-52c157 0 232 99 246 246h8c57-83 118-146 183-186s130-60 196-60c169 0 267 95 266 266 0 45-6 105-22 178L1505 0h-170l148-692c13-69 20-118 20-146" id="aO"/><path fill="#3a414a" d="M506-973c-111 0-197 55-199 156 0 37 13 68 35 96 39 50 254 158 300 206 52 54 93 108 93 204C735-85 557 20 313 20 200 20 99-3 8-49v-158c77 47 189 86 301 88 144 3 254-55 254-178 0-38-12-70-35-96s-73-62-151-107c-86-49-148-96-184-143s-54-102-54-166c-1-193 164-307 367-307 114 0 224 25 330 74l-54 137c-75-38-173-68-276-68" id="aP"/><g id="G"><use transform="matrix(0.013020833333333332,0,0,0.013020833333333332,0,0)" xlink:href="#aM"/><use transform="matrix(0.013020833333333332,0,0,0.013020833333333332,15.390624999999998,0)" xlink:href="#at"/><use transform="matrix(0.013020833333333332,0,0,0.013020833333333332,25.416666666666664,0)" xlink:href="#aN"/><use transform="matrix(0.013020833333333332,0,0,0.013020833333333332,40.377604166666664,0)" xlink:href="#aO"/><use transform="matrix(0.013020833333333332,0,0,0.013020833333333332,63.63281249999999,0)" xlink:href="#aD"/><use transform="matrix(0.013020833333333332,0,0,0.013020833333333332,70.40364583333333,0)" xlink:href="#aP"/><use transform="matrix(0.013020833333333332,0,0,0.013020833333333332,81.82291666666666,0)" xlink:href="#aw"/></g><g id="H"><use transform="matrix(0.013020833333333327,0,0,0.013020833333333327,0,0)" xlink:href="#ad"/><use transform="matrix(0.013020833333333327,0,0,0.013020833333333327,16.367187499999993,0)" xlink:href="#ah"/><use transform="matrix(0.013020833333333327,0,0,0.013020833333333327,32.473958333333314,0)" xlink:href="#af"/></g></defs></g></svg>