<svg xmlns="http://www.w3.org/2000/svg" xmlns:xlink="http://www.w3.org/1999/xlink" xmlns:lucid="lucid" width="3002.51" height="2083.8"><g transform="translate(1501.009765625 180.5)" lucid:page-tab-id="0_0"><path d="M-1500-500h3000v2500h-3000z" fill="#fff"/><path d="M680 240c0 22.1-17.9 40-40 40s-40-17.9-40-40 17.9-40 40-40 40 17.9 40 40z" stroke="#000" fill="#fff"/><path d="M680 400c0 22.1-17.9 40-40 40s-40-17.9-40-40 17.9-40 40-40 40 17.9 40 40z" stroke="#000" fill="#3a414a"/><path d="M1000.5 480.9c0 22.1-17.9 40-40 40s-40-17.9-40-40 17.9-40 40-40 40 17.9 40 40z" stroke="#000" fill="#fff"/><path d="M680.5 679.1c0 22.1-17.9 40-40 40s-40-17.9-40-40 17.9-40 40-40 40 17.9 40 40z" stroke="#000" fill="#3a414a"/><path d="M1000.5 600c0 22.1-17.9 40-40 40s-40-17.9-40-40 17.9-40 40-40 40 17.9 40 40z" stroke="#000" fill="#fff"/><path d="M680.5 840.7c0 22.1-17.9 40-40 40s-40-17.9-40-40 17.9-40 40-40 40 17.9 40 40z" stroke="#000" fill="#3a414a"/><path d="M640 281v62.12" stroke="#000" fill="none"/><path d="M640 280.5l.48-.02v.53h-.96v-.53z" stroke="#000" stroke-width=".05"/><path d="M640 357.88l-4.63-14.26h9.26z" stroke="#000"/><path d="M960.5 521.9v21.22" stroke="#000" fill="none"/><path d="M960.5 521.4l.48-.02v.53H960v-.53z" stroke="#000" stroke-width=".05"/><path d="M960.5 557.88l-4.63-14.26h9.27z" stroke="#000"/><path d="M640.5 720.1v63.72" stroke="#000" fill="none"/><path d="M640.5 719.6h.48v.5H640v-.53z" stroke="#000" stroke-width=".05"/><path d="M640.5 798.58l-4.63-14.26h9.27z" stroke="#000"/><path d="M640.5 440.98v1.97m0 3.95v3.94m0 3.94v3.94m0 3.95v3.94m0 3.95v3.94m0 3.94v3.94m0 3.94v3.94m0 3.94v3.95m0 3.94v3.93m0 3.94v3.95m0 3.94v3.94m0 3.94v3.95m0 3.93v3.94m0 3.94v3.96m0 3.94v3.94m0 3.94v3.95m0 3.94v3.94m0 3.95V577m0 3.94v3.94m0 3.94v3.94m0 3.95v3.95m0 3.94v3.93m0 3.95v3.94m0 3.94v3.94m0 3.95v3.94m0 3.93v1.97" stroke="#000" fill="none"/><path d="M640.98 441H640v-.5l.96-.03zM640.98 638.63l-.47-.03-.48.02v-.53h.96z" stroke="#000" stroke-width=".05"/><path d="M1320 1240c0 22.1-17.9 40-40 40s-40-17.9-40-40 17.9-40 40-40 40 17.9 40 40zM1320 1360c0 22.1-17.9 40-40 40s-40-17.9-40-40 17.9-40 40-40 40 17.9 40 40z" stroke="#000" fill="#fff"/><path d="M680.5 1158.9c0 22.1-17.9 40-40 40s-40-17.9-40-40 17.9-40 40-40 40 17.9 40 40z" stroke="#000" fill="#3a414a"/><path d="M680.5 1601.3c0 22.1-17.9 40-40 40s-40-17.9-40-40 17.9-40 40-40 40 17.9 40 40z" stroke="#000" fill="#fff"/><path d="M1280 1281v22.12" stroke="#000" fill="none"/><path d="M1280 1280.5l.47-.02v.53h-.94v-.53z" stroke="#000" stroke-width=".05"/><path d="M1280 1317.88l-4.63-14.26h9.27z" stroke="#000"/><path d="M640.5 1481v63.4" stroke="#000" fill="none"/><path d="M640.5 1480.5l.48-.02v.53H640v-.53z" stroke="#000" stroke-width=".05"/><path d="M640.5 1559.18l-4.63-14.27h9.27z" stroke="#000"/><path d="M640.5 1199.9v2m0 3.98v3.98m0 3.98v4m0 3.97v4m0 3.97v4m0 3.97v3.98m0 4v3.97m0 3.97v3.98m0 4v3.97m0 3.98v4m0 3.97v3.98m0 4v3.97m0 3.98v3.98m0 4v3.97m0 3.98v3.98m0 4v3.98m0 3.98v4m0 3.97v3.98m0 4v3.98m0 3.98v3.98m0 4v3.97m0 4v3.98m0 3.98v3.98m0 3.98v2" stroke="#000" fill="none"/><path d="M640.5 1199.4l.48-.02v.53H640v-.53z" stroke="#000" stroke-width=".05"/><path d="M640.5 1397.88l-4.63-14.26h9.27z" stroke="#000"/><path d="M640.5 1040.8v61.22" stroke="#000" fill="none"/><path d="M640.5 1040.3l.48-.02v.53H640v-.53z" stroke="#000" stroke-width=".05"/><path d="M640.5 1116.78l-4.63-14.26h9.27z" stroke="#000"/><path d="M640.5 881.7v1.93m0 3.85v3.86m0 3.85v3.85m0 3.85v3.86m0 3.85v3.87m0 3.85v3.86m0 3.85v3.86m0 3.84v3.86m0 3.85v3.86m0 3.86v3.86m0 3.85v1.93" stroke="#000" fill="none"/><path d="M640.5 881.2l.48-.02v.53H640v-.53zM640.98 959.33l-.47-.03-.48.02v-.53h.96z" stroke="#000" stroke-width=".05"/><path d="M-1.5 1200.75v2.06m0 4.14v4.13m0 4.13v4.13m0 4.13v4.13m0 4.13v4.13m0 4.13v4.12m0 4.13v4.13m0 4.13v4.14m0 4.13v4.13m0 4.13v4.13m0 4.13v4.12m0 4.13v4.13m0 4.13v4.14m0 4.13v4.13m0 4.13v4.13m0 4.13v4.12m0 4.13v4.13m0 4.13v4.14m0 4.13v4.13m0 4.13v4.13m0 4.13v4.12m0 4.13v4.13m0 4.13v4.14m0 4.13v4.13m0 4.13v2.07" stroke="#000" fill="none"/><path d="M-1.03 1200.76h-.95v-.5l.95-.03zM-1.03 1399.53l-.46-.03-.48.02v-.53h.95z" stroke="#000" stroke-width=".05"/><path d="M-959.5 201v2m0 4v4m0 4v4m0 4v4m0 4v3.98m0 4v4m0 4v4m0 4v4m0 4v4m0 4v3.98m0 4v4m0 4v4m0 4v4m0 4v4m0 4v4m0 3.98v4m0 4v4m0 4v4m0 4v4m0 4v4m0 3.98v4m0 4v4m0 4v4m0 4v4m0 4v4m0 3.98v4m0 4v4m0 4v4m0 4v4m0 4v4m0 3.98v4m0 4v4m0 4v4m0 4v4m0 4v4m0 4v3.98m0 4v4m0 4v4m0 4v4m0 4v4m0 4v3.98m0 4v4m0 4v4m0 4v4m0 4v4m0 4v3.98m0 4v4m0 4v4m0 4v4m0 4v4m0 4v3.98m0 4v4m0 4v4m0 4v4m0 4v4m0 4v4m0 3.98v4m0 4v4m0 4v4m0 4v4m0 4v4m0 3.98v4m0 4v4m0 4v4m0 4v4m0 4v4m0 3.98v4m0 4v4m0 4v4m0 4v4m0 4v4m0 3.98v4m0 4v4m0 4v4m0 4v4m0 4v4m0 3.98v4m0 4v4m0 4v4m0 4v4m0 4v4m0 3.98v4m0 4v4m0 4v4m0 4v4m0 4v4m0 4v3.98m0 4v4m0 4v4m0 4v4m0 4v4m0 4v3.98m0 4v4m0 4v4m0 4v4m0 4v4m0 4v3.98m0 4v4m0 4v4m0 4v4m0 4v4m0 4v4m0 3.98v4m0 4v4m0 4v4m0 4v4m0 4v4m0 3.98v4m0 4v4m0 4v4m0 4v4m0 4v4m0 3.98v4m0 4v4m0 4v4m0 4v4m0 4v4m0 3.98v4m0 4v4m0 4v4m0 4v4m0 4v4m0 4v3.98m0 4v4m0 4v4m0 4v4m0 4v4m0 4v3.98m0 4v4m0 4v4m0 4v4m0 4v4m0 4v3.98m0 4v4m0 4v4m0 4v4m0 4v4m0 4v3.98m0 4v4m0 4v4m0 4v4m0 4v4m0 4v3.98m0 4v4m0 4v4m0 4v4m0 4v4m0 4v3.98m0 4v4m0 4v4m0 4v4m0 4v4m0 4v4m0 3.98v4m0 4v4m0 4v4m0 4v4m0 4v4m0 3.98v4m0 4v4m0 4v4m0 4v4m0 4v4m0 3.98v4m0 4v4m0 4v4m0 4v4m0 4v4m0 4v3.98m0 4v4m0 4v4m0 4v4m0 4v4m0 4v3.98m0 4v4m0 4v4m0 4v4m0 4v4m0 4v3.98m0 4v4m0 4v2" stroke="#000" fill="none"/><path d="M-959.5 200.5l.48-.02v.53h-.96v-.53zM-959.02 1640.83l-.47-.03h-.48v-.52h.96z" stroke="#000" stroke-width=".05"/><path d="M-639.5 442.8v1.96m0 3.92v3.93m0 3.93v3.93m0 3.92v3.92m0 3.93v3.92m0 3.93V484m0 3.93v3.92m0 3.92v3.93m0 3.92v3.93m0 3.92v3.92m0 3.92v3.92m0 3.92v3.93m0 3.9v3.94m0 3.92v3.92m0 3.93v3.93m0 3.93v3.92m0 3.92v3.93m0 3.92v3.93m0 3.92v3.92m0 3.93v3.92m0 3.93v3.92m0 3.92v3.93m0 3.92v3.92m0 3.92v3.93m0 3.92v3.9m0 3.94V639" stroke="#000" fill="none"/><path d="M-639.5 442.3l.48-.02v.53h-.96v-.53zM-639.02 639.53l-.47-.03-.48.02V639h.96z" stroke="#000" stroke-width=".05"/><path d="M360 1681.3c0 22.1-17.9 40-40 40s-40-17.9-40-40 17.9-40 40-40 40 17.9 40 40z" stroke="#000" fill="#3a414a"/><path d="M320 201v2m0 4v4m0 4v4m0 4v4m0 4v3.98m0 4v4m0 4v4m0 4v4m0 4v4m0 4v3.98m0 4v4m0 4v4m0 4v4m0 4v4m0 4v4m0 3.98v4m0 4v4m0 4v4m0 4v4m0 4v4m0 3.98v4m0 4v4m0 4v4m0 4v4m0 4v4m0 3.98v4m0 4v4m0 4v4m0 4v4m0 4v4m0 3.98v4m0 4v4m0 4v4m0 4v4m0 4v4m0 4v3.98m0 4v4m0 4v4m0 4v4m0 4v4m0 4v3.98m0 4v4m0 4v4m0 4v4m0 4v4m0 4v3.98m0 4v4m0 4v4m0 4v4m0 4v4m0 4v3.98m0 4v4m0 4v4m0 4v4m0 4v4m0 4v4m0 3.98v4m0 4v4m0 4v4m0 4v4m0 4v4m0 3.98v4m0 4v4m0 4v4m0 4v4m0 4v4m0 3.98v4m0 4v4m0 4v4m0 4v4m0 4v4m0 3.98v4m0 4v4m0 4v4m0 4v4m0 4v4m0 3.98v4m0 4v4m0 4v4m0 4v4m0 4v4m0 3.98v4m0 4v4m0 4v4m0 4v4m0 4v4m0 4v3.98m0 4v4m0 4v4m0 4v4m0 4v4m0 4v3.98m0 4v4m0 4v4m0 4v4m0 4v4m0 4v3.98m0 4v4m0 4v4m0 4v4m0 4v4m0 4v4m0 3.98v4m0 4v4m0 4v4m0 4v4m0 4v4m0 3.98v4m0 4v4m0 4v4m0 4v4m0 4v4m0 3.98v4m0 4v4m0 4v4m0 4v4m0 4v4m0 3.98v4m0 4v4m0 4v4m0 4v4m0 4v4m0 3.98v4m0 4v4m0 4v4m0 4v4m0 4v4m0 4v3.98m0 4v4m0 4v4m0 4v4m0 4v4m0 3.98v4m0 4v4m0 4v4m0 4v4m0 4v4m0 4v3.98m0 4v4m0 4v4m0 4v4m0 4v4m0 4v3.98m0 4v4m0 4v4m0 4v4m0 4v4m0 4v3.98m0 4v4m0 4v4m0 4v4m0 4v4m0 4v3.98m0 4v4m0 4v4m0 4v4m0 4v4m0 4v3.98m0 4v4m0 4v4m0 4v4m0 4v4m0 4v4m0 3.98v4m0 4v4m0 4v4m0 4v4m0 4v4m0 3.98v4m0 4v4m0 4v4m0 4v4m0 4v4m0 4v3.98m0 4v4m0 4v4m0 4v4m0 4v4m0 4v3.98m0 4v4m0 4v2" stroke="#000" fill="none"/><path d="M320 200.5l.48-.02v.53h-.96v-.53zM320.48 1640.83l-.47-.03h-.48v-.52h.96z" stroke="#000" stroke-width=".05"/><path d="M320 41v78" stroke="#000" fill="none"/><path d="M320.48 41h-.96v-.5h.96zM320.48 119.53l-.47-.03-.48.02V119h.96z" stroke="#000" stroke-width=".05"/><path d="M360 160c0 22.1-17.9 40-40 40s-40-17.9-40-40 17.9-40 40-40 40 17.9 40 40z" stroke="#000" fill="#3a414a"/><path d="M400 126a6 6 0 0 1 6-6h107.5a6 6 0 0 1 6 6v68a6 6 0 0 1-6 6H406a6 6 0 0 1-6-6z" stroke="#000" stroke-opacity="0" stroke-width="2" fill="#fff" fill-opacity="0"/><use xlink:href="#a" transform="matrix(1,0,0,1,405,124.99999999999955) translate(28.32899305555556 29.58333333333333)"/><use xlink:href="#b" transform="matrix(1,0,0,1,405,124.99999999999955) translate(8.325737847222236 53.00998263888888)"/><path d="M320 1722.3v108.66" stroke="#3a414a" fill="none"/><path d="M320 1721.8l.48-.02v.53h-.96v-.53z" stroke="#3a414a" stroke-width=".05" fill="#3a414a"/><path d="M335 1845.8c0 8.28-6.72 15-15 15-8.28 0-15-6.72-15-15 0-8.3 6.72-15 15-15 8.28 0 15 6.7 15 15z" stroke="#3a414a" fill="#fff"/><path d="M-1160 1647.3a6 6 0 0 1 6-6h108a6 6 0 0 1 6 6v68a6 6 0 0 1-6 6h-108a6 6 0 0 1-6-6z" stroke="#000" stroke-opacity="0" stroke-width="2" fill="#fff" fill-opacity="0"/><use xlink:href="#c" transform="matrix(1,0,0,1,-1155,1646.2975374725481) translate(41.66449652777778 29.58333333333333)"/><use xlink:href="#d" transform="matrix(1,0,0,1,-1155,1646.2975374725481) translate(1.6579861111111285 53.00998263888888)"/><path d="M1360.5 1326a6 6 0 0 1 6-6h108a6 6 0 0 1 6 6v68a6 6 0 0 1-6 6h-108a6 6 0 0 1-6-6z" stroke="#000" stroke-opacity="0" stroke-width="2" fill="#fff" fill-opacity="0"/><use xlink:href="#e" transform="matrix(1,0,0,1,1365.5003118598443,1325.0000000000002) translate(21.66124131944445 29.42708333333333)"/><use xlink:href="#f" transform="matrix(1,0,0,1,1365.5003118598443,1325.0000000000002) translate(8.325737847222236 52.85373263888888)"/><path d="M1040.5 566a6 6 0 0 1 6-6h108a6 6 0 0 1 6 6v68a6 6 0 0 1-6 6h-108a6 6 0 0 1-6-6z" stroke="#000" stroke-opacity="0" stroke-width="2" fill="#fff" fill-opacity="0"/><use xlink:href="#g" transform="matrix(1,0,0,1,1045.5003118598443,565) translate(21.66124131944445 29.42708333333333)"/><use xlink:href="#f" transform="matrix(1,0,0,1,1045.5003118598443,565) translate(8.325737847222236 52.85373263888888)"/><path d="M720 365.1a6 6 0 0 1 6-6h108a6 6 0 0 1 6 6V434a6 6 0 0 1-6 6H726a6 6 0 0 1-6-6z" stroke="#000" stroke-opacity="0" stroke-width="2" fill="#fff" fill-opacity="0"/><use xlink:href="#h" transform="matrix(1,0,0,1,725,364.10107533380403) translate(21.66124131944445 29.58333333333333)"/><use xlink:href="#b" transform="matrix(1,0,0,1,725,364.10107533380403) translate(8.325737847222236 53.00998263888888)"/><path d="M720 804.9a6 6 0 0 1 6-6h108a6 6 0 0 1 6 6v68a6 6 0 0 1-6 6H726a6 6 0 0 1-6-6z" stroke="#000" stroke-opacity="0" stroke-width="2" fill="#fff" fill-opacity="0"/><use xlink:href="#i" transform="matrix(1,0,0,1,725,803.9017689306285) translate(14.993489583333343 29.42708333333333)"/><use xlink:href="#j" transform="matrix(1,0,0,1,725,803.9017689306285) translate(1.6579861111111214 52.85373263888888)"/><use xlink:href="#k" transform="matrix(1,0,0,1,725,803.9017689306285) translate(41.66449652777778 52.85373263888888)"/><path d="M-200 1406a6 6 0 0 1 6-6h108a6 6 0 0 1 6 6v68a6 6 0 0 1-6 6h-108a6 6 0 0 1-6-6z" stroke="#000" stroke-opacity="0" stroke-width="2" fill="#fff" fill-opacity="0"/><use xlink:href="#l" transform="matrix(1,0,0,1,-195.00000000000003,1405.0000000000005) translate(41.66449652777778 29.42708333333333)"/><use xlink:href="#m" transform="matrix(1,0,0,1,-195.00000000000003,1405.0000000000005) translate(1.6579861111111285 52.85373263888888)"/><path d="M-839.5 646a6 6 0 0 1 6-6h108a6 6 0 0 1 6 6v68.9a6 6 0 0 1-6 6h-108a6 6 0 0 1-6-6z" stroke="#000" stroke-opacity="0" stroke-width="2" fill="#fff" fill-opacity="0"/><use xlink:href="#n" transform="matrix(1,0,0,1,-834.4996881401557,645.0000000000002) translate(41.66449652777778 29.58333333333333)"/><use xlink:href="#d" transform="matrix(1,0,0,1,-834.4996881401557,645.0000000000002) translate(1.6579861111111285 53.00998263888888)"/><path d="M-959.5 1722.3v69a.25.25 0 0 1-.25.25.25.25 0 0 0-.25.25v39.16" stroke="#3a414a" fill="none"/><path d="M-959.5 1721.8l.48-.02v.53h-.96v-.53z" stroke="#3a414a" stroke-width=".05" fill="#3a414a"/><path d="M-945 1845.8c0 8.28-6.72 15-15 15-8.28 0-15-6.72-15-15 0-8.3 6.72-15 15-15 8.28 0 15 6.7 15 15z" stroke="#3a414a" fill="#fff"/><path d="M-919.5 1681.3c0 22.1-17.9 40-40 40s-40-17.9-40-40 17.9-40 40-40 40 17.9 40 40zM-919.5 160c0 22.1-17.9 40-40 40s-40-17.9-40-40 17.9-40 40-40 40 17.9 40 40zM-1080-40h240v80h-240z" stroke="#000" fill="#fff"/><use xlink:href="#o" transform="matrix(1,0,0,1,-1075,-34.999999999999744) translate(34.98697916666666 29.43793402777778)"/><use xlink:href="#p" transform="matrix(1,0,0,1,-1075,-34.999999999999744) translate(101.66449652777777 29.43793402777778)"/><use xlink:href="#q" transform="matrix(1,0,0,1,-1075,-34.999999999999744) translate(88.32899305555556 52.87543402777778)"/><path d="M200-40h240v80H200z" stroke="#000" fill="#fff"/><use xlink:href="#r" transform="matrix(1,0,0,1,205,-35) translate(21.651475694444414 42.56293402777778)"/><path d="M519.5-40h240v80h-240z" stroke="#000" fill="#fff"/><use xlink:href="#s" transform="matrix(1,0,0,1,524.4996881401557,-35.00000000000023) translate(88.32899305555556 42.56293402777778)"/><path d="M-760-40h240v80h-240z" stroke="#000" fill="#fff"/><use xlink:href="#t" transform="matrix(1,0,0,1,-755,-34.99999999999928) translate(28.319227430555543 29.43793402777778)"/><use xlink:href="#u" transform="matrix(1,0,0,1,-755,-34.99999999999928) translate(108.33224826388889 29.43793402777778)"/><use xlink:href="#v" transform="matrix(1,0,0,1,-755,-34.99999999999928) translate(88.32899305555556 52.87543402777778)"/><path d="M840-40h240v80H840z" stroke="#000" fill="#fff"/><use xlink:href="#t" transform="matrix(1,0,0,1,845,-34.99999999999976) translate(21.65147569444443 42.56293402777778)"/><use xlink:href="#w" transform="matrix(1,0,0,1,845,-34.99999999999976) translate(101.66449652777777 42.56293402777778)"/><path d="M-599.5 401.8c0 22.1-17.9 40-40 40s-40-17.9-40-40 17.9-40 40-40 40 17.9 40 40zM-599.5 680c0 22.1-17.9 40-40 40s-40-17.9-40-40 17.9-40 40-40 40 17.9 40 40zM37 1159.8c0 22.1-17.9 40-40 40s-40-17.9-40-40 17.9-40 40-40 40 17.9 40 40zM38.5 1440c0 22.1-17.9 40-40 40s-40-17.9-40-40 17.9-40 40-40 40 17.9 40 40zM-440-40h240v80h-240z" stroke="#000" fill="#fff"/><use xlink:href="#x" transform="matrix(1,0,0,1,-435,-34.99999999999976) translate(28.319227430555543 29.43793402777778)"/><use xlink:href="#p" transform="matrix(1,0,0,1,-435,-34.99999999999976) translate(108.33224826388889 29.43793402777778)"/><use xlink:href="#y" transform="matrix(1,0,0,1,-435,-34.99999999999976) translate(88.32899305555556 52.87543402777778)"/><path d="M1160.5-40h240v80h-240z" stroke="#000" fill="#fff"/><use xlink:href="#z" transform="matrix(1,0,0,1,1165.5003118598443,-35.00000000000023) translate(21.65147569444443 42.56293402777778)"/><use xlink:href="#w" transform="matrix(1,0,0,1,1165.5003118598443,-35.00000000000023) translate(101.66449652777777 42.56293402777778)"/><path d="M-639.5 721v1109.96" stroke="#3a414a" fill="none"/><path d="M-639.5 720.5l.48-.02v.53h-.96v-.53z" stroke="#3a414a" stroke-width=".05" fill="#3a414a"/><path d="M-624.5 1845.8c0 8.28-6.72 15-15 15-8.28 0-15-6.72-15-15 0-8.3 6.72-15 15-15 8.28 0 15 6.7 15 15z" stroke="#3a414a" fill="#fff"/><path d="M-1.5 1481v349.12" stroke="#3a414a" fill="none"/><path d="M-1.5 1480.5l.47-.02v.53h-.95v-.53z" stroke="#3a414a" stroke-width=".05" fill="#3a414a"/><path d="M13.5 1844.95c0 8.28-6.72 15-15 15-8.29 0-15-6.72-15-15 0-8.3 6.7-15 15-15 8.28 0 15 6.7 15 15z" stroke="#3a414a" fill="#fff"/><path d="M-1160 126a6 6 0 0 1 6-6h108a6 6 0 0 1 6 6v68a6 6 0 0 1-6 6h-108a6 6 0 0 1-6-6z" stroke="#000" stroke-opacity="0" stroke-width="2" fill="#fff" fill-opacity="0"/><use xlink:href="#A" transform="matrix(1,0,0,1,-1155,125.00000000000057) translate(41.66449652777778 29.42708333333333)"/><use xlink:href="#B" transform="matrix(1,0,0,1,-1155,125.00000000000057) translate(8.325737847222236 52.85373263888888)"/><path d="M-1039.5 160h39" stroke="#3a414a" fill="none"/><path d="M-1039.5 160.47h-.5v-.94h.5zM-1000 160l.02.47h-.53v-.94h.53z" stroke="#3a414a" stroke-width=".05" fill="#3a414a"/><path d="M-1039.5 1681.3h39" stroke="#3a414a" fill="none"/><path d="M-1039.5 1681.77h-.5v-.95h.5zM-1000 1681.3l.02.47h-.53v-.95h.53z" stroke="#3a414a" stroke-width=".05" fill="#3a414a"/><path d="M-1160 326a6 6 0 0 1 6-6h108a6 6 0 0 1 6 6v68a6 6 0 0 1-6 6h-108a6 6 0 0 1-6-6z" stroke="#000" stroke-opacity="0" stroke-width="2" fill="#fff" fill-opacity="0"/><use xlink:href="#c" transform="matrix(1,0,0,1,-1155,325) translate(41.66449652777778 29.42708333333333)"/><use xlink:href="#C" transform="matrix(1,0,0,1,-1155,325) translate(8.325737847222236 52.85373263888888)"/><path d="M440 1269.2a6 6 0 0 1 6-6h108a6 6 0 0 1 6 6v68a6 6 0 0 1-6 6H446a6 6 0 0 1-6-6z" stroke="#000" stroke-opacity="0" stroke-width="2" fill="#fff" fill-opacity="0"/><use xlink:href="#D" transform="matrix(1,0,0,1,445,1268.2007377443006) translate(1.6579861111111285 42.55208333333333)"/><path d="M-719 680.45h38.52" stroke="#3a414a" fill="none"/><path d="M-719 680.92h-.5v-.95h.5zM-680 680l.03.92h-.53v-.95h.5z" stroke="#3a414a" stroke-width=".05" fill="#3a414a"/><path d="M-839.5 366.9a6 6 0 0 1 6-6h108a6 6 0 0 1 6 6v68.9a6 6 0 0 1-6 6h-108a6 6 0 0 1-6-6z" stroke="#000" stroke-opacity="0" stroke-width="2" fill="#fff" fill-opacity="0"/><use xlink:href="#n" transform="matrix(1,0,0,1,-834.4996881401557,365.8989246661962) translate(41.66449652777778 29.58333333333333)"/><use xlink:href="#B" transform="matrix(1,0,0,1,-834.4996881401557,365.8989246661962) translate(8.325737847222236 53.00998263888888)"/><path d="M-719 401.35h38.53" stroke="#3a414a" fill="none"/><path d="M-719 401.82h-.5v-.95h.5zM-680 401.8v.02h-.5v-.95h.56z" stroke="#3a414a" stroke-width=".05" fill="#3a414a"/><path d="M-79.5 1440h37" stroke="#3a414a" fill="none"/><path d="M-79.5 1440.47h-.5v-.94h.5zM-42 1440l.02.47h-.53v-.94h.53z" stroke="#3a414a" stroke-width=".05" fill="#3a414a"/><path d="M-200 1124.9a6 6 0 0 1 6-6h108a6 6 0 0 1 6 6v68a6 6 0 0 1-6 6h-108a6 6 0 0 1-6-6z" stroke="#000" stroke-opacity="0" stroke-width="2" fill="#fff" fill-opacity="0"/><use xlink:href="#l" transform="matrix(1,0,0,1,-195,1123.901768930628) translate(41.66449652777778 29.42708333333333)"/><use xlink:href="#E" transform="matrix(1,0,0,1,-195,1123.901768930628) translate(8.325737847222236 52.85373263888888)"/><path d="M-79.5 1158.9l35.52.44" stroke="#3a414a" fill="none"/><path d="M-79.48 1158.43v.95H-80v-.95zM-43.45 1158.88l-.05.9v.05h-.5l.02-.96z" stroke="#3a414a" stroke-width=".05" fill="#3a414a"/><path d="M1040.5 447.8a6 6 0 0 1 6-6h108a6 6 0 0 1 6 6v68a6 6 0 0 1-6 6h-108a6 6 0 0 1-6-6z" stroke="#000" stroke-opacity="0" stroke-width="2" fill="#fff" fill-opacity="0"/><use xlink:href="#h" transform="matrix(1,0,0,1,1045.5003118598443,446.7978493323917) translate(21.66124131944445 29.42708333333333)"/><use xlink:href="#F" transform="matrix(1,0,0,1,1045.5003118598443,446.7978493323917) translate(14.993489583333343 52.85373263888888)"/><path d="M-839.5 506a6 6 0 0 1 6-6h108a6 6 0 0 1 6 6v68.9a6 6 0 0 1-6 6h-108a6 6 0 0 1-6-6z" stroke="#000" stroke-opacity="0" stroke-width="2" fill="#fff" fill-opacity="0"/><use xlink:href="#n" transform="matrix(1,0,0,1,-834.4996881401557,505.00000000000017) translate(41.66449652777778 29.58333333333333)"/><use xlink:href="#C" transform="matrix(1,0,0,1,-834.4996881401557,505.00000000000017) translate(8.325737847222236 53.00998263888888)"/><path d="M-719 540.45h79" stroke="#3a414a" fill="none"/><path d="M-719 540.92h-.5v-.95h.5z" stroke="#3a414a" stroke-width=".05" fill="#3a414a"/><path d="M-640 540.45h.5" stroke="#3a414a" fill="none"/><path d="M-200 1265.9a6 6 0 0 1 6-6h108a6 6 0 0 1 6 6v68a6 6 0 0 1-6 6h-108a6 6 0 0 1-6-6z" stroke="#000" stroke-opacity="0" stroke-width="2" fill="#fff" fill-opacity="0"/><use xlink:href="#l" transform="matrix(1,0,0,1,-195.00000000000003,1264.900346798412) translate(41.66449652777778 29.42708333333333)"/><use xlink:href="#G" transform="matrix(1,0,0,1,-195.00000000000003,1264.900346798412) translate(8.325737847222236 52.85373263888888)"/><path d="M-79.5 1299.9h77.53" stroke="#3a414a" fill="none"/><path d="M-79.5 1300.38h-.5v-.96h.5z" stroke="#3a414a" stroke-width=".05" fill="#3a414a"/><path d="M-1.5 1300.4v-.53M1040 481.8h-38.55" stroke="#3a414a" fill="none"/><path d="M1040.5 482.27h-.5v-.95h.5zM1001.46 482.27h-.54l.06-.95h.48z" stroke="#3a414a" stroke-width=".05" fill="#3a414a"/><path d="M1040 600h-38.5" stroke="#3a414a" fill="none"/><path d="M1040.5 600.48h-.5v-.96h.5zM1001.5 600.48h-.53l.03-.47-.02-.48h.53z" stroke="#3a414a" stroke-width=".05" fill="#3a414a"/><path d="M1360 1360h-39" stroke="#3a414a" fill="none"/><path d="M1360.5 1360.47h-.5v-.94h.5zM1321 1360.47h-.53l.03-.46-.02-.47h.53z" stroke="#3a414a" stroke-width=".05" fill="#3a414a"/><path d="M1360.5 1206a6 6 0 0 1 6-6h108a6 6 0 0 1 6 6v68a6 6 0 0 1-6 6h-108a6 6 0 0 1-6-6z" stroke="#000" stroke-opacity="0" stroke-width="2" fill="#fff" fill-opacity="0"/><use xlink:href="#e" transform="matrix(1,0,0,1,1365.5003118598443,1205) translate(21.66124131944445 29.42708333333333)"/><use xlink:href="#F" transform="matrix(1,0,0,1,1365.5003118598443,1205) translate(14.993489583333343 52.85373263888888)"/><path d="M1360 1240h-39" stroke="#3a414a" fill="none"/><path d="M1360.5 1240.47h-.5v-.94h.5zM1321 1240.47h-.53l.03-.46-.02-.47h.53z" stroke="#3a414a" stroke-width=".05" fill="#3a414a"/><path d="M440 505.18a6 6 0 0 1 6-6h108a6 6 0 0 1 6 6v68a6 6 0 0 1-6 6H446a6 6 0 0 1-6-6z" stroke="#000" stroke-opacity="0" stroke-width="2" fill="#fff" fill-opacity="0"/><use xlink:href="#D" transform="matrix(1,0,0,1,445,504.17509333161536) translate(1.6579861111111285 42.55208333333333)"/><path d="M440 887.2a6 6 0 0 1 6-6h108a6 6 0 0 1 6 6v68a6 6 0 0 1-6 6H446a6 6 0 0 1-6-6z" stroke="#000" stroke-opacity="0" stroke-width="2" fill="#fff" fill-opacity="0"/><use xlink:href="#D" transform="matrix(1,0,0,1,445,886.187915537958) translate(1.6579861111111285 42.55208333333333)"/><path d="M720 206a6 6 0 0 1 6-6h108a6 6 0 0 1 6 6v68a6 6 0 0 1-6 6H726a6 6 0 0 1-6-6z" stroke="#000" stroke-opacity="0" stroke-width="2" fill="#fff" fill-opacity="0"/><use xlink:href="#a" transform="matrix(1,0,0,1,725,204.9999999999999) translate(28.32899305555556 29.42708333333333)"/><use xlink:href="#F" transform="matrix(1,0,0,1,725,204.9999999999999) translate(14.993489583333343 52.85373263888888)"/><path d="M719.5 240H681" stroke="#3a414a" fill="none"/><path d="M720 240.47h-.5v-.94h.5zM681 240.47h-.53l.03-.46-.02-.47h.53z" stroke="#3a414a" stroke-width=".05" fill="#3a414a"/><path d="M720 1567.3a6 6 0 0 1 6-6h108a6 6 0 0 1 6 6v68a6 6 0 0 1-6 6H726a6 6 0 0 1-6-6z" stroke="#000" stroke-opacity="0" stroke-width="2" fill="#fff" fill-opacity="0"/><use xlink:href="#H" transform="matrix(1,0,0,1,725,1566.297537472548) translate(41.66449652777778 29.42708333333333)"/><use xlink:href="#I" transform="matrix(1,0,0,1,725,1566.297537472548) translate(8.325737847222236 52.85373263888888)"/><path d="M719.5 1601.3h-38" stroke="#3a414a" fill="none"/><path d="M720 1601.77h-.5v-.95h.5zM681.5 1601.77h-.53l.03-.47-.02-.48h.53z" stroke="#3a414a" stroke-width=".05" fill="#3a414a"/><path d="M400 1647.3a6 6 0 0 1 6-6h107.5a6 6 0 0 1 6 6v68a6 6 0 0 1-6 6H406a6 6 0 0 1-6-6z" stroke="#000" stroke-opacity="0" stroke-width="2" fill="#fff" fill-opacity="0"/><use xlink:href="#H" transform="matrix(1,0,0,1,405,1646.297537472548) translate(41.66449652777778 29.58333333333333)"/><use xlink:href="#J" transform="matrix(1,0,0,1,405,1646.297537472548) translate(14.993489583333343 53.00998263888888)"/><path d="M720 646a6 6 0 0 1 6-6h108a6 6 0 0 1 6 6v68.9a6 6 0 0 1-6 6H726a6 6 0 0 1-6-6z" stroke="#000" stroke-opacity="0" stroke-width="2" fill="#fff" fill-opacity="0"/><use xlink:href="#h" transform="matrix(1,0,0,1,725,645) translate(21.66124131944445 29.58333333333333)"/><use xlink:href="#K" transform="matrix(1,0,0,1,725,645) translate(14.993489583333343 53.00998263888888)"/><path d="M720 1405.1a6 6 0 0 1 6-6h108a6 6 0 0 1 6 6v68.9a6 6 0 0 1-6 6H726a6 6 0 0 1-6-6z" stroke="#000" stroke-opacity="0" stroke-width="2" fill="#fff" fill-opacity="0"/><use xlink:href="#e" transform="matrix(1,0,0,1,725,1404.1010753338044) translate(21.66124131944445 29.58333333333333)"/><use xlink:href="#K" transform="matrix(1,0,0,1,725,1404.1010753338044) translate(14.993489583333343 53.00998263888888)"/><path d="M-1120-160H120v80h-1240z" stroke="#000" fill="#fff"/><use xlink:href="#L" transform="matrix(1,0,0,1,-1115,-155) translate(514.9837239583333 42.56293402777778)"/><use xlink:href="#M" transform="matrix(1,0,0,1,-1115,-155) translate(635.0032552083333 42.56293402777778)"/><path d="M279 160H-902.6" stroke="#3a414a" fill="none"/><path d="M279.5 160l.02.47H279v-.94h.53z" stroke="#3a414a" stroke-width=".05" fill="#3a414a"/><path d="M-917.38 160l14.27-4.63v9.26z" stroke="#3a414a" fill="#3a414a"/><path d="M-959 240.9H583.15M-959 240.9h-.5" stroke="#3a414a" fill="none"/><path d="M597.9 240.9l-14.25 4.63v-9.27z" stroke="#3a414a" fill="#3a414a"/><path d="M599 400H.68a.45.45 0 0 0-.45.45.45.45 0 0 1-.45.45h-582.43" stroke="#3a414a" fill="none"/><path d="M599.5 400l.02.48H599v-.96h.53z" stroke="#3a414a" stroke-width=".05" fill="#3a414a"/><path d="M-597.4 400.9l14.25-4.64v9.27z" stroke="#3a414a" fill="#3a414a"/><path d="M-639 480.45H903.64M-639 480.45h-.5" stroke="#3a414a" fill="none"/><path d="M918.4 480.45l-14.26 4.63v-9.27z" stroke="#3a414a" fill="#3a414a"/><path d="M919.5 600h-2m-4.02 0h-4.02m-4.02 0h-4.02m-4 0h-4.03m-4.03 0h-4m-4.03 0h-4.02m-4 0h-4.03m-4.03 0h-4m-4.03 0h-4.02m-4 0h-4.03m-4.03 0h-4m-4.03 0h-4.02m-4 0h-4.03m-4.03 0h-4m-4.03 0h-4.02m-4 0h-4.03m-4.03 0h-4m-4.03 0h-4.02m-4 0h-4.03m-4.03 0h-4m-4.03 0h-4.02m-4.02 0h-4m-4.03 0h-4m-4.03 0h-4.02m-4.02 0h-4m-4.03 0h-4.02m-4 0h-4.03m-4.02 0h-4m-4.03 0h-4.02m-4 0h-4.03m-4.02 0h-4m-4.03 0h-4.02m-4 0h-4.03m-4.02 0h-4m-4.03 0h-4.02m-4 0h-4.03m-4.02 0h-4m-4.03 0h-4.02m-4 0h-4.03m-4.02 0h-4.02m-4 0h-4.03m-4 0h-4.03m-4.02 0h-4.02m-4 0h-4.03m-4.02 0h-4m-4.03 0h-4.02m-4 0h-4.03m-4.02 0h-4m-4.03 0h-4.02m-4 0h-4.03m-4.02 0h-4m-4.03 0h-4.02m-4 0h-4.03m-4.02 0h-4m-4.03 0h-4.02m-4 0h-4.03m-4.02 0h-4m-4.03 0h-4.02m-4 0h-4.03m-4.02 0h-4m-4.03 0h-4.02m-4.02 0h-4m-4.03 0h-4.02m-4 0h-4.02m-4.02 0h-4m-4.03 0h-4.02m-4 0h-4.02m-4.02 0h-4m-4.03 0h-4.02m-4 0h-4.02m-4.02 0h-4m-4.03 0h-4.02m-4 0h-4.02m-4.02 0h-4m-4.03 0H323m-4 0h-4.02m-4.02 0h-4m-4.03 0h-4.02m-4 0h-4.02m-4.02 0h-4m-4.03 0h-4.02m-4 0h-4.02m-4.02 0h-4.02m-4 0h-4.03m-4 0h-4.02m-4.02 0h-4.02m-4 0h-4.03m-4 0h-4.02m-4.02 0h-4.02m-4 0h-4.03m-4 0h-4.02m-4.02 0h-4.02m-4 0h-4.03m-4 0h-4.02m-4.02 0h-4.02m-4 0h-4.03m-4 0h-4.03m-4 0h-4.02m-4.03 0h-4m-4.03 0h-4.03m-4.02 0h-4.02m-4 0h-4.03m-4.02 0h-4.02m-4 0h-4.03M86 600h-4m-4.02 0h-4.02m-4.02 0h-4.02m-4.02 0h-4m-4.03 0h-4.02m-4.02 0h-4m-4.03 0h-4.02m-4.02 0h-4.02m-4 0H17.7m-4 0H9.67m-4.02 0H1.64m-4.02 0H-6.4m-4 0h-4.03m-4.02 0h-4.02m-4.02 0h-4m-4.02 0h-4.02m-4.02 0h-4m-4.03 0h-4m-4.03 0h-4m-4.03 0h-4.02m-4.02 0h-4.02m-4 0h-4.03m-4.02 0h-4.02m-4 0h-4.02m-4.02 0h-4.02m-4 0h-4.03m-4 0h-4.03m-4 0h-4.03m-4.02 0H-143m-4.02 0h-4m-4.03 0h-4.02m-4.02 0h-4m-4.02 0h-4.02m-4.02 0h-4.02m-4 0h-4.03m-4.03 0h-4.02m-4 0h-4.03m-4.02 0h-4.02m-4.02 0h-4m-4.03 0h-4.02m-4 0h-4.02m-4.02 0h-4.02m-4.02 0h-4m-4.03 0h-4.03m-4.02 0h-4m-4.03 0h-4.02m-4.02 0h-4.02m-4 0h-4.03m-4.02 0h-4m-4.03 0h-4m-4.03 0h-4.02m-4.02 0h-4m-4.03 0h-4.02m-4.02 0h-4m-4.03 0h-4.02m-4.02 0h-4m-4.03 0H-368m-4 0h-4.03m-4 0h-4.03m-4.02 0h-4.02m-4 0h-4.03m-4.02 0h-4.02m-4 0h-4.03m-4.02 0h-4.02m-4.02 0h-4m-4.03 0h-4m-4.03 0h-4m-4.03 0h-4.02m-4.02 0h-4.02m-4 0h-4.03m-4.02 0h-4.02m-4 0h-4.02m-4.02 0h-4.02m-4 0h-4.03m-4 0h-4.03m-4 0h-4.03m-4.02 0h-4.02m-4.02 0h-4m-4.03 0h-4.02m-4.02 0h-4m-4.02 0h-4.02m-4.02 0h-4.02m-4 0h-4.03m-4.03 0h-4.02m-4 0H-593m-4.02 0h-4.02m-4 0h-4.03m-4.02 0h-4.02m-4 0h-2" stroke="#3a414a" fill="none"/><path d="M920 600l.02.48h-.53v-.96h.53z" stroke="#3a414a" stroke-width=".05" fill="#3a414a"/><path d="M-637.88 600l14.26-4.63v9.26z" stroke="#3a414a" fill="#3a414a"/><path d="M-598.5 680h2m4 0h3.98m4 0h4m4 0h3.98m4 0h4m3.98 0h4m3.98 0h4m4 0h4m3.98 0h4m4 0h3.98m4 0h4m3.98 0h4m4 0h3.98m4 0h4m3.98 0h4m4 0h3.98m4 0h4m3.98 0h4m4 0h3.98m4 0h4m3.98 0h4m4 0h3.98m4 0h4m3.98 0h4m4 0h3.98m4 0h4m3.98 0h4m4 0h3.98m4 0h4m3.98 0h4m4 0h3.98m4 0h4m3.98 0h4m4 0h3.98m4 0h4m4 0h3.98m4 0h3.98m4 0h4m4 0h3.98m4 0h4m3.98 0h4m4 0h3.98m4 0h4m3.98 0h4m4 0h3.98m4 0h4m3.98 0h4m4 0h3.98m4 0h4m3.98 0h4m4 0h3.98m4 0h4m3.98 0h4m4 0h3.98m4 0h4m3.98 0h4m4 0h3.98m4 0h4m3.98 0h4m4 0h3.98m4 0h4m3.98 0h4m4 0h3.98m4 0h4m3.98 0h4m4 0h3.98m4 0h4m3.98 0h4m4 0h3.98m4 0h4m3.98 0h4m4 0h4m3.98 0h4m4 0h3.98m4 0h4m3.98 0h4m4 0h3.98m4 0h4m3.98 0h4m4 0h4m3.98 0h4m4 0h3.98m4 0h4m3.98 0h4m4 0h4m3.98 0h4m4 0h3.98m4 0h4m3.98 0h4m4 0h4m3.98 0h4m4 0h3.98m4 0h4m4 0h3.98m4 0h4m3.98 0h4m4 0h3.98m4 0h4m4 0h3.98m4 0h4m3.98 0h4m4 0h3.98m4 0h4m4 0h3.98m4 0h4m3.98 0h4m4 0h3.98m4 0h4m4 0h3.98m4 0h4m3.98 0h4m4 0h3.98m4 0h4m4 0h3.98m4 0h4m3.98 0h4m4 0H330m4 0h4m4 0H346m4 0h4m3.98 0h4m4 0h3.98m4 0h4m4 0h3.98m4 0h4m3.98 0h4m4 0h4m3.98 0h4m4 0h3.98m4 0h4m3.98 0h4m4 0h4m3.98 0h4m4 0h3.98m4 0h4m4 0h3.98m4 0h4m3.98 0h4m4 0h3.98m4 0h4m4 0h3.98m4 0h4m3.98 0h4m4 0h3.98m4 0h4m4 0h3.98m4 0h4m3.98 0h4m4 0h2" stroke="#3a414a" fill="none"/><path d="M-598.5 680.48h-.53l.03-.47-.02-.48h.53z" stroke="#3a414a" stroke-width=".05" fill="#3a414a"/><path d="M598.4 680l-14.25 4.63v-9.26z" stroke="#3a414a" fill="#3a414a"/><path d="M599.5 1601.3h-2m-4.02 0h-4.02m-4.02 0h-4.02m-4 0h-4.03m-4.03 0h-4m-4.03 0h-4.02m-4 0h-4.03m-4.03 0h-4m-4.03 0h-4.02m-4 0h-4.03m-4.03 0h-4m-4.03 0h-4.02m-4 0h-4.03m-4.03 0h-4m-4.03 0h-4.02m-4 0h-4.03m-4.03 0h-4m-4.03 0h-4.02m-4.02 0h-4m-4.03 0h-4m-4.03 0h-4.02m-4 0h-4.03m-4.03 0h-4m-4.03 0h-4.02m-4.02 0h-4m-4.03 0h-4.02m-4 0h-4.03m-4.02 0h-4m-4.03 0h-4.02m-4 0h-4.03m-4.02 0h-4m-4.03 0h-4.02m-4 0h-4.03m-4.02 0h-4m-4.03 0h-4.02m-4 0h-4.03m-4.02 0h-4m-4.03 0h-4.02m-4 0h-4.03m-4.02 0h-4m-4.03 0h-4.02m-4 0h-4.03m-4.02 0h-4.02m-4 0h-4.03m-4.02 0h-4m-4.03 0h-4.02m-4 0h-4.03m-4.02 0h-4m-4.03 0h-4.02m-4 0h-4.03m-4.02 0h-4m-4.03 0h-4.02m-4 0h-4.03m-4.02 0h-4m-4.03 0h-4.02m-4 0h-4.03m-4.02 0h-4m-4.03 0h-4.02m-4.02 0h-4m-4.03 0h-4.02m-4 0h-4.02m-4.02 0h-4m-4.03 0H99.4m-4 0h-4.02m-4.02 0h-4m-4.03 0H75.3m-4 0h-4.02m-4.02 0h-4m-4.03 0H51.2m-4 0h-4.02m-4.02 0h-4m-4.03 0H27.1m-4 0h-4.02m-4.02 0h-4m-4.03 0H3m-4 0h-4.02m-4.02 0h-4.02m-4 0h-4.03m-4 0h-4.02m-4.02 0h-4.02m-4 0h-4.03m-4 0h-4.02m-4.02 0h-4.02m-4 0h-4.03m-4 0h-4.02m-4.02 0h-4.02m-4 0h-4.03m-4 0h-4.02m-4.02 0h-4.02m-4 0h-4.03m-4 0h-4.02m-4.02 0h-4.02m-4 0h-4.03m-4 0h-4.02m-4.02 0h-4.02m-4 0h-4.03m-4 0h-4.03m-4 0h-4.02m-4.03 0h-4m-4.03 0h-4.03m-4.02 0h-4.02m-4 0h-4.03m-4.02 0h-4.02m-4 0h-4.03m-4.02 0h-4m-4.02 0h-4.02m-4.02 0h-4.02m-4.02 0h-4m-4.03 0h-4.02m-4.02 0h-4m-4.03 0h-4.02m-4.02 0h-4m-4.03 0h-4.02m-4 0h-4.02m-4.02 0h-4.02m-4.02 0h-4.02m-4 0h-4.03m-4.02 0h-4.02m-4 0h-4.03m-4.02 0h-4.02m-4.02 0h-4m-4.03 0h-4m-4.03 0h-4m-4.03 0h-4.02m-4.02 0h-4m-4.03 0h-4.02m-4.02 0h-4.02m-4 0h-4.02m-4.02 0h-4.02m-4 0h-4.03m-4 0h-4.03m-4 0h-4.03m-4.02 0H-463m-4.02 0h-4m-4.03 0h-4.02m-4.02 0h-4m-4.02 0h-4.02m-4.02 0h-4.02m-4 0h-4.03m-4.03 0h-4.02m-4 0h-4.03m-4.02 0h-4.02m-4 0h-4.03m-4.02 0h-4.02m-4 0h-4.02m-4.02 0h-4.02m-4.02 0h-4m-4.03 0h-4.03m-4.02 0h-4.02m-4 0h-4.03m-4.02 0h-4.02m-4 0h-4.03m-4.02 0h-4m-4.02 0h-4.02m-4.02 0h-4.02m-4 0h-4.03m-4.03 0h-4.02m-4.02 0h-4m-4.03 0h-4.02m-4.02 0h-4m-4.03 0H-688m-4 0h-4.03m-4 0h-4.03m-4.02 0h-4.02m-4 0h-4.03m-4.02 0h-4.02m-4 0h-4.03m-4.02 0h-4.02m-4.02 0h-4m-4.03 0h-4m-4.03 0h-4m-4.03 0h-4.02m-4.02 0h-4m-4.03 0h-4.02m-4.02 0h-4.02m-4 0h-4.02m-4.02 0h-4.02m-4.02 0h-4m-4.03 0h-4.03m-4 0h-4.03m-4.02 0h-4.02m-4.02 0h-4m-4.03 0h-4.02m-4.02 0h-4m-4.02 0h-4.02m-4.02 0h-4.02m-4 0h-4.03m-4.03 0h-4.02m-4 0H-913m-4.02 0h-4.02m-4 0h-4.03m-4.02 0h-4.02m-4 0h-2" stroke="#3a414a" fill="none"/><path d="M600 1601.3l.02.47h-.53v-.95h.53z" stroke="#3a414a" stroke-width=".05" fill="#3a414a"/><path d="M-957.88 1601.3l14.26-4.64v9.27z" stroke="#3a414a" fill="#3a414a"/><path d="M-918.5 1681.3h2m4 0h3.98m4 0h3.98m4 0h4m3.98 0h4m3.98 0h4m4 0h3.98m4 0h3.98m4 0h3.98m4 0h4m3.98 0h4m3.98 0h4m3.98 0h4m4 0h3.98m4 0h3.98m4 0h4m3.98 0h4m3.98 0h4m4 0h3.98m4 0h3.98m4 0h3.98m4 0h4m3.98 0h4m3.98 0h4m4 0h3.98m4 0h3.98m4 0h3.98m4 0h4m3.98 0h4m3.98 0h4m4 0h3.98m4 0h3.98m4 0h3.98m4 0h4m3.98 0h4m3.98 0h4m4 0h3.98m4 0h3.98m4 0h3.98m4 0h4m3.98 0h4m3.98 0h4m3.98 0h4m4 0h3.98m4 0h3.98m4 0h4m3.98 0h4m3.98 0h4m3.98 0h4m4 0h3.98m4 0h3.98m4 0h4m3.98 0h4m3.98 0h4m3.98 0h4m4 0h3.98m4 0h3.98m4 0h4m3.98 0h4m3.98 0h4m3.98 0h4m4 0h3.98m4 0h3.98m4 0h4m3.98 0h4m3.98 0h4m3.98 0h4m4 0h3.98m4 0h3.98m4 0h4m3.98 0h4m3.98 0h4m3.98 0h4m4 0h3.98m4 0h3.98m4 0h4m3.98 0h4m3.98 0h4m4 0h3.98m4 0h3.98m4 0h4m3.98 0h4m3.98 0h4m4 0h3.98m4 0h4m3.98 0h4m3.98 0h4m4 0h3.98m4 0h3.98m4 0h4m3.98 0h4m3.98 0h4m4 0h3.98m4 0h4m3.98 0h4m3.98 0h4m4 0h3.98m4 0h3.98m4 0h4m3.98 0h4m3.98 0h4m4 0h3.98m4 0h4m3.98 0h4m3.98 0h4m4 0h3.98m4 0h3.98m4 0h4m3.98 0h4m3.98 0h4m4 0h3.98m4 0h4m3.98 0h4m3.98 0h4m4 0h3.98m4 0H1.6m4 0h4m3.98 0h4m3.98 0h4m4 0h3.98m4 0h4m3.98 0h4m3.98 0h4m4 0h3.98m4 0h3.98m4 0h4m3.98 0h4m3.98 0h4m4 0h3.98m4 0h4m3.98 0h4m3.98 0h4m4 0h3.98m4 0h3.98m4 0h4m3.98 0h4m4 0h3.98m4 0h3.98m4 0h4m3.98 0h4m3.98 0h4m4 0h3.98m4 0h3.98m4 0h4m3.98 0h4m3.98 0h4m4 0h3.98m4 0h4m3.98 0h2" stroke="#3a414a" fill="none"/><path d="M-918.5 1681.77h-.53l.03-.47-.02-.48h.53z" stroke="#3a414a" stroke-width=".05" fill="#3a414a"/><path d="M277.88 1681.3l-14.26 4.63v-9.27z" stroke="#3a414a" fill="#3a414a"/><path d="M399.5 160H361" stroke="#3a414a" fill="none"/><path d="M400 160.47h-.5v-.94h.5zM361 160.47h-.53l.03-.46-.02-.47h.53z" stroke="#3a414a" stroke-width=".05" fill="#3a414a"/><path d="M719.5 399.55h-38.52" stroke="#3a414a" fill="none"/><path d="M720 400.03h-.5v-.95h.5zM681 400.03h-.5V400l-.03-.92h.53z" stroke="#3a414a" stroke-width=".05" fill="#3a414a"/><path d="M719.5 680.45h-38.08" stroke="#3a414a" fill="none"/><path d="M720 680.92h-.5v-.95h.5zM681.43 680.92h-.54l.05-.95h.48z" stroke="#3a414a" stroke-width=".05" fill="#3a414a"/><path d="M719.5 838.9h-18.8a.23.23 0 0 0-.22.23.23.23 0 0 1-.23.22h-18.8" stroke="#3a414a" fill="none"/><path d="M720 839.38h-.5v-.95h.5zM681.47 839.83h-.5l-.03-.95h.53z" stroke="#3a414a" stroke-width=".05" fill="#3a414a"/><path d="M399.5 1681.3H361" stroke="#3a414a" fill="none"/><path d="M400 1681.77h-.5v-.95h.5zM361 1681.77h-.53l.03-.47-.02-.48h.53z" stroke="#3a414a" stroke-width=".05" fill="#3a414a"/><path d="M560.5 539.17H640" stroke="#3a414a" fill="none"/><path d="M560.5 539.65h-.5v-.95h.5z" stroke="#3a414a" stroke-width=".05" fill="#3a414a"/><path d="M640 539.17h.5" stroke="#3a414a" fill="none"/><path d="M-161.5-40h240v80h-240z" stroke="#000" fill="#fff"/><use xlink:href="#z" transform="matrix(1,0,0,1,-156.50093557953278,-34.99999999999928) translate(28.319227430555543 29.43793402777778)"/><use xlink:href="#p" transform="matrix(1,0,0,1,-156.50093557953278,-34.99999999999928) translate(108.33224826388889 29.43793402777778)"/><use xlink:href="#N" transform="matrix(1,0,0,1,-156.50093557953278,-34.99999999999928) translate(88.32899305555556 52.87543402777778)"/><path d="M-1400-40h240v80h-240z" stroke="#000" fill="#fff"/><use xlink:href="#O" transform="matrix(1,0,0,1,-1395,-35.00000000000023) translate(81.66124131944444 42.56293402777778)"/><path d="M599.5 840.7h-862.62" stroke="#3a414a" fill="none"/><path d="M600 840.7l.02.47h-.53v-.94h.53z" stroke="#3a414a" stroke-width=".05" fill="#3a414a"/><path d="M-277.88 840.7l14.26-4.64v9.28z" stroke="#3a414a" fill="#3a414a"/><path d="M-280 840.7c0 22.1-17.9 40-40 40s-40-17.9-40-40 17.9-40 40-40 40 17.9 40 40zM-1240 999.8c0 22.1-17.9 40-40 40s-40-17.9-40-40 17.9-40 40-40 40 17.9 40 40z" stroke="#000" fill="#fff"/><path d="M-1239 999.8h438.77a.23.23 0 0 1 .23.23.23.23 0 0 0 .23.22h422.9" stroke="#3a414a" fill="none"/><path d="M-1239 1000.28h-.53l.03-.47-.02-.47h.53z" stroke="#3a414a" stroke-width=".05" fill="#3a414a"/><path d="M-362.12 1000.25l-14.26 4.63v-9.26z" stroke="#3a414a" fill="#3a414a"/><path d="M-280 1000.25c0 22.1-17.9 40-40 40s-40-17.9-40-40 17.9-40 40-40 40 17.9 40 40z" stroke="#000" fill="#fff"/><path d="M-279 1000.25h2m4 0h3.98m4 0h3.98m4 0h3.98m4 0h4m3.98 0h4m3.98 0h4m3.98 0h4m3.98 0h4m3.98 0h4m4 0h3.98m4 0h3.98m4 0h3.98m4 0h3.98m4 0h4m3.98 0h4m3.98 0h4m3.98 0h4m4 0h3.98m4 0h3.98m4 0h3.98m4 0h3.98m4 0h4m3.98 0h4m3.98 0h4m3.98 0h4m3.98 0h4m4 0h3.98m4 0h3.98m4 0h3.98m4 0h3.98m4 0h4m3.98 0h4m3.98 0h4m3.98 0h4m3.98 0h4m4 0h3.98m4 0h3.98m4 0h3.98m4 0h3.98m4 0h4m3.98 0h4m3.98 0h4m3.98 0h4m3.98 0h4m4 0h3.98m4 0h3.98m4 0h3.98m4 0h3.98m4 0h4m3.98 0h4m3.98 0h4m3.98 0h4m3.98 0h4m4 0h3.98m4 0h2.05l.03-.02.03-.02.02-.02.03-.02.03-.03v-.03l.02-.04V999.95l.03-.04v-.03l.04-.03.02-.03h.03l.03-.03h2.07m4 0h4m3.98 0h4m3.98 0h4m3.98 0h4m4 0h4m3.98 0h4m4 0h3.98m4 0h3.98m4 0h3.98m4 0h4m3.98 0h4m3.98 0h4m4 0h3.98m4 0h3.98m4 0h4m3.98 0h4m3.98 0h4m4 0h3.98m4 0h3.98m4 0h4m3.98 0h4m3.98 0h4m4 0h3.98m4 0h3.98m4 0h4m3.98 0h4m3.98 0h4m3.98 0h4m4 0H394m4 0h4m3.98 0h4m3.98 0h4m3.98 0h4m4 0h3.98m4 0h3.98m4 0h4m3.98 0h4m3.98 0h4m4 0h3.98m4 0h3.98m4 0h4m3.98 0h4m3.98 0h4m4 0h3.98m4 0h3.98m4 0h4m3.98 0h4m3.98 0h4m3.98 0h4m4 0h3.98m4 0h3.98m4 0h4m3.98 0h2" stroke="#3a414a" fill="none"/><path d="M-279 1000.73h-.53l.03-.47-.02-.5h.53z" stroke="#3a414a" stroke-width=".05" fill="#3a414a"/><path d="M598.38 999.8l-14.26 4.64v-9.28z" stroke="#3a414a" fill="#3a414a"/><path d="M560.5 921.2H640" stroke="#3a414a" fill="none"/><path d="M560.5 921.66h-.5v-.95h.5z" stroke="#3a414a" stroke-width=".05" fill="#3a414a"/><path d="M640 921.2h.5" stroke="#3a414a" fill="none"/><path d="M680.5 999.8c0 22.1-17.9 40-40 40s-40-17.9-40-40 17.9-40 40-40 40 17.9 40 40z" stroke="#000" fill="#3a414a"/><path d="M-320 881.7v1.94m0 3.88v3.87m0 3.87v3.88m0 3.88v3.87m0 3.88v3.88m0 3.88v3.87m0 3.9v3.87m0 3.88v3.87m0 3.88v3.88m0 3.88v3.87m0 3.88v1.95" stroke="#3a414a" fill="none"/><path d="M-320 881.2l.48-.02v.53h-.96v-.53zM-319.52 959.78l-.47-.03-.48.02v-.53h.96z" stroke="#3a414a" stroke-width=".05" fill="#3a414a"/><path d="M-320 1041.25v789.7" stroke="#3a414a" fill="none"/><path d="M-320 1040.75l.48-.02v.53h-.96v-.54z" stroke="#3a414a" stroke-width=".05" fill="#3a414a"/><path d="M-305 1845.8c0 8.28-6.72 15-15 15-8.28 0-15-6.72-15-15 0-8.3 6.72-15 15-15 8.28 0 15 6.7 15 15z" stroke="#3a414a" fill="#fff"/><path d="M720 966.7a6 6 0 0 1 6-6h108a6 6 0 0 1 6 6v68.9a6 6 0 0 1-6 6H726a6 6 0 0 1-6-6z" stroke="#000" stroke-opacity="0" stroke-width="2" fill="#fff" fill-opacity="0"/><use xlink:href="#g" transform="matrix(1,0,0,1,725,965.69961826302) translate(21.66124131944445 29.58333333333333)"/><use xlink:href="#K" transform="matrix(1,0,0,1,725,965.69961826302) translate(14.993489583333343 53.00998263888888)"/><path d="M680.5 1440c0 22.1-17.9 40-40 40s-40-17.9-40-40 17.9-40 40-40 40 17.9 40 40z" stroke="#000" fill="#3a414a"/><path d="M1223.12 1240H-1" stroke="#3a414a" fill="none"/><path d="M1237.88 1240l-14.26 4.63v-9.27z" stroke="#3a414a" fill="#3a414a"/><path d="M-1 1240h-.5M599.5 1158.9H53.85" stroke="#3a414a" fill="none"/><path d="M600 1158.9l.02.48h-.53v-.95h.53z" stroke="#3a414a" stroke-width=".05" fill="#3a414a"/><path d="M39.1 1158.9l14.25-4.63v9.27z" stroke="#3a414a" fill="#3a414a"/><path d="M1239 1360h-2m-4.04 0h-4.03m-4.02 0h-4.02m-4.02 0h-4.03m-4.02 0h-4.02m-4.03 0h-4.02m-4.03 0h-4.03m-4.02 0h-4.03m-4.02 0h-4.03m-4.02 0h-4.03m-4.03 0h-4.03m-4.03 0h-4.03m-4 0h-4.04m-4.02 0h-4.03m-4 0h-4.04m-4.03 0h-4.02m-4.02 0h-4.02m-4.03 0h-4.03m-4.02 0h-4.03m-4.02 0H1084m-4.03 0h-4.02m-4.03 0h-4.02m-4.03 0h-4.03m-4.02 0h-4.03m-4.03 0h-4.03m-4.03 0h-4m-4.04 0h-4.02m-4.03 0h-4.02m-4.02 0h-4.03m-4.02 0h-4.02m-4.03 0h-4.02m-4.03 0h-4.02m-4.03 0h-4.03m-4.02 0h-4.03m-4.02 0h-4.03m-4.02 0h-4.03m-4.03 0h-4.02m-4.03 0h-4.03m-4.03 0H931m-4 0h-4.04m-4.03 0h-4.02m-4.02 0h-4.02m-4.03 0h-4.03m-4.02 0h-4.03m-4.02 0h-4.03m-4.03 0h-4.02m-4.03 0h-4.02m-4.03 0h-4.03m-4.02 0h-4.03m-4.03 0h-4.03m-4.03 0h-4m-4.04 0h-4.02m-4.03 0h-4m-4.04 0h-4.03m-4.02 0h-4.02m-4.02 0h-4.03m-4.03 0h-4.02m-4.03 0h-4.02m-4.03 0h-4.03m-4.02 0h-4.03m-4.02 0h-4.03m-4.03 0h-4.02m-4.03 0h-4.03m-4.03 0h-4.03m-4 0h-4.04m-4.02 0h-4.03m-4.02 0h-4.02m-4.03 0h-4.02m-4.02 0h-4.03m-4.02 0h-4.03m-4.02 0h-4.03m-4.02 0h-4.03m-4.03 0h-4.02m-4.03 0h-4.02m-4.03 0h-4.03m-4.02 0h-4.03m-4.03 0h-4.03m-4.03 0h-4m-3.96 0h-3.98m-3.97 0h-4m-3.96 0h-3.98m-3.97 0h-3.98m-3.98 0h-3.97m-3.98 0h-3.98m-3.98 0h-3.97m-3.98 0h-3.98m-3.97 0h-3.98m-3.97 0h-3.98m-3.97 0h-3.98m-3.97 0h-3.98m-3.97 0h-3.97m-3.98 0h-3.97m-3.98 0h-3.97m-3.98 0h-3.97m-3.97 0h-3.98m-3.97 0h-3.97m-3.97 0h-3.98m-3.97 0h-3.97m-3.97 0h-3.98m-3.97 0h-3.96m-3.98 0h-3.97m-4 0h-3.96m-3.98 0h-3.97m-4 0h-3.96m-3.97 0h-3.98m-3.98 0h-3.98m-3.97 0h-3.98m-3.98 0h-3.97m-3.98 0h-3.97m-3.98 0h-3.97m-3.98 0h-3.97m-3.98 0h-3.97m-3.98 0h-3.97m-3.97 0h-3.98m-3.97 0h-3.98m-3.97 0h-3.98m-3.97 0H307m-3.97 0h-3.97m-3.98 0h-3.97m-3.97 0h-3.97m-3.98 0h-3.97m-3.96 0h-3.98m-3.97 0h-4m-3.96 0h-3.98m-3.97 0h-4m-3.96 0h-3.97m-3.98 0h-3.98m-3.98 0h-3.97m-3.98 0h-3.98m-3.98 0h-3.97m-3.97 0h-3.98m-3.97 0h-3.98m-3.97 0h-3.98m-3.97 0h-3.98m-3.97 0h-3.97m-3.98 0h-3.97m-3.98 0h-3.97m-3.98 0h-3.97m-3.98 0h-3.97m-3.97 0h-3.98m-3.97 0h-3.97m-3.97 0h-3.98m-3.97 0h-3.97m-3.97 0H92.4m-4 0h-3.96m-3.98 0H76.5m-4 0h-3.96m-3.98 0H60.6m-3.98 0h-3.98m-3.97 0H44.7m-3.98 0h-3.98m-3.97 0H28.8m-3.98 0h-3.98m-3.97 0h-2" stroke="#3a414a" fill="none"/><path d="M1239.5 1360l.02.47h-.53v-.94h.53z" stroke="#3a414a" stroke-width=".05" fill="#3a414a"/><path d="M.12 1360l14.26-4.64v9.27z" stroke="#3a414a" fill="#3a414a"/><path d="M39.5 1440h2m4 0h4m4 0h4m4 0h4m4 0h4m4 0h4m4 0h4m4 0h4m4 0h4m4 0h4.02m4 0h4m4 0h4m4 0h4m4 0h4m4 0h4m4 0h4m4 0h4m4 0h4m4 0h4m4 0h4m4 0h4m4 0h4.02m4 0h4m4 0h4m4 0h4m4 0h4m4 0h4m4 0h4m4 0h4m4 0h4m4 0h4m4 0h4m4 0h4m4.02 0h4m4 0h4m4 0h4m4 0h4m4 0h4m4 0h4m4 0h4m4 0h4m4 0h4m4 0h4m4 0h4m4 0h4m4.02 0h4m4 0h4m4 0h4m4 0h4m4 0h4m4 0h4m4 0h4m4 0h4m4 0h4m4 0h4m4 0h4m4.02 0h4m4 0h4m4 0h4m4 0h4m4 0h4m4 0h4m4 0h4m4 0h4m4 0h4m4 0h4m4 0h4m4 0h4m4.02 0h2" stroke="#3a414a" fill="none"/><path d="M39.5 1440.47h-.53l.03-.46-.02-.47h.53z" stroke="#3a414a" stroke-width=".05" fill="#3a414a"/><path d="M598.38 1440l-14.26 4.63v-9.27z" stroke="#3a414a" fill="#3a414a"/><path d="M-1039.5 360h79.5" stroke="#3a414a" fill="none"/><path d="M-1039.5 360.48h-.5v-.96h.5z" stroke="#3a414a" stroke-width=".05" fill="#3a414a"/><path d="M-960 360h.5M560.5 1303.2H640" stroke="#3a414a" fill="none"/><path d="M560.5 1303.68h-.5v-.95h.5z" stroke="#3a414a" stroke-width=".05" fill="#3a414a"/><path d="M640 1303.2h.5" stroke="#3a414a" fill="none"/><path d="M-520 806.7a6 6 0 0 1 6-6h108a6 6 0 0 1 6 6v68.9a6 6 0 0 1-6 6h-108a6 6 0 0 1-6-6z" stroke="#000" stroke-opacity="0" stroke-width="2" fill="#fff" fill-opacity="0"/><g><use xlink:href="#P" transform="matrix(1,0,0,1,-515,805.6996182630205) translate(41.66449652777778 29.58333333333333)"/><use xlink:href="#B" transform="matrix(1,0,0,1,-515,805.6996182630205) translate(8.325737847222236 53.00998263888888)"/></g><path d="M-480 1047.6a6 6 0 0 1 6-6h108a6 6 0 0 1 6 6v68.9a6 6 0 0 1-6 6h-108a6 6 0 0 1-6-6z" stroke="#000" stroke-opacity="0" stroke-width="2" fill="#fff" fill-opacity="0"/><g><use xlink:href="#P" transform="matrix(1,0,0,1,-475,1046.598542929216) translate(41.66449652777778 29.58333333333333)"/><use xlink:href="#d" transform="matrix(1,0,0,1,-475,1046.598542929216) translate(1.6579861111111285 53.00998263888888)"/></g><path d="M-360.83 1043.67l13.18-13.18" stroke="#3a414a" fill="none"/><path d="M-360.5 1044l-.42.43-.23-.36-.35-.4.34-.34zM-347.6 1029.9l.67.54-.4.4-.67-.67.34-.34z" stroke="#3a414a" stroke-width=".05" fill="#3a414a"/><path d="M719.5 1001.15h-38.08" stroke="#3a414a" fill="none"/><path d="M720 1001.62h-.5v-.95h.5zM681.43 1001.62h-.54l.05-.95h.48z" stroke="#3a414a" stroke-width=".05" fill="#3a414a"/><path d="M719.5 1439.55h-38" stroke="#3a414a" fill="none"/><path d="M720 1440.03h-.5v-.95h.5zM681.5 1440.03h-.5v-.02l-.03-.92h.53z" stroke="#3a414a" stroke-width=".05" fill="#3a414a"/><path d="M-1480 965.35a6 6 0 0 1 6-6h108a6 6 0 0 1 6 6v68.9a6 6 0 0 1-6 6h-108a6 6 0 0 1-6-6z" stroke="#000" stroke-opacity="0" stroke-width="2" fill="#fff" fill-opacity="0"/><g><use xlink:href="#g" transform="matrix(1,0,0,1,-1475,964.3512312637267) translate(21.66124131944445 30.56293402777778)"/><use xlink:href="#Q" transform="matrix(1,0,0,1,-1475,964.3512312637267) translate(-5.009765624999979 53.98958333333333)"/></g><path d="M-1359.5 999.8h38.5" stroke="#3a414a" fill="none"/><path d="M-1359.5 1000.28h-.5v-.95h.5zM-1320.5 999.8l.02.48h-.53v-.95h.53z" stroke="#3a414a" stroke-width=".05" fill="#3a414a"/><defs><path d="M839-1335c-182-6-269 67-259 253h491v142H580V0H400v-940H138v-142h262c-15-293 132-408 418-402 94 2 200 7 281 21v145c-75-10-177-14-260-17" id="R"/><path d="M736-142h380V0H134v-142h422v-1200H267v-142h469v1342" id="S"/><path d="M615-1102c343 0 484 203 482 560-1 347-147 562-488 562-336 0-475-219-479-562-4-349 156-560 485-560zm-8 989c240 0 301-180 301-429 0-245-55-427-290-427-236 0-299 181-299 427 0 243 61 429 288 429" id="T"/><path d="M1018 0H814c-67-224-138-444-200-673C552-442 476-224 407 0H204L21-1082h178c43 310 105 601 126 933 54-225 128-425 193-638h193c63 212 134 415 185 638 22-336 90-622 136-933h176" id="U"/><g id="a"><use transform="matrix(0.010850694444444442,0,0,0.010850694444444442,0,0)" xlink:href="#R"/><use transform="matrix(0.010850694444444442,0,0,0.010850694444444442,13.33550347222222,0)" xlink:href="#S"/><use transform="matrix(0.010850694444444442,0,0,0.010850694444444442,26.67100694444444,0)" xlink:href="#T"/><use transform="matrix(0.010850694444444442,0,0,0.010850694444444442,40.00651041666666,0)" xlink:href="#U"/></g><path d="M745-142h380V0H143v-142h422v-798H246v-142h499v940zM545-1292v-192h200v192H545" id="V"/><path d="M706-1102c241 0 344 136 343 381V0H868v-695c1-168-57-273-220-268-190 6-283 138-283 336V0H185c-3-360 6-732-6-1082h170c4 54 7 126 8 185h3c63-121 164-204 346-205" id="W"/><path d="M715 0H502L69-1082h202c94 253 197 500 285 758 19 57 36 126 52 183 96-335 234-626 350-941h201" id="X"/><path d="M914 0L548-499l-132 98V0H236v-1484h180v927l475-525h211L663-617 1125 0H914" id="Y"/><path d="M617-1102c355 0 481 238 477 599H322c5 222 84 388 301 388 144 0 244-59 284-166l158 45C1002-72 854 20 623 20c-342 0-490-220-490-568 0-346 151-554 484-554zm291 461c-18-192-90-328-289-328-194 0-287 128-295 328h584" id="Z"/><path d="M865-914c-3-187-2-380-2-570h180v1261c0 76 1 155 6 223H877c-8-49-9-116-10-174h-5C801-44 708 26 530 26c-135 0-234-46-297-139s-95-232-95-419c0-377 131-566 392-566 176 0 271 63 335 184zm-286-51c-222 0-255 197-255 427 0 229 31 425 253 425 237 0 286-195 286-441 0-238-52-411-284-411" id="aa"/><g id="b"><use transform="matrix(0.010850694444444442,0,0,0.010850694444444442,0,0)" xlink:href="#V"/><use transform="matrix(0.010850694444444442,0,0,0.010850694444444442,13.33550347222222,0)" xlink:href="#W"/><use transform="matrix(0.010850694444444442,0,0,0.010850694444444442,26.67100694444444,0)" xlink:href="#X"/><use transform="matrix(0.010850694444444442,0,0,0.010850694444444442,40.00651041666666,0)" xlink:href="#T"/><use transform="matrix(0.010850694444444442,0,0,0.010850694444444442,53.34201388888888,0)" xlink:href="#Y"/><use transform="matrix(0.010850694444444442,0,0,0.010850694444444442,66.6775173611111,0)" xlink:href="#Z"/><use transform="matrix(0.010850694444444442,0,0,0.010850694444444442,80.01302083333331,0)" xlink:href="#aa"/></g><path d="M698-1104c312 3 392 244 392 558 0 315-82 566-392 566-169 0-277-65-331-184h-5c8 188 2 394 4 589H185V-858c0-76-1-156-6-224h175c6 52 9 120 10 178h4c58-122 150-202 330-200zm-49 991c225 0 255-203 255-433 0-225-32-419-253-419-236 0-285 192-285 441 0 237 53 411 283 411" id="ab"/><path d="M1065-1013c47 164 49 500-1 665C999-130 875 20 611 20c-377 0-484-300-487-695-2-245 41-425 141-551 77-98 191-144 352-144 261 0 386 140 448 357zM741-155c199-92 203-504 159-785-26-168-96-284-283-284-281 0-308 256-311 549-2 181 18 324 80 428 46 77 115 118 227 120 47 0 90-10 128-28zM496-555v-249h235v249H496" id="ac"/><g id="c"><use transform="matrix(0.010850694444444442,0,0,0.010850694444444442,0,0)" xlink:href="#ab"/><use transform="matrix(0.010850694444444442,0,0,0.010850694444444442,13.33550347222222,0)" xlink:href="#ac"/></g><path d="M839-1102c70 0 148 7 206 17v167c-112-18-268-36-363 15-129 69-208 203-208 395V0H294c-10-367 32-789-52-1082h171c21 75 41 161 48 250h5c67-152 152-270 373-270" id="ad"/><path d="M873-819c-18-114-119-146-250-146-163 0-245 50-245 151 0 151 170 148 294 185 182 54 388 94 388 320 0 240-189 325-439 329-245 4-410-69-454-268l159-31c24 133 136 168 295 165 144-2 270-31 270-171 0-164-195-160-331-202-167-52-350-87-350-299 0-218 173-315 413-313 220 2 373 77 412 260" id="ae"/><g id="d"><use transform="matrix(0.010850694444444442,0,0,0.010850694444444442,0,0)" xlink:href="#ad"/><use transform="matrix(0.010850694444444442,0,0,0.010850694444444442,13.33550347222222,0)" xlink:href="#Z"/><use transform="matrix(0.010850694444444442,0,0,0.010850694444444442,26.67100694444444,0)" xlink:href="#ae"/><use transform="matrix(0.010850694444444442,0,0,0.010850694444444442,40.00651041666666,0)" xlink:href="#T"/><use transform="matrix(0.010850694444444442,0,0,0.010850694444444442,53.34201388888888,0)" xlink:href="#S"/><use transform="matrix(0.010850694444444442,0,0,0.010850694444444442,66.6775173611111,0)" xlink:href="#X"/><use transform="matrix(0.010850694444444442,0,0,0.010850694444444442,80.01302083333331,0)" xlink:href="#Z"/><use transform="matrix(0.010850694444444442,0,0,0.010850694444444442,93.34852430555554,0)" xlink:href="#aa"/></g><path d="M682 16c-209 0-323-80-324-285v-671H190v-142h170l58-282h120v282h432v142H538v652c2 114 60 155 182 155 106 0 209-16 297-34v137C921-4 806 16 682 16" id="af"/><path d="M1060-1016c0 191-128 285-295 323v4c154 18 262 91 313 209 14 35 21 72 21 110 0 277-194 390-478 390-292 0-457-129-493-382l186-17c24 161 121 250 307 250 172 1 298-80 291-247-8-208-220-239-446-233v-156c217 9 409-34 409-232 0-152-102-225-264-225-159 0-264 88-278 233l-181-14c33-239 196-367 461-367 264 0 447 102 447 354" id="ag"/><g id="e"><use transform="matrix(0.010850694444444442,0,0,0.010850694444444442,0,0)" xlink:href="#ae"/><use transform="matrix(0.010850694444444442,0,0,0.010850694444444442,13.33550347222222,0)" xlink:href="#af"/><use transform="matrix(0.010850694444444442,0,0,0.010850694444444442,26.67100694444444,0)" xlink:href="#Z"/><use transform="matrix(0.010850694444444442,0,0,0.010850694444444442,40.00651041666666,0)" xlink:href="#ab"/><use transform="matrix(0.010850694444444442,0,0,0.010850694444444442,53.34201388888888,0)" xlink:href="#ag"/></g><path d="M528 20c-247 0-343-132-343-381v-721h180v686c-4 177 45 284 224 277 194-8 279-136 279-336v-627h181c3 360-6 732 6 1082H885c-4-54-7-126-8-185h-3C809-64 714 20 528 20" id="ah"/><g id="f"><use transform="matrix(0.010850694444444442,0,0,0.010850694444444442,0,0)" xlink:href="#ad"/><use transform="matrix(0.010850694444444442,0,0,0.010850694444444442,13.33550347222222,0)" xlink:href="#Z"/><use transform="matrix(0.010850694444444442,0,0,0.010850694444444442,26.67100694444444,0)" xlink:href="#af"/><use transform="matrix(0.010850694444444442,0,0,0.010850694444444442,40.00651041666666,0)" xlink:href="#ah"/><use transform="matrix(0.010850694444444442,0,0,0.010850694444444442,53.34201388888888,0)" xlink:href="#ad"/><use transform="matrix(0.010850694444444442,0,0,0.010850694444444442,66.6775173611111,0)" xlink:href="#W"/><use transform="matrix(0.010850694444444442,0,0,0.010850694444444442,80.01302083333331,0)" xlink:href="#ae"/></g><path d="M611-1370c266 0 451 106 451 368 0 147-77 243-154 327-132 144-316 255-451 395-42 44-75 87-96 134h723V0H144v-117c124-264 387-411 582-603 73-72 151-147 151-271 0-161-104-231-266-231-163 0-249 90-268 238l-184-17c35-233 185-369 452-369" id="ai"/><g id="g"><use transform="matrix(0.010850694444444442,0,0,0.010850694444444442,0,0)" xlink:href="#ae"/><use transform="matrix(0.010850694444444442,0,0,0.010850694444444442,13.33550347222222,0)" xlink:href="#af"/><use transform="matrix(0.010850694444444442,0,0,0.010850694444444442,26.67100694444444,0)" xlink:href="#Z"/><use transform="matrix(0.010850694444444442,0,0,0.010850694444444442,40.00651041666666,0)" xlink:href="#ab"/><use transform="matrix(0.010850694444444442,0,0,0.010850694444444442,53.34201388888888,0)" xlink:href="#ai"/></g><path d="M148-1120c216-7 379-89 463-229h166v1204h353V0H157v-145h439v-1021c-79 124-254 184-448 194v-148" id="aj"/><g id="h"><use transform="matrix(0.010850694444444442,0,0,0.010850694444444442,0,0)" xlink:href="#ae"/><use transform="matrix(0.010850694444444442,0,0,0.010850694444444442,13.33550347222222,0)" xlink:href="#af"/><use transform="matrix(0.010850694444444442,0,0,0.010850694444444442,26.67100694444444,0)" xlink:href="#Z"/><use transform="matrix(0.010850694444444442,0,0,0.010850694444444442,40.00651041666666,0)" xlink:href="#ab"/><use transform="matrix(0.010850694444444442,0,0,0.010850694444444442,53.34201388888888,0)" xlink:href="#aj"/></g><path d="M365-904c58-129 161-200 334-200 130 0 228 46 293 138s98 233 98 420c0 189-34 331-102 425S824 20 698 20c-170 0-275-64-336-184 0 55-3 116-9 164H179c5-68 6-147 6-223v-1261h180c-2 193 4 394-4 580h4zm283 791c221 0 256-197 256-427 0-229-34-425-254-425-236 0-285 195-285 441 0 237 53 411 283 411" id="ak"/><path d="M631 20c-350 0-501-215-501-562 0-355 162-560 502-560 250 0 399 118 446 323l-192 14c-23-124-109-196-262-196-242 0-305 171-305 415 1 245 61 427 304 427 151 0 248-77 267-215l190 12C1039-107 883 20 631 20" id="al"/><g id="i"><use transform="matrix(0.010850694444444442,0,0,0.010850694444444442,0,0)" xlink:href="#ak"/><use transform="matrix(0.010850694444444442,0,0,0.010850694444444442,13.33550347222222,0)" xlink:href="#S"/><use transform="matrix(0.010850694444444442,0,0,0.010850694444444442,26.67100694444444,0)" xlink:href="#T"/><use transform="matrix(0.010850694444444442,0,0,0.010850694444444442,40.00651041666666,0)" xlink:href="#al"/><use transform="matrix(0.010850694444444442,0,0,0.010850694444444442,53.34201388888888,0)" xlink:href="#Y"/><use transform="matrix(0.010850694444444442,0,0,0.010850694444444442,66.6775173611111,0)" xlink:href="#ae"/></g><g id="j"><use transform="matrix(0.010850694444444442,0,0,0.010850694444444442,0,0)" xlink:href="#T"/><use transform="matrix(0.010850694444444442,0,0,0.010850694444444442,13.33550347222222,0)" xlink:href="#W"/></g><g id="k"><use transform="matrix(0.010850694444444442,0,0,0.010850694444444442,0,0)" xlink:href="#ae"/><use transform="matrix(0.010850694444444442,0,0,0.010850694444444442,13.33550347222222,0)" xlink:href="#af"/><use transform="matrix(0.010850694444444442,0,0,0.010850694444444442,26.67100694444444,0)" xlink:href="#Z"/><use transform="matrix(0.010850694444444442,0,0,0.010850694444444442,40.00651041666666,0)" xlink:href="#ab"/><use transform="matrix(0.010850694444444442,0,0,0.010850694444444442,53.34201388888888,0)" xlink:href="#ai"/></g><g id="l"><use transform="matrix(0.010850694444444442,0,0,0.010850694444444442,0,0)" xlink:href="#ab"/><use transform="matrix(0.010850694444444442,0,0,0.010850694444444442,13.33550347222222,0)" xlink:href="#ag"/></g><g id="m"><use transform="matrix(0.010850694444444442,0,0,0.010850694444444442,0,0)" xlink:href="#ad"/><use transform="matrix(0.010850694444444442,0,0,0.010850694444444442,13.33550347222222,0)" xlink:href="#Z"/><use transform="matrix(0.010850694444444442,0,0,0.010850694444444442,26.67100694444444,0)" xlink:href="#ae"/><use transform="matrix(0.010850694444444442,0,0,0.010850694444444442,40.00651041666666,0)" xlink:href="#T"/><use transform="matrix(0.010850694444444442,0,0,0.010850694444444442,53.34201388888888,0)" xlink:href="#S"/><use transform="matrix(0.010850694444444442,0,0,0.010850694444444442,66.6775173611111,0)" xlink:href="#X"/><use transform="matrix(0.010850694444444442,0,0,0.010850694444444442,80.01302083333331,0)" xlink:href="#Z"/><use transform="matrix(0.010850694444444442,0,0,0.010850694444444442,93.34852430555554,0)" xlink:href="#aa"/></g><g id="n"><use transform="matrix(0.010850694444444442,0,0,0.010850694444444442,0,0)" xlink:href="#ab"/><use transform="matrix(0.010850694444444442,0,0,0.010850694444444442,13.33550347222222,0)" xlink:href="#aj"/></g><path d="M844-1321c-130 0-195 53-191 182v57h443v190H653V0H373v-892H117v-190h256v-83c5-247 162-348 422-349 120-1 232 13 327 28v184c-84-10-183-19-278-19" id="am"/><path d="M794-190h353V0H118v-190h395v-1104H223v-190h571v1294" id="an"/><path d="M616-1102c361 0 521 202 521 560 0 354-171 562-527 562C259 20 92-192 92-542c0-351 169-560 524-560zm-9 930c200-2 236-165 236-370 0-199-27-367-223-367-195 0-233 146-233 367 0 129 18 223 55 282s92 88 165 88" id="ao"/><path d="M1028 0H784c-56-191-119-378-170-573C562-377 495-191 437 0H194L11-1082h228c32 239 67 472 95 714 4 40 7 80 7 119 53-195 119-378 177-568h193c56 190 120 371 169 568-1-79 11-158 21-226l91-607h226" id="ap"/><g id="o"><use transform="matrix(0.010850694444444444,0,0,0.010850694444444444,0,0)" xlink:href="#am"/><use transform="matrix(0.010850694444444444,0,0,0.010850694444444444,13.335503472222221,0)" xlink:href="#an"/><use transform="matrix(0.010850694444444444,0,0,0.010850694444444444,26.671006944444443,0)" xlink:href="#ao"/><use transform="matrix(0.010850694444444444,0,0,0.010850694444444444,40.006510416666664,0)" xlink:href="#ap"/></g><path d="M427-171c3 195 2 397 2 596H148V-846c1-83-4-168-8-236h272c10 49 14 118 15 176h4c59-114 151-197 316-197 291 0 385 259 385 560 0 243-65 433-220 521-50 28-109 42-176 42-162-2-253-78-309-191zm69-661c-91 113-92 463-1 586 46 62 145 101 225 54 96-57 118-191 119-351 0-123-18-215-53-276-46-82-128-115-220-74-25 12-48 33-70 61" id="aq"/><path d="M875-1102c70 0 148 7 206 17v237c-110-17-267-37-359 15-123 69-192 207-192 395V0H250c-10-367 32-789-52-1082h271c19 69 36 149 46 228h4c52-151 151-250 356-248" id="ar"/><path d="M934-1102c199 0 220 177 220 381V0H926c-2-260 10-533-4-785-4-72-14-138-83-138-34 0-61 27-81 81s-29 134-29 241V0H501c-2-260 9-533-5-785-4-72-13-138-82-138-46 0-65 47-80 93-21 67-30 155-30 248V0H75c-3-360 6-732-6-1082h209c6 50 3 123 8 175 36-100 83-195 216-195 135 0 166 79 196 196 42-105 93-196 236-196" id="as"/><path d="M794-190h353V0H118v-190h395v-702H223v-190h571v892zM513-1277v-207h281v207H513" id="at"/><path d="M622-916c-112 2-200 14-200 111 0 90 89 101 168 121 234 58 514 77 514 368C1104-4 751 54 434 5 267-21 161-112 121-270l247-37c24 111 113 145 252 141 114-3 226-12 226-124 0-101-103-113-192-134-225-54-490-76-490-351 0-247 201-328 458-328 245 0 413 88 457 292l-249 26c-16-98-92-133-208-131" id="au"/><path d="M1113-274C1038-96 884 20 626 20c-352 0-526-209-526-566 0-358 185-556 530-556 358 0 496 251 499 615H395c5 180 68 319 245 319 102 0 186-45 208-129zM857-663c-6-177-128-307-315-247-94 30-141 121-145 247h460" id="av"/><g id="p"><use transform="matrix(0.010850694444444444,0,0,0.010850694444444444,0,0)" xlink:href="#aq"/><use transform="matrix(0.010850694444444444,0,0,0.010850694444444444,13.335503472222221,0)" xlink:href="#ar"/><use transform="matrix(0.010850694444444444,0,0,0.010850694444444444,26.671006944444443,0)" xlink:href="#ao"/><use transform="matrix(0.010850694444444444,0,0,0.010850694444444444,40.006510416666664,0)" xlink:href="#as"/><use transform="matrix(0.010850694444444444,0,0,0.010850694444444444,53.342013888888886,0)" xlink:href="#at"/><use transform="matrix(0.010850694444444444,0,0,0.010850694444444444,66.67751736111111,0)" xlink:href="#au"/><use transform="matrix(0.010850694444444444,0,0,0.010850694444444444,80.01302083333334,0)" xlink:href="#av"/></g><path d="M621-530c0 421 127 700 301 955H641C466 173 344-110 344-531s122-702 297-953h281c-174 254-301 534-301 954" id="aw"/><path d="M117-675c0-408 109-695 502-695 384 0 492 295 492 695 0 326-84 561-303 658-117 51-277 52-394 1-217-95-297-335-297-659zm591 451c148-93 132-449 108-680-15-138-53-246-199-246-150 0-193 107-207 248-22 230-40 585 106 678 50 32 141 32 192 0zM506-555v-249h215v249H506" id="ax"/><path d="M885-531c0 421-122 704-297 956H307c174-255 301-534 301-955 0-420-127-700-301-954h281c175 251 297 532 297 953" id="ay"/><g id="q"><use transform="matrix(0.010850694444444444,0,0,0.010850694444444444,0,0)" xlink:href="#aw"/><use transform="matrix(0.010850694444444444,0,0,0.010850694444444444,13.335503472222221,0)" xlink:href="#aq"/><use transform="matrix(0.010850694444444444,0,0,0.010850694444444444,26.671006944444443,0)" xlink:href="#ax"/><use transform="matrix(0.010850694444444444,0,0,0.010850694444444444,40.006510416666664,0)" xlink:href="#ay"/></g><path d="M768-1103c247 0 336 167 336 416V0H824v-619c-3-164-24-273-171-273-164 0-229 142-229 312V0H143c-4-359 9-736-8-1082h268c7 63 12 146 13 215h4c67-145 160-236 348-236" id="az"/><path d="M775-193C708-75 621 20 439 20 226 20 106-93 106-306c0-251 170-341 417-346l223-4c4-143-12-264-148-264-103 0-141 58-150 153l-293-14c37-219 194-321 455-321 263 0 418 130 417 390v392c1 84 5 161 89 160 21 0 42-2 62-6v152c-57 15-108 27-180 26-145 0-202-73-217-205h-6zm-256 17c168 0 234-139 227-325-166 4-347-25-347 173 0 94 33 152 120 152" id="aA"/><path d="M711 13c-250 0-386-99-385-349l2-556H161v-190h181l88-282h176v282h385v190H606v530c-10 130 45 186 174 184 91-2 176-11 255-27v186C933-1 833 13 711 13" id="aB"/><path d="M470 0v-305h289V0H470" id="aC"/><path d="M471 20c-247 0-336-169-336-415v-687h281v607c4 148 31 285 172 285 152 0 207-150 207-312v-580h281c4 359-9 736 8 1082H816c-7-63-11-146-12-215h-5C736-76 644 20 471 20" id="aD"/><g id="r"><use transform="matrix(0.010850694444444444,0,0,0.010850694444444444,0,0)" xlink:href="#ar"/><use transform="matrix(0.010850694444444444,0,0,0.010850694444444444,13.335503472222221,0)" xlink:href="#av"/><use transform="matrix(0.010850694444444444,0,0,0.010850694444444444,26.671006944444443,0)" xlink:href="#au"/><use transform="matrix(0.010850694444444444,0,0,0.010850694444444444,40.006510416666664,0)" xlink:href="#ao"/><use transform="matrix(0.010850694444444444,0,0,0.010850694444444444,53.342013888888886,0)" xlink:href="#az"/><use transform="matrix(0.010850694444444444,0,0,0.010850694444444444,66.67751736111111,0)" xlink:href="#aA"/><use transform="matrix(0.010850694444444444,0,0,0.010850694444444444,80.01302083333334,0)" xlink:href="#aB"/><use transform="matrix(0.010850694444444444,0,0,0.010850694444444444,93.34852430555557,0)" xlink:href="#av"/><use transform="matrix(0.010850694444444444,0,0,0.010850694444444444,106.6840277777778,0)" xlink:href="#aC"/><use transform="matrix(0.010850694444444444,0,0,0.010850694444444444,120.01953125000003,0)" xlink:href="#ar"/><use transform="matrix(0.010850694444444444,0,0,0.010850694444444444,133.35503472222226,0)" xlink:href="#aD"/><use transform="matrix(0.010850694444444444,0,0,0.010850694444444444,146.69053819444449,0)" xlink:href="#az"/><use transform="matrix(0.010850694444444444,0,0,0.010850694444444444,160.0260416666667,0)" xlink:href="#aw"/><use transform="matrix(0.010850694444444444,0,0,0.010850694444444444,173.36154513888894,0)" xlink:href="#ay"/></g><g id="s"><use transform="matrix(0.010850694444444444,0,0,0.010850694444444444,0,0)" xlink:href="#am"/><use transform="matrix(0.010850694444444444,0,0,0.010850694444444444,13.335503472222221,0)" xlink:href="#an"/><use transform="matrix(0.010850694444444444,0,0,0.010850694444444444,26.671006944444443,0)" xlink:href="#ao"/><use transform="matrix(0.010850694444444444,0,0,0.010850694444444444,40.006510416666664,0)" xlink:href="#ap"/></g><path d="M138-1120c207-4 339-93 415-229h266v1140h323V0H149v-209h389v-891c-70 121-216 187-400 194v-214" id="aE"/><g id="t"><use transform="matrix(0.010850694444444444,0,0,0.010850694444444444,0,0)" xlink:href="#au"/><use transform="matrix(0.010850694444444444,0,0,0.010850694444444444,13.335503472222221,0)" xlink:href="#aB"/><use transform="matrix(0.010850694444444444,0,0,0.010850694444444444,26.671006944444443,0)" xlink:href="#av"/><use transform="matrix(0.010850694444444444,0,0,0.010850694444444444,40.006510416666664,0)" xlink:href="#aq"/><use transform="matrix(0.010850694444444444,0,0,0.010850694444444444,53.342013888888886,0)" xlink:href="#aE"/></g><g id="u"><use transform="matrix(0.010850694444444444,0,0,0.010850694444444444,0,0)" xlink:href="#aq"/><use transform="matrix(0.010850694444444444,0,0,0.010850694444444444,13.335503472222221,0)" xlink:href="#ar"/><use transform="matrix(0.010850694444444444,0,0,0.010850694444444444,26.671006944444443,0)" xlink:href="#ao"/><use transform="matrix(0.010850694444444444,0,0,0.010850694444444444,40.006510416666664,0)" xlink:href="#as"/><use transform="matrix(0.010850694444444444,0,0,0.010850694444444444,53.342013888888886,0)" xlink:href="#at"/><use transform="matrix(0.010850694444444444,0,0,0.010850694444444444,66.67751736111111,0)" xlink:href="#au"/><use transform="matrix(0.010850694444444444,0,0,0.010850694444444444,80.01302083333334,0)" xlink:href="#av"/></g><g id="v"><use transform="matrix(0.010850694444444444,0,0,0.010850694444444444,0,0)" xlink:href="#aw"/><use transform="matrix(0.010850694444444444,0,0,0.010850694444444444,13.335503472222221,0)" xlink:href="#aq"/><use transform="matrix(0.010850694444444444,0,0,0.010850694444444444,26.671006944444443,0)" xlink:href="#aE"/><use transform="matrix(0.010850694444444444,0,0,0.010850694444444444,40.006510416666664,0)" xlink:href="#ay"/></g><path d="M1109-360C1066-122 902 20 624 20c-347 0-514-209-514-555 0-353 168-567 518-567 270 0 425 136 473 361l-283 14c-16-106-75-183-196-182-75 0-130 31-165 93s-52 152-52 270c0 249 74 374 221 374 120 0 188-82 201-201" id="aF"/><g id="w"><use transform="matrix(0.010850694444444444,0,0,0.010850694444444444,0,0)" xlink:href="#am"/><use transform="matrix(0.010850694444444444,0,0,0.010850694444444444,13.335503472222221,0)" xlink:href="#aD"/><use transform="matrix(0.010850694444444444,0,0,0.010850694444444444,26.671006944444443,0)" xlink:href="#az"/><use transform="matrix(0.010850694444444444,0,0,0.010850694444444444,40.006510416666664,0)" xlink:href="#aF"/><use transform="matrix(0.010850694444444444,0,0,0.010850694444444444,53.342013888888886,0)" xlink:href="#aB"/><use transform="matrix(0.010850694444444444,0,0,0.010850694444444444,66.67751736111111,0)" xlink:href="#at"/><use transform="matrix(0.010850694444444444,0,0,0.010850694444444444,80.01302083333334,0)" xlink:href="#ao"/><use transform="matrix(0.010850694444444444,0,0,0.010850694444444444,93.34852430555557,0)" xlink:href="#az"/></g><path d="M135-968c34-256 187-402 480-402 217 0 371 75 441 220 45 93 40 219-8 308-114 212-348 323-508 488-38 39-66 80-85 123h654V0H123v-195c112-245 321-399 515-560 57-48 107-96 142-157 14-26 22-53 22-80-1-104-73-156-185-154-131 2-181 74-199 194" id="aG"/><g id="x"><use transform="matrix(0.010850694444444444,0,0,0.010850694444444444,0,0)" xlink:href="#au"/><use transform="matrix(0.010850694444444444,0,0,0.010850694444444444,13.335503472222221,0)" xlink:href="#aB"/><use transform="matrix(0.010850694444444444,0,0,0.010850694444444444,26.671006944444443,0)" xlink:href="#av"/><use transform="matrix(0.010850694444444444,0,0,0.010850694444444444,40.006510416666664,0)" xlink:href="#aq"/><use transform="matrix(0.010850694444444444,0,0,0.010850694444444444,53.342013888888886,0)" xlink:href="#aG"/></g><g id="y"><use transform="matrix(0.010850694444444444,0,0,0.010850694444444444,0,0)" xlink:href="#aw"/><use transform="matrix(0.010850694444444444,0,0,0.010850694444444444,13.335503472222221,0)" xlink:href="#aq"/><use transform="matrix(0.010850694444444444,0,0,0.010850694444444444,26.671006944444443,0)" xlink:href="#aG"/><use transform="matrix(0.010850694444444444,0,0,0.010850694444444444,40.006510416666664,0)" xlink:href="#ay"/></g><path d="M788-691c191 26 337 112 337 315 0 286-214 399-510 399-306 0-483-128-522-391l286-25c18 124 91 190 235 188 132-2 223-58 223-188 0-176-191-182-378-179v-227c176 5 345-9 345-176 0-115-82-171-200-171s-198 55-206 169l-281-20c34-252 213-373 492-373 224 0 381 74 451 224 20 43 29 89 29 136 0 195-130 279-301 315v4" id="aH"/><g id="z"><use transform="matrix(0.010850694444444444,0,0,0.010850694444444444,0,0)" xlink:href="#au"/><use transform="matrix(0.010850694444444444,0,0,0.010850694444444444,13.335503472222221,0)" xlink:href="#aB"/><use transform="matrix(0.010850694444444444,0,0,0.010850694444444444,26.671006944444443,0)" xlink:href="#av"/><use transform="matrix(0.010850694444444444,0,0,0.010850694444444444,40.006510416666664,0)" xlink:href="#aq"/><use transform="matrix(0.010850694444444444,0,0,0.010850694444444444,53.342013888888886,0)" xlink:href="#aH"/></g><path fill="#3a414a" d="M698-1104c312 3 392 244 392 558 0 315-82 566-392 566-169 0-277-65-331-184h-5c8 188 2 394 4 589H185V-858c0-76-1-156-6-224h175c6 52 9 120 10 178h4c58-122 150-202 330-200zm-49 991c225 0 255-203 255-433 0-225-32-419-253-419-236 0-285 192-285 441 0 237 53 411 283 411" id="aI"/><path fill="#3a414a" d="M1065-1013c47 164 49 500-1 665C999-130 875 20 611 20c-377 0-484-300-487-695-2-245 41-425 141-551 77-98 191-144 352-144 261 0 386 140 448 357zM741-155c199-92 203-504 159-785-26-168-96-284-283-284-281 0-308 256-311 549-2 181 18 324 80 428 46 77 115 118 227 120 47 0 90-10 128-28zM496-555v-249h235v249H496" id="aJ"/><g id="A"><use transform="matrix(0.010850694444444442,0,0,0.010850694444444442,0,0)" xlink:href="#aI"/><use transform="matrix(0.010850694444444442,0,0,0.010850694444444442,13.33550347222222,0)" xlink:href="#aJ"/></g><path d="M1000-272c3 95 12 159 101 161 21 0 41-3 59-7V-6c-44 10-86 16-139 16-141 2-191-84-197-217h-6C748-76 648 20 446 20c-207 0-318-120-318-322 0-266 194-348 454-354l236-4c12-191-40-305-222-305-140 0-220 47-232 172l-188-17c33-204 181-292 423-292 255 0 401 118 401 364v466zm-683-27c0 109 63 184 175 182 166-3 259-96 306-217 24-65 20-120 20-200-232 7-501-28-501 235" id="aK"/><g id="B"><use transform="matrix(0.010850694444444442,0,0,0.010850694444444442,0,0)" xlink:href="#al"/><use transform="matrix(0.010850694444444442,0,0,0.010850694444444442,13.33550347222222,0)" xlink:href="#ad"/><use transform="matrix(0.010850694444444442,0,0,0.010850694444444442,26.67100694444444,0)" xlink:href="#Z"/><use transform="matrix(0.010850694444444442,0,0,0.010850694444444442,40.00651041666666,0)" xlink:href="#aK"/><use transform="matrix(0.010850694444444442,0,0,0.010850694444444442,53.34201388888888,0)" xlink:href="#af"/><use transform="matrix(0.010850694444444442,0,0,0.010850694444444442,66.6775173611111,0)" xlink:href="#Z"/><use transform="matrix(0.010850694444444442,0,0,0.010850694444444442,80.01302083333331,0)" xlink:href="#aa"/></g><path d="M1048-32c-2 300-135 456-433 456-222-1-358-88-400-267l184-25c22 99 100 157 222 156 184-2 248-125 248-315 0-64 3-133-2-194C807-100 706-13 524-12c-306 0-381-228-381-537 0-318 85-550 400-550 164 0 271 83 325 202h3c1-60 3-134 12-185h171c-13 339-4 702-6 1050zM585-145c210-8 284-178 284-406 0-192-52-331-177-392-33-16-69-22-104-22-223 2-259 184-259 414 0 229 31 415 256 406" id="aL"/><g id="C"><use transform="matrix(0.010850694444444442,0,0,0.010850694444444442,0,0)" xlink:href="#ab"/><use transform="matrix(0.010850694444444442,0,0,0.010850694444444442,13.33550347222222,0)" xlink:href="#Z"/><use transform="matrix(0.010850694444444442,0,0,0.010850694444444442,26.67100694444444,0)" xlink:href="#W"/><use transform="matrix(0.010850694444444442,0,0,0.010850694444444442,40.00651041666666,0)" xlink:href="#aa"/><use transform="matrix(0.010850694444444442,0,0,0.010850694444444442,53.34201388888888,0)" xlink:href="#V"/><use transform="matrix(0.010850694444444442,0,0,0.010850694444444442,66.6775173611111,0)" xlink:href="#W"/><use transform="matrix(0.010850694444444442,0,0,0.010850694444444442,80.01302083333331,0)" xlink:href="#aL"/></g><g id="D"><use transform="matrix(0.010850694444444442,0,0,0.010850694444444442,0,0)" xlink:href="#aK"/><use transform="matrix(0.010850694444444442,0,0,0.010850694444444442,13.33550347222222,0)" xlink:href="#U"/><use transform="matrix(0.010850694444444442,0,0,0.010850694444444442,26.67100694444444,0)" xlink:href="#aK"/><use transform="matrix(0.010850694444444442,0,0,0.010850694444444442,40.00651041666666,0)" xlink:href="#V"/><use transform="matrix(0.010850694444444442,0,0,0.010850694444444442,53.34201388888888,0)" xlink:href="#af"/><use transform="matrix(0.010850694444444442,0,0,0.010850694444444442,66.6775173611111,0)" xlink:href="#V"/><use transform="matrix(0.010850694444444442,0,0,0.010850694444444442,80.01302083333331,0)" xlink:href="#W"/><use transform="matrix(0.010850694444444442,0,0,0.010850694444444442,93.34852430555554,0)" xlink:href="#aL"/></g><g id="E"><use transform="matrix(0.010850694444444442,0,0,0.010850694444444442,0,0)" xlink:href="#al"/><use transform="matrix(0.010850694444444442,0,0,0.010850694444444442,13.33550347222222,0)" xlink:href="#ad"/><use transform="matrix(0.010850694444444442,0,0,0.010850694444444442,26.67100694444444,0)" xlink:href="#Z"/><use transform="matrix(0.010850694444444442,0,0,0.010850694444444442,40.00651041666666,0)" xlink:href="#aK"/><use transform="matrix(0.010850694444444442,0,0,0.010850694444444442,53.34201388888888,0)" xlink:href="#af"/><use transform="matrix(0.010850694444444442,0,0,0.010850694444444442,66.6775173611111,0)" xlink:href="#Z"/><use transform="matrix(0.010850694444444442,0,0,0.010850694444444442,80.01302083333331,0)" xlink:href="#aa"/></g><g id="F"><use transform="matrix(0.010850694444444442,0,0,0.010850694444444442,0,0)" xlink:href="#ae"/><use transform="matrix(0.010850694444444442,0,0,0.010850694444444442,13.33550347222222,0)" xlink:href="#af"/><use transform="matrix(0.010850694444444442,0,0,0.010850694444444442,26.67100694444444,0)" xlink:href="#aK"/><use transform="matrix(0.010850694444444442,0,0,0.010850694444444442,40.00651041666666,0)" xlink:href="#ad"/><use transform="matrix(0.010850694444444442,0,0,0.010850694444444442,53.34201388888888,0)" xlink:href="#af"/><use transform="matrix(0.010850694444444442,0,0,0.010850694444444442,66.6775173611111,0)" xlink:href="#ae"/></g><g id="G"><use transform="matrix(0.010850694444444442,0,0,0.010850694444444442,0,0)" xlink:href="#ab"/><use transform="matrix(0.010850694444444442,0,0,0.010850694444444442,13.33550347222222,0)" xlink:href="#Z"/><use transform="matrix(0.010850694444444442,0,0,0.010850694444444442,26.67100694444444,0)" xlink:href="#W"/><use transform="matrix(0.010850694444444442,0,0,0.010850694444444442,40.00651041666666,0)" xlink:href="#aa"/><use transform="matrix(0.010850694444444442,0,0,0.010850694444444442,53.34201388888888,0)" xlink:href="#V"/><use transform="matrix(0.010850694444444442,0,0,0.010850694444444442,66.6775173611111,0)" xlink:href="#W"/><use transform="matrix(0.010850694444444442,0,0,0.010850694444444442,80.01302083333331,0)" xlink:href="#aL"/></g><g id="H"><use transform="matrix(0.010850694444444442,0,0,0.010850694444444442,0,0)" xlink:href="#R"/><use transform="matrix(0.010850694444444442,0,0,0.010850694444444442,13.33550347222222,0)" xlink:href="#aj"/></g><g id="I"><use transform="matrix(0.010850694444444442,0,0,0.010850694444444442,0,0)" xlink:href="#ad"/><use transform="matrix(0.010850694444444442,0,0,0.010850694444444442,13.33550347222222,0)" xlink:href="#Z"/><use transform="matrix(0.010850694444444442,0,0,0.010850694444444442,26.67100694444444,0)" xlink:href="#af"/><use transform="matrix(0.010850694444444442,0,0,0.010850694444444442,40.00651041666666,0)" xlink:href="#ah"/><use transform="matrix(0.010850694444444442,0,0,0.010850694444444442,53.34201388888888,0)" xlink:href="#ad"/><use transform="matrix(0.010850694444444442,0,0,0.010850694444444442,66.6775173611111,0)" xlink:href="#W"/><use transform="matrix(0.010850694444444442,0,0,0.010850694444444442,80.01302083333331,0)" xlink:href="#ae"/></g><g id="J"><use transform="matrix(0.010850694444444442,0,0,0.010850694444444442,0,0)" xlink:href="#ad"/><use transform="matrix(0.010850694444444442,0,0,0.010850694444444442,13.33550347222222,0)" xlink:href="#Z"/><use transform="matrix(0.010850694444444442,0,0,0.010850694444444442,26.67100694444444,0)" xlink:href="#ae"/><use transform="matrix(0.010850694444444442,0,0,0.010850694444444442,40.00651041666666,0)" xlink:href="#ah"/><use transform="matrix(0.010850694444444442,0,0,0.010850694444444442,53.34201388888888,0)" xlink:href="#S"/><use transform="matrix(0.010850694444444442,0,0,0.010850694444444442,66.6775173611111,0)" xlink:href="#af"/></g><g id="K"><use transform="matrix(0.010850694444444442,0,0,0.010850694444444442,0,0)" xlink:href="#ad"/><use transform="matrix(0.010850694444444442,0,0,0.010850694444444442,13.33550347222222,0)" xlink:href="#Z"/><use transform="matrix(0.010850694444444442,0,0,0.010850694444444442,26.67100694444444,0)" xlink:href="#ae"/><use transform="matrix(0.010850694444444442,0,0,0.010850694444444442,40.00651041666666,0)" xlink:href="#ah"/><use transform="matrix(0.010850694444444442,0,0,0.010850694444444442,53.34201388888888,0)" xlink:href="#S"/><use transform="matrix(0.010850694444444442,0,0,0.010850694444444442,66.6775173611111,0)" xlink:href="#af"/></g><path d="M1157-949c0 209-118 316-279 368L1227 0H895L605-515H432V0H137v-1349h494c317-2 526 111 526 400zM608-744c158 1 248-51 252-193 5-207-223-184-428-183v376h176" id="aM"/><g id="L"><use transform="matrix(0.010850694444444444,0,0,0.010850694444444444,0,0)" xlink:href="#aM"/><use transform="matrix(0.010850694444444444,0,0,0.010850694444444444,13.335503472222221,0)" xlink:href="#av"/><use transform="matrix(0.010850694444444444,0,0,0.010850694444444444,26.671006944444443,0)" xlink:href="#au"/><use transform="matrix(0.010850694444444444,0,0,0.010850694444444444,40.006510416666664,0)" xlink:href="#ao"/><use transform="matrix(0.010850694444444444,0,0,0.010850694444444444,53.342013888888886,0)" xlink:href="#az"/><use transform="matrix(0.010850694444444444,0,0,0.010850694444444444,66.67751736111111,0)" xlink:href="#aA"/><use transform="matrix(0.010850694444444444,0,0,0.010850694444444444,80.01302083333334,0)" xlink:href="#aB"/><use transform="matrix(0.010850694444444444,0,0,0.010850694444444444,93.34852430555557,0)" xlink:href="#av"/></g><path d="M609-1161c-125 0-218 36-218 153 0 149 166 161 290 196 235 67 484 129 484 421 0 300-239 408-554 411C302 23 93-114 38-367l285-37c32 128 131 205 296 203 143-2 259-31 259-173 0-164-197-172-333-212-218-64-441-131-441-405 0-276 231-379 511-379 299 0 463 114 513 363l-286 29c-28-115-96-183-233-183" id="aN"/><path d="M774 0H438L31-1082h297c94 290 200 568 280 872 83-304 194-581 291-872h294" id="aO"/><g id="M"><use transform="matrix(0.010850694444444444,0,0,0.010850694444444444,0,0)" xlink:href="#aN"/><use transform="matrix(0.010850694444444444,0,0,0.010850694444444444,13.335503472222221,0)" xlink:href="#av"/><use transform="matrix(0.010850694444444444,0,0,0.010850694444444444,26.671006944444443,0)" xlink:href="#ar"/><use transform="matrix(0.010850694444444444,0,0,0.010850694444444444,40.006510416666664,0)" xlink:href="#aO"/><use transform="matrix(0.010850694444444444,0,0,0.010850694444444444,53.342013888888886,0)" xlink:href="#av"/><use transform="matrix(0.010850694444444444,0,0,0.010850694444444444,66.67751736111111,0)" xlink:href="#ar"/></g><g id="N"><use transform="matrix(0.010850694444444444,0,0,0.010850694444444444,0,0)" xlink:href="#aw"/><use transform="matrix(0.010850694444444444,0,0,0.010850694444444444,13.335503472222221,0)" xlink:href="#aq"/><use transform="matrix(0.010850694444444444,0,0,0.010850694444444444,26.671006944444443,0)" xlink:href="#aH"/><use transform="matrix(0.010850694444444444,0,0,0.010850694444444444,40.006510416666664,0)" xlink:href="#ay"/></g><g id="O"><use transform="matrix(0.010850694444444444,0,0,0.010850694444444444,0,0)" xlink:href="#au"/><use transform="matrix(0.010850694444444444,0,0,0.010850694444444444,13.335503472222221,0)" xlink:href="#aB"/><use transform="matrix(0.010850694444444444,0,0,0.010850694444444444,26.671006944444443,0)" xlink:href="#av"/><use transform="matrix(0.010850694444444444,0,0,0.010850694444444444,40.006510416666664,0)" xlink:href="#aq"/><use transform="matrix(0.010850694444444444,0,0,0.010850694444444444,53.342013888888886,0)" xlink:href="#aG"/></g><g id="P"><use transform="matrix(0.010850694444444442,0,0,0.010850694444444442,0,0)" xlink:href="#ab"/><use transform="matrix(0.010850694444444442,0,0,0.010850694444444442,13.33550347222222,0)" xlink:href="#ai"/></g><path d="M904-1102c199 0 220 177 220 381V0H956v-686c-3-114 0-215-60-264-70-33-125-4-158 71-26 56-39 140-39 252V0H531v-686c-3-114-1-215-61-264-78-41-136 24-157 84-24 69-39 159-39 259V0H105c-3-360 6-732-6-1082h149c6 50 3 123 8 175 36-100 83-195 216-195 135 0 166 79 196 196 42-105 93-196 236-196" id="aP"/><g id="Q"><use transform="matrix(0.010850694444444442,0,0,0.010850694444444442,0,0)" xlink:href="#al"/><use transform="matrix(0.010850694444444442,0,0,0.010850694444444442,13.33550347222222,0)" xlink:href="#T"/><use transform="matrix(0.010850694444444442,0,0,0.010850694444444442,26.67100694444444,0)" xlink:href="#aP"/><use transform="matrix(0.010850694444444442,0,0,0.010850694444444442,40.00651041666666,0)" xlink:href="#ab"/><use transform="matrix(0.010850694444444442,0,0,0.010850694444444442,53.34201388888888,0)" xlink:href="#S"/><use transform="matrix(0.010850694444444442,0,0,0.010850694444444442,66.6775173611111,0)" xlink:href="#Z"/><use transform="matrix(0.010850694444444442,0,0,0.010850694444444442,80.01302083333331,0)" xlink:href="#af"/><use transform="matrix(0.010850694444444442,0,0,0.010850694444444442,93.34852430555554,0)" xlink:href="#Z"/><use transform="matrix(0.010850694444444442,0,0,0.010850694444444442,106.68402777777774,0)" xlink:href="#ae"/></g></defs></g></svg>